<svg width="153" height="183" viewBox="0 0 153 183" fill="none" xmlns="http://www.w3.org/2000/svg">
<path d="M104.141 29.1866C107.693 25.2 110.402 20.5694 112.111 15.5607C113.82 10.552 114.496 5.2639 114.101 0C103.196 0.857179 93.073 5.85155 85.9133 13.9071C82.4848 17.7679 79.8866 22.2594 78.2727 27.1155C76.6588 31.9717 76.0619 37.0939 76.5174 42.1787C81.8369 42.2219 87.0952 41.0725 91.8853 38.8196C96.6755 36.5667 100.869 33.2706 104.141 29.1866ZM127.819 97.258C127.882 90.2472 129.778 83.3676 133.329 77.2685C136.88 71.1693 141.969 66.0518 148.114 62.3988C144.236 56.9571 139.109 52.4702 133.139 49.2939C127.17 46.1177 120.523 44.3394 113.725 44.1001C99.0676 42.6362 85.5375 52.426 77.7389 52.426C69.9403 52.426 58.9471 44.2831 46.7325 44.466C38.7471 44.7222 30.9663 46.9893 24.1489 51.0462C17.3315 55.1031 11.7103 60.8113 7.83345 67.614C-8.70332 95.6112 3.6053 137.241 20.1421 159.84C27.6588 170.911 37.0547 183.445 49.4573 182.988C61.8598 182.53 65.9001 175.485 80.2758 175.485C94.6515 175.485 99.0676 182.988 111.282 182.713C123.497 182.439 132.141 171.368 140.034 160.297C145.625 152.26 149.992 143.477 153 134.222C145.554 131.129 139.2 125.981 134.725 119.412C130.25 112.843 127.849 105.141 127.819 97.258Z" fill="black"/>
</svg>
