<svg width="25" height="24" viewBox="0 0 25 24" fill="none" xmlns="http://www.w3.org/2000/svg">
<path d="M10.2915 7C10.2915 7.3 10.1886 7.5 9.98274 7.7L4.83696 12.7C4.4253 13.1 3.80781 13.1 3.39615 12.7C2.98449 12.3 2.98449 11.7 3.39615 11.3L8.54192 6.3C8.95358 5.9 9.57108 5.9 9.98274 6.3C10.1886 6.5 10.2915 6.7 10.2915 7Z" fill="#066AC9"/>
<path d="M10.2915 17C10.2915 17.3 10.1886 17.5 9.98274 17.7C9.57108 18.1 8.95358 18.1 8.54192 17.7L3.39615 12.7C2.98449 12.3 2.98449 11.7 3.39615 11.3C3.80781 10.9 4.4253 10.9 4.83696 11.3L9.98274 16.3C10.1886 16.5 10.2915 16.7 10.2915 17Z" fill="#066AC9"/>
<path d="M21.6122 12C21.6122 12.6 21.2005 13 20.583 13H4.11656C3.49906 13 3.0874 12.6 3.0874 12C3.0874 11.4 3.49906 11 4.11656 11H20.583C21.2005 11 21.6122 11.4 21.6122 12Z" fill="#066AC9"/>
</svg>
