<svg width="19" height="19" viewBox="0 0 19 19" fill="none" xmlns="http://www.w3.org/2000/svg">
<path d="M9.92042 4.88108L2.96879 11.8327C2.873 11.9285 2.81287 12.0542 2.79838 12.189L2.3786 15.9658C2.36942 16.0488 2.37784 16.1328 2.40331 16.2123C2.42878 16.2918 2.47074 16.365 2.52643 16.4272C2.58212 16.4894 2.65031 16.5391 2.72653 16.5732C2.80276 16.6073 2.8853 16.6249 2.96879 16.6249C2.99061 16.6249 3.01241 16.6237 3.0341 16.6213L6.81332 16.2015C6.94804 16.187 7.07374 16.1269 7.16957 16.0311L14.1188 9.08008L9.92042 4.88108ZM16.8412 3.83845L15.1614 2.15873C14.8274 1.8248 14.3744 1.63721 13.9021 1.63721C13.4298 1.63721 12.9768 1.8248 12.6428 2.15873L10.76 4.04151L14.9584 8.24051L16.8418 6.35714C17.1756 6.02303 17.3631 5.57 17.363 5.09767C17.3629 4.62535 17.1752 4.17241 16.8412 3.83845Z" fill="#066AC9"/>
</svg>
