<svg width="152" height="146" viewBox="0 0 152 146" fill="none" xmlns="http://www.w3.org/2000/svg">
<path d="M151.076 74.6307C151.076 68.6482 150.565 64.2826 149.458 59.7554H77.5127V86.7572H119.743C118.892 93.4675 114.294 103.573 104.077 110.364L103.934 111.268L126.682 128.001L128.258 128.15C142.732 115.457 151.076 96.782 151.076 74.6307Z" fill="#4285F4"/>
<path d="M77.5141 145.775C98.2036 145.775 115.573 139.307 128.259 128.15L104.079 110.364C97.6078 114.649 88.923 117.64 77.5141 117.64C57.2503 117.64 40.0515 104.948 33.9207 87.4048L33.022 87.4772L9.36841 104.859L9.05908 105.675C21.6601 129.443 47.5436 145.775 77.5141 145.775Z" fill="#34A853"/>
<path d="M33.9213 87.4024C32.3037 82.8752 31.3674 78.0241 31.3674 73.012C31.3674 67.9993 32.3037 63.1489 33.8362 58.6216L33.7934 57.6574L9.84335 39.9966L9.05975 40.3505C3.86626 50.2137 0.88623 61.2896 0.88623 73.012C0.88623 84.7345 3.86626 95.8098 9.05975 105.673L33.9213 87.4024Z" fill="#FBBC05"/>
<path d="M77.5141 28.3867C91.903 28.3867 101.609 34.2883 107.144 39.2202L128.77 19.1706C115.488 7.44813 98.2035 0.25293 77.5141 0.25293C47.5436 0.25293 21.6601 16.5834 9.05908 40.3515L33.8356 58.6227C40.0515 41.0794 57.2503 28.3867 77.5141 28.3867Z" fill="#EB4335"/>
</svg>
