<svg width="265" height="265" viewBox="0 0 265 265" fill="none" xmlns="http://www.w3.org/2000/svg">
<path opacity="0.3" d="M53.6632 0.7797C53.8531 0.742797 53.967 0.558284 53.967 0.373772C53.929 0.152359 53.7391 0.00475185 53.5493 0.0416541C51.4605 0.263068 49.5236 0.742799 47.7386 1.44394C47.5487 1.51775 47.4348 1.73916 47.5107 1.92367C47.5867 2.10818 47.8146 2.21889 48.0045 2.14508C49.6755 1.48084 51.5744 1.00112 53.5872 0.816604C53.6252 0.779702 53.6252 0.7797 53.6632 0.7797ZM65.3225 1.66535C65.4744 1.62845 65.5504 1.51775 65.5883 1.37014C65.6263 1.14872 65.5124 0.964209 65.2845 0.927307C63.2337 0.484479 61.2588 0.189261 59.4359 0.00474959C59.208 -0.0321527 59.0181 0.152362 59.0181 0.336874C59.0181 0.558287 59.17 0.742795 59.3599 0.742795C61.1829 0.890404 63.1198 1.18563 65.0946 1.62845C65.2086 1.66536 65.2845 1.66535 65.3225 1.66535ZM39.2695 9.52554C39.3454 9.48864 39.4594 9.45173 39.4973 9.34103C40.5227 7.68043 41.776 6.24124 43.1432 5.02346C43.2952 4.87585 43.3331 4.65444 43.1812 4.46993C43.0293 4.32232 42.8014 4.28541 42.6115 4.43302C41.1684 5.6877 39.8771 7.16379 38.8137 8.8982C38.6998 9.08271 38.7758 9.30412 38.9277 9.41483C39.0416 9.56244 39.1555 9.56244 39.2695 9.52554ZM76.4881 5.20797C76.602 5.17107 76.7159 5.09726 76.7539 4.98656C76.8299 4.80205 76.7539 4.58063 76.526 4.46993C74.6271 3.69498 72.7662 3.03074 70.9812 2.4403C70.7913 2.3665 70.5635 2.4772 70.4875 2.69862C70.4116 2.88313 70.5255 3.10454 70.7534 3.17835C72.5004 3.76878 74.3613 4.43303 76.2222 5.20797C76.3361 5.24488 76.4121 5.24488 76.4881 5.20797ZM44.2446 16.1311C44.3965 16.0941 44.5105 15.9834 44.5105 15.8358C44.5484 15.6144 44.3965 15.4299 44.2066 15.393C42.2318 15.024 40.143 15.024 38.2061 15.3561C38.0162 15.393 37.8643 15.5775 37.9023 15.7989C37.9402 16.0203 38.1301 16.131 38.358 16.0941C40.2189 15.762 42.1938 15.762 44.0547 16.1311C44.1307 16.1311 44.1686 16.1311 44.2446 16.1311ZM35.3197 20.2641C35.4717 20.2272 35.5856 20.1165 35.5856 19.9689C35.8514 18.5666 36.2312 17.0905 36.7249 15.5406C36.8389 15.1716 36.9528 14.8395 37.0667 14.5073C37.1427 14.3228 37.0288 14.1014 36.8389 14.0276C36.649 13.9538 36.4211 14.0645 36.3452 14.249C36.2312 14.5812 36.1173 14.9502 36.0034 15.3192C35.5096 16.906 35.1299 18.419 34.864 19.8213C34.826 20.0427 34.9779 20.2272 35.1678 20.2641C35.2058 20.2641 35.2818 20.2641 35.3197 20.2641ZM28.8255 22.2199C28.9014 22.183 28.9774 22.1461 29.0534 22.0723C30.1547 20.4855 31.4839 19.157 33.0411 18.1607C33.2309 18.05 33.2689 17.7917 33.155 17.644C33.0411 17.4595 32.7752 17.4226 32.6233 17.5333C30.9523 18.6035 29.5471 20.0058 28.4077 21.6664C28.2938 21.8509 28.3318 22.0723 28.5217 22.183C28.6356 22.2568 28.7495 22.2568 28.8255 22.2199ZM87.084 10.2636C87.1979 10.2267 87.2739 10.1898 87.3118 10.0791C87.4258 9.89456 87.3498 9.67315 87.1599 9.56244C85.4129 8.60298 83.6279 7.71733 81.9189 6.90548C81.729 6.79477 81.5012 6.90548 81.3872 7.08999C81.2733 7.2745 81.3872 7.49591 81.5771 7.60662C83.2861 8.41847 85.0331 9.30413 86.7801 10.2636C86.8561 10.2636 86.97 10.3005 87.084 10.2636ZM53.6632 22.2937C53.7012 22.2937 53.7012 22.2937 53.7391 22.2568C53.929 22.1461 54.005 21.9247 53.8911 21.7402C53.0176 20.0796 51.5744 18.6035 49.7514 17.4964C49.5615 17.3857 49.3337 17.4226 49.2197 17.6071C49.1058 17.7917 49.1438 18.0131 49.3337 18.1238C51.0427 19.1939 52.3719 20.5593 53.1695 22.1092C53.2834 22.2937 53.4733 22.3675 53.6632 22.2937ZM25.5973 33.0692C25.7493 33.0323 25.8632 32.8847 25.9012 32.7002C26.0151 30.7075 26.2809 28.8254 26.7747 27.1279C26.8126 26.9434 26.6987 26.722 26.5088 26.6482C26.2809 26.6113 26.0911 26.722 26.0151 26.9065C25.5214 28.6409 25.2176 30.5598 25.1416 32.6264C25.1416 32.8478 25.2935 33.0323 25.5214 33.0323C25.5214 33.1061 25.5594 33.0692 25.5973 33.0692ZM36.0034 31.4824C36.0413 31.4824 36.0413 31.4824 36.0793 31.4455C36.2692 31.3348 36.3452 31.1134 36.2692 30.9289C35.9654 30.3753 35.7375 29.748 35.5476 29.0838C35.2438 28.0505 35.0919 26.8327 35.0539 25.5411C35.0539 25.3197 34.864 25.1721 34.6361 25.1721C34.4083 25.1721 34.2564 25.3566 34.2564 25.578C34.2943 26.9434 34.4462 28.1981 34.788 29.3052C34.9779 30.0063 35.2438 30.6705 35.5476 31.261C35.6615 31.4455 35.8514 31.5193 36.0034 31.4824ZM97.1102 16.2418C97.1861 16.2049 97.2621 16.168 97.3381 16.0941C97.452 15.9096 97.414 15.6882 97.2241 15.5775C95.5911 14.5074 93.92 13.4741 92.249 12.4777C92.0591 12.367 91.8312 12.4408 91.7173 12.5884C91.6034 12.7729 91.6793 12.9944 91.8312 13.1051C93.4643 14.1014 95.1353 15.1347 96.7684 16.168C96.8823 16.2418 96.9963 16.2787 97.1102 16.2418ZM51.2706 32.5526C51.3085 32.5526 51.3845 32.5157 51.4225 32.4788C53.1315 31.0765 54.2708 29.379 54.7266 27.5708C54.7646 27.3493 54.6506 27.1648 54.4607 27.091C54.2329 27.0541 54.043 27.1648 53.967 27.3493C53.5493 28.973 52.4859 30.5598 50.9288 31.8514C50.7768 31.999 50.7389 32.2204 50.8908 32.405C50.9667 32.5526 51.1187 32.5895 51.2706 32.5526ZM46.1055 35.1726C46.2954 35.0988 46.4473 34.9143 46.3714 34.6929C46.3334 34.5084 46.1055 34.3608 45.8777 34.4346C43.9028 34.9512 41.9659 34.9512 40.2949 34.3977C40.105 34.3239 39.8771 34.4346 39.8012 34.6191C39.7252 34.8036 39.8391 35.025 40.029 35.0988C41.89 35.7262 43.9788 35.7631 46.1055 35.1726ZM106.681 22.9211C106.757 22.8842 106.833 22.8473 106.871 22.7735C106.985 22.589 106.985 22.3675 106.795 22.2568C105.238 21.076 103.642 19.932 102.085 18.8249C101.895 18.7142 101.668 18.7511 101.554 18.8987C101.44 19.0832 101.478 19.3046 101.63 19.4154C103.225 20.5224 104.782 21.6664 106.339 22.8104C106.415 22.9211 106.567 22.958 106.681 22.9211ZM26.9266 44.3982C27.1544 44.3244 27.2684 44.1399 27.1924 43.9185L27.0405 43.4387C26.5848 41.815 26.243 40.1175 26.0531 38.3831C26.0151 38.1617 25.8252 38.0141 25.6353 38.051C25.4074 38.0879 25.2555 38.2724 25.2935 38.4569C25.4834 40.2282 25.8252 41.9626 26.3189 43.6233L26.4708 44.103C26.5088 44.3244 26.7367 44.4351 26.9266 44.3982ZM116.099 29.7111C116.175 29.6742 116.289 29.6373 116.327 29.5635C116.441 29.379 116.403 29.1576 116.213 29.0469C114.618 28.0505 113.023 26.9803 111.428 25.7994C111.238 25.6887 111.01 25.6887 110.896 25.8733C110.782 26.0578 110.782 26.2792 110.972 26.3899C112.567 27.5708 114.2 28.6778 115.833 29.6742C115.909 29.748 116.023 29.748 116.099 29.7111ZM32.2435 54.5094C32.2815 54.5094 32.3195 54.4725 32.3954 54.4356C32.5473 54.288 32.5853 54.0666 32.4714 53.919C31.2941 52.4429 30.2307 50.8192 29.3572 49.1586C29.2432 48.9741 29.0154 48.9003 28.8255 48.9741C28.6356 49.0848 28.5596 49.3062 28.6356 49.4907C29.5471 51.1882 30.6105 52.8488 31.8258 54.3618C31.9397 54.5094 32.0916 54.5463 32.2435 54.5094ZM126.581 34.8774C126.695 34.8405 126.809 34.7667 126.847 34.656C126.923 34.4715 126.809 34.2501 126.619 34.1763C124.834 33.5489 123.049 32.774 121.302 31.8883C121.112 31.7776 120.885 31.8514 120.771 32.0728C120.657 32.2573 120.733 32.4788 120.96 32.5895C122.745 33.4751 124.568 34.2501 126.391 34.9143C126.429 34.9143 126.505 34.9143 126.581 34.8774ZM40.9405 62.1482C41.0165 62.1113 41.1304 62.0744 41.1684 62.0006C41.2823 61.8161 41.2443 61.5947 41.0544 61.484C39.3834 60.4507 37.8263 59.3067 36.4211 58.052C36.2692 57.9044 36.0034 57.9413 35.8514 58.0889C35.6995 58.2365 35.7375 58.4949 35.8894 58.6425C37.3326 59.8971 38.9277 61.078 40.6367 62.1482C40.7126 62.1482 40.8266 62.1482 40.9405 62.1482ZM138.013 37.3868C138.165 37.3499 138.279 37.2022 138.316 37.0546C138.316 36.8332 138.165 36.6487 137.937 36.6487C136.038 36.5011 134.101 36.2428 132.202 35.8C132.012 35.7631 131.784 35.8738 131.746 36.0952C131.708 36.3166 131.822 36.5011 132.05 36.538C134.025 36.9808 136 37.2761 137.937 37.3868C137.937 37.3868 137.975 37.3868 138.013 37.3868ZM155.179 34.2501C155.217 34.2501 155.217 34.2501 155.255 34.2132C158.483 32.6633 160.23 31.1872 160.306 31.1134C160.458 30.9658 160.496 30.7444 160.344 30.5598C160.192 30.4122 159.964 30.3753 159.774 30.5229C159.774 30.5229 158.027 31.999 154.875 33.512C154.685 33.6227 154.609 33.8441 154.685 34.0287C154.799 34.2132 154.989 34.287 155.179 34.2501ZM149.482 36.3166L149.672 36.2797C149.862 36.2059 150.014 36.0214 149.938 35.8C149.862 35.6155 149.71 35.5048 149.444 35.5417L149.254 35.5785C147.469 36.0583 145.608 36.3904 143.709 36.5749C143.482 36.6118 143.33 36.7963 143.368 36.9808C143.406 37.2023 143.595 37.3499 143.785 37.313C145.76 37.1284 147.659 36.7963 149.482 36.3166ZM49.1058 65.9491C49.2197 65.9122 49.3337 65.8015 49.3717 65.6908C49.4476 65.5063 49.2957 65.2849 49.1058 65.2111C49.1058 65.2111 47.9285 64.879 46.1815 64.1409C45.9916 64.0671 45.7637 64.1409 45.6498 64.3254C45.5738 64.5099 45.6498 64.7314 45.8397 64.8421C47.6626 65.617 48.84 65.9491 48.8779 65.9491C48.9539 65.9491 49.0299 65.9491 49.1058 65.9491Z" fill="#066AC9"/>
<path d="M50.0171 70.3776L78.4247 78.902L54.6884 67.7944L50.0171 70.3776Z" fill="#B5D3EF"/>
<path d="M51.6504 58.2363L54.1949 65.174L78.5769 78.8647L51.6504 58.2363Z" fill="#B5D3EF"/>
<path d="M60.4612 80.8209L78.5767 78.8651L54.6885 67.7944L60.4612 80.8209Z" fill="#B5D3EF"/>
<path d="M50.0171 70.3775L54.6884 67.7944L78.5767 78.8651L54.1947 65.1743L50.0171 70.3775Z" fill="#5D9EDB"/>
<path d="M61.9042 80.6731L60.2332 70.4143L64.1829 70.7833L55.5239 62.1851L54.6504 65.4694L50.0171 70.3774L54.6884 67.7942L60.4611 80.8207L61.9042 80.6731Z" fill="#3787D2"/>
<path opacity="0.5" d="M186.169 39.7114L191.562 19.5996M189.549 44.1765L204.55 29.3787M192.739 49.3059L213.323 43.7337" stroke="#F3601E" stroke-width="3" stroke-miterlimit="10" stroke-linecap="round" stroke-linejoin="round"/>
<path d="M180.7 145.068C185.827 145.068 190.954 145.326 193.271 150.788C197.107 160.013 188.144 165.253 179.903 165.253L180.7 145.068Z" fill="#FFB7AA"/>
<path d="M181.65 127.834C187.84 127.834 194.069 128.093 196.841 133.554C201.512 142.78 190.65 148.02 180.7 148.02L181.65 127.834Z" fill="#FFB7AA"/>
<path d="M182.409 109.125C188.599 109.125 194.828 109.383 197.6 114.845C202.271 124.07 191.41 129.311 181.459 129.311L182.409 109.125Z" fill="#FFB7AA"/>
<path d="M183.89 91.3379C190.081 91.3379 196.309 91.5962 199.082 97.0577C203.753 106.283 192.891 111.523 182.941 111.523L183.89 91.3379Z" fill="#FFB7AA"/>
<path d="M136.607 205.846C131.101 225.293 118.264 239.98 97.1862 242.49C78.6908 244.999 49.2957 244.777 49.8274 219.315C50.3591 199.867 64.2211 179.903 72.4244 162.448C81.6531 142.484 101.174 122.52 125.822 130.011L136.607 205.846Z" fill="#FFB7AA"/>
<path d="M97.1865 204.665C97.1865 209.278 101.402 213.079 106.111 213.079H175.497C180.245 213.079 184.081 209.278 184.081 204.665V54.5465C184.081 49.9337 180.245 46.2065 175.497 46.2065H106.149C101.402 46.2065 97.2245 49.9337 97.2245 54.5465V204.665H97.1865Z" fill="#251E40"/>
<path d="M182.827 199.24V56.0594C182.827 51.1145 177.928 47.1291 171.889 47.1291H160.8V48.0147C160.8 50.4872 158.331 52.4799 155.331 52.4799H121.378C118.34 52.4799 115.91 50.4872 115.91 48.0147V47.1291H103.984C97.9458 47.1291 93.0467 51.1145 93.0467 56.0594V199.24C93.0467 204.185 97.9458 208.171 103.984 208.171H171.889C177.928 208.171 182.827 204.185 182.827 199.24ZM185.827 54.731V200.163C185.827 206.067 179.941 210.865 172.687 210.865H103.187C95.933 210.865 90.0464 206.067 90.0464 200.163V54.731C90.0464 48.8266 95.933 44.0293 103.187 44.0293H172.687C179.941 44.0293 185.827 48.8266 185.827 54.731Z" fill="#062C60"/>
<path d="M182.827 56.0593V199.24C182.827 204.185 177.928 208.17 171.89 208.17H103.985C97.9461 208.17 93.0469 204.185 93.0469 199.24V56.0593C93.0469 51.1143 97.9461 47.1289 103.985 47.1289H115.91V48.0146C115.91 50.487 118.378 52.4797 121.379 52.4797H155.331C158.369 52.4797 160.8 50.487 160.8 48.0146V47.1289H171.89C177.928 47.1658 182.827 51.1512 182.827 56.0593Z" fill="white"/>
<path d="M101.06 211.824H174.206C180.814 211.824 186.131 206.805 186.131 200.605V55.6162C186.131 49.4167 180.776 44.3979 174.206 44.3979H101.06C94.4519 44.3979 89.135 49.4167 89.135 55.6162V200.605C89.097 206.805 94.4519 211.824 101.06 211.824Z" fill="#F5F7F9"/>
<path d="M92.515 56.9816V199.277C92.515 204.443 96.9585 208.65 102.465 208.65H172.763C178.27 208.65 182.713 204.443 182.713 199.277V56.9816C182.713 51.8153 178.27 47.6084 172.763 47.6084H156.736L156.052 50.1547C155.597 51.8153 154.002 52.9962 152.179 52.9962H123.011C121.189 52.9962 119.593 51.8153 119.138 50.1547L118.454 47.6084H102.427C96.9964 47.6084 92.515 51.8153 92.515 56.9816ZM101.06 44.3979H174.206C180.814 44.3979 186.131 49.4167 186.131 55.6162V200.605C186.131 206.805 180.776 211.824 174.206 211.824H101.06C94.4519 211.824 89.135 206.805 89.135 200.605V55.6162C89.097 49.4167 94.4519 44.3979 101.06 44.3979Z" fill="#2B2C2F"/>
<path d="M100.377 62.9601L97.4902 60.709L100.377 58.458" stroke="#3C464B" stroke-width="1.09" stroke-miterlimit="10"/>
<path d="M170.788 60.1556H176.484M170.788 58.8271H176.484M170.788 61.4472H176.484" stroke="#535455" stroke-width="0.9" stroke-miterlimit="10"/>
<path d="M0 265C28.8634 232.12 57.5749 200.31 61.6385 197.358L108.807 231.456C106.377 234.149 101.212 248.357 93.0085 265H0Z" fill="#FFB7AA"/>
<path d="M65.2084 153.961C65.968 147.466 65.7401 143.997 70.0696 138.979C74.1712 134.476 77.5133 129.015 79.83 123.516C81.1592 120.343 81.7289 117.501 81.615 114.549C88.6789 114.069 83.5898 103.405 81.7669 99.9728L77.8172 101.892C77.7032 101.338 77.7032 100.822 77.7792 100.342C78.5387 97.6111 81.8808 97.3528 84.1975 97.8325C96.7682 100.084 99.0849 113.811 98.3254 124.291C97.5658 133.037 94.7174 146.728 87.8054 152.965C88.0712 153.223 88.565 153.703 88.565 153.961C89.0967 156.692 92.1729 159.939 93.692 162.448C95.2491 164.958 96.2745 167.172 97.2999 169.94C99.6166 175.18 102.161 180.42 102.693 186.398C103.984 196.362 102.693 208.835 95.7428 216.842L50.5488 218.097V213.337C51.6122 192.893 62.9297 174.183 65.2084 153.961Z" fill="#FFB7AA"/>
<path d="M98.3256 124.292C97.6799 129.421 96.6166 134.513 94.9835 139.385C94.148 141.82 93.1985 144.219 91.9452 146.47C90.7299 148.721 89.2108 150.824 87.3499 152.522L86.9321 152.891L87.2739 153.334C90.8059 157.836 93.7302 162.817 96.1608 167.984C98.5534 173.15 100.528 178.575 101.668 184.11C102.655 189.682 102.845 195.439 102.047 201.048C101.63 203.853 100.984 206.657 99.9586 209.314C98.9332 211.971 97.528 214.518 95.7431 216.806C97.7179 214.665 99.275 212.156 100.452 209.499C101.63 206.842 102.427 204.037 102.959 201.196C103.984 195.476 103.908 189.609 102.997 183.889C102.503 181.01 101.668 178.243 100.718 175.475C99.7687 172.744 98.7053 170.013 97.4521 167.393C96.1988 164.773 94.8696 162.19 93.3504 159.681C91.8313 157.208 90.1223 154.81 88.2614 152.522L88.1854 153.37C90.1982 151.525 91.6794 149.237 92.8947 146.913C94.11 144.551 95.0215 142.078 95.7431 139.569C96.5026 137.06 97.0343 134.513 97.4521 131.967C97.9078 129.458 98.2116 126.875 98.3256 124.292Z" fill="#FF8E83"/>
<path d="M81.6528 114.549C81.5768 112.409 81.1211 110.232 80.3995 107.796C79.7919 106.209 78.2348 103.885 77.855 101.855L81.8047 99.936C83.6277 103.405 88.7167 114.07 81.6528 114.549Z" fill="#FFD9D5"/>
<path opacity="0.3" fill-rule="evenodd" clip-rule="evenodd" d="M166.99 170.53H107.099V186.214H166.99V170.53Z" fill="#066AC9"/>
<path opacity="0.3" fill-rule="evenodd" clip-rule="evenodd" d="M166.924 150.345H107.032V166.028H166.924V150.345Z" fill="#066AC9"/>
<path d="M123.657 181.97C123.619 182.044 123.619 182.081 123.581 182.118C123.543 182.154 123.505 182.191 123.429 182.228C123.353 182.265 123.239 182.265 123.125 182.265C123.011 182.265 122.821 182.265 122.631 182.265C122.48 182.265 122.328 182.265 122.214 182.265C122.1 182.265 121.986 182.265 121.91 182.265C121.834 182.265 121.758 182.228 121.72 182.228C121.682 182.228 121.644 182.191 121.606 182.154C121.568 182.117 121.53 182.117 121.53 182.081C121.53 182.044 121.492 182.007 121.492 181.97L119.137 175.106C119.1 174.958 119.062 174.848 119.062 174.774C119.062 174.7 119.062 174.626 119.137 174.589C119.175 174.553 119.289 174.516 119.403 174.516C119.517 174.516 119.707 174.516 119.935 174.516C120.125 174.516 120.277 174.516 120.391 174.516C120.505 174.516 120.581 174.553 120.619 174.553C120.695 174.589 120.733 174.589 120.733 174.626C120.771 174.663 120.771 174.7 120.809 174.774L122.745 180.752L124.644 174.811C124.644 174.737 124.682 174.7 124.72 174.663C124.758 174.626 124.796 174.589 124.834 174.553C124.91 174.516 124.986 174.516 125.1 174.516C125.214 174.516 125.366 174.516 125.556 174.516C125.746 174.516 125.898 174.516 126.012 174.516C126.125 174.516 126.201 174.553 126.239 174.589C126.277 174.626 126.277 174.7 126.277 174.774C126.277 174.848 126.239 174.958 126.163 175.106L123.657 181.97Z" fill="white"/>
<path d="M131.899 181.637C131.899 181.748 131.899 181.859 131.899 181.933C131.899 182.007 131.861 182.08 131.861 182.117C131.823 182.154 131.823 182.191 131.785 182.228C131.747 182.265 131.709 182.265 131.671 182.265H127.683C127.531 182.265 127.417 182.228 127.341 182.154C127.265 182.08 127.189 181.933 127.189 181.785V175.032C127.189 174.847 127.227 174.737 127.341 174.663C127.417 174.589 127.531 174.552 127.683 174.552H131.671C131.709 174.552 131.747 174.552 131.785 174.589C131.823 174.626 131.823 174.626 131.861 174.7C131.899 174.737 131.899 174.811 131.899 174.884C131.899 174.958 131.899 175.069 131.899 175.18C131.899 175.29 131.899 175.401 131.899 175.475C131.899 175.549 131.861 175.622 131.861 175.659C131.823 175.696 131.823 175.733 131.785 175.77C131.747 175.807 131.709 175.807 131.671 175.807H128.823V177.689H131.215C131.253 177.689 131.291 177.689 131.329 177.726C131.367 177.763 131.367 177.8 131.405 177.837C131.443 177.873 131.443 177.947 131.443 178.021C131.443 178.095 131.443 178.206 131.443 178.316C131.443 178.427 131.443 178.538 131.443 178.611C131.443 178.685 131.405 178.759 131.405 178.796C131.367 178.833 131.367 178.87 131.329 178.907C131.291 178.944 131.253 178.944 131.215 178.944H128.823V181.121H131.709C131.747 181.121 131.785 181.121 131.823 181.158C131.861 181.195 131.861 181.232 131.899 181.268C131.937 181.305 131.937 181.379 131.937 181.453C131.861 181.416 131.899 181.527 131.899 181.637Z" fill="white"/>
<path d="M139.228 182.043C139.228 182.08 139.228 182.117 139.19 182.154C139.19 182.191 139.152 182.191 139.076 182.228C139 182.265 138.924 182.265 138.81 182.265C138.696 182.265 138.544 182.265 138.317 182.265C138.127 182.265 138.013 182.265 137.899 182.265C137.785 182.265 137.709 182.228 137.671 182.228C137.595 182.191 137.557 182.191 137.557 182.154C137.519 182.117 137.519 182.08 137.481 182.043L136.759 180.309C136.684 180.124 136.608 179.94 136.494 179.792C136.418 179.645 136.304 179.497 136.228 179.423C136.114 179.313 136 179.239 135.886 179.202C135.772 179.165 135.62 179.128 135.43 179.128H134.936V182.08C134.936 182.117 134.936 182.154 134.899 182.191C134.861 182.228 134.823 182.265 134.785 182.265C134.709 182.302 134.633 182.302 134.557 182.302C134.443 182.302 134.329 182.302 134.177 182.302C134.025 182.302 133.873 182.302 133.797 182.302C133.683 182.302 133.607 182.265 133.531 182.265C133.455 182.265 133.417 182.228 133.417 182.191C133.379 182.154 133.379 182.117 133.379 182.08V175.032C133.379 174.847 133.417 174.737 133.531 174.663C133.607 174.589 133.721 174.552 133.873 174.552H135.924C136.152 174.552 136.304 174.552 136.456 174.552C136.608 174.552 136.721 174.552 136.835 174.589C137.139 174.626 137.443 174.7 137.709 174.811C137.975 174.921 138.165 175.069 138.355 175.216C138.544 175.401 138.658 175.586 138.772 175.844C138.848 176.065 138.924 176.36 138.924 176.656C138.924 176.914 138.886 177.135 138.81 177.357C138.734 177.578 138.658 177.763 138.506 177.91C138.393 178.095 138.203 178.206 138.013 178.353C137.823 178.464 137.595 178.575 137.367 178.648C137.481 178.722 137.595 178.759 137.709 178.87C137.823 178.944 137.899 179.054 138.013 179.165C138.089 179.276 138.203 179.423 138.279 179.571C138.355 179.719 138.43 179.866 138.506 180.051L139.19 181.564C139.266 181.711 139.304 181.822 139.304 181.896C139.228 181.97 139.228 182.007 139.228 182.043ZM137.139 176.803C137.139 176.545 137.063 176.324 136.949 176.139C136.835 175.955 136.646 175.844 136.38 175.77C136.304 175.733 136.19 175.733 136.114 175.733C136 175.733 135.848 175.733 135.696 175.733H134.974V177.947H135.81C136.038 177.947 136.228 177.91 136.418 177.873C136.608 177.837 136.721 177.726 136.835 177.652C136.949 177.541 137.025 177.431 137.101 177.32C137.101 177.099 137.139 176.951 137.139 176.803Z" fill="white"/>
<path d="M142.039 182.044C142.039 182.081 142.039 182.117 142.001 182.154C141.963 182.191 141.925 182.228 141.887 182.228C141.811 182.265 141.735 182.265 141.659 182.265C141.545 182.265 141.431 182.265 141.279 182.265C141.127 182.265 140.975 182.265 140.899 182.265C140.785 182.265 140.709 182.228 140.633 182.228C140.557 182.191 140.519 182.191 140.519 182.154C140.481 182.117 140.481 182.081 140.481 182.044V174.737C140.481 174.7 140.481 174.663 140.519 174.626C140.557 174.589 140.595 174.553 140.671 174.553C140.747 174.516 140.823 174.516 140.937 174.516C141.051 174.516 141.165 174.516 141.317 174.516C141.469 174.516 141.621 174.516 141.697 174.516C141.811 174.516 141.887 174.553 141.925 174.553C142.001 174.589 142.039 174.589 142.039 174.626C142.077 174.663 142.077 174.7 142.077 174.737V182.044H142.039Z" fill="white"/>
<path d="M148.267 175.143C148.267 175.253 148.267 175.364 148.267 175.438C148.267 175.512 148.229 175.586 148.229 175.622C148.191 175.659 148.191 175.696 148.153 175.733C148.115 175.77 148.077 175.77 148.039 175.77H145.419V177.837H147.849C147.887 177.837 147.925 177.837 147.963 177.874C148.001 177.91 148.001 177.91 148.039 177.984C148.077 178.021 148.077 178.095 148.077 178.169C148.077 178.243 148.077 178.353 148.077 178.464C148.077 178.575 148.077 178.685 148.077 178.759C148.077 178.833 148.039 178.907 148.039 178.944C148.001 178.981 148.001 179.017 147.963 179.054C147.925 179.091 147.887 179.091 147.849 179.091H145.419V181.97C145.419 182.007 145.419 182.043 145.381 182.08C145.343 182.117 145.305 182.154 145.267 182.154C145.191 182.191 145.115 182.191 145.001 182.191C144.887 182.191 144.773 182.191 144.621 182.191C144.469 182.191 144.317 182.191 144.241 182.191C144.128 182.191 144.052 182.154 143.976 182.154C143.9 182.117 143.862 182.117 143.862 182.08C143.824 182.043 143.824 182.007 143.824 181.97V174.958C143.824 174.774 143.862 174.663 143.976 174.589C144.052 174.515 144.166 174.479 144.317 174.479H148.077C148.115 174.479 148.153 174.479 148.191 174.515C148.229 174.552 148.229 174.589 148.267 174.626C148.305 174.663 148.305 174.737 148.305 174.811C148.229 174.921 148.267 175.032 148.267 175.143Z" fill="white"/>
<path d="M152.786 179.313V182.044C152.786 182.081 152.786 182.117 152.748 182.154C152.71 182.191 152.672 182.228 152.634 182.228C152.559 182.265 152.483 182.265 152.369 182.265C152.255 182.265 152.141 182.265 151.989 182.265C151.837 182.265 151.685 182.265 151.609 182.265C151.495 182.265 151.419 182.228 151.343 182.228C151.267 182.191 151.229 182.191 151.229 182.154C151.191 182.117 151.191 182.081 151.191 182.044V179.313L149.027 175.106C148.951 174.958 148.913 174.848 148.875 174.774C148.837 174.7 148.875 174.626 148.913 174.589C148.951 174.553 149.065 174.516 149.178 174.516C149.292 174.516 149.482 174.516 149.71 174.516C149.9 174.516 150.052 174.516 150.166 174.516C150.28 174.516 150.356 174.553 150.432 174.553C150.508 174.589 150.546 174.589 150.584 174.626C150.622 174.663 150.66 174.7 150.66 174.774L151.533 176.693C151.609 176.877 151.723 177.062 151.799 177.283C151.875 177.505 151.951 177.689 152.065 177.911C152.141 177.689 152.217 177.468 152.293 177.283C152.369 177.062 152.445 176.877 152.521 176.693L153.394 174.811C153.432 174.737 153.432 174.7 153.47 174.663C153.508 174.626 153.546 174.589 153.622 174.553C153.698 174.516 153.774 174.516 153.888 174.516C154.002 174.516 154.154 174.516 154.305 174.516C154.533 174.516 154.723 174.516 154.837 174.516C154.951 174.516 155.065 174.553 155.103 174.589C155.141 174.626 155.179 174.7 155.141 174.774C155.103 174.848 155.065 174.958 154.989 175.106L152.786 179.313Z" fill="white"/>
<path d="M125.746 159.091C125.898 159.128 125.936 159.238 125.936 159.386C125.936 159.533 125.822 159.792 125.632 160.124C125.442 160.456 125.29 160.641 125.138 160.714C124.986 160.788 124.872 160.788 124.796 160.714L122.822 159.164L123.239 161.6C123.277 161.748 123.201 161.858 123.087 161.895C122.936 161.969 122.67 162.006 122.29 162.006C121.91 162.006 121.644 161.969 121.492 161.895C121.34 161.821 121.303 161.711 121.34 161.6L121.758 159.164L119.783 160.714C119.669 160.788 119.556 160.788 119.442 160.714C119.29 160.641 119.138 160.419 118.948 160.087C118.758 159.755 118.644 159.533 118.644 159.386C118.644 159.238 118.682 159.128 118.834 159.091L121.227 158.205L118.834 157.319C118.72 157.282 118.644 157.172 118.644 157.024C118.644 156.877 118.758 156.618 118.948 156.286C119.138 155.954 119.29 155.769 119.442 155.659C119.593 155.585 119.707 155.585 119.783 155.659L121.758 157.209L121.34 154.773C121.303 154.625 121.378 154.552 121.492 154.478C121.644 154.404 121.91 154.367 122.29 154.367C122.67 154.367 122.936 154.404 123.087 154.478C123.239 154.552 123.277 154.662 123.239 154.773L122.822 157.209L124.796 155.659C124.91 155.585 125.024 155.548 125.138 155.659C125.252 155.733 125.442 155.954 125.632 156.286C125.822 156.618 125.936 156.84 125.936 156.987C125.936 157.135 125.898 157.246 125.746 157.282L123.391 158.168L125.746 159.091Z" fill="white"/>
<path d="M140.595 159.091C140.747 159.128 140.785 159.238 140.785 159.386C140.785 159.533 140.671 159.792 140.481 160.124C140.291 160.456 140.139 160.641 139.987 160.714C139.836 160.788 139.722 160.788 139.646 160.714L137.671 159.164L138.089 161.6C138.127 161.748 138.051 161.858 137.937 161.895C137.785 161.969 137.519 162.006 137.139 162.006C136.759 162.006 136.493 161.969 136.342 161.895C136.19 161.821 136.152 161.711 136.19 161.6L136.607 159.164L134.633 160.714C134.519 160.788 134.405 160.788 134.291 160.714C134.139 160.641 133.987 160.419 133.797 160.087C133.607 159.755 133.493 159.533 133.493 159.386C133.493 159.238 133.531 159.128 133.683 159.091L136.076 158.205L133.683 157.319C133.569 157.282 133.493 157.172 133.493 157.024C133.493 156.877 133.607 156.618 133.797 156.286C133.987 155.954 134.139 155.769 134.291 155.659C134.443 155.585 134.557 155.585 134.633 155.659L136.607 157.209L136.19 154.773C136.152 154.625 136.228 154.552 136.342 154.478C136.493 154.404 136.759 154.367 137.139 154.367C137.519 154.367 137.785 154.404 137.937 154.478C138.089 154.552 138.127 154.662 138.089 154.773L137.671 157.209L139.646 155.659C139.76 155.585 139.874 155.548 139.987 155.659C140.101 155.733 140.291 155.954 140.481 156.286C140.671 156.618 140.785 156.84 140.785 156.987C140.785 157.135 140.747 157.246 140.595 157.282L138.24 158.168L140.595 159.091Z" fill="white"/>
<path d="M155.445 159.091C155.597 159.128 155.635 159.238 155.635 159.386C155.635 159.533 155.521 159.792 155.331 160.124C155.141 160.456 154.989 160.641 154.837 160.714C154.685 160.788 154.571 160.788 154.495 160.714L152.52 159.164L152.938 161.6C152.976 161.748 152.9 161.858 152.786 161.895C152.634 161.969 152.368 162.006 151.989 162.006C151.609 162.006 151.343 161.969 151.191 161.895C151.039 161.821 151.001 161.711 151.039 161.6L151.457 159.164L149.482 160.714C149.368 160.788 149.254 160.788 149.14 160.714C148.988 160.641 148.836 160.419 148.647 160.087C148.457 159.755 148.343 159.533 148.343 159.386C148.343 159.238 148.381 159.128 148.533 159.091L150.925 158.205L148.533 157.319C148.419 157.282 148.343 157.172 148.343 157.024C148.343 156.877 148.457 156.618 148.647 156.286C148.836 155.954 148.988 155.769 149.14 155.659C149.292 155.585 149.406 155.585 149.482 155.659L151.457 157.209L151.039 154.773C151.001 154.625 151.077 154.552 151.191 154.478C151.343 154.404 151.609 154.367 151.989 154.367C152.368 154.367 152.634 154.404 152.786 154.478C152.938 154.552 152.976 154.662 152.938 154.773L152.52 157.209L154.495 155.659C154.609 155.585 154.723 155.548 154.837 155.659C154.951 155.733 155.141 155.954 155.331 156.286C155.521 156.618 155.635 156.84 155.635 156.987C155.635 157.135 155.597 157.246 155.445 157.282L153.09 158.168L155.445 159.091Z" fill="white"/>
<path fill-rule="evenodd" clip-rule="evenodd" d="M131.329 160.198H126.923V162.043H131.329V160.198Z" fill="#FAF9FF"/>
<path fill-rule="evenodd" clip-rule="evenodd" d="M146.824 160.198H142.418V162.043H146.824V160.198Z" fill="#FAF9FF"/>
<path opacity="0.3" d="M238.047 21.9246C238.085 21.9246 238.085 21.9615 238.047 21.9246C238.465 22.0722 238.807 22.2198 239.186 22.4043C239.338 22.4781 239.528 22.4043 239.604 22.2567C239.68 22.1091 239.604 21.9246 239.452 21.8508C239.072 21.7032 238.693 21.5187 238.313 21.3711C238.161 21.2973 237.971 21.3711 237.895 21.5556C237.857 21.7032 237.895 21.8508 238.047 21.9246ZM247.466 27.3861C247.618 27.4599 247.769 27.423 247.883 27.3123C247.997 27.1647 247.959 26.9802 247.845 26.8695C246.554 25.8362 245.187 24.9137 243.858 24.1018C243.706 23.9911 243.516 24.0649 243.402 24.2125C243.326 24.3601 243.364 24.5447 243.516 24.6554C244.845 25.4672 246.174 26.3898 247.466 27.3861C247.428 27.3492 247.428 27.3492 247.466 27.3861ZM254.302 34.1392C254.416 34.2131 254.568 34.1761 254.643 34.1023C254.795 33.9916 254.795 33.8071 254.681 33.6595C253.656 32.4048 252.555 31.1871 251.415 30.08C251.301 29.9693 251.074 29.9693 250.96 30.08C250.846 30.1907 250.846 30.4121 250.96 30.5228C252.061 31.6299 253.162 32.8108 254.15 34.0654C254.226 34.0654 254.264 34.1023 254.302 34.1392ZM259.505 42.1101C259.581 42.147 259.695 42.147 259.809 42.1101C259.96 42.0363 260.036 41.8518 259.96 41.6673C259.239 40.265 258.403 38.8627 257.53 37.5343C257.416 37.3867 257.226 37.3497 257.074 37.4235C256.922 37.5343 256.884 37.7188 256.96 37.8664C257.834 39.1949 258.631 40.5602 259.353 41.9625C259.429 42.0363 259.467 42.0732 259.505 42.1101ZM262.923 51.0036C262.999 51.0405 263.075 51.0405 263.151 51.0405C263.34 51.0036 263.416 50.8191 263.378 50.6715C262.999 49.1585 262.505 47.6086 261.935 46.0956C261.859 45.948 261.669 45.8373 261.518 45.9111C261.366 45.9849 261.252 46.1694 261.328 46.317C261.897 47.7931 262.391 49.3061 262.771 50.8191C262.771 50.8929 262.847 50.9298 262.923 51.0036ZM263.91 60.3768C263.948 60.4137 263.986 60.4137 264.062 60.4137C264.252 60.4137 264.404 60.303 264.404 60.1184C264.48 58.5686 264.442 56.9818 264.252 55.3212C264.252 55.1366 264.062 55.0259 263.91 55.0259C263.72 55.0628 263.606 55.2104 263.606 55.3581C263.796 56.9449 263.834 58.5317 263.758 60.0447C263.72 60.2292 263.796 60.3399 263.91 60.3768ZM243.022 58.1257C243.098 58.1626 243.212 58.1626 243.326 58.1257C244.921 57.3877 246.44 57.2401 247.807 57.6829C247.959 57.7567 248.149 57.646 248.225 57.4984C248.301 57.3508 248.187 57.1663 248.035 57.0925C246.478 56.5758 244.807 56.7603 243.06 57.5722C242.908 57.646 242.832 57.8305 242.908 57.9781C242.908 58.015 242.946 58.0888 243.022 58.1257ZM253.58 64.8788C253.656 64.9158 253.77 64.9158 253.846 64.8788C253.998 64.805 254.112 64.6205 254.036 64.4729C253.77 63.8456 253.542 63.2182 253.238 62.5909C252.821 61.6684 252.365 60.8565 251.871 60.1554C251.757 60.0077 251.567 59.9708 251.415 60.0816C251.263 60.1923 251.225 60.3768 251.339 60.5244C251.795 61.1886 252.251 62.0005 252.669 62.8861C252.934 63.4766 253.2 64.1039 253.428 64.7312C253.428 64.7681 253.504 64.8419 253.58 64.8788ZM261.404 69.4178C261.556 69.4916 261.707 69.4916 261.821 69.344L261.859 69.2702C262.619 67.8679 263.227 66.4287 263.644 64.8788C263.682 64.6943 263.606 64.5467 263.416 64.5098C263.227 64.4729 263.075 64.5836 263.037 64.7312C262.619 66.2442 262.049 67.6465 261.328 68.9381C261.214 69.0857 261.252 69.3071 261.404 69.4178ZM255.973 74.0306C256.049 74.0675 256.087 74.0675 256.163 74.0675C256.353 74.0306 256.466 73.883 256.428 73.6985C256.201 72.1117 255.859 70.5249 255.479 69.0119C255.441 68.8274 255.251 68.7536 255.099 68.7905C254.909 68.8274 254.833 69.0119 254.871 69.1595C255.251 70.6356 255.593 72.2224 255.821 73.7723C255.821 73.9199 255.897 73.9937 255.973 74.0306ZM236.338 64.8419C236.49 64.9158 236.68 64.8788 236.794 64.7312C237.591 63.3289 238.579 62.0374 239.604 60.9672C239.718 60.8565 239.718 60.6351 239.604 60.5244C239.49 60.4137 239.262 60.4137 239.148 60.5244C238.085 61.6314 237.06 62.9968 236.262 64.436C236.11 64.5467 236.186 64.7312 236.338 64.8419ZM254.643 76.1709C254.757 76.2078 254.871 76.2078 254.947 76.1709C256.39 75.3222 257.72 74.3258 258.859 73.2188C258.973 73.1081 258.973 72.8866 258.859 72.7759C258.745 72.6652 258.517 72.6652 258.403 72.7759C257.302 73.8461 256.049 74.8056 254.643 75.6174C254.492 75.6912 254.454 75.9126 254.53 76.0602C254.568 76.0971 254.606 76.134 254.643 76.1709ZM256.39 83.5145C256.428 83.5514 256.466 83.5514 256.542 83.5514C256.732 83.5514 256.884 83.4407 256.884 83.2562C256.96 81.6325 256.96 80.0457 256.884 78.4958C256.884 78.3113 256.732 78.2006 256.542 78.2006C256.353 78.2006 256.239 78.3482 256.239 78.5327C256.315 80.0826 256.315 81.6694 256.239 83.2562C256.239 83.33 256.315 83.4407 256.39 83.5145ZM245.453 79.1969C245.529 79.2338 245.567 79.2338 245.643 79.2338C247.352 78.9755 248.947 78.6065 250.428 78.1268C250.618 78.0899 250.694 77.9054 250.618 77.7208C250.58 77.5363 250.39 77.4625 250.2 77.5363C248.757 78.0161 247.162 78.3482 245.491 78.6065C245.301 78.6434 245.187 78.791 245.225 78.9755C245.301 79.0493 245.377 79.16 245.453 79.1969ZM233.945 73.883C233.983 73.9199 234.059 73.9199 234.135 73.9199C234.325 73.883 234.439 73.7354 234.439 73.5878C234.287 72.2593 234.439 70.6725 234.933 69.0119C234.971 68.8274 234.895 68.6798 234.705 68.606C234.515 68.5691 234.363 68.6429 234.287 68.8274C233.793 70.5618 233.604 72.1855 233.794 73.6247C233.794 73.7354 233.869 73.8461 233.945 73.883ZM237.022 78.6434C238.047 79.1969 239.3 79.4922 240.743 79.566C240.933 79.566 241.085 79.4553 241.085 79.2707C241.085 79.0862 240.971 78.9386 240.781 78.9386C238.959 78.8279 237.477 78.3482 236.414 77.4994C236.262 77.3887 236.072 77.3887 235.958 77.5363C235.844 77.6839 235.882 77.8685 235.996 77.9792C236.3 78.2375 236.642 78.4589 237.022 78.6434ZM255.137 92.8877C255.175 92.8877 255.175 92.9246 255.213 92.9246C255.403 92.9615 255.555 92.8508 255.593 92.6663C255.935 91.0795 256.201 89.5296 256.428 87.9797C256.466 87.7952 256.315 87.6476 256.163 87.6106C255.973 87.5737 255.821 87.7214 255.783 87.869C255.593 89.382 255.289 90.9688 254.947 92.5187C254.947 92.7032 255.023 92.8508 255.137 92.8877ZM252.479 102.003C252.479 102.003 252.517 102.003 252.517 102.039C252.669 102.113 252.859 102.003 252.934 101.855C253.504 100.342 253.998 98.8289 254.454 97.316C254.492 97.1314 254.416 96.9838 254.226 96.91C254.036 96.8731 253.884 96.9469 253.808 97.1314C253.352 98.6075 252.859 100.121 252.327 101.634C252.251 101.781 252.327 101.966 252.479 102.003ZM248.605 110.711C248.757 110.785 248.985 110.748 249.061 110.564C249.782 109.162 250.504 107.685 251.149 106.246C251.225 106.099 251.15 105.914 250.998 105.84C250.846 105.767 250.656 105.84 250.58 105.988C249.934 107.427 249.251 108.866 248.529 110.269C248.377 110.453 248.453 110.638 248.605 110.711ZM243.706 118.941C243.858 119.014 244.048 118.978 244.124 118.83C245.035 117.502 245.909 116.136 246.706 114.771C246.782 114.623 246.744 114.439 246.592 114.328C246.44 114.254 246.25 114.291 246.136 114.439C245.339 115.804 244.465 117.132 243.554 118.461C243.478 118.609 243.516 118.83 243.706 118.941C243.668 118.904 243.668 118.904 243.706 118.941ZM237.857 126.506C238.009 126.579 238.161 126.543 238.275 126.432C239.3 125.214 240.326 123.959 241.313 122.705C241.427 122.557 241.389 122.373 241.237 122.262C241.085 122.151 240.895 122.188 240.781 122.336C239.832 123.59 238.807 124.845 237.743 126.026C237.629 126.174 237.629 126.358 237.781 126.469C237.819 126.506 237.819 126.506 237.857 126.506ZM231.135 133.406C231.249 133.48 231.401 133.443 231.515 133.369C232.692 132.299 233.869 131.155 234.971 130.011C235.085 129.901 235.085 129.679 234.971 129.569C234.857 129.458 234.629 129.458 234.515 129.569C233.414 130.713 232.236 131.856 231.059 132.927C230.945 133.037 230.907 133.259 231.059 133.369C231.097 133.369 231.135 133.406 231.135 133.406ZM223.653 139.495C223.767 139.569 223.881 139.532 223.995 139.458C225.286 138.536 226.578 137.539 227.831 136.506C227.983 136.395 227.983 136.211 227.869 136.063C227.755 135.916 227.565 135.916 227.413 136.026C226.16 137.023 224.869 138.019 223.577 138.942C223.425 139.052 223.387 139.237 223.501 139.385C223.577 139.458 223.615 139.458 223.653 139.495ZM215.45 144.625C215.526 144.662 215.678 144.662 215.754 144.625C217.159 143.85 218.602 143.038 219.969 142.189C220.121 142.078 220.159 141.894 220.083 141.746C219.969 141.599 219.78 141.562 219.628 141.636C218.26 142.484 216.855 143.296 215.45 144.034C215.298 144.108 215.222 144.329 215.336 144.477C215.374 144.551 215.412 144.588 215.45 144.625Z" fill="#066AC9"/>
<path d="M230.566 22.884L199.841 10.2266L214.14 13.8061L228.439 17.3856L230.566 22.884Z" fill="#5D9EDB"/>
<path d="M238.161 11.334L230.832 15.4301L199.728 10.1162L238.161 11.334Z" fill="#B5D3EF"/>
<path d="M213.817 24.5081L199.728 10.1162L228.439 17.386L213.817 24.5081Z" fill="#B5D3EF"/>
<path d="M230.566 22.8844L228.439 17.386L199.728 10.1162L230.832 15.4301L230.566 22.8844Z" fill="#5D9EDB"/>
<path d="M212.678 23.3271L221.755 15.7252L218.071 13.2527L231.895 11.998L230.186 15.3931L230.565 22.8842L228.439 17.3858L213.817 24.5079L212.678 23.3271Z" fill="#3787D2"/>
<path opacity="0.5" fill-rule="evenodd" clip-rule="evenodd" d="M223.274 71.7799C223.274 70.6359 222.324 69.7134 221.147 69.7134H170.864C169.687 69.7134 168.737 70.6359 168.737 71.7799V84.216C168.737 85.36 169.687 86.2825 170.864 86.2825H221.147C222.324 86.2825 223.274 85.36 223.274 84.216V71.7799Z" fill="#066AC9"/>
<path d="M184.688 78.9017C184.84 78.9386 184.878 79.0493 184.878 79.1969C184.878 79.3445 184.764 79.6029 184.574 79.935C184.384 80.2671 184.232 80.4516 184.08 80.5254C183.928 80.5992 183.814 80.5992 183.738 80.5254L181.764 78.9755L182.181 81.4111C182.219 81.5587 182.143 81.6694 182.029 81.7063C181.877 81.7801 181.612 81.817 181.232 81.817C180.852 81.817 180.586 81.7801 180.434 81.7063C180.282 81.6325 180.244 81.5218 180.282 81.4111L180.7 78.9755L178.725 80.5254C178.611 80.5992 178.497 80.5992 178.383 80.5254C178.232 80.4516 178.08 80.2302 177.89 79.8981C177.7 79.566 177.586 79.3445 177.586 79.1969C177.586 79.0493 177.624 78.9386 177.776 78.9017L180.168 78.0161L177.776 77.1304C177.662 77.0935 177.586 76.9828 177.586 76.8352C177.586 76.6876 177.7 76.4293 177.89 76.0971C178.08 75.765 178.232 75.5805 178.383 75.4698C178.535 75.396 178.649 75.396 178.725 75.4698L180.7 77.0197L180.282 74.5842C180.244 74.4365 180.32 74.3627 180.434 74.2889C180.586 74.2151 180.852 74.1782 181.232 74.1782C181.612 74.1782 181.877 74.2151 182.029 74.2889C182.181 74.3627 182.219 74.4734 182.181 74.5842L181.764 77.0197L183.738 75.4698C183.852 75.396 183.966 75.3591 184.08 75.4698C184.194 75.5436 184.384 75.765 184.574 76.0971C184.764 76.4293 184.878 76.6507 184.878 76.7983C184.878 76.9459 184.84 77.0566 184.688 77.0935L182.333 77.9792L184.688 78.9017Z" fill="white"/>
<path d="M199.537 78.9017C199.689 78.9386 199.727 79.0493 199.727 79.1969C199.727 79.3445 199.613 79.6029 199.424 79.935C199.234 80.2671 199.082 80.4516 198.93 80.5254C198.778 80.5992 198.664 80.5992 198.588 80.5254L196.613 78.9755L197.031 81.4111C197.069 81.5587 196.993 81.6694 196.879 81.7063C196.727 81.7801 196.461 81.817 196.081 81.817C195.702 81.817 195.436 81.7801 195.284 81.7063C195.132 81.6325 195.094 81.5218 195.132 81.4111L195.55 78.9755L193.575 80.5254C193.461 80.5992 193.347 80.5992 193.233 80.5254C193.081 80.4516 192.929 80.2302 192.739 79.8981C192.549 79.566 192.436 79.3445 192.436 79.1969C192.436 79.0493 192.474 78.9386 192.625 78.9017L195.018 78.0161L192.625 77.1304C192.512 77.0935 192.436 76.9828 192.436 76.8352C192.436 76.6876 192.549 76.4293 192.739 76.0971C192.929 75.765 193.081 75.5805 193.233 75.4698C193.385 75.396 193.499 75.396 193.575 75.4698L195.55 77.0197L195.132 74.5842C195.094 74.4365 195.17 74.3627 195.284 74.2889C195.436 74.2151 195.702 74.1782 196.081 74.1782C196.461 74.1782 196.727 74.2151 196.879 74.2889C197.031 74.3627 197.069 74.4734 197.031 74.5842L196.613 77.0197L198.588 75.4698C198.702 75.396 198.816 75.3591 198.93 75.4698C199.044 75.5436 199.234 75.765 199.424 76.0971C199.613 76.4293 199.727 76.6507 199.727 76.7983C199.727 76.9459 199.689 77.0566 199.537 77.0935L197.183 77.9792L199.537 78.9017Z" fill="white"/>
<path d="M214.387 78.9017C214.539 78.9386 214.577 79.0493 214.577 79.1969C214.577 79.3445 214.463 79.6029 214.273 79.935C214.083 80.2671 213.931 80.4516 213.779 80.5254C213.628 80.5992 213.514 80.5992 213.438 80.5254L211.463 78.9755L211.881 81.4111C211.919 81.5587 211.843 81.6694 211.729 81.7063C211.577 81.7801 211.311 81.817 210.931 81.817C210.551 81.817 210.285 81.7801 210.134 81.7063C209.982 81.6325 209.944 81.5218 209.982 81.4111L210.399 78.9755L208.425 80.5254C208.311 80.5992 208.197 80.5992 208.083 80.5254C207.931 80.4516 207.779 80.2302 207.589 79.8981C207.399 79.566 207.285 79.3445 207.285 79.1969C207.285 79.0493 207.323 78.9386 207.475 78.9017L209.868 78.0161L207.475 77.1304C207.361 77.0935 207.285 76.9828 207.285 76.8352C207.285 76.6876 207.399 76.4293 207.589 76.0971C207.779 75.765 207.931 75.5805 208.083 75.4698C208.235 75.396 208.349 75.396 208.425 75.4698L210.399 77.0197L209.982 74.5842C209.944 74.4365 210.02 74.3627 210.134 74.2889C210.285 74.2151 210.551 74.1782 210.931 74.1782C211.311 74.1782 211.577 74.2151 211.729 74.2889C211.881 74.3627 211.919 74.4734 211.881 74.5842L211.463 77.0197L213.438 75.4698C213.552 75.396 213.665 75.3591 213.779 75.4698C213.893 75.5436 214.083 75.765 214.273 76.0971C214.463 76.4293 214.577 76.6507 214.577 76.7983C214.577 76.9459 214.539 77.0566 214.387 77.0935L212.032 77.9792L214.387 78.9017Z" fill="white"/>
<path fill-rule="evenodd" clip-rule="evenodd" d="M190.271 80.0088H185.865V81.8539H190.271V80.0088Z" fill="#FAF9FF"/>
<path fill-rule="evenodd" clip-rule="evenodd" d="M205.766 80.0088H201.36V81.8539H205.766V80.0088Z" fill="#FAF9FF"/>
<path opacity="0.5" d="M247.884 182.376C247.884 180.715 246.592 179.313 244.921 179.055C233.376 177.394 227.489 172.634 225.514 170.678C224.945 170.124 224.223 169.829 223.426 169.829C222.628 169.829 221.907 170.124 221.337 170.678C219.362 172.634 213.475 177.394 201.93 179.055C200.259 179.313 198.968 180.715 198.968 182.376C198.968 185.66 199.272 194.222 202.272 202.377C206.108 212.71 212.754 218.946 222.134 220.939C222.552 221.013 223.008 221.086 223.426 221.086C223.881 221.086 224.299 221.049 224.717 220.939C234.06 218.983 240.744 212.746 244.58 202.377C247.618 194.222 247.884 185.66 247.884 182.376Z" fill="#F3601E"/>
<path opacity="0.3" d="M224.299 216.768C223.995 216.842 223.729 216.879 223.426 216.879C223.122 216.879 222.856 216.842 222.552 216.768C204.209 212.894 203.069 189.941 203.069 183.852C203.069 183.003 203.715 182.302 204.55 182.191C215.07 180.678 220.539 176.36 222.514 174.405C222.78 174.146 223.084 174.036 223.426 174.036C223.767 174.036 224.071 174.146 224.337 174.405C226.312 176.36 231.781 180.678 242.301 182.191C243.136 182.302 243.782 183.04 243.782 183.852C243.82 189.941 242.643 212.894 224.299 216.768Z" fill="#F3601E"/>
<path opacity="0.3" d="M223.426 171.305C223.046 171.305 222.704 171.453 222.4 171.711C220.16 173.925 214.007 178.796 202.12 180.494C201.171 180.641 200.449 181.453 200.449 182.376C200.411 189.24 201.74 215.145 222.438 219.5C222.78 219.573 223.084 219.61 223.426 219.61C223.768 219.61 224.071 219.573 224.413 219.5C245.111 215.145 246.403 189.277 246.403 182.376C246.403 181.416 245.681 180.641 244.732 180.494C232.844 178.796 226.73 173.925 224.451 171.711C224.185 171.416 223.806 171.305 223.426 171.305ZM223.426 172.006C223.616 172.006 223.768 172.08 223.92 172.191C226.084 174.331 232.389 179.424 244.618 181.195C245.187 181.269 245.643 181.785 245.643 182.376C245.643 185.549 245.377 193.779 242.453 201.639C238.921 211.233 232.806 216.99 224.261 218.798C223.995 218.872 223.73 218.872 223.426 218.872C223.16 218.872 222.856 218.835 222.59 218.798C214.045 216.99 207.931 211.233 204.399 201.639C201.512 193.816 201.209 185.549 201.209 182.376C201.209 181.785 201.664 181.306 202.234 181.195C214.463 179.424 220.767 174.331 222.932 172.191C223.084 172.08 223.236 172.006 223.426 172.006Z" fill="#F3601E"/>
<path d="M235.769 188.686L232.692 185.697L223.008 195.107L218.641 199.351L215.602 195.808L212.26 198.465L216.286 203.188L218.337 205.587L223.008 201.085L230.186 194.074L235.769 188.686Z" fill="white"/>
<path opacity="0.3" fill-rule="evenodd" clip-rule="evenodd" d="M144.122 104.656L126.72 104.187C126.72 104.187 126.72 100.711 126.72 96.8765C126.72 94.2557 127.851 91.7451 129.844 89.8967C131.837 88.0483 134.544 87 137.37 87C143.26 87 148.019 91.4141 148.019 96.8765C148.019 100.96 148.019 104.739 148.019 104.739L144.42 104.656V97.1524C144.42 93.566 141.296 90.6692 137.429 90.6692C133.562 90.6692 130.439 93.566 130.439 97.1524C130.439 100.629 130.439 104.215 130.439 104.215L144.122 104.656Z" fill="#066AC9"/>
<path opacity="0.3" d="M137.37 138C147.873 138 156.387 129.727 156.387 119.522C156.387 109.316 147.873 101.043 137.37 101.043C126.867 101.043 118.353 109.316 118.353 119.522C118.353 129.727 126.867 138 137.37 138Z" fill="#066AC9"/>
<path d="M135.544 121.647H147.429V122.035C147.429 127.079 142.865 131.034 137.769 131.034C132.558 131.034 127.975 127.135 127.975 121.832C127.975 116.621 132.539 112.629 137.674 112.629C142.257 112.629 145.585 115.641 146.517 118.173H142.485C141.705 117.009 140.032 115.678 137.617 115.678C133.509 115.678 131.36 119.078 131.36 121.85C131.36 124.548 133.452 127.966 137.788 127.966C140.032 127.966 142.124 126.765 143.189 124.714H135.544V121.647Z" fill="white"/>
<path d="M129.896 112.482C129.896 112.482 133.813 107.585 139.404 110.098L141.268 108.324L133.414 106.476L127.652 112.482H129.896Z" fill="white"/>
<path d="M131.513 113.757L131.037 112.315C131.037 112.315 132.73 109.932 138.302 110.172L139.062 111.964C139.062 111.946 135.259 111.336 131.513 113.757Z" fill="white"/>
<path d="M129.116 115.919C129.442 115.919 129.706 115.662 129.706 115.346C129.706 115.029 129.442 114.773 129.116 114.773C128.791 114.773 128.527 115.029 128.527 115.346C128.527 115.662 128.791 115.919 129.116 115.919Z" fill="white"/>
<path d="M129.212 112.223H129.021V115.272H129.212V112.223Z" fill="white"/>
</svg>
