<svg width="98" height="85" viewBox="0 0 98 85" fill="none" xmlns="http://www.w3.org/2000/svg">
<path d="M48.9404 15.7368C57.1236 15.701 65.15 17.9743 72.0921 22.2941C79.0341 26.6139 84.6084 32.8038 88.1708 40.1485C85.5936 45.4497 81.9416 50.1603 77.4453 53.9828L83.8344 60.237C90.1028 54.7347 94.9599 47.8172 98.0001 40.062C93.0672 27.6429 83.5773 17.5615 71.4582 11.8657C59.3391 6.16992 45.4995 5.28692 32.751 9.39609L40.094 16.7167C43.0029 16.0982 45.9663 15.7699 48.9404 15.7368Z" fill="#747579"/>
<path d="M44.174 20.809L53.3962 29.9742L59.1781 35.7385L68.3714 44.9325C69.1532 41.9888 69.2404 38.9045 68.6261 35.9215C68.0118 32.9385 66.7126 30.1379 64.8305 27.7395C62.9484 25.341 60.5346 23.4098 57.7783 22.0974C55.022 20.7849 51.9982 20.1269 48.9441 20.175C47.3333 20.1816 45.7302 20.3947 44.174 20.809ZM4.481 6.31188L16.4207 18.1863C9.07239 23.9081 3.40113 31.4931 0 40.1482C5.09926 53.0889 15.1458 63.4803 27.9298 69.0366C40.7138 74.593 55.1882 74.8591 68.169 69.7766L83.3755 84.9366L89.62 78.6824L10.7544 0L4.481 6.31188ZM22.723 24.4982L30.5286 32.2511C29.4471 34.703 28.8954 37.3544 28.9097 40.0329C28.9012 43.3132 29.7092 46.5444 31.2612 49.4369C32.8132 52.3294 35.0608 54.7929 37.8025 56.6066C40.5443 58.4202 43.6945 59.5275 46.971 59.829C50.2474 60.1306 53.5478 59.6171 56.5762 58.3345L56.7497 58.5074L61.115 62.8594C57.132 63.9588 53.0191 64.521 48.8862 64.5311C40.7153 64.5436 32.7058 62.2636 25.7734 57.9518C18.841 53.6399 13.2656 47.4702 9.68474 40.1482C12.7424 33.9862 17.2083 28.6257 22.723 24.4982Z" fill="#747579"/>
</svg>
