<svg width="287" height="265" viewBox="0 0 287 265" fill="none" xmlns="http://www.w3.org/2000/svg">
<path d="M281.184 243.154H255.891V243.346H281.184V243.154Z" fill="#EBEBEB"/>
<path d="M252.943 245.238H246.306V245.43H252.943V245.238Z" fill="#EBEBEB"/>
<path d="M255.127 236.046H240.472V236.237H255.127V236.046Z" fill="#EBEBEB"/>
<path d="M73.0451 237.333H40.0623V237.525H73.0451V237.333Z" fill="#EBEBEB"/>
<path d="M84.6834 237.333H79.8494V237.525H84.6834V237.333Z" fill="#EBEBEB"/>
<path d="M171.94 240.565H100.4V240.757H171.94V240.565Z" fill="#EBEBEB"/>
<path d="M282.009 230.83H0V231.022H282.009V230.83Z" fill="#EBEBEB"/>
<path d="M237.227 218.091C237.227 223.269 236.417 226.617 235.058 228.769C234.535 229.558 233.823 230.202 232.988 230.643C232.153 231.085 231.221 231.31 230.277 231.297H222.801C221.857 231.31 220.925 231.085 220.09 230.643C219.255 230.202 218.543 229.558 218.02 228.769C216.661 226.617 215.844 223.269 215.844 218.091C215.844 210.577 219.112 204.564 220.182 199.769C220.563 198.038 219.281 192.737 219.281 192.737H233.79C233.79 192.737 232.515 198.038 232.897 199.769C233.966 204.564 237.227 210.608 237.227 218.091Z" fill="#EBEBEB"/>
<path d="M261.939 187.698C261.939 181.171 251.744 183.868 249.178 173.764C248.201 169.934 256.494 161.256 256.494 161.256H230.629C230.629 161.256 238.922 169.934 237.945 173.764C235.379 183.883 225.184 181.171 225.184 187.698C225.184 194.875 239.563 209.835 240.258 226.671C240.32 228.203 237.555 231.267 237.555 231.267H249.56C249.56 231.267 246.788 228.142 246.857 226.671C247.559 209.842 261.939 194.875 261.939 187.698Z" fill="#F5F5F5"/>
<path d="M254.127 204.641C255.654 201.469 252.523 190.7 252.523 190.7H263.726C263.726 190.7 260.618 201.469 262.122 204.641C263.184 206.877 265.589 208.31 265.589 210.952V226.862C265.589 230.983 262.229 231.297 258.121 231.297C254.012 231.297 250.652 230.983 250.652 226.862V210.952C250.652 208.31 253.065 206.877 254.127 204.641Z" fill="#F0F0F0"/>
<path d="M126.12 110.67C119.69 107.874 116.017 101.976 117.941 97.5183C119.866 93.0602 126.662 91.7121 133.1 94.5079C139.538 97.3038 143.204 103.202 141.279 107.66C139.355 112.118 132.558 113.466 126.12 110.67ZM131.244 98.7745C128.19 97.4646 125.043 98.0927 124.142 100.184C123.241 102.275 124.959 105.033 127.961 106.312C130.962 107.591 134.162 106.993 135.063 104.902C135.964 102.811 134.261 100.115 131.244 98.7745Z" fill="#E6E6E6"/>
<path d="M133.696 99.0499L130.641 97.7248L149.122 54.8756C149.208 54.6737 149.334 54.4909 149.491 54.3379C149.648 54.1849 149.834 54.0647 150.038 53.9842C150.242 53.9037 150.459 53.8646 150.678 53.869C150.897 53.8734 151.113 53.9214 151.314 54.01C151.514 54.0967 151.695 54.2221 151.847 54.3793C151.999 54.5364 152.119 54.7221 152.199 54.9256C152.279 55.1291 152.318 55.3466 152.314 55.5654C152.311 55.7842 152.264 56.0001 152.177 56.2007L133.696 99.0499Z" fill="#E6E6E6"/>
<path d="M153.589 60.3452L147.717 57.7715L149.046 54.7075L154.911 57.2736L153.589 60.3452Z" fill="#E6E6E6"/>
<path d="M150.695 63.7768L146.495 61.9461L147.816 58.8745L152.016 60.7052L150.695 63.7768Z" fill="#E6E6E6"/>
<path d="M146.105 64.7277L144.782 67.7925L149.491 69.8376L150.814 66.7728L146.105 64.7277Z" fill="#E6E6E6"/>
<path d="M134.879 94.4775L133.199 93.7498C132.798 93.5733 132.483 93.2445 132.322 92.8354C132.162 92.4263 132.17 91.9701 132.344 91.5667C132.519 91.1627 132.846 90.8447 133.254 90.6825C133.662 90.5202 134.117 90.5269 134.521 90.7012L136.201 91.4289C136.602 91.6053 136.917 91.9341 137.078 92.3433C137.238 92.7524 137.23 93.2085 137.056 93.6119C136.881 94.0159 136.554 94.3339 136.146 94.4962C135.738 94.6585 135.283 94.6517 134.879 94.4775Z" fill="#E6E6E6"/>
<path d="M266.116 79.7469C268.032 80.9601 269.543 82.7186 270.458 84.7976C271.372 86.8767 271.648 89.182 271.249 91.4191C270.851 93.6561 269.797 95.7233 268.222 97.3565C266.647 98.9897 264.622 100.115 262.406 100.588C260.19 101.061 257.884 100.861 255.782 100.014C253.68 99.1659 251.878 97.7088 250.605 95.8286C249.333 93.9484 248.648 91.7304 248.639 89.4581C248.63 87.1857 249.296 84.9621 250.552 83.0713C252.179 80.5629 254.731 78.8042 257.649 78.1809C260.567 77.5577 263.612 78.1209 266.116 79.7469ZM256.837 93.7108C257.707 94.3247 258.739 94.6645 259.802 94.6868C260.865 94.7092 261.911 94.413 262.805 93.8362C263.7 93.2594 264.402 92.4282 264.823 91.4488C265.244 90.4693 265.364 89.3863 265.168 88.338C264.972 87.2897 264.469 86.3239 263.723 85.5639C262.977 84.804 262.022 84.2845 260.98 84.0719C259.938 83.8592 258.856 83.9631 257.874 84.3702C256.891 84.7773 256.051 85.4692 255.463 86.3573C254.674 87.5155 254.375 88.9406 254.633 90.3194C254.891 91.6982 255.683 92.918 256.837 93.7108Z" fill="#E6E6E6"/>
<path d="M255.608 92.3472L258.769 94.4613L236.149 129.176C235.87 129.596 235.435 129.888 234.941 129.987C234.447 130.086 233.934 129.984 233.515 129.704C233.308 129.566 233.13 129.388 232.991 129.181C232.852 128.974 232.756 128.741 232.707 128.496C232.658 128.252 232.658 128 232.706 127.755C232.754 127.51 232.85 127.277 232.988 127.069L255.608 92.3472Z" fill="#E6E6E6"/>
<path d="M233.133 119.494L239.793 123.975L236.471 128.976L229.804 124.488C229.345 124.178 229.028 123.699 228.92 123.155C228.813 122.611 228.925 122.046 229.231 121.585L230.231 120.053C230.544 119.595 231.024 119.279 231.568 119.175C232.111 119.07 232.674 119.184 233.133 119.494Z" fill="#E6E6E6"/>
<path d="M173.766 13.4127L170.253 22.5279C170.177 22.7235 170.065 22.9024 169.92 23.0543C169.776 23.2062 169.604 23.3281 169.413 23.4131C169.222 23.4981 169.016 23.5445 168.807 23.5497C168.598 23.5548 168.39 23.5187 168.195 23.4432C168 23.3678 167.821 23.2545 167.67 23.11C167.518 22.9654 167.397 22.7923 167.312 22.6006C167.227 22.4089 167.181 22.2024 167.176 21.9928C167.171 21.7831 167.207 21.5745 167.282 21.3789L170.795 12.2637C171.338 10.8465 171.299 9.27114 170.686 7.88275C170.074 6.49436 168.937 5.40617 167.526 4.8566L164.273 3.59273C162.862 3.04703 161.293 3.08398 159.909 3.69547C158.526 4.30697 157.439 5.44325 156.888 6.85582L155.453 10.5785L152.49 9.42953L153.925 5.70685C154.346 4.61442 154.976 3.6157 155.781 2.76772C156.586 1.91973 157.55 1.2391 158.617 0.764668C159.684 0.290239 160.834 0.0313124 162.001 0.00266842C163.168 -0.0259755 164.33 0.176226 165.419 0.597728L168.672 1.85394C169.763 2.27692 170.761 2.91153 171.608 3.72149C172.455 4.53146 173.134 5.50089 173.607 6.57438C174.08 7.64786 174.338 8.80434 174.365 9.9777C174.392 11.1511 174.188 12.3183 173.766 13.4127Z" fill="#F0F0F0"/>
<path d="M173.208 14.8447C172.966 14.5325 172.644 14.2917 172.276 14.1477L154.559 7.2538C154.021 7.05058 153.425 7.06759 152.899 7.30114C152.374 7.5347 151.96 7.9661 151.749 8.50235L144.876 26.2809C144.669 26.8192 144.684 27.4178 144.918 27.945C145.151 28.4721 145.584 28.8847 146.121 29.092L163.838 35.9859C164.104 36.0896 164.388 36.1396 164.673 36.1329C164.959 36.1263 165.24 36.0632 165.501 35.9472C165.763 35.8311 165.998 35.6646 166.195 35.4569C166.392 35.2493 166.546 35.0048 166.648 34.7373L173.521 16.9665C173.657 16.616 173.699 16.236 173.644 15.864C173.59 15.492 173.439 15.1408 173.208 14.8447ZM159.752 28.5788L154.139 26.4034L157.11 21.2024C156.88 20.7367 156.769 20.2208 156.787 19.7013C156.806 19.1818 156.954 18.6752 157.217 18.2274C157.48 17.7795 157.85 17.4045 158.294 17.1364C158.738 16.8683 159.242 16.7154 159.759 16.6918C160.277 16.6681 160.792 16.7743 161.259 17.0009C161.725 17.2274 162.128 17.567 162.431 17.989C162.733 18.411 162.926 18.902 162.992 19.4177C163.057 19.9333 162.994 20.4572 162.807 20.9419C162.654 21.347 162.416 21.7148 162.111 22.0211C161.806 22.3274 161.439 22.5653 161.035 22.719L159.752 28.5788Z" fill="#E6E6E6"/>
<path d="M52.8076 220.917L194.186 220.917V144.602H52.8076V220.917Z" fill="#E6E6E6"/>
<path d="M182.853 230.814H191.742V224.081H182.853V230.814Z" fill="#E6E6E6"/>
<path d="M42.0171 230.814H50.9062L50.9062 138.919H42.0171L42.0171 230.814Z" fill="#E6E6E6"/>
<path d="M50.7996 138.919V230.837H55.542V225.69H191.742V230.837H196.485V138.919H50.7996ZM55.542 147.238H121.271V179.156H55.542V147.238ZM191.742 217.348H126.006V147.238H191.735L191.742 217.348ZM55.542 217.348V183.913H121.271V217.348H55.542Z" fill="#F0F0F0"/>
<path d="M126.005 217.348H187.298V150.669H126.005V217.348Z" fill="#F5F5F5"/>
<path d="M128.785 182.013C128.785 182.578 128.952 183.131 129.265 183.601C129.578 184.071 130.023 184.437 130.544 184.653C131.064 184.869 131.637 184.926 132.19 184.816C132.742 184.705 133.25 184.433 133.648 184.034C134.046 183.634 134.318 183.125 134.428 182.571C134.538 182.017 134.481 181.442 134.266 180.92C134.05 180.398 133.685 179.952 133.216 179.638C132.748 179.324 132.197 179.156 131.634 179.156C131.26 179.156 130.889 179.23 130.544 179.374C130.198 179.517 129.884 179.728 129.62 179.993C129.355 180.258 129.145 180.573 129.002 180.92C128.859 181.267 128.785 181.638 128.785 182.013Z" fill="#FAFAFA"/>
<path d="M131.634 184.871C132.178 184.869 132.711 184.71 133.168 184.414C133.626 184.119 133.989 183.697 134.215 183.201C134.39 183.572 134.481 183.977 134.482 184.388C134.482 185.146 134.182 185.872 133.648 186.408C133.114 186.944 132.389 187.245 131.634 187.245C130.878 187.245 130.154 186.944 129.62 186.408C129.086 185.872 128.785 185.146 128.785 184.388C128.787 183.977 128.878 183.572 129.053 183.201C129.279 183.697 129.642 184.119 130.1 184.414C130.557 184.71 131.09 184.869 131.634 184.871Z" fill="#E0E0E0"/>
<path d="M163.532 217.348H148.908L141.92 150.669H156.545L163.532 217.348Z" fill="#FAFAFA"/>
<path d="M145.166 217.348H142.257L135.269 150.669H138.179L145.166 217.348Z" fill="#FAFAFA"/>
<path d="M106.463 179.118H112.252V150.601H106.463V179.118Z" fill="#FAFAFA"/>
<path d="M82.446 179.118H88.2346V150.601H82.446V179.118Z" fill="#F5F5F5"/>
<path d="M100.667 179.125H106.456V152.607H100.667V179.125Z" fill="#F5F5F5"/>
<path d="M88.2343 179.125H94.0229V152.607H88.2343V179.125Z" fill="#FAFAFA"/>
<path d="M94.0307 179.118H97.7727V150.601H94.0307V179.118Z" fill="#EBEBEB"/>
<path d="M97.7651 179.125H100.659V152.607H97.7651V179.125Z" fill="#FAFAFA"/>
<path d="M76.6572 179.118H82.4458V150.601H76.6572V179.118Z" fill="#EBEBEB"/>
<path d="M70.861 179.125H76.6497V152.607H70.861V179.125Z" fill="#E6E6E6"/>
<path d="M58.4287 179.125H64.2173V152.607H58.4287V179.125Z" fill="#E6E6E6"/>
<path d="M64.2246 179.118H67.9666V150.601H64.2246V179.118Z" fill="#FAFAFA"/>
<path d="M67.9668 179.125H70.8611V152.607H67.9668V179.125Z" fill="#EBEBEB"/>
<path d="M55.5342 179.125H58.4285V151.282H55.5342V179.125Z" fill="#EBEBEB"/>
<path d="M61.323 188.831H55.5344V217.348H61.323V188.831Z" fill="#EBEBEB"/>
<path d="M85.3328 188.831H79.5442V217.348H85.3328V188.831Z" fill="#FAFAFA"/>
<path d="M67.1114 190.83H61.3228V217.348H67.1114V190.83Z" fill="#FAFAFA"/>
<path d="M79.5442 190.83H73.7556V217.348H79.5442V190.83Z" fill="#EBEBEB"/>
<path d="M73.7557 188.831H70.0137V217.348H73.7557V188.831Z" fill="#FAFAFA"/>
<path d="M70.0132 190.83H67.1189V217.348H70.0132V190.83Z" fill="#F5F5F5"/>
<path d="M91.1287 188.831H85.3401V217.348H91.1287V188.831Z" fill="#EBEBEB"/>
<path d="M96.9175 190.83H91.1289V217.348H96.9175V190.83Z" fill="#F5F5F5"/>
<path d="M109.35 190.83H103.561V217.348H109.35V190.83Z" fill="#E6E6E6"/>
<path d="M103.561 188.831H99.8193V217.348H103.561V188.831Z" fill="#FAFAFA"/>
<path d="M115.994 188.831H112.252V217.348H115.994V188.831Z" fill="#FAFAFA"/>
<path d="M99.8194 190.83H96.925V217.348H99.8194V190.83Z" fill="#EBEBEB"/>
<path d="M112.244 189.504H109.35V217.348H112.244V189.504Z" fill="#EBEBEB"/>
<path d="M61.995 89.8047C61.3949 90.101 60.8994 90.574 60.5746 91.1605C60.1317 92.0643 61.5139 93.7418 61.5139 93.7418C61.8472 93.9653 62.228 94.1073 62.6258 94.1566C63.0237 94.2058 63.4275 94.1608 63.8049 94.0253L64.9504 93.5044C64.9504 93.5044 62.9878 90.0805 62.0332 90.0422L61.995 89.8047Z" fill="#E6E6E6"/>
<path d="M66.9206 89.7743C67.058 91.3982 66.0576 93.451 64.6296 93.6042C63.2015 93.7574 61.8574 91.8807 61.6894 90.2339C61.5214 88.587 62.7127 88.4491 64.1561 88.3266C65.5994 88.204 66.7755 88.1504 66.9206 89.7743Z" fill="#E6E6E6"/>
<path d="M62.6824 89.2998C62.6824 89.2998 63.7897 90.1807 66.0654 89.6675C66.0654 89.6675 62.4762 92.065 62.6824 89.2998Z" fill="#E6E6E6"/>
<path d="M63.6597 88.977C63.6597 88.977 64.935 88.7549 64.9503 89.2834C64.9503 89.2834 66.0347 89.2221 65.8819 88.7702C65.7292 88.3183 63.6597 88.977 63.6597 88.977Z" fill="#E6E6E6"/>
<g opacity="0.2">
<path d="M62.6824 89.2998C62.6824 89.2998 63.7897 90.1807 66.0654 89.6675C66.0654 89.6675 62.4762 92.065 62.6824 89.2998Z" fill="#FAFAFA"/>
</g>
<g opacity="0.2">
<path d="M63.6597 88.977C63.6597 88.977 64.935 88.7549 64.9503 89.2834C64.9503 89.2834 66.0347 89.2221 65.8819 88.7702C65.7292 88.3183 63.6597 88.977 63.6597 88.977Z" fill="#FAFAFA"/>
</g>
<path d="M62.1858 94.0869C62.4321 94.4575 62.778 94.7505 63.1834 94.9322C63.5889 95.1138 64.0373 95.1766 64.4768 95.1134C64.9112 95.0478 65.3271 94.892 65.6979 94.6559C66.0688 94.4198 66.3864 94.1086 66.6303 93.7422C67.1067 93.0036 67.3709 92.1475 67.394 91.2681C67.394 91.046 67.394 90.5021 67.1267 90.3872C66.8594 90.2723 66.6838 90.6936 66.5616 90.8698C66.2051 91.384 65.7983 91.8613 65.3474 92.2945C64.9014 92.7239 64.4067 93.0992 63.8735 93.4129C63.7208 93.4588 62.2698 94.2172 62.1858 94.0869Z" fill="#E6E6E6"/>
<path d="M68.387 90.8464C68.519 91.1787 68.5651 91.539 68.521 91.8938C68.477 92.2487 68.3442 92.5867 68.135 92.8763C67.834 93.2347 67.4688 93.5334 67.0583 93.7572C66.7757 93.9257 66.4168 94.0866 66.1419 93.9104C65.8669 93.7342 65.8746 93.2823 65.9433 92.9376C66.0502 92.4091 66.1648 91.8805 66.3022 91.352C66.3674 90.8227 66.5115 90.3063 66.7299 89.82C66.9666 89.483 67.295 89.6822 67.6539 89.9349C67.9796 90.1628 68.2339 90.479 68.387 90.8464Z" fill="#E6E6E6"/>
<g opacity="0.2">
<path d="M62.5523 93.19C62.2745 93.1677 62.0081 93.0695 61.782 92.9061C61.5558 92.7427 61.3786 92.5204 61.2694 92.2632C61.1166 91.8725 61.1166 90.8997 61.6207 90.7695C61.7728 91.6291 62.0891 92.451 62.5523 93.19Z" fill="#FAFAFA"/>
</g>
<g opacity="0.2">
<path d="M66.3171 93.1445C66.5811 93.0675 66.8222 92.9266 67.0193 92.7343C67.2164 92.542 67.3633 92.3041 67.4474 92.0415C67.5314 91.7505 67.4474 90.2644 66.9815 90.8849C66.8364 91.0917 66.867 91.7428 66.7906 92.0109C66.6777 92.4061 66.5188 92.7866 66.3171 93.1445Z" fill="#FAFAFA"/>
</g>
<g opacity="0.2">
<path d="M64.3015 94.0635C64.5144 94.2417 64.7812 94.3425 65.0585 94.3495C65.3358 94.3564 65.6073 94.2691 65.8288 94.1018C65.7677 94.3928 64.8666 94.6303 64.5917 94.7146C63.828 94.929 63.4767 94.6073 62.7742 94.3086C62.736 94.3086 63.8509 94.4771 64.3015 94.0635Z" fill="#FAFAFA"/>
</g>
<path d="M63.041 123.898L63.1097 101.8L64.24 95.0742L64.6676 95.1508L63.545 101.838L63.461 124.32L63.041 123.898Z" fill="#E0E0E0"/>
<path d="M63.4995 101.686L63.1558 101.954C62.7675 101.409 62.4252 100.832 62.1325 100.23C61.5598 99.0406 60.8387 97.9287 59.9866 96.9213L60.3073 96.6226C61.1849 97.6585 61.9289 98.8012 62.522 100.024C62.8019 100.603 63.1288 101.159 63.4995 101.686Z" fill="#E0E0E0"/>
<path d="M63.7669 98.7207C64.3578 98.5601 64.8722 98.1935 65.2179 97.6867C65.5603 97.0854 65.7785 96.4211 65.8594 95.7334C65.0957 95.9632 64.2786 95.5955 63.492 95.6874C63.1779 95.7264 62.8768 95.8371 62.612 96.0111C62.3472 96.185 62.1258 96.4176 61.9646 96.6909C61.5523 97.4033 61.3843 98.2229 61.7508 98.5369C62.3735 98.8586 63.0966 98.9245 63.7669 98.7207Z" fill="#E6E6E6"/>
<path d="M60.8341 97.1963C60.4799 97.4174 60.082 97.5586 59.6679 97.6102C59.2539 97.6618 58.8336 97.6225 58.4362 97.495C57.6725 97.2422 57.4205 96.0473 57.1074 95.2736C58.0904 95.1816 59.0798 95.1816 60.0628 95.2736C60.2705 95.2864 60.4728 95.3452 60.655 95.4459C60.8373 95.5465 60.995 95.6866 61.1167 95.8558C61.2311 96.0296 61.278 96.2394 61.2485 96.4456C61.2189 96.6517 61.115 96.8398 60.9563 96.9741L60.8341 97.1963Z" fill="#E6E6E6"/>
<path d="M57.2222 98.4907C57.5374 98.1759 57.9174 97.934 58.3355 97.7818C58.7537 97.6297 59.1999 97.5709 59.643 97.6098C59.9978 97.6753 60.332 97.824 60.6187 98.0436C60.9053 98.2632 61.1362 98.5476 61.2926 98.8736C61.1736 99.1007 60.9961 99.2916 60.7784 99.4264C60.5608 99.5611 60.3111 99.6348 60.0554 99.6396C59.5347 99.6475 59.017 99.5592 58.5281 99.3792C58.0402 99.1945 57.5221 99.1035 57.0007 99.1111L57.2222 98.4907Z" fill="#E6E6E6"/>
<path d="M71.9224 94.6919C72.4062 95.1507 72.7392 95.7466 72.8769 96.4C73.0373 97.4035 71.2274 98.5908 71.2274 98.5908C70.8408 98.7102 70.4314 98.7356 70.0331 98.665C69.6347 98.5944 69.2588 98.4298 68.9364 98.1848L67.9666 97.3422C67.9666 97.3422 70.8532 94.6536 71.7849 94.9064L71.9224 94.6919Z" fill="#E6E6E6"/>
<path d="M67.2032 93.2137C66.5999 94.7456 66.9588 96.9746 68.3028 97.5185C69.6469 98.0623 71.4644 96.6989 72.0754 95.2205C72.6863 93.7422 71.6324 93.183 70.2578 92.6468C68.8832 92.1106 67.8294 91.7047 67.2032 93.2137Z" fill="#E6E6E6"/>
<path d="M71.411 94.0023C71.411 94.0023 70.0899 94.5232 68.0662 93.3589C68.0662 93.3589 70.7925 96.7062 71.411 94.0023Z" fill="#E6E6E6"/>
<path d="M70.5709 93.4122C70.5709 93.4122 69.4177 92.8224 69.2421 93.3279C69.2421 93.3279 68.2264 92.9526 68.4784 92.5619C68.7304 92.1713 70.5709 93.4122 70.5709 93.4122Z" fill="#E6E6E6"/>
<g opacity="0.2">
<path d="M71.411 94.0023C71.411 94.0023 70.0899 94.5232 68.0662 93.3589C68.0662 93.3589 70.7925 96.7062 71.411 94.0023Z" fill="#FAFAFA"/>
</g>
<g opacity="0.2">
<path d="M70.5709 93.4122C70.5709 93.4122 69.4177 92.8224 69.2421 93.3279C69.2421 93.3279 68.2264 92.9526 68.4784 92.5619C68.7304 92.1713 70.5709 93.4122 70.5709 93.4122Z" fill="#FAFAFA"/>
</g>
<path d="M70.4791 98.7289C70.1367 99.004 69.7251 99.1789 69.2899 99.2343C68.8547 99.2897 68.4126 99.2235 68.0125 99.043C67.6169 98.8516 67.2654 98.5798 66.9801 98.2448C66.6948 97.9099 66.4821 97.5192 66.3553 97.0974C66.1185 96.2455 66.1185 95.3449 66.3553 94.493C66.4011 94.2709 66.5539 93.7271 66.867 93.7271C67.1801 93.7271 67.1954 94.1483 67.2641 94.3552C67.4551 94.9559 67.7112 95.5338 68.0278 96.0786C68.3336 96.6097 68.7001 97.1033 69.1198 97.5493C69.1962 97.6795 70.3646 98.8285 70.4791 98.7289Z" fill="#E6E6E6"/>
<path d="M65.5078 93.8033C65.2815 94.0789 65.1302 94.4086 65.0687 94.7603C65.0071 95.112 65.0374 95.4737 65.1565 95.8102C65.3301 96.246 65.5899 96.642 65.9202 96.9745C66.134 97.2196 66.4318 97.48 66.745 97.3881C67.0581 97.2962 67.1802 96.8672 67.2184 96.5225C67.2719 95.9787 67.3177 95.4425 67.3406 94.8986C67.4206 94.3783 67.4206 93.8487 67.3406 93.3284C67.2184 92.9301 66.8366 93.022 66.4242 93.1599C66.0642 93.283 65.7464 93.5061 65.5078 93.8033Z" fill="#E6E6E6"/>
<g opacity="0.2">
<path d="M70.3953 97.7558C70.6713 97.829 70.9626 97.8201 71.2337 97.7304C71.5049 97.6407 71.7442 97.4738 71.9226 97.2502C72.1746 96.9285 72.4572 95.994 72.0219 95.7183C71.614 96.4951 71.0619 97.1867 70.3953 97.7558Z" fill="#FAFAFA"/>
</g>
<g opacity="0.2">
<path d="M66.8059 96.607C66.5737 96.4578 66.3822 96.2529 66.2488 96.0109C66.1155 95.7688 66.0445 95.4971 66.0422 95.2205C66.0422 94.9141 66.5844 93.5277 66.8059 94.2554C66.8823 94.4929 66.6608 95.1056 66.6608 95.3814C66.6628 95.7941 66.7115 96.2053 66.8059 96.607Z" fill="#FAFAFA"/>
</g>
<g opacity="0.2">
<path d="M68.463 98.0775C68.2145 98.1786 67.9397 98.1943 67.6813 98.1223C67.423 98.0502 67.1957 97.8944 67.0349 97.6792C67.0349 97.9703 67.7986 98.4452 68.0353 98.629C68.6692 99.0503 69.1274 98.8512 69.891 98.7746C69.891 98.7746 68.7761 98.6137 68.463 98.0775Z" fill="#FAFAFA"/>
</g>
<path d="M62.415 120.597L62.69 119.693L63.0565 118.475L63.4842 117.051L66.9131 105.737L67.3407 102.489L67.7225 99.6092L67.7989 99.0117L68.0127 99.0347V99.0424L68.2342 99.0653L68.2266 99.119L68.1502 99.6858L67.7454 102.765L67.4171 105.27L67.3407 105.821L67.3102 105.913L63.4842 118.552L63.0489 119.969L62.858 120.628L62.583 121.524L62.415 120.597Z" fill="#E0E0E0"/>
<path d="M66.9968 105.607L67.2488 105.959C67.778 105.551 68.2735 105.1 68.7304 104.611C69.6355 103.64 70.6623 102.79 71.785 102.083L71.5636 101.708C70.4191 102.434 69.3742 103.307 68.4554 104.305C68.0012 104.773 67.5137 105.209 66.9968 105.607Z" fill="#E0E0E0"/>
<path d="M67.6155 102.696C67.0951 102.371 66.7098 101.867 66.5311 101.279C66.377 100.602 66.364 99.9004 66.4929 99.2183C67.1497 99.6625 68.0203 99.5476 68.7839 99.8693C69.0729 99.9994 69.3285 100.194 69.531 100.438C69.7335 100.683 69.8776 100.97 69.9523 101.279C70.1356 102.045 70.0593 102.903 69.6163 103.109C68.9211 103.242 68.2019 103.093 67.6155 102.696Z" fill="#E6E6E6"/>
<path d="M70.8605 102.099C71.1331 102.415 71.471 102.668 71.8508 102.84C72.2306 103.012 72.6432 103.099 73.0598 103.095C73.8922 103.095 74.465 102.007 74.9843 101.356C74.0746 100.976 73.1311 100.684 72.1663 100.483C71.9645 100.433 71.7542 100.43 71.5507 100.472C71.3473 100.515 71.1558 100.602 70.9903 100.728C70.828 100.859 70.7196 101.046 70.6858 101.252C70.652 101.458 70.6951 101.67 70.807 101.846L70.8605 102.099Z" fill="#E6E6E6"/>
<path d="M73.9385 104.397C73.729 104.005 73.4355 103.664 73.079 103.399C72.7224 103.134 72.3118 102.952 71.8766 102.865C71.5184 102.823 71.1553 102.866 70.8169 102.991C70.4785 103.117 70.1744 103.32 69.9292 103.585C69.9745 103.839 70.0871 104.076 70.255 104.272C70.4229 104.467 70.6401 104.614 70.8838 104.696C71.377 104.853 71.8946 104.918 72.4111 104.887C72.9277 104.854 73.446 104.919 73.9385 105.079V104.397Z" fill="#E6E6E6"/>
<path d="M56.4509 93.8032C55.9175 94.2061 55.5181 94.7616 55.3054 95.3965C55.0305 96.3693 56.6877 97.7634 56.6877 97.7634C57.053 97.9233 57.4507 97.9948 57.8487 97.9722C58.2466 97.9496 58.6337 97.8334 58.9787 97.6331L60.0173 96.9055C60.0173 96.9055 57.4743 93.8951 56.5273 94.033L56.4509 93.8032Z" fill="#E6E6E6"/>
<path d="M61.2924 92.8913C61.7201 94.4616 61.1015 96.66 59.704 97.043C58.3065 97.426 56.6493 95.8557 56.2293 94.2854C55.8093 92.7152 56.9166 92.3475 58.3141 91.9875C59.7116 91.6275 60.8648 91.3211 61.2924 92.8913Z" fill="#E6E6E6"/>
<path d="M57.0386 93.1826C57.0386 93.1826 58.2834 93.8567 60.4293 92.9375C60.4293 92.9375 57.3364 95.9478 57.0386 93.1826Z" fill="#E6E6E6"/>
<path d="M57.9399 92.692C57.9399 92.692 59.1542 92.24 59.2687 92.7609C59.2687 92.7609 60.3226 92.5081 60.0935 92.0868C59.8644 91.6656 57.9399 92.692 57.9399 92.692Z" fill="#E6E6E6"/>
<g opacity="0.2">
<path d="M57.0386 93.1826C57.0386 93.1826 58.2834 93.8567 60.4293 92.9375C60.4293 92.9375 57.3364 95.9478 57.0386 93.1826Z" fill="#FAFAFA"/>
</g>
<g opacity="0.2">
<path d="M57.9399 92.692C57.9399 92.692 59.1542 92.24 59.2687 92.7609C59.2687 92.7609 60.3226 92.5081 60.0935 92.0868C59.8644 91.6656 57.9399 92.692 57.9399 92.692Z" fill="#FAFAFA"/>
</g>
<path d="M57.4055 98.0084C57.7132 98.3224 58.1013 98.5451 58.5271 98.6519C58.953 98.7587 59.3999 98.7454 59.8187 98.6135C60.2346 98.4696 60.6163 98.2408 60.9396 97.9415C61.2629 97.6422 61.5209 97.279 61.6973 96.8747C62.0449 96.0619 62.1612 95.1684 62.0334 94.2934C62.0334 94.0712 61.9264 93.5274 61.6133 93.4738C61.3002 93.4201 61.2315 93.8568 61.1399 94.0559C60.8836 94.6259 60.5688 95.1676 60.2006 95.6721C59.835 96.1652 59.4119 96.6126 58.9405 97.005C58.803 97.0892 57.5124 98.1003 57.4055 98.0084Z" fill="#E6E6E6"/>
<path d="M62.9266 93.6807C63.117 93.9825 63.2274 94.328 63.2474 94.6846C63.2675 95.0411 63.1965 95.3969 63.0412 95.7182C62.8141 96.1296 62.5078 96.4915 62.14 96.783C61.8957 96.9974 61.5749 97.2196 61.2695 97.097C60.964 96.9745 60.8953 96.5302 60.9029 96.1778C60.9029 95.634 60.9029 95.0978 60.964 94.554C60.9397 94.0385 60.9912 93.5224 61.1167 93.022C61.2847 92.639 61.6513 92.7769 62.0484 92.9607C62.4019 93.1147 62.7059 93.3639 62.9266 93.6807Z" fill="#E6E6E6"/>
<g opacity="0.2">
<path d="M57.6115 97.0355C57.3323 97.0712 57.0487 97.026 56.7942 96.9052C56.5398 96.7844 56.3252 96.593 56.1758 96.3537C55.962 96.0014 55.7863 95.0363 56.2522 94.8218C56.5624 95.6389 57.0235 96.3899 57.6115 97.0355Z" fill="#FAFAFA"/>
</g>
<g opacity="0.2">
<path d="M61.3076 96.3153C61.5532 96.1907 61.7645 96.0075 61.923 95.7818C62.0815 95.556 62.1822 95.2947 62.2164 95.0208C62.2164 94.7221 61.8727 93.282 61.552 93.9714C61.5141 94.3483 61.5141 94.7281 61.552 95.1051C61.5168 95.5165 61.4348 95.9225 61.3076 96.3153Z" fill="#FAFAFA"/>
</g>
<g opacity="0.2">
<path d="M59.4903 97.5794C59.7259 97.7078 59.9972 97.7549 60.2622 97.7134C60.5271 97.6718 60.7711 97.544 60.9565 97.3496C60.9565 97.6407 60.1088 98.039 59.8492 98.1769C59.1695 98.5139 58.7342 98.2688 57.9858 98.1079C57.9858 98.1079 59.1161 98.0696 59.4903 97.5794Z" fill="#FAFAFA"/>
</g>
<path d="M63.5911 127.154L59.6964 105.408L59.6047 98.5907L60.04 98.583L60.1317 105.37L64.0798 127.491L63.5911 127.154Z" fill="#E0E0E0"/>
<path d="M60.0628 105.224L59.765 105.545C59.2877 105.072 58.8509 104.56 58.4591 104.013C57.6797 102.952 56.7687 101.995 55.748 101.164L56.0153 100.819C57.065 101.68 58.0016 102.671 58.8027 103.768C59.1825 104.287 59.6039 104.774 60.0628 105.224Z" fill="#E0E0E0"/>
<path d="M59.7876 102.259C60.3432 101.998 60.7855 101.543 61.0324 100.98C61.2652 100.327 61.3614 99.6338 61.3149 98.9424C60.6047 99.3101 59.7342 99.0879 58.9781 99.3177C58.6753 99.4154 58.3985 99.5805 58.1684 99.8007C57.9383 100.021 57.7608 100.29 57.6493 100.589C57.3744 101.355 57.3515 102.182 57.7715 102.435C58.4403 102.646 59.1653 102.583 59.7876 102.259Z" fill="#E6E6E6"/>
<path d="M56.6339 101.287C56.3279 101.568 55.9644 101.779 55.5686 101.905C55.1729 102.031 54.7545 102.068 54.3429 102.015C53.5181 101.907 53.0752 100.774 52.6399 100.069C53.5871 99.7943 54.5592 99.6147 55.5418 99.5329C55.7474 99.507 55.9561 99.5272 56.1529 99.5921C56.3497 99.657 56.5296 99.765 56.6797 99.9083C56.8236 100.059 56.9077 100.258 56.9161 100.466C56.9246 100.675 56.8568 100.88 56.7255 101.042L56.6339 101.287Z" fill="#E6E6E6"/>
<path d="M53.3118 103.21C53.5662 102.845 53.8969 102.54 54.2806 102.316C54.6644 102.093 55.0922 101.956 55.5341 101.915C55.8956 101.914 56.2522 101.999 56.5747 102.163C56.8972 102.326 57.1765 102.564 57.3898 102.857C57.3164 103.106 57.1765 103.329 56.9853 103.503C56.7941 103.677 56.559 103.796 56.3054 103.845C55.8008 103.941 55.2827 103.941 54.7781 103.845C54.2734 103.75 53.7554 103.75 53.2507 103.845L53.3118 103.21Z" fill="#E6E6E6"/>
<path d="M65.1795 113.81H60.5975C60.4281 113.803 60.2611 113.853 60.1228 113.951C59.9845 114.049 59.8829 114.191 59.8338 114.354C58.9902 117.358 58.5964 120.472 58.6654 123.592C58.6654 128.954 60.0706 136.169 60.5135 138.291C60.5476 138.468 60.6429 138.627 60.7826 138.741C60.9223 138.854 61.0974 138.915 61.2772 138.912H64.454C64.6338 138.915 64.8089 138.854 64.9486 138.741C65.0883 138.627 65.1836 138.468 65.2177 138.291C65.6606 136.169 67.0658 128.992 67.0658 123.592C67.1348 120.472 66.741 117.358 65.8974 114.354C65.8505 114.199 65.7558 114.063 65.6268 113.965C65.4978 113.867 65.3412 113.813 65.1795 113.81Z" fill="#F0F0F0"/>
<path d="M164.925 265C232.345 265 287 261.118 287 256.329C287 251.54 232.345 247.658 164.925 247.658C97.5045 247.658 42.8496 251.54 42.8496 256.329C42.8496 261.118 97.5045 265 164.925 265Z" fill="#F5F5F5"/>
<path d="M92.2362 226.517C92.1113 226.509 91.9944 226.452 91.9103 226.359C91.8261 226.266 91.7815 226.144 91.7857 226.019C92.3508 203.506 93.5039 166.578 93.565 166.372C93.6055 166.249 93.6914 166.146 93.805 166.085C93.9187 166.023 94.0514 166.008 94.176 166.042C94.2996 166.081 94.4032 166.167 94.4646 166.281C94.5259 166.396 94.5402 166.53 94.5043 166.655C94.5043 166.701 93.3206 203.759 92.7555 226.042C92.7546 226.106 92.7409 226.169 92.7153 226.228C92.6897 226.286 92.6527 226.339 92.6065 226.384C92.5603 226.428 92.5058 226.462 92.4462 226.485C92.3865 226.508 92.323 226.519 92.2591 226.517H92.2362Z" fill="#263238"/>
<path d="M89.2197 151.343C89.4106 153.074 91.5107 159.087 93.206 158.903C94.9014 158.72 95.6727 152.393 95.497 150.661C95.4069 149.828 94.9906 149.066 94.3397 148.541C93.6888 148.015 92.8566 147.771 92.0262 147.862C91.1958 147.952 90.4352 148.37 89.9117 149.023C89.3883 149.675 89.1448 150.51 89.235 151.343H89.2197Z" fill="#F3601E"/>
<path d="M97.6126 170.309C97.4217 168.57 95.3216 162.557 93.6262 162.749C91.9309 162.94 91.1672 169.252 91.3352 170.991C91.4254 171.824 91.8417 172.586 92.4926 173.111C93.1435 173.637 93.9757 173.881 94.8061 173.79C95.6365 173.7 96.3971 173.282 96.9206 172.629C97.444 171.977 97.6874 171.142 97.5973 170.309H97.6126Z" fill="#F3601E"/>
<path d="M84.0039 165.031C85.7298 164.847 91.7246 162.771 91.5337 161.033C91.3428 159.294 85.0501 158.566 83.3242 158.735C82.9131 158.779 82.5147 158.905 82.1519 159.104C81.7891 159.303 81.469 159.572 81.2098 159.895C80.9506 160.219 80.7574 160.59 80.6413 160.988C80.5252 161.386 80.4884 161.804 80.533 162.216C80.5777 162.628 80.7028 163.028 80.9014 163.392C81.1 163.756 81.3681 164.077 81.6904 164.337C82.0127 164.597 82.3829 164.791 82.7798 164.907C83.1768 165.024 83.5927 165.06 84.0039 165.016V165.031Z" fill="#F3601E"/>
<path d="M102.866 156.62C101.14 156.804 95.1456 158.918 95.3365 160.619C95.5274 162.319 101.82 163.085 103.546 162.917C103.963 162.88 104.369 162.76 104.739 162.564C105.109 162.369 105.437 162.1 105.703 161.776C105.968 161.451 106.167 161.077 106.286 160.674C106.406 160.272 106.444 159.85 106.399 159.432C106.354 159.015 106.226 158.61 106.023 158.243C105.82 157.876 105.546 157.553 105.217 157.293C104.888 157.033 104.511 156.842 104.107 156.731C103.703 156.619 103.281 156.589 102.866 156.643V156.62Z" fill="#F3601E"/>
<path d="M83.767 157.096C85.1187 158.191 90.8233 160.972 91.9154 159.616C93.0074 158.26 89.0669 153.266 87.7152 152.17C87.3957 151.887 87.022 151.671 86.6169 151.536C86.2118 151.401 85.7837 151.351 85.3584 151.387C84.9331 151.423 84.5196 151.545 84.1428 151.746C83.766 151.947 83.4339 152.223 83.1664 152.557C82.899 152.89 82.7019 153.275 82.5869 153.687C82.472 154.099 82.4417 154.531 82.4979 154.955C82.554 155.38 82.6955 155.788 82.9136 156.156C83.1318 156.524 83.4221 156.844 83.767 157.096Z" fill="#F3601E"/>
<path d="M103.095 164.557C101.744 163.461 96.0391 160.681 94.9547 162.037C93.8702 163.392 97.7955 168.387 99.1548 169.474C99.4751 169.748 99.8469 169.955 100.248 170.082C100.649 170.209 101.072 170.254 101.491 170.214C101.91 170.174 102.316 170.051 102.687 169.851C103.057 169.651 103.384 169.378 103.648 169.049C103.911 168.72 104.106 168.342 104.222 167.936C104.337 167.53 104.369 167.105 104.318 166.686C104.266 166.267 104.132 165.863 103.922 165.497C103.712 165.131 103.431 164.812 103.095 164.557Z" fill="#F3601E"/>
<path d="M89.7006 170.501C90.7927 169.145 93.5648 163.423 92.2055 162.335C90.8461 161.247 85.8823 165.185 84.7902 166.548C84.2677 167.201 84.0252 168.036 84.1162 168.868C84.2071 169.701 84.624 170.463 85.2752 170.987C85.9263 171.511 86.7584 171.754 87.5883 171.663C88.4183 171.572 89.1781 171.154 89.7006 170.501Z" fill="#F3601E"/>
<path d="M97.1314 151.144C96.047 152.508 93.2673 158.222 94.6266 159.317C95.9859 160.413 100.95 156.46 102.042 155.104C102.325 154.784 102.54 154.409 102.674 154.003C102.808 153.596 102.859 153.167 102.823 152.74C102.787 152.314 102.665 151.899 102.465 151.521C102.264 151.143 101.989 150.81 101.657 150.542C101.324 150.274 100.941 150.076 100.53 149.961C100.119 149.845 99.6886 149.815 99.2655 149.871C98.8424 149.928 98.4351 150.069 98.0683 150.288C97.7015 150.507 97.3828 150.798 97.1314 151.144Z" fill="#F3601E"/>
<g opacity="0.6">
<path d="M89.2197 151.343C89.4106 153.074 91.5107 159.087 93.206 158.903C94.9014 158.72 95.6727 152.393 95.497 150.661C95.4069 149.828 94.9906 149.066 94.3397 148.541C93.6888 148.015 92.8566 147.771 92.0262 147.862C91.1958 147.952 90.4352 148.37 89.9117 149.023C89.3883 149.675 89.1448 150.51 89.235 151.343H89.2197Z" fill="white"/>
<path d="M97.6126 170.309C97.4217 168.57 95.3216 162.557 93.6262 162.749C91.9309 162.94 91.1672 169.252 91.3352 170.991C91.4254 171.824 91.8417 172.586 92.4926 173.111C93.1435 173.637 93.9757 173.881 94.8061 173.79C95.6365 173.7 96.3971 173.282 96.9206 172.629C97.444 171.977 97.6874 171.142 97.5973 170.309H97.6126Z" fill="white"/>
<path d="M84.0039 165.031C85.7298 164.847 91.7246 162.771 91.5337 161.033C91.3428 159.294 85.0501 158.566 83.3242 158.735C82.9131 158.779 82.5147 158.905 82.1519 159.104C81.7891 159.303 81.469 159.572 81.2098 159.895C80.9506 160.219 80.7574 160.59 80.6413 160.988C80.5252 161.386 80.4884 161.804 80.533 162.216C80.5777 162.628 80.7028 163.028 80.9014 163.392C81.1 163.756 81.3681 164.077 81.6904 164.337C82.0127 164.597 82.3829 164.791 82.7798 164.907C83.1768 165.024 83.5927 165.06 84.0039 165.016V165.031Z" fill="white"/>
<path d="M102.866 156.62C101.14 156.804 95.1456 158.918 95.3365 160.619C95.5274 162.319 101.82 163.085 103.546 162.917C103.963 162.88 104.369 162.76 104.739 162.564C105.109 162.369 105.437 162.1 105.703 161.776C105.968 161.451 106.167 161.077 106.286 160.674C106.406 160.272 106.444 159.85 106.399 159.432C106.354 159.015 106.226 158.61 106.023 158.243C105.82 157.876 105.546 157.553 105.217 157.293C104.888 157.033 104.511 156.842 104.107 156.731C103.703 156.619 103.281 156.589 102.866 156.643V156.62Z" fill="white"/>
<path d="M83.767 157.096C85.1187 158.191 90.8233 160.972 91.9154 159.616C93.0074 158.26 89.0669 153.266 87.7152 152.17C87.3957 151.887 87.022 151.671 86.6169 151.536C86.2118 151.401 85.7837 151.351 85.3584 151.387C84.9331 151.423 84.5196 151.545 84.1428 151.746C83.766 151.947 83.4339 152.223 83.1664 152.557C82.899 152.89 82.7019 153.275 82.5869 153.687C82.472 154.099 82.4417 154.531 82.4979 154.955C82.554 155.38 82.6955 155.788 82.9136 156.156C83.1318 156.524 83.4221 156.844 83.767 157.096Z" fill="white"/>
<path d="M103.095 164.557C101.744 163.461 96.0391 160.681 94.9547 162.037C93.8702 163.392 97.7955 168.387 99.1548 169.474C99.4751 169.748 99.8469 169.955 100.248 170.082C100.649 170.209 101.072 170.254 101.491 170.214C101.91 170.174 102.316 170.051 102.687 169.851C103.057 169.651 103.384 169.378 103.648 169.049C103.911 168.72 104.106 168.342 104.222 167.936C104.337 167.53 104.369 167.105 104.318 166.686C104.266 166.267 104.132 165.863 103.922 165.497C103.712 165.131 103.431 164.812 103.095 164.557Z" fill="white"/>
<path d="M89.7006 170.501C90.7927 169.145 93.5648 163.423 92.2055 162.335C90.8461 161.247 85.8823 165.185 84.7902 166.548C84.2677 167.201 84.0252 168.036 84.1162 168.868C84.2071 169.701 84.624 170.463 85.2752 170.987C85.9263 171.511 86.7584 171.754 87.5883 171.663C88.4183 171.572 89.1781 171.154 89.7006 170.501Z" fill="white"/>
<path d="M97.1314 151.144C96.047 152.508 93.2673 158.222 94.6266 159.317C95.9859 160.413 100.95 156.46 102.042 155.104C102.325 154.784 102.54 154.409 102.674 154.003C102.808 153.596 102.859 153.167 102.823 152.74C102.787 152.314 102.665 151.899 102.465 151.521C102.264 151.143 101.989 150.81 101.657 150.542C101.324 150.274 100.941 150.076 100.53 149.961C100.119 149.845 99.6886 149.815 99.2655 149.871C98.8424 149.928 98.4351 150.069 98.0683 150.288C97.7015 150.507 97.3828 150.798 97.1314 151.144Z" fill="white"/>
</g>
<path d="M89.7085 161.232C89.7897 161.966 90.0859 162.66 90.5598 163.225C91.0337 163.791 91.6641 164.203 92.3713 164.409C93.0784 164.616 93.8307 164.607 94.5331 164.385C95.2355 164.163 95.8566 163.737 96.3178 163.161C96.7791 162.585 97.0599 161.885 97.1247 161.149C97.1896 160.413 97.0356 159.675 96.6822 159.027C96.3289 158.378 95.792 157.85 95.1393 157.508C94.4866 157.165 93.7475 157.025 93.0152 157.103C92.5274 157.156 92.0548 157.304 91.6244 157.54C91.1941 157.776 90.8144 158.095 90.5072 158.479C90.2 158.863 89.9713 159.303 89.8342 159.776C89.6972 160.248 89.6544 160.743 89.7085 161.232Z" fill="#F3601E"/>
<path d="M90.1132 210.025C85.8137 210.117 78.4519 206.134 75.5576 202.243C72.6633 198.352 80.8575 200.711 80.0022 197.647C79.1469 194.583 68.9977 196.881 67.1114 192.423C65.2252 187.965 72.5564 188.984 72.2586 186.709C71.9608 184.434 64.3699 184.916 61.9185 180.198C59.4671 175.48 66.1569 178.099 65.103 176.146C64.0491 174.193 55.6564 165.958 59.154 164.227C62.6516 162.496 70.5174 171.067 73.1521 172.025C75.7867 172.982 76.3824 167.038 79.8036 169.865C83.2249 172.691 80.7124 185.116 84.7446 186.717C87.7458 187.927 86.4552 182.251 89.907 183.653C95.9247 186.157 91.8238 209.987 90.1132 210.025Z" fill="#F3601E"/>
<g opacity="0.2">
<path d="M90.1132 210.025C85.8137 210.117 78.4519 206.134 75.5576 202.243C72.6633 198.352 80.8575 200.711 80.0022 197.647C79.1469 194.583 68.9977 196.881 67.1114 192.423C65.2252 187.965 72.5564 188.984 72.2586 186.709C71.9608 184.434 64.3699 184.916 61.9185 180.198C59.4671 175.48 66.1569 178.099 65.103 176.146C64.0491 174.193 55.6564 165.958 59.154 164.227C62.6516 162.496 70.5174 171.067 73.1521 172.025C75.7867 172.982 76.3824 167.038 79.8036 169.865C83.2249 172.691 80.7124 185.116 84.7446 186.717C87.7458 187.927 86.4552 182.251 89.907 183.653C95.9247 186.157 91.8238 209.987 90.1132 210.025Z" fill="white"/>
</g>
<path d="M96.261 204.549C96.3297 204.671 95.6882 205.315 97.7883 205.368C103.019 205.583 112.298 205.23 115.742 200.458C120.706 193.649 109.266 194.277 110.396 190.5C111.527 186.724 123.799 189.811 126.197 184.449C128.595 179.087 119.652 180.137 120.087 177.371C120.523 174.606 129.878 178.191 132.971 172.5C136.063 166.808 127.869 169.857 129.152 167.498C130.435 165.139 140.913 155.349 136.697 153.159C132.482 150.968 122.714 161.217 119.492 162.35C116.269 163.484 115.521 153.404 111.29 156.766C107.059 160.129 109.831 175.288 104.89 177.172C101.21 178.574 103.218 173.135 98.6742 173.342C92.5113 173.595 90.48 194.859 96.261 204.549Z" fill="#F3601E"/>
<g opacity="0.3">
<path d="M96.261 204.549C96.3297 204.671 95.6882 205.315 97.7883 205.368C103.019 205.583 112.298 205.23 115.742 200.458C120.706 193.649 109.266 194.277 110.396 190.5C111.527 186.724 123.799 189.811 126.197 184.449C128.595 179.087 119.652 180.137 120.087 177.371C120.523 174.606 129.878 178.191 132.971 172.5C136.063 166.808 127.869 169.857 129.152 167.498C130.435 165.139 140.913 155.349 136.697 153.159C132.482 150.968 122.714 161.217 119.492 162.35C116.269 163.484 115.521 153.404 111.29 156.766C107.059 160.129 109.831 175.288 104.89 177.172C101.21 178.574 103.218 173.135 98.6742 173.342C92.5113 173.595 90.48 194.859 96.261 204.549Z" fill="white"/>
</g>
<path d="M92.3427 223.116C92.2978 223.111 92.2542 223.097 92.2146 223.075C92.1751 223.053 92.1404 223.023 92.1126 222.988C92.0848 222.952 92.0644 222.911 92.0528 222.867C92.0412 222.823 92.0385 222.778 92.0449 222.733C96.3367 187.497 116.582 173.158 116.788 173.02C116.824 172.995 116.866 172.977 116.909 172.968C116.952 172.959 116.997 172.959 117.041 172.967C117.084 172.975 117.126 172.992 117.163 173.016C117.2 173.04 117.232 173.072 117.257 173.108C117.283 173.145 117.3 173.186 117.309 173.23C117.318 173.273 117.319 173.318 117.311 173.362C117.303 173.406 117.286 173.448 117.262 173.485C117.238 173.522 117.206 173.554 117.17 173.579C116.971 173.725 96.9782 187.896 92.7322 222.817C92.7266 222.862 92.712 222.906 92.6893 222.946C92.6665 222.986 92.6362 223.02 92.5999 223.048C92.5637 223.076 92.5222 223.096 92.4781 223.108C92.4339 223.119 92.3879 223.122 92.3427 223.116Z" fill="#263238"/>
<path d="M112.145 177.916C112.076 177.914 112.01 177.891 111.955 177.85C111.9 177.809 111.86 177.751 111.839 177.686C111.81 177.599 111.816 177.505 111.856 177.423C111.896 177.341 111.967 177.279 112.053 177.249C112.183 177.211 115.199 176.253 120.133 177.303C120.221 177.323 120.298 177.376 120.347 177.452C120.397 177.528 120.416 177.62 120.4 177.709C120.382 177.798 120.329 177.876 120.253 177.927C120.177 177.977 120.084 177.995 119.995 177.977C115.245 176.966 112.297 177.893 112.267 177.9C112.228 177.913 112.186 177.919 112.145 177.916Z" fill="#263238"/>
<path d="M108.441 182.197C108.353 182.195 108.27 182.158 108.208 182.095C108.147 182.032 108.113 181.948 108.113 181.86C108.006 171.197 114.161 162.871 114.222 162.787C114.278 162.717 114.357 162.672 114.445 162.659C114.533 162.646 114.623 162.667 114.696 162.718C114.732 162.745 114.762 162.779 114.785 162.818C114.808 162.857 114.823 162.9 114.83 162.945C114.836 162.99 114.833 163.035 114.822 163.079C114.811 163.123 114.791 163.164 114.764 163.2C114.703 163.277 108.655 171.435 108.792 181.852C108.792 181.942 108.757 182.029 108.694 182.093C108.632 182.158 108.546 182.195 108.456 182.197H108.441Z" fill="#263238"/>
<path d="M102.378 191.221C102.334 191.22 102.291 191.21 102.252 191.191C102.212 191.173 102.177 191.146 102.149 191.113C102.116 191.082 102.091 191.044 102.074 191.003C102.056 190.962 102.047 190.917 102.047 190.872C102.047 190.827 102.056 190.783 102.074 190.741C102.091 190.7 102.116 190.662 102.149 190.631C102.194 190.592 106.731 186.364 112.718 188.509C112.792 188.547 112.849 188.611 112.88 188.689C112.91 188.766 112.912 188.853 112.884 188.931C112.856 189.01 112.8 189.076 112.728 189.116C112.655 189.157 112.57 189.17 112.489 189.152C106.914 187.146 102.66 191.09 102.622 191.129C102.59 191.16 102.551 191.184 102.509 191.2C102.467 191.216 102.422 191.223 102.378 191.221Z" fill="#263238"/>
<path d="M99.2238 197.517C99.1601 197.513 99.0987 197.491 99.0463 197.455C98.9938 197.418 98.9522 197.368 98.926 197.31C97.4164 193.074 97.0399 188.516 97.8339 184.089C97.8404 184.045 97.8557 184.002 97.8789 183.963C97.9021 183.925 97.9328 183.891 97.9691 183.865C98.0054 183.839 98.0466 183.82 98.0903 183.81C98.1339 183.799 98.1792 183.798 98.2234 183.806C98.3121 183.821 98.3914 183.87 98.4442 183.943C98.497 184.016 98.5192 184.107 98.506 184.196C97.7506 188.497 98.1109 192.921 99.5522 197.042C99.5699 197.083 99.5793 197.126 99.5801 197.171C99.5808 197.215 99.5728 197.259 99.5564 197.301C99.5401 197.342 99.5158 197.38 99.4849 197.411C99.4541 197.443 99.4172 197.469 99.3765 197.486C99.3284 197.507 99.2763 197.518 99.2238 197.517Z" fill="#263238"/>
<path d="M92.473 235.709C92.3879 235.705 92.3074 235.669 92.2478 235.608C92.1883 235.547 92.1541 235.465 92.1523 235.38L91.7093 226.042C90.4034 194.997 69.1811 173.886 68.9672 173.68C68.9165 173.614 68.891 173.532 68.8955 173.449C68.9001 173.367 68.9343 173.288 68.9918 173.228C69.0494 173.169 69.1266 173.132 69.209 173.125C69.2915 173.118 69.3738 173.141 69.4407 173.189C69.6545 173.404 91.0755 194.691 92.389 226.042L92.8319 235.38C92.834 235.47 92.8008 235.557 92.7394 235.623C92.678 235.689 92.5933 235.728 92.5035 235.732L92.473 235.709Z" fill="#263238"/>
<path d="M77.7189 185.33H77.6655C77.6293 185.327 77.5948 185.314 77.5662 185.292L77.4516 185.253C74.6906 184.096 71.7228 183.517 68.7305 183.553C68.6407 183.555 68.5536 183.522 68.4879 183.46C68.4222 183.399 68.3832 183.314 68.3792 183.224C68.3782 183.178 68.3861 183.133 68.4024 183.091C68.4188 183.049 68.4433 183.01 68.4745 182.978C68.5057 182.945 68.543 182.919 68.5843 182.9C68.6256 182.882 68.6701 182.872 68.7153 182.871C71.8085 182.835 74.8769 183.429 77.7342 184.618L77.8411 184.664H77.9022C77.9699 184.697 78.0243 184.752 78.0563 184.82C78.0883 184.888 78.0959 184.966 78.0778 185.039C78.0664 185.124 78.0228 185.202 77.9561 185.256C77.8893 185.31 77.8045 185.337 77.7189 185.33Z" fill="#263238"/>
<path d="M80.72 189.336C80.6754 189.333 80.6319 189.321 80.592 189.301C80.5522 189.281 80.5169 189.253 80.4883 189.218C80.4597 189.184 80.4384 189.144 80.4258 189.101C80.4131 189.058 80.4092 189.013 80.4145 188.968C81.2317 179.777 76.5045 172.262 76.4511 172.193C76.4078 172.116 76.3956 172.025 76.4172 171.94C76.4387 171.854 76.4923 171.78 76.5669 171.732C76.6414 171.685 76.7313 171.669 76.8177 171.686C76.9042 171.703 76.9807 171.753 77.0315 171.826C77.0773 171.902 81.9342 179.623 81.0866 189.03C81.0827 189.074 81.0702 189.117 81.0496 189.156C81.0291 189.196 81.001 189.231 80.9669 189.259C80.9328 189.288 80.8935 189.309 80.8511 189.322C80.8087 189.336 80.7641 189.34 80.72 189.336Z" fill="#263238"/>
<path d="M83.8208 194.645C83.7344 194.643 83.6521 194.607 83.5917 194.545C82.4559 193.514 81.0824 192.782 79.5947 192.416C78.107 192.05 76.5519 192.06 75.0692 192.446C74.9811 192.47 74.8873 192.457 74.8086 192.411C74.7298 192.365 74.6725 192.289 74.6492 192.201C74.6377 192.158 74.635 192.113 74.6411 192.068C74.6473 192.024 74.6621 191.981 74.6849 191.943C74.7076 191.904 74.7378 191.871 74.7736 191.844C74.8094 191.817 74.8502 191.798 74.8935 191.787C76.4899 191.359 78.1688 191.345 79.772 191.747C81.3752 192.149 82.85 192.954 84.0576 194.085C84.0897 194.117 84.1152 194.154 84.1326 194.196C84.15 194.237 84.159 194.282 84.159 194.327C84.159 194.372 84.15 194.416 84.1326 194.458C84.1152 194.499 84.0897 194.537 84.0576 194.568C84.0252 194.596 83.9876 194.617 83.9469 194.63C83.9063 194.643 83.8634 194.648 83.8208 194.645Z" fill="#263238"/>
<path d="M87.7534 203.393C87.7026 203.392 87.6528 203.379 87.6083 203.354C87.5683 203.334 87.5327 203.306 87.5037 203.272C87.4747 203.238 87.4528 203.198 87.4393 203.155C87.4257 203.112 87.4209 203.067 87.425 203.022C87.4291 202.978 87.4421 202.934 87.4632 202.895C89.0197 199.367 89.6481 195.498 89.2883 191.658C89.282 191.567 89.3112 191.478 89.3698 191.41C89.4284 191.341 89.5116 191.298 89.6014 191.29C89.6462 191.286 89.6913 191.291 89.7342 191.304C89.777 191.318 89.8167 191.34 89.8509 191.369C89.8851 191.399 89.9131 191.434 89.9332 191.475C89.9533 191.515 89.9651 191.559 89.968 191.604C90.3577 195.573 89.702 199.574 88.0665 203.209C88.0373 203.266 87.9923 203.314 87.9368 203.347C87.8813 203.379 87.8176 203.395 87.7534 203.393Z" fill="#263238"/>
<path d="M111.618 237.18C111.618 248.064 106.731 256.896 91.9462 256.896C77.8336 256.896 72.2817 248.064 72.2817 237.18C72.2789 233.226 73.4631 229.364 75.6801 226.096H108.22C110.437 229.364 111.621 233.226 111.618 237.18Z" fill="#F3601E"/>
<path opacity="0.7" d="M111.618 237.18C111.618 248.064 106.731 256.896 91.9462 256.896C77.8336 256.896 72.2817 248.064 72.2817 237.18C72.2789 233.226 73.4631 229.364 75.6801 226.096H108.22C110.437 229.364 111.621 233.226 111.618 237.18Z" fill="white"/>
<path d="M199.639 247.268L207.245 246.157L205.328 228.302L197.714 229.421L199.639 247.268Z" fill="#E8BFBF"/>
<path d="M213.094 246.425C213.754 246.374 214.377 246.105 214.866 245.659C214.968 245.529 215.038 245.376 215.068 245.213C215.099 245.05 215.09 244.883 215.042 244.724C215.019 244.626 214.973 244.536 214.906 244.461C214.839 244.386 214.754 244.329 214.66 244.295C213.644 243.928 210.842 245.988 210.551 246.218C210.52 246.241 210.497 246.274 210.485 246.311C210.473 246.347 210.472 246.387 210.483 246.425C210.495 246.459 210.518 246.488 210.548 246.509C210.579 246.53 210.614 246.54 210.651 246.54C211.467 246.574 212.285 246.536 213.094 246.425ZM214.164 244.632C214.277 244.606 214.394 244.606 214.507 244.632C214.547 244.645 214.583 244.668 214.611 244.699C214.639 244.73 214.659 244.768 214.668 244.808C214.699 244.914 214.705 245.025 214.685 245.133C214.665 245.241 214.62 245.342 214.553 245.429C214.164 245.911 212.919 246.195 211.193 246.195C212.097 245.517 213.109 244.999 214.187 244.663L214.164 244.632Z" fill="#37474F"/>
<path d="M210.697 246.548H210.758C211.605 245.989 213.125 244.043 212.835 243.208C212.775 243.061 212.666 242.94 212.527 242.866C212.387 242.791 212.226 242.769 212.071 242.802C211.889 242.807 211.709 242.85 211.543 242.928C211.378 243.006 211.23 243.117 211.109 243.254C210.292 244.204 210.452 246.318 210.452 246.379C210.453 246.41 210.46 246.44 210.473 246.468C210.486 246.496 210.505 246.52 210.529 246.54C210.554 246.553 210.583 246.561 210.612 246.562C210.641 246.563 210.67 246.558 210.697 246.548ZM211.972 243.162L212.079 243.108C212.415 243.108 212.453 243.223 212.461 243.262C212.644 243.775 211.628 245.269 210.788 245.958C210.712 245.077 210.918 244.194 211.376 243.438C211.538 243.27 211.755 243.169 211.987 243.154L211.972 243.162Z" fill="#37474F"/>
<path d="M206.436 242.994L199.692 244.61C199.546 244.64 199.416 244.722 199.327 244.843C199.238 244.963 199.197 245.112 199.211 245.261L199.433 255.058C199.455 255.22 199.509 255.377 199.592 255.518C199.675 255.66 199.785 255.783 199.915 255.882C200.046 255.981 200.194 256.053 200.353 256.095C200.511 256.136 200.676 256.145 200.838 256.123C200.886 256.127 200.935 256.127 200.983 256.123C203.9 255.357 205.282 254.897 208.994 254.032C211.285 253.511 218.486 252.959 221.442 251.642C224.397 250.324 223.244 247.321 221.9 247.605C217.562 248.539 211.972 246.678 208.834 243.844C208.436 243.606 206.932 242.879 206.436 242.994Z" fill="#263238"/>
<path opacity="0.2" d="M205.328 228.302L206.313 237.509L198.707 238.628L197.714 229.428L205.328 228.302Z" fill="black"/>
<path d="M209.391 233.726L195.316 236.361C195.316 236.361 188.482 226.571 187.191 219.624C185.847 212.385 187.283 187.751 187.191 187.452C183.212 173.971 172.391 139.042 167.175 126.174C164.281 119.05 162.25 114.255 162.25 114.255L163.708 113.926L175.201 109.207L183.602 110.785C183.602 110.785 209.04 162.389 211.705 181.799C213.667 196.277 209.391 233.726 209.391 233.726Z" fill="#455A64"/>
<path d="M183.876 175.748C179.898 162.267 171.864 141.823 166.64 128.969L163.181 116.714L162.517 114.354L163.731 116.584L177.362 146.871C183.38 158.521 183.968 176.078 183.876 175.748Z" fill="#263238"/>
<path d="M122.103 243.062L128.885 245.927L136.117 230.362L129.343 227.498L122.103 243.062Z" fill="#E8BFBF"/>
<path d="M133.298 249.191C133.836 249.528 134.471 249.671 135.101 249.597C135.254 249.556 135.395 249.478 135.51 249.37C135.626 249.262 135.714 249.126 135.765 248.976C135.804 248.889 135.82 248.792 135.81 248.697C135.801 248.602 135.767 248.51 135.712 248.432C135.131 247.574 131.825 247.582 131.458 247.582C131.422 247.586 131.387 247.599 131.358 247.621C131.328 247.642 131.305 247.671 131.29 247.705C131.281 247.739 131.281 247.775 131.292 247.809C131.303 247.843 131.323 247.874 131.351 247.896C131.959 248.387 132.611 248.82 133.298 249.191ZM135.131 248.425C135.237 248.469 135.329 248.54 135.399 248.631C135.417 248.665 135.427 248.704 135.427 248.743C135.427 248.781 135.417 248.82 135.399 248.854C135.363 248.952 135.305 249.04 135.229 249.112C135.154 249.184 135.063 249.237 134.963 249.267C134.383 249.42 133.276 248.93 131.909 247.95C132.997 247.925 134.082 248.088 135.116 248.432L135.131 248.425Z" fill="#37474F"/>
<path d="M131.382 247.927H131.443C132.413 247.981 134.681 247.337 134.933 246.533C134.974 246.383 134.96 246.224 134.894 246.083C134.828 245.943 134.715 245.831 134.574 245.767C134.431 245.667 134.269 245.598 134.098 245.565C133.927 245.532 133.751 245.535 133.581 245.575C132.405 245.836 131.359 247.544 131.29 247.613C131.277 247.639 131.271 247.668 131.271 247.697C131.271 247.726 131.277 247.755 131.29 247.781C131.292 247.812 131.301 247.841 131.317 247.866C131.333 247.892 131.355 247.913 131.382 247.927ZM134.276 246.035H134.383C134.65 246.211 134.604 246.334 134.589 246.372C134.444 246.862 132.825 247.444 131.786 247.506C132.22 246.781 132.873 246.215 133.65 245.889C133.872 245.851 134.101 245.898 134.291 246.02L134.276 246.035Z" fill="#37474F"/>
<path d="M130.114 242.779L124.005 240.206C123.872 240.139 123.719 240.125 123.577 240.168C123.435 240.211 123.315 240.306 123.241 240.435L117.896 248.095C117.82 248.233 117.773 248.385 117.757 248.542C117.74 248.698 117.755 248.857 117.8 249.007C117.844 249.158 117.918 249.299 118.017 249.421C118.116 249.543 118.238 249.644 118.377 249.719L118.506 249.78C121.172 250.876 122.516 251.274 125.868 252.714C127.922 253.603 133.803 257.272 136.827 257.923C139.851 258.574 140.645 255.625 139.454 255.066C135.582 253.327 132.329 248.731 131.481 244.755C131.29 244.372 130.542 242.955 130.114 242.779Z" fill="#263238"/>
<path opacity="0.2" d="M136.414 230.538L132.497 238.474L125.784 235.456L129.694 227.521L136.414 230.538Z" fill="black"/>
<path d="M137.827 239.187L124.326 231.971C124.326 231.971 121.737 222.327 124.326 216.176C129.305 204.342 142.272 186.939 142.356 186.609C145.815 172.99 151.879 135.679 153.956 121.96C155.102 114.354 155.781 112.715 155.781 112.715L157.209 113.182L177.828 113.22C177.828 113.22 181.723 144.626 166.786 193.189C163.074 205.276 156.858 215.326 146.602 228.922C143.856 232.494 140.927 235.92 137.827 239.187Z" fill="#455A64"/>
<path d="M196.172 87.5822C196.484 85.093 197.535 82.7553 199.188 80.8722C199.608 80.4279 201.219 79.7538 202.136 79.1564C206.619 76.2073 215.599 72.5229 215.599 72.5229L218.372 74.9435C218.372 74.9435 212.904 80.2441 209.65 82.7872C209.009 83.2927 208.268 83.8978 207.489 84.5413C206.069 85.7209 199.41 90.1253 198.142 91.236L196.172 87.5822Z" fill="#E8BFBF"/>
<path d="M223.496 71.1526L218.372 74.9825L215.5 72.8607C216.238 71.9249 217.031 71.0348 217.875 70.1951C218.135 69.9422 218.342 69.6399 218.483 69.3058C218.625 68.9717 218.699 68.6126 218.7 68.2495C218.642 67.0649 218.906 65.8868 219.464 64.8409C219.462 64.8205 219.462 64.8 219.464 64.7796C219.725 64.4109 220.085 64.1245 220.503 63.9537C220.92 63.7829 221.378 63.7349 221.822 63.8152C222.265 63.8956 222.677 64.101 223.009 64.4074C223.34 64.7138 223.578 65.1086 223.694 65.5456L224.458 68.2878C224.598 68.8072 224.582 69.3567 224.41 69.8667C224.239 70.3767 223.921 70.8242 223.496 71.1526Z" fill="#E8BFBF"/>
<path d="M197.806 88.6091L196.454 89.85C196.034 89.513 195.369 88.9691 194.529 88.2644C187.947 82.7876 171.444 69.4901 178.019 65.6985C183.662 62.4431 189.65 72.3932 192.636 75.3882C194.037 76.8873 195.253 78.5514 196.255 80.3441C197.66 82.8872 198.699 85.9588 197.806 88.6091Z" fill="#263238"/>
<path d="M196.248 79.1567C193.906 80.8755 191.926 83.0413 190.421 85.5297C190.973 87.3398 191.904 89.0105 193.153 90.4295C194.401 91.8485 195.939 92.9829 197.661 93.7564C199.575 89.4029 200.395 84.6452 200.051 79.8997C198.86 79.624 197.439 79.4172 196.248 79.1567Z" fill="#93B9DD"/>
<path d="M160.012 64.9251C157.652 65.691 154.956 65.0706 153.444 67.0392C151.932 69.0078 151.481 71.5891 151.481 74.0709C151.621 77.523 152.148 80.9483 153.055 84.2815C154.002 88.3667 154.951 92.4392 155.903 96.4989C156.552 99.2871 155.865 112.24 156.56 112.454C156.56 112.454 178.149 112.033 183.563 111.267C183.563 111.267 184.029 97.9543 184.464 93.4197C184.564 92.4162 186.083 88.1421 186.259 87.0697C187.107 82.0142 185.449 78.4523 183.708 73.6266C183.708 73.6266 179.89 65.9132 178.019 65.6987C174.697 65.3234 166.572 62.7726 160.012 64.9251Z" fill="#9BC3E9"/>
<path d="M159.088 71.3054C159.011 70.8611 155.178 63.094 151.504 68.5249C146.395 76.0775 146.052 85.5604 146.052 85.5604C146.052 85.5604 142.913 94.7522 145.097 96.7897C147.281 98.8272 149.679 100.099 151.206 98.9575C152.284 98.0133 153.144 96.8449 153.727 95.5335C153.727 95.5335 160.447 79.2104 159.088 71.3054Z" fill="#9BC3E9"/>
<path d="M158.851 62.0449C158.479 62.3811 158.188 62.7984 158.001 63.2647C157.814 63.7311 157.736 64.2342 157.773 64.7354C157.81 65.2367 157.96 65.7229 158.213 66.1567C158.467 66.5905 158.815 66.9605 159.233 67.2383C159.009 68.0259 159.011 68.8609 159.239 69.6473C159.467 70.4337 159.912 71.1396 160.522 71.6837C161.133 72.2278 161.884 72.5881 162.689 72.7232C163.494 72.8582 164.321 72.7624 165.075 72.447C164.434 73.6113 165.159 75.1509 166.282 75.8709C167.466 76.4851 168.768 76.8352 170.1 76.8973C171.437 76.9612 172.72 77.4463 173.766 78.2838L177.844 72.3933C178.443 71.6734 178.831 70.8011 178.966 69.8732C179.004 68.9464 178.302 67.92 177.378 67.9889C177.841 67.4875 178.099 66.8295 178.1 66.146C178.102 65.4624 177.846 64.8034 177.385 64.3002C176.924 63.7969 176.29 63.4864 175.611 63.4305C174.932 63.3745 174.257 63.5772 173.72 63.9981C173.785 63.5964 173.732 63.1843 173.566 62.8126C173.401 62.441 173.13 62.1262 172.788 61.907C172.094 61.4871 171.307 61.2476 170.497 61.21L158.851 62.0449Z" fill="#263238"/>
<path d="M161.302 52.0488C162.364 55.9554 163.654 63.1633 161.081 66.0127C165.797 68.0547 170.042 71.0509 173.551 74.8139C174.478 73.9589 175.114 72.8335 175.369 71.5965C175.624 70.3596 175.485 69.0735 174.972 67.92C174.672 67.1875 174.228 66.5231 173.666 65.9665C173.105 65.4098 172.437 64.9722 171.703 64.6799C168.862 63.4697 168.839 60.6738 169.313 57.9852L161.302 52.0488Z" fill="#E8BFBF"/>
<path opacity="0.2" d="M162.906 58.7051L165.586 59.4328C166.736 59.746 167.937 59.8164 169.115 59.6396C169.016 60.4678 169.102 61.3077 169.367 62.0984C168.469 62.4459 167.491 62.5244 166.55 62.3245C165.609 62.1246 164.746 61.6549 164.067 60.9724C163.571 60.2779 163.18 59.5139 162.906 58.7051Z" fill="black"/>
<path d="M156.101 48.7163C158.935 54.7217 160.011 57.326 164.38 59.241C170.962 62.1287 177.683 57.303 176.69 50.57C175.789 44.5111 171.298 35.6946 164.311 35.664C162.773 35.6496 161.256 36.0296 159.905 36.7678C158.554 37.506 157.414 38.5779 156.591 39.8821C155.769 41.1863 155.293 42.6794 155.207 44.2201C155.121 45.7607 155.429 47.2978 156.101 48.6857V48.7163Z" fill="#E8BFBF"/>
<path d="M159.217 37.2421C157.148 36.2769 154.582 37.0659 152.856 38.5826C151.13 40.0992 150.038 42.2899 149.038 44.3964C148.435 45.517 147.973 46.7083 147.663 47.9429C147.354 49.1921 147.523 50.5121 148.137 51.6426C148.464 52.1708 148.911 52.6135 149.442 52.9345C149.973 53.2554 150.573 53.4453 151.191 53.4886C151.572 53.5121 151.939 53.6394 152.252 53.8568C152.566 54.0741 152.814 54.3732 152.971 54.7219C153.127 55.3661 153.127 56.0386 152.971 56.6828C152.825 57.3076 152.825 57.9576 152.971 58.5824C153.179 59.0738 153.52 59.4966 153.957 59.8027C154.393 60.1087 154.906 60.2857 155.437 60.3135C156.501 60.3431 157.56 60.1716 158.561 59.808C158.865 59.7036 159.192 59.6827 159.508 59.7473C159.823 59.8119 160.116 59.9598 160.355 60.1757C160.478 60.2884 160.581 60.4203 160.661 60.5663C160.739 60.6992 160.852 60.8079 160.987 60.8802C161.123 60.9526 161.276 60.9859 161.43 60.9764C161.583 60.9668 161.731 60.9149 161.857 60.8263C161.982 60.7377 162.081 60.6159 162.142 60.4744C163.066 58.2684 161.722 54.7525 159.721 52.0486C158.66 50.6238 158.713 50.9839 158.301 49.2527C157.95 47.8127 158.477 46.3113 159.118 44.9785C159.981 43.1938 161.081 41.4627 160.737 39.3332C160.672 38.887 160.5 38.4633 160.235 38.0989C159.971 37.7345 159.621 37.4404 159.217 37.2421Z" fill="#263238"/>
<path d="M156.277 54.8673C157.22 55.8711 158.522 56.4579 159.897 56.4988C161.722 56.5448 162.188 54.7984 161.302 53.3047C160.538 51.9642 158.599 50.3327 156.949 51.0067C155.3 51.6808 155.132 53.5804 156.277 54.8673Z" fill="#E8BFBF"/>
<path d="M167.488 47.6513C167.702 48.1722 168.122 48.4556 168.45 48.3177C168.779 48.1798 168.863 47.682 168.679 47.1687C168.496 46.6555 168.053 46.4028 167.717 46.5023C167.381 46.6019 167.312 47.1458 167.488 47.6513Z" fill="#263238"/>
<path d="M173.101 45.2311C173.307 45.7596 173.727 46.0353 174.055 45.9051C174.384 45.7749 174.468 45.2693 174.284 44.7561C174.101 44.2429 173.658 43.9902 173.33 44.0897C173.001 44.1893 172.902 44.7332 173.101 45.2311Z" fill="#263238"/>
<path d="M173.185 44.1816L174.246 43.3467C174.246 43.3467 174.017 44.534 173.185 44.1816Z" fill="#263238"/>
<path d="M171.65 46.3569C172.948 47.6438 173.941 47.8889 175.331 48.7621C175.317 49.1138 175.192 49.452 174.973 49.7275C174.755 50.003 174.455 50.2015 174.116 50.2941L171.65 46.3569Z" fill="#ED847E"/>
<path d="M173.521 52.753C173.764 52.6636 173.999 52.5534 174.224 52.4237C174.259 52.4042 174.285 52.3716 174.297 52.3329C174.308 52.2941 174.304 52.2524 174.285 52.2168C174.263 52.1822 174.229 52.1569 174.189 52.1456C174.15 52.1344 174.108 52.1379 174.071 52.1556C173.487 52.4959 172.83 52.6916 172.155 52.7262C171.48 52.7609 170.807 52.6335 170.191 52.3547C170.154 52.3358 170.11 52.3325 170.07 52.3454C170.03 52.3583 169.997 52.3864 169.978 52.4237C169.967 52.4416 169.96 52.4616 169.957 52.4823C169.955 52.503 169.956 52.524 169.962 52.5441C169.968 52.5642 169.977 52.5829 169.991 52.5991C170.004 52.6153 170.02 52.6285 170.039 52.6381C170.582 52.8895 171.17 53.0291 171.768 53.0488C172.366 53.0686 172.962 52.968 173.521 52.753Z" fill="#263238"/>
<path d="M167.305 43.4773C167.301 43.5475 167.275 43.6149 167.232 43.6698C167.188 43.7248 167.128 43.7646 167.06 43.7837C165.594 44.2203 164.945 46.0816 164.945 46.0816C164.931 46.1229 164.91 46.161 164.882 46.1939C164.853 46.2268 164.819 46.2538 164.78 46.2734C164.742 46.293 164.7 46.3047 164.656 46.3079C164.613 46.3112 164.57 46.3058 164.529 46.2923C164.488 46.2787 164.45 46.2571 164.417 46.2288C164.384 46.2005 164.357 46.1659 164.338 46.1272C164.318 46.0884 164.306 46.0462 164.303 46.0029C164.3 45.9596 164.305 45.916 164.319 45.8748C164.372 45.7982 165.082 43.6611 166.869 43.1249C166.954 43.1032 167.044 43.1149 167.121 43.1576C167.198 43.2004 167.255 43.2709 167.282 43.3547C167.3 43.3929 167.308 43.4351 167.305 43.4773Z" fill="#263238"/>
<path d="M174.063 42.5728C174.006 42.6133 173.938 42.6351 173.868 42.6351C173.799 42.6351 173.731 42.6133 173.674 42.5728C172.482 41.6076 170.581 42.1362 170.573 42.1438C170.532 42.1568 170.488 42.1612 170.444 42.157C170.401 42.1529 170.359 42.1401 170.321 42.1194C170.282 42.0987 170.248 42.0706 170.221 42.0366C170.193 42.0027 170.173 41.9636 170.161 41.9217C170.137 41.8374 170.147 41.747 170.188 41.6698C170.229 41.5926 170.299 41.5346 170.382 41.508C170.474 41.508 172.673 40.8799 174.086 42.0442C174.152 42.1009 174.195 42.1806 174.205 42.2673C174.215 42.354 174.191 42.4413 174.14 42.5115C174.118 42.5363 174.092 42.5571 174.063 42.5728Z" fill="#263238"/>
<path d="M167.61 46.587L168.671 45.7598C168.671 45.7598 168.427 46.947 167.61 46.587Z" fill="#263238"/>
<path d="M159.676 36.2388C158.84 36.3126 158.032 36.5757 157.312 37.0083C156.593 37.4408 155.98 38.0315 155.521 38.7359C154.91 39.6857 154.696 41.1258 155.598 41.7998C156.057 42.0811 156.586 42.2271 157.125 42.2211C159.416 42.4279 162.31 40.6279 162.31 40.6279C161.417 36.798 169.382 33.8719 173.307 39.77C174.46 41.5011 174.147 42.7573 176.064 43.5616C176.965 43.9369 178.156 43.8297 178.737 44.6263C179.691 45.9362 177.851 48.1575 179.019 49.2835C179.821 50.0495 181.639 49.7584 181.753 50.8691C181.799 51.39 181.463 52.1406 181.959 52.2938C182.234 52.3781 182.494 52.1253 182.67 51.8955C183.147 51.3814 183.497 50.7623 183.693 50.0878C183.786 49.7506 183.766 49.392 183.634 49.0678C183.503 48.7436 183.269 48.472 182.967 48.2954C182.479 48.0733 181.188 48.2954 181.272 48.8469C181.074 47.6321 181.01 46.3991 181.081 45.1702C181.295 44.1438 182.273 43.2476 181.975 42.2365C181.677 41.2254 180.386 40.7045 179.279 40.5666C178.172 40.4287 176.912 40.2679 176.224 39.3793C175.537 38.4908 175.812 36.9588 175.568 35.7256C175.363 34.9548 174.98 34.2435 174.449 33.6498C173.918 33.056 173.255 32.5967 172.513 32.3093C168.045 30.3867 161.195 30.6624 159.676 36.2388Z" fill="#263238"/>
<path d="M172.253 56.6442L156.98 64.3423C154.552 65.5628 152.667 67.6512 151.697 70.1961C150.728 72.741 150.743 75.5578 151.741 78.0917L159.088 96.935C160.079 99.4666 161.976 101.536 164.408 102.739C166.84 103.942 169.632 104.191 172.238 103.438L188.657 98.6891C190.113 98.2702 191.466 97.5509 192.628 96.5771C193.791 95.6034 194.738 94.3967 195.409 93.0345C196.08 91.6723 196.46 90.1845 196.524 88.6666C196.588 87.1486 196.335 85.6339 195.782 84.2196L187.267 62.4503C186.718 61.0344 185.881 59.7489 184.808 58.6761C183.736 57.6034 182.452 56.767 181.039 56.2205C179.626 55.674 178.114 55.4294 176.602 55.5023C175.089 55.5753 173.608 55.9642 172.253 56.6442ZM169.726 88.9994C168.506 89.4788 167.172 89.5848 165.893 89.3038C164.614 89.0229 163.446 88.3676 162.538 87.4209C161.63 86.4743 161.022 85.2787 160.791 83.9855C160.561 82.6924 160.718 81.3596 161.243 80.156C161.767 78.9523 162.636 77.9317 163.739 77.2234C164.842 76.515 166.13 76.1508 167.439 76.1766C168.749 76.2024 170.021 76.6173 171.096 77.3686C172.17 78.1199 172.998 79.1739 173.475 80.3974C173.796 81.2109 173.954 82.0801 173.94 82.955C173.925 83.8299 173.738 84.6933 173.389 85.4955C173.041 86.2977 172.538 87.0229 171.909 87.6295C171.28 88.236 170.538 88.712 169.726 89.03V88.9994Z" fill="#37474F"/>
<path d="M172.253 56.6442L156.98 64.3423C154.552 65.5628 152.667 67.6512 151.697 70.1961C150.728 72.741 150.743 75.5578 151.741 78.0917L159.088 96.935C160.079 99.4666 161.976 101.536 164.408 102.739C166.84 103.942 169.632 104.191 172.238 103.438L188.657 98.6891C190.113 98.2702 191.466 97.5509 192.628 96.5771C193.791 95.6034 194.738 94.3967 195.409 93.0345C196.08 91.6723 196.46 90.1845 196.524 88.6666C196.588 87.1486 196.335 85.6339 195.782 84.2196L187.267 62.4503C186.718 61.0344 185.881 59.7489 184.808 58.6761C183.736 57.6034 182.452 56.767 181.039 56.2205C179.626 55.674 178.114 55.4294 176.602 55.5023C175.089 55.5753 173.608 55.9642 172.253 56.6442ZM169.726 88.9994C168.506 89.4788 167.172 89.5848 165.893 89.3038C164.614 89.0229 163.446 88.3676 162.538 87.4209C161.63 86.4743 161.022 85.2787 160.791 83.9855C160.561 82.6924 160.718 81.3596 161.243 80.156C161.767 78.9523 162.636 77.9317 163.739 77.2234C164.842 76.515 166.13 76.1508 167.439 76.1766C168.749 76.2024 170.021 76.6173 171.096 77.3686C172.17 78.1199 172.998 79.1739 173.475 80.3974C173.796 81.2109 173.954 82.0801 173.94 82.955C173.925 83.8299 173.738 84.6933 173.389 85.4955C173.041 86.2977 172.538 87.0229 171.909 87.6295C171.28 88.236 170.538 88.712 169.726 89.03V88.9994Z" fill="#37474F"/>
<path opacity="0.1" d="M195.782 84.2196L187.267 62.4503C186.718 61.0344 185.881 59.7489 184.809 58.6761C183.736 57.6034 182.452 56.767 181.039 56.2205C179.626 55.674 178.114 55.4294 176.602 55.5023C175.089 55.5753 173.608 55.9642 172.253 56.6442L167.816 58.9421L164.838 60.4741L156.988 64.4342C154.579 65.6519 152.709 67.7242 151.739 70.2484C150.77 72.7725 150.77 75.5681 151.741 78.0917L159.088 96.935C160.079 99.4666 161.976 101.536 164.408 102.739C166.84 103.942 169.632 104.191 172.238 103.438L188.665 98.6891C189.965 98.3131 191.182 97.6946 192.254 96.866C193.059 96.2578 193.772 95.5353 194.369 94.7213C195.478 93.2369 196.19 91.4927 196.437 89.6547C196.684 87.8166 196.459 85.9457 195.782 84.2196ZM169.726 89.0147C168.507 89.4921 167.174 89.5967 165.896 89.3151C164.618 89.0335 163.452 88.3784 162.545 87.4325C161.638 86.4866 161.031 85.2924 160.8 84.0005C160.569 82.7087 160.725 81.3772 161.248 80.1742C161.771 78.9711 162.637 77.9505 163.738 77.2412C164.839 76.5318 166.125 76.1655 167.433 76.1886C168.742 76.2117 170.014 76.623 171.089 77.3707C172.164 78.1184 172.995 79.169 173.475 80.3897C173.798 81.2037 173.956 82.0736 173.942 82.9493C173.928 83.8251 173.741 84.6894 173.393 85.4925C173.044 86.2956 172.541 87.0216 171.912 87.6287C171.282 88.2358 170.539 88.7121 169.726 89.03V89.0147Z" fill="white"/>
<path d="M172.406 58.1153L158.087 65.3309C155.816 66.4749 154.052 68.4287 153.142 70.8093C152.233 73.1899 152.242 75.8255 153.169 78.1994L160.081 95.863C161.004 98.243 162.781 100.191 165.063 101.325C167.345 102.458 169.967 102.696 172.414 101.991L187.809 97.5329C189.172 97.1386 190.438 96.4634 191.526 95.5504C192.614 94.6374 193.501 93.5068 194.128 92.2307C194.755 90.9546 195.111 89.5612 195.171 88.1397C195.231 86.7181 194.994 85.2996 194.476 83.9749L186.496 63.5385C185.979 62.2117 185.191 61.0077 184.184 60.0035C183.176 58.9994 181.971 58.2171 180.645 57.7067C179.319 57.1963 177.901 56.969 176.483 57.0394C175.064 57.1097 173.676 57.4762 172.406 58.1153ZM161.142 85.2695C160.665 84.0466 160.56 82.7092 160.84 81.4263C161.12 80.1435 161.773 78.9729 162.717 78.0623C163.661 77.1518 164.852 76.5424 166.141 76.311C167.43 76.0796 168.758 76.2367 169.958 76.7624C171.158 77.2881 172.175 78.1589 172.882 79.2645C173.588 80.3702 173.952 81.6611 173.927 82.9742C173.902 84.2872 173.49 85.5634 172.742 86.6414C171.994 87.7194 170.945 88.5508 169.726 89.0304C168.916 89.3502 168.051 89.5065 167.181 89.4904C166.311 89.4744 165.453 89.2863 164.656 88.9369C163.858 88.5875 163.137 88.0837 162.535 87.4544C161.932 86.825 161.458 86.0825 161.142 85.2695Z" fill="#37474F"/>
<path opacity="0.1" d="M172.406 58.1153L158.087 65.3309C155.816 66.4749 154.052 68.4287 153.142 70.8093C152.233 73.1899 152.242 75.8255 153.169 78.1994L160.081 95.863C161.004 98.243 162.781 100.191 165.063 101.325C167.345 102.458 169.967 102.696 172.414 101.991L187.809 97.5329C189.172 97.1386 190.438 96.4634 191.526 95.5504C192.614 94.6374 193.501 93.5068 194.128 92.2307C194.755 90.9546 195.111 89.5612 195.171 88.1397C195.231 86.7181 194.994 85.2996 194.476 83.9749L186.496 63.5385C185.979 62.2117 185.191 61.0077 184.184 60.0035C183.176 58.9994 181.971 58.2171 180.645 57.7067C179.319 57.1963 177.901 56.969 176.483 57.0394C175.064 57.1097 173.676 57.4762 172.406 58.1153ZM161.142 85.2695C160.665 84.0466 160.56 82.7092 160.84 81.4263C161.12 80.1435 161.773 78.9729 162.717 78.0623C163.661 77.1518 164.852 76.5424 166.141 76.311C167.43 76.0796 168.758 76.2367 169.958 76.7624C171.158 77.2881 172.175 78.1589 172.882 79.2645C173.588 80.3702 173.952 81.6611 173.927 82.9742C173.902 84.2872 173.49 85.5634 172.742 86.6414C171.994 87.7194 170.945 88.5508 169.726 89.0304C168.916 89.3502 168.051 89.5065 167.181 89.4904C166.311 89.4744 165.453 89.2863 164.656 88.9369C163.858 88.5875 163.137 88.0837 162.535 87.4544C161.932 86.825 161.458 86.0825 161.142 85.2695Z" fill="#37474F"/>
<path d="M243.565 51.2826L243.129 52.0486L242.885 52.4929L242.19 53.7567L242.48 56.9969C242.496 57.1339 242.48 57.2727 242.435 57.4028C242.387 57.5438 242.31 57.6728 242.209 57.7812C242.107 57.8896 241.984 57.9748 241.846 58.0309L235.813 60.3978C235.676 60.4529 235.527 60.476 235.379 60.4654C235.231 60.4548 235.087 60.4108 234.958 60.3366C234.873 60.2937 234.795 60.2367 234.729 60.168L231.315 56.6828L226.459 58.5901L227.161 60.3902L222.312 62.2898L223.465 65.2542L219.899 66.6559C219.756 66.7113 219.603 66.7359 219.451 66.728C219.298 66.72 219.149 66.6798 219.013 66.61C218.92 66.5655 218.835 66.506 218.761 66.4338L216.706 64.4958L211.85 66.3955L213.01 69.3599L207.909 71.3667L209.07 74.3388C209.115 74.4544 209.138 74.5779 209.136 74.7023C209.133 74.8266 209.107 74.9493 209.057 75.0632C209.007 75.1771 208.936 75.2801 208.846 75.3661C208.756 75.4521 208.651 75.5195 208.535 75.5643L194.568 81.0488L188.504 65.5376L239.044 45.6909L239.807 46.0969L242.366 47.4221C242.703 47.59 243.003 47.8249 243.248 48.1124C243.492 48.4 243.676 48.7343 243.788 49.0951C243.9 49.456 243.938 49.8359 243.9 50.2119C243.862 50.5878 243.747 50.9521 243.565 51.2826Z" fill="#37474F"/>
<g opacity="0.1">
<path d="M243.565 51.2826L243.129 52.0486L242.885 52.4929L242.19 53.7567L242.48 56.9969C242.496 57.1339 242.48 57.2727 242.435 57.4028C242.387 57.5438 242.31 57.6728 242.209 57.7812C242.107 57.8896 241.984 57.9748 241.846 58.0309L235.813 60.3978C235.676 60.4529 235.527 60.476 235.379 60.4654C235.231 60.4548 235.087 60.4108 234.958 60.3366C234.873 60.2937 234.795 60.2367 234.729 60.168L231.315 56.6828L226.459 58.5901L227.161 60.3902L222.312 62.2898L223.465 65.2542L219.899 66.6559C219.756 66.7113 219.603 66.7359 219.451 66.728C219.298 66.72 219.149 66.6798 219.013 66.61C218.92 66.5655 218.835 66.506 218.761 66.4338L216.706 64.4958L211.85 66.3955L213.01 69.3599L207.909 71.3667L209.07 74.3388C209.115 74.4544 209.138 74.5779 209.136 74.7023C209.133 74.8266 209.107 74.9493 209.057 75.0632C209.007 75.1771 208.936 75.2801 208.846 75.3661C208.756 75.4521 208.651 75.5195 208.535 75.5643L194.568 81.0488L188.504 65.5376L239.044 45.6909L239.807 46.0969L242.366 47.4221C242.703 47.59 243.003 47.8249 243.248 48.1124C243.492 48.4 243.676 48.7343 243.788 49.0951C243.9 49.456 243.938 49.8359 243.9 50.2119C243.862 50.5878 243.747 50.9521 243.565 51.2826Z" fill="white"/>
</g>
<path d="M243.366 49.536L189.329 70.7538L187.756 66.7707L239.273 46.541L241.839 47.8585C242.816 48.3641 243.374 48.8313 243.366 49.536Z" fill="#37474F"/>
<path opacity="0.1" d="M243.366 49.536L189.329 70.7538L187.756 66.7707L239.273 46.541L241.839 47.8585C242.816 48.3641 243.374 48.8313 243.366 49.536Z" fill="black"/>
<path d="M242.328 52.5233L241.809 53.7029C241.804 53.7231 241.804 53.744 241.809 53.7642L242.106 56.966C242.126 57.0801 242.126 57.1966 242.106 57.3107C242.101 57.3299 242.092 57.3476 242.079 57.3623C242.065 57.377 242.049 57.3882 242.03 57.395L235.47 59.984C235.454 59.9934 235.435 59.9984 235.417 59.9984C235.398 59.9984 235.379 59.9934 235.363 59.984C235.298 59.9446 235.238 59.8955 235.188 59.8385L231.43 56.0545C231.411 56.0413 231.389 56.0343 231.365 56.0343C231.342 56.0343 231.32 56.0413 231.3 56.0545L225.955 58.1533C225.925 58.1668 225.902 58.1907 225.889 58.2204C225.877 58.2502 225.875 58.2836 225.886 58.3141L226.52 59.9304C226.526 59.9454 226.529 59.9616 226.529 59.9779C226.529 59.9942 226.526 60.0103 226.519 60.0253C226.513 60.0403 226.503 60.0538 226.492 60.0651C226.48 60.0765 226.466 60.0853 226.451 60.0912L221.907 61.8836C221.892 61.8895 221.878 61.8984 221.867 61.9098C221.855 61.9211 221.846 61.9346 221.839 61.9496C221.833 61.9646 221.829 61.9807 221.829 61.997C221.829 62.0133 221.832 62.0294 221.839 62.0445L222.931 64.825C222.938 64.8399 222.942 64.8563 222.943 64.8729C222.943 64.8895 222.94 64.9061 222.933 64.9214C222.927 64.9367 222.917 64.9504 222.905 64.9615C222.892 64.9726 222.878 64.981 222.862 64.9859L219.532 66.3034C219.516 66.3128 219.498 66.3177 219.479 66.3177C219.46 66.3177 219.442 66.3128 219.425 66.3034C219.356 66.2636 219.291 66.2147 219.234 66.1578L216.791 63.9058C216.772 63.8951 216.751 63.8894 216.73 63.8894C216.708 63.8894 216.687 63.8951 216.669 63.9058L211.376 65.997C211.36 66.0019 211.346 66.0102 211.334 66.0214C211.321 66.0325 211.311 66.0462 211.305 66.0615C211.298 66.0768 211.295 66.0933 211.296 66.11C211.296 66.1266 211.3 66.1429 211.308 66.1578L212.423 69.0073C212.43 69.0222 212.434 69.0385 212.434 69.0552C212.435 69.0718 212.432 69.0884 212.425 69.1037C212.419 69.119 212.409 69.1326 212.397 69.1438C212.384 69.1549 212.37 69.1632 212.354 69.1682L192.033 77.188C192.003 77.1982 191.971 77.1967 191.943 77.1839C191.914 77.1711 191.892 77.1479 191.88 77.1191L189.787 71.964C189.777 71.9334 189.778 71.9 189.791 71.8703C189.803 71.8405 189.827 71.8166 189.856 71.8031L242.809 50.8994C242.832 50.8908 242.857 50.8893 242.881 50.895C242.904 50.9008 242.926 50.9136 242.942 50.9317C242.959 50.9499 242.969 50.9726 242.973 50.9968C242.976 51.0211 242.972 51.0459 242.962 51.0679L242.328 52.5233Z" fill="#37474F"/>
<path opacity="0.1" d="M242.328 52.5233L241.809 53.7029C241.804 53.7231 241.804 53.744 241.809 53.7642L242.106 56.966C242.126 57.0801 242.126 57.1966 242.106 57.3107C242.101 57.3299 242.092 57.3476 242.079 57.3623C242.065 57.377 242.049 57.3882 242.03 57.395L235.47 59.984C235.454 59.9934 235.435 59.9984 235.417 59.9984C235.398 59.9984 235.379 59.9934 235.363 59.984C235.298 59.9446 235.238 59.8955 235.188 59.8385L231.43 56.0545C231.411 56.0413 231.389 56.0343 231.365 56.0343C231.342 56.0343 231.32 56.0413 231.3 56.0545L225.955 58.1533C225.925 58.1668 225.902 58.1907 225.889 58.2204C225.877 58.2502 225.875 58.2836 225.886 58.3141L226.52 59.9304C226.526 59.9454 226.529 59.9616 226.529 59.9779C226.529 59.9942 226.526 60.0103 226.519 60.0253C226.513 60.0403 226.503 60.0538 226.492 60.0651C226.48 60.0765 226.466 60.0853 226.451 60.0912L221.907 61.8836C221.892 61.8895 221.878 61.8984 221.867 61.9098C221.855 61.9211 221.846 61.9346 221.839 61.9496C221.833 61.9646 221.829 61.9807 221.829 61.997C221.829 62.0133 221.832 62.0294 221.839 62.0445L222.931 64.825C222.938 64.8399 222.942 64.8563 222.943 64.8729C222.943 64.8895 222.94 64.9061 222.933 64.9214C222.927 64.9367 222.917 64.9504 222.905 64.9615C222.892 64.9726 222.878 64.981 222.862 64.9859L219.532 66.3034C219.516 66.3128 219.498 66.3177 219.479 66.3177C219.46 66.3177 219.442 66.3128 219.425 66.3034C219.356 66.2636 219.291 66.2147 219.234 66.1578L216.791 63.9058C216.772 63.8951 216.751 63.8894 216.73 63.8894C216.708 63.8894 216.687 63.8951 216.669 63.9058L211.376 65.997C211.36 66.0019 211.346 66.0102 211.334 66.0214C211.321 66.0325 211.311 66.0462 211.305 66.0615C211.298 66.0768 211.295 66.0933 211.296 66.11C211.296 66.1266 211.3 66.1429 211.308 66.1578L212.423 69.0073C212.43 69.0222 212.434 69.0385 212.434 69.0552C212.435 69.0718 212.432 69.0884 212.425 69.1037C212.419 69.119 212.409 69.1326 212.397 69.1438C212.384 69.1549 212.37 69.1632 212.354 69.1682L192.033 77.188C192.003 77.1982 191.971 77.1967 191.943 77.1839C191.914 77.1711 191.892 77.1479 191.88 77.1191L189.787 71.964C189.777 71.9334 189.778 71.9 189.791 71.8703C189.803 71.8405 189.827 71.8166 189.856 71.8031L242.809 50.8994C242.832 50.8908 242.857 50.8893 242.881 50.895C242.904 50.9008 242.926 50.9136 242.942 50.9317C242.959 50.9499 242.969 50.9726 242.973 50.9968C242.976 51.0211 242.972 51.0459 242.962 51.0679L242.328 52.5233Z" fill="black"/>
<path opacity="0.3" d="M164.487 75.0283C162.959 75.6303 161.644 76.673 160.707 78.0246C159.77 79.3761 159.254 80.9759 159.223 82.6217C159.192 84.2675 159.649 85.8856 160.534 87.2714C161.42 88.6571 162.696 89.7485 164.2 90.4075C165.703 91.0665 167.368 91.2636 168.984 90.9739C170.599 90.6842 172.093 89.9206 173.276 88.7797C174.459 87.6389 175.278 86.1719 175.631 84.5641C175.983 82.9563 175.852 81.2799 175.254 79.7467C174.859 78.7258 174.266 77.7935 173.51 77.0032C172.754 76.2129 171.849 75.5804 170.849 75.1419C169.848 74.7034 168.771 74.4676 167.679 74.4481C166.587 74.4286 165.502 74.6258 164.487 75.0283ZM169.725 89.0458C168.506 89.5253 167.172 89.6312 165.893 89.3502C164.613 89.0693 163.446 88.414 162.538 87.4674C161.63 86.5207 161.022 85.3251 160.791 84.032C160.561 82.7388 160.718 81.4061 161.242 80.2024C161.767 78.9987 162.636 77.9781 163.739 77.2698C164.842 76.5615 166.13 76.1972 167.439 76.223C168.749 76.2489 170.021 76.6637 171.095 77.415C172.17 78.1663 172.998 79.2203 173.475 80.4438C174.11 82.0814 174.071 83.9046 173.368 85.514C172.666 87.1234 171.356 88.3878 169.725 89.0305V89.0458Z" fill="white"/>
<path opacity="0.1" d="M194.377 94.7139C193.782 95.5277 193.072 96.2502 192.269 96.8586L164.83 60.4054C164.83 60.4054 167.251 59.1875 167.801 58.8198C167.805 58.8604 167.818 58.8996 167.839 58.9347C169.015 61.4855 190.581 89.5818 194.377 94.7139Z" fill="white"/>
<path opacity="0.1" d="M190.398 98.008C190.23 98.0846 182.234 100.528 182.234 100.528L173.322 88.6936C174.667 87.3454 175.51 85.575 175.709 83.6785C175.909 81.7819 175.453 79.8741 174.419 78.274C173.384 76.6739 171.833 75.4785 170.025 74.8878C168.217 74.297 166.262 74.3467 164.487 75.0285C164.118 75.1668 163.763 75.3386 163.425 75.5417L155.544 65.0706C155.544 65.0706 162.47 61.7616 163.234 61.2407C163.44 62.7191 190.398 97.7016 190.398 98.008Z" fill="white"/>
<path d="M157.706 40.5131C157.258 41.0464 156.938 41.6757 156.77 42.3525C156.603 43.0293 156.592 43.7357 156.74 44.4172C156.888 45.0986 157.189 45.7371 157.621 46.2833C158.053 46.8295 158.605 47.269 159.233 47.5678C159.89 47.8742 160.608 48.0198 161.249 48.3338C161.584 48.4694 161.88 48.6869 162.109 48.9665C162.338 49.2462 162.494 49.5791 162.563 49.9347C162.639 50.7007 162.051 51.4667 162.112 52.2327C162.178 52.5913 162.317 52.9324 162.52 53.2343C162.724 53.5362 162.988 53.7925 163.296 53.9868C163.914 54.3745 164.436 54.8984 164.823 55.5188C164.91 55.6763 164.963 55.8501 164.98 56.0294C164.997 56.2086 164.977 56.3894 164.921 56.5604C164.865 56.7315 164.775 56.8892 164.655 57.0236C164.536 57.1581 164.39 57.2664 164.227 57.3418C164.145 57.4879 164.102 57.6528 164.102 57.8205C164.102 57.9883 164.145 58.1532 164.227 58.2993C164.325 58.3988 164.454 58.4627 164.592 58.4807C164.73 58.4988 164.871 58.47 164.991 58.3989C165.534 58.0584 165.985 57.5887 166.303 57.0315C166.622 56.4742 166.798 55.8467 166.816 55.2047C166.809 54.5685 166.623 53.9473 166.28 53.4121C165.937 52.877 165.451 52.4496 164.877 52.1791C164.804 51.9498 164.778 51.7083 164.8 51.4688C164.822 51.2293 164.893 50.9967 165.006 50.785C165.35 49.9118 165.701 49.0309 166.053 48.1576C166.109 47.9434 166.118 47.7195 166.08 47.5013C166.042 47.2831 165.957 47.0759 165.831 46.8938C165.571 46.6308 165.255 46.4293 164.907 46.304L162.654 45.3388C161.807 44.9712 159.279 41.5855 162.272 40.5974C162.092 40.2141 161.81 39.8882 161.457 39.6557C161.104 39.4232 160.694 39.2931 160.272 39.2799C159.775 39.2558 159.281 39.3559 158.833 39.5712C158.385 39.7865 157.998 40.1102 157.706 40.5131Z" fill="#263238"/>
<path d="M161.791 36.8671L161.562 39.5404C162.326 38.3148 163.693 35.9326 163.647 36.0246C163.059 36.3463 162.379 36.5454 161.791 36.8671Z" fill="#263238"/>
<path d="M162.799 38.3295L165.93 35.4264C165.523 35.2848 165.084 35.2615 164.663 35.359C164.243 35.4566 163.859 35.6711 163.555 35.9779C163.578 35.909 163.089 37.395 162.799 38.3295Z" fill="#263238"/>
<path d="M156.438 110.8C152.368 115.871 153.719 119.754 148.099 128.731C155.193 134.001 162.967 134.859 172.628 134.093C173.773 132.063 174.346 129.949 175.491 127.919C177.126 129.957 178.439 131.665 180.073 133.71C185.137 132.944 191.154 131.481 195.156 128.892C191.62 124.825 189.421 119.746 187.16 115.265C186.099 113.159 186.542 112.278 183.724 109.521C174.751 109.934 165.854 110.149 156.888 110.57C157.133 110.608 156.201 110.784 156.438 110.8Z" fill="#9BC3E9"/>
<path d="M157.561 109.95L157.003 112.316C156.919 112.508 157.141 112.684 157.438 112.661L182.174 111.566C182.268 111.577 182.363 111.555 182.443 111.503C182.522 111.451 182.581 111.373 182.609 111.282L182.739 108.931C182.739 108.778 182.533 108.64 182.273 108.663L157.981 109.735C157.898 109.732 157.816 109.75 157.743 109.787C157.669 109.825 157.606 109.881 157.561 109.95Z" fill="#455A64"/>
<path d="M157.561 109.95L157.003 112.316C156.919 112.508 157.141 112.684 157.438 112.661L182.174 111.566C182.268 111.577 182.363 111.555 182.443 111.503C182.522 111.451 182.581 111.373 182.609 111.282L182.739 108.931C182.739 108.778 182.533 108.64 182.273 108.663L157.981 109.735C157.898 109.732 157.816 109.75 157.743 109.787C157.669 109.825 157.606 109.881 157.561 109.95Z" fill="#455A64"/>
<path d="M163.006 112.669H162.288C162.15 112.669 162.036 112.607 162.043 112.523L162.234 109.459C162.234 109.367 162.364 109.291 162.502 109.291L163.227 109.252C163.357 109.252 163.471 109.314 163.464 109.406L163.273 112.47C163.265 112.562 163.143 112.661 163.006 112.669Z" fill="#263238"/>
<path d="M180.86 111.895H180.142C180.005 111.895 179.89 111.834 179.898 111.749L180.089 108.685C180.089 108.594 180.219 108.509 180.356 108.509H181.074C181.211 108.509 181.318 108.571 181.311 108.655L181.12 111.719C181.12 111.795 181.005 111.887 180.86 111.895Z" fill="#263238"/>
<path d="M166.197 97.7935C166.243 98.0156 168.16 101.08 169.672 100.857C169.887 100.828 170.106 100.855 170.307 100.937C170.508 101.019 170.684 101.153 170.817 101.325C171.421 102.091 171.787 102.566 172.192 103.086C172.513 103.498 172.964 103.787 173.471 103.906C173.977 104.026 174.509 103.969 174.979 103.745C175.262 103.615 175.545 103.469 175.827 103.316C176.283 103.077 176.646 102.691 176.856 102.22C177.067 101.749 177.113 101.22 176.988 100.72C176.708 99.5901 176.273 98.5049 175.697 97.4947C175.527 97.1351 175.263 96.8281 174.934 96.6062C173.346 95.997 171.684 95.6054 169.993 95.4419C168.694 95.4955 167.427 97.242 166.197 97.7935Z" fill="#E8BFBF"/>
<path d="M170.069 95.35C170.069 95.35 149.771 89.1838 145.387 93.2895C142.814 95.7024 144.028 97.985 145.471 99.4174C146.541 100.513 148.87 100.245 150.397 100.183L166.388 98.6055L170.069 95.35Z" fill="#E8BFBF"/>
<path d="M158.4 92.5315C158.309 91.9835 158.083 91.4669 157.743 91.0283C157.403 90.5897 156.96 90.2429 156.453 90.0191C155.436 89.587 154.355 89.3281 153.253 89.2531L145.617 88.2803C144.244 89.978 143.473 92.0851 143.425 94.2703C143.479 96.3835 144.249 98.4152 145.609 100.03C146.831 97.6636 148.442 95.2278 150.825 94.0481C153.207 92.8685 155.789 92.0566 158.4 92.5315Z" fill="#93B9DD"/>
<path opacity="0.1" d="M153.169 55.3419C153.169 55.2959 153.169 55.2729 153.169 55.2653C153.33 55.2193 153.307 55.2499 153.169 55.3419Z" fill="white"/>
<path d="M203.602 22.3744L209.253 32.899L232.332 13.2439C232.372 13.2086 232.398 13.1593 232.404 13.1059C232.41 13.0524 232.395 12.9987 232.364 12.9553C232.332 12.912 232.285 12.8821 232.232 12.8717C232.18 12.8613 232.125 12.8711 232.08 12.8992L210.445 27.2231L207.115 20.6969L203.602 22.3744Z" fill="#128807"/>
<path d="M240.037 22.4283C240.037 31.804 230.224 39.3949 218.12 39.3949C213.769 39.4255 209.479 38.3727 205.634 36.3309L192.766 41.9456L200.861 32.8993C199.419 31.5596 198.262 29.9415 197.459 28.1422C196.655 26.3429 196.223 24.3994 196.187 22.4283C196.187 13.0527 206 5.4541 218.097 5.4541C230.193 5.4541 240.037 13.0527 240.037 22.4283Z" stroke="#128807" stroke-miterlimit="10"/>
<path d="M167.165 90.5739C171.3 90.5739 174.652 87.1209 174.652 82.8614C174.652 78.6019 171.3 75.1489 167.165 75.1489C163.03 75.1489 159.678 78.6019 159.678 82.8614C159.678 87.1209 163.03 90.5739 167.165 90.5739Z" fill="#055AAB"/>
<path d="M167.165 89.9951C170.99 89.9951 174.091 86.8011 174.091 82.8611C174.091 78.9211 170.99 75.7271 167.165 75.7271C163.34 75.7271 160.24 78.9211 160.24 82.8611C160.24 86.8011 163.34 89.9951 167.165 89.9951Z" fill="white"/>
<path d="M166.446 83.7481H171.126V83.91C171.126 86.0155 169.329 87.666 167.322 87.666C165.271 87.666 163.467 86.0387 163.467 83.8252C163.467 81.6503 165.263 79.9844 167.285 79.9844C169.089 79.9844 170.4 81.2415 170.767 82.2981H169.179C168.872 81.8122 168.213 81.2569 167.263 81.2569C165.645 81.2569 164.799 82.676 164.799 83.8329C164.799 84.9589 165.623 86.3857 167.33 86.3857C168.213 86.3857 169.037 85.8844 169.456 85.0283H166.446V83.7481Z" fill="#055AAB"/>
<path d="M164.223 79.9231C164.223 79.9231 165.765 77.8793 167.966 78.9281L168.7 78.1878L165.608 77.4165L163.339 79.9231H164.223Z" fill="#055AAB"/>
<path d="M164.859 80.455L164.672 79.8534C164.672 79.8534 165.338 78.8585 167.532 78.9588L167.831 79.7069C167.831 79.6992 166.334 79.4446 164.859 80.455Z" fill="#055AAB"/>
<path d="M163.916 81.3571C164.045 81.3571 164.149 81.25 164.149 81.118C164.149 80.9859 164.045 80.8789 163.916 80.8789C163.788 80.8789 163.684 80.9859 163.684 81.118C163.684 81.25 163.788 81.3571 163.916 81.3571Z" fill="#055AAB"/>
<path d="M163.954 79.8145H163.879V81.087H163.954V79.8145Z" fill="#055AAB"/>
</svg>
