<svg width="293" height="265" viewBox="0 0 293 265" fill="none" xmlns="http://www.w3.org/2000/svg">
<g clip-path="url(#clip0_2902_660)">
<path d="M146.037 265C226.723 265 292.074 228.3 292.074 183.1C292.074 137.8 226.723 101.2 146.037 101.2C65.3513 101.1 0 137.8 0 183.1C0 228.3 65.3513 265 146.037 265Z" fill="#F0F0F0"/>
<path d="M115.883 245.2C143.67 245.2 166.208 232.6 166.208 216.9C166.208 201.2 143.67 188.6 115.883 188.6C88.0956 188.6 65.5571 201.2 65.5571 216.9C65.5571 232.6 87.9927 245.2 115.883 245.2Z" fill="#E0E0E0"/>
<path d="M259.038 181.5L253.172 178.2C253.172 178.2 251.731 165.9 252.657 156.4C253.995 143 262.949 126.9 273.549 130.7C284.149 134.5 268.712 148.1 265.213 159.4C261.817 170.8 259.038 181.5 259.038 181.5Z" fill="#F3601E"/>
<path opacity="0.15" d="M259.038 181.5L253.172 178.2C253.172 178.2 251.731 165.9 252.657 156.4C253.995 143 262.949 126.9 273.549 130.7C284.149 134.5 268.712 148.1 265.213 159.4C261.817 170.8 259.038 181.5 259.038 181.5Z" fill="black"/>
<path d="M255.951 180.2C256.054 180.2 256.054 180.2 256.054 180.2C256.054 180.2 256.156 180.2 256.156 180.1L256.259 180V179.9C255.23 150.2 270.462 135.2 270.565 135.1C270.668 135 270.668 134.9 270.668 134.9C270.668 134.8 270.668 134.7 270.565 134.7C270.462 134.6 270.462 134.6 270.359 134.6C270.256 134.6 270.153 134.6 270.153 134.7C269.947 134.8 254.51 150 255.642 180C255.642 180.1 255.642 180.2 255.745 180.2C255.848 180.2 255.848 180.2 255.951 180.2Z" fill="white"/>
<path d="M262.743 183.6L258.524 181.2C258.524 181.2 257.803 172.8 262.023 162.5C265.728 153.6 274.887 146.2 279.518 147.7C284.15 149.3 284.047 152.4 281.783 155.8C279.621 159.2 265.934 167.2 262.743 183.6Z" fill="#F3601E"/>
<path d="M260.582 182.7H260.685C260.685 182.7 260.788 182.7 260.788 182.6C260.788 182.5 260.891 182.5 260.891 182.5V182.4C260.788 163.6 279.004 150.9 279.107 150.8L279.21 150.7V150.6V150.5C279.21 150.5 279.21 150.4 279.107 150.4L279.004 150.3H278.901H278.798C278.798 150.3 278.695 150.3 278.695 150.4C278.489 150.5 260.067 163.4 260.17 182.6C260.17 182.7 260.17 182.8 260.273 182.8C260.376 182.7 260.479 182.7 260.582 182.7Z" fill="white"/>
<path d="M40.446 174.2L45.9005 170.6C45.9005 170.6 48.2676 156.7 46.1064 144.5C43.0189 127.4 30.772 121.6 26.4495 123.4C22.1271 125.2 21.2008 130.3 29.3311 140.1C34.0653 145.9 40.2402 158.2 40.446 174.2Z" fill="#F3601E"/>
<g opacity="0.15">
<path d="M40.446 174.2L45.9005 170.6C45.9005 170.6 48.2676 156.7 46.1064 144.5C43.0189 127.4 30.772 121.6 26.4495 123.4C22.1271 125.2 21.2008 130.3 29.3311 140.1C34.0653 145.9 40.2402 158.2 40.446 174.2Z" fill="black"/>
</g>
<path d="M42.2982 167.3C42.1953 167.3 42.0923 167.3 42.0923 167.2L41.9894 167.1L41.8865 167V166.9C43.8419 150.8 36.8437 133.2 29.2279 126.3L29.125 126.2V126.1V126C29.125 126 29.125 125.9 29.2279 125.9L29.3308 125.8H29.4337C29.5367 125.8 29.5367 125.8 29.5367 125.8C29.5367 125.8 29.6396 125.8 29.6396 125.9C37.3582 133 44.5623 150.8 42.504 167.2C42.504 167.3 42.4011 167.4 42.4011 167.4C42.504 167.3 42.4011 167.3 42.2982 167.3Z" fill="white"/>
<path d="M26.1406 183.5C25.3173 184 22.7444 182.2 22.024 181.7C20.789 180.9 19.8628 179.9 19.1424 178.7C18.422 177.3 18.1132 175.7 18.3191 174.1C18.422 173.3 18.6278 172.5 18.8336 171.7L19.4511 169.3C19.7599 168.5 19.8628 167.7 19.7599 166.9C19.5541 165.3 18.0103 164.2 16.6724 163.2C15.1287 162.1 13.585 160.8 13.585 158.8C13.6879 157.3 14.3054 155.9 15.2316 154.7C16.1578 153.5 17.2899 152.4 18.1132 151.2C18.7307 150.3 19.1424 149.3 19.0395 148.2C18.9366 147.5 18.7307 146.9 18.3191 146.3C17.5987 145 16.6724 143.9 16.1578 142.6C15.6433 141.3 15.6433 139.6 16.7753 138.6C17.7016 137.8 18.9366 137.6 20.1716 137.7C21.3036 137.8 22.4357 138.2 23.3619 138.7C26.5523 140.4 28.4048 144 31.801 145.2C33.1389 145.7 34.5797 145.8 35.9176 146.1C37.2555 146.4 38.6963 147.1 39.3138 148.3C40.5488 150.7 38.3876 153.7 39.3138 156.2C40.1371 158.4 42.4013 159.3 43.7392 161.3C44.2538 162.2 44.4596 163.2 44.3567 164.2C44.2538 165.9 43.8421 167.6 43.2246 169.2C42.4013 170.8 41.475 172.4 40.5488 173.9C40.6517 174 26.3465 183.5 26.1406 183.5Z" fill="#F3601E"/>
<path d="M34.5797 178.5C34.4768 178.5 34.4768 178.5 34.3739 178.5C34.3739 178.5 34.2709 178.5 34.2709 178.4L34.168 178.3V178.2C34.4768 162.9 26.7581 146.3 21.3036 141.5L21.2007 141.4V141.3C21.2007 141.2 21.2007 141.2 21.2007 141.1C21.2007 141.1 21.2007 141 21.3036 141L21.4065 140.9H21.5094C21.6123 140.9 21.6123 140.9 21.7153 140.9C21.7153 140.9 21.8182 140.9 21.8182 141C27.3756 145.9 35.3001 162.8 34.8884 178.3C34.8884 178.4 34.8884 178.5 34.7855 178.6C34.7855 178.5 34.6826 178.5 34.5797 178.5Z" fill="white"/>
<path d="M31.698 160H31.595C26.5522 158.6 20.2743 158.4 20.1714 158.4C20.0685 158.4 19.9656 158.4 19.8627 158.3C19.7598 158.2 19.7598 158.1 19.7598 158C19.7598 157.9 19.7598 157.9 19.7598 157.9C19.7598 157.9 19.7598 157.8 19.8627 157.8L19.9656 157.7H20.0685C20.1714 157.7 26.5522 157.9 31.698 159.3C31.8009 159.3 31.9038 159.4 31.9038 159.5C32.0067 159.6 32.0067 159.7 32.0067 159.8C32.0067 159.9 31.9038 160 31.9038 160C31.8009 159.9 31.8009 160 31.698 160Z" fill="white"/>
<path d="M177.735 163.7L175.368 162.4C174.956 162.2 174.648 161.8 174.442 161.4C174.236 161 174.03 160.6 174.03 160.1V65.2C174.03 64.7 174.236 64.3 174.442 63.9C174.648 63.5 174.956 63.2 175.368 62.9L240.719 26.3C241.131 26.1 241.646 26 242.057 26C242.572 26 242.984 26.1 243.395 26.3L245.762 27.6C246.174 27.8 246.483 28.2 246.689 28.6C246.894 29 247.1 29.4 247.1 29.9V124.8C247.1 125.3 246.894 125.7 246.689 126.1C246.483 126.5 246.174 126.8 245.762 127.1L180.411 163.7C179.999 163.9 179.485 164 179.073 164C178.661 164 178.147 163.9 177.735 163.7Z" fill="#455A64"/>
<path d="M247.1 29.7001C246.997 29.0001 246.483 28.8001 245.762 29.2001L180.411 65.8001C179.999 66.0001 179.691 66.4001 179.485 66.8001L174.442 64.0001C174.648 63.6001 174.956 63.3001 175.368 63.0001L240.719 26.4001C241.131 26.2001 241.646 26.1001 242.057 26.1001C242.572 26.1001 242.984 26.2001 243.395 26.4001L245.762 27.7001C246.174 27.9001 246.38 28.2001 246.689 28.6001C246.894 28.9001 246.997 29.3001 247.1 29.7001Z" fill="#455A64"/>
<path d="M180.205 163.8C179.794 164 179.382 164 178.97 164C178.559 164 178.147 163.9 177.735 163.7L175.368 162.4C174.956 162.2 174.648 161.8 174.442 161.4C174.236 161 174.03 160.6 174.03 160.1V65.1999C174.03 64.6999 174.133 64.2999 174.442 63.8999L179.485 66.6999C179.279 67.0999 179.073 67.4999 179.073 67.9999V162.9C179.073 163.7 179.588 164 180.205 163.8Z" fill="#263238"/>
<path d="M179.176 67.3V162.2C179.176 163 179.793 163.4 180.514 163L245.865 126.4C246.277 126.2 246.585 125.8 246.791 125.4C246.997 125 247.203 124.6 247.203 124.1V29.1C247.203 28.3 246.585 27.9 245.865 28.3L180.514 64.9C180.102 65.1 179.793 65.5 179.587 65.9C179.382 66.4 179.279 66.8 179.176 67.3Z" fill="#37474F"/>
<path d="M163.842 104.2C163.018 103.7 159.107 101.6 158.902 101.4C158.696 101.3 158.593 101.2 158.49 101C158.387 100.8 158.284 100.7 158.284 100.5C158.284 100.3 158.284 100.1 158.284 99.9999C158.387 99.7999 158.387 99.6999 158.593 99.4999L174.03 83.3999L179.073 86.1999L163.636 102.3C163.533 102.4 163.43 102.6 163.327 102.7C163.224 102.9 163.224 103 163.224 103.2C163.224 103.4 163.327 103.5 163.43 103.7C163.636 104 163.739 104.1 163.842 104.2Z" fill="#455A64"/>
<path d="M179.073 86.2998L163.635 102.4C163.43 102.6 163.327 102.8 163.327 103C163.327 103.2 163.327 103.5 163.43 103.7C163.532 103.9 163.738 104.1 163.944 104.2C164.15 104.3 164.459 104.4 164.665 104.4L179.073 103.2V86.2998Z" fill="#37474F"/>
<path d="M204.39 130.5L221.886 120.7C222.606 120.3 223.224 120.6 223.224 121.5V127C223.224 127.5 223.018 127.9 222.812 128.3C222.606 128.7 222.297 129 221.886 129.3L204.39 139.1C203.67 139.5 203.052 139.2 203.052 138.3V132.8C203.052 132.3 203.258 131.9 203.464 131.5C203.67 131.1 203.978 130.8 204.39 130.5Z" fill="#066AC9"/>
<path d="M195.848 118.3L230.428 98.9999C231.354 98.4999 232.075 98.8999 232.075 99.8999V101.9C232.075 102.4 231.869 103 231.56 103.4C231.251 103.9 230.84 104.3 230.428 104.6L195.848 124C194.922 124.5 194.202 124.1 194.202 123.1V121.1C194.202 120.6 194.407 120 194.716 119.6C195.025 119.2 195.334 118.6 195.848 118.3Z" fill="#FAFAFA"/>
<path d="M199.862 104.3C200.376 104 200.685 104 200.994 104.2C201.303 104.4 201.406 104.8 201.406 105.4C201.406 106 201.303 106.6 200.994 107.1C200.788 107.6 200.376 108 199.862 108.2L198.936 108.7V110.6C198.936 110.7 198.936 110.7 198.936 110.8C198.936 110.9 198.833 110.9 198.833 110.9L198.318 111.2C198.318 111.2 198.318 111.2 198.215 111.2C198.215 111.2 198.215 111.2 198.112 111.2C198.112 111.2 198.112 111.2 198.112 111.1C198.112 111.1 198.112 111.1 198.112 111V105.4C198.112 105.3 198.112 105.3 198.112 105.2C198.112 105.1 198.215 105.1 198.215 105.1L199.862 104.3ZM198.936 107.7L199.862 107.2C200.068 107.1 200.274 106.9 200.376 106.7C200.479 106.5 200.582 106.2 200.582 105.9C200.582 105.6 200.479 105.4 200.376 105.3C200.274 105.3 200.171 105.3 200.068 105.3C199.965 105.3 199.862 105.4 199.862 105.4L198.936 105.9V107.7Z" fill="#FAFAFA"/>
<path d="M203.978 102C204.081 102 204.081 102 204.081 102C204.081 102.1 204.184 102.1 204.184 102.2L205.625 106.9C205.625 106.9 205.625 106.9 205.625 107C205.625 107.1 205.625 107.1 205.625 107.2C205.625 107.3 205.522 107.3 205.522 107.3L205.11 107.5C205.008 107.5 205.008 107.6 204.905 107.5C204.905 107.5 204.905 107.4 204.802 107.4L204.596 106.6L202.743 107.6L202.538 108.7C202.538 108.8 202.538 108.8 202.435 108.9C202.435 109 202.332 109 202.229 109.1L201.817 109.3C201.817 109.3 201.817 109.3 201.714 109.3C201.714 109.3 201.714 109.3 201.611 109.3C201.611 109.3 201.611 109.3 201.611 109.2C201.611 109.2 201.611 109.2 201.611 109.1C201.611 109.1 201.611 109.1 201.611 109L203.052 102.7C203.052 102.6 203.052 102.5 203.155 102.4C203.155 102.3 203.258 102.3 203.258 102.2L203.978 102ZM204.287 105.7L203.67 103.6L203.052 106.4L204.287 105.7Z" fill="#FAFAFA"/>
<path d="M207.786 99.8001C207.992 99.7001 208.198 99.6001 208.507 99.6001C208.713 99.6001 208.815 99.6001 209.021 99.7001C209.124 99.8001 209.227 99.9001 209.33 100.1C209.433 100.3 209.433 100.4 209.433 100.6C209.433 100.7 209.433 100.7 209.433 100.8C209.433 100.9 209.33 100.9 209.33 100.9L208.918 101.1C208.815 101.1 208.815 101.1 208.815 101.1L208.713 101C208.713 100.9 208.61 100.9 208.61 100.9C208.61 100.9 208.507 100.8 208.404 100.8C208.301 100.8 208.198 100.8 208.095 100.8C207.992 100.8 207.889 100.9 207.889 100.9C207.786 101 207.683 101 207.58 101.1C207.478 101.2 207.375 101.3 207.375 101.4C207.272 101.5 207.272 101.6 207.169 101.7C207.169 101.8 207.066 101.9 207.066 102C207.066 102.1 207.066 102.2 207.169 102.3C207.169 102.3 207.169 102.4 207.272 102.4H207.375C207.478 102.4 207.58 102.4 207.683 102.4C207.786 102.4 207.992 102.3 208.198 102.3C208.404 102.2 208.61 102.2 208.815 102.2C208.918 102.2 209.124 102.2 209.227 102.3C209.33 102.4 209.433 102.5 209.433 102.7C209.536 102.9 209.536 103.1 209.536 103.3C209.536 103.6 209.536 103.8 209.433 104.1C209.33 104.4 209.227 104.6 209.124 104.9C209.021 105.1 208.815 105.4 208.61 105.6C208.404 105.8 208.198 106 207.889 106.1C207.683 106.2 207.478 106.3 207.272 106.3C207.066 106.3 206.963 106.3 206.757 106.3C206.551 106.2 206.448 106.1 206.345 106C206.243 105.8 206.14 105.6 206.14 105.4C206.14 105.3 206.14 105.3 206.14 105.2C206.14 105.1 206.243 105.1 206.243 105.1L206.654 104.9C206.757 104.9 206.757 104.9 206.757 104.9L206.86 105C206.86 105.1 206.963 105.1 206.963 105.2C206.963 105.3 207.066 105.3 207.169 105.3C207.272 105.3 207.375 105.3 207.375 105.3C207.478 105.3 207.683 105.2 207.786 105.1C207.889 105 207.992 105 208.095 104.9C208.198 104.8 208.301 104.7 208.404 104.6C208.507 104.5 208.507 104.4 208.61 104.3C208.713 104.2 208.713 104.1 208.713 103.9C208.713 103.8 208.713 103.7 208.61 103.6C208.61 103.6 208.507 103.6 208.507 103.5H208.404C208.301 103.5 208.095 103.5 207.992 103.6C207.786 103.6 207.683 103.7 207.375 103.7C207.169 103.7 207.066 103.8 206.86 103.7C206.757 103.7 206.551 103.6 206.448 103.5C206.345 103.4 206.243 103.3 206.243 103.1C206.14 102.9 206.14 102.7 206.14 102.5C206.14 102.2 206.14 102 206.243 101.7C206.345 101.4 206.448 101.2 206.551 101C206.654 100.8 206.86 100.6 207.066 100.4C207.375 100.1 207.58 99.9001 207.786 99.8001Z" fill="#FAFAFA"/>
<path d="M211.903 97.4998C212.109 97.3998 212.315 97.2998 212.623 97.2998C212.829 97.2998 212.932 97.2998 213.138 97.3998C213.241 97.4998 213.344 97.5998 213.447 97.7998C213.55 97.8998 213.55 98.0998 213.55 98.2998C213.55 98.3998 213.55 98.3998 213.55 98.4998C213.55 98.5998 213.447 98.5998 213.447 98.5998L213.035 98.7998C212.932 98.7998 212.932 98.7998 212.932 98.7998L212.829 98.6998C212.829 98.5998 212.726 98.5998 212.726 98.5998C212.726 98.5998 212.623 98.4998 212.52 98.4998C212.418 98.4998 212.315 98.4998 212.212 98.4998C212.109 98.4998 212.006 98.5998 212.006 98.5998C211.8 98.6998 211.594 98.8998 211.491 99.0998C211.388 99.1998 211.388 99.2998 211.286 99.3998C211.286 99.4998 211.183 99.5998 211.183 99.6998C211.183 99.7998 211.183 99.8998 211.286 99.9998C211.286 99.9998 211.285 100.1 211.388 100.1H211.491C211.594 100.1 211.697 100.1 211.8 100.1C211.903 100.1 212.109 99.9998 212.315 99.9998C212.52 99.8998 212.726 99.8998 212.932 99.8998C213.035 99.8998 213.241 99.8998 213.344 99.9998C213.447 100.1 213.55 100.2 213.55 100.4C213.653 100.6 213.653 100.8 213.653 101C213.653 101.3 213.653 101.5 213.55 101.8C213.447 102.1 213.344 102.3 213.241 102.6C213.138 102.8 212.932 103.1 212.726 103.3C212.52 103.5 212.315 103.7 212.006 103.8C211.8 103.9 211.594 104 211.388 104C211.183 104 210.977 104 210.874 104C210.668 103.9 210.565 103.8 210.462 103.7C210.359 103.5 210.256 103.3 210.256 103.1C210.256 103 210.256 103 210.256 102.9C210.256 102.8 210.359 102.8 210.359 102.8L210.771 102.6C210.874 102.6 210.874 102.6 210.874 102.6L210.977 102.7C210.977 102.8 211.08 102.8 211.08 102.9C211.08 103 211.183 103 211.286 103C211.388 103 211.491 103 211.491 103C211.594 103 211.8 102.9 211.903 102.8C212.006 102.7 212.109 102.7 212.212 102.6C212.418 102.4 212.623 102.2 212.726 102C212.726 101.9 212.829 101.8 212.829 101.6C212.829 101.5 212.829 101.4 212.726 101.3C212.726 101.3 212.623 101.3 212.623 101.2H212.52C212.418 101.2 212.212 101.2 212.109 101.3C211.903 101.3 211.8 101.4 211.594 101.4C211.388 101.4 211.286 101.4 211.08 101.4C210.977 101.4 210.771 101.3 210.668 101.2C210.565 101.1 210.462 101 210.462 100.8C210.359 100.6 210.359 100.4 210.359 100.2C210.359 99.8998 210.359 99.6998 210.462 99.3998C210.565 99.0998 210.668 98.8998 210.771 98.6998C210.874 98.4998 211.08 98.2998 211.286 98.0998C211.388 97.7998 211.594 97.5998 211.903 97.4998Z" fill="#FAFAFA"/>
<path d="M216.431 98.3L215.917 101.2C215.917 101.3 215.917 101.4 215.814 101.5C215.814 101.6 215.711 101.6 215.711 101.7L215.196 102C215.093 102 215.093 102 215.093 102C215.093 101.9 214.99 101.9 214.99 101.8L214.27 96.7C214.27 96.7 214.27 96.7 214.27 96.6C214.27 96.5 214.27 96.5 214.27 96.4C214.27 96.3 214.373 96.3 214.373 96.3L214.785 96.1C214.785 96.1 214.785 96.1 214.888 96.1C214.888 96.1 214.888 96.1 214.99 96.1L215.093 96.2L215.608 99.6L216.02 97C216.02 96.9 216.02 96.9 216.123 96.8C216.123 96.7 216.225 96.7 216.225 96.6L216.74 96.3C216.843 96.3 216.843 96.3 216.843 96.3C216.843 96.3 216.843 96.4 216.946 96.4L217.357 98.5L217.872 94.5C217.872 94.4 217.872 94.3 217.975 94.3L218.078 94.2L218.49 94C218.49 94 218.49 94 218.592 94C218.592 94 218.592 94 218.695 94C218.695 94 218.695 94 218.695 94.1C218.695 94.1 218.695 94.1 218.695 94.2C218.695 94.2 218.695 94.2 218.695 94.3L217.975 100.2C217.975 100.3 217.975 100.4 217.872 100.5C217.872 100.6 217.769 100.6 217.769 100.7L217.255 101C217.152 101 217.152 101 217.152 101C217.152 100.9 217.049 100.9 217.049 100.8L216.431 98.3Z" fill="#FAFAFA"/>
<path d="M219.313 95.7002C219.313 95.4002 219.416 95.0002 219.416 94.7002C219.519 94.4002 219.622 94.1002 219.725 93.8002C219.828 93.5002 220.033 93.2002 220.239 93.0002C220.445 92.8002 220.651 92.6002 220.96 92.4002C221.165 92.3002 221.474 92.2002 221.68 92.2002C221.783 92.2002 221.886 92.2002 221.989 92.3002C222.092 92.3002 222.195 92.4002 222.195 92.5002C222.298 92.7002 222.503 92.9002 222.503 93.1002C222.606 93.4002 222.606 93.7002 222.606 94.0002C222.606 94.1002 222.606 94.2002 222.606 94.4002C222.606 94.5002 222.606 94.7002 222.606 94.8002C222.606 94.9002 222.606 95.1002 222.606 95.2002C222.606 95.3002 222.606 95.5002 222.606 95.6002C222.606 95.9002 222.503 96.3002 222.503 96.6002C222.4 96.9002 222.298 97.2002 222.195 97.5002C222.092 97.8002 221.886 98.1002 221.68 98.3002C221.474 98.5002 221.268 98.7002 220.96 98.9002C220.754 99.0002 220.445 99.1002 220.239 99.1002C220.033 99.1002 219.828 99.0002 219.725 98.9002C219.519 98.7002 219.416 98.5002 219.416 98.3002C219.313 98.0002 219.313 97.7002 219.313 97.5002C219.313 97.4002 219.313 97.3002 219.313 97.1002C219.313 97.0002 219.313 96.8002 219.313 96.7002C219.313 96.6002 219.313 96.4002 219.313 96.3002C219.313 95.9002 219.313 95.8002 219.313 95.7002ZM221.886 94.3002C221.886 94.2002 221.886 94.0002 221.783 93.9002C221.783 93.8002 221.68 93.6002 221.577 93.5002C221.371 93.4002 221.165 93.4002 220.96 93.5002C220.651 93.7002 220.445 93.9002 220.342 94.2002C220.136 94.6002 220.033 94.9002 220.033 95.3002C220.033 95.5002 220.033 95.8002 220.033 96.0002C220.033 96.3002 220.033 96.5002 220.033 96.7002C220.033 96.8002 220.033 97.0002 220.033 97.1002C220.033 97.2002 220.136 97.4002 220.239 97.5002C220.445 97.6002 220.651 97.6002 220.857 97.5002C221.165 97.3002 221.371 97.1002 221.474 96.8002C221.68 96.5002 221.783 96.1002 221.783 95.7002C221.783 95.5002 221.783 95.2002 221.783 95.0002C221.886 94.7002 221.886 94.5002 221.886 94.3002Z" fill="#FAFAFA"/>
<path d="M225.385 90.0001C225.899 89.7001 226.208 89.7001 226.517 89.9001C226.62 90.1001 226.826 90.2001 226.826 90.5001C226.929 90.7001 226.929 90.9001 226.929 91.1001C226.929 91.5001 226.826 91.9001 226.723 92.3001C226.62 92.7001 226.414 93.0001 226.105 93.3001L226.929 95.0001V95.1001C226.929 95.2001 226.929 95.2001 226.929 95.3001C226.929 95.3001 226.929 95.4001 226.826 95.4001L226.311 95.7001C226.208 95.7001 226.208 95.7001 226.105 95.7001L226.002 95.6001L225.282 94.0001L224.459 94.4001V96.4001C224.459 96.5001 224.459 96.5001 224.459 96.6001C224.459 96.7001 224.356 96.7001 224.356 96.7001L223.841 97.0001C223.841 97.0001 223.841 97.0001 223.738 97.0001C223.738 97.0001 223.738 97.0001 223.635 97.0001C223.635 97.0001 223.635 97.0001 223.635 96.9001C223.635 96.9001 223.635 96.9001 223.635 96.8001V91.2001C223.635 91.1001 223.635 91.1001 223.635 91.0001C223.635 90.9001 223.738 90.9001 223.738 90.9001L225.385 90.0001ZM224.561 93.2001L225.385 92.7001C225.591 92.6001 225.796 92.4001 225.899 92.2001C226.002 92.0001 226.105 91.7001 226.105 91.4001C226.105 91.1001 226.002 90.9001 225.899 90.9001C225.694 90.9001 225.488 90.9001 225.385 91.0001L224.561 91.5001V93.2001Z" fill="#FAFAFA"/>
<path d="M229.604 87.6999C229.81 87.5999 230.119 87.4999 230.325 87.3999C230.427 87.3999 230.53 87.3999 230.633 87.3999C230.736 87.3999 230.839 87.4999 230.839 87.4999C231.045 87.6999 231.148 87.8999 231.148 88.0999C231.251 88.3999 231.251 88.6999 231.251 88.9999C231.251 89.3999 231.251 89.8999 231.251 90.2999C231.251 90.6999 231.148 90.9999 231.148 91.3999C231.045 91.6999 230.942 91.9999 230.839 92.2999C230.736 92.5999 230.53 92.7999 230.325 93.0999C230.119 93.2999 229.913 93.4999 229.604 93.6999L228.163 94.4999C228.163 94.4999 228.163 94.4999 228.06 94.4999C228.06 94.4999 228.06 94.4999 227.958 94.4999C227.958 94.4999 227.958 94.4999 227.958 94.3999C227.958 94.3999 227.958 94.3999 227.958 94.2999V88.6999C227.958 88.5999 227.958 88.5999 227.958 88.4999C227.958 88.3999 228.06 88.3999 228.06 88.3999L229.604 87.6999ZM230.53 89.4999C230.53 89.2999 230.53 89.1999 230.427 88.9999C230.427 88.8999 230.325 88.7999 230.222 88.6999L230.119 88.5999C230.016 88.5999 230.016 88.5999 229.913 88.5999C229.81 88.5999 229.604 88.6999 229.501 88.6999L228.678 89.0999V92.9999L229.501 92.4999C229.707 92.3999 229.81 92.2999 229.913 92.1999C230.016 92.0999 230.119 91.8999 230.222 91.7999C230.325 91.5999 230.325 91.4999 230.427 91.2999C230.427 91.0999 230.53 90.8999 230.53 90.6999C230.53 90.3999 230.53 89.8999 230.53 89.4999Z" fill="#FAFAFA"/>
<path d="M144.39 0.200168C145.419 0.400168 146.449 0.800168 147.478 1.30017C148.404 1.80017 149.227 2.40017 149.948 3.20017C150.565 3.90017 151.08 4.80017 151.389 5.70017C151.697 6.70017 151.697 7.80017 151.491 8.80017C151.286 9.60017 150.977 10.4002 150.565 11.0002C150.154 11.6002 149.639 12.1002 149.021 12.5002C148.507 12.9002 147.889 13.3002 147.272 13.6002C146.654 13.9002 146.037 14.2002 145.522 14.5002C145.008 14.8002 144.493 15.1002 143.979 15.5002C143.567 15.8002 143.258 16.2002 143.052 16.7002C142.949 16.9002 142.847 17.1002 142.641 17.3002C142.538 17.4002 142.435 17.4002 142.332 17.4002C142.229 17.4002 142.126 17.4002 142.023 17.4002L139.347 16.8002C139.245 16.8002 139.142 16.7002 139.039 16.7002C138.936 16.6002 138.833 16.5002 138.73 16.4002C138.627 16.3002 138.627 16.2002 138.627 16.1002C138.627 16.0002 138.627 15.9002 138.627 15.7002C138.833 14.9002 139.245 14.2002 139.759 13.5002C140.274 12.9002 140.788 12.4002 141.406 12.0002C142.023 11.6002 142.641 11.2002 143.258 10.9002C143.876 10.6002 144.493 10.3002 145.008 10.0002C145.522 9.70017 145.934 9.40017 146.449 9.10017C146.86 8.80017 147.066 8.40017 147.169 7.90017C147.272 7.50017 147.272 7.10017 147.169 6.70017C147.066 6.30017 146.86 5.90017 146.552 5.60017C145.831 4.80017 144.905 4.30017 143.773 4.10017C141.817 3.70017 140.171 4.30017 138.833 6.00017C138.73 6.20017 138.524 6.30017 138.318 6.50017C138.112 6.60017 137.907 6.60017 137.598 6.50017L134.819 5.90017C134.613 5.90017 134.407 5.70017 134.305 5.60017C134.202 5.50017 134.202 5.40017 134.202 5.30017C134.202 5.20017 134.202 5.10017 134.202 5.00017C134.407 4.20017 134.922 3.40017 135.54 2.80017C136.26 2.10017 137.083 1.50017 137.907 1.00017C138.936 0.500168 139.965 0.200168 141.097 0.000167985C142.023 -0.099832 143.258 0.000167981 144.39 0.200168ZM141.509 19.6002C141.714 19.7002 141.92 19.8002 142.126 20.0002C142.229 20.2002 142.332 20.5002 142.229 20.7002L141.509 23.7002C141.406 23.9002 141.303 24.1002 141.097 24.3002C140.891 24.4002 140.582 24.5002 140.377 24.4002L137.392 23.8002C137.186 23.7002 136.98 23.6002 136.775 23.4002C136.672 23.2002 136.569 22.9002 136.672 22.7002L137.392 19.7002C137.495 19.5002 137.598 19.2002 137.804 19.1002C138.01 19.0002 138.318 18.9002 138.524 19.0002L141.509 19.6002Z" fill="#F3601E"/>
<path d="M147.786 28.4998C148.507 28.3998 149.33 28.3998 150.051 28.4998C150.771 28.5998 151.491 28.7998 152.109 29.0998C152.726 29.3998 153.241 29.7998 153.653 30.3998C154.064 30.9998 154.373 31.5998 154.476 32.2998C154.579 32.8998 154.579 33.3998 154.476 33.9998C154.373 34.4998 154.167 34.8998 153.961 35.3998C153.755 35.7998 153.447 36.1998 153.138 36.5998C152.829 36.9998 152.52 37.2998 152.212 37.5998C151.903 37.8998 151.697 38.1998 151.491 38.5998C151.286 38.8998 151.183 39.2998 151.183 39.5998C151.183 39.7998 151.183 39.8998 151.08 40.0998C151.08 40.1998 150.977 40.1998 150.874 40.2998C150.771 40.2998 150.771 40.3998 150.668 40.3998L148.816 40.6998C148.713 40.6998 148.61 40.6998 148.507 40.6998C148.404 40.6998 148.301 40.5998 148.301 40.5998C148.198 40.5998 148.198 40.4998 148.095 40.3998C148.095 40.2998 147.992 40.1998 147.992 40.1998C147.889 39.5998 147.992 39.0998 148.095 38.4998C148.198 37.9998 148.507 37.5998 148.713 37.0998C149.021 36.6998 149.227 36.2998 149.639 35.8998C149.948 35.4998 150.256 35.1998 150.565 34.8998C150.771 34.5998 151.08 34.2998 151.183 33.9998C151.388 33.6998 151.388 33.3998 151.388 32.9998C151.388 32.6998 151.183 32.3998 151.08 32.1998C150.874 31.9998 150.668 31.7998 150.359 31.6998C149.742 31.3998 148.918 31.2998 148.198 31.4998C147.581 31.5998 146.963 31.8998 146.448 32.2998C145.934 32.6998 145.625 33.2998 145.522 33.8998C145.522 34.0998 145.419 34.1998 145.316 34.2998C145.214 34.3998 145.008 34.4998 144.905 34.4998L142.949 34.7998C142.846 34.7998 142.641 34.7998 142.538 34.6998C142.435 34.6998 142.435 34.5998 142.435 34.4998C142.435 34.3998 142.332 34.3998 142.332 34.2998C142.229 33.6998 142.332 33.0998 142.538 32.4998C142.744 31.8998 143.155 31.2998 143.567 30.6998C144.081 30.0998 144.699 29.5998 145.316 29.2998C146.14 28.8998 146.963 28.5998 147.786 28.4998ZM150.977 41.5998C151.183 41.5998 151.286 41.5998 151.491 41.6998C151.594 41.7998 151.697 41.8998 151.8 42.0998L152.109 44.1998C152.109 44.3998 152.109 44.4998 152.006 44.6998C151.903 44.8998 151.8 44.8998 151.594 44.9998L149.536 45.2998C149.33 45.2998 149.227 45.2998 149.021 45.1998C148.918 45.0998 148.816 44.9998 148.713 44.7998L148.404 42.6998C148.404 42.4998 148.404 42.3998 148.507 42.1998C148.61 41.9998 148.713 41.9998 148.918 41.8998L150.977 41.5998Z" fill="#F3601E"/>
<g opacity="0.2">
<path d="M147.786 28.4998C148.507 28.3998 149.33 28.3998 150.051 28.4998C150.771 28.5998 151.491 28.7998 152.109 29.0998C152.726 29.3998 153.241 29.7998 153.653 30.3998C154.064 30.9998 154.373 31.5998 154.476 32.2998C154.579 32.8998 154.579 33.3998 154.476 33.9998C154.373 34.4998 154.167 34.8998 153.961 35.3998C153.755 35.7998 153.447 36.1998 153.138 36.5998C152.829 36.9998 152.52 37.2998 152.212 37.5998C151.903 37.8998 151.697 38.1998 151.491 38.5998C151.286 38.8998 151.183 39.2998 151.183 39.5998C151.183 39.7998 151.183 39.8998 151.08 40.0998C151.08 40.1998 150.977 40.1998 150.874 40.2998C150.771 40.2998 150.771 40.3998 150.668 40.3998L148.816 40.6998C148.713 40.6998 148.61 40.6998 148.507 40.6998C148.404 40.6998 148.301 40.5998 148.301 40.5998C148.198 40.5998 148.198 40.4998 148.095 40.3998C148.095 40.2998 147.992 40.1998 147.992 40.1998C147.889 39.5998 147.992 39.0998 148.095 38.4998C148.198 37.9998 148.507 37.5998 148.713 37.0998C149.021 36.6998 149.227 36.2998 149.639 35.8998C149.948 35.4998 150.256 35.1998 150.565 34.8998C150.771 34.5998 151.08 34.2998 151.183 33.9998C151.388 33.6998 151.388 33.3998 151.388 32.9998C151.388 32.6998 151.183 32.3998 151.08 32.1998C150.874 31.9998 150.668 31.7998 150.359 31.6998C149.742 31.3998 148.918 31.2998 148.198 31.4998C147.581 31.5998 146.963 31.8998 146.448 32.2998C145.934 32.6998 145.625 33.2998 145.522 33.8998C145.522 34.0998 145.419 34.1998 145.316 34.2998C145.214 34.3998 145.008 34.4998 144.905 34.4998L142.949 34.7998C142.846 34.7998 142.641 34.7998 142.538 34.6998C142.435 34.6998 142.435 34.5998 142.435 34.4998C142.435 34.3998 142.332 34.3998 142.332 34.2998C142.229 33.6998 142.332 33.0998 142.538 32.4998C142.744 31.8998 143.155 31.2998 143.567 30.6998C144.081 30.0998 144.699 29.5998 145.316 29.2998C146.14 28.8998 146.963 28.5998 147.786 28.4998ZM150.977 41.5998C151.183 41.5998 151.286 41.5998 151.491 41.6998C151.594 41.7998 151.697 41.8998 151.8 42.0998L152.109 44.1998C152.109 44.3998 152.109 44.4998 152.006 44.6998C151.903 44.8998 151.8 44.8998 151.594 44.9998L149.536 45.2998C149.33 45.2998 149.227 45.2998 149.021 45.1998C148.918 45.0998 148.816 44.9998 148.713 44.7998L148.404 42.6998C148.404 42.4998 148.404 42.3998 148.507 42.1998C148.61 41.9998 148.713 41.9998 148.918 41.8998L150.977 41.5998Z" fill="black"/>
</g>
<path d="M165.282 31.6999C165.488 31.7999 165.591 31.9999 165.591 32.1999C165.591 32.3999 165.591 32.5999 165.488 32.7999L164.047 34.7999C163.944 34.9999 163.738 35.0999 163.532 35.0999C163.327 35.0999 163.121 35.0999 162.915 34.9999L160.857 33.5999C160.651 33.4999 160.548 33.2999 160.548 33.0999C160.548 32.8999 160.548 32.6999 160.651 32.4999L162.092 30.4999C162.194 30.2999 162.4 30.1999 162.606 30.1999C162.812 30.1999 163.018 30.1999 163.224 30.2999L165.282 31.6999ZM173.824 17.9999C174.544 18.4999 175.162 19.0999 175.779 19.7999C176.294 20.3999 176.706 21.1999 177.014 21.9999C177.22 22.7999 177.323 23.5999 177.22 24.2999C177.117 25.0999 176.808 25.8999 176.294 26.5999C175.882 27.1999 175.368 27.5999 174.853 27.9999C174.339 28.2999 173.824 28.4999 173.206 28.6999C172.692 28.7999 172.074 28.8999 171.457 28.9999C170.839 28.9999 170.325 29.0999 169.81 29.0999C169.296 29.0999 168.781 29.1999 168.369 29.3999C167.958 29.4999 167.546 29.6999 167.237 29.9999C167.134 30.0999 166.929 30.1999 166.723 30.2999C166.62 30.2999 166.517 30.2999 166.414 30.2999C166.311 30.2999 166.208 30.1999 166.105 30.1999L164.356 28.9999C164.15 28.8999 164.047 28.6999 164.047 28.4999C164.047 28.3999 164.047 28.2999 164.047 28.1999C164.047 28.0999 164.15 27.9999 164.15 27.8999C164.562 27.3999 165.076 26.8999 165.694 26.5999C166.208 26.2999 166.826 26.0999 167.443 25.9999C168.061 25.8999 168.575 25.7999 169.193 25.6999C169.81 25.6999 170.325 25.5999 170.839 25.5999C171.251 25.5999 171.766 25.4999 172.177 25.2999C172.589 25.1999 172.898 24.8999 173.104 24.5999C173.309 24.2999 173.412 23.9999 173.515 23.6999C173.515 23.3999 173.515 22.9999 173.412 22.6999C173.104 21.8999 172.589 21.1999 171.869 20.7999C170.531 19.8999 169.09 19.7999 167.443 20.6999C167.237 20.7999 167.134 20.8999 166.929 20.8999C166.723 20.8999 166.517 20.7999 166.414 20.6999L164.459 19.3999C164.356 19.2999 164.253 19.1999 164.15 18.9999C164.15 18.8999 164.15 18.7999 164.15 18.7999C164.15 18.6999 164.253 18.5999 164.253 18.5999C164.664 17.9999 165.282 17.5999 166.002 17.2999C166.723 16.9999 167.546 16.6999 168.369 16.6999C169.296 16.5999 170.222 16.6999 171.148 16.8999C172.177 17.0999 173.104 17.4999 173.824 17.9999Z" fill="#F3601E"/>
<g opacity="0.6">
<path d="M165.282 31.6999C165.488 31.7999 165.591 31.9999 165.591 32.1999C165.591 32.3999 165.591 32.5999 165.488 32.7999L164.047 34.7999C163.944 34.9999 163.738 35.0999 163.532 35.0999C163.327 35.0999 163.121 35.0999 162.915 34.9999L160.857 33.5999C160.651 33.4999 160.548 33.2999 160.548 33.0999C160.548 32.8999 160.548 32.6999 160.651 32.4999L162.092 30.4999C162.194 30.2999 162.4 30.1999 162.606 30.1999C162.812 30.1999 163.018 30.1999 163.224 30.2999L165.282 31.6999ZM173.824 17.9999C174.544 18.4999 175.162 19.0999 175.779 19.7999C176.294 20.3999 176.706 21.1999 177.014 21.9999C177.22 22.7999 177.323 23.5999 177.22 24.2999C177.117 25.0999 176.808 25.8999 176.294 26.5999C175.882 27.1999 175.368 27.5999 174.853 27.9999C174.339 28.2999 173.824 28.4999 173.206 28.6999C172.692 28.7999 172.074 28.8999 171.457 28.9999C170.839 28.9999 170.325 29.0999 169.81 29.0999C169.296 29.0999 168.781 29.1999 168.369 29.3999C167.958 29.4999 167.546 29.6999 167.237 29.9999C167.134 30.0999 166.929 30.1999 166.723 30.2999C166.62 30.2999 166.517 30.2999 166.414 30.2999C166.311 30.2999 166.208 30.1999 166.105 30.1999L164.356 28.9999C164.15 28.8999 164.047 28.6999 164.047 28.4999C164.047 28.3999 164.047 28.2999 164.047 28.1999C164.047 28.0999 164.15 27.9999 164.15 27.8999C164.562 27.3999 165.076 26.8999 165.694 26.5999C166.208 26.2999 166.826 26.0999 167.443 25.9999C168.061 25.8999 168.575 25.7999 169.193 25.6999C169.81 25.6999 170.325 25.5999 170.839 25.5999C171.251 25.5999 171.766 25.4999 172.177 25.2999C172.589 25.1999 172.898 24.8999 173.104 24.5999C173.309 24.2999 173.412 23.9999 173.515 23.6999C173.515 23.3999 173.515 22.9999 173.412 22.6999C173.104 21.8999 172.589 21.1999 171.869 20.7999C170.531 19.8999 169.09 19.7999 167.443 20.6999C167.237 20.7999 167.134 20.8999 166.929 20.8999C166.723 20.8999 166.517 20.7999 166.414 20.6999L164.459 19.3999C164.356 19.2999 164.253 19.1999 164.15 18.9999C164.15 18.8999 164.15 18.7999 164.15 18.7999C164.15 18.6999 164.253 18.5999 164.253 18.5999C164.664 17.9999 165.282 17.5999 166.002 17.2999C166.723 16.9999 167.546 16.6999 168.369 16.6999C169.296 16.5999 170.222 16.6999 171.148 16.8999C172.177 17.0999 173.104 17.4999 173.824 17.9999Z" fill="white"/>
</g>
<path d="M119.073 85.1002H97.0493V33.2002C97.0493 28.7002 98.9018 24.4002 102.195 21.2002C105.488 18.0002 109.914 16.2002 114.545 16.2002H116.603C121.234 16.2002 125.66 18.0002 128.953 21.2002C132.246 24.4002 134.099 28.7002 134.099 33.2002V70.5002C134.099 72.4002 133.687 74.3002 132.967 76.1002C132.246 77.9002 131.114 79.5002 129.674 80.8002C128.336 82.1002 126.586 83.2002 124.836 84.0002C122.984 84.7002 121.029 85.1002 119.073 85.1002Z" fill="#263238"/>
<path d="M94.8882 209.9C94.4765 212 94.2707 214.2 94.2707 216.4C94.1678 220.4 93.4474 221.8 93.3444 225C93.2415 228.7 93.859 230.1 95.4028 232.2C96.9465 234.3 100.96 236.2 102.71 232.7C104.459 229.1 104.253 226.9 103.636 223.2C103.019 219.4 103.019 217.4 102.71 214.5C102.401 212 102.092 210.1 102.092 210.1L94.8882 209.9Z" fill="#263238"/>
<path d="M106.518 183.6L93.1387 183.4C93.3445 192.1 94.7853 201.7 94.9912 209.9C94.9912 211.4 94.9912 221.8 95.5057 225C96.432 229.7 102.195 229.1 102.504 226.3C102.813 223.5 102.092 211.3 102.195 210.1C102.195 204.9 104.665 196 106.003 186.7C106.003 186.1 106.415 184.1 106.518 183.6Z" fill="#FFB7AA"/>
<path d="M123.704 203.1C123.704 203.1 123.19 202.8 123.087 203.4C122.984 204.1 122.778 205.4 122.469 206.5C122.058 208 121.749 210.4 121.955 211.7C122.161 213 125.145 214.5 126.998 215C129.365 215.7 131.423 216.9 133.172 218.6C135.025 220.3 139.039 221.9 141.817 221.9C145.111 221.9 147.375 220.8 148.404 219.2C149.536 217.4 147.478 217.3 143.67 215C142.847 214.5 141.817 213.9 140.788 213.2C134.922 209.5 132.761 207.5 131.114 203.7L123.704 203.1Z" fill="#263238"/>
<path d="M131.217 200.8C131.114 198.1 132.967 175.3 132.967 175.3L120.205 180.9C122.881 196.7 123.498 200.4 123.601 203C123.498 203.2 123.498 203.4 123.498 203.7C123.498 206.8 127.1 208.4 129.879 210.5C132.246 212.3 134.716 213.9 137.392 215.3C139.45 216.3 143.464 216.4 143.979 215.1C140.582 212.6 135.642 208.8 132.967 206C131.835 204.6 131.32 203.5 131.217 200.8Z" fill="#FFB7AA"/>
<path d="M98.5928 98.8999C93.7558 109.3 93.7558 117.4 94.4762 130.7C95.1966 142.9 96.4315 153.6 96.4315 153.6C96.2257 155.8 93.1383 160 92.7266 169.6C92.3149 178.5 93.3441 189.9 93.3441 189.9C93.3441 189.9 100.342 193.6 105.385 189.9C105.385 189.9 110.325 166.9 111.766 155.7C113.001 145.9 115.265 133.5 115.265 133.5L119.896 155.7C118.867 158.8 118.147 162.1 117.735 165.3C117.118 171.9 120.823 184.8 120.823 184.8C120.823 184.8 128.027 186.9 132.349 183.1C132.349 183.1 133.996 162.1 134.613 154.2C135.437 143.6 133.687 114.8 132.349 99.5999L98.5928 98.8999Z" fill="#455A64"/>
<path d="M115.368 133.4L117.324 116.7C117.324 116.7 125.968 115.6 129.879 112C128.747 113.7 127.306 115.1 125.454 116.2C123.704 117.3 121.749 118 119.691 118.2L116.912 133.7L120.102 155.5L115.368 133.4Z" fill="#263238"/>
<path d="M150.36 94.7999C150.771 91.7999 150.874 88.6999 150.874 85.5999C150.668 82.8999 150.154 82.5 146.346 77.8C141.2 71.5 136.775 65.7999 132.144 60.0999C128.85 56.0999 125.351 55.3999 121.955 55.5999C119.588 55.6999 124.219 66.9 126.586 73.4L139.965 87.4C140.377 88 140.583 88.5999 140.48 89.2999L139.656 101.2L143.67 106.4C143.567 106.4 149.639 101.3 150.36 94.7999Z" fill="#FFB7AA"/>
<path d="M108.987 56.0001C106.415 56.2001 101.68 56.6001 101.68 56.6001C99.0047 58.1001 98.2843 59.3001 97.7697 62.8001C97.5639 64.3001 98.7988 68.3001 99.828 73.9001L101.886 84.4001L101.68 89.6001C100.651 92.8001 98.2843 96.7001 96.123 102.5C106.518 108.1 115.162 108.3 122.984 107.3C128.953 106.6 132.143 105.1 133.173 103.7C132.967 98 132.555 94.4001 132.452 88.4001C132.452 85.9001 132.555 83.3001 132.658 80.5001C136.672 77.3001 136.775 71.9001 134.511 68.5001C129.365 60.5001 124.425 55.4001 121.131 55.7001L108.987 56.0001Z" fill="#066AC9"/>
<path opacity="0.6" d="M108.987 56.0001C106.415 56.2001 101.68 56.6001 101.68 56.6001C99.0047 58.1001 98.2843 59.3001 97.7697 62.8001C97.5639 64.3001 98.7988 68.3001 99.828 73.9001L101.886 84.4001L101.68 89.6001C100.651 92.8001 98.2843 96.7001 96.123 102.5C106.518 108.1 115.162 108.3 122.984 107.3C128.953 106.6 132.143 105.1 133.173 103.7C132.967 98 132.555 94.4001 132.452 88.4001C132.452 85.9001 132.555 83.3001 132.658 80.5001C136.672 77.3001 136.775 71.9001 134.511 68.5001C129.365 60.5001 124.425 55.4001 121.131 55.7001L108.987 56.0001Z" fill="white"/>
<path opacity="0.1" d="M124.836 80.4998C124.836 80.4998 120.102 84.0998 114.751 82.1998C113.207 81.6998 111.869 80.8998 110.84 79.7998C109.708 78.6998 108.987 77.2998 108.576 75.7998C108.576 75.7998 107.958 81.7998 114.854 83.7998C121.337 85.7998 124.836 80.4998 124.836 80.4998Z" fill="black"/>
<path d="M131.217 39.5002C131.011 48.2002 128.13 50.3002 126.689 51.0002C125.248 51.6002 122.469 51.2002 119.691 50.8002V56.0002C119.691 56.0002 122.881 59.2002 122.572 61.6002C122.366 64.0002 117.632 64.3002 114.133 61.9002C112.178 60.6002 110.428 59.1002 108.885 57.3002C108.576 57.0002 108.473 56.5002 108.473 56.1002V43.8002C108.473 43.8002 106.929 45.3002 104.356 43.6002C103.739 43.2002 103.327 42.8002 102.915 42.2002C102.504 41.7002 102.298 41.0002 102.195 40.4002C102.092 39.8002 102.092 39.1002 102.298 38.5002C102.504 37.9002 102.71 37.3002 103.121 36.7002C104.253 35.4002 107.238 35.3002 108.576 37.3002C109.399 38.8002 109.502 40.3002 110.325 39.7002C112.692 38.1002 111.457 34.3002 114.236 32.4002C115.162 31.9002 116.089 31.5002 117.118 31.2002C122.161 29.5002 126.586 28.1002 127.615 24.7002C129.673 25.9002 131.526 29.2002 131.217 39.5002Z" fill="#FFB7AA"/>
<path d="M121.234 47.3001C121.852 47.3001 122.366 46.8001 122.366 46.2001C122.366 45.6001 121.852 45.1001 121.234 45.1001C120.617 45.1001 120.102 45.6001 120.102 46.2001C119.999 46.8001 120.617 47.3001 121.234 47.3001Z" fill="#B16668"/>
<path d="M120.411 38.2C120.411 38.4 120.308 38.7 120.205 38.9C120.102 39.1 119.896 39.3 119.69 39.3C119.485 39.4 119.176 39.4 118.97 39.4C118.764 39.4 118.558 39.3 118.353 39.1C118.147 38.9 118.044 38.7 118.044 38.5C117.941 38.3 118.044 38 118.044 37.8C118.147 37.6 118.25 37.4 118.455 37.2C118.661 37.1 118.867 37 119.176 37C119.382 37 119.485 37 119.69 37.1C119.896 37.2 119.999 37.2 120.102 37.4C120.205 37.5 120.308 37.6 120.411 37.8C120.411 37.9 120.411 38 120.411 38.2Z" fill="#263238"/>
<path d="M129.879 38.3002C129.879 38.4002 129.879 38.6002 129.776 38.7002C129.776 38.8002 129.674 39.0002 129.571 39.1002C129.468 39.2002 129.365 39.3002 129.262 39.4002C129.159 39.5002 128.953 39.5002 128.85 39.5002C128.747 39.5002 128.541 39.5002 128.439 39.4002C128.336 39.4002 128.13 39.3002 128.027 39.2002C127.924 39.1002 127.821 39.0002 127.718 38.8002C127.615 38.7002 127.615 38.5002 127.615 38.4002C127.615 38.3002 127.615 38.1002 127.718 38.0002C127.718 37.9002 127.821 37.7002 127.924 37.6002C128.027 37.5002 128.13 37.4002 128.233 37.3002C128.336 37.2002 128.541 37.2002 128.644 37.2002C128.747 37.2002 128.953 37.2002 129.056 37.3002C129.159 37.4002 129.365 37.4002 129.468 37.5002C129.571 37.6002 129.674 37.7002 129.776 37.9002C129.776 38.0002 129.879 38.2002 129.879 38.3002Z" fill="#263238"/>
<path d="M118.867 41.3002C117.838 41.3002 116.809 40.9002 115.986 40.2002C115.265 39.5002 114.854 38.5002 114.854 37.4002C114.854 34.7002 117.632 34.7002 118.867 34.7002C120.102 34.7002 122.881 34.7002 122.881 37.4002C122.881 38.4002 122.469 39.4002 121.749 40.2002C120.926 40.9002 119.896 41.3002 118.867 41.3002ZM118.867 35.3002C116.397 35.3002 115.471 35.9002 115.471 37.3002C115.471 38.2002 115.883 39.0002 116.5 39.6002C117.118 40.2002 118.044 40.6002 118.867 40.6002C119.793 40.6002 120.617 40.3002 121.234 39.6002C121.852 39.0002 122.263 38.2002 122.263 37.3002C122.263 35.9002 121.337 35.3002 118.867 35.3002Z" fill="#455A64"/>
<path d="M129.056 41.3002C128.027 41.3002 126.998 40.9002 126.175 40.2002C125.454 39.5002 125.042 38.5002 125.042 37.4002C125.042 34.7002 127.821 34.7002 129.056 34.7002C130.291 34.7002 133.07 34.7002 133.07 37.4002C133.07 38.4002 132.658 39.4002 131.938 40.2002C131.217 40.9002 130.188 41.3002 129.056 41.3002ZM129.056 35.3002C126.586 35.3002 125.66 35.9002 125.66 37.3002C125.66 38.2002 125.969 39.0002 126.689 39.6002C127.307 40.2002 128.233 40.6002 129.056 40.6002C129.982 40.6002 130.806 40.3002 131.423 39.6002C132.041 39.0002 132.452 38.1002 132.452 37.3002C132.452 35.9002 131.526 35.3002 129.056 35.3002Z" fill="#455A64"/>
<path d="M123.499 36.1001L123.704 43.4001L127.718 42.2001L123.499 36.1001Z" fill="#F28F8F"/>
<path d="M119.691 50.8C116.809 50.4 110.84 48.8 110.017 46.5C110.428 47.7 111.149 48.7 112.075 49.4C113.824 50.9 119.691 52.5 119.691 52.5V50.8Z" fill="#F28F8F"/>
<path d="M119.794 32.5999L117.118 34.1999C116.912 33.7999 116.809 33.3999 116.912 32.9999C117.015 32.5999 117.221 32.2999 117.632 32.0999C117.838 31.9999 118.044 31.8999 118.25 31.8999C118.456 31.8999 118.662 31.8999 118.867 31.8999C119.073 31.9999 119.279 31.9999 119.382 32.1999C119.588 32.1999 119.691 32.3999 119.794 32.5999Z" fill="#263238"/>
<path d="M130.497 34.3002L127.615 33.3002C127.718 33.1002 127.718 32.9002 127.924 32.8002C128.027 32.6002 128.233 32.5002 128.439 32.4002C128.644 32.3002 128.85 32.3002 129.056 32.2002C129.262 32.2002 129.468 32.2002 129.674 32.3002C130.085 32.4002 130.394 32.7002 130.6 33.1002C130.6 33.5002 130.6 33.9002 130.497 34.3002Z" fill="#263238"/>
<path d="M122.572 37.7001C122.469 37.7001 122.367 37.7001 122.367 37.6001C122.264 37.5001 122.264 37.5001 122.264 37.4001C122.264 36.9001 123.293 36.6001 124.219 36.6001C125.145 36.6001 125.763 36.9001 125.763 37.4001C125.763 37.5001 125.763 37.6001 125.66 37.6001C125.557 37.7001 125.557 37.7001 125.454 37.7001C125.351 37.7001 125.248 37.7001 125.248 37.6001C125.145 37.5001 125.145 37.5001 125.145 37.4001C124.939 37.2001 124.631 37.2001 124.322 37.2001C123.91 37.2001 123.396 37.3001 122.984 37.4001V37.5001C122.984 37.5001 122.984 37.6001 122.881 37.6001L122.778 37.7001C122.675 37.7001 122.572 37.7001 122.572 37.7001Z" fill="#455A64"/>
<path d="M115.162 37.4001L108.061 36.8001C107.753 36.5001 107.341 36.2001 106.929 36.1001L115.265 36.8001C115.368 36.8001 115.471 36.8001 115.471 36.9001C115.574 37.0001 115.574 37.0001 115.574 37.1001C115.574 37.2001 115.574 37.3001 115.471 37.3001C115.265 37.4001 115.265 37.4001 115.162 37.4001Z" fill="#455A64"/>
<path d="M86.0374 44.5999C88.4045 41.5999 89.9482 39.2999 92.0065 36.6999C93.2415 35.1999 93.9619 34.1999 95.094 32.6999C95.9173 31.6999 96.329 30.7999 97.2552 30.4999C98.2844 30.0999 99.1077 29.4999 99.8281 28.7999C100.24 28.2999 100.651 27.7999 101.063 27.2999C102.401 25.5999 103.945 23.9999 105.694 22.6999C107.547 21.2999 109.605 20.2999 111.56 18.9999C112.693 18.1999 113.928 16.8999 112.487 15.6999C112.075 15.3999 111.56 15.0999 111.046 14.9999C107.65 14.2999 104.768 15.3999 101.475 16.1999C100.034 16.4999 98.5931 16.9999 97.2552 17.5999C96.5348 17.8999 95.9173 18.1999 95.4027 18.5999C94.5794 19.3999 93.9619 20.2999 93.4474 21.2999C92.0065 23.7999 88.9191 26.0999 86.7579 28.0999C84.185 30.3999 81.9208 32.4999 79.0392 35.0999C76.4663 37.3999 73.8934 39.4999 71.5264 41.9999C69.571 44.0999 70.2914 45.6999 70.6001 46.2999C72.2468 49.4999 73.9963 50.6999 76.1576 52.6999C79.8625 56.1999 92.727 66.0999 97.0494 69.3999C97.9756 70.0999 98.696 70.9999 99.1077 72.0999L99.931 73.8999C104.768 74.7999 108.061 67.6999 104.048 59.0999C103.43 57.6999 102.401 56.4999 101.063 55.5999C96.0202 51.9999 86.0374 44.5999 86.0374 44.5999Z" fill="#FFB7AA"/>
<path d="M86.0375 44.6001C84.4937 46.4001 82.4354 47.8001 80.0684 48.6001C80.0684 48.6001 83.1558 49.4001 87.3754 45.7001L86.0375 44.6001Z" fill="#F28F8F"/>
<path d="M149.124 88.5002L148.301 87.8002C148.198 87.7002 148.095 87.7002 147.89 87.7002C147.787 87.7002 147.581 87.7002 147.478 87.8002L138.833 90.1002C138.421 90.2002 138.01 90.5002 137.701 90.8002C137.392 91.1002 137.083 91.5002 136.98 91.9002L130.806 109.3C130.703 109.4 130.703 109.6 130.703 109.8C130.703 110 130.806 110.1 130.908 110.2L131.732 110.9C131.835 111 131.938 111 132.143 111C132.246 111 132.452 111 132.555 110.9L141.2 108.6C141.612 108.5 142.023 108.2 142.332 107.9C142.641 107.6 142.95 107.2 143.052 106.8C144.287 103.4 147.992 92.8002 149.227 89.4002C149.33 89.0002 149.33 88.6002 149.124 88.5002Z" fill="#455A64"/>
<path d="M131.526 109.8L137.701 92.4C137.907 92 138.113 91.6 138.421 91.3C138.73 91 139.142 90.8 139.553 90.6L148.198 88.3C149.022 88.1 149.433 88.5 149.125 89.3C147.89 92.7 144.185 103.3 142.95 106.7C142.744 107.1 142.538 107.5 142.229 107.8C141.92 108.1 141.509 108.3 141.097 108.5L132.452 110.8C131.732 111 131.217 110.6 131.526 109.8Z" fill="#066AC9"/>
<path d="M138.73 91.2001C138.318 91.5001 137.907 92.0001 137.701 92.5001L131.526 109.9C131.423 110 131.423 110.2 131.423 110.3C131.423 110.5 131.526 110.6 131.629 110.7L130.908 110.1C130.806 110 130.703 109.8 130.703 109.7C130.703 109.5 130.703 109.4 130.806 109.2L136.98 91.8001C137.186 91.3001 137.495 90.9001 137.907 90.6001L138.73 91.2001Z" fill="#37474F"/>
<path d="M146.757 96.4001C146.14 98.2001 143.979 99.4001 140.48 100.2C136.877 101 134.922 104.7 135.54 105.8C136.157 106.9 141.817 108 144.184 107.6C146.449 107.3 148.816 104.1 149.536 103.1C150.256 102.1 151.08 95.1001 150.256 94.2001C149.536 93.2001 147.992 93.4001 147.992 93.4001L146.757 96.4001Z" fill="#F28F8F"/>
<path d="M225.076 68.7C224.973 67.7 221.166 54.7 209.022 60.7C196.569 66.9 198.73 81.8 199.656 84.1C200.788 86.9 207.581 94.6 216.946 87.4C225.282 81.1 225.694 72.4 225.076 68.7Z" fill="#055AAA"/>
<path d="M212.521 79.0999L212.315 76.1999L221.166 73.0999C221.166 73.0999 221.268 82.3999 214.27 84.8999C206.654 87.6999 204.39 79.4999 206.14 74.7999C207.889 70.0999 211.594 67.2999 214.682 66.9999C217.769 66.6999 219.828 68.6999 220.136 70.0999L217.461 71.1999C217.461 71.1999 215.917 68.8999 212.829 70.3999C209.742 71.8999 207.787 76.4999 209.433 79.8999C211.08 83.2999 216.534 82.3999 218.387 76.9999L212.521 79.0999Z" fill="white"/>
<path d="M214.476 66.4998L213.858 65.2998C213.858 65.2998 210.05 65.6998 208.198 68.5998L208.609 69.7998C208.506 69.8998 210.359 67.3998 214.476 66.4998Z" fill="white"/>
<path d="M214.579 65.1L215.814 63.3L209.742 63L205.11 69.6L206.242 69.3L206.345 71.3C206.345 71.3 205.831 71.6 205.934 72.1C206.037 72.6 206.654 72.4 206.654 72.4C206.654 72.4 206.963 72.3 207.066 71.9C207.169 71.4 206.654 71.3 206.654 71.3L206.551 69.2L207.169 69C207.169 69 208.815 66.4 210.977 65.4C213.035 64.5 214.579 65.1 214.579 65.1Z" fill="white"/>
</g>
<defs>
<clipPath id="clip0_2902_660">
<rect width="292.28" height="265" fill="white"/>
</clipPath>
</defs>
</svg>
