<svg width="14" height="16" viewBox="0 0 14 16" fill="none" xmlns="http://www.w3.org/2000/svg">
<path d="M13.9416 10.896C13.9022 10.7991 13.847 10.7098 13.7783 10.632L11.4443 8.232C11.2978 8.08136 11.0991 7.99673 10.8919 7.99673C10.6847 7.99673 10.486 8.08136 10.3395 8.232C10.193 8.38264 10.1107 8.58696 10.1107 8.8C10.1107 9.01304 10.193 9.21736 10.3395 9.368L11.3509 10.4H7.00194C6.7956 10.4 6.59772 10.4843 6.45182 10.6343C6.30591 10.7843 6.22395 10.9878 6.22395 11.2C6.22395 11.4122 6.30591 11.6157 6.45182 11.7657C6.59772 11.9157 6.7956 12 7.00194 12H11.3509L10.3395 13.032C10.2666 13.1064 10.2087 13.1949 10.1692 13.2923C10.1297 13.3898 10.1094 13.4944 10.1094 13.6C10.1094 13.7056 10.1297 13.8102 10.1692 13.9077C10.2087 14.0051 10.2666 14.0936 10.3395 14.168C10.4119 14.243 10.4979 14.3025 10.5927 14.3431C10.6875 14.3837 10.7892 14.4046 10.8919 14.4046C10.9946 14.4046 11.0963 14.3837 11.1911 14.3431C11.2859 14.3025 11.372 14.243 11.4443 14.168L13.7783 11.768C13.8503 11.6929 13.906 11.6029 13.9416 11.504C14.0195 11.3092 14.0195 11.0908 13.9416 10.896ZM8.55793 14.4H2.33398C2.12764 14.4 1.92976 14.3157 1.78386 14.1657C1.63795 14.0157 1.55599 13.8122 1.55599 13.6V2.4C1.55599 2.18783 1.63795 1.98434 1.78386 1.83431C1.92976 1.68429 2.12764 1.6 2.33398 1.6H6.22395V4C6.22395 4.63652 6.46985 5.24697 6.90755 5.69706C7.34526 6.14714 7.93892 6.4 8.55793 6.4H11.6699C11.8235 6.39921 11.9734 6.35169 12.1008 6.26342C12.2282 6.17516 12.3273 6.0501 12.3857 5.904C12.4452 5.75831 12.4615 5.59774 12.4324 5.44255C12.4034 5.28736 12.3302 5.1445 12.2223 5.032L7.55431 0.232C7.49 0.169773 7.41647 0.118465 7.33648 0.0799999H7.26646L7.04862 0H2.33398C1.71497 0 1.12131 0.252856 0.683607 0.702944C0.245901 1.15303 0 1.76348 0 2.4V13.6C0 14.2365 0.245901 14.847 0.683607 15.2971C1.12131 15.7471 1.71497 16 2.33398 16H8.55793C8.76426 16 8.96215 15.9157 9.10805 15.7657C9.25395 15.6157 9.33592 15.4122 9.33592 15.2C9.33592 14.9878 9.25395 14.7843 9.10805 14.6343C8.96215 14.4843 8.76426 14.4 8.55793 14.4ZM7.77993 2.728L9.79494 4.8H8.55793C8.35159 4.8 8.1537 4.71571 8.0078 4.56569C7.8619 4.41566 7.77993 4.21217 7.77993 4V2.728Z" fill="#066AC9"/>
</svg>
