<svg width="59" height="78" viewBox="0 0 59 78" fill="none" xmlns="http://www.w3.org/2000/svg">
<path d="M43.3566 53.0506C42.9664 52.8222 42.5403 52.664 42.0971 52.5832C42.2565 51.0334 41.5286 49.4578 40.1173 48.6297C39.5077 48.2721 38.8221 48.0934 38.1357 48.0911C38.0658 46.655 37.3043 45.2785 36.0024 44.5145C35.4633 44.1985 34.8625 44.0068 34.2425 43.953L38.5233 36.4166C39.087 35.4246 39.2358 34.2656 38.9426 33.1534C38.6495 32.0408 37.9503 31.1126 36.9739 30.5397C35.9977 29.9669 34.8575 29.8155 33.7628 30.1135C32.6684 30.4114 31.7552 31.1221 31.1917 32.1144L24.6064 43.7073C23.0885 42.8573 21.4984 42.6053 19.9982 42.978C18.4157 43.3716 17.1029 44.4182 16.2016 46.0048C16.1839 46.0363 16.1674 46.0685 16.1523 46.1014L13.9108 51.0039C12.9611 53.0809 13.1428 55.4772 14.4229 57.7511L16.186 60.8829C16.4264 61.3101 16.4255 61.7609 16.1836 62.1869L14.3178 65.4716C14.2382 65.6114 14.1865 65.7659 14.1657 65.926C14.1449 66.0862 14.1554 66.249 14.1965 66.405C14.2376 66.5611 14.3086 66.7074 14.4055 66.8355C14.5023 66.9637 14.623 67.0711 14.7607 67.1518L31.49 76.9688C31.6276 77.0496 31.7795 77.102 31.9371 77.1231C32.0947 77.1442 32.2548 77.1336 32.4083 77.0918C32.5618 77.05 32.7057 76.9778 32.8318 76.8795C32.9579 76.7811 33.0637 76.6585 33.1431 76.5186L35.0093 73.2336C35.1273 73.0259 35.2802 72.8644 35.4637 72.7537C36.7602 71.973 37.7152 70.9912 38.4688 69.6643L44.799 58.5203C45.885 56.6085 45.238 54.1549 43.3566 53.0506ZM42.7029 57.2904L36.3727 68.4344C35.8277 69.3937 35.1668 70.0732 34.2295 70.6378C33.6915 70.9619 33.2363 71.4345 32.913 72.004L31.6521 74.2235L17.019 65.6366L18.2799 63.4171C18.9468 62.2426 18.9496 60.8386 18.2868 59.6615L16.5238 56.5297C15.9019 55.4249 15.3245 53.7493 16.1059 52.0409L18.3236 47.1904C18.8848 46.2242 19.6619 45.5944 20.5735 45.3678C21.4591 45.1475 22.432 45.3105 23.3959 45.8386L20.7776 50.448C20.6171 50.7305 20.5736 51.0663 20.6567 51.3814C20.7398 51.6965 20.9426 51.9651 21.2205 52.1283C21.4985 52.2913 21.8288 52.3354 22.1388 52.251C22.4488 52.1666 22.7131 51.9605 22.8737 51.6781L33.2881 33.3446C33.5284 32.9215 33.9196 32.6178 34.3894 32.4899C34.8591 32.3621 35.3472 32.4261 35.7639 32.6704C36.1802 32.9147 36.4789 33.3123 36.6048 33.7901C36.7307 34.2676 36.6676 34.7638 36.4274 35.1868L30.5259 45.5758C30.377 45.8388 30.3289 46.1484 30.3909 46.4452C30.4529 46.7419 30.6206 47.0049 30.8619 47.1837C31.1031 47.3624 31.4008 47.4442 31.6977 47.4134C31.9947 47.3826 32.27 47.2414 32.4707 47.0168C33.0589 46.3572 34.0349 46.2009 34.7923 46.6452C35.6675 47.1587 35.9821 48.3079 35.4937 49.2069C35.3625 49.4484 35.3149 49.7276 35.3587 49.9998C35.4024 50.272 35.5349 50.5214 35.7348 50.7079C35.9347 50.8944 36.1904 51.0072 36.461 51.0282C36.7315 51.0492 37.0011 50.9772 37.2265 50.8237C37.7294 50.4812 38.3891 50.4566 38.9071 50.7606C39.6635 51.2043 39.9235 52.1907 39.4871 52.9593L39.2603 53.3585C39.1333 53.5821 39.0788 53.8406 39.1044 54.0975C39.1301 54.3544 39.2346 54.5965 39.4032 54.7897C39.5718 54.9828 39.7959 55.1171 40.0437 55.1736C40.2916 55.2301 40.5507 55.2059 40.7843 55.1043C41.2339 54.9089 41.7302 54.9372 42.1465 55.1815C42.8721 55.607 43.1217 56.5532 42.7029 57.2904ZM44.1659 0.871094C35.9864 0.871094 29.3317 7.63462 29.3317 15.9483C29.3317 24.2619 35.9862 31.0254 44.1659 31.0254C52.3453 31.0254 59 24.2619 59 15.9483C59 7.63462 52.3455 0.871094 44.1659 0.871094ZM44.1659 28.5651C37.3209 28.5651 31.7521 22.9051 31.7521 15.9482C31.7521 8.99105 37.3209 3.33102 44.1659 3.33102C51.0108 3.33102 56.5796 8.99105 56.5796 15.9482C56.5796 22.9053 51.0108 28.5651 44.1659 28.5651ZM21.4645 22.3637C21.4645 16.349 16.65 11.4556 10.7322 11.4556C4.81439 11.4556 0 16.349 0 22.3637C0 28.3785 4.81439 33.2719 10.7322 33.2719C16.65 33.2719 21.4645 28.3785 21.4645 22.3637ZM10.7322 30.8118C6.14896 30.8118 2.42043 27.0221 2.42043 22.3637C2.42043 17.7054 6.14896 13.9157 10.7322 13.9157C15.3154 13.9157 19.0441 17.7054 19.0441 22.3637C19.0441 27.0221 15.3153 30.8118 10.7322 30.8118Z" fill="#747579"/>
<path d="M36.2959 16.0582L40.7721 21.5949L52.6075 12.4766" stroke="#F3601E" stroke-width="3" stroke-linecap="round" stroke-linejoin="round"/>
<rect x="6.11938" y="15.1094" width="9.78697" height="2.41304" rx="1.20652" fill="#F3601E"/>
</svg>
