<svg width="37" height="18" viewBox="0 0 37 18" fill="none" xmlns="http://www.w3.org/2000/svg">
<path fill-rule="evenodd" clip-rule="evenodd" d="M37 18V0H0V18H37Z" fill="#234C8B"/>
<path fill-rule="evenodd" clip-rule="evenodd" d="M18.5 9.35411V0H0V9.3471L18.5 9.35411Z" fill="white"/>
<path fill-rule="evenodd" clip-rule="evenodd" d="M8.31777 3.98286V0H0V3.98286H8.31777ZM8.31777 5.38527V9.35411H0V5.38527H8.31777ZM10.1822 3.98286V0H18.5V3.98286H10.1822ZM10.1822 5.38527V9.35411H18.5V5.38527H10.1822Z" fill="#234C8B"/>
<path fill-rule="evenodd" clip-rule="evenodd" d="M5.48496 3.98286H8.31777V3.51305L1.30801 0H0V1.2201L5.48496 3.98286Z" fill="white"/>
<path fill-rule="evenodd" clip-rule="evenodd" d="M18.5 5.15388V4.23529H0V5.15388H18.5ZM0 0.87651V0L7.82637 3.98286H6.19316L0 0.87651Z" fill="#CC202A"/>
<path fill-rule="evenodd" clip-rule="evenodd" d="M5.50664 5.38527H8.31777V5.91118L2.21855 9.3471H0V8.44955L5.50664 5.38527ZM13.015 3.98286H10.1822V3.51305L17.192 0H18.5V1.2201L13.015 3.98286ZM12.9861 5.38527H10.175V5.91118L16.2742 9.3471H18.5V8.44955L12.9861 5.38527Z" fill="white"/>
<path fill-rule="evenodd" clip-rule="evenodd" d="M17.0691 9.35411L10.175 5.38527H11.3963L18.4928 9.35411H17.0691ZM9.80645 9.35411V0H8.70078V9.3471L9.80645 9.35411ZM1.42363 9.35411L8.31777 5.38527H7.09648L0 9.35411H1.42363ZM18.5 0.87651V0L10.6736 3.98286H12.2996L18.5 0.87651Z" fill="#CC202A"/>
<path fill-rule="evenodd" clip-rule="evenodd" d="M28.4221 15.0469L28.5955 15.5097L29.0725 15.3554L28.8123 15.7762L29.2314 16.0426L28.7328 16.1057L28.7834 16.5966L28.4221 16.253L28.0607 16.5966L28.1113 16.1057L27.6127 16.0426L28.0318 15.7762L27.7717 15.3554L28.2486 15.5097L28.4221 15.0469ZM9.75586 12.186L10.1027 13.1046L11.0566 12.796L10.5363 13.6375L11.3818 14.1774L10.3846 14.3036L10.4785 15.2783L9.75586 14.5981L9.0332 15.2783L9.12715 14.3036L8.12988 14.1774L8.97539 13.6375L8.45508 12.796L9.40898 13.1046L9.75586 12.186ZM24.6787 7.50893L24.8521 7.97173L25.3291 7.81746L25.0689 8.23819L25.4881 8.50465L24.9895 8.56776L25.04 9.0586L24.6787 8.71501L24.3174 9.0586L24.368 8.56776L23.8693 8.50465L24.2885 8.23819L24.0283 7.81746L24.5053 7.97173L24.6787 7.50893ZM28.5594 1.63281L28.7328 2.09561L29.2098 1.94134L28.9496 2.36207L29.3687 2.62853L28.8701 2.69164L28.9207 3.18248L28.5594 2.83889L28.198 3.18248L28.2486 2.69164L27.75 2.62853L28.1691 2.36207L27.909 1.94134L28.3859 2.09561L28.5594 1.63281ZM32.7363 6.10652L32.9098 6.56931L33.3867 6.41505L33.1266 6.83577L33.5457 7.10223L33.0471 7.16534L33.0977 7.65619L32.7363 7.31259L32.375 7.65619L32.4256 7.16534L31.927 7.10223L32.3461 6.83577L32.0859 6.41505L32.5629 6.56931L32.7363 6.10652ZM30.8502 10.1244L30.9586 10.4119H31.2693L31.0236 10.6013L31.1104 10.8958L30.8502 10.7275L30.59 10.8958L30.6768 10.6013L30.4311 10.4119H30.7418L30.8502 10.1244Z" fill="white"/>
</svg>
