<svg width="43" height="21" viewBox="0 0 43 21" fill="none" xmlns="http://www.w3.org/2000/svg">
<path fill-rule="evenodd" clip-rule="evenodd" d="M43 21V0H0V21H43Z" fill="#234C8B"/>
<path fill-rule="evenodd" clip-rule="evenodd" d="M21.5 10.9131V0H0V10.9049L21.5 10.9131Z" fill="white"/>
<path fill-rule="evenodd" clip-rule="evenodd" d="M9.6666 4.64667V0H0V4.64667H9.6666ZM9.6666 6.28282V10.9131H0V6.28282H9.6666ZM11.8334 4.64667V0H21.5V4.64667H11.8334ZM11.8334 6.28282V10.9131H21.5V6.28282H11.8334Z" fill="#234C8B"/>
<path fill-rule="evenodd" clip-rule="evenodd" d="M6.37441 4.64667H9.6666V4.09856L1.52012 0H0V1.42345L6.37441 4.64667Z" fill="white"/>
<path fill-rule="evenodd" clip-rule="evenodd" d="M21.5 6.01286V4.94118H0V6.01286H21.5ZM0 1.02259V0L9.09551 4.64667H7.19746L0 1.02259Z" fill="#CC202A"/>
<path fill-rule="evenodd" clip-rule="evenodd" d="M6.39961 6.28282H9.6666V6.89638L2.57832 10.9049H0V9.85781L6.39961 6.28282ZM15.1256 4.64667H11.8334V4.09856L19.9799 0H21.5V1.42345L15.1256 4.64667ZM15.092 6.28282H11.825V6.89638L18.9133 10.9049H21.5V9.85781L15.092 6.28282Z" fill="white"/>
<path fill-rule="evenodd" clip-rule="evenodd" d="M19.8371 10.9131L11.825 6.28282H13.2443L21.4916 10.9131H19.8371ZM11.3967 10.9131V0H10.1117V10.9049L11.3967 10.9131ZM1.65449 10.9131L9.6666 6.28282H8.24727L0 10.9131H1.65449ZM21.5 1.02259V0L12.4045 4.64667H14.2941L21.5 1.02259Z" fill="#CC202A"/>
<path fill-rule="evenodd" clip-rule="evenodd" d="M33.0311 17.556L33.2326 18.096L33.7869 17.916L33.4846 18.4068L33.9717 18.7177L33.3922 18.7913L33.451 19.364L33.0311 18.9631L32.6111 19.364L32.6699 18.7913L32.0904 18.7177L32.5775 18.4068L32.2752 17.916L32.8295 18.096L33.0311 17.556ZM11.3379 14.2183L11.741 15.29L12.8496 14.93L12.2449 15.9117L13.2275 16.5416L12.0686 16.6889L12.1777 17.826L11.3379 17.0325L10.498 17.826L10.6072 16.6889L9.44824 16.5416L10.4309 15.9117L9.82617 14.93L10.9348 15.29L11.3379 14.2183ZM28.6807 8.76172L28.8822 9.30165L29.4365 9.12168L29.1342 9.61252L29.6213 9.92339L29.0418 9.99702L29.1006 10.5697L28.6807 10.1688L28.2607 10.5697L28.3195 9.99702L27.74 9.92339L28.2271 9.61252L27.9248 9.12168L28.4791 9.30165L28.6807 8.76172ZM33.1906 1.90625L33.3922 2.44618L33.9465 2.2662L33.6441 2.75705L34.1313 3.06792L33.5518 3.14154L33.6105 3.7142L33.1906 3.31334L32.7707 3.7142L32.8295 3.14154L32.25 3.06792L32.7371 2.75705L32.4348 2.2662L32.9891 2.44618L33.1906 1.90625ZM38.0449 7.12557L38.2465 7.6655L38.8008 7.48553L38.4984 7.97637L38.9855 8.28724L38.4061 8.36087L38.4648 8.93352L38.0449 8.53266L37.625 8.93352L37.6838 8.36087L37.1043 8.28724L37.5914 7.97637L37.2891 7.48553L37.8434 7.6655L38.0449 7.12557ZM35.8529 11.8131L35.9789 12.1486H36.34L36.0545 12.3694L36.1553 12.713L35.8529 12.5167L35.5506 12.713L35.6514 12.3694L35.3658 12.1486H35.727L35.8529 11.8131Z" fill="white"/>
</svg>
