<svg width="13" height="16" viewBox="0 0 13 16" fill="none" xmlns="http://www.w3.org/2000/svg">
<path d="M12.0969 5.71516L11.8239 13.5151C11.8006 14.1831 11.5025 14.8163 10.9927 15.2802C10.4829 15.7442 9.80167 16.0024 9.09351 16H3.9058C3.1981 16.0024 2.51724 15.7446 2.00754 15.2812C1.49784 14.8178 1.19938 14.1853 1.17543 13.5177L0.902389 5.71516C0.896415 5.54429 0.962602 5.37818 1.08639 5.25338C1.21018 5.12857 1.38142 5.05529 1.56246 5.04965C1.74349 5.04401 1.91949 5.10648 2.05172 5.22331C2.18396 5.34014 2.2616 5.50177 2.26758 5.67264L2.54061 13.4745C2.55421 13.8076 2.70402 14.1227 2.95859 14.3537C3.21315 14.5847 3.55266 14.7137 3.9058 14.7134H9.09351C9.44711 14.7136 9.78701 14.5844 10.0416 14.3528C10.2963 14.1212 10.4458 13.8055 10.4587 13.4719L10.7317 5.67264C10.7377 5.50177 10.8154 5.34014 10.9476 5.22331C11.0798 5.10648 11.2558 5.04401 11.4369 5.04965C11.6179 5.05529 11.7891 5.12857 11.9129 5.25338C12.0367 5.37818 12.1029 5.54429 12.0969 5.71516ZM13 3.11947C13 3.29034 12.9281 3.4542 12.8001 3.57503C12.6721 3.69585 12.4984 3.76372 12.3174 3.76372H0.682594C0.501559 3.76372 0.327938 3.69585 0.199927 3.57503C0.0719157 3.4542 0 3.29034 0 3.11947C0 2.9486 0.0719157 2.78474 0.199927 2.66392C0.327938 2.5431 0.501559 2.47522 0.682594 2.47522H2.79863C3.01491 2.47577 3.22367 2.40035 3.38429 2.26364C3.5449 2.12694 3.64588 1.93872 3.66758 1.73562C3.71795 1.25919 3.95444 0.817517 4.33099 0.496665C4.70753 0.175812 5.19714 -0.0012391 5.70444 6.52812e-06H7.29488C7.80217 -0.0012391 8.29179 0.175812 8.66833 0.496665C9.04487 0.817517 9.28137 1.25919 9.33174 1.73562C9.35343 1.93872 9.45442 2.12694 9.61503 2.26364C9.77565 2.40035 9.9844 2.47577 10.2007 2.47522H12.3167C12.4978 2.47522 12.6714 2.5431 12.7994 2.66392C12.9274 2.78474 13 2.9486 13 3.11947ZM4.85256 2.47522H8.14812C8.05842 2.28178 7.99976 2.0768 7.97406 1.86705C7.95715 1.70824 7.87839 1.56102 7.75304 1.4539C7.62768 1.34677 7.46466 1.28738 7.29556 1.28722H5.70512C5.53602 1.28738 5.373 1.34677 5.24765 1.4539C5.12229 1.56102 5.04353 1.70824 5.02662 1.86705C5.0007 2.07684 4.94249 2.28181 4.85256 2.47522ZM5.53993 12.2363V6.75047C5.53993 6.5796 5.46802 6.41574 5.34 6.29492C5.21199 6.1741 5.03837 6.10622 4.85734 6.10622C4.6763 6.10622 4.50268 6.1741 4.37467 6.29492C4.24666 6.41574 4.17474 6.5796 4.17474 6.75047V12.2388C4.17474 12.4097 4.24666 12.5736 4.37467 12.6944C4.50268 12.8152 4.6763 12.8831 4.85734 12.8831C5.03837 12.8831 5.21199 12.8152 5.34 12.6944C5.46802 12.5736 5.53993 12.4097 5.53993 12.2388V12.2363ZM8.82594 12.2363V6.75047C8.82594 6.5796 8.75402 6.41574 8.62601 6.29492C8.498 6.1741 8.32438 6.10622 8.14334 6.10622C7.96231 6.10622 7.78869 6.1741 7.66068 6.29492C7.53267 6.41574 7.46075 6.5796 7.46075 6.75047V12.2388C7.46075 12.4097 7.53267 12.5736 7.66068 12.6944C7.78869 12.8152 7.96231 12.8831 8.14334 12.8831C8.32438 12.8831 8.498 12.8152 8.62601 12.6944C8.75402 12.5736 8.82594 12.4097 8.82594 12.2388V12.2363Z" fill="#747579"/>
</svg>
