<svg width="14" height="13" viewBox="0 0 14 13" fill="none" xmlns="http://www.w3.org/2000/svg">
<path d="M7.64561 6.49931L12.7612 1.39184C12.9141 1.23894 13 1.03156 13 0.815321C13 0.599084 12.9141 0.391704 12.7612 0.238802C12.6083 0.0858997 12.4009 0 12.1847 0C11.9684 0 11.7611 0.0858997 11.6082 0.238802L6.50069 5.35439L1.39322 0.238802C1.24032 0.0858997 1.03294 1.91984e-07 0.816706 1.93595e-07C0.60047 1.95207e-07 0.39309 0.0858997 0.240188 0.238802C0.0872854 0.391704 0.00138595 0.599084 0.00138595 0.815321C0.00138595 1.03156 0.0872854 1.23894 0.240188 1.39184L5.35578 6.49931L0.240188 11.6068C0.16408 11.6823 0.103673 11.7721 0.0624485 11.871C0.0212244 11.97 0 12.0761 0 12.1833C0 12.2905 0.0212244 12.3966 0.0624485 12.4956C0.103673 12.5945 0.16408 12.6843 0.240188 12.7598C0.315673 12.8359 0.405481 12.8963 0.504431 12.9376C0.60338 12.9788 0.709513 13 0.816706 13C0.9239 13 1.03003 12.9788 1.12898 12.9376C1.22793 12.8963 1.31774 12.8359 1.39322 12.7598L6.50069 7.64422L11.6082 12.7598C11.6836 12.8359 11.7735 12.8963 11.8724 12.9376C11.9714 12.9788 12.0775 13 12.1847 13C12.2919 13 12.398 12.9788 12.497 12.9376C12.5959 12.8963 12.6857 12.8359 12.7612 12.7598C12.8373 12.6843 12.8977 12.5945 12.9389 12.4956C12.9802 12.3966 13.0014 12.2905 13.0014 12.1833C13.0014 12.0761 12.9802 11.97 12.9389 11.871C12.8977 11.7721 12.8373 11.6823 12.7612 11.6068L7.64561 6.49931Z" fill="#747579"/>
</svg>
