<svg width="14" height="14" viewBox="0 0 14 14" fill="none" xmlns="http://www.w3.org/2000/svg">
<path d="M8.8668 6.06589H9.80013C10.0577 6.06589 10.2668 6.27542 10.2668 6.53255C10.2668 6.79015 10.4754 6.99922 10.7335 6.99922C10.9915 6.99922 11.2001 6.79015 11.2001 6.53255C11.2001 5.76069 10.572 5.13255 9.80013 5.13255V4.66589C9.80013 4.40829 9.59153 4.19922 9.33346 4.19922C9.0754 4.19922 8.8668 4.40829 8.8668 4.66589V5.13255C8.09493 5.13255 7.4668 5.76069 7.4668 6.53255C7.4668 6.99035 7.7944 7.44535 8.22886 7.58955L10.1436 8.22795C10.1963 8.24522 10.2668 8.34322 10.2668 8.39922C10.2668 8.65682 10.0577 8.86589 9.80013 8.86589H8.8668C8.6092 8.86589 8.40013 8.65682 8.40013 8.39922C8.40013 8.14115 8.19153 7.93255 7.93346 7.93255C7.6754 7.93255 7.4668 8.14115 7.4668 8.39922C7.4668 9.17109 8.09493 9.79922 8.8668 9.79922V10.2659C8.8668 10.524 9.0754 10.7326 9.33346 10.7326C9.59153 10.7326 9.80013 10.524 9.80013 10.2659V9.79922C10.572 9.79922 11.2001 9.17109 11.2001 8.39922C11.2001 7.94142 10.8725 7.48689 10.4381 7.34222L8.52333 6.70429C8.4706 6.68655 8.40013 6.58855 8.40013 6.53255C8.40013 6.27542 8.6092 6.06589 8.8668 6.06589Z" fill="#24292D"/>
<path d="M14 7.46667C14 4.89347 11.9065 2.8 9.33333 2.8C6.76013 2.8 4.66667 4.89347 4.66667 7.46667C4.66667 9.884 6.5142 11.8771 8.87133 12.11C8.87087 12.1184 8.86667 12.1249 8.86667 12.1333V12.6C8.86667 12.8576 8.6576 13.0667 8.4 13.0667H1.4C1.1424 13.0667 0.933333 12.8576 0.933333 12.6V4.2H2.8C3.57187 4.2 4.2 3.57187 4.2 2.8V0.933333H8.4C8.6576 0.933333 8.86667 1.14287 8.86667 1.4V1.86667C8.86667 2.12427 9.07527 2.33333 9.33333 2.33333C9.5914 2.33333 9.8 2.12427 9.8 1.86667V1.4C9.8 0.628133 9.17187 0 8.4 0H3.73333C3.67313 0 3.61293 0.0121333 3.556 0.0354667C3.55507 0.0354667 3.55367 0.0364 3.55367 0.0364C3.49673 0.0597333 3.44587 0.0942667 3.40293 0.1372L0.1372 3.40293C0.0942667 3.44587 0.0602 3.4972 0.0364 3.55367C0.0359333 3.5546 0.035 3.556 0.035 3.556C0.0116667 3.61293 0 3.67313 0 3.73333V12.6C0 13.3719 0.628133 14 1.4 14H8.4C9.17187 14 9.8 13.3719 9.8 12.6V12.1333C9.8 12.1249 9.7958 12.1184 9.79533 12.11C12.1525 11.8771 14 9.884 14 7.46667ZM3.26667 1.5932V2.8C3.26667 3.05713 3.0576 3.26667 2.8 3.26667H1.5932L3.26667 1.5932ZM9.33333 11.2C7.27487 11.2 5.6 9.52513 5.6 7.46667C5.6 5.4082 7.27487 3.73333 9.33333 3.73333C11.3918 3.73333 13.0667 5.4082 13.0667 7.46667C13.0667 9.52513 11.3918 11.2 9.33333 11.2Z" fill="#24292D"/>
<path d="M2.33337 11.6661H4.6667C4.92477 11.6661 5.13337 11.4575 5.13337 11.1995C5.13337 10.9414 4.92477 10.7328 4.6667 10.7328H2.33337C2.0753 10.7328 1.8667 10.9414 1.8667 11.1995C1.8667 11.4575 2.0753 11.6661 2.33337 11.6661ZM2.33337 9.79948H3.73337C3.99143 9.79948 4.20003 9.59088 4.20003 9.33281C4.20003 9.07475 3.99143 8.86615 3.73337 8.86615H2.33337C2.0753 8.86615 1.8667 9.07475 1.8667 9.33281C1.8667 9.59088 2.0753 9.79948 2.33337 9.79948ZM2.33337 7.93281H3.73337C3.99143 7.93281 4.20003 7.72421 4.20003 7.46615C4.20003 7.20855 3.99143 6.99948 3.73337 6.99948H2.33337C2.0753 6.99948 1.8667 7.20855 1.8667 7.46615C1.8667 7.72421 2.0753 7.93281 2.33337 7.93281ZM2.33337 6.06615H3.73337C3.99143 6.06615 4.20003 5.85708 4.20003 5.59948C4.20003 5.34188 3.99143 5.13281 3.73337 5.13281H2.33337C2.0753 5.13281 1.8667 5.34188 1.8667 5.59948C1.8667 5.85708 2.0753 6.06615 2.33337 6.06615Z" fill="#24292D"/>
</svg>
