<svg width="19" height="22" viewBox="0 0 19 22" fill="none" xmlns="http://www.w3.org/2000/svg">
<path d="M9.52113 10.9193C12.2603 10.9193 14.4808 8.69877 14.4808 5.95964C14.4808 3.22051 12.2603 1 9.52113 1C6.78202 1 4.56152 3.22051 4.56152 5.95964C4.56152 8.69877 6.78202 10.9193 9.52113 10.9193Z" stroke="#333333" stroke-width="1.5" stroke-linecap="round" stroke-linejoin="round"/>
<path d="M1 20.84C1 17.0012 4.81892 13.8965 9.52064 13.8965C10.4729 13.8965 11.3954 14.0254 12.2584 14.2635" stroke="#333333" stroke-width="1.5" stroke-linecap="round" stroke-linejoin="round"/>
<path d="M10.3589 19.4827C10.3589 19.6315 10.3919 19.7844 10.4622 19.9332C10.5325 20.082 10.6234 20.2225 10.7433 20.3548C10.9458 20.578 11.169 20.7392 11.421 20.8424C11.669 20.9458 11.9377 20.9995 12.227 20.9995C12.6486 20.9995 13.0991 20.9003 13.5744 20.6978C14.0497 20.4952 14.525 20.2225 14.9962 19.8794C15.4715 19.5323 15.9219 19.1479 16.3518 18.7222C16.7775 18.2924 17.1618 17.8418 17.5049 17.3707C17.8438 16.8995 18.1166 16.4283 18.3149 15.9613C18.5133 15.4902 18.6125 15.0396 18.6125 14.6098C18.6125 14.3288 18.5629 14.0601 18.4637 13.8121C18.3645 13.5601 18.2075 13.3286 17.9885 13.1219C17.724 12.8616 17.4346 12.7334 17.1288 12.7334C17.013 12.7334 16.8974 12.7582 16.794 12.8078C16.6866 12.8574 16.5915 12.9318 16.5171 13.0393L15.5583 14.3908C15.4839 14.4941 15.4301 14.5892 15.3929 14.6801C15.3557 14.7669 15.3351 14.8536 15.3351 14.9322C15.3351 15.0314 15.364 15.1306 15.4219 15.2256C15.4756 15.3207 15.5541 15.4199 15.6533 15.5191L15.9674 15.8456C16.0129 15.8911 16.0335 15.9448 16.0335 16.0109C16.0335 16.044 16.0294 16.0729 16.0211 16.106C16.0087 16.1391 15.9963 16.1639 15.9881 16.1887C15.9137 16.3251 15.7855 16.5027 15.6037 16.7177C15.4177 16.9326 15.2193 17.1516 15.0044 17.3707C14.7812 17.5898 14.5663 17.7922 14.3472 17.9782C14.1324 18.1601 13.9546 18.2841 13.8141 18.3585C13.7934 18.3668 13.7686 18.3792 13.7397 18.3916C13.7066 18.404 13.6736 18.4081 13.6364 18.4081C13.5661 18.4081 13.5124 18.3833 13.4669 18.3378L13.1529 18.0278C13.0495 17.9246 12.9503 17.846 12.8553 17.7964C12.7601 17.7386 12.6651 17.7096 12.5618 17.7096C12.4833 17.7096 12.4006 17.7262 12.3097 17.7634C12.2188 17.8006 12.1237 17.8542 12.0204 17.9246L10.6523 18.8958C10.5449 18.9701 10.4705 19.0569 10.425 19.1603C10.3837 19.2637 10.3589 19.3669 10.3589 19.4827Z" fill="#333333"/>
</svg>
