<svg width="39" height="18" viewBox="0 0 39 18" fill="none" xmlns="http://www.w3.org/2000/svg">
<path d="M8.84254 18V0H0V18H8.84254ZM39 18V0H30.1879V18H39ZM19.4125 17.2094H18.6743V13.7512L14.6716 14.1133L15.4098 12.7241L11.0722 9.63547L12.2213 9.00739L11.1102 6.05172L13.4845 6.6133L14.3672 5.43103L17.3807 8.35714L15.7826 2.7266L17.6851 3.77586L19.4125 0.746305L21.1399 3.77586L23.0728 2.7266L21.4443 8.35714L24.4958 5.43103L25.3785 6.6133L27.7147 6.05172L26.5961 9.00739L27.7832 9.63547L23.4076 12.7241L24.1838 14.1133L20.1811 13.7512V17.2094H19.4125Z" fill="#CF4044"/>
</svg>
