<svg width="17" height="17" viewBox="0 0 17 17" fill="none" xmlns="http://www.w3.org/2000/svg">
<path d="M10.7614 15.6434V13.8577C10.7614 13.6553 10.6067 13.5006 10.4043 13.5006C10.2019 13.5006 10.0472 13.6553 10.0472 13.8577V15.6434C10.0472 15.8458 10.2019 16.0006 10.4043 16.0006C10.6067 16.0006 10.7614 15.8458 10.7614 15.6434ZM3.61858 14.0125V12.822C3.61858 12.6196 3.46382 12.4648 3.26144 12.4648C3.05906 12.4648 2.9043 12.6196 2.9043 12.822V14.0125C2.9043 14.2148 3.05906 14.3696 3.26144 14.3696C3.46382 14.3696 3.61858 14.2148 3.61858 14.0125Z" fill="#24292D" stroke="#24292D" stroke-width="0.5"/>
<path d="M13.2738 4.44048C13.131 4.29762 12.9048 4.29762 12.7738 4.44048L10.7619 6.45238V2.54762C10.7619 2.34524 10.6071 2.19048 10.4048 2.19048H8.14286V1.35714C8.14286 1.15476 7.9881 1 7.78571 1C7.58333 1 7.42857 1.15476 7.42857 1.35714V2.19048H5.16667C4.96429 2.19048 4.80952 2.34524 4.80952 2.54762V6.29762C4.79762 6.29762 4.78571 6.29762 4.77381 6.29762C2.61905 6.5 1 8.28571 1 10.4405C1 10.6429 1.15476 10.7976 1.35714 10.7976H4.80952V15.2857H1.71429V12.2262C1.71429 12.0238 1.55952 11.869 1.35714 11.869C1.15476 11.869 1 12.0238 1 12.2262V15.6429C1 15.8452 1.15476 16 1.35714 16H5.16667C5.36905 16 5.52381 15.8452 5.52381 15.6429V2.90476H10.0476V9.13095L7.92857 8.16667C7.82143 8.11905 7.69048 8.13095 7.58333 8.19048C7.4881 8.2619 7.42857 8.38095 7.42857 8.5V15.6429C7.42857 15.8452 7.58333 16 7.78571 16C7.9881 16 8.14286 15.8452 8.14286 15.6429V9.05952L12.6667 11.119V15.6429C12.6667 15.8452 12.8214 16 13.0238 16H15.6429C15.8452 16 16 15.8452 16 15.6429V7.30952C16 7.21429 15.9643 7.11905 15.8929 7.05952L13.2738 4.44048ZM4.80952 10.0833H1.7381C1.90476 8.4881 3.19048 7.17857 4.80952 7.0119V10.0833ZM15.2857 15.2857H13.381V10.881C13.381 10.7381 13.2976 10.619 13.1667 10.5595L10.7619 9.46429C10.7619 9.46429 10.7619 9.46429 10.7619 9.45238V7.45238L13.0238 5.19048L15.2857 7.45238V15.2857Z" fill="#24292D" stroke="#24292D" stroke-width="0.5"/>
</svg>
