<svg width="274" height="294" viewBox="0 0 274 294" fill="none" xmlns="http://www.w3.org/2000/svg">
<path fill-rule="evenodd" clip-rule="evenodd" d="M30.3614 186.292C30.3614 186.292 29.3292 178.411 24.9631 176.611C20.5971 174.812 16.5635 166.245 16.5635 166.245L31.8121 150.722C31.8121 150.722 38.2868 156.164 38.4681 155.983C38.6495 155.801 41.802 156.08 42.0949 159.637C42.3878 163.194 40.9325 165.468 40.6861 168.802C40.4396 172.136 43.8525 179.433 43.8525 179.433L30.3614 186.292Z" fill="#FFB7AA"/>
<path d="M30.0816 186.815C29.9943 186.77 29.9196 186.704 29.864 186.623C29.8085 186.541 29.7738 186.448 29.763 186.35C29.763 186.276 28.7238 178.792 24.7321 177.146C20.2033 175.286 16.1883 166.838 16.0186 166.48C15.9661 166.369 15.9489 166.245 15.9693 166.124C15.9896 166.003 16.0466 165.891 16.1325 165.803L31.3811 150.29C31.4874 150.181 31.6308 150.116 31.7826 150.109C31.9343 150.102 32.0833 150.152 32.1995 150.25C34.4313 152.128 37.714 154.816 38.5184 155.337C38.9798 155.31 39.4414 155.384 39.8715 155.553C40.6433 155.837 42.4637 156.794 42.6938 159.573C42.8821 161.76 42.4311 163.499 41.9964 165.18C41.6448 166.38 41.4066 167.611 41.285 168.856C41.0525 172.011 44.3631 179.115 44.3979 179.187C44.4631 179.329 44.4709 179.491 44.4198 179.639C44.3687 179.786 44.2626 179.909 44.1236 179.98L30.6395 186.829C30.5559 186.874 30.4624 186.897 30.3675 186.896C30.2667 186.895 30.1681 186.867 30.0816 186.815ZM40.0784 168.758C40.2041 167.447 40.4524 166.151 40.82 164.887C41.2501 163.234 41.6569 161.67 41.4872 159.687C41.3966 158.573 40.9897 157.724 40.283 157.162C39.8423 156.808 39.3085 156.59 38.7462 156.534C38.3417 156.834 37.6234 156.383 31.8508 151.536L17.2926 166.35C18.1179 167.993 21.5959 174.556 25.1971 176.039C29.0028 177.609 30.4163 183.226 30.8255 185.371L43.0681 179.155C42.273 177.39 39.8622 171.722 40.0854 168.758H40.0784Z" fill="#263238"/>
<path fill-rule="evenodd" clip-rule="evenodd" d="M226.111 91.7376C226.111 91.7376 225.288 88.2782 224.8 85.228C224.312 82.1778 223.837 72.8808 221.631 66.9943C219.425 61.1078 217.474 62.6817 217.474 62.6817C217.474 62.6817 216.233 59.864 214.824 57.9948C213.415 56.1256 211.769 57.939 211.769 57.939C211.769 57.939 211.113 56.0559 209.858 55.9722C208.603 55.8885 208.017 57.9669 208.017 57.9669C208.017 57.9669 204.946 55.6421 205.099 58.8736C205.252 62.1051 207.208 74.5547 207.208 74.5547C207.208 74.5547 204.597 73.2434 203.076 70.8163C201.556 68.3892 199.157 66.4898 198.501 67.4964C197.846 68.5031 199.254 72.6855 202.421 77.5258C205.587 82.3661 208.073 89.615 208.073 89.615L226.111 91.7376Z" fill="#FFB7AA"/>
<path d="M226.041 92.3354L208.001 90.2291C207.887 90.216 207.78 90.1707 207.692 90.0986C207.604 90.0265 207.538 89.9306 207.503 89.8223C207.477 89.7525 205.018 82.5734 201.923 77.8656C199.213 73.7204 196.995 68.7173 198.006 67.1713C198.117 66.9987 198.271 66.8577 198.453 66.762C198.634 66.6663 198.838 66.6191 199.043 66.625H199.059C200.454 66.6389 202.43 68.6337 203.595 70.5028C204.34 71.6303 205.299 72.6009 206.417 73.3601C205.913 70.0727 204.63 61.5406 204.506 58.9065C204.453 57.7976 204.739 57.0676 205.374 56.7374C206.12 56.3422 207.085 56.7072 207.726 57.0629C208.075 56.3236 208.758 55.3332 209.905 55.3774C210.942 55.4448 211.625 56.3073 211.997 56.9885C212.444 56.7153 212.955 56.5653 213.478 56.5538C214.175 56.5863 214.791 56.9513 215.308 57.6371C216.389 59.0692 217.356 60.9989 217.79 61.9195C218.07 61.8674 218.358 61.8801 218.632 61.9567C219.927 62.3054 221.127 63.9282 222.201 66.7877C223.893 71.3095 224.572 77.7145 225.023 81.962C225.163 83.2964 225.281 84.4007 225.4 85.1354C225.879 88.1205 226.695 91.5589 226.702 91.5938C226.724 91.6881 226.723 91.7864 226.699 91.8803C226.675 91.9742 226.629 92.0609 226.564 92.1332C226.509 92.197 226.439 92.2482 226.362 92.2831C226.285 92.318 226.201 92.3358 226.116 92.3354H226.041ZM217.856 63.1563C217.784 63.2149 217.7 63.2562 217.61 63.2772C217.521 63.2981 217.427 63.2982 217.337 63.2772C217.246 63.2561 217.162 63.2139 217.09 63.1542C217.019 63.0944 216.963 63.0187 216.926 62.9331C216.914 62.9076 215.691 60.1573 214.343 58.3671C214.048 57.9766 213.745 57.779 213.413 57.7627C212.954 57.811 212.526 58.0202 212.206 58.3532C212.135 58.4297 212.046 58.487 211.947 58.5195C211.847 58.552 211.742 58.5588 211.639 58.5392C211.537 58.5185 211.442 58.4716 211.363 58.4032C211.284 58.3347 211.225 58.247 211.19 58.1486C211.053 57.7557 210.493 56.6282 209.816 56.584H209.788C209.221 56.584 208.733 57.6279 208.584 58.144C208.558 58.2381 208.508 58.3243 208.441 58.3948C208.373 58.4654 208.289 58.5181 208.196 58.5485C208.104 58.5782 208.006 58.5856 207.91 58.5703C207.814 58.5549 207.723 58.5172 207.645 58.4601C207.066 58.03 206.222 57.6441 205.92 57.8092C205.787 57.8766 205.662 58.1881 205.687 58.8554C205.834 62.0079 207.766 74.3505 207.78 74.4737C207.797 74.5825 207.785 74.6942 207.744 74.7966C207.703 74.899 207.635 74.9883 207.547 75.0549C207.457 75.1184 207.351 75.1567 207.242 75.1657C207.132 75.1747 207.021 75.1541 206.922 75.106C206.808 75.0502 204.132 73.6879 202.553 71.1538C201.126 68.8708 199.361 67.706 198.992 67.8432C198.606 68.4337 199.613 72.1721 202.912 77.2123C205.729 81.4924 207.956 87.5416 208.491 89.0853L225.307 91.0521C225.032 89.8293 224.521 87.4742 224.177 85.3423C224.058 84.5914 223.944 83.4638 223.796 82.1015C223.352 77.9168 222.682 71.6002 221.043 67.2225C219.801 63.9189 218.718 63.2702 218.328 63.1447C218.253 63.1195 218.174 63.1062 218.095 63.1052C218.012 63.1037 217.93 63.1212 217.856 63.1563Z" fill="#263238"/>
<path d="M216.564 84.2088C216.669 84.2085 216.772 84.1808 216.863 84.1283C216.954 84.0759 217.029 84.0006 217.082 83.9099C217.135 83.8192 217.163 83.7162 217.164 83.6113C217.165 83.5063 217.138 83.4029 217.087 83.3114C215.922 81.3291 214.463 79.5349 212.76 77.9898C211.156 76.5727 209.468 75.2529 207.706 74.0376C207.641 73.9924 207.567 73.9607 207.49 73.9443C207.412 73.928 207.332 73.9274 207.254 73.9426C207.177 73.9578 207.103 73.9884 207.037 74.0327C206.971 74.0769 206.915 74.134 206.871 74.2003C206.827 74.2656 206.796 74.339 206.78 74.4164C206.764 74.4937 206.763 74.5734 206.778 74.651C206.793 74.7285 206.823 74.8024 206.867 74.8682C206.91 74.9341 206.966 74.9908 207.032 75.035C208.749 76.2241 210.396 77.5127 211.963 78.8942C213.56 80.3533 214.933 82.0399 216.038 83.8996C216.091 83.9931 216.167 84.0709 216.259 84.1253C216.352 84.1796 216.457 84.2084 216.564 84.2088Z" fill="#263238"/>
<path d="M219.66 76.4505H219.737C219.896 76.4302 220.04 76.3478 220.138 76.2215C220.236 76.0951 220.28 75.935 220.26 75.7763C220.26 75.7321 219.693 71.2312 219.098 68.1229C218.786 66.5397 218.526 65.3866 218.342 64.5682C218.224 64.1084 218.13 63.6428 218.061 63.1733C218.06 63.0936 218.044 63.0149 218.012 62.9419C217.98 62.8689 217.934 62.8031 217.876 62.7485C217.818 62.6939 217.749 62.6517 217.674 62.6244C217.599 62.5972 217.52 62.5854 217.44 62.5898C217.28 62.5958 217.13 62.6647 217.02 62.7813C216.911 62.898 216.852 63.053 216.857 63.2128C216.921 63.7583 217.025 64.2983 217.168 64.8286C217.35 65.6376 217.608 66.7815 217.917 68.3461C218.505 71.4125 219.061 75.8762 219.065 75.9204C219.083 76.0659 219.154 76.1999 219.263 76.2974C219.373 76.3949 219.514 76.4493 219.66 76.4505Z" fill="#263238"/>
<path d="M215.197 74.609H215.264C215.343 74.6004 215.419 74.5763 215.488 74.5381C215.557 74.5 215.618 74.4485 215.667 74.3868C215.717 74.325 215.753 74.2541 215.775 74.1781C215.797 74.1021 215.803 74.0226 215.794 73.9441C215.255 69.2317 214.125 63.9473 212.342 57.7865C212.323 57.7089 212.288 57.6362 212.239 57.5728C212.191 57.5094 212.13 57.4567 212.06 57.418C211.99 57.3794 211.913 57.3556 211.833 57.3482C211.754 57.3408 211.674 57.3499 211.598 57.375C211.522 57.3966 211.451 57.4332 211.389 57.4825C211.327 57.5318 211.275 57.5929 211.237 57.6623C211.198 57.7317 211.174 57.808 211.166 57.8868C211.157 57.9655 211.164 58.0452 211.186 58.1213C212.949 64.217 214.067 69.4363 214.599 74.0813C214.617 74.2272 214.688 74.3615 214.798 74.4588C214.908 74.5561 215.05 74.6095 215.197 74.609Z" fill="#263238"/>
<path d="M211.042 72.6398H211.123C211.281 72.6178 211.425 72.5341 211.521 72.4069C211.618 72.2797 211.66 72.1193 211.639 71.9609C211.291 69.7688 210.83 67.5961 210.258 65.4514C209.272 61.5619 208.698 58.3164 208.691 58.2862C208.68 58.2073 208.652 58.1316 208.61 58.0637C208.568 57.9958 208.513 57.9371 208.448 57.8913C208.383 57.8454 208.309 57.8132 208.231 57.7968C208.153 57.7804 208.072 57.78 207.994 57.7957C207.916 57.8091 207.841 57.8379 207.774 57.8803C207.708 57.9227 207.65 57.9779 207.605 58.0427C207.559 58.1076 207.527 58.1807 207.51 58.258C207.493 58.3353 207.492 58.4152 207.506 58.4931C207.506 58.5257 208.091 61.8107 209.091 65.7489C209.651 67.851 210.102 69.9802 210.444 72.1283C210.466 72.271 210.538 72.4012 210.648 72.4951C210.758 72.589 210.897 72.6403 211.042 72.6398Z" fill="#263238"/>
<path fill-rule="evenodd" clip-rule="evenodd" d="M107.049 207.88C93.851 213.725 71.0698 218.76 71.0698 218.76L49.2163 174.719L24.0127 184.594C24.0127 184.594 42.9578 231.556 51.9294 245.366C60.901 259.175 103.938 249.295 103.938 249.295L97.0732 292.628H208.138C208.138 292.628 205.516 278.425 203.811 269.454C202.107 260.482 199.571 218.965 199.571 218.965C199.571 218.965 230.515 170.278 232.537 162.325C234.56 154.371 233.332 92.5795 233.332 92.5795C233.332 92.5795 229.008 88.8969 221.708 87.2323C214.408 85.5677 204.074 88.5854 204.074 88.5854L200.643 144.626C200.643 144.626 193.389 158.731 180.693 175.263C167.997 191.794 156.698 191.292 156.698 191.292C128.324 195.882 120.261 202.033 107.049 207.88Z" fill="#9BC3E9"/>
<path d="M96.6126 293.023C96.5568 292.956 96.516 292.878 96.4927 292.795C96.4695 292.711 96.4644 292.623 96.4777 292.537L103.204 250.079C96.8706 251.443 59.9149 258.759 51.4223 245.696C42.5251 232.008 23.6427 185.292 23.4567 184.82C23.4247 184.747 23.4082 184.668 23.4082 184.588C23.4082 184.508 23.4247 184.429 23.4567 184.355C23.4878 184.282 23.5332 184.216 23.5903 184.16C23.6474 184.105 23.715 184.061 23.7892 184.032L48.9835 174.156C49.1233 174.099 49.2798 174.097 49.4208 174.151C49.5618 174.206 49.6766 174.312 49.7414 174.449L71.4089 218.07C74.6986 217.321 94.8503 212.628 106.812 207.329C109.406 206.183 111.843 205.004 114.2 203.863C123.804 199.213 133.729 194.401 156.6 190.711C156.641 190.706 156.681 190.706 156.721 190.711C156.784 190.762 167.867 190.974 180.202 174.916C192.131 159.386 199.326 145.842 200.038 144.484L203.46 88.56C203.469 88.4362 203.515 88.318 203.593 88.2211C203.67 88.1243 203.776 88.0536 203.895 88.0183C204.323 87.8974 214.454 84.996 221.831 86.656C229.208 88.3159 233.541 91.9752 233.723 92.1287C233.787 92.1842 233.839 92.2526 233.876 92.3294C233.912 92.4063 233.932 92.49 233.934 92.575C233.983 95.1021 235.127 154.525 233.12 162.478C231.135 170.278 202.481 215.508 200.187 219.128C200.377 222.229 202.774 260.831 204.402 269.344C206.108 278.316 208.73 292.521 208.73 292.521C208.746 292.608 208.742 292.697 208.72 292.783C208.697 292.868 208.657 292.948 208.6 293.016C208.543 293.084 208.472 293.139 208.392 293.176C208.312 293.214 208.224 293.233 208.135 293.232H97.0729C96.9856 293.233 96.8993 293.214 96.8199 293.178C96.7404 293.142 96.6697 293.089 96.6126 293.023ZM203.228 269.572C201.523 260.666 199.08 220.704 198.978 219.009C198.97 218.882 199.003 218.756 199.071 218.649C199.38 218.161 229.991 169.95 231.96 162.181C233.857 154.658 232.827 97.4223 232.741 92.8819C231.811 92.1566 227.78 89.2435 221.571 87.8323C215.31 86.4095 206.615 88.5298 204.643 89.0645L201.233 144.677C201.226 144.758 201.204 144.837 201.168 144.91C201.093 145.051 193.742 159.252 181.158 175.637C168.757 191.764 157.696 191.939 156.726 191.911C134.082 195.57 124.673 200.125 114.714 204.946C112.349 206.09 109.904 207.271 107.293 208.434C94.1901 214.246 71.4275 219.302 71.1997 219.36C71.0686 219.388 70.9319 219.372 70.8109 219.315C70.6898 219.257 70.5911 219.161 70.5301 219.042L48.9091 175.493L24.7958 184.946C26.9742 190.314 44.1223 232.273 52.4289 245.052C61.0634 258.348 103.376 248.823 103.808 248.723C103.904 248.705 104.004 248.71 104.098 248.735C104.193 248.761 104.28 248.808 104.354 248.872C104.426 248.94 104.48 249.024 104.512 249.117C104.544 249.21 104.553 249.309 104.538 249.407L97.782 292.042H207.412C206.864 289.05 204.697 277.344 203.228 269.572Z" fill="#9BC3E9"/>
<path d="M151.443 290.317H151.473C151.633 290.308 151.782 290.237 151.89 290.119C151.997 290 152.053 289.844 152.045 289.685C152.017 289.199 149.562 240.886 148.607 233.142L147.853 227.081C147.167 221.557 146.458 215.845 146.458 215.392C146.456 215.234 146.392 215.083 146.281 214.971C146.169 214.859 146.019 214.795 145.861 214.792C145.705 214.79 145.555 214.849 145.443 214.956C145.33 215.064 145.264 215.211 145.259 215.366C145.259 215.731 145.682 219.26 146.672 227.223L147.426 233.284C148.374 240.984 150.829 289.254 150.852 289.74C150.859 289.893 150.924 290.038 151.034 290.145C151.144 290.252 151.29 290.314 151.443 290.317Z" fill="#6E8CA6"/>
<path fill-rule="evenodd" clip-rule="evenodd" d="M135.73 191.153C135.73 191.153 127.975 192.575 125.296 198.016C122.618 203.456 122.674 227.132 122.674 227.132C122.674 227.132 124.697 225.821 129.83 222.445C134.963 219.069 145.678 213.194 145.678 213.194C145.678 213.194 147.673 213.222 155.278 213.427C162.882 213.632 171.907 216.552 171.907 216.552C171.907 216.552 165.265 198.513 161.624 192.571C157.984 186.629 151.802 188.288 151.802 188.288L135.73 191.153Z" fill="#066AC9"/>
<path d="M122.385 227.66C122.29 227.608 122.211 227.532 122.156 227.439C122.1 227.346 122.071 227.24 122.071 227.132C122.071 226.16 122.071 203.256 124.754 197.751C127.544 192.101 135.295 190.62 135.625 190.557L151.667 187.703C152.18 187.577 158.453 186.222 162.128 192.259C165.76 198.188 172.19 215.61 172.46 216.349C172.498 216.455 172.507 216.57 172.483 216.68C172.46 216.79 172.406 216.892 172.328 216.973C172.249 217.054 172.15 217.112 172.041 217.139C171.931 217.167 171.816 217.163 171.709 217.128C171.621 217.1 162.691 214.224 155.251 214.034C148.837 213.857 146.417 213.801 145.82 213.801C144.546 214.499 134.893 219.846 130.152 222.952C125.017 226.33 122.99 227.639 122.99 227.639C122.893 227.703 122.78 227.737 122.664 227.736C122.566 227.735 122.47 227.708 122.385 227.66ZM145.687 212.592C145.687 212.592 147.682 212.62 155.293 212.825C161.289 212.978 168.205 214.829 170.914 215.615C169.396 211.565 164.153 197.843 161.11 192.875C157.769 187.389 152.192 188.798 151.957 188.863L151.908 188.874L135.839 191.731C135.767 191.745 128.344 193.171 125.842 198.269C123.592 202.861 123.317 221.271 123.285 226.007C124.333 225.323 126.321 224.024 129.504 221.929C134.618 218.579 145.285 212.716 145.394 212.655C145.482 212.606 145.582 212.581 145.682 212.581L145.687 212.592Z" fill="#9BC3E9"/>
<path fill-rule="evenodd" clip-rule="evenodd" d="M123.458 166.779C123.458 166.779 120.641 170.255 122.803 175.347C124.965 180.438 129.805 179.727 129.805 179.727L134.143 196.914C134.143 196.914 134.799 198.016 138.079 203.01C141.36 208.004 145.681 213.195 145.681 213.195L151.959 195.045L150.773 190.665C150.773 190.665 154.458 190.316 157.429 185.878C160.4 181.44 162.409 173.184 161.404 160.879C160.4 148.574 161 144.249 149.315 142.841C137.631 141.432 126.841 148.783 126.841 148.783C118.309 155.836 123.458 166.779 123.458 166.779Z" fill="#FFB7AA"/>
<path fill-rule="evenodd" clip-rule="evenodd" d="M167.555 152.131C168.406 149.806 163.021 147.193 163.021 147.193C163.021 147.193 172.872 146.342 172.955 142.659C173.039 138.977 163.984 139.404 163.984 139.404C163.984 139.404 168.531 137.079 168.894 134.311C169.257 131.542 163.803 134.776 155.74 134.269C147.677 133.762 132.412 134.464 123.039 140.464C113.665 146.465 114.918 151.042 114.165 153.976C113.412 156.91 117.694 171.645 122.132 177.957C126.57 184.269 128.828 185.397 131.492 186.424L129.804 179.729C129.804 179.729 124.964 180.44 122.802 175.349C120.639 170.257 123.457 166.782 123.457 166.782C125.215 165.247 127.293 166.196 128.804 168.721C130.315 171.245 131.218 173.103 131.362 170.787C131.506 168.472 131.864 166.138 132.31 164.578C132.757 163.018 131.306 160.7 132.171 158.287C133.036 155.874 138.464 154.102 143.458 154.255C148.452 154.409 147.531 151.435 147.531 151.435C147.531 151.435 154.926 152.986 160.757 153.46C160.776 153.458 166.704 154.441 167.555 152.131Z" fill="#263238"/>
<path d="M131.273 186.989C128.416 185.883 126.051 184.608 121.639 178.306C117.3 172.143 112.711 157.189 113.583 153.828C113.703 153.296 113.791 152.758 113.846 152.216C114.222 149.194 114.736 145.068 122.713 139.965C131.531 134.324 146.031 133.055 155.777 133.687C159.378 133.92 162.481 133.369 164.739 132.971C166.996 132.574 168.368 132.337 169.098 133.03C169.435 133.348 169.563 133.811 169.491 134.408C169.258 136.235 167.499 137.826 166.085 138.825C168.177 138.918 171.281 139.304 172.715 140.697C172.989 140.949 173.205 141.256 173.35 141.599C173.496 141.941 173.566 142.311 173.557 142.682C173.483 145.839 167.943 147.113 164.911 147.576C166.583 148.629 168.821 150.464 168.124 152.349C167.14 155.018 161.473 154.188 160.705 154.062C156.014 153.681 150.269 152.598 148.209 152.191C148.175 152.67 148.001 153.129 147.709 153.511C146.977 154.472 145.594 154.906 143.462 154.862C138.547 154.676 133.481 156.443 132.768 158.496C132.333 159.714 132.568 160.918 132.796 162.083C132.982 163.039 133.158 163.943 132.921 164.75C132.493 166.24 132.149 168.514 131.991 170.834C131.959 171.334 131.896 172.261 131.198 172.429C130.422 172.598 129.913 171.747 128.804 169.871L128.309 169.037C127.479 167.658 126.505 166.819 125.563 166.672C125.272 166.63 124.975 166.652 124.694 166.738C124.413 166.823 124.154 166.97 123.936 167.168C123.831 167.298 121.378 170.441 123.366 175.118C125.317 179.708 129.548 179.166 129.729 179.138C129.803 179.124 129.878 179.124 129.952 179.138C130.025 179.153 130.095 179.182 130.157 179.224C130.219 179.265 130.272 179.319 130.314 179.381C130.355 179.444 130.384 179.513 130.399 179.587L132.086 186.282C132.114 186.39 132.111 186.502 132.079 186.608C132.047 186.714 131.986 186.809 131.903 186.882C131.792 186.978 131.65 187.031 131.503 187.031C131.424 187.031 131.346 187.017 131.273 186.989ZM129.246 180.363C127.76 180.363 124.08 179.898 122.243 175.586C119.967 170.22 122.864 166.561 123.061 166.331C123.414 165.996 123.838 165.745 124.302 165.598C124.765 165.45 125.256 165.41 125.737 165.48C127.037 165.682 128.311 166.723 129.327 168.414L129.829 169.255C130.136 169.781 130.494 170.383 130.775 170.797C130.775 170.783 130.775 170.766 130.775 170.75C130.936 168.351 131.296 165.982 131.747 164.413C131.903 163.878 131.761 163.15 131.596 162.32C131.363 161.121 131.068 159.626 131.617 158.101C132.614 155.26 138.522 153.569 143.49 153.665C145.161 153.746 146.254 153.416 146.745 152.8C146.866 152.635 146.949 152.445 146.989 152.244C147.029 152.044 147.025 151.837 146.977 151.638C146.947 151.537 146.944 151.431 146.967 151.328C146.99 151.226 147.039 151.132 147.11 151.054C147.181 150.978 147.27 150.922 147.369 150.89C147.467 150.858 147.573 150.851 147.675 150.87C147.751 150.887 155.114 152.416 160.829 152.881C160.845 152.879 160.861 152.879 160.877 152.881C162.654 153.174 166.483 153.346 166.994 151.951C167.494 150.591 164.36 148.541 162.763 147.767C162.644 147.709 162.548 147.615 162.488 147.497C162.428 147.379 162.409 147.245 162.433 147.116C162.458 146.986 162.524 146.869 162.622 146.78C162.719 146.692 162.843 146.637 162.974 146.625C165.39 146.416 172.297 145.23 172.357 142.673C172.362 142.468 172.324 142.265 172.243 142.076C172.163 141.888 172.043 141.719 171.892 141.58C170.346 140.078 165.685 139.953 164.028 140.037C163.89 140.044 163.754 140.004 163.643 139.922C163.532 139.841 163.453 139.724 163.418 139.59C163.381 139.456 163.392 139.313 163.448 139.186C163.505 139.059 163.603 138.955 163.728 138.893C164.913 138.286 168.05 136.273 168.312 134.262C168.34 134.029 168.312 133.932 168.284 133.908C168.008 133.634 166.387 133.908 164.964 134.166C162.64 134.571 159.473 135.14 155.716 134.896C146.154 134.287 131.949 135.512 123.378 140.997C115.88 145.793 115.406 149.599 115.057 152.388C114.997 152.982 114.899 153.57 114.764 154.151C114.053 156.894 118.368 171.559 122.641 177.632C126.291 182.846 128.364 184.416 130.631 185.429L129.355 180.377L129.246 180.363Z" fill="#263238"/>
<path d="M128.451 178.431C128.578 178.431 128.702 178.39 128.805 178.316C128.909 178.241 128.985 178.136 129.025 178.015C129.067 177.878 130.062 174.688 128.214 171.631C126.412 168.66 124.801 168.009 124.625 167.944C124.474 167.893 124.31 167.902 124.166 167.969C124.023 168.036 123.91 168.156 123.853 168.304C123.826 168.378 123.814 168.457 123.817 168.536C123.82 168.615 123.839 168.693 123.873 168.765C123.906 168.836 123.954 168.901 124.012 168.954C124.07 169.008 124.139 169.049 124.213 169.076C124.213 169.076 125.608 169.643 127.184 172.256C128.74 174.832 127.882 177.617 127.882 177.645C127.834 177.798 127.848 177.963 127.921 178.104C127.994 178.246 128.121 178.354 128.272 178.403C128.33 178.421 128.391 178.43 128.451 178.431Z" fill="#263238"/>
<path d="M125.52 175.83C125.62 175.83 125.718 175.805 125.807 175.758C125.895 175.71 125.969 175.642 126.025 175.558L128.201 172.269C128.244 172.203 128.275 172.129 128.29 172.051C128.305 171.973 128.304 171.893 128.288 171.815C128.272 171.738 128.241 171.664 128.197 171.598C128.153 171.533 128.096 171.477 128.03 171.433C127.964 171.389 127.89 171.359 127.812 171.344C127.734 171.329 127.654 171.329 127.577 171.345C127.499 171.361 127.425 171.392 127.36 171.436C127.294 171.481 127.238 171.538 127.194 171.604L125.018 174.9C124.959 174.991 124.926 175.096 124.921 175.204C124.917 175.312 124.942 175.419 124.993 175.514C125.045 175.609 125.121 175.689 125.213 175.745C125.306 175.8 125.412 175.83 125.52 175.83Z" fill="#263238"/>
<path d="M150.69 173.798C150.74 173.797 150.791 173.791 150.841 173.779L154.593 172.789C154.68 172.767 154.762 172.725 154.83 172.666C154.899 172.608 154.954 172.535 154.99 172.452C155.028 172.369 155.046 172.279 155.043 172.189C155.041 172.098 155.017 172.009 154.974 171.929C154.974 171.929 154.421 170.857 153.614 169.22C152.845 167.635 151.364 163.641 151.35 163.613C151.322 163.539 151.28 163.471 151.227 163.413C151.173 163.355 151.108 163.308 151.036 163.275C150.964 163.242 150.887 163.223 150.808 163.22C150.729 163.217 150.65 163.23 150.576 163.257C150.501 163.285 150.433 163.327 150.375 163.38C150.317 163.434 150.27 163.499 150.237 163.571C150.204 163.643 150.186 163.72 150.183 163.799C150.18 163.878 150.192 163.957 150.22 164.031C150.283 164.196 151.733 168.109 152.545 169.751C152.972 170.622 153.333 171.336 153.575 171.815L150.552 172.612C150.41 172.649 150.285 172.736 150.203 172.858C150.12 172.979 150.085 173.127 150.104 173.273C150.123 173.419 150.194 173.553 150.305 173.65C150.416 173.747 150.559 173.799 150.706 173.798H150.69Z" fill="#263238"/>
<path d="M139.682 168.332H139.712C139.791 168.329 139.869 168.309 139.94 168.275C140.012 168.241 140.076 168.194 140.129 168.135C140.182 168.076 140.223 168.008 140.25 167.933C140.277 167.858 140.288 167.779 140.284 167.7C140.284 167.672 140.168 164.94 141.897 164.259C142.026 164.203 142.165 164.176 142.306 164.18C142.446 164.184 142.584 164.219 142.709 164.283C143.664 164.722 144.425 166.407 144.636 167.019C144.662 167.094 144.702 167.163 144.754 167.222C144.807 167.281 144.87 167.33 144.941 167.364C145.012 167.399 145.089 167.42 145.168 167.425C145.247 167.429 145.326 167.419 145.401 167.393C145.476 167.368 145.545 167.327 145.604 167.275C145.663 167.223 145.712 167.159 145.747 167.088C145.781 167.017 145.802 166.94 145.807 166.861C145.812 166.782 145.801 166.703 145.775 166.628C145.68 166.354 144.806 163.922 143.218 163.19C142.944 163.06 142.646 162.988 142.343 162.979C142.04 162.971 141.739 163.025 141.458 163.139C138.922 164.136 139.075 167.616 139.082 167.763C139.091 167.916 139.159 168.06 139.27 168.166C139.381 168.271 139.528 168.331 139.682 168.332Z" fill="#263238"/>
<path d="M154.3 165.794C154.457 165.794 154.607 165.732 154.72 165.623C154.832 165.514 154.897 165.365 154.902 165.208C154.902 165.187 154.993 162.949 156.53 162.565C156.655 162.53 156.786 162.522 156.915 162.542C157.043 162.561 157.166 162.607 157.276 162.677C158.001 163.121 158.438 164.446 158.545 164.918C158.58 165.074 158.675 165.21 158.81 165.297C158.944 165.384 159.107 165.415 159.264 165.383C159.342 165.366 159.416 165.334 159.481 165.289C159.547 165.244 159.603 165.186 159.646 165.119C159.689 165.052 159.719 164.977 159.733 164.899C159.747 164.82 159.746 164.74 159.729 164.662C159.677 164.429 159.201 162.451 157.915 161.658C157.67 161.502 157.395 161.399 157.107 161.356C156.82 161.312 156.527 161.329 156.246 161.405C153.807 162.009 153.689 165.053 153.689 165.183C153.685 165.342 153.744 165.497 153.854 165.613C153.964 165.729 154.115 165.796 154.275 165.801L154.3 165.794Z" fill="#263238"/>
<path fill-rule="evenodd" clip-rule="evenodd" d="M146.769 181.862C142.403 181.736 142.459 176.198 142.459 176.198C142.459 176.198 144.784 176.575 147.244 176.951C148.753 177.179 150.282 177.244 151.805 177.147C151.805 177.147 151.121 181.987 146.769 181.862Z" fill="#FFB7AA"/>
<path d="M146.753 182.463C142.831 182.352 141.836 178.311 141.857 176.186C141.858 176.1 141.878 176.015 141.915 175.936C141.952 175.858 142.005 175.789 142.071 175.733C142.207 175.627 142.38 175.578 142.552 175.598C142.552 175.598 144.877 175.977 147.334 176.354C148.796 176.572 150.276 176.636 151.751 176.544C151.842 176.533 151.934 176.544 152.019 176.577C152.105 176.609 152.181 176.662 152.242 176.73C152.303 176.797 152.349 176.876 152.376 176.962C152.403 177.049 152.411 177.14 152.398 177.23C152.14 179.057 150.666 182.463 146.93 182.463H146.753ZM147.153 177.546C145.525 177.3 143.982 177.053 143.103 176.912C143.247 178.288 143.896 181.178 146.785 181.259H146.93C149.65 181.259 150.687 178.99 151.04 177.786C149.74 177.82 148.439 177.74 147.153 177.546Z" fill="#263238"/>
<path d="M154.929 159.403C154.979 159.404 155.029 159.398 155.077 159.385C155.077 159.385 155.677 159.234 156.528 159.104C157.222 159.016 157.921 158.977 158.62 158.985C158.7 158.989 158.78 158.977 158.855 158.949C158.93 158.92 158.998 158.877 159.055 158.821C159.113 158.765 159.158 158.698 159.188 158.624C159.218 158.549 159.232 158.47 159.23 158.39C159.231 158.23 159.169 158.077 159.057 157.963C158.946 157.849 158.794 157.783 158.634 157.781C157.869 157.775 157.104 157.82 156.344 157.913C155.414 158.057 154.78 158.218 154.78 158.218C154.638 158.254 154.513 158.341 154.431 158.462C154.348 158.583 154.313 158.731 154.331 158.876C154.349 159.022 154.42 159.156 154.53 159.253C154.64 159.35 154.782 159.404 154.929 159.403Z" fill="#263238"/>
<path d="M139.417 161.202C139.496 161.203 139.575 161.189 139.649 161.161C140.219 160.954 140.81 160.812 141.411 160.737C142.458 160.614 144.445 160.489 144.445 160.489L144.371 159.289C144.371 159.289 142.339 159.415 141.27 159.542C140.564 159.627 139.871 159.795 139.205 160.042C139.074 160.094 138.964 160.19 138.897 160.314C138.829 160.438 138.807 160.582 138.835 160.721C138.863 160.859 138.938 160.984 139.048 161.072C139.159 161.161 139.296 161.208 139.438 161.205L139.417 161.202Z" fill="#263238"/>
<path d="M146.754 191.477C147.591 191.477 148.461 191.433 149.365 191.347C149.524 191.331 149.67 191.254 149.772 191.131C149.874 191.008 149.923 190.85 149.909 190.691C149.905 190.611 149.885 190.532 149.849 190.46C149.813 190.388 149.762 190.324 149.7 190.273C149.638 190.222 149.566 190.184 149.489 190.163C149.412 190.141 149.331 190.135 149.251 190.147C142.237 190.819 137.371 188.731 134.837 183.951C134.802 183.878 134.752 183.813 134.691 183.76C134.63 183.706 134.559 183.666 134.482 183.64C134.405 183.615 134.324 183.606 134.243 183.613C134.162 183.62 134.083 183.643 134.012 183.681C133.94 183.719 133.877 183.771 133.826 183.834C133.775 183.897 133.737 183.97 133.715 184.048C133.693 184.126 133.687 184.208 133.697 184.288C133.707 184.369 133.734 184.446 133.775 184.516C136.223 189.14 140.586 191.477 146.754 191.477Z" fill="#263238"/>
<path d="M157.746 148.396C157.887 148.399 158.025 148.352 158.135 148.264C158.246 148.175 158.321 148.051 158.349 147.912C158.377 147.774 158.355 147.63 158.287 147.506C158.219 147.382 158.11 147.285 157.979 147.234C157.772 147.15 152.864 145.227 149.528 145.069C147.426 144.987 145.321 145.058 143.23 145.283C143.151 145.293 143.076 145.318 143.007 145.358C142.938 145.397 142.878 145.449 142.829 145.512C142.781 145.574 142.745 145.646 142.724 145.722C142.704 145.798 142.698 145.878 142.708 145.956C142.718 146.035 142.743 146.11 142.782 146.179C142.821 146.248 142.874 146.308 142.936 146.357C142.999 146.405 143.07 146.441 143.147 146.462C143.223 146.482 143.302 146.488 143.381 146.478C145.402 146.252 147.438 146.184 149.47 146.274C152.608 146.422 157.486 148.333 157.535 148.352C157.602 148.379 157.674 148.394 157.746 148.396Z" fill="#455A64"/>
<path d="M148.399 143.101C151.93 143.101 157.545 142.087 157.812 142.039C157.89 142.025 157.964 141.995 158.03 141.953C158.096 141.91 158.154 141.855 158.199 141.79C158.243 141.725 158.275 141.652 158.292 141.575C158.309 141.498 158.31 141.419 158.296 141.341C158.284 141.262 158.257 141.187 158.215 141.119C158.173 141.051 158.117 140.993 158.052 140.948C157.987 140.902 157.913 140.87 157.835 140.854C157.757 140.839 157.676 140.839 157.598 140.855C157.526 140.867 150.429 142.148 147.329 141.853C147.25 141.844 147.17 141.851 147.094 141.873C147.017 141.896 146.946 141.934 146.885 141.985C146.823 142.036 146.773 142.098 146.736 142.169C146.7 142.24 146.678 142.317 146.672 142.397C146.664 142.475 146.672 142.555 146.696 142.63C146.719 142.706 146.757 142.776 146.808 142.837C146.858 142.898 146.92 142.948 146.99 142.985C147.06 143.022 147.137 143.045 147.216 143.052C147.569 143.085 147.969 143.101 148.399 143.101Z" fill="#455A64"/>
<path d="M145.863 140.26C145.897 140.264 145.931 140.264 145.965 140.26C147.129 140.089 148.308 140.039 149.483 140.111C149.641 140.122 149.797 140.071 149.918 139.969C150.039 139.866 150.116 139.721 150.131 139.563C150.138 139.484 150.129 139.404 150.105 139.329C150.081 139.253 150.042 139.183 149.991 139.123C149.94 139.062 149.877 139.013 149.807 138.976C149.736 138.94 149.659 138.918 149.58 138.912C148.305 138.821 147.023 138.875 145.76 139.075C145.612 139.101 145.48 139.182 145.388 139.301C145.297 139.42 145.253 139.569 145.266 139.719C145.279 139.868 145.347 140.008 145.457 140.11C145.568 140.212 145.712 140.269 145.863 140.27V140.26Z" fill="#455A64"/>
<path d="M125.925 162.499C126.04 162.499 126.153 162.467 126.25 162.406C126.385 162.319 126.48 162.183 126.514 162.027C126.549 161.87 126.52 161.707 126.434 161.572C126.318 161.319 126.244 161.049 126.213 160.772C126.153 160.323 126.341 158.912 126.476 158.122C126.49 158.043 126.488 157.963 126.47 157.886C126.453 157.808 126.42 157.735 126.375 157.67C126.329 157.605 126.271 157.55 126.203 157.508C126.136 157.466 126.061 157.437 125.983 157.424C125.905 157.409 125.824 157.409 125.746 157.426C125.668 157.443 125.594 157.475 125.529 157.521C125.464 157.567 125.409 157.626 125.367 157.694C125.325 157.762 125.297 157.838 125.286 157.917C125.246 158.149 124.909 160.149 125.016 160.939C125.065 161.387 125.2 161.821 125.414 162.218C125.468 162.304 125.543 162.376 125.633 162.425C125.722 162.474 125.823 162.5 125.925 162.499Z" fill="#455A64"/>
<path d="M123.007 164.118C123.079 164.118 123.149 164.105 123.216 164.08C123.291 164.053 123.359 164.011 123.417 163.957C123.475 163.904 123.522 163.839 123.555 163.767C123.588 163.695 123.606 163.617 123.609 163.538C123.612 163.459 123.6 163.38 123.572 163.306C122.94 161.595 122.712 158.524 122.814 156.374C122.821 156.214 122.765 156.058 122.657 155.94C122.549 155.822 122.399 155.751 122.24 155.743C122.16 155.736 122.08 155.746 122.004 155.772C121.928 155.797 121.858 155.838 121.799 155.892C121.74 155.946 121.692 156.012 121.66 156.085C121.627 156.158 121.61 156.238 121.61 156.318C121.508 158.519 121.724 161.774 122.442 163.725C122.485 163.84 122.562 163.939 122.663 164.009C122.764 164.08 122.884 164.117 123.007 164.118Z" fill="#455A64"/>
<path d="M119.535 159.11C119.574 159.109 119.613 159.105 119.652 159.098C119.804 159.064 119.938 158.973 120.025 158.843C120.111 158.713 120.144 158.554 120.117 158.401C119.958 157.446 119.918 156.475 119.998 155.511C120.04 154.752 120.141 153.998 120.3 153.256C120.343 153.102 120.323 152.938 120.245 152.798C120.167 152.659 120.037 152.556 119.884 152.512C119.731 152.472 119.569 152.493 119.431 152.57C119.293 152.646 119.19 152.773 119.143 152.923C119.122 152.995 118.94 153.66 118.798 155.413C118.707 156.489 118.753 157.571 118.936 158.635C118.965 158.772 119.041 158.894 119.15 158.98C119.26 159.067 119.396 159.113 119.535 159.11Z" fill="#455A64"/>
<path d="M145.68 213.797C145.716 213.8 145.753 213.8 145.789 213.797C145.895 213.778 145.994 213.732 146.075 213.662C146.157 213.593 146.219 213.503 146.254 213.402L152.531 195.252C152.567 195.136 152.567 195.012 152.531 194.896L151.515 191.139C152.787 190.818 155.567 189.744 157.92 186.222C159.968 183.167 163.216 175.804 161.995 160.839C161.916 159.891 161.845 158.989 161.782 158.133C161.549 155.155 161.372 152.805 160.968 150.807C160.931 150.654 160.836 150.521 160.704 150.434C160.572 150.348 160.412 150.315 160.256 150.343C160.101 150.377 159.966 150.47 159.879 150.603C159.792 150.736 159.76 150.898 159.792 151.054C160.182 152.979 160.361 155.294 160.587 158.231C160.652 159.091 160.721 159.993 160.801 160.944C161.993 175.546 158.882 182.635 156.923 185.562C154.165 189.681 150.85 190.067 150.711 190.081C150.624 190.09 150.54 190.118 150.465 190.163C150.389 190.207 150.325 190.268 150.275 190.34C150.225 190.412 150.192 190.494 150.177 190.58C150.162 190.666 150.165 190.754 150.188 190.839L151.324 195.04L145.461 211.995C144.113 210.333 141.025 206.429 138.577 202.696C135.788 198.446 134.897 197.009 134.704 196.693L130.385 179.594C130.37 179.52 130.341 179.45 130.3 179.388C130.258 179.326 130.205 179.272 130.143 179.231C130.081 179.189 130.011 179.16 129.937 179.145C129.864 179.131 129.788 179.13 129.715 179.145C129.529 179.175 125.298 179.71 123.352 175.125C121.367 170.448 123.817 167.305 123.922 167.174C123.98 167.114 124.025 167.043 124.054 166.965C124.083 166.887 124.096 166.803 124.091 166.72C124.086 166.636 124.064 166.555 124.026 166.481C123.988 166.406 123.935 166.341 123.87 166.288C123.805 166.235 123.73 166.196 123.65 166.174C123.569 166.152 123.485 166.147 123.403 166.159C123.32 166.171 123.241 166.2 123.17 166.244C123.099 166.289 123.038 166.347 122.992 166.416C122.868 166.57 119.969 170.229 122.248 175.595C124.084 179.91 127.764 180.373 129.25 180.373H129.343L133.565 197.079C133.578 197.135 133.6 197.19 133.63 197.239C133.656 197.283 134.328 198.402 137.582 203.358C140.837 208.315 145.185 213.546 145.226 213.588C145.283 213.653 145.352 213.705 145.43 213.741C145.509 213.777 145.594 213.796 145.68 213.797Z" fill="#263238"/>
<path d="M229.149 97.716C229.284 97.7154 229.414 97.6697 229.52 97.5862C229.626 97.5026 229.7 97.386 229.732 97.2551C229.764 97.1242 229.75 96.9864 229.694 96.8639C229.638 96.7413 229.543 96.6411 229.423 96.5791C229.17 96.4489 223.125 93.3685 217.244 92.5827C211.399 91.8062 207.391 92.2177 207.224 92.2317C207.145 92.2401 207.069 92.2639 207 92.3018C206.93 92.3396 206.869 92.3908 206.82 92.4524C206.77 92.5139 206.733 92.5847 206.711 92.6605C206.689 92.7363 206.682 92.8158 206.691 92.8943C206.716 93.0494 206.797 93.1901 206.918 93.2892C207.04 93.3883 207.195 93.4389 207.351 93.4313C207.389 93.4313 211.39 93.0198 217.083 93.78C222.777 94.5402 228.812 97.6207 228.872 97.6509C228.958 97.694 229.053 97.7163 229.149 97.716Z" fill="#799AB7"/>
<path d="M28.2156 190.416C28.2854 190.416 28.3547 190.403 28.4202 190.379C28.4202 190.379 31.6377 189.217 36.0712 187.661C40.5047 186.106 48.7439 182.435 48.8253 182.398C48.9714 182.333 49.0859 182.213 49.1434 182.064C49.201 181.915 49.1969 181.749 49.1322 181.603C49.0674 181.457 48.9473 181.342 48.7982 181.285C48.6491 181.227 48.4832 181.231 48.3371 181.296C48.2534 181.335 40.0374 184.99 35.6714 186.527C31.2332 188.089 28.011 189.247 28.011 189.247C27.8817 189.298 27.7739 189.391 27.7059 189.513C27.6379 189.634 27.6139 189.775 27.638 189.912C27.6621 190.048 27.7328 190.173 27.838 190.263C27.9433 190.354 28.0767 190.406 28.2156 190.409V190.416Z" fill="#799AB7"/>
<path d="M151.957 195.646C152.076 195.646 152.192 195.611 152.29 195.545C152.389 195.48 152.466 195.386 152.512 195.277L154.049 191.608C154.111 191.461 154.111 191.295 154.051 191.147C153.99 190.999 153.873 190.882 153.726 190.82C153.579 190.758 153.413 190.758 153.265 190.818C153.117 190.879 153 190.996 152.938 191.143L151.401 194.814C151.371 194.887 151.355 194.965 151.354 195.045C151.354 195.124 151.369 195.202 151.4 195.275C151.43 195.348 151.474 195.415 151.529 195.471C151.585 195.527 151.651 195.572 151.724 195.602C151.798 195.633 151.877 195.648 151.957 195.646Z" fill="#263238"/>
<path d="M134.143 197.519C134.267 197.518 134.387 197.48 134.489 197.41C134.554 197.364 134.609 197.307 134.652 197.24C134.694 197.173 134.723 197.099 134.736 197.021C134.75 196.943 134.748 196.863 134.731 196.786C134.714 196.708 134.681 196.635 134.636 196.571L132.89 194.071C132.844 194.007 132.786 193.951 132.719 193.909C132.652 193.866 132.577 193.838 132.498 193.824C132.34 193.797 132.178 193.834 132.047 193.926C131.916 194.019 131.827 194.159 131.8 194.317C131.773 194.475 131.809 194.638 131.902 194.769L133.648 197.266C133.704 197.344 133.778 197.408 133.865 197.453C133.951 197.497 134.046 197.519 134.143 197.519Z" fill="#263238"/>
<path d="M103.772 247.279C103.919 247.279 104.061 247.225 104.171 247.127C104.281 247.03 104.352 246.895 104.369 246.749L105.89 234.151C105.909 233.992 105.864 233.833 105.766 233.707C105.667 233.582 105.523 233.5 105.364 233.481C105.285 233.468 105.204 233.472 105.127 233.492C105.049 233.512 104.977 233.548 104.914 233.597C104.85 233.646 104.798 233.708 104.76 233.779C104.722 233.849 104.699 233.927 104.692 234.006L103.174 246.605C103.155 246.763 103.2 246.922 103.298 247.048C103.396 247.173 103.539 247.255 103.697 247.274L103.772 247.279Z" fill="#6E8CA6"/>
<path d="M198.218 216.645C198.271 216.644 198.324 216.637 198.376 216.624C198.53 216.581 198.66 216.479 198.739 216.341C198.818 216.202 198.84 216.039 198.799 215.884C198.783 215.822 197.114 209.559 197.404 204.774C197.695 199.989 198.781 197.025 198.799 196.997C198.853 196.848 198.847 196.682 198.78 196.537C198.713 196.393 198.593 196.28 198.443 196.223C198.369 196.195 198.29 196.181 198.211 196.184C198.132 196.186 198.054 196.205 197.981 196.238C197.909 196.271 197.845 196.318 197.791 196.377C197.737 196.435 197.696 196.504 197.669 196.579C197.623 196.707 196.507 199.734 196.209 204.702C195.912 209.67 197.581 215.936 197.653 216.198C197.686 216.324 197.759 216.435 197.861 216.516C197.963 216.596 198.088 216.641 198.218 216.645Z" fill="#6E8CA6"/>
<path d="M66.6501 225.642C66.747 225.642 66.8426 225.619 66.9285 225.574C67.0144 225.529 67.088 225.464 67.1429 225.384L70.5186 220.541C70.5644 220.476 70.597 220.403 70.6144 220.326C70.6319 220.248 70.634 220.168 70.6205 220.09C70.607 220.012 70.5782 219.937 70.5358 219.87C70.4934 219.802 70.4382 219.744 70.3733 219.699C70.3084 219.653 70.2352 219.62 70.1577 219.603C70.0802 219.585 70.0001 219.583 69.9218 219.597C69.8436 219.61 69.7687 219.639 69.7016 219.681C69.6345 219.724 69.5763 219.779 69.5305 219.844L66.1549 224.684C66.092 224.775 66.055 224.88 66.0481 224.99C66.0411 225.1 66.0645 225.21 66.1155 225.307C66.1666 225.405 66.2434 225.487 66.3377 225.544C66.4319 225.601 66.54 225.631 66.6501 225.63V225.642Z" fill="#6E8CA6"/>
<path d="M164.807 212.625C164.951 212.626 165.091 212.575 165.2 212.481C165.31 212.388 165.382 212.258 165.405 212.116C165.427 211.974 165.397 211.828 165.321 211.706C165.246 211.583 165.128 211.492 164.991 211.449C162.249 210.622 159.42 210.116 156.561 209.942C152.314 209.745 149.521 210.126 149.405 210.145C149.327 210.155 149.252 210.182 149.184 210.222C149.116 210.262 149.056 210.315 149.009 210.378C148.962 210.441 148.927 210.513 148.908 210.589C148.889 210.666 148.885 210.745 148.896 210.824C148.921 210.98 149.005 211.121 149.132 211.216C149.259 211.312 149.417 211.354 149.575 211.335C151.875 211.077 154.192 211.014 156.503 211.147C160.616 211.335 164.584 212.586 164.624 212.597C164.683 212.616 164.745 212.625 164.807 212.625Z" fill="#6E8CA6"/>
<path d="M126.136 222.474C126.271 222.474 126.403 222.429 126.51 222.346C126.538 222.32 129.393 220.072 132.917 217.696C136.442 215.32 139.583 213.421 139.615 213.402C139.683 213.362 139.742 213.308 139.79 213.244C139.837 213.181 139.871 213.109 139.89 213.032C139.91 212.955 139.914 212.875 139.902 212.797C139.891 212.719 139.864 212.644 139.823 212.576C139.783 212.508 139.729 212.448 139.666 212.401C139.602 212.354 139.53 212.32 139.453 212.3C139.376 212.281 139.297 212.277 139.218 212.289C139.14 212.3 139.065 212.327 138.997 212.368C138.964 212.386 135.786 214.29 132.241 216.699C128.695 219.107 125.792 221.374 125.761 221.397C125.663 221.475 125.592 221.581 125.557 221.701C125.522 221.821 125.526 221.949 125.567 222.067C125.608 222.185 125.685 222.288 125.787 222.36C125.889 222.433 126.011 222.471 126.136 222.471V222.474Z" fill="#6E8CA6"/>
<path fill-rule="evenodd" clip-rule="evenodd" d="M32.8167 145.1C29.5247 148.099 5.40444 171.705 5.40444 171.705C5.40444 171.705 3.0796 176.588 6.38087 180.786C9.68215 184.985 12.9369 183.911 12.9369 183.911C12.9369 183.911 20.7275 175.179 27.416 167.46C34.1046 159.742 52.3616 142.584 52.3616 142.584C52.3616 142.584 53.1288 139.753 51.0202 135.903C48.9115 132.053 44.8547 131.618 44.8547 131.618C44.8547 131.618 36.1226 142.101 32.8167 145.1Z" fill="white"/>
<path d="M5.9084 181.159C2.42113 176.716 4.75992 171.659 4.85989 171.445C4.89046 171.382 4.9322 171.324 4.98311 171.276C5.21559 171.043 29.1475 147.627 32.4163 144.654C35.6548 141.718 44.3102 131.33 44.3985 131.223C44.4609 131.147 44.5414 131.087 44.6328 131.05C44.7242 131.012 44.8235 130.999 44.9216 131.009C45.1006 131.028 49.3388 131.509 51.5567 135.603C53.7537 139.621 52.9818 142.608 52.9516 142.734C52.9238 142.841 52.8648 142.938 52.7819 143.013C52.6005 143.185 34.4668 160.256 27.8851 167.858C21.3035 175.46 13.4711 184.225 13.3944 184.316C13.3235 184.394 13.2338 184.452 13.134 184.486C12.7462 184.595 12.3443 184.647 11.9414 184.639C10.5697 184.639 8.23324 184.118 5.9084 181.159ZM26.9622 167.068C33.2811 159.775 50.1083 143.875 51.8101 142.266C51.917 141.653 52.1774 139.258 50.4942 136.18C48.9064 133.246 46.0352 132.449 45.0983 132.26C43.6894 133.946 36.2639 142.782 33.2206 145.544C30.0705 148.418 7.45442 170.541 5.9084 172.048C5.61082 172.745 4.04852 176.821 6.85228 180.417C9.4933 183.767 11.9879 183.504 12.6109 183.379C13.6292 182.233 20.813 174.17 26.9622 167.068Z" fill="#263238"/>
<path fill-rule="evenodd" clip-rule="evenodd" d="M25.0186 170.897C24.2213 169.044 23.2151 167.288 22.0195 165.663C20.0945 163.055 15.8936 160.316 15.8936 160.316L32.1326 143.979C32.1326 143.979 34.2831 144.189 37.6169 148.011C40.9507 151.833 41.1739 154.388 41.1739 154.388L25.0186 170.897Z" fill="#F3601E"/>
<path d="M12.6029 183.104C12.7181 183.105 12.831 183.072 12.9279 183.009C13.0249 182.947 13.1017 182.858 13.1492 182.753C13.1934 182.655 14.2117 180.342 12.8633 176.434C11.4823 172.424 6.37464 171.405 6.15843 171.366C6.08126 171.351 6.00179 171.351 5.92467 171.366C5.84756 171.382 5.77436 171.413 5.70938 171.457C5.6444 171.502 5.58895 171.559 5.5463 171.625C5.50364 171.691 5.47463 171.765 5.46098 171.843C5.43243 171.999 5.46678 172.159 5.55653 172.29C5.64627 172.421 5.78411 172.511 5.9399 172.54C5.98408 172.54 10.5896 173.47 11.7311 176.818C12.9098 180.235 12.0682 182.23 12.0589 182.251C11.9952 182.397 11.9915 182.561 12.0485 182.71C12.1055 182.858 12.2186 182.978 12.3634 183.044C12.4385 183.079 12.5199 183.1 12.6029 183.104Z" fill="#263238"/>
<path d="M6.93126 179.822C5.23877 177.55 5.36199 174.268 5.42476 172.501L5.44336 171.945C5.4464 171.787 5.51119 171.637 5.62378 171.527C5.73638 171.416 5.88779 171.354 6.04549 171.354H6.05712C6.13629 171.356 6.21443 171.373 6.28705 171.404C6.35967 171.436 6.42532 171.481 6.48022 171.538C6.53511 171.595 6.57818 171.663 6.60691 171.737C6.63564 171.81 6.64948 171.889 6.64763 171.968L6.62903 172.545C6.58486 173.772 6.51046 175.8 7.094 177.548C7.03588 176.683 7.094 175.137 8.12623 174.526C8.31322 174.417 8.52729 174.365 8.74315 174.374C8.95901 174.384 9.16766 174.455 9.34445 174.579C10.7091 175.409 12.0622 178.913 11.9506 180.661C11.8785 181.823 11.2531 182.177 10.8835 182.288C10.7416 182.33 10.5944 182.352 10.4464 182.351C9.42814 182.339 8.1239 181.421 6.93126 179.822ZM8.04951 178.568C7.90587 178.642 7.73907 178.657 7.58454 178.61C7.68085 178.781 7.78801 178.944 7.90537 179.101C9.07941 180.675 10.1837 181.235 10.558 181.126C10.7254 181.077 10.7603 180.696 10.7696 180.582C10.8207 179.731 10.4604 178.52 10.014 177.497L8.04951 178.568ZM8.74696 175.546C8.41683 175.744 8.29362 176.404 8.28199 177.053L9.45604 176.411C9.18404 175.934 8.92365 175.597 8.75393 175.555L8.74696 175.546Z" fill="#263238"/>
<path d="M8.44607 175.642C8.59146 175.642 8.73183 175.589 8.84129 175.493L10.3896 174.14C10.4495 174.088 10.4986 174.025 10.5341 173.955C10.5696 173.884 10.5907 173.807 10.5963 173.728C10.602 173.649 10.5919 173.57 10.5668 173.495C10.5417 173.42 10.5021 173.351 10.4501 173.291C10.3447 173.171 10.1963 173.098 10.0371 173.086C9.87777 173.075 9.72044 173.127 9.59919 173.231L8.05085 174.584C7.93063 174.689 7.85703 174.838 7.84613 174.998C7.83524 175.157 7.88795 175.314 7.99273 175.435C8.04962 175.499 8.11937 175.551 8.19746 175.587C8.27554 175.622 8.36024 175.641 8.44607 175.642Z" fill="#263238"/>
<path fill-rule="evenodd" clip-rule="evenodd" d="M17.3597 160.021C18.7686 161.881 24.8225 167.707 24.5156 161.751C24.5156 161.751 25.4455 162.741 26.6498 162.216C27.8541 161.69 27.4449 159.51 27.4449 159.51C28.8537 160.891 31.9504 159.998 31.1646 157.515C31.1646 157.515 32.3085 158.422 33.2709 157.822C34.2334 157.222 34.6403 155.497 32.9362 151.64C31.232 147.783 29.9371 145.223 27.8029 145.595C25.6687 145.967 25.6106 148.546 25.6106 148.546C25.6106 148.546 23.6159 148.057 22.4162 148.797C21.2166 149.536 20.6796 151.652 20.6796 151.652C20.6796 151.652 19.0057 150.968 17.8479 152.337C16.6902 153.707 17.1226 154.96 17.1226 154.96C17.1226 154.96 15.6696 154.276 14.6792 156.452C13.6888 158.628 14.6652 162.66 14.6652 162.66L17.3597 160.021Z" fill="#FFB7AA"/>
<path d="M17.3119 160.914L15.087 163.081C15.0104 163.155 14.9158 163.207 14.8127 163.233C14.7095 163.259 14.6013 163.258 14.4988 163.23C14.3967 163.2 14.3042 163.144 14.2307 163.067C14.1572 162.991 14.1053 162.896 14.0803 162.793C14.0385 162.621 13.069 158.545 14.1315 156.192C14.5616 155.246 15.1381 154.637 15.8449 154.379C16.0374 154.307 16.2395 154.263 16.4447 154.249C16.486 153.393 16.8191 152.576 17.3886 151.936C17.7363 151.528 18.185 151.219 18.6898 151.04C19.1946 150.861 19.7377 150.818 20.2644 150.915C20.5341 150.162 21.1037 148.902 22.0848 148.286C23.0147 147.709 24.2957 147.742 25.0699 147.846C25.2838 146.74 25.9859 145.289 27.6853 145.01C30.424 144.508 31.9026 147.881 33.4695 151.415C35.4759 155.948 34.632 157.692 33.5718 158.347C33.3188 158.501 33.0358 158.599 32.7419 158.634C32.448 158.669 32.1499 158.641 31.8677 158.552C31.833 158.918 31.7119 159.271 31.5143 159.582C31.3166 159.892 31.0481 160.151 30.7309 160.338C30.3405 160.572 29.9037 160.719 29.4509 160.768C28.998 160.817 28.54 160.767 28.1084 160.621C28.0596 161.491 27.7527 162.418 26.8763 162.783C26.5968 162.911 26.2945 162.981 25.9873 162.989C25.6802 162.998 25.3745 162.944 25.0885 162.832C24.9699 163.922 24.5491 164.608 23.8261 164.871C23.6283 164.941 23.4199 164.976 23.21 164.976C21.2316 164.973 18.4557 162.214 17.3119 160.914ZM24.9536 161.344C24.9792 161.37 25.6116 162.014 26.4183 161.677C27.0553 161.409 26.9228 160.003 26.8554 159.642C26.8297 159.516 26.8455 159.385 26.9004 159.269C26.9553 159.152 27.0463 159.057 27.1599 158.996C27.2721 158.938 27.3996 158.917 27.5246 158.934C27.6497 158.952 27.766 159.009 27.8574 159.096C28.4734 159.705 29.5033 159.68 30.0985 159.312C30.4751 159.08 30.8634 158.615 30.5751 157.715C30.536 157.593 30.5371 157.461 30.5784 157.339C30.6197 157.217 30.6989 157.112 30.8044 157.038C30.9099 156.964 31.0363 156.927 31.1648 156.93C31.2934 156.934 31.4175 156.978 31.519 157.057C31.519 157.057 32.3536 157.687 32.9371 157.327C33.8322 156.767 33.6206 154.737 32.3699 151.901C30.7425 148.269 29.5522 145.935 27.8876 146.196C26.2602 146.472 26.1997 148.474 26.1974 148.558C26.1954 148.647 26.1735 148.736 26.1333 148.816C26.0931 148.896 26.0356 148.967 25.9649 149.023C25.8928 149.076 25.8101 149.114 25.7222 149.132C25.6344 149.151 25.5435 149.151 25.4558 149.132C24.9722 149.013 23.5262 148.818 22.7241 149.308C21.922 149.799 21.3896 151.273 21.2548 151.791C21.2337 151.874 21.1951 151.951 21.1418 152.018C21.0885 152.084 21.0216 152.139 20.9456 152.177C20.8692 152.216 20.7853 152.239 20.6996 152.243C20.6138 152.248 20.5281 152.234 20.4481 152.203C20.3946 152.18 19.1555 151.712 18.2999 152.712C17.3979 153.793 17.6745 154.723 17.6838 154.753C17.7207 154.863 17.7249 154.981 17.6961 155.094C17.6672 155.206 17.6064 155.307 17.5211 155.386C17.4337 155.464 17.3263 155.516 17.2109 155.536C17.0956 155.557 16.9768 155.545 16.8678 155.502C16.7214 155.43 15.9123 155.176 15.2218 156.69C14.6244 158.01 14.8336 160.156 15.0382 161.439L16.9306 159.596C16.9917 159.536 17.065 159.489 17.1456 159.46C17.2261 159.431 17.312 159.419 17.3975 159.425C17.483 159.432 17.566 159.457 17.6411 159.498C17.7162 159.54 17.7815 159.597 17.8326 159.666C19.0695 161.307 22.2963 164.118 23.4123 163.739C23.7819 163.606 23.9609 162.895 23.9028 161.788C23.8978 161.666 23.9302 161.545 23.9956 161.441C24.0611 161.337 24.1565 161.256 24.2692 161.208C24.382 161.16 24.5067 161.147 24.6269 161.171C24.747 161.196 24.8569 161.256 24.942 161.344H24.9536Z" fill="#263238"/>
<path fill-rule="evenodd" clip-rule="evenodd" d="M42.1183 159.833C42.1183 159.833 35.3762 160.921 32.8189 161.325C30.2616 161.73 28.3692 159.051 28.4529 158.633C28.5366 158.214 32.0657 156.875 33.3629 156.666C36.3062 156.164 41.6533 152.858 42.1183 159.833Z" fill="#FFB7AA"/>
<path d="M30.4043 157.252C30.4376 157.256 30.471 157.256 30.5043 157.252C30.5828 157.24 30.658 157.211 30.7255 157.169C30.793 157.127 30.8515 157.072 30.8974 157.007C30.9433 156.942 30.9758 156.869 30.9929 156.791C31.01 156.713 31.0115 156.633 30.9972 156.555C30.2579 152.163 28.1236 149.968 26.0011 148.099C25.8808 147.996 25.7248 147.944 25.5667 147.956C25.4087 147.967 25.2614 148.04 25.1568 148.159C25.0521 148.278 24.9986 148.433 25.0079 148.591C25.0171 148.749 25.0883 148.898 25.206 149.004C27.1635 150.729 29.1326 152.751 29.8115 156.757C29.8361 156.896 29.9091 157.022 30.0176 157.113C30.126 157.203 30.263 157.253 30.4043 157.252Z" fill="#263238"/>
<path d="M27.1406 158.594C27.2368 158.593 27.3316 158.57 27.417 158.526C27.5024 158.482 27.5759 158.418 27.6315 158.339C27.687 158.261 27.723 158.17 27.7362 158.075C27.7495 157.979 27.7398 157.882 27.7078 157.791C27.6637 157.661 26.557 154.567 24.6181 152.888C22.6792 151.21 20.8031 151.047 20.7263 151.042C20.6456 151.033 20.5637 151.039 20.4855 151.062C20.4074 151.085 20.3347 151.123 20.2718 151.175C20.2089 151.226 20.1572 151.29 20.1196 151.362C20.0821 151.435 20.0596 151.514 20.0535 151.595C20.0473 151.676 20.0577 151.758 20.084 151.835C20.1102 151.912 20.1518 151.982 20.2062 152.043C20.2606 152.103 20.3267 152.152 20.4006 152.186C20.4744 152.221 20.5543 152.24 20.6357 152.242C20.6473 152.242 22.184 152.391 23.8347 153.804C25.5318 155.269 26.5617 158.163 26.571 158.191C26.6133 158.309 26.6907 158.41 26.7925 158.482C26.8944 158.554 27.0159 158.593 27.1406 158.594Z" fill="#263238"/>
<path d="M23.679 161.286C23.7916 161.284 23.9016 161.252 23.9966 161.191C24.0915 161.13 24.1675 161.044 24.2159 160.942C24.2644 160.841 24.2833 160.728 24.2706 160.616C24.2578 160.504 24.214 160.398 24.1439 160.309C24.0649 160.207 22.1562 157.801 20.8752 156.508C19.5407 155.139 17.3879 154.416 17.3042 154.379C17.1525 154.328 16.987 154.34 16.844 154.411C16.701 154.483 16.5922 154.608 16.5417 154.76C16.4911 154.912 16.5029 155.077 16.5744 155.22C16.6459 155.363 16.7713 155.472 16.923 155.522C16.9439 155.522 18.8828 156.19 20.0173 157.352C21.2518 158.601 23.1791 161.032 23.1977 161.058C23.2556 161.13 23.3289 161.187 23.4122 161.227C23.4956 161.266 23.5867 161.286 23.679 161.286Z" fill="#263238"/>
<path d="M17.3612 160.63C17.4882 160.63 17.6119 160.59 17.7147 160.515C17.8175 160.441 17.8941 160.336 17.9336 160.215C17.973 160.094 17.9733 159.964 17.9344 159.843C17.8955 159.722 17.8194 159.617 17.7169 159.542L15.6943 158.049C15.5655 157.96 15.4068 157.924 15.2519 157.949C15.0971 157.975 14.9583 158.06 14.8653 158.187C14.7722 158.313 14.7322 158.471 14.7537 158.626C14.7753 158.782 14.8567 158.923 14.9805 159.019L17.0032 160.511C17.1067 160.588 17.2322 160.63 17.3612 160.63Z" fill="#263238"/>
<path d="M28.8176 160.349C28.5549 160.082 27.7202 159.152 27.8458 158.517C28.055 157.455 32.707 156.16 33.2464 156.071C33.8671 155.946 34.4796 155.784 35.0807 155.585C37.0266 154.99 39.2398 154.323 40.8672 155.448C41.9622 156.206 42.5667 157.627 42.7085 159.791C42.7139 159.87 42.7036 159.949 42.6784 160.024C42.6531 160.099 42.6134 160.168 42.5613 160.228C42.5093 160.287 42.446 160.336 42.3751 160.371C42.3043 160.406 42.2272 160.427 42.1482 160.433H42.118C41.9653 160.432 41.8185 160.374 41.7071 160.27C41.5957 160.165 41.5282 160.022 41.5182 159.87C41.3996 158.119 40.9556 156.964 40.1907 156.436C39.0446 155.639 37.1312 156.218 35.4411 156.736C34.7895 156.949 34.1257 157.123 33.4533 157.257C32.3792 157.429 29.9126 158.359 29.1384 158.81C29.5336 159.479 30.9634 161.002 32.721 160.728C33.3626 160.63 34.2577 160.495 35.2458 160.323L37.3079 159.989C37.3861 159.976 37.466 159.979 37.543 159.997C37.6201 160.015 37.6928 160.048 37.757 160.095C37.8212 160.141 37.8757 160.199 37.9173 160.267C37.9589 160.334 37.9869 160.409 37.9995 160.487C38.0122 160.565 38.0094 160.645 37.9912 160.722C37.973 160.799 37.9397 160.872 37.8934 160.936C37.8471 161.001 37.7886 161.055 37.7213 161.097C37.6539 161.138 37.579 161.166 37.5009 161.179L35.4387 161.511C34.4483 161.672 33.551 161.818 32.907 161.918C32.7016 161.95 32.4941 161.966 32.2862 161.967C30.5775 161.969 29.3128 160.867 28.8176 160.349Z" fill="#263238"/>
<path d="M31.3678 172.041C31.5101 172.04 31.6477 171.99 31.7565 171.898C31.8653 171.806 31.9384 171.679 31.9629 171.539L32.1071 170.632C32.6255 167.426 33.2114 163.79 35.3339 161.391C35.4303 161.27 35.4765 161.116 35.4629 160.962C35.4494 160.808 35.3772 160.664 35.2612 160.562C35.1452 160.459 34.9943 160.405 34.8396 160.411C34.6848 160.416 34.5381 160.481 34.4296 160.591C32.0768 163.253 31.4631 167.073 30.9191 170.441L30.7726 171.341C30.759 171.419 30.761 171.5 30.7785 171.577C30.7961 171.655 30.8288 171.728 30.8748 171.793C30.9209 171.858 30.9793 171.913 31.0468 171.955C31.1142 171.997 31.1893 172.026 31.2678 172.039C31.301 172.042 31.3344 172.042 31.3678 172.041Z" fill="#263238"/>
<path fill-rule="evenodd" clip-rule="evenodd" d="M146.362 96.0502L153.309 105.217L157.647 102.804L150.993 93.623L146.362 96.0502Z" fill="#457B9D"/>
<path fill-rule="evenodd" clip-rule="evenodd" d="M179.873 51.7012L174.026 60.3635L178.269 65.0923L184.811 55.1187L179.873 51.7012Z" fill="#F3601E"/>
<path fill-rule="evenodd" clip-rule="evenodd" d="M31.0723 74.7345L32.9275 77.6499L37.8655 73.7163L35.1454 70.7451L31.0723 74.7345Z" fill="#457B9D"/>
<path fill-rule="evenodd" clip-rule="evenodd" d="M29.1059 102.651L27.5855 108.189L30.166 113.434L24.5167 112.374L22.0477 115.945L20.6365 110.504L16.9121 108.9L20.1343 106.124L21.041 100.222L24.6143 103.711L29.1059 102.651Z" fill="#F3601E"/>
<path fill-rule="evenodd" clip-rule="evenodd" d="M238.271 230.05L239.792 235.588L237.211 240.835L242.86 239.775L245.332 243.346L246.74 237.906L250.465 236.299L247.243 233.523L246.336 227.623L242.763 231.11L238.271 230.05Z" fill="#F3601E"/>
<path fill-rule="evenodd" clip-rule="evenodd" d="M264.278 180.05C263.737 181.37 263.098 182.647 262.367 183.872C261.204 185.797 257.582 188.673 257.582 188.673L259.953 192.899C259.953 192.899 261.362 192.746 264.026 190.081C266.691 187.417 268.155 183.481 268.155 183.481L264.278 180.05Z" fill="#263238"/>
<path fill-rule="evenodd" clip-rule="evenodd" d="M240.95 274.889L239.987 281.738L245.023 283.203L245.276 274.484L240.95 274.889Z" fill="#263238"/>
<path fill-rule="evenodd" clip-rule="evenodd" d="M68.9932 271.31C68.9932 271.31 71.6574 276.501 71.8109 276.808C71.9643 277.115 75.0889 274.395 75.0889 274.395L71.4621 268.952L68.9932 271.31Z" fill="#457B9D"/>
<path fill-rule="evenodd" clip-rule="evenodd" d="M31.7288 266.364C31.7288 266.364 30.4594 266.169 28.6461 264.551C26.8327 262.933 25.4238 259.822 25.4238 259.822L30.6129 256.544C31.0862 257.425 31.6077 258.278 32.1752 259.101C33.04 260.315 36.7109 262.937 36.7109 262.937L31.7288 266.364Z" fill="#F3601E"/>
<path fill-rule="evenodd" clip-rule="evenodd" d="M85.9024 166.182C85.9024 166.182 85.2863 168.149 84.3378 169.363C83.3892 170.576 80.1949 172.685 80.1949 172.685L77.0703 167.954C78.0575 167.256 78.9568 166.442 79.7485 165.529C80.6599 164.519 81.3616 163.339 81.813 162.056L85.9024 166.182Z" fill="#F3601E"/>
<path fill-rule="evenodd" clip-rule="evenodd" d="M37.8271 25.8916C37.8271 25.8916 37.869 26.1427 39.1384 28.1095C40.4077 30.0763 41.6073 30.4808 41.6073 30.4808L44.6296 29.2254C43.7176 28.7126 42.8857 28.0687 42.1607 27.3144C40.9052 26.0032 40.7518 23.5342 40.7518 23.5342L37.8271 25.8916Z" fill="#457B9D"/>
<path fill-rule="evenodd" clip-rule="evenodd" d="M121.923 29.8813C121.923 29.8813 122.174 30.7322 123.039 32.9036C123.904 35.075 125.41 36.0306 125.41 36.0306L129.037 35.0262L127.409 33.3988C125.847 31.8342 125.55 29.3652 125.55 29.3652L121.923 29.8813Z" fill="#263238"/>
<path fill-rule="evenodd" clip-rule="evenodd" d="M266.956 27.8442L262.283 26.0029L262.66 35.3232L267.835 36.9134L268.225 37.025C268.03 36.9646 266.956 27.8442 266.956 27.8442Z" fill="#F3601E"/>
<path d="M252.557 154.656C252.446 154.54 252.386 154.386 252.39 154.226C252.393 154.067 252.46 153.915 252.575 153.805C252.659 153.728 260.112 146.516 262.598 137.133C260.259 138.219 257.934 138.242 256.239 137.682C253.449 136.752 252.054 134.341 252.822 131.798C253.893 128.294 257.602 125.872 260.749 126.616C261.837 126.871 265.236 128.196 264.353 134.564C265.999 133.148 267.531 130.986 268.649 127.838C270.953 121.366 270.067 115.394 267.74 111.502C266.652 114.015 264.976 116.119 262.565 117.474C258.229 119.913 256.439 118.002 255.865 117.074C254.286 114.499 255.521 109.244 259.215 106.78C261.17 105.473 263.593 105.741 265.862 107.508C266.42 107.947 266.933 108.439 267.396 108.977C269.051 103.207 268.075 95.837 266.141 90.6549C263.246 82.9248 256.069 84.7033 255.77 84.7777C255.615 84.8168 255.452 84.7936 255.314 84.7131C255.177 84.6327 255.076 84.5014 255.035 84.3476C255.014 84.2713 255.009 84.1916 255.019 84.1132C255.03 84.0348 255.055 83.9593 255.095 83.8909C255.135 83.8226 255.188 83.7628 255.251 83.7151C255.314 83.6674 255.386 83.6327 255.463 83.613C255.537 83.5828 263.995 81.4648 267.271 90.2318C269.363 95.844 270.342 103.925 268.27 110.114C271.12 114.266 272.369 120.978 269.784 128.248C268.347 132.295 266.248 134.846 264.032 136.326C261.796 146.579 253.761 154.344 253.41 154.679C253.298 154.787 253.147 154.847 252.991 154.846C252.91 154.845 252.829 154.828 252.755 154.795C252.68 154.762 252.613 154.715 252.557 154.656ZM263.086 134.894C263.751 130.942 262.8 128.345 260.473 127.794C258.197 127.25 254.935 129.013 253.963 132.158C253.242 134.515 254.937 135.996 256.606 136.545C258.276 137.094 260.64 136.975 262.949 135.585C263.002 135.348 263.044 135.118 263.086 134.887V134.894ZM265.12 108.463C263.288 107.038 261.377 106.799 259.882 107.791C256.86 109.814 255.625 114.385 256.89 116.449C258.02 118.281 260.559 117.223 261.975 116.43C264.362 115.089 265.962 112.925 266.945 110.332C266.418 109.633 265.805 109.002 265.12 108.456V108.463Z" fill="#263238"/>
<path d="M23.9059 252.408C23.4688 252.138 13.1883 245.666 10.9332 237.861C10.6029 236.741 10.4369 235.579 10.4404 234.411C9.23146 233.193 8.09229 231.493 7.22279 229.127C2.34062 215.836 17.8892 209.682 18.0473 209.621C18.121 209.591 18.2 209.577 18.2795 209.578C18.359 209.58 18.4375 209.597 18.5101 209.629C18.5828 209.662 18.6482 209.708 18.7025 209.766C18.7568 209.824 18.7988 209.893 18.8261 209.968C18.8546 210.042 18.8682 210.12 18.8662 210.199C18.8642 210.279 18.8466 210.357 18.8144 210.429C18.7822 210.501 18.7361 210.566 18.6787 210.621C18.6212 210.675 18.5536 210.718 18.4797 210.746C17.8822 210.979 3.87269 216.535 8.35266 228.713C8.86788 230.175 9.62121 231.542 10.5822 232.758C10.9402 230.666 11.9608 228.955 13.5301 228.036C15.8875 226.655 18.8772 227.425 21.5276 230.115C23.5199 232.142 23.1991 233.862 22.8295 234.706C22.0669 236.455 19.7583 237.559 17.2057 237.496C15.2091 237.405 13.2872 236.71 11.6935 235.504C11.7654 236.19 11.8985 236.868 12.091 237.531C14.2182 244.875 24.4476 251.315 24.5405 251.387C24.6076 251.429 24.6657 251.483 24.7117 251.547C24.7576 251.611 24.7905 251.684 24.8084 251.761C24.8264 251.838 24.829 251.917 24.8161 251.995C24.8032 252.073 24.7752 252.148 24.7335 252.215C24.6918 252.282 24.6374 252.34 24.5732 252.386C24.5091 252.432 24.4365 252.465 24.3597 252.483C24.2828 252.5 24.2032 252.503 24.1253 252.49C24.0474 252.477 23.9729 252.449 23.9059 252.408ZM14.1415 229.076C12.656 229.945 11.7818 231.74 11.6563 233.902C13.1725 235.337 15.151 236.184 17.2359 236.29C19.3631 236.334 21.1672 235.504 21.7228 234.225C22.1553 233.235 21.7879 232.105 20.6627 230.97C19.1051 229.389 17.4963 228.569 16.0316 228.569C15.3669 228.566 14.7134 228.741 14.1392 229.076H14.1415Z" fill="#F3601E"/>
<path d="M100.506 137.509C100.067 137.24 89.7889 130.756 87.5338 122.963C87.2037 121.843 87.037 120.681 87.0386 119.513C85.832 118.295 84.6905 116.595 83.8234 114.228C78.9412 100.937 94.4898 94.7858 94.6478 94.723C94.7216 94.6936 94.8006 94.6792 94.88 94.6808C94.9594 94.6823 95.0377 94.6997 95.1103 94.732C95.1829 94.7643 95.2483 94.8108 95.3026 94.8687C95.3569 94.9267 95.3991 94.9949 95.4267 95.0694C95.4551 95.1433 95.4688 95.2221 95.4668 95.3012C95.4648 95.3804 95.4472 95.4584 95.415 95.5307C95.3828 95.603 95.3367 95.6683 95.2792 95.7228C95.2218 95.7773 95.1542 95.8199 95.0803 95.8483C94.4828 96.0808 80.4733 101.637 84.9533 113.815C85.4678 115.28 86.2212 116.65 87.1828 117.869C87.5408 115.777 88.5614 114.063 90.1307 113.147C92.4881 111.766 95.4778 112.536 98.1281 115.224C100.121 117.251 99.7997 118.971 99.4301 119.815C98.6675 121.563 96.3589 122.668 93.8063 122.605C91.8101 122.511 89.8889 121.817 88.294 120.612C88.3663 121.298 88.4993 121.976 88.6916 122.637C90.8165 129.984 101.039 136.431 101.141 136.496C101.252 136.565 101.338 136.668 101.385 136.791C101.432 136.913 101.438 137.047 101.402 137.173C101.366 137.299 101.29 137.41 101.186 137.488C101.081 137.567 100.954 137.61 100.823 137.609C100.71 137.608 100.6 137.573 100.506 137.509ZM90.7421 114.177C89.2565 115.047 88.3824 116.842 88.2545 119.004C89.7717 120.437 91.7495 121.285 93.8342 121.394C95.9614 121.438 97.7655 120.608 98.3211 119.327C98.7535 118.336 98.3862 117.207 97.261 116.072C95.7033 114.491 94.0945 113.671 92.6299 113.671C91.9659 113.668 91.3133 113.843 90.7398 114.177H90.7421Z" fill="#F3601E"/>
<path d="M243.965 49.4958C246.462 53.5294 250.424 55.1893 253.018 55.8589C254.302 55.4544 258.865 54.464 258.865 54.464C258.865 54.464 260.665 56.0263 259.856 57.9373C259.047 59.8483 257.694 60.1134 257.694 60.1134C257.694 60.1134 255.097 58.6766 253.632 57.9373C250.828 57.3794 245.542 55.6636 242.347 50.4978C238.063 43.6047 235.886 40.4382 235.886 40.4243C235.817 40.3217 235.768 40.2064 235.743 40.085C235.718 39.9636 235.717 39.8384 235.74 39.7167C235.764 39.5949 235.811 39.4789 235.879 39.3754C235.947 39.2718 236.035 39.1827 236.138 39.1131C236.24 39.0434 236.355 38.9947 236.477 38.9697C236.598 38.9446 236.723 38.9437 236.845 38.967C236.967 38.9904 237.083 39.0374 237.186 39.1056C237.29 39.1737 237.379 39.2616 237.449 39.3641C237.463 39.3688 239.753 42.7026 243.965 49.4958Z" fill="#263238"/>
<path fill-rule="evenodd" clip-rule="evenodd" d="M173.052 25.822L174.53 20.9119L153.66 7.78352L205.99 0.641602L244.106 42.8282L217.459 39.2712L215.017 47.0687L203.284 39.7036L173.052 25.822Z" fill="#066AC9"/>
<path d="M202.997 40.2361L172.325 26.1522L173.823 21.177L151.937 7.41393L205.908 0.0418455L206.222 0L245.651 43.642L217.876 39.9362L215.354 47.9941L202.997 40.2361ZM242.557 42.0146L205.757 1.27866L155.387 8.15555L175.238 20.6469L173.781 25.4919L203.539 39.1573L214.677 46.1458L217.037 38.6087L242.557 42.0146Z" fill="#066AC9"/>
<path fill-rule="evenodd" clip-rule="evenodd" d="M215.014 47.0686C213.851 49.3423 203.531 46.3851 191.967 40.4707C180.404 34.5563 171.948 27.9421 173.106 25.6684C174.264 23.3947 185.228 24.692 196.819 30.6064C208.411 36.5208 216.171 44.8089 215.014 47.0686Z" fill="#263238"/>
<path d="M218.762 37.509L219.99 34.117L219.883 33.8845C212.588 18.594 195.63 10.9267 176.641 14.3814L176.304 14.4419L174.397 19.6821L175.532 20.0912L177.197 15.5067C195.395 12.3495 211.618 19.6356 218.69 34.1751L217.63 37.0928L218.762 37.509Z" fill="white"/>
<path fill-rule="evenodd" clip-rule="evenodd" d="M76.7572 24.4551C76.7572 24.4551 71.4984 27.0124 71.2055 27.1472C70.9126 27.2821 73.5303 30.4811 73.5303 30.4811L79.0542 26.9938L76.7572 24.4551Z" fill="#457B9D"/>
<path fill-rule="evenodd" clip-rule="evenodd" d="M75.8477 67.0437C75.8477 67.0437 75.9499 67.2762 77.6657 68.8711C79.3814 70.4659 80.6438 70.5589 80.6438 70.5589L83.2662 68.5991C82.2558 68.328 81.2907 67.9097 80.402 67.3576C78.8606 66.3951 78.1027 64.04 78.1027 64.04L75.8477 67.0437Z" fill="#457B9D"/>
<path fill-rule="evenodd" clip-rule="evenodd" d="M113.216 56.0537C113.216 56.0537 108.747 59.8246 108.499 60.0315C108.25 60.2384 111.579 62.6888 111.579 62.6888L116.073 57.9461L113.216 56.0537Z" fill="#457B9D"/>
<path d="M101.474 197.242C101.326 197.184 101.205 197.07 101.141 196.924C101.076 196.778 101.071 196.612 101.128 196.463C101.158 196.391 103.885 189.226 102.19 184.702C102.096 184.452 101.988 184.208 101.867 183.969C101.467 185.058 100.784 186.021 99.8889 186.759C98.5126 187.854 96.8317 188.154 95.6809 187.51C95.1206 187.189 94.2163 186.364 94.4813 184.427C94.8161 181.931 96.1226 180.31 97.9686 180.099C99.0473 179.971 100.156 180.366 101.114 181.135C101.086 180.321 100.949 179.514 100.707 178.736C98.3824 170.955 89.2434 173.426 88.8505 173.536C88.697 173.577 88.5333 173.557 88.3946 173.479C88.2559 173.401 88.1533 173.272 88.1089 173.119C88.0873 173.044 88.0808 172.964 88.0899 172.886C88.0991 172.807 88.1235 172.732 88.162 172.663C88.2004 172.594 88.2521 172.533 88.314 172.484C88.3759 172.435 88.4468 172.399 88.5227 172.378C88.6297 172.35 99.203 169.474 101.863 178.392C102.273 179.667 102.411 181.013 102.267 182.344C102.703 182.94 103.055 183.591 103.316 184.281C105.176 189.24 102.386 196.603 102.253 196.903C102.21 197.016 102.133 197.114 102.032 197.183C101.932 197.252 101.813 197.289 101.691 197.288C101.616 197.286 101.543 197.27 101.474 197.242ZM98.1081 181.289C96.8247 181.435 95.9366 182.635 95.6763 184.583C95.5856 185.23 95.6181 186.083 96.2761 186.457C96.9735 186.866 98.1569 186.59 99.138 185.808C100.108 185.006 100.766 183.889 100.998 182.651C100.068 181.6 98.9613 181.173 98.1081 181.289Z" fill="#263238"/>
<path d="M273.782 293.551C273.782 293.647 212.705 293.726 137.379 293.726C62.0274 293.726 0.962891 293.647 0.962891 293.551C0.962891 293.455 62.0274 293.376 137.379 293.376C212.705 293.376 273.782 293.455 273.782 293.551Z" fill="#263238"/>
</svg>
