<svg width="20" height="25" viewBox="0 0 20 25" fill="none" xmlns="http://www.w3.org/2000/svg">
<path d="M17 13C18.6569 13 20 14.3432 20 16V17C20 20.9429 16.281 25 10 25C3.71902 25 0 20.9429 0 17V16C0 14.3432 1.34315 13 3 13H17ZM17 15H3C2.44772 15 2 15.4477 2 16V17C2 19.8753 4.86432 23 10 23C15.1357 23 18 19.8753 18 17V16C18 15.4477 17.5523 15 17 15ZM10 0C13.0376 0 15.5 2.46244 15.5 5.5C15.5 8.53757 13.0376 11 10 11C6.96244 11 4.5 8.53757 4.5 5.5C4.5 2.46244 6.96244 0 10 0ZM10 2C8.06701 2 6.5 3.56701 6.5 5.5C6.5 7.433 8.06701 9 10 9C11.933 9 13.5 7.433 13.5 5.5C13.5 3.56701 11.933 2 10 2Z" fill="white"/>
<path d="M8.61256 14.7123L8.61256 14.7123L8.18863 14.1091C8.18857 14.109 8.18851 14.1089 8.18845 14.1088C8.11788 14.0088 8.07877 13.8841 8.10402 13.7507C8.12861 13.6208 8.20726 13.5197 8.29919 13.4476C8.47726 13.308 8.73473 13.25 8.98479 13.25H11.0172C11.2703 13.25 11.5243 13.3085 11.7032 13.4464L11.7049 13.4476L11.7048 13.4476C11.7968 13.5197 11.8754 13.6208 11.9 13.7507C11.9253 13.8841 11.8861 14.0088 11.8156 14.1088C11.8155 14.1089 11.8155 14.109 11.8154 14.1091L11.392 14.7116C11.3919 14.7117 11.3918 14.7118 11.3917 14.712C11.3068 14.8337 11.1753 14.9224 11.0382 14.9844C11.1865 15.0667 11.3349 15.1991 11.3751 15.3924L11.375 15.392L11.1304 15.4436L11.3752 15.3931L8.61256 14.7123ZM8.61256 14.7123L8.61313 14.7131C8.69826 14.8333 8.82841 14.9216 8.96497 14.9836L8.61256 14.7123ZM11.5769 19.5648L10.7122 15.4688C10.7024 15.4212 10.6543 15.3781 10.5863 15.3484C10.5222 15.3352 10.4515 15.3275 10.3768 15.3272C10.3754 15.3272 10.3741 15.3272 10.3727 15.3272H9.63331H9.62927C9.55831 15.3272 9.49087 15.334 9.42917 15.3457C9.3583 15.3754 9.30794 15.4194 9.29794 15.4688L8.43325 19.5648C8.41304 19.6545 8.51002 19.7694 8.6474 19.8197L9.74374 20.2269C9.74754 20.2276 9.75137 20.2284 9.75523 20.229L9.84051 19.9962L8.73445 19.5853L8.73337 19.5849C8.71873 19.5796 8.70547 19.5726 8.69441 19.565C8.69266 19.5638 8.69102 19.5626 8.68947 19.5615M11.5769 19.5648L11.3299 19.6038C11.3252 19.5742 11.3314 19.5537 11.3342 19.5463C11.337 19.539 11.3384 19.5392 11.3336 19.5448C11.3305 19.5484 11.326 19.553 11.3199 19.558M11.5769 19.5648C11.591 19.6545 11.494 19.7694 11.3587 19.8197M11.5769 19.5648L11.3322 19.6165L11.3199 19.558M11.3199 19.558L10.479 15.5745M11.3199 19.558C11.3169 19.5604 11.3136 19.5629 11.3099 19.5654C11.2987 19.5732 11.2857 19.5801 11.2716 19.5853L11.3587 19.8197M10.479 15.5745C10.4834 15.5762 10.4874 15.578 10.4911 15.5797C10.4985 15.5833 10.5016 15.5856 10.5016 15.5856C10.5016 15.5856 10.5006 15.5848 10.4987 15.583C10.4941 15.5783 10.4757 15.5582 10.4676 15.5204C10.4675 15.5199 10.4674 15.5195 10.4673 15.519L10.4673 15.519L10.4676 15.5204L10.479 15.5745ZM10.479 15.5745C10.4543 15.565 10.4181 15.5569 10.3768 15.5569H9.63331C9.59187 15.5569 9.55574 15.5648 9.5312 15.5741M9.5312 15.5741L9.54255 15.5204L9.54256 15.5204L9.54296 15.5184C9.54282 15.5191 9.54269 15.5197 9.54255 15.5204C9.53458 15.5573 9.5166 15.5773 9.51163 15.5823C9.50962 15.5843 9.50847 15.5852 9.50848 15.5852C9.50849 15.5852 9.51147 15.5829 9.51864 15.5795C9.52239 15.5777 9.52659 15.5759 9.5312 15.5741ZM9.5312 15.5741L8.68947 19.5615M8.68947 19.5615C8.68106 19.5552 8.67553 19.5496 8.6725 19.5461C8.67115 19.5444 8.6706 19.5436 8.67061 19.5436C8.67063 19.5436 8.67269 19.5467 8.67501 19.5534C8.6786 19.5637 8.68389 19.5864 8.67784 19.6165C8.67762 19.6176 8.67739 19.6187 8.67713 19.6198L8.67786 19.6165L8.68947 19.5615ZM11.3587 19.8197L11.2716 19.5854L10.1656 19.9962L10.2505 20.2282C10.2563 20.2272 10.2621 20.2261 10.2678 20.2249L11.3587 19.8197ZM11.684 20.2444L11.6841 20.2444L11.5971 20.01L11.6836 20.2445C11.6838 20.2445 11.6839 20.2444 11.684 20.2444ZM10.5787 20.655L10.4899 20.4212L10.577 20.6556L10.5778 20.6553C10.5781 20.6552 10.5784 20.6551 10.5787 20.655ZM9.75523 20.229L9.84158 19.9966L9.84098 19.9964C9.87499 20.0087 9.93297 20.0192 10.003 20.0192C10.0731 20.0192 10.1311 20.0087 10.1651 19.9964L10.1645 19.9966L10.2505 20.2282C10.1762 20.242 10.0921 20.2499 10.003 20.25C10.0024 20.25 10.0017 20.25 10.001 20.25C9.91349 20.25 9.83019 20.2425 9.75523 20.229ZM9.16322 13.9808H10.8368L10.5881 14.3346C10.5873 14.3352 10.5863 14.3359 10.5852 14.3366C10.5753 14.3431 10.5586 14.3519 10.5352 14.3606C10.4874 14.3786 10.4297 14.3897 10.3788 14.3897H9.62119C9.57035 14.3897 9.51265 14.3786 9.46478 14.3606C9.44138 14.3519 9.42474 14.3431 9.41485 14.3366C9.41368 14.3359 9.41269 14.3352 9.41185 14.3346L9.16322 13.9808Z" fill="white" stroke="white" stroke-width="0.5"/>
</svg>
