<svg width="14" height="14" viewBox="0 0 14 14" fill="none" xmlns="http://www.w3.org/2000/svg">
<path d="M7 0C3.15 0 0 3.10625 0 7C0 10.8937 3.19375 14 7 14C10.7625 14 14 10.9375 14 7C14 3.10625 10.8062 0 7 0ZM12.1625 10.2812C11.725 9.975 11.2437 9.66875 10.675 9.45C10.8062 8.8375 10.8937 8.1375 10.8937 7.4375H13.0812C13.0375 8.44375 12.7312 9.40625 12.1625 10.2812ZM9.3625 12.6437C9.84375 12.0312 10.2375 11.2438 10.5 10.325C10.9375 10.5 11.3313 10.7188 11.6813 10.9813C10.9813 11.7688 10.2375 12.2937 9.3625 12.6437ZM2.3625 10.9813C2.7125 10.7188 3.10625 10.5 3.5 10.325C3.7625 11.2438 4.15625 12.0312 4.6375 12.6437C3.7625 12.2937 3.01875 11.725 2.3625 10.9813ZM1.8375 3.71875C2.275 4.025 2.75625 4.33125 3.325 4.55C3.19375 5.1625 3.10625 5.8625 3.10625 6.5625H0.875C0.9625 5.55625 1.26875 4.59375 1.8375 3.71875ZM4.6375 1.35625C4.15625 1.96875 3.7625 2.75625 3.5 3.675C3.10625 3.5 2.7125 3.28125 2.3625 3.01875C3.01875 2.23125 3.80625 1.70625 4.6375 1.35625ZM11.6375 3.01875C11.2875 3.28125 10.8937 3.5 10.5 3.675C10.2375 2.75625 9.84375 1.96875 9.3625 1.35625C10.2375 1.70625 10.9813 2.275 11.6375 3.01875ZM6.5625 4.375C5.775 4.33125 5.03125 4.2 4.33125 4.025C4.8125 2.40625 5.6 1.26875 6.5625 0.9625V4.375ZM6.5625 5.25V6.5625H3.9375C3.98125 5.95 4.025 5.38125 4.1125 4.85625C4.9 5.075 5.73125 5.20625 6.5625 5.25ZM6.5625 7.4375V8.75C5.73125 8.79375 4.9 8.925 4.15625 9.14375C4.06875 8.61875 3.98125 8.00625 3.98125 7.4375H6.5625ZM6.5625 9.625V13.0375C5.64375 12.775 4.8125 11.5937 4.33125 10.0187C5.03125 9.8 5.775 9.66875 6.5625 9.625ZM7.4375 13.0375V9.625C8.225 9.66875 8.96875 9.8 9.66875 9.975C9.1875 11.5937 8.35625 12.775 7.4375 13.0375ZM7.4375 8.75V7.4375H10.0625C10.0187 8.05 9.975 8.61875 9.8875 9.14375C9.1 8.925 8.26875 8.79375 7.4375 8.75ZM7.4375 6.5625V5.25C8.26875 5.20625 9.1 5.075 9.84375 4.85625C9.93125 5.38125 10.0187 5.99375 10.0187 6.5625H7.4375ZM7.4375 4.375V0.9625C8.35625 1.225 9.1875 2.40625 9.66875 4.025C8.96875 4.2 8.225 4.33125 7.4375 4.375ZM3.0625 7.4375C3.10625 8.1375 3.15 8.8375 3.28125 9.45C2.75625 9.66875 2.23125 9.975 1.79375 10.2812C1.26875 9.40625 0.91875 8.44375 0.875 7.4375H3.0625ZM10.9375 6.5625C10.8937 5.8625 10.85 5.1625 10.7188 4.55C11.2438 4.33125 11.7687 4.025 12.2062 3.71875C12.7312 4.59375 13.0812 5.55625 13.125 6.5625H10.9375Z" fill="#24292D"/>
</svg>
