<svg width="53" height="48" viewBox="0 0 53 48" fill="none" xmlns="http://www.w3.org/2000/svg">
<g opacity="0.2">
<path opacity="0.037" d="M25.1095 44.1103C25.1521 42.0033 21.5159 40.2218 16.9876 40.1312C12.4593 40.0407 8.75378 41.6754 8.71109 43.7825C8.6684 45.8895 12.3047 47.671 16.833 47.7616C21.3613 47.8521 25.0668 46.2174 25.1095 44.1103Z" fill="#141414"/>
<path opacity="0.074" d="M24.9635 44.108C25.0054 42.0385 21.4338 40.2887 16.986 40.1998C12.5382 40.1109 8.89862 41.7165 8.85669 43.786C8.81475 45.8555 12.3864 47.6053 16.8342 47.6942C21.2819 47.7831 24.9216 46.1775 24.9635 44.108Z" fill="#141414"/>
<path opacity="0.111" d="M24.8201 44.1048C24.8613 42.0712 21.353 40.3518 16.9841 40.2645C12.6152 40.1771 9.04013 41.7549 8.99892 43.7885C8.95772 45.8221 12.466 47.5415 16.8349 47.6289C21.2038 47.7162 24.7789 46.1384 24.8201 44.1048Z" fill="#141414"/>
<path opacity="0.148" d="M24.6777 44.1026C24.7181 42.1066 21.2731 40.4189 16.9831 40.3331C12.6931 40.2473 9.18252 41.796 9.14208 43.792C9.10163 45.7881 12.5466 47.4758 16.8366 47.5615C21.1267 47.6473 24.6372 46.0987 24.6777 44.1026Z" fill="#141414"/>
<path opacity="0.185" d="M24.5322 44.0984C24.5719 42.1398 21.1916 40.4839 16.982 40.3997C12.7725 40.3156 9.32784 41.8351 9.28816 43.7936C9.24848 45.7521 12.6288 47.4081 16.8383 47.4922C21.0479 47.5764 24.4925 46.0569 24.5322 44.0984Z" fill="#141414"/>
<path opacity="0.222" d="M24.3893 44.0952C24.4283 42.1725 21.1113 40.547 16.9806 40.4644C12.85 40.3818 9.46984 41.8735 9.43089 43.7961C9.39193 45.7187 12.7089 47.3443 16.8396 47.4269C20.9702 47.5095 24.3504 46.0178 24.3893 44.0952Z" fill="#141414"/>
<path opacity="0.259" d="M24.2464 44.093C24.2846 42.2079 21.0309 40.614 16.9791 40.533C12.9273 40.452 9.61175 41.9145 9.57355 43.7996C9.53536 45.6847 12.789 47.2786 16.8408 47.3596C20.8926 47.4406 24.2082 45.9781 24.2464 44.093Z" fill="#141414"/>
<path opacity="0.296" d="M24.1 44.0916C24.1375 42.2424 20.9485 40.679 16.9772 40.5996C13.0059 40.5202 9.75619 41.9549 9.71872 43.8041C9.68125 45.6533 12.8702 47.2167 16.8415 47.2961C20.8128 47.3755 24.0625 45.9408 24.1 44.0916Z" fill="#141414"/>
<path opacity="0.333" d="M23.9576 44.0875C23.9943 42.2758 20.8686 40.7441 16.9762 40.6663C13.0838 40.5885 9.89858 41.994 9.86187 43.8057C9.82517 45.6173 12.9508 47.149 16.8433 47.2268C20.7357 47.3047 23.9209 45.8991 23.9576 44.0875Z" fill="#141414"/>
<path opacity="0.37" d="M23.8151 44.0833C23.8511 42.3092 20.7887 40.8092 16.9752 40.733C13.1616 40.6567 10.041 42.0331 10.005 43.8072C9.96908 45.5813 13.0314 47.0813 16.845 47.1576C20.6585 47.2338 23.7792 45.8574 23.8151 44.0833Z" fill="#141414"/>
<path opacity="0.407" d="M23.6692 44.08C23.7044 42.3418 20.7068 40.8722 16.9737 40.7976C13.2407 40.723 10.1859 42.0715 10.1507 43.8097C10.1155 45.5479 13.1131 47.0175 16.8462 47.0922C20.5792 47.1668 23.634 45.8182 23.6692 44.08Z" fill="#141414"/>
<path opacity="0.444" d="M23.5268 44.0778C23.5612 42.3772 20.6269 40.9393 16.9727 40.8662C13.3185 40.7932 10.3283 42.1126 10.2938 43.8133C10.2594 45.5139 13.1937 46.9518 16.8479 47.0249C20.5021 47.0979 23.4923 45.7785 23.5268 44.0778Z" fill="#141414"/>
<path opacity="0.481" d="M23.3838 44.0756C23.4175 42.4125 20.5465 41.0063 16.9712 40.9348C13.3959 40.8634 10.4702 42.1536 10.4365 43.8168C10.4028 45.4799 13.2738 46.8861 16.8492 46.9575C20.4245 47.029 23.3501 45.7387 23.3838 44.0756Z" fill="#141414"/>
<path opacity="0.518" d="M23.2374 44.0723C23.2704 42.4451 20.464 41.0693 16.9693 40.9995C13.4745 40.9296 10.6146 42.1921 10.5817 43.8193C10.5487 45.4465 13.3551 46.8223 16.8499 46.8921C20.3447 46.962 23.2045 45.6995 23.2374 44.0723Z" fill="#141414"/>
<path opacity="0.556" d="M23.095 44.0701C23.1272 42.4804 20.3842 41.1364 16.9682 41.0681C13.5523 40.9998 10.757 42.2331 10.7248 43.8228C10.6926 45.4125 13.4357 46.7565 16.8516 46.8248C20.2675 46.8931 23.0628 45.6598 23.095 44.0701Z" fill="#141414"/>
<path opacity="0.593" d="M22.9526 44.0679C22.984 42.5158 20.3043 41.2034 16.9672 41.1367C13.6301 41.07 10.8994 42.2742 10.868 43.8263C10.8365 45.3785 13.5163 46.6908 16.8533 46.7575C20.1904 46.8242 22.9211 45.6201 22.9526 44.0679Z" fill="#141414"/>
<path opacity="0.63" d="M22.8097 44.0647C22.8404 42.5485 20.224 41.2665 16.9658 41.2014C13.7076 41.1363 11.0414 42.3126 11.0107 43.8288C10.98 45.3451 13.5964 46.627 16.8546 46.6922C20.1128 46.7573 22.7789 45.581 22.8097 44.0647Z" fill="#141414"/>
<path opacity="0.667" d="M22.6637 44.0605C22.6937 42.5818 20.1419 41.3315 16.9643 41.268C13.7866 41.2045 11.1863 42.3517 11.1563 43.8304C11.1263 45.3091 13.6781 46.5593 16.8558 46.6228C20.0334 46.6864 22.6338 45.5392 22.6637 44.0605Z" fill="#141414"/>
<path opacity="0.704" d="M22.5208 44.0592C22.5501 42.6164 20.0617 41.3966 16.9629 41.3346C13.864 41.2727 11.3283 42.3921 11.299 43.8349C11.2698 45.2777 13.7582 46.4975 16.857 46.5594C19.9558 46.6214 22.4916 45.502 22.5208 44.0592Z" fill="#141414"/>
<path opacity="0.741" d="M22.3779 44.057C22.4064 42.6518 19.9813 41.4636 16.9613 41.4033C13.9414 41.3429 11.4702 42.4331 11.4417 43.8384C11.4132 45.2436 13.8383 46.4318 16.8582 46.4921C19.8782 46.5525 22.3494 45.4623 22.3779 44.057Z" fill="#141414"/>
<path opacity="0.778" d="M22.2324 44.0528C22.2601 42.685 19.8997 41.5287 16.9603 41.4699C14.0208 41.4111 11.6155 42.4722 11.5878 43.8399C11.5601 45.2077 13.9205 46.364 16.8599 46.4228C19.7994 46.4816 22.2047 45.4205 22.2324 44.0528Z" fill="#141414"/>
<path opacity="0.815" d="M22.0896 44.0496C22.1165 42.7178 19.8195 41.5918 16.9589 41.5346C14.0983 41.4774 11.7575 42.5107 11.7305 43.8425C11.7035 45.1743 14.0006 46.3003 16.8612 46.3575C19.7217 46.4146 22.0626 45.3814 22.0896 44.0496Z" fill="#141414"/>
<path opacity="0.852" d="M21.9466 44.0474C21.9728 42.7531 19.7391 41.6588 16.9574 41.6032C14.1757 41.5476 11.8994 42.5517 11.8732 43.846C11.8469 45.1402 14.0807 46.2345 16.8624 46.2901C19.6441 46.3458 21.9204 45.3416 21.9466 44.0474Z" fill="#141414"/>
<path opacity="0.889" d="M21.8007 44.0431C21.8261 42.7864 19.657 41.7238 16.9558 41.6698C14.2546 41.6158 12.0442 42.5908 12.0188 43.8475C11.9933 45.1043 14.1624 46.1668 16.8636 46.2208C19.5648 46.2748 21.7752 45.2998 21.8007 44.0431Z" fill="#141414"/>
<path opacity="0.926" d="M21.6578 44.0419C21.6825 42.821 19.5768 41.7889 16.9544 41.7364C14.3321 41.684 12.1862 42.6312 12.1615 43.852C12.1368 45.0728 14.2425 46.105 16.8648 46.1574C19.4872 46.2099 21.633 45.2627 21.6578 44.0419Z" fill="#141414"/>
<path opacity="0.963" d="M21.5148 44.0397C21.5388 42.8564 19.4964 41.8559 16.9529 41.8051C14.4094 41.7542 12.3281 42.6722 12.3042 43.8555C12.2802 45.0388 14.3226 46.0393 16.8661 46.0901C19.4095 46.141 21.4909 45.2229 21.5148 44.0397Z" fill="#141414"/>
<path d="M21.3699 44.0354C21.3931 42.8897 19.4153 41.9209 16.9523 41.8717C14.4894 41.8225 12.4739 42.7113 12.4507 43.8571C12.4275 45.0028 14.4053 45.9716 16.8683 46.0208C19.3312 46.07 21.3467 45.1811 21.3699 44.0354Z" fill="#141414"/>
</g>
<g opacity="0.2">
<path opacity="0.037" d="M46.5728 43.7588C46.6155 41.6517 42.9792 39.8702 38.451 39.7797C33.9227 39.6891 30.2172 41.3239 30.1745 43.4309C30.1318 45.538 33.7681 47.3195 38.2964 47.41C42.8246 47.5005 46.5301 45.8658 46.5728 43.7588Z" fill="#141414"/>
<path opacity="0.074" d="M46.4269 43.7565C46.4688 41.6869 42.8972 39.9372 38.4494 39.8483C34.0016 39.7593 30.362 41.3649 30.3201 43.4344C30.2781 45.504 33.8498 47.2537 38.2975 47.3426C42.7453 47.4316 46.3849 45.826 46.4269 43.7565Z" fill="#141414"/>
<path opacity="0.111" d="M46.2835 43.7533C46.3247 41.7196 42.8164 40.0003 38.4475 39.9129C34.0786 39.8256 30.5035 41.4033 30.4623 43.437C30.4211 45.4706 33.9294 47.1899 38.2983 47.2773C42.6672 47.3646 46.2423 45.7869 46.2835 43.7533Z" fill="#141414"/>
<path opacity="0.148" d="M46.1411 43.7511C46.1815 41.755 42.7365 40.0673 38.4465 39.9816C34.1565 39.8958 30.6459 41.4444 30.6055 43.4405C30.565 45.4365 34.01 47.1242 38.3 47.21C42.5901 47.2958 46.1006 45.7471 46.1411 43.7511Z" fill="#141414"/>
<path opacity="0.185" d="M45.9956 43.7468C46.0353 41.7883 42.6549 40.1323 38.4454 40.0482C34.2359 39.964 30.7912 41.4835 30.7515 43.442C30.7119 45.4006 34.0922 47.0565 38.3017 47.1407C42.5112 47.2248 45.9559 45.7053 45.9956 43.7468Z" fill="#141414"/>
<path opacity="0.222" d="M45.8527 43.7436C45.8917 41.821 42.5747 40.1954 38.444 40.1129C34.3134 40.0303 30.9332 41.5219 30.8943 43.4446C30.8553 45.3672 34.1723 46.9927 38.303 47.0753C42.4336 47.1579 45.8138 45.6662 45.8527 43.7436Z" fill="#141414"/>
<path opacity="0.259" d="M45.7098 43.7414C45.748 41.8563 42.4943 40.2625 38.4425 40.1815C34.3907 40.1005 31.0751 41.563 31.0369 43.4481C30.9987 45.3332 34.2524 46.927 38.3042 47.008C42.356 47.089 45.6716 45.6265 45.7098 43.7414Z" fill="#141414"/>
<path opacity="0.296" d="M45.5644 43.74C45.6018 41.8909 42.4128 40.3274 38.4416 40.248C34.4703 40.1687 31.2205 41.6034 31.1831 43.4525C31.1456 45.3017 34.3346 46.8651 38.3059 46.9445C42.2772 47.0239 45.5269 45.5892 45.5644 43.74Z" fill="#141414"/>
<path opacity="0.333" d="M45.4209 43.7359C45.4576 41.9243 42.332 40.3925 38.4396 40.3147C34.5471 40.2369 31.362 41.6425 31.3253 43.4541C31.2885 45.2657 34.4142 46.7975 38.3066 46.8753C42.1991 46.9531 45.3842 45.5476 45.4209 43.7359Z" fill="#141414"/>
<path opacity="0.37" d="M45.2785 43.7337C45.3144 41.9596 42.2521 40.4596 38.4385 40.3834C34.625 40.3071 31.5044 41.6835 31.4684 43.4576C31.4325 45.2317 34.4948 46.7317 38.3084 46.808C42.1219 46.8842 45.2425 45.5078 45.2785 43.7337Z" fill="#141414"/>
<path opacity="0.407" d="M45.1331 43.7304C45.1683 41.9922 42.1706 40.5226 38.4376 40.448C34.7045 40.3733 31.6498 41.7219 31.6145 43.4601C31.5793 45.1983 34.577 46.6679 38.3101 46.7426C42.0431 46.8172 45.0979 45.4686 45.1331 43.7304Z" fill="#141414"/>
<path opacity="0.444" d="M44.9897 43.7262C45.0241 42.0256 42.0898 40.5877 38.4356 40.5147C34.7814 40.4416 31.7912 41.761 31.7567 43.4617C31.7223 45.1624 34.6566 46.6002 38.3108 46.6733C41.965 46.7463 44.9552 45.4269 44.9897 43.7262Z" fill="#141414"/>
<path opacity="0.481" d="M44.8472 43.7241C44.8809 42.0609 42.0099 40.6548 38.4346 40.5833C34.8593 40.5118 31.9336 41.8021 31.8999 43.4652C31.8662 45.1283 34.7372 46.5345 38.3125 46.606C41.8878 46.6775 44.8135 45.3872 44.8472 43.7241Z" fill="#141414"/>
<path opacity="0.518" d="M44.7013 43.7227C44.7343 42.0955 41.9279 40.7197 38.4331 40.6499C34.9383 40.58 32.0785 41.8425 32.0455 43.4697C32.0126 45.0969 34.8189 46.4727 38.3137 46.5425C41.8085 46.6124 44.6683 45.3499 44.7013 43.7227Z" fill="#141414"/>
<path opacity="0.556" d="M44.5589 43.7185C44.5911 42.1289 41.848 40.7848 38.4321 40.7165C35.0162 40.6482 32.2209 41.8816 32.1887 43.4712C32.1565 45.0609 34.8995 46.405 38.3155 46.4733C41.7314 46.5416 44.5267 45.3082 44.5589 43.7185Z" fill="#141414"/>
<path opacity="0.593" d="M44.4159 43.7164C44.4474 42.1642 41.7677 40.8519 38.4306 40.7852C35.0935 40.7184 32.3628 41.9226 32.3314 43.4748C32.2999 45.0269 34.9796 46.3392 38.3167 46.406C41.6538 46.4727 44.3845 45.2685 44.4159 43.7164Z" fill="#141414"/>
<path opacity="0.63" d="M44.2731 43.7132C44.3038 42.1969 41.6874 40.915 38.4292 40.8498C35.171 40.7847 32.5048 41.961 32.4741 43.4773C32.4434 44.9935 35.0597 46.2755 38.3179 46.3406C41.5761 46.4057 44.2423 45.2294 44.2731 43.7132Z" fill="#141414"/>
<path opacity="0.667" d="M44.1271 43.7089C44.1571 42.2302 41.6053 40.98 38.4276 40.9165C35.2499 40.8529 32.6496 42.0001 32.6197 43.4788C32.5897 44.9575 35.1415 46.2078 38.3191 46.2713C41.4968 46.3348 44.0971 45.1876 44.1271 43.7089Z" fill="#141414"/>
<path opacity="0.704" d="M43.9842 43.7077C44.0134 42.2649 41.5251 41.045 38.4262 40.9831C35.3274 40.9211 32.7916 42.0405 32.7624 43.4833C32.7332 44.9261 35.2216 46.1459 38.3204 46.2079C41.4192 46.2698 43.955 45.1504 43.9842 43.7077Z" fill="#141414"/>
<path opacity="0.741" d="M43.8413 43.7055C43.8698 42.3002 41.4447 41.1121 38.4247 41.0517C35.4048 40.9913 32.9335 42.0816 32.9051 43.4868C32.8766 44.8921 35.3017 46.0802 38.3216 46.1406C41.3416 46.2009 43.8128 45.1107 43.8413 43.7055Z" fill="#141414"/>
<path opacity="0.778" d="M43.6958 43.7012C43.7235 42.3335 41.3631 41.1771 38.4237 41.1183C35.4842 41.0596 33.0789 42.1207 33.0512 43.4884C33.0234 44.8561 35.3839 46.0125 38.3233 46.0712C41.2627 46.13 43.6681 45.0689 43.6958 43.7012Z" fill="#141414"/>
<path opacity="0.815" d="M43.5529 43.698C43.5799 42.3662 41.2828 41.2402 38.4223 41.183C35.5617 41.1258 33.2209 42.1591 33.1939 43.4909C33.1669 44.8227 35.464 45.9487 38.3245 46.0059C41.1851 46.0631 43.5259 45.0298 43.5529 43.698Z" fill="#141414"/>
<path opacity="0.852" d="M43.4105 43.6958C43.4367 42.4015 41.2029 41.3072 38.4212 41.2516C35.6395 41.196 33.3633 42.2001 33.337 43.4944C33.3108 44.7887 35.5446 45.883 38.3263 45.9386C41.108 45.9942 43.3843 44.9901 43.4105 43.6958Z" fill="#141414"/>
<path opacity="0.889" d="M43.2645 43.6915C43.29 42.4348 41.1209 41.3723 38.4197 41.3183C35.7185 41.2643 33.5081 42.2393 33.4826 43.496C33.4572 44.7527 35.6263 45.8153 38.3275 45.8693C41.0287 45.9233 43.2391 44.9483 43.2645 43.6915Z" fill="#141414"/>
<path opacity="0.926" d="M43.1216 43.6903C43.1464 42.4695 41.0406 41.4373 38.4183 41.3849C35.796 41.3325 33.6501 42.2796 33.6254 43.5004C33.6006 44.7213 35.7064 45.7534 38.3287 45.8059C40.951 45.8583 43.0969 44.9111 43.1216 43.6903Z" fill="#141414"/>
<path opacity="0.963" d="M42.9787 43.6881C43.0027 42.5048 40.9602 41.5044 38.4168 41.4535C35.8733 41.4027 33.792 42.3207 33.768 43.504C33.744 44.6872 35.7865 45.6877 38.33 45.7386C40.8734 45.7894 42.9547 44.8714 42.9787 43.6881Z" fill="#141414"/>
<path d="M42.8332 43.6838C42.8565 42.5381 40.8787 41.5694 38.4157 41.5201C35.9528 41.4709 33.9373 42.3598 33.9141 43.5055C33.8909 44.6513 35.8687 45.62 38.3316 45.6692C40.7946 45.7185 42.81 44.8296 42.8332 43.6838Z" fill="#141414"/>
</g>
<path d="M0.294536 31.4062L0.0981445 34.9887L21.5911 47.3853V43.596L0.294536 31.4062Z" fill="url(#paint0_linear_2659_1258)"/>
<path d="M47.3962 29.1058L47.0898 29.2802L44.1736 30.9443L43.8671 31.1187L22.0141 43.5952L0.291992 31.4054L25.3944 17.2235C25.4658 16.9456 25.7932 16.7919 26.061 16.9456L47.3962 29.1058Z" fill="url(#paint1_linear_2659_1258)"/>
<path d="M22.0137 43.944V43.5952L0.681419 31.4351C0.377904 31.2636 0 31.4794 0 31.8252V34.6214C0 34.8845 0.14283 35.1298 0.371954 35.2628L22.0137 47.627V47.2782L0.598101 35.0441C0.416588 34.9407 0.30649 34.7485 0.30649 34.5416V31.9642C0.30649 31.7898 0.49693 31.6804 0.648687 31.7661L22.0137 43.944Z" fill="url(#paint2_linear_2659_1258)"/>
<path d="M47.3958 29.1055L22.0137 43.5948V43.9436L47.3958 29.4543V29.1055Z" fill="url(#paint3_linear_2659_1258)"/>
<path d="M47.3958 32.7852L22.0137 47.2745V47.6262L47.3958 33.1339V32.7852Z" fill="url(#paint4_linear_2659_1258)"/>
<path d="M46.9139 29.7285V33.0597L22.0138 47.2742L21.5913 47.0347V43.7035L22.0138 43.943L46.9139 29.7285Z" fill="url(#paint5_linear_2659_1258)"/>
<path d="M0.306488 34.2188C0.306488 34.2188 0.366 34.5912 0.827223 34.8631L21.5942 46.6745V47.0321L0.601076 35.0375C0.5981 35.0405 0.142828 34.7124 0.306488 34.2188Z" fill="url(#paint6_linear_2659_1258)"/>
<path d="M21.5913 46.6759L22.0138 46.8592L46.9139 32.5117L47.396 32.7866L22.0138 47.2759L21.5913 47.0365V46.6759Z" fill="url(#paint7_linear_2659_1258)"/>
<path d="M47.3957 29.0852L47.3541 29.0586L47.0892 29.2093L44.1731 30.8735L43.8666 31.0508L22.0136 43.5243L0.336093 31.3582L0.294434 31.3819L0.312288 31.3937L0.294434 31.4055L22.0136 43.5952L43.8666 31.1217L44.1731 30.9444L47.0892 29.2803L47.3957 29.1059L47.3779 29.0941L47.3957 29.0852Z" fill="url(#paint8_linear_2659_1258)"/>
<path d="M5.04346 26.9941V28.9213L21.1803 38.4361V36.1335L5.04346 26.9941Z" fill="url(#paint9_linear_2659_1258)"/>
<path d="M42.1734 24.4199V26.5984C42.1734 26.7255 42.0336 26.8053 41.9235 26.7402L21.4035 38.6344C21.4333 38.6048 21.4511 38.5664 21.4511 38.5191V36.3407C21.4511 36.2372 21.3946 36.1397 21.3023 36.0865L4.6001 26.3885L25.3224 14.4707L42.0246 24.1687C42.1169 24.2189 42.1734 24.3165 42.1734 24.4199Z" fill="url(#paint10_linear_2659_1258)"/>
<path d="M42.1732 24.3535V26.6029C42.1732 26.6709 42.1346 26.7241 42.084 26.7507C42.0364 26.7743 21.4033 38.6389 21.4033 38.6389C21.4331 38.6093 21.4509 38.5709 21.4509 38.5236V36.2299L42.1732 24.3535Z" fill="url(#paint11_linear_2659_1258)"/>
<path d="M4.6001 28.6748L5.04347 28.5625L21.2726 38.0063L21.1803 38.4378L4.6001 28.6748Z" fill="url(#paint12_linear_2659_1258)"/>
<path d="M21.4511 36.3389V38.5173C21.4511 38.5646 21.4332 38.603 21.4035 38.6326C21.3529 38.6829 21.2696 38.7006 21.1982 38.6592L4.6001 29.0233V28.6745L21.0315 38.2129C21.0821 38.2424 21.1476 38.207 21.1476 38.1479V36.5133C21.1476 36.4069 21.0911 36.3123 21.0018 36.2591L4.60307 26.7385V26.3867L21.3053 36.0847C21.3946 36.1379 21.4511 36.2355 21.4511 36.3389Z" fill="url(#paint13_linear_2659_1258)"/>
<path d="M24.832 34.2882V36.6647L27.1709 35.2695V32.9492L24.832 34.2882Z" fill="url(#paint14_linear_2659_1258)"/>
<path d="M37.2075 27.1964V29.5729L39.5434 28.1777V25.8574L37.2075 27.1964Z" fill="url(#paint15_linear_2659_1258)"/>
<path d="M7.61182 24.5645V26.2197L21.4902 34.4043V32.421L7.61182 24.5645Z" fill="url(#paint16_linear_2659_1258)"/>
<path d="M39.5423 22.35V24.2239C39.5423 24.3333 39.4233 24.4013 39.3281 24.3481L21.6826 34.5752C21.7064 34.5515 21.7242 34.516 21.7242 34.4776V32.6036C21.7242 32.515 21.6766 32.4292 21.5963 32.3849L7.23291 24.0466L25.054 13.7988L39.4174 22.1371C39.4947 22.1756 39.5423 22.2583 39.5423 22.35Z" fill="url(#paint17_linear_2659_1258)"/>
<path d="M39.5429 22.2891V24.2222C39.5429 24.2783 39.5102 24.3256 39.4655 24.3493C39.4239 24.3699 21.6802 34.5704 21.6802 34.5704C21.704 34.5468 21.7218 34.5113 21.7218 34.4729V32.5014L39.5429 22.2891Z" fill="url(#paint18_linear_2659_1258)"/>
<path d="M7.23047 26.0067L7.61135 25.9121L21.57 34.0317L21.4897 34.4041L7.23047 26.0067Z" fill="url(#paint19_linear_2659_1258)"/>
<path d="M21.7218 32.5971V34.4711C21.7218 34.5095 21.7069 34.545 21.6801 34.5686C21.6355 34.613 21.5641 34.6277 21.5046 34.5923L7.23047 26.3042V26.0027L21.3617 34.2051C21.4064 34.2317 21.4599 34.1992 21.4599 34.1489V32.7449C21.4599 32.6533 21.4123 32.5705 21.335 32.5262L7.23344 24.3386V24.0371L21.5968 32.3754C21.6742 32.4227 21.7218 32.5084 21.7218 32.5971Z" fill="url(#paint20_linear_2659_1258)"/>
<path d="M24.6289 30.8344V32.8769L26.6404 31.6768V29.6816L24.6289 30.8344Z" fill="url(#paint21_linear_2659_1258)"/>
<path d="M35.27 24.7348V26.7773L37.2815 25.5772V23.582L35.27 24.7348Z" fill="url(#paint22_linear_2659_1258)"/>
<path d="M21.3439 34.2141C21.3648 34.2259 21.3856 34.2259 21.4035 34.2171C21.3886 34.22 21.3737 34.2171 21.3588 34.2082L7.22754 26.0059V26.0206L21.3439 34.2141Z" fill="url(#paint23_linear_2659_1258)"/>
<path d="M21.5938 32.3793L7.23047 24.041V24.0558L21.576 32.3852C21.6534 32.4296 21.7039 32.5153 21.7039 32.604V34.478C21.7039 34.5164 21.6891 34.5518 21.6623 34.5755C21.6474 34.5903 21.6296 34.6021 21.6117 34.608C21.6385 34.6021 21.6623 34.5873 21.6801 34.5696C21.7039 34.5459 21.7218 34.5105 21.7218 34.472V32.5981C21.7218 32.5094 21.6742 32.4237 21.5938 32.3793Z" fill="url(#paint24_linear_2659_1258)"/>
<path d="M26.198 24.4143C26.198 24.4143 25.5315 24.1897 25.0167 24.4143C24.5049 24.6389 24.0555 24.7985 24.0555 24.7985C24.0555 24.7985 23.9484 25.171 24.5465 25.0853C25.1446 24.9995 25.1446 24.9995 25.1446 24.9995C25.1446 24.9995 24.4186 25.5966 23.8621 25.8183C23.3057 26.04 22.8355 26.3356 23.7758 26.6991C24.7161 27.0597 27.1532 25.3601 27.1532 25.3601C27.1532 25.3601 26.8437 24.2754 26.198 24.4143Z" fill="url(#paint25_linear_2659_1258)"/>
<path d="M34.0181 14.1406C33.9854 14.2086 31.9471 20.0729 31.4591 20.4897C30.9681 20.9065 25.7935 24.2938 25.7935 24.2938C25.7935 24.2938 26.457 24.3115 26.704 25.0416C26.948 25.7717 26.8081 25.822 26.8081 25.822C26.8081 25.822 32.0185 23.2002 32.7862 22.609C33.5539 22.0178 35.5148 18.4768 35.5148 18.4768L34.0181 14.1406Z" fill="#009B81"/>
<path d="M39.2545 42.1699C39.2545 42.1699 38.9331 42.8113 39.3795 43.834C39.8258 44.8567 39.8943 46.0125 40.5221 45.9474C41.15 45.8795 41.8195 45.8144 41.5963 44.9454C41.3732 44.0794 41.0815 42.1699 41.0815 42.1699H39.2545Z" fill="url(#paint26_linear_2659_1258)"/>
<path d="M35.1906 40.6362C35.1906 40.6362 34.3872 41.3663 33.6938 41.8333C33.0005 42.3003 33.0898 42.856 33.5599 43.1457C34.0301 43.4353 35.2174 42.457 35.8869 42.1673C36.5594 41.8776 37.336 41.7446 37.3598 41.1446C37.3866 40.5446 37.095 40.1426 37.095 40.1426L35.1906 40.6362Z" fill="url(#paint27_linear_2659_1258)"/>
<path d="M34.0179 24.293C34.0179 24.293 33.9822 31.6736 34.3869 32.9594C34.7916 34.2451 35.0326 37.5763 35.1159 38.5399C35.1962 39.5035 35.1159 40.5085 35.1159 40.5085C35.1159 40.5085 35.4402 41.2327 36.2883 40.9903C37.1364 40.7479 37.3387 40.3873 37.3387 40.3873C37.3387 40.3873 37.5827 38.1793 37.6214 36.0511C37.663 33.923 37.297 33.0392 37.297 33.0392L38.9961 26.7758L34.0179 24.293Z" fill="url(#paint28_linear_2659_1258)"/>
<path d="M37.3623 27.1608C37.3623 27.1608 37.9604 33.6754 38.2133 34.4262C38.4663 35.177 38.9513 36.6401 38.9959 38.0323C39.0406 39.4245 39.2578 42.1734 39.2578 42.1734C39.2578 42.1734 39.472 42.8502 40.4064 42.6729C41.3407 42.4955 41.3407 42.1379 41.3407 42.1379C41.3407 42.1379 41.915 37.7131 41.7365 36.1051C41.5579 34.5001 41.3407 34.1779 41.3407 34.1779L42.0965 29.7886C42.0965 29.7886 43.3195 27.1461 42.3108 26.1115C41.302 25.0741 37.3623 27.1608 37.3623 27.1608Z" fill="url(#paint29_linear_2659_1258)"/>
<path d="M36.1669 12.7155C36.1669 12.7155 33.7358 13.1707 33.8072 15.1304C33.8786 17.0901 34.0185 24.2934 34.0185 24.2934C34.0185 24.2934 34.3369 26.5309 37.3631 27.1605C40.3923 27.7901 42.4693 26.2501 42.4693 26.2501C42.4693 26.2501 43.5345 18.4084 43.606 16.8004C43.6744 15.1925 39.1604 12.3638 36.1669 12.7155Z" fill="#00C9A7"/>
<path d="M43.6946 16.321C42.5639 15.7949 42.2247 18.3014 41.5611 20.2109C40.8975 22.1203 39.743 23.1992 40.722 23.9973C41.7009 24.7953 41.8408 25.5254 43.4506 22.4336C45.0604 19.3419 44.8135 16.8413 43.6946 16.321Z" fill="#009B81"/>
<path d="M37.3389 13.2182L37.449 14.6429C37.449 14.6429 37.5442 14.9651 38.7047 14.7966C39.8652 14.6281 40.2342 14.4922 40.4395 14.1168C40.6924 13.6527 40.0913 11.5098 40.0913 11.5098L37.3389 13.2182Z" fill="url(#paint30_linear_2659_1258)"/>
<path d="M35.8421 8.94559C35.8421 8.94559 35.7975 10.6481 35.8421 10.855C35.8867 11.0619 35.7975 13.7133 36.0355 13.935C36.2736 14.1567 36.8419 14.6592 37.5561 14.4375C38.2702 14.2158 40.127 12.2797 40.127 12.2797C40.127 12.2797 40.8501 8.92786 40.3413 8.41059C39.8384 7.89333 35.8421 8.94559 35.8421 8.94559Z" fill="url(#paint31_linear_2659_1258)"/>
<path d="M35.5508 8.68452C35.5508 8.68452 35.2771 9.30524 36.6191 9.79294C37.9641 10.2777 38.8984 9.85501 38.8984 9.85501C38.8984 9.85501 38.3598 10.9634 38.7258 11.2206C39.0918 11.4777 38.9252 12.1812 39.0621 12.2788C39.1989 12.3734 39.5054 10.7802 39.8417 10.8423C40.1779 10.9043 39.431 12.2256 39.919 12.4975C40.407 12.7694 41.3384 11.5871 41.7639 10.2807C42.1924 8.97714 41.3206 8.00468 41.3206 8.00468C41.3206 8.00468 41.2432 6.3051 39.5649 6.53269C37.8867 6.76029 35.5508 8.68452 35.5508 8.68452Z" fill="url(#paint32_linear_2659_1258)"/>
<path d="M49.0777 2.23141C49.1135 2.24914 49.1462 2.26688 49.1819 2.28757C49.2087 2.30235 49.2354 2.32008 49.2622 2.33782C49.2771 2.34964 49.295 2.35851 49.3098 2.37033C49.3426 2.39398 49.3753 2.41762 49.408 2.44423C49.417 2.45309 49.4289 2.45901 49.4378 2.46787C49.4437 2.47083 49.4497 2.47674 49.4527 2.48265C49.5033 2.52403 49.5509 2.56837 49.5985 2.61566C49.6134 2.63044 49.6312 2.64818 49.6461 2.66591C49.6758 2.69843 49.7056 2.73094 49.7354 2.76345C49.7532 2.78119 49.7681 2.80188 49.7859 2.81961C49.8097 2.84622 49.8306 2.87577 49.8514 2.90533C49.8693 2.92898 49.8871 2.95262 49.905 2.97627C49.9228 2.99992 49.9407 3.02652 49.9556 3.05312C49.9734 3.07972 49.9942 3.10928 50.0121 3.13884C50.027 3.16249 50.0418 3.18909 50.0567 3.21273C50.0746 3.24525 50.0954 3.27481 50.1133 3.31028C50.1252 3.33097 50.1371 3.35461 50.149 3.37826C50.1668 3.41373 50.1847 3.4492 50.2025 3.48763C50.2144 3.51127 50.2263 3.53492 50.2353 3.55856C50.2531 3.59994 50.271 3.64133 50.2888 3.68271C50.2977 3.7034 50.3067 3.72113 50.3126 3.74182C50.3394 3.8039 50.3632 3.86892 50.387 3.93691C50.4108 4.00193 50.4317 4.06992 50.4525 4.1379C50.4584 4.15859 50.4644 4.18224 50.4703 4.20293C50.4852 4.25318 50.4971 4.30047 50.512 4.35367C50.5179 4.38028 50.5239 4.40392 50.5328 4.43053C50.5507 4.49851 50.5656 4.56649 50.5804 4.63743C50.5983 4.71428 50.6102 4.79409 50.6251 4.8739C50.6251 4.87981 50.628 4.88572 50.628 4.89163C50.64 4.97144 50.6519 5.04829 50.6638 5.1281C50.6667 5.1547 50.6697 5.18425 50.6727 5.21086C50.6786 5.26406 50.6846 5.32022 50.6905 5.37343C50.6935 5.40594 50.6965 5.44141 50.6995 5.47392C50.7024 5.52417 50.7084 5.57442 50.7114 5.62171C50.7143 5.66014 50.7173 5.69561 50.7173 5.73403C50.7203 5.78133 50.7233 5.83157 50.7233 5.87887C50.7233 5.91729 50.7262 5.95572 50.7262 5.99414C50.7262 6.04144 50.7262 6.09168 50.7262 6.13898C50.7262 6.1774 50.7262 6.21878 50.7262 6.25721C50.7262 6.30746 50.7233 6.35771 50.7233 6.40796C50.7233 6.44638 50.7203 6.48185 50.7203 6.52028C50.7173 6.57348 50.7143 6.62669 50.7114 6.67989C50.7084 6.71536 50.7084 6.75083 50.7054 6.78334C50.7024 6.84542 50.6965 6.90749 50.6905 6.96956C50.6876 6.99616 50.6876 7.01981 50.6846 7.04641C50.6757 7.13508 50.6667 7.22376 50.6548 7.30948C50.6519 7.3213 50.6519 7.33608 50.6489 7.3479C50.64 7.42475 50.628 7.49865 50.6161 7.5755C50.6013 7.67304 50.5864 7.77058 50.5685 7.86517C50.5447 8.00113 50.515 8.1371 50.4852 8.27011C50.4793 8.29376 50.4733 8.32036 50.4674 8.34401C50.4287 8.51249 50.384 8.68097 50.3394 8.84649C50.3335 8.86718 50.3275 8.89083 50.3216 8.91152C50.2888 9.02975 50.2501 9.14798 50.2144 9.26326C50.1996 9.30464 50.1847 9.34898 50.1728 9.39036C50.1579 9.4347 50.143 9.47903 50.1281 9.52337C50.1073 9.58544 50.0835 9.64751 50.0597 9.70663C50.0508 9.72732 50.0448 9.74801 50.0359 9.76575C50.0061 9.84555 49.9734 9.9224 49.9407 9.99926C49.9317 10.0199 49.9228 10.0406 49.9139 10.0613C49.8901 10.1175 49.8663 10.1766 49.8395 10.2328C49.8276 10.2594 49.8157 10.283 49.8038 10.3096C49.78 10.3628 49.7532 10.416 49.7294 10.4692C49.7175 10.4929 49.7086 10.5136 49.6967 10.5372C49.6639 10.6082 49.6282 10.6761 49.5925 10.7441C49.5896 10.75 49.5866 10.7559 49.5836 10.7619C49.5449 10.8357 49.5062 10.9067 49.4646 10.9806C49.4527 11.0042 49.4378 11.0279 49.4259 11.0515C49.3991 11.0988 49.3694 11.1491 49.3396 11.1964C49.3247 11.223 49.3069 11.2496 49.289 11.2762C49.2622 11.3205 49.2355 11.3648 49.2057 11.4062C49.1878 11.4328 49.173 11.4565 49.1551 11.4831C49.1254 11.5274 49.0956 11.5717 49.0658 11.6131C49.051 11.6368 49.0331 11.6604 49.0182 11.6811C48.9795 11.7373 48.9379 11.7934 48.8962 11.8466C48.8903 11.8555 48.8843 11.8614 48.8784 11.8703C48.8308 11.9323 48.7832 11.9915 48.7355 12.0506C48.7207 12.0683 48.7088 12.0831 48.6939 12.1008C48.6582 12.1422 48.6225 12.1836 48.5868 12.225C48.5689 12.2457 48.5511 12.2634 48.5332 12.2841C48.4975 12.3225 48.4648 12.3609 48.4291 12.3964C48.4112 12.4141 48.3963 12.4319 48.3785 12.4496C48.3279 12.4999 48.2773 12.5531 48.2237 12.6004C48.1702 12.6506 48.1136 12.7009 48.0601 12.7481C48.0452 12.7629 48.0273 12.7748 48.0125 12.7866C47.9738 12.8191 47.9381 12.8486 47.8994 12.8782C47.8786 12.8959 47.8548 12.9107 47.8339 12.9285C47.8012 12.9521 47.7685 12.9757 47.7357 12.9994C47.7119 13.0171 47.6881 13.0319 47.6643 13.0496C47.6346 13.0703 47.6018 13.091 47.5721 13.1088C47.5453 13.1265 47.5155 13.1442 47.4888 13.159C47.462 13.1767 47.4322 13.1915 47.4054 13.2063C47.3727 13.224 47.34 13.2418 47.3072 13.2595C47.2805 13.2713 47.2567 13.2861 47.2299 13.2979C47.1882 13.3157 47.1495 13.3334 47.1079 13.3511C47.087 13.36 47.0632 13.3689 47.0424 13.3777C46.974 13.4043 46.9055 13.428 46.8371 13.4487C46.7835 13.4635 46.7329 13.4782 46.6794 13.4901C46.6258 13.5019 46.5752 13.5107 46.5217 13.5196C46.4473 13.5314 46.3759 13.5373 46.3015 13.5403C46.2836 13.5403 46.2658 13.5403 46.2479 13.5403C46.1795 13.5403 46.111 13.5403 46.0426 13.5344C46.0366 13.5344 46.0337 13.5344 46.0277 13.5344C45.9563 13.5285 45.8879 13.5137 45.8164 13.4989C45.7986 13.496 45.7837 13.4901 45.7659 13.4871C45.6974 13.4694 45.629 13.4516 45.5605 13.425L46.5723 13.8004C46.6377 13.8241 46.7062 13.8448 46.7776 13.8625C46.7954 13.8654 46.8103 13.8714 46.8282 13.8743C46.8966 13.8891 46.968 13.9009 47.0365 13.9098C47.0424 13.9098 47.0454 13.9098 47.0513 13.9098C47.1198 13.9157 47.1852 13.9186 47.2537 13.9157C47.2715 13.9157 47.2894 13.9157 47.3072 13.9157C47.3787 13.9127 47.453 13.9068 47.5274 13.895C47.5304 13.895 47.5304 13.895 47.5334 13.895C47.6316 13.8802 47.7328 13.8595 47.8339 13.83C47.8369 13.83 47.8399 13.827 47.8399 13.827C47.9083 13.8063 47.9768 13.7827 48.0452 13.7561C48.0512 13.7531 48.0571 13.7531 48.063 13.7502C48.0779 13.7443 48.0958 13.7354 48.1107 13.7295C48.1523 13.7117 48.191 13.694 48.2327 13.6763C48.2446 13.6704 48.2535 13.6674 48.2654 13.6615C48.2803 13.6556 48.2951 13.6438 48.31 13.6378C48.3428 13.6201 48.3755 13.6024 48.4082 13.5846C48.4231 13.5758 48.435 13.5699 48.4499 13.564C48.4648 13.5551 48.4796 13.5462 48.4945 13.5373C48.5213 13.5226 48.5481 13.5048 48.5778 13.4871C48.5927 13.4782 48.6076 13.4694 48.6195 13.4605C48.6374 13.4487 48.6522 13.4369 48.6701 13.428C48.6939 13.4132 48.7177 13.3955 48.7415 13.3777C48.7534 13.3689 48.7653 13.36 48.7772 13.3511C48.798 13.3364 48.8189 13.3186 48.8397 13.3038C48.8605 13.2861 48.8843 13.2713 48.9052 13.2536C48.9141 13.2477 48.923 13.2418 48.9319 13.2329C48.9617 13.2093 48.9914 13.1856 49.0182 13.162C49.0331 13.1501 49.048 13.1354 49.0658 13.1235C49.0688 13.1206 49.0748 13.1176 49.0777 13.1147C49.1254 13.0733 49.173 13.029 49.2235 12.9846C49.2265 12.9817 49.2295 12.9787 49.2325 12.9757C49.2771 12.9344 49.3188 12.893 49.3634 12.8486C49.3723 12.8398 49.3783 12.8309 49.3872 12.825C49.4051 12.8073 49.4199 12.7895 49.4378 12.7718C49.4586 12.7511 49.4795 12.7304 49.4973 12.7097C49.5122 12.6949 49.5271 12.6772 49.5419 12.6595C49.5598 12.6388 49.5776 12.6211 49.5955 12.6004C49.6074 12.5885 49.6193 12.5738 49.6312 12.5619C49.655 12.5324 49.6788 12.5058 49.7026 12.4762C49.7175 12.4585 49.7294 12.4437 49.7443 12.426C49.7502 12.4201 49.7532 12.4141 49.7592 12.4082C49.8008 12.355 49.8455 12.3018 49.8871 12.2457L49.8901 12.2427C49.896 12.2368 49.902 12.2279 49.9079 12.2191C49.9436 12.1718 49.9794 12.1245 50.0121 12.0772C50.018 12.0683 50.024 12.0594 50.0299 12.0506C50.0448 12.0269 50.0627 12.0062 50.0776 11.9826C50.0984 11.956 50.1162 11.9264 50.1371 11.8998C50.149 11.8851 50.1579 11.8673 50.1698 11.8525C50.1877 11.8259 50.2025 11.8023 50.2204 11.7757C50.2323 11.755 50.2472 11.7373 50.2591 11.7166C50.2739 11.6929 50.2888 11.6693 50.3037 11.6427C50.3186 11.6161 50.3364 11.5895 50.3513 11.5629C50.3602 11.5511 50.3662 11.5363 50.3751 11.5244C50.396 11.489 50.4168 11.4535 50.4376 11.418C50.4495 11.3944 50.4644 11.3707 50.4763 11.3501C50.4793 11.3441 50.4852 11.3382 50.4882 11.3294C50.5239 11.2643 50.5596 11.1993 50.5953 11.1343V11.1313C50.5983 11.1254 50.6013 11.1195 50.6042 11.1136C50.634 11.0545 50.6667 10.9954 50.6965 10.9362C50.7024 10.9274 50.7054 10.9185 50.7114 10.9067C50.7233 10.883 50.7322 10.8623 50.7441 10.8387C50.759 10.8062 50.7768 10.7737 50.7917 10.7412C50.8006 10.7205 50.8096 10.6998 50.8215 10.6761C50.8334 10.6495 50.8453 10.6259 50.8572 10.5993C50.8661 10.5815 50.875 10.5609 50.8839 10.5431C50.9018 10.5047 50.9167 10.4663 50.9316 10.4278C50.9405 10.4072 50.9494 10.3865 50.9583 10.3658C50.9613 10.3599 50.9643 10.351 50.9673 10.3451C50.994 10.2771 51.0238 10.2091 51.0476 10.1411C51.0476 10.1382 51.0506 10.1352 51.0506 10.1323C51.0565 10.1145 51.0655 10.0938 51.0714 10.0732C51.0922 10.0199 51.1131 9.96674 51.1309 9.91354C51.1339 9.90467 51.1369 9.8958 51.1399 9.88694C51.1547 9.8426 51.1696 9.79826 51.1845 9.75688C51.1964 9.72141 51.2113 9.68594 51.2232 9.64751C51.2262 9.6416 51.2262 9.63273 51.2291 9.62682C51.2678 9.51155 51.3035 9.39332 51.3362 9.27508C51.3392 9.26622 51.3422 9.25439 51.3452 9.24553C51.3481 9.2337 51.3511 9.22188 51.3541 9.21006C51.4017 9.04453 51.4434 8.87605 51.4821 8.70757C51.485 8.6987 51.488 8.68983 51.488 8.68097C51.491 8.66619 51.494 8.64845 51.4969 8.63367C51.5267 8.49771 51.5564 8.3647 51.5803 8.22873C51.5803 8.22577 51.5803 8.22577 51.5803 8.22282C51.5981 8.12823 51.613 8.03365 51.6279 7.93611C51.6279 7.93315 51.6308 7.92724 51.6308 7.92428C51.6427 7.85334 51.6517 7.7824 51.6606 7.70851C51.6636 7.69669 51.6636 7.68191 51.6665 7.67008V7.66713C51.6755 7.58436 51.6874 7.5016 51.6933 7.41884C51.6933 7.41589 51.6933 7.40997 51.6933 7.40702C51.6963 7.38337 51.6963 7.35677 51.6993 7.33312C51.7052 7.27992 51.7082 7.22967 51.7142 7.17647C51.7142 7.1676 51.7142 7.15577 51.7171 7.14691C51.7201 7.11144 51.7201 7.07597 51.7231 7.04345C51.7261 7.00503 51.729 6.9666 51.729 6.92818C51.729 6.9134 51.729 6.89862 51.729 6.8868C51.732 6.84837 51.732 6.8129 51.732 6.77448C51.732 6.74196 51.735 6.70945 51.735 6.67693C51.735 6.6592 51.735 6.64146 51.735 6.62373C51.735 6.5853 51.735 6.54392 51.735 6.5055C51.735 6.4789 51.735 6.44934 51.735 6.42274C51.735 6.40205 51.735 6.38135 51.732 6.35771C51.732 6.31928 51.729 6.28086 51.729 6.24243C51.729 6.21878 51.729 6.19514 51.7261 6.17149C51.7261 6.14489 51.7231 6.12124 51.7231 6.09464C51.7201 6.05622 51.7201 6.02075 51.7171 5.98528C51.7171 5.96754 51.7142 5.94685 51.7142 5.92912C51.7112 5.89956 51.7082 5.86705 51.7052 5.83749C51.7023 5.80497 51.6993 5.7695 51.6963 5.73699C51.6963 5.72221 51.6933 5.71039 51.6933 5.69561C51.6903 5.65423 51.6844 5.6158 51.6784 5.57442C51.6755 5.54782 51.6725 5.51826 51.6695 5.49166C51.6695 5.48575 51.6665 5.47688 51.6665 5.47097C51.6576 5.40003 51.6457 5.32613 51.6338 5.25519C51.6338 5.25519 51.6338 5.25519 51.6338 5.25224C51.6338 5.24633 51.6308 5.24041 51.6308 5.2345C51.6189 5.16948 51.607 5.1074 51.5951 5.04533C51.5922 5.03055 51.5892 5.01282 51.5862 4.99804C51.5743 4.94779 51.5654 4.89754 51.5535 4.84729C51.5475 4.82956 51.5445 4.80887 51.5386 4.79113C51.5326 4.76453 51.5267 4.74089 51.5178 4.71428C51.5118 4.69359 51.5088 4.67586 51.5029 4.65517C51.494 4.62561 51.485 4.59309 51.4761 4.56354C51.4702 4.54285 51.4642 4.5192 51.4582 4.49851C51.4553 4.48964 51.4523 4.48077 51.4493 4.47191C51.4315 4.41279 51.4106 4.35367 51.3898 4.29456C51.369 4.23544 51.3481 4.17928 51.3243 4.12312C51.3214 4.11721 51.3184 4.10834 51.3154 4.10243C51.3065 4.08174 51.2976 4.06401 51.2916 4.04332C51.2797 4.01376 51.2678 3.98715 51.2559 3.9576C51.25 3.94282 51.244 3.931 51.2381 3.91622C51.2262 3.89257 51.2172 3.86892 51.2053 3.84528C51.1964 3.82754 51.1875 3.80981 51.1785 3.79207C51.1696 3.77434 51.1577 3.7566 51.1488 3.73887C51.1369 3.71522 51.125 3.69453 51.1131 3.67088C51.1071 3.65906 51.1012 3.64724 51.0952 3.63542C51.0833 3.61472 51.0714 3.59403 51.0595 3.5763C51.0446 3.55265 51.0298 3.52605 51.0149 3.5024C51.0089 3.49354 51.003 3.48467 51 3.4758C50.9881 3.45511 50.9732 3.43738 50.9613 3.41669C50.9435 3.39008 50.9256 3.36644 50.9107 3.33984C50.9048 3.33392 50.9018 3.32505 50.8959 3.31619C50.884 3.29845 50.8721 3.28367 50.8572 3.2689C50.8363 3.23934 50.8125 3.21273 50.7917 3.18318C50.7858 3.17431 50.7798 3.1684 50.7739 3.15953C50.7649 3.14771 50.753 3.13884 50.7441 3.12702C50.7143 3.0945 50.6846 3.06199 50.6548 3.02948C50.6459 3.02061 50.637 3.00879 50.628 2.99992C50.6221 2.99401 50.6132 2.98809 50.6072 2.97923C50.5596 2.93193 50.512 2.8876 50.4614 2.84622C50.4584 2.84326 50.4525 2.83735 50.4495 2.83439L50.4465 2.83144C50.4376 2.82257 50.4257 2.81666 50.4168 2.80779C50.384 2.78119 50.3513 2.75754 50.3186 2.7339C50.3037 2.72207 50.2859 2.7132 50.271 2.70138C50.2501 2.6866 50.2293 2.67182 50.2055 2.66C50.1996 2.65705 50.1936 2.65409 50.1877 2.65113C50.1549 2.63044 50.1192 2.61271 50.0835 2.59497C50.0657 2.58611 50.0508 2.57724 50.0329 2.56837C49.9823 2.54472 49.9288 2.52108 49.8752 2.50039L48.8635 2.125C48.9171 2.14569 48.9706 2.16638 49.0212 2.19298C49.045 2.21367 49.0599 2.22254 49.0777 2.23141Z" fill="url(#paint33_linear_2659_1258)"/>
<path d="M45.6763 1.43652C45.6644 1.44834 45.6555 1.46017 45.6436 1.46903C45.6198 1.49268 45.599 1.51633 45.5752 1.53997C45.5484 1.56953 45.5216 1.59613 45.4948 1.62569C45.474 1.64638 45.4532 1.67003 45.4353 1.69367C45.4115 1.72028 45.3877 1.74688 45.3639 1.77052C45.349 1.78826 45.3312 1.806 45.3163 1.82373C45.2836 1.86216 45.2508 1.90058 45.2181 1.93901C45.2002 1.96265 45.1794 1.98334 45.1616 2.00699C45.1556 2.01586 45.1497 2.02177 45.1437 2.03064C45.0842 2.10158 45.0277 2.17547 44.9711 2.24937C44.9711 2.25232 44.9681 2.25232 44.9681 2.25528C44.9592 2.2671 44.9533 2.27597 44.9443 2.28779C44.8967 2.34986 44.8491 2.41193 44.8045 2.47696C44.7956 2.48879 44.7896 2.50061 44.7807 2.51243C44.7599 2.54199 44.739 2.5745 44.7152 2.60406C44.6884 2.64249 44.6617 2.67796 44.6379 2.71638C44.623 2.73707 44.6111 2.76072 44.5962 2.78141C44.5724 2.81688 44.5516 2.84939 44.5278 2.88486C44.5099 2.91146 44.492 2.93807 44.4772 2.96467C44.4563 2.99718 44.4355 3.0297 44.4176 3.06221C44.3968 3.09768 44.373 3.13315 44.3522 3.16862C44.3403 3.18635 44.3314 3.20409 44.3195 3.22182C44.2897 3.26912 44.2629 3.31937 44.2361 3.36666C44.2183 3.39622 44.2004 3.42873 44.1826 3.45829C44.1766 3.46716 44.1737 3.47602 44.1677 3.48489C44.1201 3.57356 44.0695 3.65928 44.0249 3.75091C44.0249 3.75091 44.0249 3.75387 44.0219 3.75387C44.0189 3.76274 44.013 3.76865 44.01 3.77751C43.9683 3.85732 43.9267 3.93713 43.888 4.01989C43.882 4.03171 43.8761 4.04649 43.8701 4.05832C43.8553 4.08787 43.8404 4.12039 43.8255 4.14995C43.8047 4.19428 43.7838 4.23566 43.763 4.28C43.7511 4.30956 43.7362 4.33616 43.7243 4.36572C43.7095 4.40119 43.6916 4.4337 43.6767 4.46917C43.6648 4.49577 43.6529 4.51942 43.641 4.54602C43.6172 4.59627 43.5964 4.64948 43.5756 4.69973C43.5636 4.72633 43.5517 4.75293 43.5398 4.78249C43.5369 4.79136 43.5309 4.80318 43.5279 4.81205C43.4893 4.90368 43.4535 4.99531 43.4178 5.08693C43.4149 5.08989 43.4149 5.0958 43.4119 5.09876C43.403 5.12536 43.3911 5.15196 43.3821 5.17856C43.3554 5.2495 43.3286 5.3234 43.3018 5.39434C43.2988 5.40616 43.2929 5.41798 43.2899 5.42981C43.2691 5.48892 43.2482 5.54804 43.2274 5.61011C43.2095 5.6574 43.1947 5.70765 43.1768 5.75495C43.1738 5.76381 43.1709 5.77268 43.1679 5.78155C43.1173 5.93821 43.0667 6.09782 43.0221 6.25743C43.0191 6.27221 43.0132 6.28403 43.0102 6.29881C42.9983 6.34019 42.9893 6.38158 42.9774 6.42296C42.9596 6.48799 42.9417 6.55597 42.9239 6.621C42.909 6.68011 42.8941 6.73923 42.8792 6.79834C42.8644 6.86337 42.8465 6.93135 42.8316 6.99638C42.8257 7.01707 42.8197 7.04072 42.8168 7.06141C42.8108 7.0821 42.8078 7.10279 42.8049 7.12644C42.7632 7.3097 42.7245 7.49 42.6918 7.67326V7.67622C42.668 7.80627 42.6472 7.93633 42.6263 8.06638C42.6263 8.07229 42.6233 8.07821 42.6233 8.08412C42.6085 8.1787 42.5966 8.27624 42.5847 8.37083C42.5817 8.38856 42.5787 8.40926 42.5757 8.42699V8.42995C42.5609 8.54227 42.549 8.65459 42.5371 8.76691C42.5371 8.77282 42.5371 8.77873 42.5371 8.78464C42.5341 8.81716 42.5311 8.85263 42.5281 8.88514C42.5222 8.95608 42.5162 9.02702 42.5103 9.09796C42.5103 9.10978 42.5103 9.12456 42.5073 9.13638C42.5043 9.18368 42.5013 9.23097 42.4984 9.27826C42.4954 9.33147 42.4924 9.38171 42.4894 9.43492C42.4894 9.45561 42.4894 9.47334 42.4865 9.49108C42.4835 9.54133 42.4835 9.59158 42.4805 9.64182C42.4805 9.68616 42.4775 9.72754 42.4775 9.77188C42.4775 9.79553 42.4775 9.81917 42.4775 9.84578C42.4775 9.89898 42.4775 9.95218 42.4775 10.0054C42.4775 10.0438 42.4775 10.0793 42.4775 10.1177C42.4775 10.1473 42.4805 10.1739 42.4805 10.2034C42.4805 10.2566 42.4835 10.3069 42.4835 10.3601C42.4835 10.3926 42.4835 10.4251 42.4865 10.4547C42.4865 10.4901 42.4894 10.5227 42.4924 10.5552C42.4954 10.6054 42.4984 10.6557 42.5013 10.7059C42.5043 10.7325 42.5043 10.7591 42.5073 10.7828C42.5103 10.8241 42.5162 10.8655 42.5192 10.9069C42.5222 10.9512 42.5281 10.9985 42.5311 11.0429C42.5341 11.0606 42.5341 11.0813 42.5371 11.099C42.543 11.1552 42.549 11.2084 42.5579 11.2646C42.5609 11.3 42.5668 11.3385 42.5698 11.3769C42.5698 11.3857 42.5728 11.3976 42.5728 11.4064C42.5847 11.504 42.5995 11.6015 42.6174 11.6961V11.6991C42.6174 11.705 42.6204 11.7138 42.6204 11.7198C42.6352 11.8055 42.6501 11.8912 42.668 11.9769C42.671 11.9976 42.6769 12.0183 42.6799 12.0419C42.6948 12.1099 42.7096 12.1809 42.7245 12.2459C42.7305 12.2725 42.7364 12.2961 42.7424 12.3227C42.7513 12.3582 42.7602 12.3907 42.7692 12.4262C42.7751 12.4528 42.7811 12.4794 42.79 12.506C42.8019 12.5474 42.8138 12.5888 42.8257 12.6301C42.8346 12.6597 42.8435 12.6893 42.8525 12.7188C42.8554 12.7306 42.8584 12.7425 42.8644 12.7543C42.8882 12.8341 42.915 12.9139 42.9417 12.9907C42.9685 13.0706 42.9983 13.1474 43.028 13.2243C43.031 13.2331 43.037 13.242 43.0399 13.2538C43.0518 13.2804 43.0637 13.307 43.0727 13.3336C43.0875 13.372 43.1054 13.4105 43.1203 13.4489C43.1292 13.4666 43.1381 13.4844 43.1471 13.5021C43.1619 13.5346 43.1768 13.5671 43.1917 13.5967C43.2036 13.6203 43.2155 13.6469 43.2274 13.6706C43.2393 13.6942 43.2542 13.7179 43.2661 13.7445C43.281 13.774 43.2988 13.8065 43.3137 13.8361C43.3226 13.8509 43.3315 13.8686 43.3405 13.8834C43.3554 13.913 43.3732 13.9366 43.3911 13.9662C43.4119 13.9987 43.4297 14.0341 43.4506 14.0667C43.4565 14.0785 43.4655 14.0903 43.4714 14.1021C43.4893 14.1287 43.5071 14.1553 43.525 14.1819C43.5488 14.2174 43.5726 14.2499 43.5964 14.2854C43.6023 14.2943 43.6113 14.3061 43.6172 14.3149C43.6351 14.3386 43.6499 14.3563 43.6678 14.38C43.6975 14.4184 43.7273 14.4568 43.7571 14.4953C43.766 14.5041 43.7749 14.5159 43.7809 14.5278C43.7957 14.5425 43.8076 14.5573 43.8225 14.5721C43.8612 14.6164 43.9029 14.6608 43.9445 14.7051C43.9564 14.7169 43.9683 14.7317 43.9802 14.7435C43.9981 14.7613 44.0159 14.7761 44.0338 14.7938C44.0457 14.8056 44.0606 14.8204 44.0725 14.8322C44.1231 14.8765 44.1707 14.9209 44.2213 14.9623C44.2242 14.9623 44.2242 14.9652 44.2272 14.9652C44.2421 14.977 44.257 14.9859 44.2689 14.9977C44.3105 15.0303 44.3552 15.0657 44.3998 15.0953C44.4206 15.1101 44.4444 15.1248 44.4653 15.1396C44.495 15.1573 44.5218 15.178 44.5516 15.1958C44.5605 15.2017 44.5664 15.2046 44.5754 15.2076C44.62 15.2342 44.6676 15.2578 44.7152 15.2815C44.739 15.2933 44.7598 15.3051 44.7837 15.317C44.8551 15.3495 44.9235 15.382 44.9979 15.4086L46.0096 15.784C45.9382 15.7574 45.8668 15.7278 45.7954 15.6924C45.7716 15.6805 45.7507 15.6687 45.7269 15.6569C45.6793 15.6332 45.6347 15.6096 45.5871 15.583C45.5514 15.5623 45.5127 15.5386 45.477 15.515C45.4561 15.5002 45.4323 15.4884 45.4115 15.4707C45.3669 15.4411 45.3252 15.4056 45.2806 15.3731C45.2657 15.3613 45.2508 15.3524 45.2389 15.3406C45.1854 15.2992 45.1348 15.2519 45.0842 15.2046C45.0693 15.1928 45.0574 15.178 45.0455 15.1662C45.0158 15.1367 44.986 15.1071 44.9562 15.0746C44.9146 15.0332 44.8759 14.9889 44.8342 14.9416C44.8104 14.915 44.7896 14.8913 44.7688 14.8647C44.739 14.8263 44.7093 14.7879 44.6795 14.7495C44.6557 14.7169 44.6319 14.6874 44.6081 14.6549C44.5843 14.6224 44.5605 14.5869 44.5367 14.5514C44.5099 14.513 44.4861 14.4775 44.4623 14.4361C44.4415 14.4036 44.4206 14.3682 44.4028 14.3356C44.376 14.2943 44.3522 14.2499 44.3284 14.2056C44.3105 14.176 44.2957 14.1465 44.2808 14.114C44.257 14.0667 44.2302 14.0164 44.2064 13.9662C44.1915 13.9337 44.1766 13.9041 44.1617 13.8716C44.1379 13.8154 44.1112 13.7593 44.0874 13.7031C44.0755 13.6765 44.0636 13.6499 44.0546 13.6233C44.0189 13.5376 43.9862 13.4519 43.9564 13.3632C43.9237 13.2745 43.8969 13.1829 43.8672 13.0883C43.8582 13.0587 43.8493 13.0292 43.8404 12.9996C43.8196 12.9316 43.8017 12.8666 43.7838 12.7957C43.7749 12.7632 43.766 12.7277 43.7571 12.6922C43.7333 12.6006 43.7124 12.506 43.6916 12.4114C43.6708 12.305 43.6499 12.1986 43.6291 12.0892C43.6291 12.0833 43.6261 12.0745 43.6261 12.0685C43.6083 11.9621 43.5934 11.8557 43.5785 11.7464C43.5726 11.7109 43.5696 11.6725 43.5666 11.637C43.5577 11.5631 43.5488 11.4892 43.5428 11.4183C43.5398 11.3739 43.5339 11.3266 43.5309 11.2823C43.525 11.2143 43.519 11.1463 43.516 11.0813C43.5131 11.0311 43.5101 10.9808 43.5071 10.9306C43.5041 10.8655 43.5012 10.8005 43.4982 10.7325C43.4952 10.6793 43.4952 10.6291 43.4952 10.5759C43.4952 10.5108 43.4922 10.4458 43.4922 10.3778C43.4922 10.3246 43.4922 10.2714 43.4922 10.2182C43.4922 10.1502 43.4952 10.0822 43.4952 10.0143C43.4952 9.96401 43.4982 9.91376 43.5012 9.86351C43.5041 9.79257 43.5071 9.72163 43.5131 9.64774C43.516 9.60044 43.519 9.55315 43.522 9.50586C43.5279 9.4231 43.5339 9.33738 43.5428 9.25461C43.5458 9.2221 43.5488 9.18663 43.5517 9.15412C43.5636 9.03588 43.5756 8.9147 43.5904 8.79647C43.5934 8.77873 43.5964 8.75804 43.5994 8.7403C43.6113 8.63981 43.6261 8.53931 43.641 8.43586C43.6618 8.3058 43.6827 8.17575 43.7065 8.04569C43.7065 8.04274 43.7065 8.04274 43.7065 8.03978C43.7392 7.85652 43.7779 7.67326 43.8196 7.49C43.8285 7.44566 43.8374 7.40428 43.8493 7.35995C43.8642 7.29492 43.882 7.22694 43.8969 7.16191C43.9118 7.10279 43.9267 7.04368 43.9415 6.98456C43.9594 6.91953 43.9773 6.85155 43.9951 6.78652C44.01 6.73332 44.0249 6.67716 44.0397 6.62395C44.0874 6.46434 44.135 6.30473 44.1856 6.14807C44.2034 6.09191 44.2242 6.03279 44.2451 5.97663C44.2659 5.91751 44.2867 5.85544 44.3076 5.79633C44.3373 5.71356 44.3671 5.6308 44.3998 5.54804C44.4087 5.52144 44.4206 5.49484 44.4296 5.46823C44.4712 5.36182 44.5129 5.25542 44.5575 5.15196C44.5694 5.12536 44.5813 5.0958 44.5932 5.0692C44.6259 4.99235 44.6587 4.9155 44.6944 4.83865C44.7093 4.80318 44.7271 4.76771 44.742 4.73519C44.7747 4.6613 44.8104 4.59036 44.8432 4.51942C44.858 4.48986 44.8729 4.45735 44.8878 4.42779C44.9354 4.33321 44.98 4.24158 45.0306 4.14699C45.0336 4.14108 45.0396 4.13221 45.0425 4.12334C45.0961 4.02285 45.1497 3.92531 45.2032 3.82776C45.2211 3.79525 45.2389 3.76569 45.2568 3.73613C45.2955 3.67111 45.3341 3.60312 45.3728 3.53809C45.3937 3.50262 45.4175 3.46716 45.4383 3.43169C45.474 3.37257 45.5127 3.31345 45.5514 3.25434C45.5752 3.21887 45.596 3.18635 45.6198 3.15088C45.6585 3.09177 45.7001 3.03265 45.7418 2.97354C45.7626 2.94398 45.7835 2.91147 45.8073 2.88191C45.8608 2.80506 45.9174 2.73116 45.9709 2.65727C45.9799 2.64544 45.9858 2.63658 45.9947 2.62475C46.0572 2.54199 46.1227 2.45923 46.1882 2.37942C46.206 2.35577 46.2268 2.33508 46.2447 2.31144C46.2923 2.25528 46.3399 2.19912 46.3905 2.14296C46.4143 2.11635 46.4381 2.08975 46.4619 2.06611C46.5095 2.01586 46.5571 1.96265 46.6047 1.91536C46.6285 1.89171 46.6494 1.86807 46.6732 1.84442C46.7416 1.77348 46.8101 1.7055 46.8815 1.64047C46.9559 1.57249 47.0303 1.5045 47.1046 1.44243C47.1255 1.4247 47.1463 1.40696 47.1671 1.38923C47.2177 1.34489 47.2713 1.30351 47.3219 1.26508C47.3516 1.24144 47.3814 1.22075 47.4111 1.1971C47.4558 1.16459 47.5004 1.13207 47.545 1.09956C47.5778 1.07591 47.6105 1.05522 47.6432 1.03157C47.6849 1.00497 47.7266 0.978371 47.7682 0.951768C47.8069 0.928122 47.8426 0.904475 47.8813 0.883784C47.92 0.860138 47.9587 0.839448 47.9944 0.818757C48.039 0.795111 48.0836 0.771465 48.1283 0.747818C48.164 0.730084 48.1967 0.712348 48.2324 0.697569C48.286 0.670967 48.3425 0.647321 48.3961 0.62663C48.4258 0.614807 48.4556 0.600028 48.4853 0.59116C48.5776 0.555691 48.6728 0.523177 48.7651 0.496575C48.8365 0.475885 48.9079 0.458149 48.9793 0.440414C48.9793 0.440414 48.9793 0.440414 48.9823 0.440414C49.0537 0.425635 49.1251 0.410857 49.1965 0.401989C49.2114 0.399033 49.2263 0.399033 49.2412 0.396077C49.2947 0.390166 49.3483 0.384254 49.3989 0.381298C49.4197 0.378342 49.4405 0.378343 49.4613 0.378343C49.509 0.375387 49.5595 0.375387 49.6072 0.375387C49.625 0.375387 49.6429 0.375387 49.6637 0.375387C49.7292 0.378343 49.7946 0.381299 49.8571 0.38721C49.866 0.38721 49.875 0.390166 49.8839 0.390166C49.9404 0.396078 49.994 0.404945 50.0476 0.413812C50.0684 0.416768 50.0862 0.422679 50.1071 0.425635C50.1517 0.434503 50.1993 0.446326 50.2439 0.458149C50.2618 0.464061 50.2826 0.467017 50.3005 0.472928C50.363 0.490663 50.4225 0.508398 50.482 0.532044L49.4703 0.156658C49.4108 0.133012 49.3483 0.115277 49.2888 0.097542C49.2709 0.0916304 49.2501 0.0886746 49.2322 0.082763C49.1876 0.0709398 49.143 0.0591164 49.0953 0.050249C49.0745 0.0472932 49.0567 0.0413818 49.0358 0.038426C48.9823 0.0295586 48.9257 0.0206906 48.8722 0.014779C48.8633 0.014779 48.8543 0.011823 48.8454 0.011823C48.7799 0.00591142 48.7174 0.0029558 48.652 0C48.6341 0 48.6163 0 48.5954 0C48.5478 0 48.4972 1.80364e-07 48.4496 0.00295598C48.4288 0.00295598 48.408 0.00591196 48.3871 0.00591196C48.3336 0.00886777 48.28 0.0147794 48.2294 0.020691C48.2146 0.0236468 48.1997 0.0236462 48.1848 0.026602C48.1818 0.026602 48.1759 0.0266022 48.1729 0.029558C48.1074 0.0384254 48.039 0.053205 47.9706 0.067984C47.9706 0.067984 47.9706 0.067984 47.9676 0.067984C47.8991 0.082763 47.8307 0.100497 47.7623 0.121188C47.7593 0.121188 47.7563 0.124144 47.7533 0.124144C47.6611 0.150746 47.5689 0.18326 47.4736 0.218729C47.4647 0.221685 47.4588 0.224641 47.4498 0.227597C47.429 0.236464 47.4082 0.248288 47.3844 0.257155C47.3308 0.280802 47.2743 0.304448 47.2207 0.328094C47.2058 0.334006 47.1909 0.339918 47.1761 0.345829C47.1552 0.354697 47.1344 0.36652 47.1136 0.378343C47.0689 0.40199 47.0243 0.425636 46.9797 0.449282C46.9618 0.45815 46.944 0.467017 46.9261 0.47884C46.9053 0.490663 46.8874 0.502486 46.8666 0.514309C46.8279 0.535 46.7922 0.558647 46.7535 0.582293C46.7357 0.594117 46.7148 0.605939 46.697 0.617762C46.6762 0.632541 46.6524 0.64732 46.6315 0.662099C46.5988 0.68279 46.5661 0.706437 46.5333 0.730083C46.5155 0.741907 46.5006 0.750773 46.4827 0.765552C46.456 0.786243 46.4262 0.806934 46.3994 0.827624C46.3697 0.851271 46.3399 0.871962 46.3102 0.895608C46.2983 0.904476 46.2864 0.913343 46.2744 0.92221C46.2358 0.954724 46.1941 0.987238 46.1554 1.01975C46.1346 1.03749 46.1138 1.05522 46.0929 1.07296C46.087 1.07887 46.084 1.08182 46.0781 1.08478C46.0126 1.14094 45.9471 1.20006 45.8817 1.25917C45.8787 1.26213 45.8727 1.26508 45.8698 1.27099C45.7924 1.32124 45.7359 1.3774 45.6763 1.43652Z" fill="url(#paint34_linear_2659_1258)"/>
<path d="M43.6857 12.4098C44.4415 16.007 47.0898 17.015 49.6012 14.6622C52.1127 12.3093 53.538 7.49138 52.7822 3.89417C52.0264 0.296957 49.3781 -0.713928 46.8666 1.63889C44.3522 3.99171 42.9299 8.81262 43.6857 12.4098ZM49.6191 2.43696C50.5415 2.63204 51.2854 3.52174 51.5949 5.00259C52.1543 7.66281 51.101 11.2305 49.2412 12.9714C48.2205 13.9262 47.1701 14.1331 46.3399 13.6838H46.337C45.6526 13.3143 45.117 12.5044 44.864 11.3044C44.3046 8.64118 45.358 5.07353 47.2178 3.33552C48.045 2.56406 48.8871 2.2803 49.6191 2.43696Z" fill="url(#paint35_linear_2659_1258)"/>
<path d="M41.0224 17.5309L44.3253 14.241L44.3343 14.2322C44.3372 14.2292 44.3402 14.2263 44.3402 14.2233C44.3432 14.2174 44.3491 14.2144 44.3521 14.2085C44.3551 14.2056 44.3581 14.1997 44.3611 14.1967C44.364 14.1908 44.367 14.1878 44.373 14.1819C44.373 14.179 44.3759 14.179 44.3759 14.176C44.3789 14.1731 44.3789 14.1701 44.3819 14.1672C44.3849 14.1612 44.3878 14.1553 44.3908 14.1524C44.3938 14.1465 44.3968 14.1435 44.3997 14.1376C44.4027 14.1317 44.4057 14.1258 44.4087 14.1199C44.4087 14.1169 44.4116 14.1139 44.4116 14.1139C44.4116 14.111 44.4146 14.108 44.4146 14.1051C44.4176 14.0992 44.4206 14.0933 44.4235 14.0873C44.4265 14.0814 44.4265 14.0755 44.4295 14.0726C44.4325 14.0667 44.4325 14.0607 44.4354 14.0519C44.4354 14.0489 44.4384 14.046 44.4384 14.043C44.4384 14.0401 44.4384 14.0371 44.4414 14.0371C44.4444 14.0282 44.4444 14.0194 44.4473 14.0134C44.4473 14.0075 44.4503 14.0046 44.4503 13.9987C44.4533 13.9898 44.4533 13.978 44.4533 13.9691C44.4533 13.9662 44.4533 13.9632 44.4563 13.9573C44.4563 13.9573 44.4563 13.9573 44.4563 13.9543C44.4592 13.9396 44.4592 13.9218 44.4592 13.907C44.4592 13.9041 44.4592 13.8982 44.4592 13.8952C44.4592 13.8834 44.4592 13.8686 44.4592 13.8568C44.4592 13.8538 44.4592 13.8509 44.4592 13.8479C44.4592 13.845 44.4592 13.842 44.4592 13.8391C44.4592 13.8302 44.4592 13.8243 44.4563 13.8154C44.4563 13.8095 44.4563 13.8006 44.4533 13.7947C44.4533 13.7859 44.4503 13.7799 44.4503 13.7711C44.4503 13.7622 44.4473 13.7563 44.4473 13.7474C44.4473 13.7386 44.4444 13.7297 44.4444 13.7238C44.4414 13.7149 44.4414 13.709 44.4384 13.7001C44.4354 13.6913 44.4354 13.6824 44.4325 13.6735C44.4325 13.6676 44.4295 13.6647 44.4295 13.6588C44.4295 13.6528 44.4265 13.6469 44.4265 13.641C44.4176 13.6115 44.4087 13.5819 44.3997 13.5523C44.3968 13.5435 44.3938 13.5376 44.3908 13.5287C44.3819 13.5021 44.37 13.4755 44.3581 13.4489C44.3551 13.4459 44.3551 13.443 44.3551 13.44C44.3432 13.4164 44.3343 13.3927 44.3194 13.3691C44.3164 13.3661 44.3134 13.3602 44.3134 13.3573C44.3045 13.3366 44.2926 13.3188 44.2807 13.3011C44.2718 13.2863 44.2658 13.2715 44.2569 13.2568C44.245 13.2361 44.2331 13.2183 44.2182 13.2006C44.2093 13.1888 44.2033 13.177 44.1974 13.1681C44.1944 13.1651 44.1944 13.1622 44.1914 13.1592C44.1885 13.1533 44.1825 13.1474 44.1795 13.1415C44.1617 13.1178 44.1468 13.0972 44.1289 13.0735C44.123 13.0676 44.117 13.0617 44.1141 13.0528C44.1111 13.0499 44.1081 13.0439 44.1051 13.041C44.0873 13.0203 44.0694 12.9996 44.0516 12.9789C44.0486 12.973 44.0427 12.9701 44.0397 12.9641C44.0308 12.9553 44.0248 12.9464 44.0159 12.9405C44.001 12.9228 43.9831 12.908 43.9683 12.8902C43.9653 12.8873 43.9623 12.8843 43.9593 12.8843C43.9474 12.8725 43.9385 12.8636 43.9266 12.8518C43.9177 12.8459 43.9117 12.837 43.9028 12.8311C43.8879 12.8163 43.873 12.8045 43.8552 12.7897C43.8492 12.7838 43.8403 12.7779 43.8344 12.772C43.8254 12.7661 43.8195 12.7602 43.8106 12.7543C43.7957 12.7425 43.7778 12.7277 43.7629 12.7159C43.754 12.7099 43.7481 12.704 43.7391 12.6981C43.7243 12.6863 43.7124 12.6774 43.6975 12.6686C43.6945 12.6686 43.6945 12.6656 43.6915 12.6656C43.6737 12.6538 43.6558 12.642 43.638 12.6301C43.6261 12.6242 43.6171 12.6183 43.6052 12.6094C43.5993 12.6065 43.5963 12.6035 43.5904 12.6006C43.5695 12.5858 43.5457 12.574 43.5249 12.5622C43.5189 12.5592 43.513 12.5562 43.51 12.5533C43.5011 12.5503 43.4951 12.5444 43.4862 12.5415C43.4803 12.5385 43.4773 12.5355 43.4713 12.5355C43.4535 12.5267 43.4327 12.5178 43.4148 12.5089C43.4088 12.506 43.3999 12.503 43.394 12.5001C43.391 12.5001 43.388 12.4971 43.385 12.4942C43.3672 12.4853 43.3464 12.4794 43.3285 12.4735C43.3166 12.4705 43.3077 12.4646 43.2958 12.4617C43.263 12.4498 43.2303 12.441 43.1976 12.4321C42.9268 12.3612 42.7155 12.4055 42.5876 12.5355L39.2876 15.8254C39.4155 15.6983 39.6298 15.6539 39.8976 15.7249C39.9303 15.7337 39.9631 15.7426 39.9958 15.7544C40.0077 15.7574 40.0166 15.7633 40.0285 15.7662C40.0494 15.7751 40.0732 15.784 40.094 15.7928C40.0999 15.7958 40.1089 15.7988 40.1148 15.8017C40.1327 15.8106 40.1476 15.8165 40.1654 15.8254C40.1714 15.8283 40.1803 15.8313 40.1862 15.8342C40.1952 15.8372 40.2011 15.8431 40.21 15.846C40.2368 15.8608 40.2666 15.8756 40.2934 15.8933C40.2993 15.8963 40.3023 15.8993 40.3082 15.9022C40.338 15.9199 40.3648 15.9377 40.3945 15.9584C40.3975 15.9584 40.3975 15.9613 40.4005 15.9613C40.4213 15.9761 40.4451 15.9938 40.4659 16.0086C40.4808 16.0204 40.4987 16.0352 40.5136 16.047C40.5284 16.0589 40.5433 16.0707 40.5582 16.0825C40.5731 16.0973 40.588 16.1091 40.6058 16.1239C40.6237 16.1416 40.6445 16.1594 40.6623 16.1771L40.6683 16.183C40.6921 16.2067 40.7159 16.2333 40.7397 16.2569C40.7427 16.2628 40.7486 16.2658 40.7516 16.2717C40.7724 16.2953 40.7962 16.3219 40.8171 16.3485C40.823 16.3544 40.826 16.3604 40.832 16.3692C40.8498 16.3929 40.8677 16.4136 40.8825 16.4372C40.8855 16.4431 40.8915 16.449 40.8944 16.4549C40.9034 16.4697 40.9123 16.4815 40.9212 16.4963C40.9331 16.5141 40.948 16.5347 40.9599 16.5554C40.9688 16.5702 40.9778 16.585 40.9837 16.5968C40.9956 16.6146 41.0045 16.6352 41.0164 16.653C41.0313 16.6796 41.0462 16.7091 41.0581 16.7357C41.0611 16.7387 41.0611 16.7417 41.0611 16.7446C41.073 16.7712 41.0849 16.7978 41.0938 16.8244C41.0968 16.8333 41.0998 16.8392 41.1027 16.8481C41.1146 16.8776 41.1236 16.9072 41.1295 16.9367C41.1325 16.9486 41.1355 16.9574 41.1384 16.9693C41.1414 16.9781 41.1414 16.987 41.1444 16.9929C41.1474 17.0018 41.1474 17.0077 41.1503 17.0165C41.1503 17.0254 41.1533 17.0343 41.1563 17.0402C41.1563 17.0491 41.1593 17.055 41.1593 17.0638C41.1593 17.0727 41.1622 17.0786 41.1622 17.0875C41.1622 17.0963 41.1652 17.1023 41.1652 17.1082C41.1652 17.117 41.1652 17.123 41.1682 17.1318V17.1496C41.1682 17.1614 41.1682 17.1762 41.1682 17.188C41.1682 17.1909 41.1682 17.1968 41.1682 17.1998C41.1682 17.2175 41.1652 17.2323 41.1652 17.2471C41.1652 17.2501 41.1652 17.256 41.1622 17.2589C41.1622 17.2678 41.1593 17.2796 41.1593 17.2885C41.1593 17.2944 41.1563 17.2973 41.1563 17.3033C41.1533 17.3121 41.1533 17.321 41.1503 17.3269C41.1503 17.3328 41.1474 17.3387 41.1474 17.3446C41.1444 17.3505 41.1444 17.3565 41.1414 17.3653C41.1384 17.3712 41.1384 17.3772 41.1355 17.3801C41.1325 17.386 41.1295 17.3919 41.1295 17.3978C41.1265 17.4038 41.1236 17.4067 41.1236 17.4126C41.1206 17.4185 41.1176 17.4244 41.1146 17.4304C41.1117 17.4363 41.1087 17.4392 41.1057 17.4451C41.1027 17.451 41.0998 17.457 41.0968 17.4599C41.0938 17.4658 41.0908 17.4688 41.0879 17.4747C41.0849 17.4806 41.0819 17.4836 41.076 17.4895C41.073 17.4924 41.07 17.4983 41.067 17.5013C41.0641 17.5072 41.0581 17.5102 41.0551 17.5161C41.0313 17.519 41.0283 17.5249 41.0224 17.5309Z" fill="url(#paint36_linear_2659_1258)"/>
<path d="M40.4123 17.631C40.9479 17.7729 41.2633 17.4566 41.1205 16.9275C40.9747 16.3955 40.4242 15.8516 39.8885 15.7097C39.3529 15.5678 39.0375 15.8841 39.1803 16.4132C39.3262 16.9452 39.8766 17.4891 40.4123 17.631Z" fill="url(#paint37_linear_2659_1258)"/>
<path d="M34.5501 24.5984L41.3792 17.9124L41.3911 17.9005C41.3941 17.8976 41.397 17.8917 41.4 17.8887C41.406 17.8828 41.4119 17.8739 41.4179 17.868C41.4238 17.8621 41.4268 17.8562 41.4328 17.8503C41.4387 17.8444 41.4447 17.8355 41.4476 17.8296C41.4506 17.8266 41.4506 17.8237 41.4536 17.8207C41.4566 17.8178 41.4595 17.8119 41.4625 17.8089C41.4655 17.8 41.4714 17.7941 41.4774 17.7853C41.4804 17.7793 41.4863 17.7705 41.4893 17.7646C41.4923 17.7557 41.4982 17.7498 41.5012 17.7409C41.5042 17.738 41.5042 17.735 41.5071 17.7321C41.5101 17.7291 41.5101 17.7232 41.5131 17.7202C41.5161 17.7114 41.522 17.7025 41.525 17.6936C41.528 17.6848 41.531 17.6788 41.5339 17.67C41.5369 17.6611 41.5399 17.6493 41.5429 17.6404C41.5458 17.6345 41.5458 17.6316 41.5488 17.6256C41.5488 17.6227 41.5488 17.6197 41.5518 17.6168C41.5548 17.605 41.5577 17.5931 41.5607 17.5813C41.5637 17.5754 41.5637 17.5665 41.5667 17.5577C41.5696 17.5429 41.5726 17.5281 41.5726 17.5163C41.5726 17.5104 41.5756 17.5074 41.5756 17.5015V17.4985C41.5786 17.4749 41.5786 17.4513 41.5815 17.4276C41.5815 17.4217 41.5815 17.4158 41.5815 17.4069C41.5815 17.3892 41.5815 17.3685 41.5815 17.3508C41.5815 17.3478 41.5815 17.3419 41.5815 17.3389C41.5815 17.333 41.5815 17.3301 41.5815 17.3242C41.5815 17.3123 41.5815 17.3005 41.5786 17.2887C41.5786 17.2769 41.5756 17.268 41.5756 17.2562C41.5756 17.2443 41.5726 17.2325 41.5726 17.2207C41.5696 17.2089 41.5696 17.2 41.5667 17.1882C41.5637 17.1764 41.5637 17.1645 41.5607 17.1527C41.5577 17.1409 41.5548 17.1291 41.5548 17.1172C41.5518 17.1054 41.5488 17.0936 41.5458 17.0788C41.5429 17.0729 41.5429 17.064 41.5399 17.0552C41.5369 17.0463 41.5369 17.0374 41.5339 17.0315C41.522 16.9872 41.5071 16.9458 41.4923 16.9015C41.4893 16.8896 41.4833 16.8778 41.4804 16.866C41.4655 16.8276 41.4506 16.7892 41.4328 16.7507C41.4298 16.7448 41.4298 16.7419 41.4268 16.7359C41.4119 16.7005 41.3941 16.665 41.3762 16.6325C41.3732 16.6266 41.3703 16.6207 41.3673 16.6148C41.3524 16.5852 41.3346 16.5586 41.3197 16.532C41.3078 16.5113 41.2959 16.4906 41.284 16.4699C41.2661 16.4404 41.2483 16.4138 41.2274 16.3842C41.2155 16.3665 41.2066 16.3517 41.1947 16.334C41.1917 16.331 41.1888 16.3251 41.1858 16.3221C41.1798 16.3133 41.1739 16.3044 41.1679 16.2985C41.1441 16.266 41.1173 16.2305 41.0906 16.198C41.0816 16.1891 41.0757 16.1773 41.0668 16.1684C41.0608 16.1625 41.0578 16.1566 41.0519 16.1507C41.0251 16.1182 40.9983 16.0886 40.9715 16.0591C40.9656 16.0532 40.9596 16.0472 40.9537 16.0384C40.9418 16.0266 40.9328 16.0147 40.9209 16.0029C40.8971 15.9793 40.8733 15.9527 40.8495 15.929C40.8466 15.9261 40.8436 15.9231 40.8376 15.9201C40.8227 15.9054 40.8049 15.8876 40.79 15.8729C40.7781 15.864 40.7662 15.8522 40.7573 15.8433C40.7335 15.8226 40.7127 15.8019 40.6888 15.7842C40.6799 15.7753 40.668 15.7664 40.6591 15.7576C40.6472 15.7487 40.6353 15.7398 40.6264 15.731C40.6026 15.7132 40.5787 15.6925 40.5549 15.6748C40.543 15.6659 40.5341 15.6571 40.5222 15.6482C40.5014 15.6334 40.4806 15.6187 40.4597 15.6039C40.4567 15.6009 40.4538 15.6009 40.4538 15.598C40.427 15.5802 40.4002 15.5625 40.3764 15.5448C40.3615 15.5359 40.3437 15.5241 40.3288 15.5152C40.3228 15.5122 40.3139 15.5063 40.308 15.5034C40.2752 15.4827 40.2425 15.465 40.2098 15.4472C40.2008 15.4443 40.1949 15.4383 40.186 15.4354C40.1741 15.4295 40.1622 15.4236 40.1503 15.4177C40.1443 15.4147 40.1384 15.4117 40.1294 15.4088C40.1026 15.394 40.0729 15.3792 40.0461 15.3674C40.0372 15.3615 40.0253 15.3585 40.0164 15.3526C40.0104 15.3497 40.0074 15.3467 40.0015 15.3467C39.9747 15.3349 39.9449 15.326 39.9182 15.3142C39.9033 15.3083 39.8854 15.3024 39.8705 15.2965C39.8229 15.2787 39.7753 15.264 39.7277 15.2521C39.332 15.1487 39.0165 15.2137 38.8291 15.4029L32 22.0859C32.1875 21.8968 32.5029 21.8317 32.8957 21.9382C32.9433 21.95 32.9909 21.9648 33.0385 21.9825C33.0534 21.9884 33.0712 21.9943 33.0861 22.0002C33.1188 22.0121 33.1516 22.0239 33.1813 22.0387C33.1903 22.0416 33.2022 22.0475 33.2111 22.0534C33.2349 22.0653 33.2617 22.0771 33.2855 22.0889C33.2944 22.0948 33.3063 22.0978 33.3152 22.1037C33.3271 22.1096 33.339 22.1155 33.3509 22.1214C33.3926 22.1451 33.4313 22.1658 33.4729 22.1924C33.4789 22.1953 33.4848 22.2012 33.4938 22.2042C33.5354 22.2308 33.5771 22.2574 33.6187 22.2869C33.6217 22.2899 33.6247 22.2899 33.6247 22.2929C33.6574 22.3165 33.6902 22.3401 33.7199 22.3638C33.7437 22.3815 33.7675 22.4022 33.7913 22.42C33.8122 22.4377 33.833 22.4554 33.8568 22.4732C33.8806 22.4938 33.9014 22.5145 33.9252 22.5352C33.952 22.5618 33.9818 22.5855 34.0086 22.6121L34.0205 22.6239C34.0562 22.6594 34.0919 22.6948 34.1246 22.7333C34.1306 22.7392 34.1365 22.7451 34.1425 22.754C34.1752 22.7894 34.2079 22.8279 34.2377 22.8663C34.2466 22.8751 34.2526 22.887 34.2615 22.8958C34.2883 22.9284 34.3121 22.9609 34.3388 22.9963C34.3448 23.0052 34.3508 23.0141 34.3567 23.02C34.3716 23.0407 34.3835 23.0614 34.3984 23.0821C34.4162 23.1087 34.437 23.1382 34.4549 23.1678C34.4668 23.1885 34.4787 23.2092 34.4906 23.2298C34.5055 23.2564 34.5233 23.286 34.5382 23.3126C34.559 23.354 34.5799 23.3954 34.5977 23.4338C34.6007 23.4397 34.6007 23.4427 34.6037 23.4486C34.6215 23.487 34.6364 23.5254 34.6513 23.5638C34.6543 23.5757 34.6602 23.5875 34.6632 23.5993C34.6781 23.6437 34.6929 23.685 34.7049 23.7294C34.7108 23.7442 34.7138 23.7619 34.7168 23.7767C34.7197 23.7885 34.7227 23.8003 34.7257 23.8121C34.7287 23.824 34.7316 23.8358 34.7316 23.8476C34.7346 23.8594 34.7376 23.8713 34.7376 23.8831C34.7406 23.8949 34.7406 23.9038 34.7435 23.9156C34.7465 23.9274 34.7465 23.9392 34.7495 23.9511C34.7495 23.9629 34.7525 23.9718 34.7525 23.9836C34.7525 23.9954 34.7554 24.0072 34.7554 24.019V24.0456C34.7554 24.0663 34.7554 24.0841 34.7554 24.1018C34.7554 24.1077 34.7554 24.1136 34.7554 24.1195C34.7554 24.1432 34.7525 24.1668 34.7495 24.1905C34.7495 24.1964 34.7465 24.2023 34.7465 24.2082C34.7435 24.223 34.7435 24.2378 34.7406 24.2496C34.7376 24.2585 34.7376 24.2644 34.7346 24.2732C34.7316 24.2851 34.7287 24.2969 34.7257 24.3087C34.7227 24.3176 34.7227 24.3264 34.7197 24.3324C34.7168 24.3412 34.7138 24.353 34.7108 24.3619C34.7078 24.3708 34.7049 24.3767 34.7019 24.3856C34.6989 24.3944 34.6959 24.4033 34.69 24.4122C34.687 24.421 34.684 24.4269 34.681 24.4358C34.6781 24.4447 34.6721 24.4535 34.6691 24.4595C34.6662 24.4683 34.6632 24.4742 34.6572 24.4801C34.6513 24.489 34.6483 24.4949 34.6424 24.5038C34.6364 24.5097 34.6334 24.5186 34.6305 24.5245C34.6245 24.5334 34.6215 24.5393 34.6156 24.5481C34.6126 24.554 34.6067 24.56 34.6007 24.5659C34.5948 24.5718 34.5888 24.5806 34.5828 24.5866C34.562 24.5836 34.5561 24.5925 34.5501 24.5984Z" fill="url(#paint38_linear_2659_1258)"/>
<path d="M33.6488 24.7482C34.4373 24.9551 34.9015 24.494 34.6902 23.7137C34.479 22.9334 33.6666 22.1324 32.881 21.9225C32.0925 21.7156 31.6283 22.1767 31.8396 22.957C32.0538 23.7374 32.8632 24.5413 33.6488 24.7482Z" fill="url(#paint39_linear_2659_1258)"/>
<path d="M40.6895 22.1566L36.7022 19.9812C36.7022 19.9812 36.107 19.6176 35.5119 20.4718C34.9168 21.3231 35.2679 21.7044 35.2679 21.7044C35.2679 21.7044 40.7222 25.473 41.6685 24.6927C42.6118 23.9094 40.6895 22.1566 40.6895 22.1566Z" fill="#009B81"/>
<path d="M36.3693 19.9037C36.3693 19.9037 36.8008 19.4485 36.7651 19.1056C36.7294 18.7627 36.5687 18.5588 36.5687 18.5588C36.5687 18.5588 36.3009 18.541 36.283 18.8662C36.2652 19.1913 36.2652 19.1913 36.2652 19.1913C36.2652 19.1913 36.036 18.6327 35.7147 18.6622C35.3933 18.6918 34.5155 19.5519 34.5988 20.0544C34.6821 20.5598 35.1672 21.1746 35.1672 21.1746C35.1672 21.1746 35.5927 20.1697 36.3693 19.9037Z" fill="url(#paint40_linear_2659_1258)"/>
<g opacity="0.2">
<path opacity="0.037" d="M28.0146 25.6565C28.0336 24.7196 26.4173 23.9276 24.4046 23.8873C22.3918 23.8471 20.7448 24.5739 20.7258 25.5107C20.7068 26.4476 22.3231 27.2397 24.3358 27.2799C26.3486 27.3201 27.9956 26.5933 28.0146 25.6565Z" fill="#141414"/>
<path opacity="0.074" d="M27.9495 25.6561C27.9682 24.7355 26.3809 23.9573 24.4043 23.9178C22.4277 23.8783 20.8102 24.5924 20.7916 25.513C20.7729 26.4335 22.3602 27.2117 24.3368 27.2512C26.3134 27.2908 27.9309 26.5766 27.9495 25.6561Z" fill="#141414"/>
<path opacity="0.111" d="M27.8869 25.6538C27.9053 24.7496 26.3457 23.9852 24.4036 23.9463C22.4615 23.9075 20.8723 24.609 20.854 25.5132C20.8357 26.4174 22.3952 27.1819 24.3373 27.2207C26.2794 27.2595 27.8686 26.558 27.8869 25.6538Z" fill="#141414"/>
<path opacity="0.148" d="M27.8218 25.6515C27.8398 24.7636 26.3093 24.0129 24.4034 23.9748C22.4974 23.9367 20.9378 24.6256 20.9198 25.5135C20.9018 26.4013 22.4323 27.152 24.3382 27.1901C26.2442 27.2282 27.8039 26.5393 27.8218 25.6515Z" fill="#141414"/>
<path opacity="0.185" d="M27.7593 25.6512C27.7769 24.7796 26.2742 24.0428 24.4027 24.0053C22.5313 23.9679 20.9998 24.6441 20.9822 25.5157C20.9645 26.3872 22.4673 27.1241 24.3388 27.1615C26.2102 27.1989 27.7416 26.5227 27.7593 25.6512Z" fill="#141414"/>
<path opacity="0.222" d="M27.6967 25.6509C27.7141 24.7956 26.239 24.0726 24.402 24.0359C22.5651 23.9991 21.0619 24.6627 21.0446 25.5179C21.0272 26.3731 22.5023 27.0962 24.3393 27.1329C26.1762 27.1696 27.6794 26.5061 27.6967 25.6509Z" fill="#141414"/>
<path opacity="0.259" d="M27.6311 25.6485C27.6481 24.8096 26.2021 24.1004 24.4013 24.0644C22.6005 24.0283 21.1269 24.6792 21.1099 25.5181C21.0929 26.357 22.5389 27.0663 24.3397 27.1023C26.1405 27.1383 27.6141 26.4874 27.6311 25.6485Z" fill="#141414"/>
<path opacity="0.296" d="M27.5685 25.6473C27.5852 24.8263 26.1668 24.1322 24.4005 24.0969C22.6342 24.0616 21.1888 24.6984 21.1722 25.5194C21.1556 26.3403 22.574 27.0345 24.3402 27.0698C26.1065 27.1051 27.5519 26.4682 27.5685 25.6473Z" fill="#141414"/>
<path opacity="0.333" d="M27.5034 25.6469C27.5197 24.8422 26.1304 24.1619 24.4002 24.1273C22.6701 24.0927 21.2543 24.717 21.238 25.5216C21.2217 26.3262 22.6111 27.0066 24.3412 27.0411C26.0713 27.0757 27.4871 26.4515 27.5034 25.6469Z" fill="#141414"/>
<path opacity="0.37" d="M27.4409 25.6446C27.4568 24.8563 26.0952 24.1898 24.3996 24.1559C22.7039 24.122 21.3164 24.7335 21.3004 25.5219C21.2844 26.3102 22.6461 26.9767 24.3417 27.0106C26.0374 27.0445 27.4249 26.4329 27.4409 25.6446Z" fill="#141414"/>
<path opacity="0.407" d="M27.3753 25.6423C27.3909 24.8703 26.0583 24.2176 24.3988 24.1844C22.7393 24.1512 21.3814 24.7501 21.3657 25.5221C21.3501 26.2941 22.6827 26.9468 24.3422 26.98C26.0017 27.0132 27.3596 26.4142 27.3753 25.6423Z" fill="#141414"/>
<path opacity="0.444" d="M27.3127 25.642C27.328 24.8863 26.0231 24.2474 24.3981 24.2149C22.7732 24.1824 21.4434 24.7687 21.4281 25.5243C21.4128 26.28 22.7177 26.9189 24.3427 26.9514C25.9677 26.9839 27.2974 26.3976 27.3127 25.642Z" fill="#141414"/>
<path opacity="0.481" d="M27.2471 25.6416C27.2621 24.9022 25.9863 24.2771 24.3974 24.2453C22.8086 24.2136 21.5084 24.7872 21.4934 25.5265C21.4785 26.2659 22.7543 26.891 24.3432 26.9227C25.932 26.9545 27.2322 26.3809 27.2471 25.6416Z" fill="#141414"/>
<path opacity="0.518" d="M27.1851 25.6393C27.1997 24.9163 25.9516 24.305 24.3972 24.2739C22.8429 24.2428 21.571 24.8038 21.5563 25.5268C21.5417 26.2498 22.7898 26.8611 24.3442 26.8922C25.8985 26.9233 27.1704 26.3623 27.1851 25.6393Z" fill="#141414"/>
<path opacity="0.556" d="M27.1195 25.637C27.1338 24.9302 25.9147 24.3327 24.3965 24.3024C22.8783 24.272 21.6359 24.8203 21.6216 25.527C21.6073 26.2337 22.8264 26.8312 24.3446 26.8616C25.8628 26.8919 27.1052 26.3437 27.1195 25.637Z" fill="#141414"/>
<path opacity="0.593" d="M27.0574 25.6367C27.0714 24.9463 25.88 24.3626 24.3963 24.3329C22.9126 24.3032 21.6985 24.8389 21.6845 25.5292C21.6705 26.2196 22.8619 26.8033 24.3456 26.833C25.8293 26.8627 27.0434 26.327 27.0574 25.6367Z" fill="#141414"/>
<path opacity="0.63" d="M26.9918 25.6363C27.0055 24.9622 25.8431 24.3923 24.3956 24.3634C22.948 24.3344 21.7635 24.8574 21.7498 25.5315C21.7362 26.2055 22.8986 26.7754 24.3461 26.8044C25.7936 26.8333 26.9782 26.3103 26.9918 25.6363Z" fill="#141414"/>
<path opacity="0.667" d="M26.9288 25.634C26.9421 24.9763 25.8074 24.4202 24.3944 24.3919C22.9813 24.3637 21.8251 24.874 21.8117 25.5317C21.7984 26.1895 22.9331 26.7456 24.3461 26.7738C25.7592 26.8021 26.9155 26.2918 26.9288 25.634Z" fill="#141414"/>
<path opacity="0.704" d="M26.8637 25.6317C26.8767 24.9902 25.771 24.4479 24.3941 24.4204C23.0173 24.3929 21.8905 24.8905 21.8775 25.532C21.8645 26.1734 22.9702 26.7157 24.3471 26.7432C25.724 26.7707 26.8507 26.2731 26.8637 25.6317Z" fill="#141414"/>
<path opacity="0.741" d="M26.8006 25.6314C26.8133 25.0063 25.7354 24.4778 24.393 24.4509C23.0506 24.4241 21.9521 24.9091 21.9394 25.5342C21.9268 26.1593 23.0047 26.6878 24.3471 26.7146C25.6895 26.7414 26.788 26.2565 26.8006 25.6314Z" fill="#141414"/>
<path opacity="0.778" d="M26.7355 25.631C26.7479 25.0222 25.699 24.5075 24.3927 24.4814C23.0865 24.4553 22.0176 24.9276 22.0052 25.5364C21.9929 26.1452 23.0418 26.6598 24.3481 26.686C25.6543 26.7121 26.7232 26.2397 26.7355 25.631Z" fill="#141414"/>
<path opacity="0.815" d="M26.673 25.6287C26.685 25.0363 25.6638 24.5354 24.392 24.5099C23.1203 24.4845 22.0796 24.9442 22.0676 25.5366C22.0556 26.1291 23.0768 26.63 24.3486 26.6554C25.6203 26.6808 26.661 26.2212 26.673 25.6287Z" fill="#141414"/>
<path opacity="0.852" d="M26.6079 25.6283C26.6196 25.0522 25.6274 24.5651 24.3918 24.5404C23.1562 24.5157 22.1451 24.9627 22.1334 25.5388C22.1218 26.115 23.1139 26.6021 24.3495 26.6268C25.5851 26.6515 26.5962 26.2044 26.6079 25.6283Z" fill="#141414"/>
<path opacity="0.889" d="M26.5453 25.6271C26.5566 25.0689 25.5921 24.5969 24.391 24.5729C23.1899 24.5489 22.2071 24.9819 22.1958 25.5401C22.1845 26.0983 23.149 26.5702 24.35 26.5943C25.5511 26.6183 26.534 26.1852 26.5453 25.6271Z" fill="#141414"/>
<path opacity="0.926" d="M26.4797 25.6267C26.4907 25.0848 25.5552 24.6266 24.3903 24.6034C23.2253 24.5801 22.2721 25.0005 22.2611 25.5423C22.2501 26.0842 23.1856 26.5423 24.3505 26.5656C25.5154 26.5889 26.4687 26.1685 26.4797 25.6267Z" fill="#141414"/>
<path opacity="0.963" d="M26.4176 25.6244C26.4283 25.0989 25.5205 24.6545 24.3901 24.6319C23.2596 24.6093 22.3346 25.017 22.324 25.5426C22.3133 26.0681 23.2211 26.5125 24.3515 26.5351C25.4819 26.5577 26.407 26.1499 26.4176 25.6244Z" fill="#141414"/>
<path d="M26.355 25.6222C26.3654 25.1129 25.4853 24.6824 24.3894 24.6605C23.2935 24.6386 22.3967 25.0336 22.3864 25.5428C22.376 26.052 23.2561 26.4826 24.352 26.5045C25.4479 26.5264 26.3447 26.1314 26.355 25.6222Z" fill="#141414"/>
</g>
<path d="M27.1409 16.2532C27.1409 15.8749 26.9385 15.5261 26.6082 15.3369L19.7791 11.4323C19.428 11.2313 18.4609 11.6126 18.4609 12.0146L18.9876 17.9026C18.9876 18.3105 19.2078 18.6888 19.5649 18.8928L24.6294 21.7274L24.0462 25.7886L24.6294 25.4251L26.8611 22.8713C26.9534 22.8358 27.0308 22.7678 27.0813 22.6791C27.1171 22.6171 27.1379 22.5432 27.1379 22.4604V16.2532H27.1409Z" fill="url(#paint41_linear_2659_1258)"/>
<path d="M26.5551 16.6162C26.5551 16.2379 26.3527 15.8891 26.0224 15.6999L19.1934 11.7953C18.8422 11.5943 18.4019 11.8456 18.4019 12.2505V18.2656C18.4019 18.6735 18.6221 19.0518 18.9791 19.2558L24.0437 22.0904V25.7881L26.2754 23.2343C26.3676 23.1988 26.445 23.1308 26.4956 23.0421C26.5313 22.9801 26.5521 22.9062 26.5521 22.8234V16.6162H26.5551Z" fill="url(#paint42_linear_2659_1258)"/>
<path d="M22.8324 15.5654C22.8324 15.8255 22.6211 15.9379 22.3593 15.8196L21.9546 15.6334C21.6927 15.5152 21.4814 15.2078 21.4814 14.9477C21.4814 14.6875 21.6927 14.5752 21.9546 14.6935L22.3593 14.8797C22.6211 14.9979 22.8324 15.3053 22.8324 15.5654ZM22.7937 16.7803V19.3666C22.7937 19.6267 22.5824 19.739 22.3206 19.6208L22.0111 19.4789C21.7493 19.3607 21.538 19.0533 21.538 18.7932V16.2068C21.538 15.9467 21.7493 15.8344 22.0111 15.9526L22.3206 16.0945C22.5824 16.2127 22.7937 16.5201 22.7937 16.7803Z" fill="url(#paint43_linear_2659_1258)"/>
<defs>
<linearGradient id="paint0_linear_2659_1258" x1="7.6561" y1="29.2923" x2="14.4851" y2="50.9935" gradientUnits="userSpaceOnUse">
<stop stop-color="#F9F9F9"/>
<stop offset="1" stop-color="#D3D4D5"/>
</linearGradient>
<linearGradient id="paint1_linear_2659_1258" x1="20.2116" y1="18.8622" x2="27.8979" y2="43.2876" gradientUnits="userSpaceOnUse">
<stop stop-color="#FC9C03"/>
<stop offset="0.993" stop-color="#FFD712"/>
</linearGradient>
<linearGradient id="paint2_linear_2659_1258" x1="23.3542" y1="44.2987" x2="-1.09335" y2="34.4541" gradientUnits="userSpaceOnUse">
<stop stop-color="#FC9C03"/>
<stop offset="0.993" stop-color="#DD9A07"/>
</linearGradient>
<linearGradient id="paint3_linear_2659_1258" x1="22.0142" y1="36.5248" x2="47.396" y2="36.5248" gradientUnits="userSpaceOnUse">
<stop stop-color="#FC9C03"/>
<stop offset="0.993" stop-color="#DD9A07"/>
</linearGradient>
<linearGradient id="paint4_linear_2659_1258" x1="22.0142" y1="40.2055" x2="47.396" y2="40.2055" gradientUnits="userSpaceOnUse">
<stop stop-color="#FC9C03"/>
<stop offset="0.993" stop-color="#DD9A07"/>
</linearGradient>
<linearGradient id="paint5_linear_2659_1258" x1="22.2177" y1="44.1956" x2="40.4993" y2="35.5819" gradientUnits="userSpaceOnUse">
<stop stop-color="#F9F9F9"/>
<stop offset="1" stop-color="#D3D4D5"/>
</linearGradient>
<linearGradient id="paint6_linear_2659_1258" x1="5.27916" y1="43.2633" x2="13.81" y2="39.2439" gradientUnits="userSpaceOnUse">
<stop stop-color="#FC9C03"/>
<stop offset="0.993" stop-color="#FFD712"/>
</linearGradient>
<linearGradient id="paint7_linear_2659_1258" x1="46.9145" y1="30.9529" x2="28.228" y2="44.3397" gradientUnits="userSpaceOnUse">
<stop stop-color="#FC9C03"/>
<stop offset="0.993" stop-color="#FFD712"/>
</linearGradient>
<linearGradient id="paint8_linear_2659_1258" x1="22.073" y1="24.6895" x2="27.811" y2="42.9237" gradientUnits="userSpaceOnUse">
<stop stop-color="#FC9C03"/>
<stop offset="0.993" stop-color="white"/>
</linearGradient>
<linearGradient id="paint9_linear_2659_1258" x1="22.0529" y1="36.269" x2="4.20429" y2="29.0817" gradientUnits="userSpaceOnUse">
<stop stop-color="#F9F9F9"/>
<stop offset="1" stop-color="#D3D4D5"/>
</linearGradient>
<linearGradient id="paint10_linear_2659_1258" x1="39.6068" y1="33.005" x2="7.19122" y2="19.9518" gradientUnits="userSpaceOnUse">
<stop stop-color="#0C4BA5"/>
<stop offset="1" stop-color="#3084D7"/>
</linearGradient>
<linearGradient id="paint11_linear_2659_1258" x1="33.6168" y1="34.2922" x2="31.1823" y2="30.5166" gradientUnits="userSpaceOnUse">
<stop stop-color="#0C4BA5"/>
<stop offset="1" stop-color="#3084D7"/>
</linearGradient>
<linearGradient id="paint12_linear_2659_1258" x1="21.781" y1="36.9461" x2="4.13115" y2="29.8388" gradientUnits="userSpaceOnUse">
<stop stop-color="#4D97EF"/>
<stop offset="1" stop-color="#3084D7"/>
</linearGradient>
<linearGradient id="paint13_linear_2659_1258" x1="22.3623" y1="36.2856" x2="3.64881" y2="28.75" gradientUnits="userSpaceOnUse">
<stop stop-color="#0C4BA5"/>
<stop offset="1" stop-color="#3084D7"/>
</linearGradient>
<linearGradient id="paint14_linear_2659_1258" x1="27.1836" y1="36.6155" x2="25.601" y2="34.1609" gradientUnits="userSpaceOnUse">
<stop stop-color="#FC9C03"/>
<stop offset="0.993" stop-color="#FFD712"/>
</linearGradient>
<linearGradient id="paint15_linear_2659_1258" x1="39.5569" y1="29.5237" x2="37.9742" y2="27.0692" gradientUnits="userSpaceOnUse">
<stop stop-color="#FC9C03"/>
<stop offset="0.993" stop-color="#FFD712"/>
</linearGradient>
<linearGradient id="paint16_linear_2659_1258" x1="22.2401" y1="32.5389" x2="6.89067" y2="26.3579" gradientUnits="userSpaceOnUse">
<stop stop-color="#F9F9F9"/>
<stop offset="1" stop-color="#D3D4D5"/>
</linearGradient>
<linearGradient id="paint17_linear_2659_1258" x1="37.3349" y1="29.731" x2="9.45835" y2="18.5056" gradientUnits="userSpaceOnUse">
<stop stop-color="#E13D3D"/>
<stop offset="0.995" stop-color="#F06162"/>
</linearGradient>
<linearGradient id="paint18_linear_2659_1258" x1="32.1844" y1="30.8379" x2="30.0908" y2="27.5909" gradientUnits="userSpaceOnUse">
<stop stop-color="#E13D3D"/>
<stop offset="0.995" stop-color="#F06162"/>
</linearGradient>
<linearGradient id="paint19_linear_2659_1258" x1="22.0058" y1="33.1194" x2="6.82731" y2="27.0073" gradientUnits="userSpaceOnUse">
<stop stop-color="#E13D3D"/>
<stop offset="0.995" stop-color="#F06162"/>
</linearGradient>
<linearGradient id="paint20_linear_2659_1258" x1="22.5056" y1="32.5506" x2="6.41251" y2="26.0702" gradientUnits="userSpaceOnUse">
<stop stop-color="#E13D3D"/>
<stop offset="0.995" stop-color="#CE2830"/>
</linearGradient>
<linearGradient id="paint21_linear_2659_1258" x1="26.6512" y1="32.8357" x2="25.2902" y2="30.7249" gradientUnits="userSpaceOnUse">
<stop stop-color="#F9F9F9"/>
<stop offset="1" stop-color="#D3D4D5"/>
</linearGradient>
<linearGradient id="paint22_linear_2659_1258" x1="37.2923" y1="26.7358" x2="35.9313" y2="24.625" gradientUnits="userSpaceOnUse">
<stop stop-color="#F9F9F9"/>
<stop offset="1" stop-color="#D3D4D5"/>
</linearGradient>
<linearGradient id="paint23_linear_2659_1258" x1="14.4424" y1="30.0461" x2="20.9544" y2="26.6585" gradientUnits="userSpaceOnUse">
<stop stop-color="#E13D3D"/>
<stop offset="0.995" stop-color="#EFF0F0"/>
</linearGradient>
<linearGradient id="paint24_linear_2659_1258" x1="14.1423" y1="29.4701" x2="20.6543" y2="26.0825" gradientUnits="userSpaceOnUse">
<stop stop-color="#E13D3D"/>
<stop offset="0.995" stop-color="#EFF0F0"/>
</linearGradient>
<linearGradient id="paint25_linear_2659_1258" x1="23.2419" y1="25.5326" x2="27.1575" y2="25.5326" gradientUnits="userSpaceOnUse">
<stop stop-color="#EA8B57"/>
<stop offset="1" stop-color="#FFC7A1"/>
</linearGradient>
<linearGradient id="paint26_linear_2659_1258" x1="39.1424" y1="44.0608" x2="41.6406" y2="44.0608" gradientUnits="userSpaceOnUse">
<stop stop-color="#686868"/>
<stop offset="0.995" stop-color="#1E1E1E"/>
</linearGradient>
<linearGradient id="paint27_linear_2659_1258" x1="33.1905" y1="41.6712" x2="37.3644" y2="41.6712" gradientUnits="userSpaceOnUse">
<stop stop-color="#686868"/>
<stop offset="0.995" stop-color="#1E1E1E"/>
</linearGradient>
<linearGradient id="paint28_linear_2659_1258" x1="34.0165" y1="32.6649" x2="38.9946" y2="32.6649" gradientUnits="userSpaceOnUse">
<stop stop-color="#686868"/>
<stop offset="0.995" stop-color="#1E1E1E"/>
</linearGradient>
<linearGradient id="paint29_linear_2659_1258" x1="37.3624" y1="34.2611" x2="42.7067" y2="34.2611" gradientUnits="userSpaceOnUse">
<stop stop-color="#686868"/>
<stop offset="0.995" stop-color="#1E1E1E"/>
</linearGradient>
<linearGradient id="paint30_linear_2659_1258" x1="37.3391" y1="13.1772" x2="40.5011" y2="13.1772" gradientUnits="userSpaceOnUse">
<stop stop-color="#EA8B57"/>
<stop offset="1" stop-color="#FFC7A1"/>
</linearGradient>
<linearGradient id="paint31_linear_2659_1258" x1="39.5861" y1="11.5693" x2="36.1929" y2="10.97" gradientUnits="userSpaceOnUse">
<stop stop-color="#EA8B57"/>
<stop offset="1" stop-color="#FFC7A1"/>
</linearGradient>
<linearGradient id="paint32_linear_2659_1258" x1="35.5269" y1="9.52142" x2="41.8839" y2="9.52142" gradientUnits="userSpaceOnUse">
<stop stop-color="#686868"/>
<stop offset="0.995" stop-color="#1E1E1E"/>
</linearGradient>
<linearGradient id="paint33_linear_2659_1258" x1="50.055" y1="5.89507" x2="46.8009" y2="12.7691" gradientUnits="userSpaceOnUse">
<stop stop-color="#F9F9F9"/>
<stop offset="1" stop-color="#D3D4D5"/>
</linearGradient>
<linearGradient id="paint34_linear_2659_1258" x1="48.3086" y1="2.34465" x2="43.5969" y2="11.0533" gradientUnits="userSpaceOnUse">
<stop stop-color="#F9F9F9"/>
<stop offset="1" stop-color="#D3D4D5"/>
</linearGradient>
<linearGradient id="paint35_linear_2659_1258" x1="52.4185" y1="9.74051" x2="43.8644" y2="7.17655" gradientUnits="userSpaceOnUse">
<stop stop-color="#767576"/>
<stop offset="1" stop-color="#2D2D2D"/>
</linearGradient>
<linearGradient id="paint36_linear_2659_1258" x1="41.1704" y1="13.9073" x2="42.9257" y2="15.6501" gradientUnits="userSpaceOnUse">
<stop stop-color="#767576"/>
<stop offset="1" stop-color="#2D2D2D"/>
</linearGradient>
<linearGradient id="paint37_linear_2659_1258" x1="39.28" y1="15.8105" x2="41.0171" y2="17.5353" gradientUnits="userSpaceOnUse">
<stop stop-color="#E13D3D"/>
<stop offset="0.995" stop-color="#F06162"/>
</linearGradient>
<linearGradient id="paint38_linear_2659_1258" x1="35.7598" y1="18.3361" x2="38.0975" y2="20.7478" gradientUnits="userSpaceOnUse">
<stop stop-color="#F9F9F9"/>
<stop offset="1" stop-color="#D3D4D5"/>
</linearGradient>
<linearGradient id="paint39_linear_2659_1258" x1="34.2357" y1="24.8519" x2="32.6171" y2="22.2871" gradientUnits="userSpaceOnUse">
<stop stop-color="#F9F9F9"/>
<stop offset="1" stop-color="#D3D4D5"/>
</linearGradient>
<linearGradient id="paint40_linear_2659_1258" x1="34.5924" y1="19.8678" x2="36.7658" y2="19.8678" gradientUnits="userSpaceOnUse">
<stop stop-color="#EA8B57"/>
<stop offset="1" stop-color="#FFC7A1"/>
</linearGradient>
<linearGradient id="paint41_linear_2659_1258" x1="21.2436" y1="13.8652" x2="26.0015" y2="22.4092" gradientUnits="userSpaceOnUse">
<stop stop-color="white"/>
<stop offset="0.987" stop-color="#DFDFE0"/>
</linearGradient>
<linearGradient id="paint42_linear_2659_1258" x1="24.7097" y1="22.7753" x2="20.664" y2="12.9811" gradientUnits="userSpaceOnUse">
<stop stop-color="white"/>
<stop offset="0.987" stop-color="#DFDFE0"/>
</linearGradient>
<linearGradient id="paint43_linear_2659_1258" x1="21.4832" y1="17.156" x2="22.8329" y2="17.156" gradientUnits="userSpaceOnUse">
<stop stop-color="#149648"/>
<stop offset="0.993" stop-color="#5ED91A"/>
</linearGradient>
</defs>
</svg>
