<svg width="20" height="20" viewBox="0 0 20 20" fill="none" xmlns="http://www.w3.org/2000/svg">
<path d="M13.3206 16.4857V17.8571C13.3206 18.2514 12.9973 18.5714 12.599 18.5714H2.16478C1.76718 18.5714 1.44319 18.2514 1.44319 17.8571V5.13571C1.44319 4.74214 1.76718 4.42143 2.16478 4.42143H3.63394V5.20786C3.63394 5.60214 3.95722 5.92214 4.35553 5.92214H10.4075C10.8059 5.92214 11.1291 5.60214 11.1291 5.20786V4.42143H12.599C12.9973 4.42143 13.3206 4.74214 13.3206 5.13571V6.38571C13.3206 6.78 13.6432 7.1 14.0422 7.1C14.4412 7.1 14.7638 6.78 14.7638 6.38571V5.13571C14.7638 3.95429 13.7925 2.99286 12.599 2.99286H11.1298V2.21214C11.1298 1.81786 10.8066 1.49786 10.4083 1.49786H9.49616C9.19526 0.627143 8.3611 0 7.38117 0C6.40125 0 5.56709 0.627143 5.26618 1.49786H4.35553C3.95722 1.49786 3.63394 1.81786 3.63394 2.21214V2.99286H2.16478C0.971264 2.99286 0 3.95429 0 5.13571V17.8571C0 19.0386 0.971264 20 2.16478 20H12.599C13.7925 20 14.7638 19.0386 14.7638 17.8571V16.4857C14.7638 16.0907 14.4412 15.7714 14.0422 15.7714C13.6432 15.7714 13.3206 16.0907 13.3206 16.4857ZM5.86799 2.92643C6.26631 2.92643 6.58959 2.60643 6.58959 2.21214C6.58959 1.78 6.94533 1.42857 7.38117 1.42857C7.81702 1.42857 8.17276 1.78 8.17276 2.21214C8.17276 2.60643 8.49603 2.92643 8.89435 2.92643H9.68594V4.49357H5.07713V2.92643H5.86799Z" fill="#066AC9"/>
<path d="M6.00984 13.723L4.68067 15.0387L4.1438 14.508C3.86166 14.2287 3.40489 14.2287 3.12347 14.508C2.84133 14.7873 2.84133 15.2387 3.12347 15.518L4.1705 16.5537C4.31121 16.693 4.49594 16.763 4.68067 16.763C4.8654 16.763 5.05013 16.693 5.19084 16.5537L7.03018 14.733C7.31232 14.4537 7.31232 14.0023 7.03018 13.723C6.74803 13.4437 6.29127 13.4437 6.00984 13.723ZM8.96405 13.6023L8.10535 16.5408C8.03031 16.7965 8.10535 17.0715 8.29946 17.2558C8.49429 17.4401 8.77715 17.5008 9.02971 17.4165L11.9435 16.4423C12.0489 16.4073 12.1441 16.348 12.2228 16.2708L14.0426 14.4694L19.3665 9.1994C20.2108 8.3644 20.2108 7.0044 19.3665 6.16868C18.523 5.33511 17.1505 5.33368 16.3055 6.16868L9.16248 13.2401C9.05713 13.343 8.99147 13.4694 8.96405 13.6023ZM18.3448 7.17868C18.6262 7.45725 18.6262 7.91011 18.3448 8.1894L17.901 8.62868L16.8806 7.61868L17.3244 7.1794C17.6066 6.90011 18.0633 6.90083 18.3448 7.17868ZM16.8806 9.63868L11.3208 15.1423L9.87542 15.6258L10.3163 14.1173L15.861 8.62868L16.8806 9.63868ZM6.52001 7.28083H3.63364C3.23532 7.28083 2.91205 7.60083 2.91205 7.99511V10.8523C2.91205 11.2473 3.23532 11.5665 3.63364 11.5665H6.52001C6.91833 11.5665 7.2416 11.2473 7.2416 10.8523V7.99511C7.2416 7.60083 6.91833 7.28083 6.52001 7.28083ZM5.79842 10.138H4.35523V8.7094H5.79842V10.138ZM10.9751 10.1358C11.3742 10.1358 11.6967 9.81583 11.6967 9.42154C11.6967 9.02725 11.3742 8.70725 10.9751 8.70725H8.47841C8.0801 8.70725 7.75682 9.02725 7.75682 9.42154C7.75682 9.81583 8.0801 10.1358 8.47841 10.1358H10.9751Z" fill="#066AC9"/>
</svg>
