<svg width="24" height="24" viewBox="0 0 24 24" fill="none" xmlns="http://www.w3.org/2000/svg">
<path d="M14.2329 12.9993L19.7414 7.4989C19.906 7.33424 19.9985 7.11091 19.9985 6.87804C19.9985 6.64517 19.906 6.42184 19.7414 6.25717C19.5767 6.09251 19.3534 6 19.1206 6C18.8877 6 18.6644 6.09251 18.4998 6.25717L13 11.7663L7.50024 6.25717C7.33559 6.09251 7.11228 6 6.87944 6C6.64659 6 6.42328 6.09251 6.25864 6.25717C6.09399 6.42184 6.00149 6.64517 6.00149 6.87804C6.00149 7.11091 6.09399 7.33424 6.25864 7.4989L11.7671 12.9993L6.25864 18.4996C6.17668 18.5809 6.11164 18.6776 6.06725 18.7842C6.02285 18.8907 6 19.005 6 19.1205C6 19.2359 6.02285 19.3502 6.06725 19.4568C6.11164 19.5633 6.17668 19.66 6.25864 19.7413C6.33992 19.8233 6.43663 19.8884 6.54318 19.9327C6.64972 19.9771 6.76401 20 6.87944 20C6.99486 20 7.10915 19.9771 7.2157 19.9327C7.32225 19.8884 7.41895 19.8233 7.50024 19.7413L13 14.2322L18.4998 19.7413C18.581 19.8233 18.6778 19.8884 18.7843 19.9327C18.8909 19.9771 19.0051 20 19.1206 20C19.236 20 19.3503 19.9771 19.4568 19.9327C19.5634 19.8884 19.6601 19.8233 19.7414 19.7413C19.8233 19.66 19.8884 19.5633 19.9328 19.4568C19.9771 19.3502 20 19.2359 20 19.1205C20 19.005 19.9771 18.8907 19.9328 18.7842C19.8884 18.6776 19.8233 18.5809 19.7414 18.4996L14.2329 12.9993Z" fill="#066AC9"/>
</svg>
