<svg width="16" height="20" viewBox="0 0 16 20" fill="none" xmlns="http://www.w3.org/2000/svg">
<path d="M14.8885 7.14395L14.5525 16.8939C14.5239 17.7289 14.1569 18.5204 13.5295 19.1003C12.9021 19.6802 12.0636 20.0029 11.192 20H4.80714C3.93613 20.003 3.09814 19.6807 2.47082 19.1015C1.84349 18.5222 1.47616 17.7316 1.44668 16.8971L1.11063 7.14395C1.10328 6.93037 1.18474 6.72273 1.33709 6.56672C1.48945 6.41071 1.70021 6.31911 1.92302 6.31206C2.14584 6.30501 2.36244 6.3831 2.5252 6.52914C2.68795 6.67518 2.78351 6.87721 2.79086 7.0908L3.12691 16.8431C3.14364 17.2595 3.32803 17.6534 3.64134 17.9422C3.95465 18.2309 4.3725 18.3921 4.80714 18.3918H11.192C11.6272 18.392 12.0456 18.2304 12.359 17.941C12.6724 17.6515 12.8564 17.2568 12.8722 16.8399L13.2083 7.0908C13.2156 6.87721 13.3112 6.67518 13.474 6.52914C13.6367 6.3831 13.8533 6.30501 14.0761 6.31206C14.2989 6.31911 14.5097 6.41071 14.6621 6.56672C14.8144 6.72273 14.8959 6.93037 14.8885 7.14395ZM16 3.89934C16 4.11292 15.9115 4.31776 15.7539 4.46878C15.5964 4.61981 15.3827 4.70465 15.1599 4.70465H0.840115C0.617303 4.70465 0.403616 4.61981 0.246064 4.46878C0.0885117 4.31776 0 4.11292 0 3.89934C0 3.68576 0.0885117 3.48092 0.246064 3.3299C0.403616 3.17887 0.617303 3.09402 0.840115 3.09402H3.44447C3.71066 3.09471 3.9676 3.00044 4.16528 2.82956C4.36296 2.65867 4.48724 2.4234 4.51394 2.16952C4.57594 1.57398 4.86701 1.0219 5.33044 0.620831C5.79388 0.219766 6.39648 -0.00154887 7.02085 8.16015e-06H8.97831C9.60268 -0.00154887 10.2053 0.219766 10.6687 0.620831C11.1322 1.0219 11.4232 1.57398 11.4852 2.16952C11.5119 2.4234 11.6362 2.65867 11.8339 2.82956C12.0316 3.00044 12.2885 3.09471 12.5547 3.09402H15.159C15.3819 3.09402 15.5955 3.17887 15.7531 3.3299C15.9106 3.48092 16 3.68576 16 3.89934ZM5.97238 3.09402H10.0285C9.91806 2.85222 9.84586 2.59601 9.81423 2.33381C9.79342 2.1353 9.69648 1.95127 9.5422 1.81737C9.38792 1.68347 9.18728 1.60922 8.97915 1.60903H7.02169C6.81356 1.60922 6.61292 1.68347 6.45864 1.81737C6.30436 1.95127 6.20742 2.1353 6.18661 2.33381C6.15471 2.59605 6.08307 2.85227 5.97238 3.09402ZM6.81838 15.2953V8.43809C6.81838 8.2245 6.72987 8.01967 6.57231 7.86864C6.41476 7.71762 6.20107 7.63277 5.97826 7.63277C5.75545 7.63277 5.54176 7.71762 5.38421 7.86864C5.22666 8.01967 5.13815 8.2245 5.13815 8.43809V15.2986C5.13815 15.5121 5.22666 15.717 5.38421 15.868C5.54176 16.019 5.75545 16.1039 5.97826 16.1039C6.20107 16.1039 6.41476 16.019 6.57231 15.868C6.72987 15.717 6.81838 15.5121 6.81838 15.2986V15.2953ZM10.8627 15.2953V8.43809C10.8627 8.2245 10.7742 8.01967 10.6166 7.86864C10.4591 7.71762 10.2454 7.63277 10.0226 7.63277C9.79977 7.63277 9.58608 7.71762 9.42853 7.86864C9.27097 8.01967 9.18246 8.2245 9.18246 8.43809V15.2986C9.18246 15.5121 9.27097 15.717 9.42853 15.868C9.58608 16.019 9.79977 16.1039 10.0226 16.1039C10.2454 16.1039 10.4591 16.019 10.6166 15.868C10.7742 15.717 10.8627 15.5121 10.8627 15.2986V15.2953Z" fill="#E33E3E"/>
</svg>
