<svg width="32" height="30" viewBox="0 0 32 30" fill="none" xmlns="http://www.w3.org/2000/svg">
<path d="M15.7492 29.4821L6.82446 9.82812H24.674L15.7492 29.4821Z" fill="#FFA400"/>
<path d="M15.7492 0.519531L6.82446 9.82933H24.674L15.7492 0.519531Z" fill="white"/>
<path d="M15.7492 0.519531L6.82446 9.82933H24.674L15.7492 0.519531Z" fill="#FFBD44"/>
<path d="M30.9738 9.31212L23.624 0.519531L24.674 9.82933L30.9738 9.31212Z" fill="#FFDE66"/>
<path d="M15.75 0.519531H23.6248L24.6747 9.82933L15.75 0.519531Z" fill="#FFA400"/>
<path d="M15.7492 0.519531L6.82446 9.82933L7.87443 0.519531H15.7492Z" fill="#FFA400"/>
<path d="M0.524902 9.31212L6.82473 9.82933L7.8747 0.519531L0.524902 9.31212Z" fill="white"/>
<path d="M2.625 9.31212L6.82488 9.82933L7.87485 0.519531L2.625 9.31212Z" fill="#FFBD44"/>
<path d="M15.7495 29.4818L6.82473 9.82776L0.524902 9.31055L15.7495 29.4818Z" fill="white"/>
<path d="M15.7496 29.4818L6.82488 9.82776L2.625 9.31055L15.7496 29.4818Z" fill="#FFBD44"/>
<path d="M15.75 29.4818L30.9746 9.31055L24.6748 9.82776L15.75 29.4818Z" fill="#FFDE66"/>
<path d="M15.7498 29.999C15.5429 29.999 15.355 29.879 15.271 29.6928L6.34625 10.0388C6.2738 9.87845 6.28745 9.69328 6.38405 9.54639C6.4817 9.39951 6.64654 9.31055 6.82504 9.31055H24.6745C24.853 9.31055 25.0179 9.39951 25.1155 9.54639C25.2121 9.69328 25.2258 9.87845 25.1533 10.0388L16.2286 29.6928C16.1446 29.879 15.9566 29.999 15.7498 29.999ZM7.63457 10.345L15.7498 28.2146L23.865 10.345H7.63457Z" fill="#FD7E3D"/>
<path d="M24.674 10.3448H6.82451C6.61556 10.3448 6.42552 10.2217 6.34257 10.0324C6.25962 9.8431 6.29847 9.62277 6.44337 9.47277L15.3681 0.162976C15.5655 -0.0439086 15.9341 -0.0439086 16.1314 0.162976L25.0562 9.47277C25.2011 9.62277 25.2399 9.8431 25.157 10.0324C25.073 10.2217 24.8829 10.3448 24.674 10.3448ZM8.04247 9.31037H23.456L15.7493 1.27084L8.04247 9.31037Z" fill="#FD7E3D"/>
<path d="M24.6732 10.3451C24.4087 10.3451 24.1819 10.1485 24.1525 9.88476L23.1025 0.574964C23.0773 0.347392 23.2064 0.130163 23.4206 0.0412026C23.6327 -0.0487922 23.8826 0.0122386 24.0296 0.189125L31.3794 8.98171C31.5033 9.13067 31.5338 9.33445 31.4582 9.51134C31.3826 9.68822 31.2125 9.81029 31.0182 9.8258L24.7184 10.343C24.7026 10.3451 24.689 10.3451 24.6732 10.3451ZM24.3415 2.18866L25.1405 9.27032L29.9315 8.87724L24.3415 2.18866Z" fill="#FD7E3D"/>
<path d="M24.6741 10.3442C24.5323 10.3442 24.3937 10.2884 24.2929 10.1818L15.3682 0.872018C15.2233 0.722027 15.1844 0.501695 15.2674 0.312396C15.3503 0.123096 15.5404 0 15.7493 0H23.6241C23.8918 0 24.1165 0.197575 24.1459 0.460318L25.1791 9.6284C25.2053 9.69047 25.219 9.7577 25.219 9.82701C25.219 10.1156 25.0227 10.3422 24.6846 10.3442C24.6814 10.3442 24.6783 10.3442 24.6741 10.3442ZM16.9673 1.03442L23.979 8.34882L23.1548 1.03442H16.9673Z" fill="#FD7E3D"/>
<path d="M6.82468 10.3442C6.75013 10.3442 6.67453 10.3287 6.60418 10.2966C6.39944 10.2035 6.27764 9.99148 6.30284 9.77012L7.35281 0.460318C7.38221 0.197575 7.60691 0 7.87465 0H15.7494C15.9584 0 16.1484 0.123096 16.2314 0.312396C16.3143 0.501695 16.2755 0.722027 16.1306 0.872018L7.20582 10.1818C7.10502 10.2884 6.96642 10.3442 6.82468 10.3442ZM8.34398 1.03442L7.51976 8.34882L14.5315 1.03442H8.34398Z" fill="#FD7E3D"/>
<path d="M6.82592 10.3449C6.81017 10.3449 6.79652 10.3449 6.78077 10.3428L0.480946 9.8256C0.286701 9.81008 0.116606 9.68905 0.0410082 9.51113C-0.0345897 9.33321 -0.00414063 9.12943 0.119756 8.98151L1.41647 7.42988C1.60126 7.20954 1.93201 7.17851 2.1546 7.35954C2.37929 7.54159 2.41079 7.86744 2.226 8.08777L1.56557 8.87807L6.35763 9.27115L7.15666 2.18949L3.95425 6.01996C3.76945 6.24132 3.43976 6.27132 3.21507 6.0903C2.99353 5.90721 2.96098 5.5824 3.14577 5.36103L7.46955 0.188921C7.6176 0.0130689 7.86539 -0.0489964 8.07853 0.0409984C8.29273 0.129959 8.42187 0.347187 8.39667 0.57476L7.3467 9.88456C7.3173 10.1483 7.09051 10.3449 6.82592 10.3449Z" fill="#FD7E3D"/>
<path d="M15.7491 29.9987C15.5885 29.9987 15.43 29.9252 15.3281 29.7897L0.103532 9.61849C-0.0193149 9.45505 -0.0340145 9.23575 0.0657327 9.05886C0.16653 8.88198 0.350275 8.77647 0.568669 8.79509L6.86849 9.3123C7.05854 9.32781 7.22548 9.44367 7.30318 9.61642L16.2279 29.2704C16.3371 29.5115 16.2458 29.7939 16.0148 29.9283C15.9318 29.9759 15.8405 29.9987 15.7491 29.9987ZM1.63964 9.92054L13.3174 25.3924L6.4716 10.3167L1.63964 9.92054Z" fill="#FD7E3D"/>
<path d="M15.7495 30.0002C15.6582 30.0002 15.5668 29.9775 15.4839 29.9299C15.2529 29.7965 15.1605 29.513 15.2707 29.272L24.1955 9.61798C24.2732 9.44523 24.4401 9.32938 24.6302 9.31386L30.93 8.79665C31.1473 8.7801 31.3332 8.88354 31.4329 9.06043C31.5327 9.23731 31.518 9.45661 31.3951 9.62005L16.1706 29.7913C16.0687 29.9268 15.9102 30.0002 15.7495 30.0002ZM25.0271 10.3193L18.1812 25.395L29.859 9.9221L25.0271 10.3193Z" fill="#FD7E3D"/>
</svg>
