<svg width="14" height="15" viewBox="0 0 14 15" fill="none" xmlns="http://www.w3.org/2000/svg">
<path d="M0.9375 13.125H1.875V14.0625C1.875 14.3111 1.97377 14.5496 2.14959 14.7254C2.3254 14.9012 2.56386 15 2.8125 15H12.1875C12.4361 15 12.6746 14.9012 12.8504 14.7254C13.0262 14.5496 13.125 14.3111 13.125 14.0625V2.8125C13.125 2.56386 13.0262 2.3254 12.8504 2.14959C12.6746 1.97377 12.4361 1.875 12.1875 1.875H11.25V0.9375C11.25 0.68886 11.1512 0.450403 10.9754 0.274587C10.7996 0.0987721 10.5611 0 10.3125 0L0.9375 0C0.68886 0 0.450403 0.0987721 0.274587 0.274587C0.098772 0.450403 0 0.68886 0 0.9375V12.1875C0 12.4361 0.098772 12.6746 0.274587 12.8504C0.450403 13.0262 0.68886 13.125 0.9375 13.125ZM10.3125 12.1875H0.9375V0.9375H10.3125V12.1875ZM12.1875 2.8125V14.0625H2.8125V13.125H10.3125C10.5611 13.125 10.7996 13.0262 10.9754 12.8504C11.1512 12.6746 11.25 12.4361 11.25 12.1875V2.8125H12.1875ZM3.75 3.28125C3.75 3.40557 3.79939 3.5248 3.88729 3.61271C3.9752 3.70061 4.09443 3.75 4.21875 3.75H8.90625C9.03057 3.75 9.1498 3.70061 9.23771 3.61271C9.32561 3.5248 9.375 3.40557 9.375 3.28125C9.375 3.15693 9.32561 3.0377 9.23771 2.94979C9.1498 2.86189 9.03057 2.8125 8.90625 2.8125H4.21875C4.09443 2.8125 3.9752 2.86189 3.88729 2.94979C3.79939 3.0377 3.75 3.15693 3.75 3.28125ZM2.34375 6.5625H8.90625C9.03057 6.5625 9.1498 6.51311 9.23771 6.42521C9.32561 6.3373 9.375 6.21807 9.375 6.09375C9.375 5.96943 9.32561 5.8502 9.23771 5.76229C9.1498 5.67439 9.03057 5.625 8.90625 5.625H2.34375C2.21943 5.625 2.1002 5.67439 2.01229 5.76229C1.92439 5.8502 1.875 5.96943 1.875 6.09375C1.875 6.21807 1.92439 6.3373 2.01229 6.42521C2.1002 6.51311 2.21943 6.5625 2.34375 6.5625ZM2.34375 8.4375H8.90625C9.03057 8.4375 9.1498 8.38811 9.23771 8.30021C9.32561 8.2123 9.375 8.09307 9.375 7.96875C9.375 7.84443 9.32561 7.7252 9.23771 7.63729C9.1498 7.54939 9.03057 7.5 8.90625 7.5H2.34375C2.21943 7.5 2.1002 7.54939 2.01229 7.63729C1.92439 7.7252 1.875 7.84443 1.875 7.96875C1.875 8.09307 1.92439 8.2123 2.01229 8.30021C2.1002 8.38811 2.21943 8.4375 2.34375 8.4375ZM2.34375 10.3125H8.90625C9.03057 10.3125 9.1498 10.2631 9.23771 10.1752C9.32561 10.0873 9.375 9.96807 9.375 9.84375C9.375 9.71943 9.32561 9.6002 9.23771 9.51229C9.1498 9.42439 9.03057 9.375 8.90625 9.375H2.34375C2.21943 9.375 2.1002 9.42439 2.01229 9.51229C1.92439 9.6002 1.875 9.71943 1.875 9.84375C1.875 9.96807 1.92439 10.0873 2.01229 10.1752C2.1002 10.2631 2.21943 10.3125 2.34375 10.3125Z" fill="#24292D"/>
</svg>
