<svg width="24" height="16" viewBox="0 0 24 16" fill="none" xmlns="http://www.w3.org/2000/svg">
<path fill-rule="evenodd" clip-rule="evenodd" d="M15.6286 2.9294H2.15656C1.56235 2.9294 1.02449 3.16148 0.635185 3.53676C0.240756 3.91698 0 4.43546 0 5.00826V13.6644C0 14.3063 0.27149 14.8939 0.712022 15.3136C1.14743 15.7383 1.75188 16 2.42292 16H19.076C19.6702 16 20.2081 15.7679 20.5974 15.3877C20.9867 15.0124 21.2326 14.4939 21.2326 13.9211V8.01543C19.7215 8.39565 18.0515 8.01543 16.8683 6.87478C16.5353 6.54888 16.2587 6.18841 16.0538 5.79832H1.49576V5.00826C1.49576 4.83049 1.56747 4.67248 1.69041 4.55891C1.80823 4.4404 1.97727 4.37127 2.15656 4.37127H15.5825C15.5159 3.89229 15.5313 3.40344 15.6286 2.9294ZM8.30351 11.2349H3.16056C3.0325 11.2349 2.92492 11.3337 2.92492 11.4571V12.3855C2.92492 12.5089 3.0325 12.6126 3.16056 12.6126H8.30351C8.43157 12.6126 8.53402 12.5089 8.53402 12.3855V11.4571C8.53402 11.3337 8.43157 11.2349 8.30351 11.2349ZM22.8513 1.10732C24.3829 2.58375 24.3829 4.97863 22.8513 6.46C21.3197 7.93642 18.8353 7.93642 17.3037 6.46C15.772 4.97863 15.772 2.58375 17.3037 1.10732C18.8353 -0.369107 21.3197 -0.369107 22.8513 1.10732ZM22.1393 5.07739L21.8063 5.40822L21.4785 5.73413V5.73906H21.4733L21.4631 5.74894L21.458 5.75388L21.4529 5.75881H21.4477L21.4426 5.76375L21.4375 5.76869H21.4324L21.4272 5.77363H21.4221L21.417 5.77857H21.4119H21.4068L21.4016 5.7835H21.3965H21.3914L21.3863 5.78844H21.3811H21.376H21.3658L21.3607 5.79338H21.3555H21.3504H21.3453H21.3402H21.335H21.3299H21.3248H21.3197H21.3146H21.3094L21.3043 5.78844H21.2992H21.2941H21.2889H21.2838V5.7835H21.2787H21.2736H21.2684L21.2633 5.77857H21.2582L21.2531 5.77363H21.248H21.2428V5.76869H21.2377L21.2326 5.76375H21.2275L21.2223 5.75881H21.2172V5.75388L21.2121 5.74894H21.207L21.2019 5.744L21.1967 5.73906L20.0903 4.70211L19.0197 5.76869L19.0146 5.77363H19.0094V5.77857L19.0043 5.7835H18.9992L18.9941 5.78844L18.989 5.79338H18.9838L18.9787 5.79832H18.9736L18.9685 5.80326L18.9633 5.80819H18.9582L18.9531 5.81313H18.948H18.9429L18.9377 5.81807H18.9326H18.9275L18.9224 5.82301H18.9172H18.9121H18.907H18.9019H18.8967L18.8916 5.82795H18.8865H18.8814H18.8763H18.8711H18.866H18.8609H18.8558L18.8506 5.82301H18.8455H18.8404H18.8353H18.8302L18.825 5.81807H18.8199H18.8148H18.8097L18.8045 5.81313H18.7994H18.7943V5.80819H18.7892L18.7841 5.80326H18.7789H18.7738L18.7687 5.79832H18.7636V5.79338L18.7584 5.78844H18.7533L18.7482 5.7835H18.7431V5.77857L18.738 5.77363H18.7328L18.0567 5.13664L18.0515 5.1317L18.0464 5.12676V5.12183H18.0413L18.0362 5.11689V5.11195L18.0311 5.10701H18.0259V5.10208L18.0208 5.09714V5.0922L18.0157 5.08726V5.08232L18.0106 5.07739V5.07245L18.0054 5.06751V5.06257V5.05763L18.0003 5.0527V5.04776V5.04282V5.03788L17.9952 5.03294V5.02801V5.02307V5.01813V5.01319V5.00826V5.00332V4.99838V4.99344V4.9885V4.98357V4.97863V4.97369V4.96875V4.96381V4.95888L18.0003 4.95394V4.949V4.94406V4.93912L18.0054 4.93419V4.92925V4.92431L18.0106 4.91937V4.91444H18.0157V4.9095V4.90456L18.0208 4.89962V4.89468L18.0259 4.88975V4.88481H18.0311L18.0362 4.87987V4.87493L18.0413 4.86999L18.0464 4.86506L18.0515 4.86012L19.1221 3.79847L18.0208 2.76152L18.0157 2.75658H18.0106V2.75164L18.0054 2.7467L18.0003 2.74176L17.9952 2.73683V2.73189L17.9901 2.72695V2.72201H17.985V2.71707L17.9798 2.71214V2.7072L17.9747 2.70226V2.69732V2.69238L17.9696 2.68745V2.68251L17.9645 2.67757V2.67263V2.6677V2.66276V2.65782L17.9593 2.65288V2.64794V2.64301V2.63807V2.63313V2.62819V2.62325V2.61832V2.61338V2.60844V2.6035V2.59856V2.59363L17.9645 2.58869V2.58375V2.57881V2.57388V2.56894L17.9696 2.564V2.55906V2.55412H17.9747V2.54919V2.54425L17.9798 2.53931V2.53437L17.985 2.52943V2.5245H17.9901V2.51956L17.9952 2.51462V2.50968L18.0003 2.50474V2.49981H18.0054L18.0106 2.49487V2.48993H18.0157V2.48499L18.6765 1.83319L18.6816 1.82332C18.6867 1.82332 18.6919 1.81838 18.697 1.81344C18.7072 1.8085 18.7123 1.80356 18.7175 1.79863H18.7226L18.7328 1.79369C18.7431 1.78875 18.7533 1.78381 18.7584 1.78381H18.7636L18.7687 1.77888H18.7738H18.7789C18.7841 1.77888 18.7892 1.77394 18.7943 1.77394C18.8097 1.77394 18.825 1.77394 18.8353 1.77394H18.8404H18.8455H18.8506L18.8558 1.77888H18.8609C18.866 1.77888 18.8711 1.77888 18.8763 1.77888L18.8814 1.78381H18.8865H18.8916V1.78875C18.9019 1.78875 18.907 1.79369 18.9121 1.79369L18.9172 1.79863H18.9224V1.80356H18.9275L18.9326 1.8085H18.9377L18.9429 1.81344H18.948V1.81838L18.9531 1.82332H18.9582L18.9633 1.82825L20.0493 2.8504L20.0647 2.86521L21.1353 1.79863L21.1404 1.79369H21.1455L21.1506 1.78875V1.78381H21.1558L21.1609 1.77888H21.166L21.1711 1.77394V1.769H21.1762L21.1814 1.76406H21.1865H21.1916L21.1967 1.75912L21.2019 1.75419H21.207H21.2121L21.2172 1.74925H21.2223H21.2275L21.2326 1.74431H21.2377H21.2428H21.248H21.2531L21.2582 1.73937H21.2633H21.2684H21.2736H21.2787H21.2838H21.2889H21.2941H21.2992H21.3043L21.3094 1.74431H21.3146H21.3197H21.3248H21.3299L21.335 1.74925H21.3402H21.3453L21.3504 1.75419H21.3555H21.3607L21.3658 1.75912H21.3709L21.376 1.76406H21.3811L21.3863 1.769H21.3914L21.3965 1.77394H21.4016V1.77888L21.4068 1.78381H21.4119L21.417 1.78875V1.79369H21.4221L22.1034 2.43068L22.1085 2.44055H22.1137V2.44549L22.1188 2.45043L22.1239 2.45537L22.129 2.4603V2.46524L22.1341 2.47018V2.47512L22.1393 2.48006L22.1444 2.48499V2.48993V2.49487L22.1495 2.49981V2.50474L22.1546 2.50968V2.51462V2.51956L22.1598 2.5245V2.52943V2.53437V2.53931V2.54425V2.54919V2.55412L22.1649 2.55906V2.564V2.56894V2.57388V2.57881V2.58375L22.1598 2.58869V2.59363V2.59856V2.6035V2.60844V2.61338L22.1546 2.61832V2.62325V2.62819V2.63313L22.1495 2.63807V2.64301V2.64794H22.1444V2.65288L22.1393 2.65782V2.66276L22.1341 2.6677V2.67263L22.129 2.67757L22.1239 2.68251V2.68745L22.1188 2.69238V2.69732H22.1137L22.1085 2.70226V2.7072L21.0328 3.76884L22.1393 4.8058C22.1393 4.8058 22.1444 4.81074 22.1495 4.81568V4.82062H22.1546V4.82555L22.1598 4.83049L22.1649 4.83543V4.84037H22.17V4.84531L22.1751 4.85024V4.85518L22.1802 4.86012V4.86506V4.86999L22.1854 4.87493V4.87987L22.1905 4.88481V4.88975V4.89468V4.89962L22.1956 4.90456V4.9095V4.91444V4.91937V4.92431V4.92925V4.93419V4.93912V4.94406V4.949V4.95394V4.96381V4.96875V4.97369V4.97863C22.1956 4.98357 22.1905 4.9885 22.1905 4.99344V4.99838V5.00332H22.1854V5.01319C22.1751 5.03788 22.1598 5.06257 22.1393 5.07739ZM18.6765 1.83319C18.6765 1.82825 18.6816 1.82825 18.6816 1.82332L18.6765 1.83319ZM1.49576 8.68698H19.7368V13.9211C19.7368 14.094 19.66 14.2569 19.5422 14.3705C19.4192 14.489 19.2553 14.5581 19.076 14.5581H2.42292C2.1668 14.5581 1.93629 14.4594 1.76725 14.2964C1.59821 14.1335 1.49576 13.9113 1.49576 13.6644V8.68698Z" fill="#24292D"/>
</svg>
