<svg width="20" height="18" viewBox="0 0 20 18" fill="none" xmlns="http://www.w3.org/2000/svg">
<path d="M15.3846 15.75C15.3846 15.5469 15.3085 15.3711 15.1562 15.2227C15.004 15.0742 14.8237 15 14.6154 15C14.4071 15 14.2268 15.0742 14.0745 15.2227C13.9223 15.3711 13.8462 15.5469 13.8462 15.75C13.8462 15.9531 13.9223 16.1289 14.0745 16.2773C14.2268 16.4258 14.4071 16.5 14.6154 16.5C14.8237 16.5 15.004 16.4258 15.1562 16.2773C15.3085 16.1289 15.3846 15.9531 15.3846 15.75ZM18.4615 15.75C18.4615 15.5469 18.3854 15.3711 18.2332 15.2227C18.0809 15.0742 17.9006 15 17.6923 15C17.484 15 17.3037 15.0742 17.1514 15.2227C16.9992 15.3711 16.9231 15.5469 16.9231 15.75C16.9231 15.9531 16.9992 16.1289 17.1514 16.2773C17.3037 16.4258 17.484 16.5 17.6923 16.5C17.9006 16.5 18.0809 16.4258 18.2332 16.2773C18.3854 16.1289 18.4615 15.9531 18.4615 15.75ZM20 13.125V16.875C20 17.1875 19.8878 17.4531 19.6635 17.6719C19.4391 17.8906 19.1667 18 18.8462 18H1.15385C0.833333 18 0.560897 17.8906 0.336538 17.6719C0.112179 17.4531 0 17.1875 0 16.875V13.125C0 12.8125 0.112179 12.5469 0.336538 12.3281C0.560897 12.1094 0.833333 12 1.15385 12H6.74279L8.36539 13.5938C8.83013 14.0312 9.375 14.25 10 14.25C10.625 14.25 11.1699 14.0312 11.6346 13.5938L13.2692 12H18.8462C19.1667 12 19.4391 12.1094 19.6635 12.3281C19.8878 12.5469 20 12.8125 20 13.125ZM16.0938 6.45703C16.23 6.77734 16.1739 7.05078 15.9255 7.27734L10.5409 12.5273C10.3966 12.6758 10.2163 12.75 10 12.75C9.78365 12.75 9.60337 12.6758 9.45914 12.5273L4.07452 7.27734C3.82612 7.05078 3.77003 6.77734 3.90625 6.45703C4.04247 6.15234 4.27885 6 4.61538 6H7.69231V0.75C7.69231 0.546875 7.76843 0.371094 7.92067 0.222656C8.07292 0.0742188 8.25321 0 8.46154 0H11.5385C11.7468 0 11.9271 0.0742188 12.0793 0.222656C12.2316 0.371094 12.3077 0.546875 12.3077 0.75V6H15.3846C15.7212 6 15.9575 6.15234 16.0938 6.45703Z" fill="#24292D"/>
</svg>
