<svg width="14" height="7" viewBox="0 0 14 7" fill="none" xmlns="http://www.w3.org/2000/svg">
<path d="M7.78692 6.72586L13.8519 0.837884C13.9467 0.745837 14 0.620995 14 0.49082C14 0.360646 13.9467 0.235804 13.8519 0.143757C13.7571 0.0517094 13.6285 0 13.4944 0C13.3603 0 13.2317 0.0517094 13.1369 0.143757L7.42892 5.68515L1.72092 0.143757C1.6261 0.0517094 1.49751 0 1.36342 0C1.22933 0 1.10073 0.0517094 1.00592 0.143757C0.911103 0.235804 0.857837 0.360646 0.857837 0.49082C0.857837 0.620995 0.911103 0.745837 1.00592 0.837884L7.07092 6.72586C7.11785 6.77165 7.17363 6.80799 7.23507 6.83279C7.2965 6.85758 7.36238 6.87035 7.42892 6.87035C7.49545 6.87035 7.56133 6.85758 7.62277 6.83279C7.68421 6.80799 7.73999 6.77165 7.78692 6.72586Z" fill="#747579"/>
</svg>
