<svg width="16" height="16" viewBox="0 0 16 16" fill="none" xmlns="http://www.w3.org/2000/svg">
<path d="M2.33817 16H12.3589C12.98 15.9982 13.575 15.7498 14.0133 15.3093C14.4517 14.8688 14.6976 14.2721 14.6971 13.6503V8.60914C14.6971 8.43174 14.6267 8.26162 14.5014 8.13618C14.3761 8.01075 14.2062 7.94028 14.029 7.94028C13.8518 7.94028 13.6819 8.01075 13.5566 8.13618C13.4313 8.26162 13.361 8.43174 13.361 8.60914V13.6503C13.3619 13.9175 13.2568 14.1741 13.069 14.3638C12.8811 14.5535 12.6257 14.6609 12.3589 14.6623H2.33817C2.07133 14.6609 1.81596 14.5535 1.62809 14.3638C1.44022 14.1741 1.33521 13.9175 1.3361 13.6503V3.63485C1.33521 3.36769 1.44022 3.11109 1.62809 2.92136C1.81596 2.73164 2.07133 2.62429 2.33817 2.62287H7.34853C7.52571 2.62287 7.69563 2.5524 7.82091 2.42697C7.9462 2.30153 8.01658 2.1314 8.01658 1.95401C8.01658 1.77662 7.9462 1.60649 7.82091 1.48106C7.69563 1.35562 7.52571 1.28516 7.34853 1.28516H2.33817C1.71709 1.28693 1.12208 1.53533 0.68372 1.97585C0.245362 2.41637 -0.000532495 3.01301 8.65863e-07 3.63485V13.6503C-0.000532495 14.2721 0.245362 14.8688 0.68372 15.3093C1.12208 15.7498 1.71709 15.9982 2.33817 16Z" fill="#747579"/>
<path d="M6.31544 6.99991L5.78835 9.41715C5.76449 9.5268 5.76857 9.64069 5.80021 9.74834C5.83185 9.85599 5.89003 9.95394 5.96939 10.0332C6.04985 10.1104 6.14772 10.1671 6.25471 10.1984C6.3617 10.2297 6.47465 10.2348 6.584 10.2131L8.99298 9.68403C9.11806 9.65653 9.23262 9.59361 9.323 9.50277L15.4116 3.40681C15.5977 3.22048 15.7454 2.99926 15.8461 2.75579C15.9469 2.51232 15.9987 2.25136 15.9987 1.98783C15.9987 1.72429 15.9469 1.46334 15.8461 1.21987C15.7454 0.9764 15.5977 0.755182 15.4116 0.568851C15.03 0.203746 14.5225 0 13.9947 0C13.4668 0 12.9593 0.203746 12.5777 0.568851L6.49849 6.67083C6.40725 6.7607 6.34371 6.87492 6.31544 6.99991ZM13.5223 1.51528C13.6494 1.39338 13.8187 1.32532 13.9947 1.32532C14.1707 1.32532 14.3399 1.39338 14.467 1.51528C14.5906 1.64145 14.6598 1.81111 14.6598 1.98783C14.6598 2.16455 14.5906 2.33421 14.467 2.46038L13.9947 2.93326L13.05 1.9875L13.5223 1.51528ZM7.57672 7.47747L12.1021 2.93527L13.0373 3.87635L8.50998 8.41989L7.31083 8.68342L7.57672 7.47747Z" fill="#747579"/>
</svg>
