<svg width="19" height="15" viewBox="0 0 19 15" fill="none" xmlns="http://www.w3.org/2000/svg">
<path fill-rule="evenodd" clip-rule="evenodd" d="M0.39425 4.13377C0.154036 4.24472 0 4.48527 0 4.74991C0 5.01456 0.154036 5.25511 0.39425 5.36606L9.21568 9.43748C9.39618 9.52061 9.60382 9.52061 9.78432 9.43748L18.6057 5.36606C18.846 5.25511 19 5.01456 19 4.74991C19 4.48527 18.846 4.24472 18.6057 4.13377L9.78432 0.0623438C9.60382 -0.0207813 9.39618 -0.0207813 9.21568 0.0623438L0.39425 4.13377ZM2.29798 4.74991L9.5 8.0739L16.702 4.74991L9.5 1.42593L2.29798 4.74991Z" fill="#24292D"/>
<path fill-rule="evenodd" clip-rule="evenodd" d="M9.49686 8.07678L13.9624 6.01562C14.1727 5.91858 14.4177 5.93538 14.6126 6.06023C14.8075 6.18492 14.9254 6.40037 14.9254 6.63176V10.7032C14.9254 10.9678 14.7715 11.2084 14.5313 11.3193L13.8526 11.6325C13.5126 11.7894 13.109 11.6408 12.9521 11.3007C12.7952 10.9607 12.9439 10.5571 13.2839 10.4002L13.5683 10.2691V7.69237L9.78131 9.4402C9.60082 9.52349 9.39291 9.52349 9.21241 9.4402L5.42539 7.69237V10.2691L9.49686 12.1482L10.5696 11.653C10.9096 11.4961 11.3132 11.6447 11.4701 11.9847C11.6271 12.3248 11.4783 12.7282 11.1384 12.8853L9.78131 13.5116C9.60082 13.5949 9.39291 13.5949 9.21241 13.5116L4.46243 11.3193C4.22219 11.2084 4.06836 10.9678 4.06836 10.7032V6.63176C4.06836 6.40037 4.1862 6.18492 4.38113 6.06023C4.57606 5.93538 4.82105 5.91858 5.03133 6.01562L9.49686 8.07678Z" fill="#24292D"/>
<path fill-rule="evenodd" clip-rule="evenodd" d="M3.0505 6.13807V13.2291C3.0505 13.6037 2.7465 13.9077 2.37193 13.9077C1.99736 13.9077 1.69336 13.6037 1.69336 13.2291V5.53007C1.69336 5.184 1.95393 4.89323 2.29797 4.85557L9.42297 4.0725C9.79516 4.03144 10.1304 4.3005 10.1714 4.67303C10.2125 5.04523 9.94343 5.38045 9.5709 5.4215L3.0505 6.13807Z" fill="#24292D"/>
<path d="M2.3757 14.2514C3.12523 14.2514 3.73284 13.6438 3.73284 12.8943C3.73284 12.1447 3.12523 11.5371 2.3757 11.5371C1.62617 11.5371 1.01855 12.1447 1.01855 12.8943C1.01855 13.6438 1.62617 14.2514 2.3757 14.2514Z" fill="#24292D"/>
</svg>
