<svg width="16" height="16" viewBox="0 0 16 16" fill="none" xmlns="http://www.w3.org/2000/svg">
<path d="M2.02667 16H13.9787C14.5152 15.9986 15.0294 15.7844 15.4083 15.4045C15.7872 15.0246 16 14.5099 16 13.9733V2.02667C15.9986 1.48959 15.7846 0.974921 15.4048 0.595152C15.0251 0.215383 14.5104 0.0014078 13.9733 0H2.02667C1.48959 0.0014078 0.974921 0.215383 0.595152 0.595152C0.215383 0.974921 0.0014078 1.48959 0 2.02667V13.9733C0.0014078 14.5104 0.215383 15.0251 0.595152 15.4048C0.974921 15.7846 1.48959 15.9986 2.02667 16ZM1.34933 2.02667C1.34933 1.84703 1.4207 1.67474 1.54772 1.54772C1.67474 1.4207 1.84703 1.34933 2.02667 1.34933H13.9733C14.153 1.34933 14.3253 1.4207 14.4523 1.54772C14.5793 1.67474 14.6507 1.84703 14.6507 2.02667V13.9733C14.6507 14.153 14.5793 14.3253 14.4523 14.4523C14.3253 14.5793 14.153 14.6507 13.9733 14.6507H2.02667C1.84703 14.6507 1.67474 14.5793 1.54772 14.4523C1.4207 14.3253 1.34933 14.153 1.34933 13.9733V2.02667Z" fill="#24292D"/>
<path d="M9.15743 12.0376H12.9601C13.1287 12.0226 13.2855 11.9451 13.3998 11.8202C13.514 11.6953 13.5774 11.5322 13.5774 11.363C13.5774 11.1937 13.514 11.0306 13.3998 10.9057C13.2855 10.7809 13.1287 10.7033 12.9601 10.6883H9.15743C9.06379 10.68 8.96944 10.6912 8.88039 10.7213C8.79133 10.7514 8.70952 10.7998 8.64016 10.8632C8.5708 10.9267 8.51541 11.0039 8.47752 11.0899C8.43962 11.176 8.42005 11.2689 8.42005 11.363C8.42005 11.457 8.43962 11.5499 8.47752 11.636C8.51541 11.722 8.5708 11.7992 8.64016 11.8627C8.70952 11.9261 8.79133 11.9745 8.88039 12.0046C8.96944 12.0347 9.06379 12.046 9.15743 12.0376ZM4.20276 7.23496C4.26587 7.29779 4.34075 7.34756 4.42312 7.38142C4.50548 7.41528 4.59371 7.43257 4.68277 7.43229C4.77109 7.43305 4.85867 7.41597 4.94023 7.38206C5.0218 7.34815 5.09567 7.29812 5.15743 7.23496L7.54143 4.85096C7.60377 4.78827 7.65314 4.71393 7.68674 4.63216C7.72034 4.55039 7.73751 4.46281 7.73726 4.37441C7.73702 4.28601 7.71936 4.19852 7.6853 4.11694C7.65124 4.03536 7.60145 3.96129 7.53876 3.89896C7.47608 3.83663 7.40173 3.78725 7.31996 3.75365C7.2382 3.72005 7.15061 3.70288 7.06221 3.70313C6.97381 3.70338 6.88632 3.72103 6.80475 3.75509C6.72317 3.78915 6.6491 3.83894 6.58676 3.90163L4.68277 5.80029L3.6161 4.73363C3.48944 4.6092 3.31898 4.53948 3.14143 4.53948C2.96388 4.53948 2.79343 4.6092 2.66677 4.73363C2.60372 4.7961 2.55367 4.87046 2.51951 4.95238C2.48536 5.03431 2.46777 5.1222 2.46777 5.21096C2.46777 5.29972 2.48536 5.38761 2.51951 5.46954C2.55367 5.55146 2.60372 5.62581 2.66677 5.68829L4.20276 7.23496ZM5.09343 8.99763C4.62509 8.99868 4.16757 9.13859 3.77875 9.39967C3.38992 9.66075 3.08724 10.0313 2.90899 10.4644C2.73074 10.8975 2.68491 11.3737 2.77732 11.8328C2.86972 12.292 3.0962 12.7134 3.42812 13.0438C3.76003 13.3742 4.18248 13.5988 4.64203 13.6892C5.10158 13.7795 5.5776 13.7315 6.00989 13.5513C6.44218 13.3711 6.81132 13.0668 7.07065 12.6768C7.32997 12.2868 7.46782 11.8286 7.46676 11.3603C7.46677 11.0491 7.4053 10.741 7.2859 10.4537C7.1665 10.1663 6.99151 9.90539 6.77099 9.68585C6.55046 9.46632 6.28875 9.29251 6.00086 9.1744C5.71298 9.0563 5.4046 8.99622 5.09343 8.99763ZM5.09343 12.379C4.89196 12.379 4.69501 12.3192 4.52749 12.2073C4.35997 12.0953 4.22941 11.9363 4.15231 11.7501C4.07521 11.564 4.05503 11.3592 4.09434 11.1616C4.13364 10.964 4.23066 10.7824 4.37313 10.64C4.51559 10.4975 4.6971 10.4005 4.8947 10.3612C5.0923 10.3219 5.29712 10.3421 5.48326 10.4192C5.6694 10.4963 5.82849 10.6268 5.94042 10.7944C6.05235 10.9619 6.1121 11.1588 6.1121 11.3603C6.1107 11.63 6.00292 11.8883 5.81219 12.079C5.62145 12.2698 5.36317 12.3776 5.09343 12.379ZM9.15743 6.24296H12.9601C13.1287 6.22796 13.2855 6.15038 13.3998 6.02552C13.514 5.90065 13.5774 5.73754 13.5774 5.56829C13.5774 5.39905 13.514 5.23593 13.3998 5.11107C13.2855 4.9862 13.1287 4.90863 12.9601 4.89363H9.15743C9.06379 4.88529 8.96944 4.89654 8.88039 4.92666C8.79133 4.95678 8.70952 5.00511 8.64016 5.06857C8.5708 5.13203 8.51541 5.20923 8.47752 5.29527C8.43962 5.3813 8.42005 5.47428 8.42005 5.56829C8.42005 5.6623 8.43962 5.75528 8.47752 5.84132C8.51541 5.92735 8.5708 6.00456 8.64016 6.06802C8.70952 6.13148 8.79133 6.17981 8.88039 6.20992C8.96944 6.24004 9.06379 6.25129 9.15743 6.24296Z" fill="#24292D"/>
</svg>
