<svg width="33" height="21" viewBox="0 0 33 21" fill="none" xmlns="http://www.w3.org/2000/svg">
<path d="M32.9999 0.0429688H0.0644531V20.9939H32.9999V0.0429688Z" fill="#FFDA44"/>
<path d="M32.9999 0.0429688H0.0644531V7.02866H32.9999V0.0429688Z" fill="#D80027"/>
<path d="M32.9999 14.0146H0.0644531V21.0003H32.9999V14.0146Z" fill="#D80027"/>
<path d="M32.936 0H0.000488281V20.9509H32.936V0Z" fill="#F0F0F0"/>
<path d="M18.5267 0H14.4098V8.51419H0.000488281V12.4429H14.4098V20.9571H18.5267V12.4429H32.936V8.51419H18.5267V0Z" fill="#D80027"/>
<path d="M25.332 14.125L32.9355 18.1519V14.125H25.332Z" fill="#0052B4"/>
<path d="M20.0508 14.125L32.9355 20.9572V19.0236L23.6917 14.125H20.0508Z" fill="#0052B4"/>
<path d="M29.5004 20.9576L20.0508 15.9424V20.9576H29.5004Z" fill="#0052B4"/>
<path d="M20.0508 14.125L32.9355 20.9572V19.0236L23.6917 14.125H20.0508Z" fill="#F0F0F0"/>
<path d="M20.0508 14.125L32.9355 20.9572V19.0236L23.6917 14.125H20.0508Z" fill="#D80027"/>
<path d="M5.80874 14.125L0 17.2004V14.125H5.80874Z" fill="#0052B4"/>
<path d="M12.8845 14.9907V20.9574H1.64014L12.8845 14.9907Z" fill="#0052B4"/>
<path d="M9.2438 14.125L0 19.0236V20.9572L12.8847 14.125H9.2438Z" fill="#D80027"/>
<path d="M7.60346 6.83208L0 2.80518V6.83208H7.60346Z" fill="#0052B4"/>
<path d="M12.8847 6.83223L0 0V1.93365L9.2438 6.83223H12.8847Z" fill="#0052B4"/>
<path d="M3.43506 0L12.8847 5.01521V0H3.43506Z" fill="#0052B4"/>
<path d="M12.8852 6.83223L0.000488281 0V1.93365L9.24429 6.83223H12.8852Z" fill="#F0F0F0"/>
<path d="M12.8852 6.83223L0.000488281 0V1.93365L9.24429 6.83223H12.8852Z" fill="#D80027"/>
<path d="M27.1265 6.83254L32.9352 3.75098V6.83254H27.1265Z" fill="#0052B4"/>
<path d="M20.0508 5.96669V0H31.2952L20.0508 5.96669Z" fill="#0052B4"/>
<path d="M23.6917 6.83223L32.9355 1.93365V0L20.0508 6.83223H23.6917Z" fill="#D80027"/>
</svg>
