<svg width="19" height="18" viewBox="0 0 19 18" fill="none" xmlns="http://www.w3.org/2000/svg">
<path d="M1 6C1.19778 6 1.39112 5.94135 1.55557 5.83147C1.72002 5.72159 1.84819 5.56541 1.92388 5.38268C1.99957 5.19996 2.01937 4.99889 1.98079 4.80491C1.9422 4.61093 1.84696 4.43275 1.70711 4.29289C1.56725 4.15304 1.38907 4.0578 1.19509 4.01921C1.00111 3.98063 0.800043 4.00043 0.617316 4.07612C0.43459 4.15181 0.278412 4.27998 0.16853 4.44443C0.0586491 4.60888 0 4.80222 0 5C0 5.26522 0.105357 5.51957 0.292893 5.70711C0.48043 5.89464 0.734784 6 1 6ZM5 6H12C12.7956 6 13.5587 5.68393 14.1213 5.12132C14.6839 4.55871 15 3.79565 15 3C15 2.20435 14.6839 1.44129 14.1213 0.87868C13.5587 0.316071 12.7956 0 12 0C11.4739 0.00217645 10.9573 0.139943 10.5 0.4C10.3854 0.46533 10.2849 0.552684 10.2042 0.657031C10.1235 0.761378 10.0643 0.880656 10.0299 1.008C9.99549 1.13534 9.98663 1.26822 10.0038 1.399C10.021 1.52978 10.0639 1.65587 10.13 1.77C10.1962 1.88375 10.2841 1.98333 10.3889 2.06302C10.4936 2.14271 10.613 2.20094 10.7403 2.23439C10.8675 2.26783 11.0002 2.27583 11.1305 2.25791C11.2609 2.24 11.3865 2.19653 11.5 2.13C11.6538 2.04722 11.8253 2.00264 12 2C12.2652 2 12.5196 2.10536 12.7071 2.29289C12.8946 2.48043 13 2.73478 13 3C13 3.26522 12.8946 3.51957 12.7071 3.70711C12.5196 3.89464 12.2652 4 12 4H5C4.73478 4 4.48043 4.10536 4.29289 4.29289C4.10536 4.48043 4 4.73478 4 5C4 5.26522 4.10536 5.51957 4.29289 5.70711C4.48043 5.89464 4.73478 6 5 6ZM1 10H8C8.26522 10 8.51957 9.89464 8.70711 9.70711C8.89464 9.51957 9 9.26522 9 9C9 8.73478 8.89464 8.48043 8.70711 8.29289C8.51957 8.10536 8.26522 8 8 8H1C0.734784 8 0.48043 8.10536 0.292893 8.29289C0.105357 8.48043 0 8.73478 0 9C0 9.26522 0.105357 9.51957 0.292893 9.70711C0.48043 9.89464 0.734784 10 1 10ZM18 6C18.1978 6 18.3911 5.94135 18.5556 5.83147C18.72 5.72159 18.8482 5.56541 18.9239 5.38268C18.9996 5.19996 19.0194 4.99889 18.9808 4.80491C18.9422 4.61093 18.847 4.43275 18.7071 4.29289C18.5673 4.15304 18.3891 4.0578 18.1951 4.01921C18.0011 3.98063 17.8 4.00043 17.6173 4.07612C17.4346 4.15181 17.2784 4.27998 17.1685 4.44443C17.0586 4.60888 17 4.80222 17 5C17 5.26522 17.1054 5.51957 17.2929 5.70711C17.4804 5.89464 17.7348 6 18 6ZM16 8H12C11.7348 8 11.4804 8.10536 11.2929 8.29289C11.1054 8.48043 11 8.73478 11 9C11 9.26522 11.1054 9.51957 11.2929 9.70711C11.4804 9.89464 11.7348 10 12 10H16C16.2652 10 16.5196 10.1054 16.7071 10.2929C16.8946 10.4804 17 10.7348 17 11C17 11.2652 16.8946 11.5196 16.7071 11.7071C16.5196 11.8946 16.2652 12 16 12C15.7348 12 15.4804 12.1054 15.2929 12.2929C15.1054 12.4804 15 12.7348 15 13C15 13.2652 15.1054 13.5196 15.2929 13.7071C15.4804 13.8946 15.7348 14 16 14C16.7956 14 17.5587 13.6839 18.1213 13.1213C18.6839 12.5587 19 11.7956 19 11C19 10.2044 18.6839 9.44129 18.1213 8.87868C17.5587 8.31607 16.7956 8 16 8ZM10 12H6C5.73478 12 5.48043 12.1054 5.29289 12.2929C5.10536 12.4804 5 12.7348 5 13C5 13.2652 5.10536 13.5196 5.29289 13.7071C5.48043 13.8946 5.73478 14 6 14H10C10.2652 14 10.5196 14.1054 10.7071 14.2929C10.8946 14.4804 11 14.7348 11 15C11 15.2652 10.8946 15.5196 10.7071 15.7071C10.5196 15.8946 10.2652 16 10 16C9.82532 15.9974 9.65384 15.9528 9.5 15.87C9.38618 15.7976 9.2589 15.7491 9.12582 15.7272C8.99274 15.7053 8.85661 15.7105 8.72561 15.7426C8.59462 15.7747 8.47147 15.833 8.36357 15.9139C8.25567 15.9948 8.16525 16.0967 8.09776 16.2135C8.03026 16.3302 7.98708 16.4594 7.97082 16.5933C7.95456 16.7272 7.96555 16.863 8.00312 16.9925C8.0407 17.1221 8.10409 17.2427 8.18948 17.347C8.27487 17.4514 8.3805 17.5375 8.5 17.6C8.9573 17.8601 9.47393 17.9978 10 18C10.7956 18 11.5587 17.6839 12.1213 17.1213C12.6839 16.5587 13 15.7956 13 15C13 14.2044 12.6839 13.4413 12.1213 12.8787C11.5587 12.3161 10.7956 12 10 12ZM2 12H1C0.734784 12 0.48043 12.1054 0.292893 12.2929C0.105357 12.4804 0 12.7348 0 13C0 13.2652 0.105357 13.5196 0.292893 13.7071C0.48043 13.8946 0.734784 14 1 14H2C2.26522 14 2.51957 13.8946 2.70711 13.7071C2.89464 13.5196 3 13.2652 3 13C3 12.7348 2.89464 12.4804 2.70711 12.2929C2.51957 12.1054 2.26522 12 2 12Z" fill="#24292D"/>
</svg>
