<svg width="17" height="36" viewBox="0 0 17 36" fill="none" xmlns="http://www.w3.org/2000/svg">
<path fill-rule="evenodd" clip-rule="evenodd" d="M12.0002 3.5C12.0002 5.433 10.4332 7 8.50024 7C6.56724 7 5.00024 5.433 5.00024 3.5C5.00024 1.567 6.56724 0 8.50024 0C10.4332 0 12.0002 1.567 12.0002 3.5ZM12.8667 9.046C12.7469 9.0158 12.6238 9.0005 12.5002 9.0005H7.00044C6.98714 9.0005 6.97354 9.0007 6.96034 9.001L6.43794 9.0009C5.62614 9.0008 4.74954 9.0008 4.49814 9.0012C4.37524 9.0014 4.25284 9.0166 4.13374 9.0467C3.01999 9.3273 2.27178 10.0056 1.80087 10.9324C1.38866 11.7436 1.18768 12.7524 1.02064 13.7546L0.0206426 19.7546C-0.115548 20.5718 0.436482 21.3446 1.25363 21.4808C2.07079 21.617 2.84363 21.065 2.97982 20.2478L3.97982 14.2478C4.07264 13.6907 4.15814 13.2663 4.24504 12.9388L4.50024 16.0002C4.50014 17.8697 2.80628 26.4085 2.20715 29.3703C2.09448 29.9273 2.46826 30.4634 3.03035 30.5471C7.15194 31.1615 9.84864 31.1418 13.9691 30.5426C14.5316 30.4608 14.9083 29.9272 14.7981 29.3696C14.2033 26.3609 12.5002 17.6064 12.5002 16L12.7554 12.9382C12.8423 13.2657 12.9278 13.6901 13.0206 14.2471L14.0206 20.2471C14.1568 21.0642 14.9296 21.6163 15.7468 21.4801C16.564 21.3439 17.116 20.5711 16.9798 19.7539L15.9798 13.7539C15.8128 12.7517 15.6118 11.7429 15.1996 10.9317C14.7287 10.0049 13.9804 9.3266 12.8667 9.046ZM5.00794 35.1241L4.63134 32.1115C5.69074 32.2418 6.69834 32.3256 7.69014 32.3637L6.97034 35.2426C6.85364 35.7097 6.42054 36.0273 5.93994 35.9982C5.45934 35.9692 5.06764 35.6018 5.00794 35.1241ZM10.0301 35.2421L9.31584 32.3853C10.3131 32.3733 11.3143 32.3149 12.3566 32.2111L11.9925 35.1236C11.9328 35.6014 11.5411 35.9687 11.0605 35.9977C10.5799 36.0268 10.1468 35.7092 10.0301 35.2421Z" fill="#066AC9"/>
</svg>
