<svg width="18" height="18" viewBox="0 0 18 18" fill="none" xmlns="http://www.w3.org/2000/svg">
<circle cx="9" cy="9" r="9" fill="#747579" fill-opacity="0.25"/>
<path d="M9.5 5C8.34637 5.00329 7.23807 5.44951 6.404 6.2465V5.45C6.404 5.33065 6.35659 5.21619 6.2722 5.1318C6.18781 5.04741 6.07335 5 5.954 5C5.83465 5 5.72019 5.04741 5.6358 5.1318C5.55141 5.21619 5.504 5.33065 5.504 5.45V7.475C5.504 7.59435 5.55141 7.70881 5.6358 7.7932C5.72019 7.87759 5.83465 7.925 5.954 7.925H7.979C8.09835 7.925 8.21281 7.87759 8.2972 7.7932C8.38159 7.70881 8.429 7.59435 8.429 7.475C8.429 7.35565 8.38159 7.24119 8.2972 7.1568C8.21281 7.07241 8.09835 7.025 7.979 7.025H6.899C7.4776 6.42036 8.24878 6.03619 9.07994 5.93855C9.9111 5.84091 10.7503 6.03589 11.4533 6.48997C12.1563 6.94405 12.6791 7.62886 12.9318 8.42665C13.1846 9.22445 13.1515 10.0854 12.8383 10.8614C12.525 11.6375 11.9512 12.2801 11.2155 12.6789C10.4797 13.0777 9.62802 13.2077 8.8068 13.0466C7.98558 12.8855 7.24616 12.4432 6.71567 11.796C6.18517 11.1487 5.89675 10.3369 5.9 9.5C5.9 9.38065 5.85259 9.26619 5.7682 9.1818C5.68381 9.09741 5.56935 9.05 5.45 9.05C5.33065 9.05 5.21619 9.09741 5.1318 9.1818C5.04741 9.26619 5 9.38065 5 9.5C5 10.39 5.26392 11.26 5.75839 12.0001C6.25285 12.7401 6.95566 13.3169 7.77792 13.6575C8.60019 13.998 9.50499 14.0872 10.3779 13.9135C11.2508 13.7399 12.0526 13.3113 12.682 12.682C13.3113 12.0526 13.7399 11.2508 13.9135 10.3779C14.0872 9.50499 13.998 8.60019 13.6575 7.77792C13.3169 6.95566 12.7401 6.25285 12.0001 5.75839C11.26 5.26392 10.39 5 9.5 5Z" fill="#747579"/>
</svg>
