<svg width="15" height="19" viewBox="0 0 15 19" fill="none" xmlns="http://www.w3.org/2000/svg">
<path d="M15 7.00242C14.9902 6.91951 14.9714 6.83783 14.9438 6.75875V6.67753C14.8987 6.58473 14.8385 6.49944 14.7656 6.42483L9.14062 1.01C9.06313 0.939802 8.97452 0.881922 8.87813 0.83853H8.79375C8.69851 0.785953 8.59333 0.752203 8.48438 0.739258H2.8125C2.06658 0.739258 1.35121 1.0245 0.823762 1.53224C0.296316 2.03998 0 2.72862 0 3.44668V16.0813C0 16.7993 0.296316 17.488 0.823762 17.9957C1.35121 18.5035 2.06658 18.7887 2.8125 18.7887H12.1875C12.9334 18.7887 13.6488 18.5035 14.1762 17.9957C14.7037 17.488 15 16.7993 15 16.0813V7.05657C15 7.05657 15 7.05656 15 7.00242ZM9.375 3.81669L11.8031 6.15409H10.3125C10.0639 6.15409 9.8254 6.05901 9.64959 5.88976C9.47377 5.72052 9.375 5.49097 9.375 5.25162V3.81669ZM13.125 16.0813C13.125 16.3206 13.0262 16.5502 12.8504 16.7194C12.6746 16.8887 12.4361 16.9838 12.1875 16.9838H2.8125C2.56386 16.9838 2.3254 16.8887 2.14959 16.7194C1.97377 16.5502 1.875 16.3206 1.875 16.0813V3.44668C1.875 3.20732 1.97377 2.97778 2.14959 2.80853C2.3254 2.63928 2.56386 2.5442 2.8125 2.5442H7.5V5.25162C7.5 5.96967 7.79632 6.65831 8.32376 7.16605C8.85121 7.67379 9.56658 7.95904 10.3125 7.95904H13.125V16.0813Z" fill="#747579"/>
<rect x="2.81152" y="3.6001" width="3.75" height="1.8" fill="#747579"/>
<rect x="2.81152" y="8.1001" width="9.375" height="1.8" fill="#747579"/>
<rect x="2.81152" y="11.7007" width="9.375" height="1.8" fill="#747579"/>
</svg>
