<svg width="18" height="18" viewBox="0 0 18 18" fill="none" xmlns="http://www.w3.org/2000/svg">
<circle cx="9" cy="9" r="9" fill="#747579" fill-opacity="0.25"/>
<path d="M9.70449 9.76349L12.8522 6.6118C12.9463 6.51745 12.9991 6.38948 12.9991 6.25604C12.9991 6.12261 12.9463 5.99464 12.8522 5.90029C12.7581 5.80594 12.6305 5.75293 12.4975 5.75293C12.3644 5.75293 12.2368 5.80594 12.1427 5.90029L9 9.05699L5.85728 5.90029C5.76319 5.80594 5.63559 5.75293 5.50253 5.75293C5.36948 5.75293 5.24188 5.80594 5.14779 5.90029C5.05371 5.99464 5.00085 6.12261 5.00085 6.25604C5.00085 6.38948 5.05371 6.51745 5.14779 6.6118L8.29551 9.76349L5.14779 12.9152C5.10096 12.9618 5.06379 13.0172 5.03843 13.0782C5.01306 13.1393 5 13.2048 5 13.2709C5 13.3371 5.01306 13.4026 5.03843 13.4636C5.06379 13.5247 5.10096 13.5801 5.14779 13.6267C5.19424 13.6737 5.2495 13.7109 5.31039 13.7364C5.37127 13.7618 5.43658 13.7749 5.50253 13.7749C5.56849 13.7749 5.6338 13.7618 5.69468 13.7364C5.75557 13.7109 5.81083 13.6737 5.85728 13.6267L9 10.47L12.1427 13.6267C12.1892 13.6737 12.2444 13.7109 12.3053 13.7364C12.3662 13.7618 12.4315 13.7749 12.4975 13.7749C12.5634 13.7749 12.6287 13.7618 12.6896 13.7364C12.7505 13.7109 12.8058 13.6737 12.8522 13.6267C12.899 13.5801 12.9362 13.5247 12.9616 13.4636C12.9869 13.4026 13 13.3371 13 13.2709C13 13.2048 12.9869 13.1393 12.9616 13.0782C12.9362 13.0172 12.899 12.9618 12.8522 12.9152L9.70449 9.76349Z" fill="#747579"/>
</svg>
