<svg width="60" height="48" viewBox="0 0 60 48" fill="none" xmlns="http://www.w3.org/2000/svg">
<path d="M12.8074 26.2809C12.8764 26.2809 12.9386 26.4096 12.9672 26.6702V27.3319C12.9386 27.5921 12.8764 27.7207 12.8057 27.7207C12.7351 27.7207 12.6743 27.5921 12.644 27.3319V26.6702C12.6743 26.4096 12.7349 26.2809 12.8074 26.2809ZM12.8074 23.4009C12.8764 23.4009 12.9386 23.5296 12.9672 23.7902V24.4519C12.9386 24.7121 12.8764 24.8407 12.8057 24.8407C12.7351 24.8407 12.6743 24.7121 12.644 24.4519V23.7902C12.6743 23.5296 12.7349 23.4009 12.8074 23.4009ZM12.8074 20.5209C12.8764 20.5209 12.9386 20.6496 12.9672 20.9102V21.5719C12.9386 21.8321 12.8764 21.9607 12.8057 21.9607C12.7351 21.9607 12.6743 21.8321 12.644 21.5719V20.9102C12.6743 20.6496 12.7349 20.5209 12.8074 20.5209ZM12.8074 17.6409C12.8764 17.6409 12.9386 17.7696 12.9672 18.0302V18.6919C12.9386 18.9521 12.8764 19.0807 12.8057 19.0807C12.7351 19.0807 12.6743 18.9521 12.644 18.6919V18.0302C12.6743 17.7696 12.7349 17.6409 12.8074 17.6409ZM12.8074 14.7609C12.8764 14.7609 12.9386 14.8896 12.9672 15.1502V15.8119C12.9386 16.0721 12.8764 16.2007 12.8057 16.2007C12.7351 16.2007 12.6743 16.0721 12.644 15.8119V15.1502C12.6743 14.8896 12.7349 14.7609 12.8074 14.7609ZM12.8074 11.8809C12.8764 11.8809 12.9386 12.0096 12.9672 12.2702V12.9319C12.9386 13.1921 12.8764 13.3207 12.8057 13.3207C12.7351 13.3207 12.6743 13.1921 12.644 12.9319V12.2702C12.6743 12.0096 12.7349 11.8809 12.8074 11.8809ZM12.8074 9.00095C12.8764 9.00095 12.9386 9.12959 12.9672 9.39023V10.0519C12.9386 10.3121 12.8764 10.4407 12.8057 10.4407C12.7351 10.4407 12.6743 10.3121 12.644 10.0519V9.39023C12.6743 9.12959 12.7349 9.00095 12.8074 9.00095ZM12.8074 6.12095C12.8764 6.12095 12.9386 6.24959 12.9672 6.51023V7.17191C12.9386 7.43207 12.8764 7.56071 12.8057 7.56071C12.7351 7.56071 12.6743 7.43207 12.644 7.17191V6.51023C12.6743 6.24959 12.7349 6.12095 12.8074 6.12095ZM12.8074 3.24096C12.8764 3.24096 12.9386 3.3696 12.9672 3.63024V4.29191C12.9386 4.55207 12.8764 4.68071 12.8057 4.68071C12.7351 4.68071 12.6743 4.55207 12.644 4.29191V3.63024C12.6743 3.3696 12.7349 3.24096 12.8074 3.24096ZM15.3254 2.87976C15.3254 2.94888 15.1964 3.01104 14.9357 3.0396H14.2734C14.013 3.0108 13.8842 2.94888 13.8842 2.87808C13.8842 2.80752 14.013 2.74704 14.2734 2.7168H14.9357C15.1964 2.74704 15.3254 2.80728 15.3254 2.87976ZM18.2084 2.87976C18.2084 2.94888 18.0793 3.01104 17.8187 3.0396H17.1563C16.8959 3.0108 16.7671 2.94888 16.7671 2.87808C16.7671 2.80752 16.8959 2.74704 17.1563 2.7168H17.8187C18.0793 2.74704 18.2084 2.80728 18.2084 2.87976ZM21.0913 2.87976C21.0913 2.94888 20.9623 3.01104 20.7016 3.0396H20.0393C19.7788 3.0108 19.6501 2.94888 19.6501 2.87808C19.6501 2.80752 19.7788 2.74704 20.0393 2.7168H20.7016C20.9623 2.74704 21.0913 2.80728 21.0913 2.87976ZM23.9742 2.87976C23.9742 2.94888 23.8452 3.01104 23.5845 3.0396H22.9222C22.6618 3.0108 22.533 2.94888 22.533 2.87808C22.533 2.80752 22.6618 2.74704 22.9222 2.7168H23.5845C23.8452 2.74704 23.9742 2.80728 23.9742 2.87976ZM26.8572 2.87976C26.8572 2.94888 26.7281 3.01104 26.4675 3.0396H25.8051C25.5447 3.0108 25.4159 2.94888 25.4159 2.87808C25.4159 2.80752 25.5447 2.74704 25.8051 2.7168H26.4675C26.7281 2.74704 26.8572 2.80728 26.8572 2.87976ZM29.7401 2.87976C29.7401 2.94888 29.6111 3.01104 29.3504 3.0396H28.6881C28.4276 3.0108 28.2989 2.94888 28.2989 2.87808C28.2989 2.80752 28.4276 2.74704 28.6881 2.7168H29.3504C29.6111 2.74704 29.7401 2.80728 29.7401 2.87976ZM32.623 2.87976C32.623 2.94888 32.494 3.01104 32.2334 3.0396H31.571C31.3106 3.0108 31.1818 2.94888 31.1818 2.87808C31.1818 2.80752 31.3106 2.74704 31.571 2.7168H32.2334C32.494 2.74704 32.623 2.80728 32.623 2.87976ZM35.506 2.87976C35.506 2.94888 35.377 3.01104 35.1163 3.0396H34.4539C34.1935 3.0108 34.0647 2.94888 34.0647 2.87808C34.0647 2.80752 34.1935 2.74704 34.4539 2.7168H35.1163C35.377 2.74704 35.506 2.80728 35.506 2.87976ZM38.3889 2.87976C38.3889 2.94888 38.2599 3.01104 37.9992 3.0396H37.3369C37.0764 3.0108 36.9477 2.94888 36.9477 2.87808C36.9477 2.80752 37.0764 2.74704 37.3369 2.7168H37.9992C38.2599 2.74704 38.3889 2.80728 38.3889 2.87976ZM41.2718 2.87976C41.2718 2.94888 41.1428 3.01104 40.8822 3.0396H40.2198C39.9594 3.0108 39.8306 2.94888 39.8306 2.87808C39.8306 2.80752 39.9594 2.74704 40.2198 2.7168H40.8822C41.1428 2.74704 41.2718 2.80728 41.2718 2.87976ZM44.1548 2.87976C44.1548 2.94888 44.0258 3.01104 43.7651 3.0396H43.1027C42.8423 3.0108 42.7136 2.94888 42.7136 2.87808C42.7136 2.80752 42.8423 2.74704 43.1027 2.7168H43.7651C44.0258 2.74704 44.1548 2.80728 44.1548 2.87976ZM47.0377 2.87976C47.0377 2.94888 46.9087 3.01104 46.648 3.0396H45.9857C45.7253 3.0108 45.5965 2.94888 45.5965 2.87808C45.5965 2.80752 45.7253 2.74704 45.9857 2.7168H46.648C46.9087 2.74704 47.0377 2.80728 47.0377 2.87976ZM49.272 3.5244C49.2033 3.5244 49.1408 3.39552 49.1122 3.13512V3.0396H48.8686C48.6082 3.0108 48.4794 2.94888 48.4794 2.87808C48.4794 2.80752 48.6082 2.74704 48.8686 2.7168H49.4356V3.13512C49.4051 3.39552 49.3445 3.5244 49.2722 3.5244H49.272ZM49.272 6.40439C49.2033 6.40439 49.1408 6.27551 49.1122 6.01511V5.35319C49.1411 5.09303 49.2033 4.96439 49.2739 4.96439C49.3445 4.96439 49.4051 5.09303 49.4356 5.35319V6.01511C49.4051 6.27551 49.3445 6.40439 49.2722 6.40439H49.272ZM49.272 9.28439C49.2033 9.28439 49.1408 9.15551 49.1122 8.89511V8.23319C49.1411 7.97303 49.2033 7.84439 49.2739 7.84439C49.3445 7.84439 49.4051 7.97303 49.4356 8.23319V8.89511C49.4051 9.15551 49.3445 9.28439 49.2722 9.28439H49.272ZM47.4545 10.3452C47.4545 10.2763 47.5836 10.2141 47.8442 10.1853H48.5068C48.7672 10.2141 48.896 10.2763 48.896 10.3469C48.896 10.4174 48.7672 10.4779 48.5068 10.5084H47.8442C47.5836 10.4779 47.4545 10.4174 47.4545 10.3452ZM45.3094 9.61151C45.3783 9.61151 45.4408 9.74039 45.4694 10.0008V10.1856H45.6239C45.8843 10.2142 46.0131 10.2763 46.0131 10.3469C46.0131 10.4174 45.8843 10.4779 45.6239 10.5084H45.146V10.0008C45.1765 9.74039 45.2371 9.61151 45.3094 9.61151ZM45.3094 6.73151C45.3783 6.73151 45.4408 6.86039 45.4694 7.12079V7.78271C45.4406 8.04287 45.3783 8.17151 45.3077 8.17151C45.2371 8.17151 45.1765 8.04287 45.146 7.78271V7.12079C45.1765 6.86039 45.2371 6.73151 45.3094 6.73151ZM47.1771 5.72087C47.1771 5.78975 47.0483 5.85215 46.7876 5.88071H46.125C45.8646 5.85191 45.7358 5.78975 45.7358 5.71919C45.7358 5.64863 45.8646 5.58815 46.125 5.55767H46.7876C47.0483 5.58815 47.1773 5.64863 47.1773 5.72087H47.1771Z" fill="#B3BFDF"/>
<path d="M50.06 5.71984C50.06 5.78872 49.9313 5.85112 49.6706 5.87968H49.008C48.7476 5.85088 48.6188 5.78872 48.6188 5.71816C48.6188 5.6476 48.7476 5.58712 49.008 5.55664H49.6706C49.9313 5.58712 50.0603 5.6476 50.0603 5.71984H50.06ZM52.943 5.71984C52.943 5.78872 52.8142 5.85112 52.5535 5.87968H51.8909C51.6305 5.85088 51.5017 5.78872 51.5017 5.71816C51.5017 5.6476 51.6305 5.58712 51.8909 5.55664H52.5535C52.8142 5.58712 52.9432 5.6476 52.9432 5.71984H52.943ZM55.8259 5.71984C55.8259 5.78872 55.6971 5.85112 55.4365 5.87968H54.7739C54.5134 5.85088 54.3847 5.78872 54.3847 5.71816C54.3847 5.6476 54.5134 5.58712 54.7739 5.55664H55.4365C55.6971 5.58712 55.8261 5.6476 55.8261 5.71984H55.8259ZM56.4842 7.93864C56.4155 7.93864 56.353 7.81 56.3244 7.54984V6.88792C56.3532 6.62776 56.4155 6.49888 56.4861 6.49888C56.5567 6.49888 56.6173 6.62776 56.6475 6.88768V7.5496C56.6173 7.81 56.5567 7.93864 56.4842 7.93864ZM56.4842 16.2813C56.4155 16.2813 56.353 16.1526 56.3244 15.8922V15.2303C56.3532 14.9702 56.4155 14.8415 56.4861 14.8415C56.5567 14.8415 56.6173 14.9702 56.6475 15.2303V15.8922C56.6173 16.1526 56.5567 16.2813 56.4842 16.2813ZM55.7401 18.4146C55.7401 18.3458 55.8691 18.2834 56.1298 18.2548H56.3244V18.1103C56.3532 17.8502 56.4155 17.7215 56.4861 17.7215C56.5567 17.7215 56.6173 17.8502 56.6475 18.1103V18.5776H56.1298C55.8691 18.5473 55.7401 18.4869 55.7401 18.4144V18.4146ZM52.8572 18.4146C52.8572 18.3458 52.9862 18.2834 53.2469 18.2548H53.9095C54.1699 18.2836 54.2987 18.3458 54.2987 18.4163C54.2987 18.4869 54.1699 18.5473 53.9095 18.5776H53.2469C52.9862 18.5473 52.8572 18.4869 52.8572 18.4144V18.4146ZM49.9743 18.4146C49.9743 18.3458 50.1033 18.2834 50.3639 18.2548H51.0265C51.287 18.2836 51.4157 18.3458 51.4157 18.4163C51.4157 18.4869 51.287 18.5473 51.0265 18.5776H50.3639C50.1033 18.5473 49.9743 18.4869 49.9743 18.4144V18.4146ZM47.1314 18.4578C47.1089 18.4578 47.087 18.4442 47.0668 18.4163L47.0584 18.4046L47.1331 18.3501C47.1898 18.3086 47.3056 18.274 47.481 18.2548H48.1436C48.404 18.2836 48.5328 18.3458 48.5328 18.4163C48.5328 18.4869 48.404 18.5473 48.1436 18.5776H47.481C47.3056 18.5572 47.1898 18.5234 47.1331 18.4811L47.198 18.4163C47.1776 18.4442 47.1552 18.4578 47.1314 18.4578ZM47.1314 21.3378C47.0625 21.3378 47.0003 21.2092 46.9717 20.9488V20.2869C47.0003 20.0267 47.0625 19.8981 47.1331 19.8981C47.2038 19.8981 47.2645 20.0267 47.2948 20.2869V20.9488C47.2645 21.2092 47.2038 21.3378 47.1314 21.3378ZM47.1314 24.2178C47.0625 24.2178 47.0003 24.0892 46.9717 23.8288V23.1669C47.0003 22.9067 47.0625 22.7781 47.1331 22.7781C47.2038 22.7781 47.2645 22.9067 47.2948 23.1669V23.8288C47.2645 24.0892 47.2038 24.2178 47.1314 24.2178ZM47.1314 27.0978C47.0625 27.0978 47.0003 26.9692 46.9717 26.7088V26.0469C47.0003 25.7867 47.0625 25.6581 47.1331 25.6581C47.2038 25.6581 47.2645 25.7867 47.2948 26.0469V26.7088C47.2645 26.9692 47.2038 27.0978 47.1314 27.0978ZM47.1314 29.9778C47.0625 29.9778 47.0003 29.8492 46.9717 29.5888V28.9269C47.0003 28.6667 47.0625 28.5381 47.1331 28.5381C47.2038 28.5381 47.2645 28.6667 47.2948 28.9269V29.5888C47.2645 29.8492 47.2038 29.9778 47.1314 29.9778ZM47.1314 32.8578C47.0625 32.8578 47.0003 32.7292 46.9717 32.4688V31.8069C47.0003 31.5467 47.0625 31.4181 47.1331 31.4181C47.2038 31.4181 47.2645 31.5467 47.2948 31.8069V32.4688C47.2645 32.7292 47.2038 32.8578 47.1314 32.8578Z" fill="#B3BFDF"/>
<path d="M58.1277 33.5804L51.349 33.7085C51.2553 33.7102 51.1664 33.6677 51.1088 33.5938L47.0342 28.3532C47.0012 28.3107 46.9803 28.26 46.9738 28.2066C46.9674 28.1532 46.9755 28.0991 46.9975 28.0499C47.0195 28.0008 47.0544 27.9586 47.0985 27.9277C47.1426 27.8969 47.1943 27.8786 47.248 27.8748L53.8425 27.4109C53.9422 27.4037 54.039 27.4474 54.0996 27.5271L58.3584 33.1037C58.3916 33.1473 58.4121 33.1993 58.4176 33.2538C58.4231 33.3084 58.4134 33.3634 58.3895 33.4127C58.3656 33.4621 58.3285 33.5039 58.2823 33.5335C58.2361 33.5631 58.1826 33.5793 58.1277 33.5804Z" fill="#3A4146"/>
<path d="M15.126 19.3771C15.1157 19.6723 17.8804 19.5041 18.1248 19.4858C18.144 19.4841 18.1952 19.4971 18.2749 19.523C19.2071 19.8218 24.0016 21.7814 25.636 20.7521C26.8257 20.0033 27.2666 18.636 27.4297 17.8154C27.4304 17.8135 27.4297 17.8121 27.4306 17.8101C27.5082 17.4093 27.52 17.1405 27.52 17.1405C27.4868 17.1033 27.4521 17.0673 27.4162 17.0325C27.356 16.9723 27.2928 16.9152 27.2267 16.8614C26.1071 15.9288 24.8149 16.4263 23.2922 16.7078C23.3138 16.7913 22.3987 18.2378 22.2764 18.2877C22.2764 18.2877 18.5361 17.6169 18.3744 17.4986C18.212 17.3791 17.8398 16.0769 17.2844 16.1906C17.133 16.2782 17.5141 17.3762 17.5141 17.3762C17.5141 17.3762 15.5188 16.1477 15.188 16.3941C14.8572 16.6406 16.8481 17.7189 16.8481 17.7189C16.8481 17.7189 14.8815 16.7949 14.5819 17.1067C14.2907 17.4091 16.6107 18.1953 16.7443 18.2409C16.6352 18.2177 14.6835 17.8044 14.5461 18.1531C14.4048 18.5109 16.3047 18.8381 16.3047 18.8381C16.3047 18.8381 15.138 19.0824 15.126 19.3771ZM24.2138 44.1892H25.8686V46.8813H24.2138V44.1892Z" fill="#FEC9AC"/>
<path d="M25.8687 44.5723V45.5241C25.3144 45.5571 24.7582 45.5183 24.2139 45.4089V44.5723H25.8687Z" fill="#FFAB90"/>
<path d="M26.5041 47.8717H21.2497C21.1243 47.8717 21.0099 47.8189 20.9268 47.732C20.8401 47.641 20.7918 47.52 20.792 47.3944C20.792 47.1949 20.9104 47.0168 21.0889 46.9456C21.642 46.7288 22.609 46.4881 22.8132 46.2743C23.0871 45.9894 23.5651 45.5118 23.9068 45.536C24.2486 45.5603 24.4531 46.1317 24.9773 46.4653C25.3492 46.7017 25.7509 46.1173 25.9512 45.7585C26.0192 45.6373 26.1896 45.6359 26.2535 45.7585C26.6785 46.5608 26.5041 47.8717 26.5041 47.8717Z" fill="#2E363A"/>
<path d="M30.2793 44.1895H31.9341V46.8815H30.2793V44.1895Z" fill="#FEC9AC"/>
<path d="M30.2793 44.0176V45.525C30.8323 45.5579 31.3892 45.5195 31.9341 45.4098V44.0178L30.2793 44.0176Z" fill="#FFAB90"/>
<path d="M29.6438 47.8717H34.8982C35.0236 47.8717 35.138 47.8189 35.2211 47.732C35.3042 47.6452 35.3559 47.5256 35.3559 47.3944C35.3559 47.1949 35.2375 47.0168 35.059 46.9456C34.5062 46.7288 33.5389 46.4881 33.3347 46.2743C33.0608 45.9894 32.5828 45.5118 32.2411 45.536C31.8993 45.5603 31.6948 46.1317 31.1706 46.4653C30.7987 46.7017 30.397 46.1173 30.1966 45.7585C30.1287 45.6373 29.9583 45.6359 29.8944 45.7585C29.4694 46.5608 29.6438 47.8717 29.6438 47.8717Z" fill="#2E363A"/>
<path d="M23.0928 44.728C23.0928 44.728 24.4053 44.8321 25.5157 44.7827C25.6706 44.7762 25.822 44.7659 25.9652 44.7527C26.3707 44.7124 26.7109 44.6447 26.8932 44.5302C27.601 44.0886 27.545 29.4957 27.545 29.4957C27.545 29.4957 29.2549 44.5081 29.5415 44.6589C29.646 44.7138 30.0604 44.6915 30.5687 44.6214C31.4615 44.4964 32.6449 44.2189 32.9421 43.9456C33.2561 43.6566 32.8782 33.6935 32.5981 27.2224C32.495 24.82 32.4037 22.8983 32.3675 22.1327C32.3569 21.8999 32.3504 21.7734 32.3504 21.7734L31.7443 21.7982L22.7471 22.173C22.6652 22.4166 22.6234 23.3085 22.6118 24.6078C22.5571 30.4943 23.0928 44.728 23.0928 44.728Z" fill="#3A4146"/>
<path d="M22.6118 24.6068C24.724 24.8298 26.8179 25.1999 28.8784 25.7146C29.9965 25.9945 31.116 26.3213 32.1106 26.9033C32.2773 27.001 32.4402 27.1066 32.5981 27.2211C32.495 24.8187 32.4037 22.897 32.3674 22.1314C32.2617 22.0702 32.156 22.0105 32.0493 21.9543C31.9489 21.901 31.8473 21.8487 31.7442 21.7969L22.7471 22.1718C22.6652 22.4154 22.6233 23.3074 22.6118 24.6068Z" fill="#2E363A"/>
<path d="M22.2294 18.304L21.8683 20.2936L21.3935 22.911C27.4511 23.7064 33.0495 22.2421 33.0495 22.2421L32.765 19.3093L32.6185 17.8153L32.6058 17.679C32.7792 17.6238 32.957 17.5002 33.1333 17.3269C34.1767 16.3072 35.1747 13.5973 35.1747 13.5973C35.1747 13.5973 34.6829 12.8773 33.7517 11.8693C33.427 11.518 33.0913 11.177 32.7451 10.8467C31.4728 9.6323 29.8706 8.80166 28.1319 8.52758C26.5086 8.2703 24.9021 8.4947 23.476 9.38246C23.2742 9.50726 23.0683 9.65798 22.8562 9.8255C21.5086 10.9007 20.0004 12.7638 18.9853 14.1143C18.2773 15.0604 17.8096 15.7547 17.8096 15.7547C19.4786 18.0683 21.5384 18.2884 22.0888 18.304C22.1796 18.3069 22.2294 18.304 22.2294 18.304Z" fill="#066AC9"/>
<path d="M22.2294 18.3027L21.8683 20.2923C22.0533 20.3391 22.2406 20.3734 22.4314 20.3902C23.0099 20.4442 23.6182 20.3321 24.0891 19.9911C24.5595 19.6503 24.8665 19.0597 24.7827 18.4844L23.0625 14.041C22.6133 14.6319 22.0559 15.2948 21.3311 15.4539C20.6358 15.6044 19.905 15.2607 19.4274 14.7365C19.2572 14.5459 19.1089 14.3369 18.9853 14.1133C18.2773 15.0589 17.8096 15.7534 17.8096 15.7534C19.4786 18.067 21.5384 18.2871 22.0888 18.3027C22.1796 18.3056 22.2294 18.3027 22.2294 18.3027Z" fill="#004F9A"/>
<path d="M21.3933 22.9095C27.4508 23.7051 33.0493 22.2408 33.0493 22.2408L32.7648 19.3081L32.6183 17.8141L32.6055 17.6777C32.779 17.6225 32.9568 17.4989 33.1331 17.3257L33.0649 17.2971C31.467 18.4347 29.3401 18.7971 27.4566 18.2487C25.5731 17.7005 23.7989 15.8573 23.0625 14.041C22.6387 15.3164 22.4297 17.0031 22.0886 18.3027C22.1794 18.3056 22.2291 18.3027 22.2291 18.3027L21.3931 22.9097L21.3933 22.9095Z" fill="#004F9A"/>
<path d="M32.2559 14.5562L32.3753 16.2007C32.4149 16.7431 32.4591 17.2999 32.6184 17.8154L32.6054 17.6791C33.811 17.2999 35.1744 13.5976 35.1744 13.5976C35.1744 13.5976 34.6826 12.8776 33.7514 11.8691C33.9277 12.5891 33.7953 13.3831 33.3802 13.9994C33.1287 14.3728 32.6809 14.7052 32.2559 14.5562Z" fill="#004F9A"/>
<path d="M21.3946 23.0311C21.377 23.0311 21.3596 23.0272 21.3436 23.0198C21.3277 23.0123 21.3136 23.0015 21.3023 22.988C21.291 22.9744 21.2828 22.9586 21.2784 22.9416C21.2739 22.9246 21.2732 22.9068 21.2764 22.8895L22.8298 14.5087C22.8327 14.4932 22.8386 14.4785 22.8471 14.4653C22.8557 14.4521 22.8668 14.4407 22.8798 14.4318C22.8928 14.4229 22.9074 14.4166 22.9228 14.4133C22.9382 14.41 22.9541 14.4098 22.9696 14.4127C22.9851 14.4156 22.9999 14.4215 23.0131 14.43C23.0263 14.4386 23.0377 14.4497 23.0466 14.4627C23.0556 14.4756 23.0618 14.4902 23.0651 14.5056C23.0684 14.521 23.0686 14.5369 23.0657 14.5524L21.5123 22.9329C21.5073 22.9605 21.4928 22.9855 21.4713 23.0035C21.4498 23.0215 21.4226 23.0311 21.3946 23.0311ZM33.0488 22.362C33.0191 22.3619 32.9905 22.3508 32.9685 22.3309C32.9465 22.3109 32.9327 22.2835 32.9297 22.254L32.1304 14.5111C32.1271 14.4795 32.1365 14.4478 32.1566 14.4231C32.1766 14.3984 32.2056 14.3827 32.2373 14.3794C32.3014 14.3738 32.3622 14.4204 32.3692 14.4866L33.1685 22.2295C33.1702 22.2462 33.1685 22.2632 33.1632 22.2792C33.158 22.2952 33.1495 22.3099 33.1382 22.3224C33.1269 22.3349 33.1131 22.3448 33.0977 22.3517C33.0824 22.3585 33.0657 22.362 33.0488 22.362Z" fill="#024789"/>
<path d="M25.3486 8.60243C25.5118 9.08483 26.1169 9.41603 26.5753 9.54203C27.0102 9.66131 27.471 9.67139 27.9072 9.55643C28.8901 9.29699 28.9146 8.68883 28.9146 8.68883C28.7486 8.63531 28.6676 8.21219 28.6299 7.75691C28.5818 7.18331 28.6003 6.55859 28.6003 6.55859H25.9903C25.9903 6.55859 25.9137 7.35107 25.8308 7.96139C25.8143 8.08371 25.7708 8.20085 25.7035 8.30435C25.6441 8.39651 25.5661 8.47715 25.4716 8.53811C25.4008 8.58371 25.3486 8.60243 25.3486 8.60243Z" fill="#FEC9AC"/>
<path opacity="0.5" d="M25.7031 8.30435C26.5952 8.62667 27.6481 8.52155 28.4035 7.94987C28.4828 7.88987 28.558 7.82555 28.6293 7.75691C28.5815 7.18331 28.6 6.55859 28.6 6.55859H25.99C25.99 6.55859 25.9133 7.35107 25.8305 7.96139C25.8139 8.08371 25.7704 8.20085 25.7031 8.30435Z" fill="#FFAB90"/>
<path d="M25.1911 9.36093C25.2178 9.33693 25.3076 9.39333 25.4741 9.50589C25.6411 9.61629 25.8897 9.78429 26.2532 9.93357C26.8584 10.2086 27.5604 10.2576 28.2006 10.0776C28.587 9.98636 28.8423 9.85844 28.9862 9.74108C29.1318 9.62588 29.1818 9.53421 29.2193 9.54813C29.2481 9.55461 29.2625 9.68277 29.1268 9.87261C28.9942 10.0622 28.6996 10.2614 28.2874 10.3886C27.5762 10.5885 26.7947 10.5343 26.1206 10.228C25.729 10.0334 25.4859 9.80997 25.346 9.64965C25.2067 9.48645 25.1656 9.38397 25.1911 9.36093ZM21.2648 17.2452C21.2513 17.3049 20.9248 17.3138 20.3357 17.0688C19.8504 16.8358 19.4049 16.5278 19.0156 16.1563C18.5788 15.6926 18.4719 15.3842 18.5245 15.3496C18.5877 15.3043 18.7912 15.5318 19.2386 15.9225C19.6035 16.271 20.0212 16.5597 20.4763 16.7781C21.0005 17.0587 21.2854 17.1684 21.2648 17.2452ZM32.9548 16.1172C32.9085 16.0596 33.0637 15.8784 33.3474 15.5167C33.605 15.2237 33.8195 14.8956 33.9845 14.5423C34.2015 14.1376 34.3053 13.9231 34.3785 13.9428C34.4417 13.9584 34.4564 14.2144 34.2771 14.6791C34.0993 15.06 33.8681 15.4137 33.5905 15.7296C33.2364 16.0807 32.9957 16.1702 32.9548 16.1172Z" fill="white"/>
<path d="M25.9648 44.7525C26.3704 44.7122 26.7106 44.6445 26.8929 44.53C27.6007 44.0884 27.5447 29.4955 27.5447 29.4955C27.5447 29.4955 29.2545 44.508 29.5411 44.6587C29.6456 44.7136 30.0601 44.6913 30.5684 44.6212C29.7773 39.4236 27.7739 27.5777 27.224 27.5645L25.9648 44.7525Z" fill="#2E363A"/>
<path d="M25.1146 5.67919C25.1848 6.17863 25.2864 6.70543 25.6278 7.07671C25.9307 7.40599 26.387 7.56295 26.8343 7.58383C27.0772 7.59559 27.3234 7.57063 27.5529 7.49023C28.0185 7.32799 28.3786 6.95815 28.7017 6.58759C28.8218 6.45079 28.94 6.31111 29.0515 6.16663C29.1668 6.01711 29.311 5.89399 29.4659 5.78551L29.4681 5.78383C29.5913 5.69743 29.6923 5.58175 29.7876 5.46631C29.864 5.37439 29.9414 5.27671 29.9608 5.16055C29.9789 5.05495 29.946 4.94527 29.8852 4.85863C29.8476 4.80737 29.8022 4.76233 29.7506 4.72519C29.8508 4.18519 29.7929 3.61399 29.5781 3.10759C29.2857 2.4268 28.7386 1.88707 28.0535 1.60351L25.5254 1.20703C25.5144 1.58479 25.3527 1.93807 25.2379 2.29711C24.8895 3.37999 24.9568 4.55167 25.1146 5.67919Z" fill="#FEC9AC"/>
<path d="M24.0919 2.41276C24.1931 2.64796 24.3202 2.87716 24.5085 3.05116C24.6971 3.22468 24.9542 3.33652 25.2086 3.30412C25.42 3.27628 25.6052 3.15508 25.8013 3.06892C25.9315 3.01084 26.1073 3.02908 26.2649 3.07972C26.4372 3.13684 26.6181 3.16564 26.7985 3.14932L26.9573 3.13588C26.9333 3.0214 26.7709 3.0166 26.6801 2.94196C27.3206 2.87428 27.9834 3.2734 28.2225 3.87147C28.3094 4.09107 28.5771 4.87827 28.5771 4.87827C28.5771 4.87827 28.842 4.69851 28.9576 4.65363C29.1114 4.59459 29.2867 4.55164 29.4501 4.59268C29.5782 4.62412 29.6968 4.7158 29.7331 4.843C29.7944 4.58596 29.9231 4.37812 30.0334 4.15516C30.1987 3.82036 30.2552 3.43972 30.2208 3.06796C30.2064 2.92015 30.1824 2.77344 30.149 2.62876C30.1002 2.41012 30.0353 2.19412 29.9702 1.97908C29.8708 1.6534 29.7684 1.32292 29.581 1.03828C29.3192 0.641078 28.7654 0.759638 28.3159 0.600038C27.8674 0.440438 27.5233 -0.00476148 27.0474 3.85123e-05C26.7413 0.00387851 26.4334 0.0278784 26.1407 0.118598C25.8491 0.209318 25.5738 0.372518 25.3873 0.615398C25.33 0.692719 25.2788 0.77441 25.2343 0.859718C25.1665 0.986918 25.1053 1.11964 25.0298 1.24276C24.8422 1.54754 24.5674 1.78914 24.2409 1.93636C24.1835 1.96204 24.1224 1.9858 24.0811 2.03476C23.9951 2.1358 24.0384 2.2906 24.0919 2.41276Z" fill="#3D1E1E"/>
<path opacity="0.5" d="M29.0696 5.59549C29.0677 5.62408 29.0765 5.65236 29.0944 5.67478C29.1122 5.6972 29.1378 5.71215 29.1661 5.71669C29.1935 5.71942 29.2212 5.71478 29.2462 5.70325C29.336 5.66797 29.4046 5.59357 29.4642 5.51701C29.5722 5.37853 29.6674 5.21821 29.6713 5.04229C29.6722 4.98709 29.6626 4.92781 29.6257 4.88653C29.5729 4.82845 29.4802 4.82461 29.4039 4.84573C29.2501 4.88653 29.1231 5.01373 29.0799 5.16661L29.0696 5.59549Z" fill="#FFAB90"/>
<path d="M25.439 1.9774C25.6293 2.09572 25.876 2.05468 26.093 1.99828C26.4317 1.91044 26.7748 1.79308 27.122 1.837C27.2942 1.85966 27.459 1.92101 27.604 2.01646C27.7491 2.1119 27.8706 2.23894 27.9594 2.38804C28.0027 2.46244 28.0378 2.54164 28.0894 2.61052C28.2158 2.7778 28.4289 2.86012 28.6372 2.87524C28.8467 2.89036 29.0542 2.84644 29.2589 2.80252C29.4598 2.76052 29.6594 2.71756 29.8595 2.6746C29.9559 2.65348 30.0505 2.63356 30.149 2.62876C30.1003 2.41012 30.0354 2.19412 29.9703 1.97908C29.8708 1.6534 29.7685 1.32292 29.5811 1.03828C29.3192 0.641078 28.7655 0.759638 28.316 0.600038C27.8674 0.440438 27.5234 -0.00476148 27.0475 3.85123e-05C26.7414 0.00387851 26.4334 0.0278784 26.1408 0.118598C25.8491 0.209318 25.5738 0.372518 25.3874 0.615398C25.3301 0.692719 25.2789 0.77441 25.2343 0.859718C25.2173 1.00132 25.1887 1.1434 25.1779 1.28572C25.158 1.54468 25.2183 1.84084 25.439 1.9774Z" fill="#582B2B"/>
<path d="M27.7795 4.2766C27.7896 4.2706 27.791 4.24828 27.775 4.21108C27.7482 4.15612 27.7076 4.10912 27.657 4.07476C27.5979 4.0375 27.5319 4.01267 27.4629 4.00182C27.3939 3.99096 27.3234 3.99431 27.2558 4.01164C27.1775 4.03684 27.1285 4.07548 27.1015 4.10524C27.0751 4.13572 27.0698 4.15756 27.0775 4.16668C27.0958 4.18828 27.1568 4.14604 27.2837 4.12276C27.3898 4.09516 27.5037 4.11316 27.596 4.17172C27.7101 4.23292 27.755 4.29172 27.7793 4.2766H27.7795ZM25.9705 3.91732C25.9856 3.90244 25.9515 3.82588 25.8143 3.75268C25.6947 3.70084 25.5638 3.68036 25.434 3.69316C25.2812 3.721 25.2252 3.7834 25.2356 3.80284C25.2469 3.82804 25.3153 3.81076 25.4453 3.80716C25.5549 3.79612 25.668 3.81388 25.7689 3.8578C25.8917 3.901 25.9515 3.9382 25.9702 3.91732H25.9705ZM26.5274 5.89828C26.5178 5.8894 26.4853 5.91508 26.425 5.95732C26.3903 5.98223 26.3512 6.00031 26.3097 6.0106C26.266 6.0202 26.2035 6.01204 26.1713 5.97628C26.1129 5.92372 26.1547 5.76556 26.1692 5.64244C26.1898 5.51356 26.2167 5.38564 26.2499 5.2594C26.3203 4.95964 26.365 4.81132 26.3395 4.80124C26.3186 4.7926 26.2321 4.92676 26.1391 5.23036C26.0877 5.42552 26.051 5.62423 26.0291 5.82484C26.026 5.86012 26.0241 5.89804 26.031 5.93908C26.0377 5.97988 26.0567 6.02452 26.0906 6.0574C26.1756 6.13132 26.2708 6.12316 26.3359 6.1018C26.4024 6.07732 26.4423 6.03892 26.4704 6.0082C26.5242 5.94484 26.5363 5.9062 26.5274 5.89828ZM26.6749 6.66628C26.6722 6.67708 26.6963 6.69724 26.7527 6.71524C26.8089 6.73252 26.8988 6.75028 27.0189 6.73684C27.22 6.70636 27.4124 6.61516 27.5547 6.46156C27.6339 6.36628 27.6608 6.26788 27.6575 6.20476C27.6544 6.14068 27.632 6.11428 27.6214 6.11692C27.5928 6.12028 27.6159 6.23668 27.4691 6.38548C27.3509 6.51388 27.1784 6.59788 27.0021 6.6238C26.7931 6.66196 26.6816 6.63676 26.6749 6.66628Z" fill="#4F2D2A"/>
<path d="M25.5654 4.93082C25.6379 4.93082 25.6966 4.8252 25.6966 4.6949C25.6966 4.56461 25.6379 4.45898 25.5654 4.45898C25.4929 4.45898 25.4341 4.56461 25.4341 4.6949C25.4341 4.8252 25.4929 4.93082 25.5654 4.93082Z" fill="#4F2D2A"/>
<path d="M27.2758 5.09098C27.3483 5.09098 27.4071 4.98535 27.4071 4.85506C27.4071 4.72476 27.3483 4.61914 27.2758 4.61914C27.2033 4.61914 27.1445 4.72476 27.1445 4.85506C27.1445 4.98535 27.2033 5.09098 27.2758 5.09098Z" fill="#4F2D2A"/>
<path d="M35.8356 40.1406C35.8356 40.1406 35.8668 40.4466 36.108 40.468C35.8666 40.4891 35.8356 40.7951 35.8356 40.7951C35.8356 40.7951 35.8044 40.4891 35.563 40.468C35.8044 40.4466 35.8356 40.1406 35.8356 40.1406Z" fill="#9ED16F"/>
<path d="M35.9257 32.3977H35.2739C35.3804 32.3247 35.5139 32.2812 35.659 32.2812H51.9873C52.8416 32.2812 53.5342 32.8944 53.5342 33.6509V34.5209C53.5342 35.2774 52.8416 35.8908 51.9873 35.8908L35.8416 35.886L35.9257 32.3977Z" fill="#71C687"/>
<path d="M52.1641 34.5212V33.6509C52.1641 32.8944 51.4715 32.2812 50.6172 32.2812H50.9679C51.8222 32.2812 52.5146 32.8944 52.5146 33.6509V34.5209C52.5146 35.2774 51.8222 35.8908 50.9679 35.8908H50.622C51.4739 35.8884 52.1641 35.2764 52.1641 34.5212ZM48.3399 34.5212V33.6509C48.3399 32.8944 47.6473 32.2812 46.793 32.2812H47.1437C47.998 32.2812 48.6904 32.8944 48.6904 33.6509V34.5209C48.6904 35.2774 47.998 35.8908 47.1437 35.8908H46.7978C47.6499 35.8884 48.3399 35.2764 48.3399 34.5212Z" fill="#7CD194"/>
<path d="M45.1955 32.2852C46.0123 32.2852 46.6747 32.8717 46.6747 33.5951V34.5784C46.6747 35.3017 46.0126 35.8883 45.1955 35.8883H35.0308V35.6684H35.0726L37.6569 35.4517L38.1792 33.6373C38.1792 33.6373 37.1711 32.6346 37.1053 32.6087C37.0394 32.5828 35.0728 32.5043 35.0728 32.5043L35.0308 32.504V32.2852H45.1955Z" fill="#61BA76"/>
<path d="M35.6899 34.079C35.6899 33.0182 35.0708 32.5039 35.0708 32.5039H44.9871C45.7377 32.5039 46.346 33.0425 46.346 33.707V34.4637C46.346 35.1285 45.7377 35.6671 44.9871 35.6671H35.0708C35.0708 35.6671 35.6899 35.4149 35.6899 34.079Z" fill="#E4ECF9"/>
<path d="M46.346 33.707V34.4637C46.346 34.5633 46.332 34.6598 46.3063 34.7525C45.9719 34.0277 45.3309 33.3297 44.1105 33.1053C41.2617 32.5814 35.0708 32.5039 35.0708 32.5039H44.9871C45.7377 32.5039 46.346 33.0425 46.346 33.707Z" fill="#D1DCF8"/>
<path d="M36.1943 39.6125H35.4565C35.582 39.5177 35.7351 39.4665 35.8923 39.4668H54.3729C55.3399 39.4668 56.1238 40.2346 56.1238 41.1814V42.2705C56.1238 43.2173 55.3399 43.985 54.3729 43.985L36.0992 43.9788L36.1943 39.6125Z" fill="#FE4C40"/>
<path d="M46.6862 39.4707C47.6109 39.4707 48.3605 40.2049 48.3605 41.1104V42.3411C48.3605 43.2466 47.6109 43.9808 46.6862 43.9808H35.1816V43.7055H35.2292L38.154 43.4343L38.745 41.1629C38.745 41.1629 37.604 39.9077 37.5296 39.8756C37.4551 39.8432 35.2292 39.745 35.2292 39.745L35.1816 39.7445V39.4707H46.6862Z" fill="#EA241F"/>
<path d="M35.9278 41.7177C35.9278 40.3898 35.2271 39.7461 35.2271 39.7461H46.4506C47.2998 39.7461 47.9884 40.4205 47.9884 41.2521V42.1996C47.9884 43.0312 47.2998 43.7056 46.4508 43.7056H35.2271C35.2271 43.7056 35.9278 43.3898 35.9278 41.7177Z" fill="#E4ECF9"/>
<path d="M47.9884 41.2521V42.1996C47.9884 42.3213 47.9734 42.4425 47.9437 42.5606C47.5651 41.6536 46.8395 40.78 45.4586 40.499C42.234 39.8433 35.2271 39.7461 35.2271 39.7461H46.4506C47.2998 39.7461 47.9884 40.4205 47.9884 41.2521Z" fill="#E4ECF9"/>
<path d="M56.7331 35.9985H57.4711C57.3388 35.9214 57.188 35.8814 57.0348 35.8828H38.5473C37.5798 35.8828 36.7959 36.492 36.7959 37.2434V38.1074C36.7959 38.8588 37.5798 39.468 38.5473 39.468L56.8282 39.4632L56.7331 35.9985Z" fill="#FCC230"/>
<path d="M46.2368 35.8848C45.3118 35.8848 44.562 36.4672 44.562 37.1856V38.1624C44.562 38.8809 45.3118 39.4632 46.2368 39.4632H57.7459V39.2448H57.6984L54.7726 39.0297L54.1812 37.2273C54.1812 37.2273 55.3226 36.2316 55.3968 36.2059C55.4713 36.1802 57.6984 36.1024 57.6984 36.1024L57.7459 36.102V35.8848H46.2368Z" fill="#FFD964"/>
<path d="M56.9994 37.6678C56.9994 36.6142 57.7004 36.1035 57.7004 36.1035H46.4726C45.6229 36.1035 44.9341 36.6387 44.9341 37.2987V38.0502C44.9341 38.7102 45.6229 39.2454 46.4726 39.2454H57.7004C57.7004 39.2454 56.9994 38.9946 56.9994 37.6678Z" fill="#E4ECF9"/>
<path d="M44.9341 37.2987V38.0504C44.9341 38.1493 44.9497 38.2453 44.979 38.337C45.3576 37.6174 46.0834 36.9241 47.4651 36.7011C50.6908 36.1808 57.7004 36.1035 57.7004 36.1035H46.4726C45.6229 36.1035 44.9341 36.6387 44.9341 37.2987Z" fill="#E4ECF9"/>
<path opacity="0.5" d="M40.1822 38.1074V37.2434C40.1822 36.4922 40.9664 35.8828 41.9336 35.8828H40.1781C39.2107 35.8828 38.4268 36.4919 38.4268 37.2434V38.1074C38.4268 38.8588 39.2107 39.4679 40.1781 39.4679L41.9103 39.4675C40.9539 39.4579 40.1822 38.8528 40.1822 38.1074Z" fill="#FFD964"/>
<path d="M57.9506 44.1233H58.8756C58.7242 44.0426 58.5351 43.9941 58.329 43.9941H35.1514C33.9389 43.9941 32.9556 44.6748 32.9556 45.5141V46.4796C32.9556 47.3191 33.9389 47.9997 35.1514 47.9997L58.0698 47.9942L57.9506 44.1233Z" fill="#42C1F4"/>
<path d="M44.7921 43.998C43.6325 43.998 42.6924 44.6489 42.6924 45.4517V46.5428C42.6924 47.3456 43.6325 47.9964 44.7921 47.9964H59.2207V47.7524H59.1612L55.4931 47.5119L54.7517 45.4983C54.7517 45.4983 56.1826 44.3856 56.2758 44.3571C56.3693 44.3283 59.1612 44.2412 59.1612 44.2412L59.2207 44.2407V43.998H44.7921Z" fill="#13B1E2"/>
<path d="M58.2852 45.9901C58.2852 44.8129 59.164 44.2422 59.164 44.2422H45.0879C44.0226 44.2422 43.1592 44.8398 43.1592 45.5773V46.4173C43.1592 47.1546 44.0226 47.7524 45.0879 47.7524H59.1638C59.1638 47.7524 58.2852 47.4726 58.2852 45.9901Z" fill="#E4ECF9"/>
<path d="M43.1592 45.5773V46.4173C43.1592 46.5277 43.1789 46.6347 43.2154 46.7375C43.6901 45.9335 44.6002 45.1587 46.3321 44.9099C50.3761 44.3283 59.164 44.2422 59.164 44.2422H45.0879C44.0226 44.2422 43.1592 44.8398 43.1592 45.5773Z" fill="#E4ECF9"/>
<path d="M24.5113 35.5831C24.5113 36.923 24.2369 38.2015 23.7418 39.3662C22.2558 42.8604 18.7812 45.3266 14.758 45.3266H11.9695C8.41006 45.3266 5.27967 43.3958 3.57658 40.531C2.68512 39.0343 2.21513 37.3247 2.21631 35.5831C2.21528 34.2832 2.47709 32.9964 2.98606 31.8C4.47173 28.3061 7.94639 25.8398 11.9695 25.8398H14.758C18.4167 25.8398 21.6216 27.8794 23.2896 30.8765C24.092 32.3156 24.5125 33.9358 24.5113 35.5831Z" fill="#FFAB90"/>
<path d="M23.2896 30.8765C23.521 32.0002 23.3389 33.6065 23.0429 34.457C21.0746 40.1124 16.4482 41.1334 11.7187 41.5634C8.35601 41.8692 3.57658 40.531 3.57658 40.531C2.68512 39.0343 2.21513 37.3247 2.21631 35.5831C2.21528 34.2832 2.47709 32.9964 2.98606 31.8C4.47173 28.3061 7.94639 25.8398 11.9695 25.8398H14.758C18.4167 25.8398 21.6216 27.8794 23.2896 30.8765Z" fill="#FEC9AC"/>
<path d="M10.8197 28.2794H6.98352C6.59672 28.2794 6.2832 28.0447 6.2832 27.7553V22.5228C6.2832 22.4337 6.31131 22.3524 6.35984 22.2818C6.54723 22.0099 7.04045 21.8978 7.40731 22.1054C8.86391 22.9301 11.25 24.7226 11.5186 27.7197C11.5458 28.0224 11.225 28.2794 10.8197 28.2794Z" fill="#FFAB90"/>
<path d="M7.13968 28.2808H6.98352C6.59672 28.2808 6.2832 28.0461 6.2832 27.7566V22.5242C6.2832 22.4351 6.31131 22.3538 6.35984 22.2832C6.37618 22.2974 6.39227 22.3127 6.40717 22.3295C7.24058 23.2559 8.44156 25.0768 8.1033 27.627C8.05405 27.9978 7.63746 28.2808 7.13968 28.2808Z" fill="#FEC9AC"/>
<path d="M7.42581 31.5594C7.42574 31.6343 7.41089 31.7085 7.3821 31.7777C7.35331 31.8469 7.31115 31.9098 7.25802 31.9627C7.2049 32.0156 7.14185 32.0575 7.07249 32.0861C7.00312 32.1147 6.92881 32.1293 6.85378 32.1291C6.77885 32.1292 6.70463 32.1144 6.63539 32.0858C6.56615 32.0572 6.50324 32.0152 6.45025 31.9622C6.39726 31.9093 6.35524 31.8465 6.32657 31.7773C6.29791 31.7081 6.28317 31.634 6.2832 31.5591C6.2832 31.4077 6.34341 31.2625 6.45057 31.1555C6.55773 31.0484 6.70307 30.9883 6.85462 30.9883C7.00618 30.9883 7.15152 31.0484 7.25868 31.1555C7.36584 31.2625 7.42605 31.4077 7.42605 31.5591L7.42581 31.5594Z" fill="#3A4146"/>
<path d="M16.4086 41.1888L15.4988 47.0904C15.4706 47.197 15.4673 47.3088 15.4891 47.4169C15.5109 47.5251 15.5573 47.6268 15.6247 47.7142C15.6921 47.8016 15.7787 47.8724 15.8777 47.9211C15.9768 47.9698 16.0858 47.9952 16.1962 47.9952H18.5871C18.8386 47.9952 19.0851 47.926 19.2998 47.7952C19.5144 47.6644 19.6889 47.4771 19.804 47.2538L23.5199 39.8493L16.4086 41.1888ZM11.0045 41.6076L11.6945 47.0901C11.7227 47.1968 11.7261 47.3086 11.7042 47.4167C11.6824 47.5249 11.636 47.6266 11.5686 47.714C11.5011 47.8015 11.4145 47.8722 11.3154 47.9209C11.2163 47.9696 11.1073 47.995 10.9969 47.9949H8.60618C8.35478 47.995 8.10824 47.9258 7.89358 47.7951C7.67893 47.6643 7.50447 47.4771 7.38934 47.2538L3.57666 40.5297C6.35629 41.1859 8.98769 41.6976 11.0045 41.6076ZM26.8347 38.2303C26.7795 38.2303 26.7247 38.2231 26.6702 38.2089C26.2464 38.0976 26.0037 37.5919 26.0371 36.8894C26.0698 36.2006 26.3583 35.4734 26.8287 34.8943C27.0359 34.6392 27.2771 34.4137 27.5456 34.224C27.409 33.9982 27.2299 33.801 27.0183 33.6432C26.6277 33.3504 26.2238 33.2664 25.7842 33.3854C24.6022 33.7061 23.6003 35.3937 23.5194 35.5833C23.501 35.6321 23.4643 35.6718 23.4171 35.6939C23.3698 35.716 23.3158 35.7188 23.2665 35.7017C23.2173 35.6845 23.1767 35.6489 23.1534 35.6022C23.1301 35.5556 23.126 35.5017 23.1419 35.4521C23.177 35.3469 23.4696 34.8432 23.8781 34.3442C24.5899 33.4745 25.21 33.1449 25.6047 33.0218C26.1904 32.8389 26.7468 32.9407 27.2583 33.3238C27.509 33.5109 27.7215 33.7441 27.8846 34.0109C28.2901 33.7853 28.7471 33.6283 29.2439 33.5469C29.2698 33.5427 29.2963 33.5436 29.3219 33.5495C29.3474 33.5555 29.3716 33.5665 29.3929 33.5818C29.4142 33.597 29.4323 33.6164 29.4462 33.6387C29.46 33.6609 29.4693 33.6857 29.4736 33.7116C29.4779 33.7375 29.477 33.7639 29.471 33.7895C29.465 33.815 29.4541 33.8391 29.4388 33.8604C29.4235 33.8817 29.4041 33.8998 29.3818 33.9136C29.3595 33.9275 29.3347 33.9368 29.3088 33.941C28.8528 34.0157 28.4348 34.1599 28.0658 34.3675C28.1792 34.6406 28.2512 34.9416 28.2793 35.2666C28.3375 35.9352 28.2029 36.665 27.9106 37.2691C27.6127 37.8845 27.2206 38.2303 26.8347 38.2303ZM27.7229 34.5893C27.5056 34.7495 27.3094 34.9366 27.1391 35.1461C26.7211 35.6604 26.4653 36.3029 26.4364 36.9081C26.4136 37.3889 26.5517 37.7649 26.772 37.8225C26.9948 37.8811 27.315 37.5821 27.5507 37.0953C27.8089 36.5621 27.9322 35.8913 27.881 35.3011C27.8611 35.0577 27.8079 34.8182 27.7229 34.5893Z" fill="#FFAB90"/>
<path d="M23.5461 25.5088C27.1297 25.5088 30.0347 22.6067 30.0347 19.0268C30.0347 15.447 27.1297 12.5449 23.5461 12.5449C19.9626 12.5449 17.0576 15.447 17.0576 19.0268C17.0576 22.6067 19.9626 25.5088 23.5461 25.5088Z" fill="#FFCF3D"/>
<path d="M29.2869 20.566C29.2125 20.8612 29.1212 21.1516 29.0058 21.4348C28.1241 21.1084 27.4106 20.6596 27.4803 20.4556C27.4971 20.4028 27.5596 20.3668 27.6461 20.3476C27.9848 20.2684 28.7488 20.4028 29.2869 20.566Z" fill="#FFCF3D"/>
<path d="M26.8861 22.3635C25.0706 24.1772 22.1305 24.2019 20.2852 22.4427L20.2064 22.3635C18.3661 20.5251 18.3661 17.5287 20.2064 15.6906C21.6767 14.2218 23.8869 13.9261 25.6527 14.8083C26.1098 15.0324 26.5265 15.3305 26.8861 15.6906C28.7264 17.529 28.7264 20.5254 26.8861 22.3635Z" fill="#FCC230"/>
<path d="M24.9731 20.6227C24.8563 20.7984 24.6906 20.9383 24.4758 21.0427C24.261 21.1468 24.0124 21.2071 23.7301 21.2234V21.6588C23.7308 21.6831 23.7266 21.7073 23.7176 21.73C23.7086 21.7526 23.695 21.7731 23.6777 21.7903C23.6433 21.8251 23.5967 21.8426 23.5398 21.8426C23.4912 21.8442 23.4439 21.8266 23.4081 21.7936C23.3731 21.7608 23.3563 21.7159 23.3563 21.6588V21.2234C22.9137 21.1946 22.5007 21.0988 22.1166 20.9354C22.0666 20.9144 22.0239 20.8792 21.9938 20.8341C21.962 20.7905 21.9446 20.7379 21.9443 20.6839C21.9443 20.6143 21.9679 20.5543 22.0147 20.5032C22.0616 20.452 22.1226 20.4264 22.1961 20.4264C22.237 20.4264 22.2754 20.4345 22.3124 20.4511C22.6418 20.5976 22.996 20.6808 23.3563 20.6964V19.2861C23.0776 19.2124 22.8438 19.133 22.6531 19.0471C22.4678 18.9649 22.3047 18.8399 22.1774 18.6823C22.0508 18.5251 21.9873 18.3259 21.9873 18.0847C21.9873 17.8723 22.0397 17.676 22.1435 17.4962C22.2485 17.3162 22.4032 17.1672 22.6101 17.0486C22.8167 16.93 23.0656 16.8585 23.3563 16.834V16.4047C23.3563 16.3519 23.3731 16.3068 23.4081 16.27C23.443 16.2331 23.4869 16.2148 23.5398 16.2148C23.5927 16.2148 23.6378 16.2331 23.6748 16.27C23.7118 16.3068 23.7301 16.3516 23.7301 16.4047V16.8278C24.1313 16.8444 24.4868 16.9118 24.798 17.0301C24.9123 17.0709 24.9697 17.1528 24.9697 17.2754C24.9697 17.3409 24.9472 17.4002 24.9025 17.453C24.8809 17.4789 24.8536 17.4996 24.8228 17.5134C24.792 17.5272 24.7584 17.5338 24.7247 17.5327C24.6906 17.5306 24.6572 17.5223 24.6262 17.5082C24.3375 17.4082 24.0354 17.3525 23.7301 17.3428V18.802C24.0249 18.8714 24.2689 18.947 24.4638 19.0286C24.6542 19.1077 24.8217 19.2331 24.9512 19.3934C25.0822 19.5552 25.148 19.7685 25.148 20.0342C25.15 20.2434 25.0891 20.4485 24.9731 20.6227ZM22.7513 18.4584C22.8887 18.5568 23.0901 18.6408 23.3563 18.7099V17.3611C23.1105 17.394 22.9137 17.4684 22.7669 17.585C22.6194 17.7014 22.5459 17.8538 22.5459 18.0417C22.5459 18.2217 22.6139 18.3604 22.7513 18.4584ZM24.5957 19.9972C24.5957 19.8379 24.5226 19.7145 24.378 19.6264C24.2322 19.5386 24.0164 19.4558 23.7301 19.3783V20.6964C24.3069 20.6556 24.5957 20.4223 24.5957 19.9972Z" fill="#262626"/>
<path d="M26.8866 22.3638C25.0711 24.1775 22.131 24.2022 20.2856 22.443C20.3548 22.4478 20.4238 22.443 20.4879 22.443C20.9333 22.4284 21.3778 22.3938 21.8201 22.3393C22.3374 22.2794 22.8512 22.1922 23.3593 22.0779C24.1733 21.8955 25.0021 21.6344 25.6188 21.0776C26.5659 20.23 26.8472 18.8303 26.65 17.5736C26.4969 16.6026 26.1022 15.6908 25.6534 14.8086C26.1104 15.0327 26.5271 15.3308 26.8866 15.6908C28.7269 17.5292 28.7269 20.5256 26.8866 22.3638Z" fill="#F4AD0F"/>
<path d="M36.9669 18.5452C36.9068 18.73 36.8201 18.922 36.7047 19.1164C35.9432 20.4076 33.4831 21.3748 31.7653 21.694C31.2416 21.7924 30.7875 21.8308 30.4728 21.7972C29.9995 21.7516 29.4782 21.61 29.0073 21.4348C28.1256 21.1084 27.4121 20.6596 27.4818 20.4556C27.4986 20.4028 27.561 20.3668 27.6475 20.3476C27.9863 20.2684 28.7502 20.4028 29.2884 20.566C29.4373 20.6116 29.5671 20.6572 29.668 20.7028C29.7593 20.7436 29.8001 20.7532 29.8025 20.7436C29.8049 20.7412 29.8049 20.7412 29.8049 20.7388C29.8422 20.6016 29.8748 20.4632 29.9027 20.3238C30.245 20.4556 30.5134 20.4162 30.7587 20.3236C30.7587 20.3236 33.5792 18.8908 33.5479 18.5668C33.5479 18.562 33.5479 18.5572 33.5455 18.55C33.4134 18.2908 32.9858 17.5948 32.9233 17.5396C33.7786 16.8868 34.3071 15.562 34.9726 14.2012C34.9726 14.2012 37.4353 17.1244 36.9669 18.5452Z" fill="#FEC9AC"/>
<path d="M27.4801 20.4557C27.3732 20.7674 29.1161 21.6621 30.4699 21.798C30.7861 21.8292 31.2404 21.7925 31.7636 21.6948C30.7726 21.6444 29.7945 21.4481 28.861 21.1121C28.4077 20.9469 27.9332 20.7189 27.6468 20.3477C27.5584 20.3673 27.4979 20.4026 27.4801 20.4557ZM18.9106 28.9454C18.9106 29.0716 18.8594 29.1837 18.777 29.266C18.6946 29.3469 18.5809 29.398 18.456 29.398H12.9357C12.846 29.3983 12.7583 29.3719 12.6837 29.3223C12.6091 29.2726 12.5509 29.202 12.5165 29.1193C12.4822 29.0366 12.4731 28.9456 12.4906 28.8577C12.5081 28.7699 12.5513 28.6892 12.6147 28.626C12.6568 28.5837 12.7068 28.5502 12.7619 28.5273C12.8169 28.5044 12.876 28.4926 12.9357 28.4925H18.456C18.7073 28.4925 18.9106 28.6956 18.9106 28.9454Z" fill="#FFAB90"/>
<path d="M54.3319 34.8975C52.5493 33.2228 50.4582 32.2575 48.124 31.8488L49.381 29.365C49.4184 29.2899 49.4767 29.2272 49.5489 29.1844C49.6211 29.1415 49.7041 29.1203 49.788 29.1233C52.1851 29.2292 54.1522 30.2532 55.7232 32.1236C55.8352 32.257 55.8539 32.4459 55.7753 32.6012L54.6397 34.8456C54.6259 34.8726 54.606 34.896 54.5815 34.9139C54.557 34.9318 54.5287 34.9437 54.4988 34.9487C54.469 34.9538 54.4383 34.9518 54.4093 34.9429C54.3803 34.934 54.3538 34.9184 54.3319 34.8975Z" fill="#4A5258"/>
<path d="M57.2311 36.7018C57.2146 36.6877 57.2031 36.6686 57.1982 36.6474C56.7992 34.9057 57.4846 33.0838 57.5139 33.0073C57.5187 32.9947 57.5259 32.9832 57.5352 32.9735C57.5444 32.9637 57.5555 32.9558 57.5678 32.9503C57.58 32.9449 57.5933 32.9418 57.6067 32.9414C57.6202 32.9411 57.6336 32.9433 57.6461 32.9481C57.6587 32.9529 57.6702 32.9601 57.68 32.9694C57.6898 32.9786 57.6977 32.9897 57.7032 33.0019C57.7087 33.0142 57.7117 33.0274 57.7121 33.0409C57.7124 33.0543 57.7102 33.0677 57.7054 33.0802C57.6982 33.0985 57.013 34.9218 57.3979 36.6015C57.4027 36.6226 57.4008 36.6446 57.3924 36.6645C57.384 36.6843 57.3695 36.701 57.351 36.7122C57.3324 36.7233 57.3109 36.7283 57.2894 36.7264C57.2678 36.7246 57.2474 36.716 57.2311 36.7018Z" fill="#2E363A"/>
<path d="M57.13 37.7401C57.13 37.7401 56.7112 36.6202 57.3135 36.4945C57.9158 36.369 57.8834 37.4506 57.9816 37.6777C58.0799 37.9045 58.5918 38.9055 58.778 39.2178C58.9642 39.53 57.6679 40.1293 57.4166 39.6946C57.1655 39.26 56.8719 38.1817 57.13 37.7401Z" fill="#2E363A"/>
<path d="M56.486 15.6461C56.9302 15.6461 57.2903 15.2864 57.2903 14.8426C57.2903 14.3988 56.9302 14.0391 56.486 14.0391C56.0418 14.0391 55.6816 14.3988 55.6816 14.8426C55.6816 15.2864 56.0418 15.6461 56.486 15.6461Z" fill="#B3BFDF"/>
<path d="M56.486 9.23204C56.9302 9.23204 57.2903 8.87229 57.2903 8.42852C57.2903 7.98475 56.9302 7.625 56.486 7.625C56.0418 7.625 55.6816 7.98475 55.6816 8.42852C55.6816 8.87229 56.0418 9.23204 56.486 9.23204Z" fill="#B3BFDF"/>
<path d="M4.96994 32.5527V39.5226L0.861758 38.5165C0.615892 38.4562 0.397371 38.3153 0.241144 38.1163C0.0849165 37.9172 8.78406e-06 37.6716 0 37.4187V34.6566C2.19772e-05 34.4036 0.084964 34.158 0.241238 33.959C0.397512 33.76 0.616088 33.6191 0.861998 33.5588L4.96994 32.5527Z" fill="#FEC9AC"/>
</svg>
