<svg width="16" height="16" viewBox="0 0 16 16" fill="none" xmlns="http://www.w3.org/2000/svg">
<path d="M3.42768 5.31598C4.61754 5.31598 5.58567 4.34785 5.58567 3.15784C5.58567 1.96798 4.61754 1 3.42768 1C2.23782 1 1.26969 1.96798 1.26969 3.15784C1.26969 4.34785 2.23782 5.31598 3.42768 5.31598ZM3.42768 1.88279C4.13083 1.88279 4.70288 2.45484 4.70288 3.15784C4.70288 3.86099 4.13083 4.43319 3.42768 4.43319C2.72454 4.43319 2.15249 3.86099 2.15249 3.15784C2.15249 2.45484 2.72454 1.88279 3.42768 1.88279ZM11.6671 5.31598C12.8568 5.31598 13.8249 4.34785 13.8249 3.15784C13.8249 1.96798 12.8568 1 11.6671 1C10.4771 1 9.50896 1.96798 9.50896 3.15784C9.50896 4.34785 10.4771 5.31598 11.6671 5.31598ZM11.6671 1.88279C12.3702 1.88279 12.9421 2.45484 12.9421 3.15784C12.9421 3.86099 12.3702 4.43319 11.6671 4.43319C10.9639 4.43319 10.3917 3.86099 10.3917 3.15784C10.3917 2.45484 10.9639 1.88279 11.6671 1.88279ZM3.3909 5.7715C2.07259 5.7715 1 6.8441 1 8.1624V11.6902C1 11.8073 1.0465 11.9195 1.12928 12.0023C1.21206 12.0851 1.32433 12.1316 1.4414 12.1316H1.95636V15.1493C1.95636 15.2663 2.00286 15.3786 2.08564 15.4614C2.16842 15.5442 2.28069 15.5907 2.39776 15.5907H4.45761C4.57467 15.5907 4.68695 15.5442 4.76972 15.4614C4.8525 15.3786 4.89901 15.2663 4.89901 15.1493V12.1316H5.3404C5.45747 12.1316 5.56974 12.0851 5.65252 12.0023C5.7353 11.9195 5.7818 11.8073 5.7818 11.6902V8.1624C5.7818 6.8441 4.70921 5.7715 3.3909 5.7715ZM4.89901 11.2486H4.45761C4.34054 11.2486 4.22827 11.2952 4.14549 11.3779C4.06272 11.4607 4.01621 11.573 4.01621 11.69V14.7077H2.83915V11.69C2.83915 11.573 2.79265 11.4607 2.70987 11.3779C2.62709 11.2952 2.51482 11.2486 2.39776 11.2486H1.88279V8.1624C1.88279 7.33081 2.55931 6.65429 3.3909 6.65429C4.22249 6.65429 4.89901 7.33081 4.89901 8.1624V11.2486ZM14.9618 12.4444L13.877 10.0049V8.11429C13.877 6.89574 12.8856 5.90436 11.6671 5.90436C10.4484 5.90436 9.45716 6.89559 9.45716 8.11429V10.0049L8.37221 12.4444C8.34228 12.5116 8.32963 12.5853 8.33542 12.6586C8.34121 12.732 8.36525 12.8027 8.40536 12.8644C8.44547 12.9261 8.50038 12.9768 8.56507 13.0118C8.62977 13.0469 8.70221 13.0652 8.7758 13.0651H10.1959V15.1491C10.1959 15.2662 10.2424 15.3785 10.3252 15.4612C10.408 15.544 10.5202 15.5905 10.6373 15.5905H12.6972C12.8142 15.5905 12.9265 15.544 13.0093 15.4612C13.0921 15.3785 13.1386 15.2662 13.1386 15.1491V13.0651H14.5587C14.6322 13.0651 14.7046 13.0467 14.7692 13.0117C14.8339 12.9766 14.8888 12.9259 14.9289 12.8643C14.9689 12.8026 14.9929 12.7319 14.9986 12.6585C15.0044 12.5852 14.9917 12.5116 14.9618 12.4444ZM12.697 12.1823C12.58 12.1823 12.4677 12.2289 12.3849 12.3116C12.3021 12.3944 12.2556 12.5067 12.2556 12.6237V14.7077H11.0786V12.6237C11.0786 12.5067 11.0321 12.3944 10.9493 12.3116C10.8665 12.2289 10.7542 12.1823 10.6372 12.1823H9.45496L10.3019 10.278C10.3271 10.2216 10.3401 10.1605 10.3401 10.0987V8.11444C10.3401 7.3826 10.9353 6.7873 11.6672 6.7873C12.3989 6.7873 12.9944 7.3826 12.9944 8.11444V10.0987C12.9944 10.1605 13.0073 10.2215 13.0323 10.278L13.8795 12.1823H12.697Z" fill="#24292D" stroke="#24292D" stroke-width="0.5"/>
</svg>
