<svg width="125" height="39" viewBox="0 0 125 39" fill="none" xmlns="http://www.w3.org/2000/svg">
<path d="M9.93907 20.6751H24.9355V21.1808C24.9355 28.0229 19.1982 33.4073 12.7793 33.4073C6.18998 33.4073 0.424316 28.1122 0.424316 20.8834C0.424316 13.8033 6.16157 8.35938 12.6373 8.35938C18.4029 8.35938 22.6065 12.4646 23.771 15.8857H18.687C17.6929 14.2793 15.5911 12.4944 12.5521 12.4944C7.38287 12.5241 4.68466 17.1648 4.68466 20.9131C4.68466 24.5721 7.32607 29.2426 12.7793 29.2426C15.5911 29.2426 18.2325 27.6064 19.5674 24.8101H9.93907V20.6751Z" fill="#055AAB"/>
<path d="M66.0928 25.0182C66.0928 22.3111 67.1437 19.9015 68.8762 18.1761V8.24023C68.8762 8.24023 65.8372 8.44847 65.8088 12.1967C65.752 15.9153 65.8088 18.8901 65.8088 18.8901V18.9198C64.3319 17.4027 62.3153 16.4507 60.0431 16.4507C55.5272 16.4507 51.8633 20.2882 51.8633 25.0182C51.8633 29.7482 55.5272 33.5857 60.0431 33.5857C62.3153 33.5857 64.3887 32.604 65.894 31.0273C66.0928 31.6223 66.7177 32.7527 68.9046 32.7527V31.8603C67.1721 30.1349 66.0928 27.6658 66.0928 25.0182ZM60.0715 29.5697C57.6573 29.5697 55.6976 27.517 55.6976 24.9885C55.6976 22.4599 57.6573 20.4072 60.0715 20.4072C62.4857 20.4072 64.4455 22.4599 64.4455 24.9885C64.4171 27.5468 62.4573 29.5697 60.0715 29.5697Z" fill="#096DBF"/>
<path d="M80.9753 12.167C80.9185 15.8855 80.9753 18.8603 80.9753 18.8603V18.8901C79.4984 17.3729 77.4818 16.421 75.2096 16.421C70.6937 16.421 67.0298 20.2585 67.0298 24.9885C67.0298 29.7184 70.6937 33.5559 75.2096 33.5559C77.4818 33.5559 79.5552 32.5742 81.0605 30.9976C81.2593 31.5925 81.8842 32.723 84.0711 32.723V8.24023C84.0427 8.24023 81.0321 8.44847 80.9753 12.167ZM75.2096 29.5697C72.7954 29.5697 70.8357 27.517 70.8357 24.9885C70.8357 22.4599 72.7954 20.4072 75.2096 20.4072C77.6238 20.4072 79.5836 22.4599 79.5836 24.9885C79.5836 27.5468 77.6238 29.5697 75.2096 29.5697Z" fill="url(#paint0_linear_1874_1286)"/>
<path d="M27.749 17.6702H30.9301V19.0089H30.9869C31.6401 18.0272 32.2934 17.1348 34.0827 17.1348H34.3668V20.6748C31.2425 20.8235 31.2425 23.4116 31.2425 24.3338V32.8418H27.749V17.6702Z" fill="#0762B3"/>
<path d="M50.443 32.8413H47.262V30.9374C46.1827 32.3058 44.0241 33.2875 42.2064 33.2875C38.4857 33.2875 35.1626 30.1639 35.1626 25.1067C35.1626 20.466 38.4005 17.1045 42.4052 17.1045C45.359 17.1045 47.1199 19.3356 47.2052 19.5141H47.262V17.5805H50.443V32.8413ZM42.9164 20.4958C40.0762 20.4958 38.5993 23.0541 38.5993 25.3447C38.5993 27.9031 40.4454 30.0152 42.9164 30.0152C45.3022 30.0152 47.1484 28.0518 47.1484 25.2257C47.1484 22.0724 44.9898 20.4958 42.9164 20.4958Z" fill="#0867B9"/>
<path d="M87.3369 12.6426H90.8304V15.9744H87.3369V12.6426ZM87.3369 17.67H90.8304V32.8416H87.3369V17.67Z" fill="#0B7ACB"/>
<path d="M93.6139 17.6702H96.8234V18.9792C97.4198 18.3842 98.6127 17.1348 100.771 17.1348C102.021 17.1348 103.924 17.7297 105.117 19.2469C106.452 20.9128 106.452 23.4414 106.452 24.6016V32.812H102.958V25.3453C102.958 24.0958 102.958 20.4666 100.033 20.4666C99.408 20.4666 98.2719 20.7938 97.6755 21.8052C97.0506 22.7274 97.0506 24.3041 97.0506 25.5832V32.812H93.5571L93.6139 17.6702Z" fill="#0D7FD1"/>
<path d="M124.09 17.6702V30.0455C124.09 37.3338 118.949 38.9997 116.194 38.9997C113.212 38.9997 110.173 37.3635 108.923 33.9722H112.871C114.234 35.6679 115.91 35.6679 116.421 35.6679C118.381 35.6679 120.682 34.24 120.852 30.9379L120.795 30.8784C120.312 31.5626 118.978 33.288 116.052 33.288C112.53 33.288 108.639 30.1347 108.639 25.0775C108.639 20.3178 112.331 17.1348 116.024 17.1348C119.006 17.1348 120.256 18.9197 120.653 19.4849H120.71V17.6405L124.09 17.6702ZM116.393 20.4963C114.291 20.4963 112.161 22.2812 112.161 25.137C112.161 28.2308 114.376 30.0157 116.478 30.0157C118.58 30.0157 120.625 28.1416 120.625 25.1073C120.625 22.9654 118.949 20.4963 116.393 20.4963Z" fill="#0E85D7"/>
<path d="M2.84023 8.18075C2.84023 8.18075 7.78222 1.5469 14.826 4.9382L17.1834 2.52859L7.27098 0L0 8.18075H2.84023Z" fill="#055AAB"/>
<path d="M4.88551 9.93608L4.28906 7.9727C4.28906 7.9727 6.41923 4.73015 13.4346 5.05738L14.4003 7.49673C14.4003 7.49673 9.60029 6.63403 4.88551 9.93608Z" fill="#055AAB"/>
<path d="M1.84686 12.8809C2.2547 12.8809 2.58532 12.5346 2.58532 12.1074C2.58532 11.6803 2.2547 11.334 1.84686 11.334C1.43902 11.334 1.1084 11.6803 1.1084 12.1074C1.1084 12.5346 1.43902 12.8809 1.84686 12.8809Z" fill="#055AAB"/>
<path d="M1.98617 7.85352H1.70215V12.0183H1.98617V7.85352Z" fill="#055AAB"/>
<defs>
<linearGradient id="paint0_linear_1874_1286" x1="84.0711" y1="20.8981" x2="67.0298" y2="20.8981" gradientUnits="userSpaceOnUse">
<stop stop-color="#0E86D8"/>
<stop offset="1" stop-color="#055AAB"/>
</linearGradient>
</defs>
</svg>
