<svg width="17" height="36" viewBox="0 0 17 36" fill="none" xmlns="http://www.w3.org/2000/svg">
<path fill-rule="evenodd" clip-rule="evenodd" d="M8.5 7C10.433 7 12 5.433 12 3.5C12 1.567 10.433 0 8.5 0C6.567 0 5 1.567 5 3.5C5 5.433 6.567 7 8.5 7ZM13.6486 14C13.6984 14.3524 13.7424 14.7287 13.7806 15.1216C13.9992 17.3666 14 19.8009 14 20.4998C14 21.3282 14.6716 21.9998 15.5 21.9998C16.3284 21.9998 17 21.3282 17 20.4998V20.493C17 19.7857 17 17.2288 16.7665 14.8308C16.6507 13.6418 16.4698 12.4015 16.1696 11.4252C16.0223 10.9462 15.8147 10.4227 15.499 9.9892C15.1824 9.5547 14.59 9 13.6886 9H3.3114C2.41 9 1.8176 9.5547 1.501 9.9892C1.1853 10.4227 0.9777 10.9462 0.8304 11.4252C0.5302 12.4015 0.3492 13.6418 0.2335 14.8308C-4.76837e-07 17.2288 0 19.7857 0 20.493V20.4998C0 21.3282 0.6716 21.9998 1.5 21.9998C2.3284 21.9998 3 21.3282 3 20.4998C3 19.8009 3.0008 17.3666 3.2194 15.1216C3.2576 14.7287 3.3016 14.3524 3.3514 14H4V34.4999C4 35.305 4.6356 35.9666 5.4401 35.9987C6.2446 36.0308 6.931 35.4221 6.9952 34.6195L7.8448 24H9.1552L10.0048 34.6196C10.069 35.4222 10.7554 36.0309 11.5599 35.9988C12.3644 35.9667 13 35.3051 13 34.5V14H13.6486Z" fill="#747579"/>
</svg>
