<svg width="20" height="20" viewBox="0 0 20 20" fill="none" xmlns="http://www.w3.org/2000/svg">
    <path fill-rule="evenodd" clip-rule="evenodd" d="M8.95809 0.565482C9.57542 -0.188491 10.7284 -0.188494 11.3457 0.565473L12.2202 1.63353C12.2801 1.70674 12.3801 1.73353 12.4685 1.7001L13.7598 1.21236C14.6715 0.868042 15.67 1.44454 15.8275 2.40615L16.0509 3.76834C16.0661 3.86171 16.1393 3.9349 16.2327 3.9502L17.5949 4.17346C18.5565 4.33107 19.133 5.32959 18.7887 6.24117L18.301 7.53249C18.2675 7.621 18.2943 7.72098 18.3675 7.78091L19.4356 8.65533C20.1895 9.27265 20.1895 10.4257 19.4356 11.043L18.0998 12.1366C17.8172 12.3679 17.4007 12.3264 17.1693 12.0438C16.938 11.7612 16.9795 11.3447 17.2621 11.1133L18.5978 10.0197C18.7055 9.9315 18.7055 9.76681 18.5978 9.67865L17.5297 8.80415C17.0173 8.38458 16.8298 7.68479 17.0638 7.06521L17.5515 5.77388C17.6007 5.64367 17.5183 5.50102 17.381 5.4785L16.0188 5.25524C15.3652 5.14812 14.8529 4.63581 14.7458 3.98224L14.5225 2.62005C14.5001 2.48267 14.3574 2.40032 14.2271 2.4495L12.9359 2.93725C12.3162 3.17127 11.6164 2.98375 11.1968 2.4713L10.3224 1.40324C10.2343 1.29553 10.0695 1.29553 9.98132 1.40324L9.10691 2.4713C8.68734 2.98375 7.98753 3.17127 7.36795 2.93725L6.07662 2.4495C5.9464 2.40032 5.80375 2.48267 5.78124 2.62005L5.55797 3.98223C5.45085 4.63581 4.93855 5.14812 4.28497 5.25524L2.92278 5.4785C2.78541 5.50102 2.70305 5.64367 2.75223 5.77388L3.23998 7.06521C3.474 7.68479 3.28649 8.38458 2.77403 8.80415L1.70597 9.67865C1.59826 9.76681 1.59826 9.9315 1.70597 10.0197L2.77403 10.8942C3.28649 11.3137 3.474 12.0135 3.23998 12.6331L2.75223 13.9244C2.70305 14.0547 2.78541 14.1973 2.92278 14.2198L4.28497 14.4431C4.93855 14.5502 5.45085 15.0624 5.55797 15.7161L5.78124 17.0782C5.80375 17.2157 5.9464 17.298 6.07662 17.2488L7.36794 16.7611C7.98753 16.527 8.68734 16.7146 9.10691 17.227L9.98132 18.2951C10.0695 18.4028 10.2343 18.4028 10.3224 18.2951L11.1968 17.227C11.6164 16.7146 12.3162 16.527 12.9359 16.7611L14.2271 17.2488C14.3574 17.298 14.5001 17.2157 14.5225 17.0782L14.8482 15.0911C14.9073 14.7307 15.2473 14.4865 15.6077 14.5455C15.9681 14.6045 16.2124 14.9446 16.1533 15.305L15.8275 17.2921C15.67 18.2538 14.6715 18.8303 13.7598 18.4859L12.4685 17.9982C12.38 17.9648 12.2801 17.9916 12.2202 18.0648L11.3457 19.1328C10.7284 19.8868 9.57542 19.8868 8.95809 19.1328L8.08365 18.0648C8.02371 17.9916 7.92374 17.9648 7.83522 17.9982L6.54391 18.4859C5.63233 18.8303 4.6338 18.2538 4.4762 17.2922L4.25293 15.93C4.23763 15.8366 4.16444 15.7634 4.07108 15.7481L2.70888 15.5249C1.74728 15.3672 1.17078 14.3687 1.51509 13.4572L2.00283 12.1658C2.03627 12.0773 2.00948 11.9773 1.93627 11.9174L0.868212 11.043C0.114243 10.4257 0.114241 9.27265 0.868212 8.65533L1.93627 7.78091C2.00948 7.72098 2.03627 7.621 2.00283 7.53249L1.51509 6.24117C1.17078 5.32959 1.74728 4.33107 2.70888 4.17346L4.07108 3.9502C4.16444 3.9349 4.23763 3.86171 4.25293 3.76834L4.4762 2.40615C4.6338 1.44454 5.63233 0.868042 6.54391 1.21236L7.83522 1.7001C7.92374 1.73354 8.02371 1.70674 8.08365 1.63353L8.95809 0.565482Z" fill="#038942"/>
    <path fill-rule="evenodd" clip-rule="evenodd" d="M11.0429 0.565482C10.4256 -0.188491 9.27256 -0.188494 8.65532 0.565473L7.78083 1.63353C7.72087 1.70674 7.6209 1.73353 7.53247 1.7001L6.24113 1.21236C5.32952 0.868042 4.33098 1.44454 4.17343 2.40615L3.95011 3.76834C3.93486 3.86171 3.86168 3.9349 3.76832 3.9502L2.4061 4.17346C1.4445 4.33107 0.867998 5.32959 1.21228 6.24117L1.7 7.53249C1.7335 7.621 1.7067 7.72098 1.63344 7.78091L0.56542 8.65533C-0.188555 9.27265 -0.188555 10.4257 0.56542 11.043L1.90119 12.1366C2.18375 12.3679 2.60033 12.3264 2.83167 12.0438C3.06301 11.7612 3.02148 11.3447 2.73892 11.1133L1.40315 10.0197C1.29551 9.9315 1.29551 9.76681 1.40315 9.67865L2.47125 8.80415C2.98366 8.38458 3.17119 7.68479 2.9372 7.06521L2.44948 5.77388C2.40028 5.64367 2.48263 5.50102 2.61999 5.4785L3.9822 5.25524C4.63576 5.14812 5.14808 4.63581 5.2552 3.98224L5.47843 2.62005C5.50091 2.48267 5.64356 2.40032 5.77387 2.4495L7.06511 2.93725C7.68473 3.17127 8.38457 2.98375 8.80414 2.4713L9.67855 1.40324C9.76671 1.29553 9.93149 1.29553 10.0197 1.40324L10.8941 2.4713C11.3136 2.98375 12.0134 3.17127 12.633 2.93725L13.9244 2.4495C14.0546 2.40032 14.1972 2.48267 14.2197 2.62005L14.443 3.98223C14.5501 4.63581 15.0624 5.14812 15.716 5.25524L17.0782 5.4785C17.2156 5.50102 17.2979 5.64367 17.2487 5.77388L16.761 7.06521C16.527 7.68479 16.7145 8.38458 17.2269 8.80415L18.295 9.67865C18.4027 9.76681 18.4027 9.9315 18.295 10.0197L17.2269 10.8942C16.7145 11.3137 16.527 12.0135 16.761 12.6331L17.2487 13.9244C17.2979 14.0547 17.2156 14.1973 17.0782 14.2198L15.716 14.4431C15.0624 14.5502 14.5501 15.0624 14.443 15.7161L14.2197 17.0782C14.1972 17.2157 14.0546 17.298 13.9244 17.2488L12.633 16.7611C12.0134 16.527 11.3136 16.7146 10.8941 17.227L10.0197 18.2951C9.93149 18.4028 9.76671 18.4028 9.67855 18.2951L8.80414 17.227C8.38457 16.7146 7.68473 16.527 7.06511 16.7611L5.77387 17.2488C5.64356 17.298 5.50091 17.2157 5.47843 17.0782L5.15275 15.0911C5.09368 14.7307 4.75364 14.4865 4.39331 14.5455C4.0329 14.6045 3.7886 14.9446 3.84767 15.305L4.17343 17.2921C4.33098 18.2538 5.32952 18.8303 6.24113 18.4859L7.53247 17.9982C7.62098 17.9648 7.72087 17.9916 7.78083 18.0648L8.65532 19.1328C9.27256 19.8868 10.4256 19.8868 11.0429 19.1328L11.9173 18.0648C11.9773 17.9916 12.0772 17.9648 12.1658 17.9982L13.4571 18.4859C14.3686 18.8303 15.3672 18.2538 15.5248 17.2922L15.748 15.93C15.7634 15.8366 15.8365 15.7634 15.9299 15.7481L17.2921 15.5249C18.2537 15.3672 18.8302 14.3687 18.4859 13.4572L17.9981 12.1658C17.9647 12.0773 17.9915 11.9773 18.0647 11.9174L19.1328 11.043C19.8867 10.4257 19.8867 9.27265 19.1328 8.65533L18.0647 7.78091C17.9915 7.72098 17.9647 7.621 17.9981 7.53249L18.4859 6.24117C18.8302 5.32959 18.2537 4.33107 17.2921 4.17346L15.9299 3.9502C15.8365 3.9349 15.7634 3.86171 15.748 3.76834L15.5248 2.40615C15.3672 1.44454 14.3686 0.868042 13.4571 1.21236L12.1658 1.7001C12.0772 1.73354 11.9773 1.70674 11.9173 1.63353L11.0429 0.565482Z" fill="#038942"/>
    <path d="M11.7638 2.20429L10.0005 0.881836L9.11887 1.32265L8.23723 2.20429L6.91478 2.64511H6.47396L5.59232 2.20429L4.71068 3.96757L3.82905 4.8492L2.50659 5.29002V6.17166V7.49411L2.06577 8.81657L1.32275 9.6982L2.94741 11.4615L2.50659 12.7839V14.5472L4.26987 14.988L5.1515 15.8697L5.59232 17.1921H7.79641L8.67805 18.0738L10.5799 18.5146L12.2046 17.1921L14.4087 17.6329L14.8495 15.8697L17.0536 14.5472L17.4944 13.2248V11.4615L18.8169 9.25739L17.4944 7.49411V5.29002L15.2903 3.96757L14.4087 2.20429H11.7638Z" fill="#038942"/>
    <path fill-rule="evenodd" clip-rule="evenodd" d="M14.8024 6.35317C15.0503 6.59621 15.0503 6.99025 14.8024 7.23328L8.87779 13.0417C8.75879 13.1584 8.59731 13.224 8.42896 13.224C8.26062 13.224 8.09913 13.1584 7.98011 13.0417L4.59461 9.72259C4.34672 9.47955 4.34672 9.08557 4.59461 8.84253C4.84251 8.59949 5.24443 8.59949 5.49233 8.84253L8.42896 11.7215L13.9047 6.35317C14.1526 6.11014 14.5545 6.11014 14.8024 6.35317Z" fill="white"/>
</svg>
