<svg width="14" height="16" viewBox="0 0 14 16" fill="none" xmlns="http://www.w3.org/2000/svg">
<path d="M9.92085 4.0372C9.92085 4.18643 9.90977 4.33566 9.88944 4.48319C9.89868 4.42384 9.90792 4.36279 9.91531 4.30344C9.87097 4.59851 9.78598 4.88509 9.6622 5.15981C9.68622 5.10554 9.71208 5.05128 9.7361 4.99701C9.61232 5.26495 9.45344 5.51592 9.25945 5.74655L9.37584 5.60919C9.1837 5.83643 8.96016 6.04162 8.7126 6.21798L8.86224 6.11114C8.61098 6.2875 8.33756 6.43504 8.04565 6.54865C8.10477 6.52661 8.16389 6.50287 8.22301 6.48082C7.92372 6.59444 7.6115 6.67245 7.29003 6.71315C7.35469 6.70467 7.4212 6.69619 7.48587 6.6894C7.16256 6.72841 6.8374 6.72841 6.51409 6.6894C6.57875 6.69788 6.64526 6.70636 6.70992 6.71315C6.38846 6.67245 6.07623 6.59444 5.77694 6.48082C5.83606 6.50287 5.89518 6.52661 5.9543 6.54865C5.6624 6.43504 5.38897 6.2892 5.13771 6.11114L5.28736 6.21798C5.0398 6.04162 4.81625 5.83643 4.62411 5.60919L4.7405 5.74655C4.54836 5.51592 4.38763 5.26495 4.26385 4.99701C4.28787 5.05128 4.31373 5.10554 4.33775 5.15981C4.21397 4.88509 4.12899 4.59851 4.08465 4.30344C4.09388 4.36279 4.10312 4.42384 4.11051 4.48319C4.06802 4.18643 4.06802 3.88797 4.11051 3.59121C4.10127 3.65056 4.09204 3.71161 4.08465 3.77096C4.12899 3.4759 4.21397 3.18931 4.33775 2.91459C4.31373 2.96886 4.28787 3.02313 4.26385 3.07739C4.38763 2.80946 4.54652 2.55848 4.7405 2.32785L4.62411 2.46521C4.81625 2.23798 5.0398 2.03279 5.28736 1.85643L5.13771 1.96326C5.38897 1.7869 5.6624 1.63937 5.9543 1.52575C5.89518 1.54779 5.83606 1.57154 5.77694 1.59358C6.07623 1.47996 6.38846 1.40196 6.70992 1.36126C6.64526 1.36974 6.57875 1.37822 6.51409 1.385C6.8374 1.346 7.16256 1.346 7.48587 1.385C7.4212 1.37652 7.35469 1.36804 7.29003 1.36126C7.6115 1.40196 7.92372 1.47996 8.22301 1.59358C8.16389 1.57154 8.10477 1.54779 8.04565 1.52575C8.33756 1.63937 8.61098 1.7852 8.86224 1.96326L8.7126 1.85643C8.96016 2.03279 9.1837 2.23798 9.37584 2.46521L9.25945 2.32785C9.45159 2.55848 9.61232 2.80946 9.7361 3.07739C9.71208 3.02313 9.68622 2.96886 9.6622 2.91459C9.78598 3.18931 9.87097 3.4759 9.91531 3.77096C9.90607 3.71161 9.89683 3.65056 9.88944 3.59121C9.90977 3.73874 9.919 3.88797 9.92085 4.0372C9.9227 4.39162 10.2589 4.73247 10.6598 4.71551C11.0589 4.69856 11.4007 4.41706 11.3988 4.0372C11.3951 3.22492 11.1291 2.39399 10.6081 1.73264C10.4677 1.55458 10.3181 1.37991 10.1518 1.2222C9.98366 1.0628 9.79892 0.925443 9.60678 0.791476C9.2576 0.547284 8.86779 0.367531 8.45395 0.228477C6.78567 -0.332827 4.77376 0.167428 3.64494 1.42909C3.48976 1.60206 3.34196 1.78181 3.21633 1.97513C3.0907 2.16676 2.99278 2.37025 2.90226 2.57713C2.73229 2.96038 2.64545 3.36737 2.61035 3.77944C2.542 4.58664 2.77108 5.42944 3.22926 6.12132C3.67081 6.78946 4.33775 7.36263 5.11739 7.68652C5.34648 7.78149 5.58111 7.86967 5.82498 7.93241C6.067 7.99346 6.31271 8.02738 6.56212 8.05451C7.0166 8.10369 7.48032 8.06977 7.92926 7.98668C9.63449 7.66787 11.0626 6.31972 11.3268 4.73756C11.3656 4.50693 11.3951 4.27631 11.3951 4.04229C11.397 3.68787 11.0534 3.34702 10.6562 3.36398C10.2571 3.37585 9.92085 3.65735 9.92085 4.0372ZM12.3725 14.6409H2.89302C2.47364 14.6409 2.05426 14.6443 1.63488 14.6409C1.58869 14.6409 1.54251 14.6375 1.49817 14.6324C1.56283 14.6409 1.62934 14.6494 1.694 14.6562C1.6201 14.646 1.5499 14.6274 1.48154 14.6019C1.54066 14.624 1.59978 14.6477 1.6589 14.6698C1.585 14.6409 1.51664 14.6036 1.45198 14.5578L1.60163 14.6647C1.5462 14.6223 1.49447 14.5765 1.45013 14.5256L1.56652 14.663C1.51664 14.6036 1.47784 14.5409 1.44459 14.473C1.46861 14.5273 1.49447 14.5816 1.51849 14.6358C1.49078 14.5731 1.4723 14.507 1.45937 14.4408C1.46861 14.5002 1.47784 14.5612 1.48523 14.6206C1.45567 14.4154 1.476 14.1983 1.476 13.9914V13.2656C1.476 13.0842 1.48708 12.9044 1.51295 12.7247C1.50371 12.784 1.49447 12.8451 1.48708 12.9044C1.53881 12.5568 1.63857 12.216 1.78822 11.8921C1.7642 11.9463 1.73834 12.0006 1.71432 12.0549C1.85843 11.7462 2.04317 11.4562 2.26672 11.19L2.15033 11.3274C2.37387 11.0645 2.63067 10.8271 2.91888 10.6219L2.76924 10.7288C3.05929 10.5236 3.37521 10.354 3.71145 10.2217C3.65233 10.2438 3.59321 10.2675 3.53409 10.2895C3.88696 10.1539 4.25646 10.0606 4.63704 10.0131C4.57238 10.0216 4.50587 10.0301 4.44121 10.0369C4.71464 10.0047 4.98622 10.003 5.26149 10.003H8.64239C8.94723 10.003 9.25021 10.0013 9.55505 10.0369C9.49039 10.0284 9.42388 10.0199 9.35922 10.0131C9.73795 10.0606 10.1093 10.1522 10.4622 10.2895C10.403 10.2675 10.3439 10.2438 10.2848 10.2217C10.621 10.354 10.937 10.5236 11.227 10.7288L11.0774 10.6219C11.3637 10.8271 11.6224 11.0628 11.8459 11.3274L11.7295 11.19C11.9531 11.4562 12.1378 11.7462 12.2819 12.0549C12.2579 12.0006 12.2321 11.9463 12.208 11.8921C12.3558 12.216 12.4574 12.5551 12.5092 12.9044C12.4999 12.8451 12.4907 12.784 12.4833 12.7247C12.5184 12.9808 12.5203 13.2351 12.5203 13.4929V14.3323C12.5203 14.429 12.524 14.5256 12.511 14.6206C12.5203 14.5612 12.5295 14.5002 12.5369 14.4408C12.5258 14.5087 12.5055 14.5731 12.4778 14.6358C12.5018 14.5816 12.5277 14.5273 12.5517 14.473C12.5203 14.5409 12.4796 14.6036 12.4297 14.663L12.5461 14.5256C12.4999 14.5765 12.4501 14.624 12.3946 14.6647L12.5443 14.5578C12.4796 14.6036 12.4113 14.6392 12.3374 14.6698C12.3965 14.6477 12.4556 14.624 12.5147 14.6019C12.4464 14.6274 12.3743 14.6443 12.3023 14.6562C12.3669 14.6477 12.4334 14.6392 12.4981 14.6324C12.4574 14.6375 12.415 14.6392 12.3725 14.6409C12.1822 14.6426 11.9863 14.7155 11.8496 14.8393C11.7221 14.9563 11.6242 15.1497 11.6335 15.3192C11.6519 15.6821 11.9586 16.0026 12.3725 15.9976C13.0911 15.9874 13.723 15.5566 13.9336 14.9241C14.0167 14.6731 13.9983 14.4035 13.9983 14.1458C13.9983 13.5556 14.0186 12.9706 13.9077 12.3855C13.7451 11.5292 13.2759 10.7237 12.633 10.0911C11.99 9.45862 11.1254 8.99397 10.2109 8.78709C9.68622 8.66838 9.15784 8.64973 8.62207 8.64973H5.34463C4.79593 8.64973 4.25092 8.67347 3.717 8.80404C2.80988 9.0245 1.95634 9.49423 1.32635 10.1318C0.690815 10.7745 0.230791 11.5817 0.0811448 12.4432C-0.0186194 13.0215 0.0017029 13.6014 0.0017029 14.1848C0.0017029 14.4527 -0.0149244 14.7325 0.0903823 14.9886C0.227096 15.3175 0.445099 15.577 0.764714 15.772C1.01412 15.9229 1.33004 15.9959 1.62564 15.9992C1.76975 16.0009 1.91385 15.9992 2.05795 15.9992H12.3743C12.7604 15.9992 13.1318 15.6872 13.1133 15.3209C13.0948 14.9513 12.7881 14.6409 12.3725 14.6409Z" fill="#24292D"/>
</svg>
