<svg width="162" height="165" viewBox="0 0 162 165" fill="none" xmlns="http://www.w3.org/2000/svg">
<path d="M162 83.9601C162 103.017 155.431 120.529 144.446 134.357C129.6 153.022 106.705 165 81 165C55.3078 165 32.4 153.022 17.5669 134.357C6.5686 120.529 0 103.017 0 83.9601C0 64.9157 6.5686 47.4034 17.5669 33.5759C32.7426 14.4248 55.9119 2.91992 81 2.91992C125.873 2.91992 162 39.3286 162 83.9601Z" fill="#D6DCE8"/>
<path d="M143.74 46.1629C148.524 46.1629 152.402 50.0431 152.402 54.8296V127.35C152.402 130.615 151.079 133.577 148.937 135.708C146.807 137.851 143.846 139.175 140.583 139.175H32.9006C26.361 139.175 21.0688 133.88 21.0688 127.35V38.7057C21.0688 33.9193 24.9471 30.0391 29.7312 30.0391H61.7292C64.1695 30.0391 66.4965 31.0688 68.1382 32.8752L77.6371 43.3268C79.2788 45.1331 81.6059 46.1629 84.0461 46.1629H143.74Z" fill="url(#paint0_linear_3041_2922)"/>
<path d="M105.252 63.3856C104.682 65.7598 102.301 67.2194 99.928 66.6493L62.1433 57.5714C59.7702 57.0013 58.3113 54.6191 58.8811 52.2449L70.6077 3.38713C71.1775 1.01292 73.5585 -0.446743 75.9316 0.123388L102.901 6.60279C103.125 6.65667 103.341 6.72745 103.548 6.8106C104.347 7.14013 105.038 7.70018 105.527 8.43002L113.963 20.9618C114.467 21.7094 114.726 22.588 114.713 23.4726C114.715 24.3864 115.084 22.2565 105.252 63.3856Z" fill="#F9FAFD"/>
<path d="M77.2562 6.53618L76.8252 8.33203L95.4402 12.8043L95.8712 11.0085L77.2562 6.53618Z" fill="#D6DCE8"/>
<path d="M67.1469 48.6553L66.7158 50.4512L79.646 53.5577L80.077 51.7618L67.1469 48.6553Z" fill="#D6DCE8"/>
<path d="M82.1176 52.251L81.6865 54.0469L83.6639 54.5219L84.0949 52.726L82.1176 52.251Z" fill="#D6DCE8"/>
<path d="M76.2548 10.7061L75.8237 12.502L86.4503 15.055L86.8813 13.2592L76.2548 10.7061Z" fill="#D6DCE8"/>
<path d="M114.713 23.4725L102.454 20.5274C101.306 20.2516 100.599 19.0971 100.875 17.9487L103.548 6.81055C104.347 7.14007 105.038 7.70013 105.527 8.42997L113.963 20.9617C114.467 21.7094 114.726 22.588 114.713 23.4725Z" fill="url(#paint1_linear_3041_2922)"/>
<path d="M76.7033 31.239C75.2307 37.3743 79.0037 43.5351 85.136 45.0084C91.2683 46.4817 97.4332 42.7085 98.9058 36.5732C100.378 30.4378 96.5999 24.2681 90.4676 22.7948C84.3352 21.3215 78.1759 25.1036 76.7033 31.239Z" fill="url(#paint2_linear_3041_2922)"/>
<path d="M87.1887 36.4737C86.6642 36.3477 86.341 35.8199 86.4669 35.2951C86.5646 35.1021 86.6758 32.8335 88.937 32.4724C89.7564 32.3414 90.4164 31.7057 90.5795 30.8906C90.779 29.8922 90.1442 28.856 89.1641 28.5807C88.0291 28.2715 86.9391 28.9623 86.6813 30.036C86.5554 30.5608 86.0279 30.8841 85.5034 30.7581C84.9789 30.6321 84.6557 30.1043 84.7816 29.5796C85.308 27.3864 87.5568 26.0851 89.6923 26.699C91.6659 27.2531 92.8971 29.2627 92.4951 31.274C92.1729 32.8861 90.867 34.1434 89.2452 34.4025C88.4336 34.5323 88.5027 35.4184 88.3666 35.7515C88.2407 36.2763 87.7132 36.5997 87.1887 36.4737ZM87.8631 39.3486C87.6922 40.0605 86.9762 40.5029 86.2647 40.3319C85.5532 40.161 85.112 39.4405 85.2828 38.7287C85.4537 38.0168 86.1728 37.5795 86.8843 37.7504C87.5958 37.9213 88.0339 38.6367 87.8631 39.3486Z" fill="white"/>
<path d="M160.453 64.8577L146.152 92.8958C145.279 94.6059 143.191 95.2835 141.481 94.4107L114.265 80.5146C112.556 79.6419 111.879 77.5522 112.751 75.842L130.701 40.6498C131.574 38.9396 133.662 38.2621 135.372 39.1348L154.798 49.0533C154.959 49.1358 155.111 49.2296 155.255 49.3314C155.804 49.7303 156.23 50.2857 156.47 50.9337L160.614 62.0672C160.862 62.7315 160.898 63.4508 160.725 64.1247C160.665 64.379 160.574 64.6218 160.453 64.8577Z" fill="#F9FAFD"/>
<path d="M135.206 44.281L134.546 45.5742L147.955 52.4202L148.615 51.127L135.206 44.281Z" fill="#D6DCE8"/>
<path d="M119.73 74.6189L119.071 75.9121L128.385 80.6674L129.044 79.3742L119.73 74.6189Z" fill="#D6DCE8"/>
<path d="M130.514 80.1246L129.854 81.418L131.278 82.1452L131.938 80.8518L130.514 80.1246Z" fill="#D6DCE8"/>
<path d="M133.672 47.2849L133.012 48.5781L140.667 52.4864L141.327 51.1932L133.672 47.2849Z" fill="#D6DCE8"/>
<path d="M160.725 64.1253L151.896 59.6169C151.069 59.1948 150.741 58.182 151.163 57.3549L155.255 49.332C155.805 49.731 156.23 50.2864 156.47 50.9344L160.614 62.0678C160.862 62.7321 160.898 63.4515 160.725 64.1253Z" fill="url(#paint3_linear_3041_2922)"/>
<path d="M130.239 63.0646C127.985 67.4839 129.736 72.8883 134.153 75.1436C138.57 77.3988 143.977 75.6493 146.231 71.23C148.486 66.8107 146.732 61.3984 142.315 59.1432C137.897 56.8879 132.493 58.6453 130.239 63.0646Z" fill="url(#paint4_linear_3041_2922)"/>
<path d="M137.292 68.9956C136.914 68.8027 136.764 68.3397 136.957 67.9617L137.213 67.4605C137.621 66.6601 138.466 66.1883 139.365 66.2585C140.015 66.3092 140.637 65.9447 140.911 65.3517C141.247 64.6251 140.953 63.7161 140.254 63.3252C139.874 63.1163 139.442 63.0667 139.031 63.1917C138.619 63.3167 138.284 63.5968 138.088 63.9807C137.896 64.3586 137.433 64.5088 137.055 64.3159C136.677 64.123 136.527 63.66 136.72 63.282C137.107 62.5226 137.77 61.9681 138.585 61.7209C139.4 61.4733 140.26 61.5618 141.004 61.9839C142.411 62.7708 142.982 64.5338 142.305 65.9974C141.762 67.1705 140.533 67.8913 139.245 67.7908C138.967 67.7691 138.706 67.9138 138.581 68.1592L138.326 68.6604C138.133 69.0384 137.67 69.1885 137.292 68.9956ZM137.279 71.3176C137.017 71.8303 136.389 72.0367 135.876 71.7751C135.364 71.5134 135.159 70.8814 135.42 70.3686C135.682 69.8559 136.312 69.6539 136.825 69.9156C137.337 70.1773 137.541 70.8048 137.279 71.3176Z" fill="white"/>
<path d="M30.0687 23.4726L39.2747 46.5206C39.8362 47.9263 39.1536 49.5182 37.7486 50.08L15.3761 59.025C13.971 59.5868 12.3799 58.904 11.8184 57.4982L0.263441 28.5693C-0.298062 27.1636 0.384444 25.5717 1.78954 25.0099L17.7581 18.6253C17.8909 18.5722 18.0253 18.5308 18.1602 18.4984C18.6824 18.379 19.2327 18.4148 19.7414 18.6089L28.497 21.9283C29.0196 22.1262 29.4651 22.4781 29.7752 22.9305C29.8946 23.0984 29.9912 23.2786 30.0687 23.4726Z" fill="#F9FAFD"/>
<path d="M15.7768 23.3725L4.75488 27.7793L5.17938 28.842L16.2013 24.4352L15.7768 23.3725Z" fill="#D6DCE8"/>
<path d="M22.3723 49.6596L14.7163 52.7207L15.1408 53.7835L22.7968 50.7224L22.3723 49.6596Z" fill="#D6DCE8"/>
<path d="M24.7518 48.7056L23.5806 49.1738L24.0051 50.2367L25.1763 49.7684L24.7518 48.7056Z" fill="#D6DCE8"/>
<path d="M12.0342 27.7343L5.74219 30.25L6.16668 31.3128L12.4587 28.7971L12.0342 27.7343Z" fill="#D6DCE8"/>
<path d="M29.7756 22.9305L22.5172 25.8325C21.8376 26.1043 21.0664 25.7733 20.7948 25.0934L18.1606 18.4984C18.6828 18.379 19.2331 18.4148 19.7419 18.6089L28.4974 21.9283C29.02 22.1262 29.4655 22.4781 29.7756 22.9305Z" fill="url(#paint5_linear_3041_2922)"/>
<path d="M13.3185 40.4809C14.7695 44.1136 18.8844 45.8796 22.5154 44.4279C26.1463 42.9761 27.9157 38.8575 26.4647 35.2248C25.0137 31.592 20.8928 29.8234 17.2618 31.2752C13.6308 32.7269 11.8675 36.8481 13.3185 40.4809Z" fill="url(#paint6_linear_3041_2922)"/>
<path d="M20.4995 39.3733C20.189 39.4975 19.8365 39.3462 19.7124 39.0355C19.6934 38.9073 18.9454 37.7065 19.952 36.7218C20.3198 36.3619 20.4263 35.8037 20.217 35.3327C19.9606 34.7559 19.2684 34.4589 18.6738 34.6708C17.9887 34.921 17.6843 35.6612 17.9383 36.297C18.0624 36.6077 17.9112 36.9604 17.6006 37.0845C17.2901 37.2087 16.9375 37.0574 16.8134 36.7467C16.2947 35.4481 16.967 33.9837 18.2675 33.5292C19.4647 33.1024 20.8072 33.6784 21.3238 34.8403C21.7378 35.7716 21.527 36.8759 20.7989 37.5881C20.6416 37.7421 20.5921 37.972 20.6727 38.1737L20.8372 38.5857C20.9613 38.8964 20.8101 39.2491 20.4995 39.3733ZM21.87 40.5866C22.0384 41.0081 21.8344 41.4886 21.4131 41.657C20.9918 41.8255 20.5106 41.619 20.3422 41.1975C20.1739 40.776 20.3812 40.2969 20.8025 40.1285C21.2238 39.9601 21.7016 40.1651 21.87 40.5866Z" fill="white"/>
<path d="M140.583 139.173H24.0197C17.4801 139.173 12.188 133.878 12.188 127.348V54.8679C12.188 50.0814 16.0663 46.2012 20.8504 46.2012H61.7294C64.1696 46.2012 66.4967 47.2309 68.1384 49.0373L77.6373 59.4889C79.279 61.2952 81.606 62.325 84.0463 62.325H120.089C124.873 62.325 128.751 66.2052 128.751 70.9917V127.348C128.751 133.878 134.043 139.173 140.583 139.173Z" fill="url(#paint7_linear_3041_2922)"/>
<path d="M93.379 122.428C84.3902 135.181 68.2664 139.906 54.2628 134.991C51.9013 143.615 47.4324 153.256 44.9947 156.724C40.602 162.961 31.9941 164.472 25.7477 160.064C19.514 155.67 18.0286 147.045 22.4087 140.808C24.8463 137.378 32.2989 130.037 39.5482 124.905C29.6835 113.321 28.4901 96.1344 37.6438 83.14C48.4735 67.7448 69.7518 64.0486 85.1519 74.8963C100.539 85.7565 104.221 107.033 93.379 122.428Z" fill="url(#paint8_linear_3041_2922)"/>
<path d="M86.046 117.264C78.049 128.611 62.3792 131.334 51.0382 123.333C39.6973 115.345 36.9755 99.6541 44.9725 88.3076C52.9565 76.9611 68.6393 74.2381 79.9802 82.2389C91.3211 90.2401 94.043 105.918 86.046 117.264Z" fill="url(#paint9_linear_3041_2922)"/>
<path d="M145.56 14.6832C144.683 16.6203 145.568 18.9139 147.504 19.7911C149.44 20.6684 151.72 19.8093 152.597 17.8722C153.474 15.9353 152.627 13.6273 150.691 12.7501C148.755 11.8728 146.437 12.7463 145.56 14.6832ZM139.871 7.1059C139.313 8.3388 139.876 9.79859 141.108 10.3569C142.34 10.9153 143.792 10.3685 144.35 9.13558C144.908 7.90278 144.369 6.43382 143.137 5.87547C141.905 5.31713 140.429 5.87309 139.871 7.1059ZM10.8226 155.883C9.43798 157.496 9.64458 159.946 11.257 161.331C12.8694 162.716 15.2994 162.532 16.684 160.918C18.0685 159.305 17.9023 156.852 16.2899 155.467C14.6775 154.082 12.2071 154.27 10.8226 155.883ZM7.48564 147.013C6.60436 148.04 6.73586 149.599 7.76212 150.481C8.78838 151.363 10.335 151.245 11.2163 150.218C12.0975 149.192 11.9917 147.63 10.9655 146.749C9.9392 145.867 8.36684 145.987 7.48564 147.013ZM148.302 148.247C146.917 149.86 147.124 152.31 148.736 153.695C150.349 155.08 152.779 154.896 154.163 153.282C155.548 151.669 155.382 149.216 153.769 147.831C152.157 146.446 149.686 146.634 148.302 148.247Z" fill="#D6DCE8"/>
<defs>
<linearGradient id="paint0_linear_3041_2922" x1="86.9012" y1="66.6018" x2="87.1046" y2="46.4967" gradientUnits="userSpaceOnUse">
<stop stop-color="#989FB0"/>
<stop offset="1" stop-color="#AAB2C5"/>
</linearGradient>
<linearGradient id="paint1_linear_3041_2922" x1="101.967" y1="13.4205" x2="116.304" y2="16.8616" gradientUnits="userSpaceOnUse">
<stop stop-color="#D6DCE8"/>
<stop offset="1" stop-color="white"/>
</linearGradient>
<linearGradient id="paint2_linear_3041_2922" x1="76.7089" y1="31.2374" x2="98.9126" y2="36.5667" gradientUnits="userSpaceOnUse">
<stop stop-color="#989FB0"/>
<stop offset="1" stop-color="#AAB2C5"/>
</linearGradient>
<linearGradient id="paint3_linear_3041_2922" x1="152.81" y1="54.0853" x2="163.139" y2="59.3537" gradientUnits="userSpaceOnUse">
<stop stop-color="#D6DCE8"/>
<stop offset="1" stop-color="white"/>
</linearGradient>
<linearGradient id="paint4_linear_3041_2922" x1="130.224" y1="63.0562" x2="146.22" y2="71.2151" gradientUnits="userSpaceOnUse">
<stop stop-color="#989FB0"/>
<stop offset="1" stop-color="#AAB2C5"/>
</linearGradient>
<linearGradient id="paint5_linear_3041_2922" x1="19.7166" y1="22.4075" x2="28.2062" y2="19.0166" gradientUnits="userSpaceOnUse">
<stop stop-color="#D6DCE8"/>
<stop offset="1" stop-color="white"/>
</linearGradient>
<linearGradient id="paint6_linear_3041_2922" x1="13.3111" y1="40.4755" x2="26.4592" y2="35.2237" gradientUnits="userSpaceOnUse">
<stop stop-color="#989FB0"/>
<stop offset="1" stop-color="#AAB2C5"/>
</linearGradient>
<linearGradient id="paint7_linear_3041_2922" x1="81.3749" y1="55.951" x2="73.9659" y2="116.483" gradientUnits="userSpaceOnUse">
<stop stop-color="#D6DCE8"/>
<stop offset="1" stop-color="white"/>
</linearGradient>
<linearGradient id="paint8_linear_3041_2922" x1="66.6604" y1="133.773" x2="52.1285" y2="110.795" gradientUnits="userSpaceOnUse">
<stop stop-color="#989FB0"/>
<stop offset="1" stop-color="#AAB2C5"/>
</linearGradient>
<linearGradient id="paint9_linear_3041_2922" x1="40.382" y1="102.786" x2="90.6363" y2="102.786" gradientUnits="userSpaceOnUse">
<stop stop-color="#D6DCE8"/>
<stop offset="1" stop-color="#F1F3F9"/>
</linearGradient>
</defs>
</svg>
