<svg width="16" height="20" viewBox="0 0 16 20" fill="none" xmlns="http://www.w3.org/2000/svg">
<path d="M9.43263 1C7.88332 1 6.16748 1.27341 4.77568 2.11614C3.38614 2.95999 2.36226 4.44067 2.36226 6.56831C2.36226 7.7092 2.26325 8.04786 2.06973 8.42366C1.87733 8.79833 1.49816 9.28102 1.0436 10.3679C1.00783 10.4534 0.993733 10.5464 1.00256 10.6386C1.01138 10.7309 1.04285 10.8195 1.09417 10.8966C1.14549 10.9738 1.21508 11.0371 1.29675 11.0809C1.37841 11.1246 1.46963 11.1476 1.56229 11.1476H2.71105C2.71105 11.4177 2.7088 11.7574 2.7043 12.1749L2.6998 12.5529C2.69643 12.8241 2.68518 13.1335 2.7043 13.4553C2.73131 13.9368 2.81682 14.4724 3.17911 14.9213C3.53916 15.3703 4.15798 15.629 4.94108 15.629H6.05722V18.4374C6.05722 18.5866 6.11649 18.7297 6.22199 18.8352C6.32749 18.9407 6.47058 19 6.61978 19H13.9028C14.0446 19.0016 14.1822 18.9516 14.2899 18.8593C14.435 18.7356 14.4924 18.5387 14.4958 18.4261C14.5014 18.2011 14.4451 18.1505 14.4147 18.0886C14.354 17.9626 14.2921 17.8714 14.2145 17.7432C14.0021 17.4042 13.822 17.0459 13.6767 16.6732C13.3279 15.7584 13.1051 14.4623 13.8015 12.7521C14.1447 11.9105 14.5734 11.3906 14.9571 10.5896C15.3419 9.7907 15.6209 8.75558 15.6209 7.04762C15.6208 6.97304 15.6059 6.89923 15.577 6.83047C15.5763 6.83046 15.5755 6.83046 15.5748 6.83047C15.4476 3.36054 12.5965 1.0045 9.43263 1.0045V1ZM9.43263 2.12514C12.1161 2.12514 14.4958 4.05137 14.4958 7.04762C14.4958 8.63856 14.2606 9.43854 13.9422 10.1024C13.6238 10.7662 13.1613 11.3423 12.7608 12.3279C11.9529 14.3081 12.2038 15.9621 12.6258 17.0726C12.7608 17.4281 12.8913 17.6318 13.0252 17.8748H7.18348V15.0665C7.18348 14.9173 7.12421 14.7742 7.01871 14.6687C6.9132 14.5632 6.77011 14.5039 6.62091 14.5039H4.94108C4.37626 14.5039 4.18274 14.3734 4.05559 14.2159C3.92845 14.0584 3.85082 13.7714 3.82944 13.3923C3.81482 13.138 3.82157 12.8522 3.82494 12.5653L3.82944 12.1872C3.83394 11.7237 3.83844 11.322 3.83619 11.0317C3.83554 10.9139 3.83254 10.7961 3.82719 10.6784C3.82547 10.6333 3.82172 10.5882 3.81594 10.5434C3.81257 10.5187 3.80919 10.4905 3.79119 10.4298C3.78558 10.4111 3.77919 10.3928 3.77206 10.3747C3.76306 10.3521 3.72705 10.2846 3.72593 10.2846L3.59429 10.1395L3.44802 10.0607L3.24887 10.0225H2.49278C2.68743 9.67594 2.91133 9.24389 3.06885 8.9401C3.33888 8.41578 3.48627 7.78683 3.48627 6.56831C3.48627 4.78046 4.23562 3.75996 5.36075 3.07926C6.48589 2.39742 8.02058 2.12514 9.43263 2.12514ZM8.63491 4.38667C7.93481 4.44952 7.28347 4.77171 6.80866 5.29002C6.33386 5.80833 6.06986 6.48535 6.06847 7.18826C6.06847 7.33746 6.12774 7.48055 6.23324 7.58606C6.33874 7.69156 6.48183 7.75083 6.63104 7.75083C6.78024 7.75083 6.92333 7.69156 7.02883 7.58606C7.13433 7.48055 7.1936 7.33746 7.1936 7.18826C7.1936 6.3084 7.85744 5.58381 8.73392 5.5073C9.15462 5.46921 9.57425 5.59091 9.90929 5.84818C10.2443 6.10545 10.4702 6.47944 10.542 6.89572C10.6171 7.31189 10.5325 7.74106 10.3052 8.09765C10.0779 8.45425 9.72457 8.71207 9.31562 8.81971C9.21919 8.84554 9.13137 8.89657 9.06118 8.96755C8.99098 9.03854 8.94094 9.12692 8.91619 9.22363C8.91619 9.22438 8.91619 9.22513 8.91619 9.22588C8.89209 9.29103 8.88027 9.36008 8.88131 9.42953V11.6798C8.88131 11.829 8.94058 11.9721 9.04609 12.0776C9.15159 12.1831 9.29468 12.2424 9.44388 12.2424C9.59308 12.2424 9.73618 12.1831 9.84168 12.0776C9.94718 11.9721 10.0064 11.829 10.0064 11.6798V9.7592C10.5826 9.50601 11.0574 9.06719 11.3551 8.51273C11.6529 7.95827 11.7564 7.32009 11.6492 6.69995C11.5255 6.00804 11.1478 5.38727 10.5902 4.95934C10.0326 4.53141 9.33527 4.32717 8.63491 4.38667ZM9.39325 13.3675C9.25098 13.3775 9.1178 13.4412 9.02067 13.5456C8.92355 13.65 8.86971 13.7875 8.87006 13.9301C8.87006 14.0793 8.92933 14.2224 9.03483 14.3279C9.14034 14.4334 9.28343 14.4927 9.43263 14.4927C9.58183 14.4927 9.72492 14.4334 9.83043 14.3279C9.93593 14.2224 9.9952 14.0793 9.9952 13.9301C9.9952 13.7809 9.93593 13.6378 9.83043 13.5323C9.72492 13.4268 9.58183 13.3675 9.43263 13.3675C9.41951 13.3671 9.40637 13.3671 9.39325 13.3675Z" fill="#24292D" stroke="#24292D" stroke-width="0.5"/>
</svg>
