<svg width="14" height="14" viewBox="0 0 14 14" fill="none" xmlns="http://www.w3.org/2000/svg">
<path d="M12.1929 7.72804C12.0388 7.72804 11.8777 7.67886 11.7236 7.64373C11.4118 7.5738 11.1052 7.48225 10.806 7.36974C10.4811 7.25117 10.1239 7.25733 9.80324 7.38703C9.48256 7.51672 9.22103 7.7608 9.06897 8.07229L8.91488 8.39546C8.23464 8.0085 7.60622 7.53635 7.04473 6.99036C6.5004 6.42718 6.02967 5.79686 5.64387 5.11456L5.96607 4.96702C6.27662 4.81451 6.51996 4.55219 6.64927 4.23053C6.77857 3.90888 6.78471 3.55062 6.6665 3.2247C6.55526 2.92192 6.46401 2.61213 6.39333 2.29734C6.35831 2.14277 6.33029 1.98119 6.30928 1.82663C6.22422 1.33177 5.96581 0.883625 5.58057 0.56291C5.19533 0.242194 4.70859 0.06998 4.20799 0.0772803H2.0997C1.80359 0.0768913 1.51074 0.139279 1.24035 0.260353C0.969966 0.381428 0.728143 0.558455 0.530737 0.779829C0.329237 1.00721 0.179202 1.27565 0.0909394 1.56671C0.00267694 1.85777 -0.0217205 2.16454 0.0194233 2.46595C0.400168 5.39005 1.73212 8.10647 3.80875 10.194C5.88997 12.2769 8.59819 13.6129 11.5135 13.9948C11.6044 14.0017 11.6957 14.0017 11.7866 13.9948C12.3031 13.9955 12.8018 13.8055 13.1875 13.4608C13.4082 13.2628 13.5847 13.0203 13.7054 12.7491C13.8261 12.4779 13.8883 12.1841 13.8879 11.8871V9.77948C13.8842 9.29405 13.7134 8.8248 13.4046 8.45103C13.0958 8.07726 12.6677 7.82188 12.1929 7.72804ZM12.5361 11.9433C12.5359 12.0414 12.5152 12.1383 12.4754 12.2278C12.4356 12.3173 12.3775 12.3975 12.305 12.4632C12.2282 12.5334 12.1368 12.5855 12.0375 12.6159C11.9382 12.6463 11.8333 12.6541 11.7306 12.6389C9.1168 12.2965 6.68769 11.1017 4.81737 9.23852C2.94545 7.36093 1.7439 4.91599 1.39927 2.28328C1.38405 2.18024 1.39187 2.0751 1.42216 1.97546C1.45244 1.87583 1.50444 1.78419 1.57438 1.70719C1.64065 1.63353 1.72173 1.57479 1.81228 1.53483C1.90282 1.49487 2.00078 1.4746 2.0997 1.47535H4.20099C4.3629 1.47138 4.52118 1.52382 4.64889 1.62373C4.77659 1.72364 4.86584 1.86486 4.90142 2.02334C4.90142 2.21303 4.96446 2.40974 5.00648 2.59943C5.08744 2.96747 5.19512 3.32908 5.32868 3.68136L4.34808 4.14504C4.17953 4.22264 4.04855 4.36413 3.98386 4.53847C3.9138 4.70951 3.9138 4.90136 3.98386 5.0724C4.99191 7.23819 6.72761 8.97914 8.88686 9.99025C9.05739 10.0605 9.24866 10.0605 9.41919 9.99025C9.593 9.92536 9.73406 9.79398 9.81143 9.62492L10.2527 8.64135C10.6141 8.77352 10.9838 8.88148 11.3594 8.96452C11.5415 9.00668 11.7376 9.04181 11.9267 9.06991C12.0847 9.1056 12.2255 9.19511 12.3251 9.3232C12.4247 9.45129 12.477 9.61005 12.4731 9.77246L12.5361 11.9433ZM8.40357 0C8.24247 0 8.07436 0 7.91327 0C7.7275 0.0158378 7.55562 0.105045 7.43543 0.247998C7.31523 0.39095 7.25658 0.575938 7.27237 0.762266C7.28816 0.948593 7.3771 1.121 7.51962 1.24155C7.66214 1.36211 7.84657 1.42094 8.03234 1.4051H8.40357C9.51816 1.4051 10.5871 1.84921 11.3752 2.63973C12.1634 3.43025 12.6061 4.50243 12.6061 5.62039C12.6061 5.74685 12.6061 5.86628 12.6061 5.99274C12.5906 6.17808 12.649 6.36204 12.7685 6.50427C12.888 6.6465 13.0588 6.73541 13.2435 6.75149H13.2996C13.4749 6.75221 13.6441 6.68693 13.7738 6.56856C13.9035 6.45019 13.9842 6.28734 14 6.11218C14 5.95059 14 5.78198 14 5.62039C14 4.13099 13.4106 2.70248 12.3613 1.64866C11.3119 0.59483 9.88848 0.00186176 8.40357 0ZM9.80443 5.62039C9.80443 5.80672 9.87822 5.98542 10.0096 6.11717C10.1409 6.24892 10.3191 6.32294 10.5049 6.32294C10.6906 6.32294 10.8688 6.24892 11.0001 6.11717C11.1315 5.98542 11.2053 5.80672 11.2053 5.62039C11.2053 4.87508 10.9101 4.1603 10.3847 3.63328C9.85926 3.10627 9.14663 2.8102 8.40357 2.8102C8.2178 2.8102 8.03964 2.88421 7.90829 3.01597C7.77693 3.14772 7.70314 3.32642 7.70314 3.51274C7.70314 3.69907 7.77693 3.87777 7.90829 4.00952C8.03964 4.14128 8.2178 4.21529 8.40357 4.21529C8.7751 4.21529 9.13141 4.36333 9.39412 4.62684C9.65684 4.89034 9.80443 5.24774 9.80443 5.62039Z" fill="#24292D"/>
</svg>
