<svg width="14" height="18" viewBox="0 0 14 18" fill="none" xmlns="http://www.w3.org/2000/svg">
<path d="M12.4444 2.25007H11.6667V1.47532C11.6667 0.655573 10.948 -0.00817388 10.1111 7.60821e-05C9.99364 0.00183701 9.87685 0.0177093 9.76344 0.0473259L1.47233 2.25832C1.07565 2.27826 0.701958 2.44401 0.428107 2.72147C0.154255 2.99893 0.00105234 3.36702 0 3.75006V16.5C0 17.3265 0.697667 18 1.55556 18H12.4444C13.3023 18 14 17.3265 14 16.5V3.75006C14 2.92206 13.3023 2.25007 12.4444 2.25007Z" fill="#24292D"/>
<path d="M9.96334 0.772947C10.4176 0.660448 10.8889 1.0152 10.8889 1.47569V2.25044H4.4209L9.96334 0.772947Z" fill="white"/>
<path d="M13.2223 16.4999C13.2223 16.9132 12.8731 17.2499 12.4445 17.2499H1.55561C1.12705 17.2499 0.777832 16.9132 0.777832 16.4999V3.75C0.777832 3.33675 1.12705 3 1.55561 3H12.4445C12.8731 3 13.2223 3.33675 13.2223 3.75V16.4999Z" fill="white"/>
<path d="M10.8003 13.521L3.0217 13.5195C2.91856 13.5195 2.81965 13.559 2.74672 13.6294C2.67378 13.6997 2.63281 13.7951 2.63281 13.8945C2.63281 13.994 2.67378 14.0894 2.74672 14.1597C2.81965 14.23 2.91856 14.2695 3.0217 14.2695L10.8003 14.271C10.9034 14.271 11.0023 14.2315 11.0752 14.1612C11.1482 14.0909 11.1891 13.9955 11.1891 13.896C11.1891 13.7966 11.1482 13.7012 11.0752 13.6309C11.0023 13.5605 10.9034 13.521 10.8003 13.521ZM9.24392 15.021H4.57726C4.47412 15.021 4.3752 15.0605 4.30227 15.1309C4.22934 15.2012 4.18837 15.2966 4.18837 15.396C4.18837 15.4955 4.22934 15.5909 4.30227 15.6612C4.3752 15.7315 4.47412 15.771 4.57726 15.771H9.24392C9.34706 15.771 9.44598 15.7315 9.51891 15.6612C9.59184 15.5909 9.63281 15.4955 9.63281 15.396C9.63281 15.2966 9.59184 15.2012 9.51891 15.1309C9.44598 15.0605 9.34706 15.021 9.24392 15.021Z" fill="#24292D"/>
<path d="M6.99995 12.75C9.3625 12.75 11.2777 10.9031 11.2777 8.62498C11.2777 6.34682 9.3625 4.5 6.99995 4.5C4.63739 4.5 2.72217 6.34682 2.72217 8.62498C2.72217 10.9031 4.63739 12.75 6.99995 12.75Z" fill="#24292D"/>
<path d="M10.4613 8.24999H8.93684C8.89328 7.22849 8.67473 6.213 8.29517 5.496C8.88047 5.72355 9.39089 6.09978 9.77217 6.58471C10.1534 7.06963 10.3913 7.64512 10.4605 8.24999H10.4613ZM7.00017 12C6.55451 12 5.92762 10.8382 5.84906 8.99998H8.15128C8.07273 10.8382 7.44584 12 7.00017 12ZM5.84906 8.24999C5.92762 6.4125 6.55451 5.25 7.00017 5.25C7.44584 5.25 8.07273 6.4125 8.15128 8.24999H5.84906ZM5.70517 5.496C5.32562 6.213 5.10628 7.22849 5.06351 8.24999H3.53906C3.60832 7.64503 3.84632 7.06949 4.22773 6.58456C4.60915 6.09963 5.11973 5.72344 5.70517 5.496ZM3.53906 8.99998H5.06351C5.10706 10.0215 5.32562 11.0377 5.70517 11.754C5.11987 11.5264 4.60945 11.1502 4.22818 10.6653C3.84691 10.1803 3.60825 9.60486 3.53906 8.99998ZM8.29517 11.754C8.67473 11.0377 8.89406 10.0215 8.93684 8.99998H10.4613C10.392 9.60494 10.154 10.1805 9.77261 10.6654C9.3912 11.1503 8.88062 11.5265 8.29517 11.754Z" fill="white"/>
</svg>
