<svg width="14" height="14" viewBox="0 0 14 14" fill="none" xmlns="http://www.w3.org/2000/svg">
<path d="M7 14C3.15 14 0 10.85 0 7C0 3.15 3.15 0 7 0C10.85 0 14 3.15 14 7C14 10.85 10.85 14 7 14ZM7 1.16667C3.79167 1.16667 1.16667 3.79167 1.16667 7C1.16667 10.2083 3.79167 12.8333 7 12.8333C10.2083 12.8333 12.8333 10.2083 12.8333 7C12.8333 3.79167 10.2083 1.16667 7 1.16667Z" fill="#2DA70F"/>
<path d="M6.41781 10.5C6.18448 10.5 6.00948 10.3833 5.83448 10.2083C5.54281 9.8 5.77615 9.21667 6.41781 7.64167C6.53448 7.40833 6.65115 7.11667 6.76781 6.88333C6.53448 7.05833 6.18448 7.05833 5.95115 6.825C5.71781 6.59167 5.71781 6.24167 5.95115 6.00833C6.06781 5.95 6.76781 5.25 7.58448 5.25C7.81781 5.25 7.99281 5.36667 8.16781 5.54167C8.45948 5.95 8.22615 6.53333 7.58448 8.10833C7.46781 8.34167 7.35115 8.63333 7.23448 8.86667C7.46781 8.69167 7.81781 8.69167 8.05115 8.925C8.28448 9.15833 8.28448 9.50833 8.05115 9.74167C7.93448 9.8 7.23448 10.5 6.41781 10.5Z" fill="#2DA70F"/>
<path d="M7.875 4.66602C8.35825 4.66602 8.75 4.27426 8.75 3.79102C8.75 3.30777 8.35825 2.91602 7.875 2.91602C7.39175 2.91602 7 3.30777 7 3.79102C7 4.27426 7.39175 4.66602 7.875 4.66602Z" fill="#2DA70F"/>
<path d="M7.87504 4.95833C7.23337 4.95833 6.70837 4.43333 6.70837 3.79167C6.70837 3.15 7.23337 2.625 7.87504 2.625C8.51671 2.625 9.04171 3.15 9.04171 3.79167C9.04171 4.43333 8.51671 4.95833 7.87504 4.95833ZM7.87504 3.20833C7.52504 3.20833 7.29171 3.44167 7.29171 3.79167C7.29171 4.14167 7.52504 4.375 7.87504 4.375C8.22504 4.375 8.45837 4.14167 8.45837 3.79167C8.45837 3.44167 8.22504 3.20833 7.87504 3.20833Z" fill="#2DA70F"/>
</svg>
