<svg width="12" height="14" viewBox="0 0 12 14" fill="none" xmlns="http://www.w3.org/2000/svg">
<path d="M8.50359 3.53255C8.50359 3.66313 8.49409 3.7937 8.47667 3.92279C8.48458 3.87086 8.4925 3.81744 8.49883 3.76551C8.46083 4.02369 8.38799 4.27446 8.28189 4.51483C8.30247 4.46735 8.32464 4.41987 8.34523 4.37239C8.23913 4.60683 8.10295 4.82643 7.93667 5.02823L8.03644 4.90804C7.87175 5.10687 7.68014 5.28641 7.46794 5.44073L7.59621 5.34725C7.38084 5.50157 7.14648 5.63066 6.89627 5.73007C6.94695 5.71078 6.99762 5.69001 7.0483 5.67072C6.79176 5.77014 6.52414 5.83839 6.2486 5.874C6.30402 5.86658 6.36103 5.85916 6.41646 5.85323C6.13933 5.88736 5.86063 5.88736 5.5835 5.85323C5.63893 5.86065 5.69594 5.86807 5.75136 5.874C5.47582 5.83839 5.2082 5.77014 4.95166 5.67072C5.00234 5.69001 5.05301 5.71078 5.10369 5.73007C4.85348 5.63066 4.61912 5.50305 4.40375 5.34725L4.53202 5.44073C4.31982 5.28641 4.12821 5.10687 3.96352 4.90804L4.06329 5.02823C3.8986 4.82643 3.76083 4.60683 3.65473 4.37239C3.67532 4.41987 3.69749 4.46735 3.71807 4.51483C3.61197 4.27446 3.53913 4.02369 3.50112 3.76551C3.50904 3.81744 3.51696 3.87086 3.52329 3.92279C3.48687 3.66313 3.48687 3.40198 3.52329 3.14231C3.51538 3.19424 3.50746 3.24766 3.50112 3.29959C3.53913 3.04141 3.61197 2.79065 3.71807 2.55027C3.69749 2.59775 3.67532 2.64523 3.65473 2.69272C3.76083 2.45827 3.89701 2.23867 4.06329 2.03687L3.96352 2.15706C4.12821 1.95823 4.31982 1.77869 4.53202 1.62437L4.40375 1.71785C4.61912 1.56354 4.85348 1.43445 5.10369 1.33503C5.05301 1.35432 5.00234 1.37509 4.95166 1.39438C5.2082 1.29497 5.47582 1.22671 5.75136 1.1911C5.69594 1.19852 5.63893 1.20594 5.5835 1.21187C5.86063 1.17775 6.13933 1.17775 6.41646 1.21187C6.36103 1.20446 6.30402 1.19704 6.2486 1.1911C6.52414 1.22671 6.79176 1.29497 7.0483 1.39438C6.99762 1.37509 6.94695 1.35432 6.89627 1.33503C7.14648 1.43445 7.38084 1.56205 7.59621 1.71785L7.46794 1.62437C7.68014 1.77869 7.87175 1.95823 8.03644 2.15706L7.93667 2.03687C8.10136 2.23867 8.23913 2.45827 8.34523 2.69272C8.32464 2.64523 8.30247 2.59775 8.28189 2.55027C8.38799 2.79065 8.46083 3.04141 8.49883 3.29959C8.49092 3.24766 8.483 3.19424 8.47667 3.14231C8.49409 3.2714 8.502 3.40198 8.50359 3.53255C8.50517 3.84267 8.79338 4.14091 9.13701 4.12608C9.47906 4.11124 9.77202 3.86493 9.77043 3.53255C9.76727 2.82181 9.53923 2.09474 9.09267 1.51606C8.97232 1.36026 8.84405 1.20742 8.70153 1.06943C8.55743 0.929951 8.39907 0.809763 8.23438 0.692542C7.93509 0.478873 7.60096 0.321589 7.24624 0.199917C5.81629 -0.291224 4.09179 0.1465 3.12424 1.25045C2.99122 1.4018 2.86453 1.55909 2.75685 1.72824C2.64917 1.89591 2.56524 2.07397 2.48765 2.25499C2.34196 2.59033 2.26753 2.94645 2.23744 3.30701C2.17885 4.01331 2.37521 4.75076 2.76794 5.35615C3.14641 5.94077 3.71807 6.4423 4.38633 6.72571C4.5827 6.8088 4.78381 6.88596 4.99284 6.94086C5.20028 6.99428 5.4109 7.02395 5.62468 7.0477C6.01423 7.09073 6.41171 7.06105 6.79651 6.98834C8.25813 6.70939 9.48223 5.52976 9.70867 4.14537C9.74193 3.94357 9.76727 3.74177 9.76727 3.537C9.76885 3.22689 9.47431 2.92864 9.13384 2.94348C8.79179 2.95387 8.50359 3.20018 8.50359 3.53255ZM10.605 12.8108H2.47973C2.12026 12.8108 1.76079 12.8138 1.40133 12.8108C1.36174 12.8108 1.32215 12.8078 1.28414 12.8034C1.33957 12.8108 1.39657 12.8182 1.452 12.8242C1.38866 12.8153 1.32848 12.7989 1.26989 12.7767C1.32056 12.796 1.37124 12.8167 1.42191 12.836C1.35857 12.8108 1.29998 12.7782 1.24455 12.7381L1.37282 12.8316C1.32531 12.7945 1.28098 12.7544 1.24297 12.7099L1.34273 12.8301C1.29998 12.7782 1.26672 12.7233 1.23822 12.6639C1.25881 12.7114 1.28098 12.7589 1.30156 12.8064C1.27781 12.7515 1.26197 12.6936 1.25089 12.6357C1.25881 12.6877 1.26672 12.7411 1.27306 12.793C1.24772 12.6135 1.26514 12.4235 1.26514 12.2425V11.6074C1.26514 11.4487 1.27464 11.2914 1.29681 11.1341C1.28889 11.186 1.28098 11.2395 1.27464 11.2914C1.31898 10.9872 1.40449 10.689 1.53276 10.4056C1.51217 10.453 1.49 10.5005 1.46942 10.548C1.59294 10.2779 1.75129 10.0242 1.9429 9.79126L1.84314 9.91145C2.03475 9.68146 2.25486 9.47372 2.5019 9.29418L2.37363 9.38766C2.62225 9.20812 2.89304 9.05974 3.18125 8.944C3.13057 8.96329 3.0799 8.98407 3.02922 9.00336C3.33168 8.88465 3.6484 8.80304 3.97461 8.76149C3.91918 8.76891 3.86218 8.77633 3.80675 8.78227C4.04112 8.75408 4.2739 8.75259 4.50985 8.75259H7.40776C7.66905 8.75259 7.92875 8.75111 8.19004 8.78227C8.13462 8.77485 8.07761 8.76743 8.02218 8.76149C8.34681 8.80304 8.66511 8.88317 8.96757 9.00336C8.91689 8.98407 8.86622 8.96329 8.81555 8.944C9.10375 9.05974 9.37454 9.20812 9.62316 9.38766L9.49489 9.29418C9.74035 9.47372 9.96204 9.67997 10.1537 9.91145L10.0539 9.79126C10.2455 10.0242 10.4039 10.2779 10.5274 10.548C10.5068 10.5005 10.4846 10.453 10.464 10.4056C10.5907 10.689 10.6778 10.9857 10.7222 11.2914C10.7142 11.2395 10.7063 11.186 10.7 11.1341C10.7301 11.3582 10.7317 11.5807 10.7317 11.8063V12.5408C10.7317 12.6253 10.7348 12.7099 10.7237 12.793C10.7317 12.7411 10.7396 12.6877 10.7459 12.6357C10.7364 12.6951 10.719 12.7515 10.6952 12.8064C10.7158 12.7589 10.738 12.7114 10.7586 12.6639C10.7317 12.7233 10.6968 12.7782 10.6541 12.8301L10.7538 12.7099C10.7142 12.7544 10.6715 12.796 10.624 12.8316L10.7522 12.7381C10.6968 12.7782 10.6382 12.8093 10.5749 12.836C10.6256 12.8167 10.6762 12.796 10.7269 12.7767C10.6683 12.7989 10.6066 12.8138 10.5448 12.8242C10.6002 12.8167 10.6572 12.8093 10.7127 12.8034C10.6778 12.8078 10.6414 12.8093 10.605 12.8108C10.4419 12.8123 10.274 12.8761 10.1568 12.9844C10.0476 13.0868 9.96363 13.256 9.97154 13.4043C9.98738 13.7219 10.2503 14.0023 10.605 13.9979C11.221 13.989 11.7625 13.6121 11.9431 13.0586C12.0143 12.839 11.9985 12.6031 11.9985 12.3775C11.9985 11.8612 12.0159 11.3493 11.9209 10.8373C11.7816 10.088 11.3793 9.38321 10.8283 8.82975C10.2772 8.27629 9.53607 7.86973 8.7522 7.6887C8.30247 7.58483 7.84958 7.56851 7.39034 7.56851H4.58111C4.11079 7.56851 3.64364 7.58929 3.186 7.70354C2.40847 7.89643 1.67686 8.30745 1.13687 8.86536C0.592127 9.42772 0.197821 10.134 0.0695527 10.8878C-0.0159595 11.3938 0.00145963 11.9012 0.00145963 12.4117C0.00145963 12.6461 -0.0127923 12.8909 0.0774705 13.115C0.194654 13.4028 0.381514 13.6299 0.655469 13.8005C0.86925 13.9326 1.14004 13.9964 1.39341 13.9993C1.51693 14.0008 1.64044 13.9993 1.76396 13.9993H10.6066C10.9375 13.9993 11.2558 13.7263 11.24 13.4058C11.2241 13.0823 10.9613 12.8108 10.605 12.8108Z" fill="white"/>
</svg>
