<svg width="20" height="20" viewBox="0 0 20 20" fill="none" xmlns="http://www.w3.org/2000/svg">
<path d="M11.4735 4.16068L5.62065 10.0712C5.06302 10.6353 4.74984 11.3997 4.74984 12.1966C4.74984 12.9936 5.06302 13.758 5.62065 14.322C6.17915 14.8851 6.93618 15.2014 7.72548 15.2014C8.51479 15.2014 9.27182 14.8851 9.83032 14.322L14.8161 9.2889C14.9066 9.19942 14.9785 9.09272 15.0279 8.97498C15.0772 8.85724 15.103 8.73079 15.1036 8.60294C15.1042 8.4751 15.0798 8.34839 15.0316 8.23015C14.9834 8.11191 14.9125 8.00449 14.823 7.91409C14.7335 7.82369 14.6271 7.7521 14.51 7.70347C14.3928 7.65485 14.2673 7.63014 14.1407 7.63079C14.0141 7.63143 13.8888 7.65742 13.7722 7.70724C13.6556 7.75706 13.5499 7.82972 13.4613 7.92103L8.47548 12.9542C8.27624 13.1543 8.00658 13.2667 7.72548 13.2667C7.44439 13.2667 7.17473 13.1543 6.97548 12.9542C6.77688 12.7532 6.66535 12.4808 6.66535 12.1969C6.66535 11.913 6.77688 11.6407 6.97548 11.4397L12.8284 5.52921C13.4065 4.94708 14.1896 4.62018 15.0061 4.62018C15.8226 4.62018 16.6058 4.94708 17.1839 5.52921C17.4706 5.81742 17.698 6.16015 17.8528 6.53759C18.0076 6.91503 18.0868 7.3197 18.0858 7.72823C18.0868 8.13675 18.0077 8.54144 17.8529 8.91888C17.698 9.29633 17.4707 9.63905 17.1839 9.92724L10.6174 16.5575C9.65419 17.53 8.37355 18.0648 7.01097 18.0648C5.64839 18.0648 4.36968 17.53 3.40645 16.5575C1.41806 14.55 1.41806 11.2847 3.40645 9.27718L10.9523 1.65813C11.0427 1.56864 11.1147 1.46195 11.164 1.3442C11.2134 1.22646 11.2391 1.10001 11.2397 0.972167C11.2404 0.844321 11.2159 0.717616 11.1677 0.599377C11.1196 0.481138 11.0487 0.373712 10.9591 0.28331C10.8696 0.192908 10.7632 0.121325 10.6461 0.072698C10.529 0.0240713 10.4035 -0.000633364 10.2768 1.2338e-05C10.1502 0.00065804 10.025 0.0266413 9.90835 0.0764598C9.79173 0.126278 9.68605 0.198944 9.59742 0.290254L2.05161 7.90931C-0.683871 10.6705 -0.683871 15.1642 2.05161 17.9254C3.37613 19.2627 5.13742 20 7.01161 20C8.88581 20 10.6471 19.2627 11.9723 17.9254L18.5387 11.2951C20.4871 9.32799 20.4871 6.12847 18.5387 4.16133C16.5923 2.19616 13.4213 2.19355 11.4735 4.16068Z" fill="black"/>
</svg>
