<svg width="17" height="13" viewBox="0 0 17 13" fill="none" xmlns="http://www.w3.org/2000/svg">
<path d="M17 4.875V1.625C17 0.73125 16.235 0 15.3 0H1.7C0.765 0 0.00849999 0.73125 0.00849999 1.625V4.875C0.9435 4.875 1.7 5.60625 1.7 6.5C1.7 7.39375 0.9435 8.125 0 8.125V11.375C0 12.2688 0.765 13 1.7 13H15.3C16.235 13 17 12.2688 17 11.375V8.125C16.065 8.125 15.3 7.39375 15.3 6.5C15.3 5.60625 16.065 4.875 17 4.875ZM15.3 3.68875C14.2885 4.24937 13.6 5.30562 13.6 6.5C13.6 7.69438 14.2885 8.75062 15.3 9.31125V11.375H1.7V9.31125C2.7115 8.75062 3.4 7.69438 3.4 6.5C3.4 5.2975 2.72 4.24937 1.7085 3.68875L1.7 1.625H15.3V3.68875ZM6.0095 9.75L8.5 8.2225L10.9905 9.75L10.234 7.02L12.5205 5.2325L9.571 5.06187L8.5 2.4375L7.4205 5.05375L4.471 5.22438L6.7575 7.01188L6.0095 9.75Z" fill="#066AC9"/>
</svg>
