<svg width="20" height="18" viewBox="0 0 20 18" fill="none" xmlns="http://www.w3.org/2000/svg">
<path d="M20.0001 18L0.918457 0H17.0001C18.657 0 20.0001 1.34315 20.0001 3V18Z" fill="#066AC9"/>
<path d="M18.3801 5.07078C18.411 4.92492 18.2876 4.74989 18.1333 4.74989L16.3748 4.51652L15.5727 2.9996C15.5419 2.94126 15.511 2.91209 15.4493 2.88292C15.295 2.7954 15.1099 2.85374 15.0174 2.9996L14.2461 4.51652L12.4876 4.74989C12.3951 4.74989 12.3334 4.77907 12.3025 4.83741C12.1791 4.95409 12.1791 5.12912 12.3025 5.24581L13.5674 6.41267L13.2589 8.07545C13.2589 8.13379 13.2589 8.19213 13.2897 8.25048C13.3823 8.39634 13.5674 8.45468 13.7217 8.36716L15.295 7.57953L16.8684 8.36716C16.8993 8.39634 16.961 8.39634 17.0227 8.39634C17.0535 8.39634 17.0535 8.39634 17.0844 8.39634C17.2386 8.36716 17.3621 8.22131 17.3312 8.04628L17.0227 6.3835L18.2876 5.21664C18.3493 5.18747 18.3801 5.12912 18.3801 5.07078Z" fill="white"/>
</svg>
