<svg width="16" height="17" viewBox="0 0 16 17" fill="none" xmlns="http://www.w3.org/2000/svg">
<path d="M8 0.09375C5.94911 0.0996158 3.97879 0.895076 2.496 2.31584V0.895948C2.496 0.683192 2.41171 0.479149 2.26168 0.328708C2.11166 0.178267 1.90817 0.09375 1.696 0.09375C1.48383 0.09375 1.28034 0.178267 1.13031 0.328708C0.980285 0.479149 0.896 0.683192 0.896 0.895948V4.50584C0.896 4.71859 0.980285 4.92264 1.13031 5.07308C1.28034 5.22352 1.48383 5.30803 1.696 5.30803H5.296C5.50817 5.30803 5.71165 5.22352 5.86168 5.07308C6.01171 4.92264 6.096 4.71859 6.096 4.50584C6.096 4.29308 6.01171 4.08904 5.86168 3.9386C5.71165 3.78816 5.50817 3.70364 5.296 3.70364H3.376C4.40462 2.62577 5.7756 1.94093 7.25323 1.76687C8.73085 1.5928 10.2228 1.94039 11.4725 2.74986C12.7223 3.55934 13.6517 4.78012 14.1011 6.20232C14.5504 7.62452 14.4916 9.15927 13.9347 10.5427C13.3779 11.9261 12.3577 13.0718 11.0497 13.7827C9.74172 14.4936 8.22759 14.7254 6.76764 14.4381C5.3077 14.1509 3.99317 13.3625 3.05007 12.2087C2.10697 11.0549 1.59423 9.60759 1.6 8.11573C1.6 7.90297 1.51571 7.69893 1.36569 7.54849C1.21566 7.39805 1.01217 7.31353 0.8 7.31353C0.587827 7.31353 0.384344 7.39805 0.234314 7.54849C0.0842854 7.69893 0 7.90297 0 8.11573C0 9.70232 0.469192 11.2533 1.34824 12.5725C2.22729 13.8917 3.47672 14.9199 4.93853 15.5271C6.40034 16.1342 8.00887 16.2931 9.56072 15.9836C11.1126 15.674 12.538 14.91 13.6569 13.7881C14.7757 12.6662 15.5376 11.2368 15.8463 9.68074C16.155 8.12463 15.9965 6.51167 15.391 5.04585C14.7855 3.58002 13.7602 2.32716 12.4446 1.4457C11.129 0.564231 9.58225 0.09375 8 0.09375Z" fill="#24292D"/>
</svg>
