<svg width="86" height="78" viewBox="0 0 86 78" fill="none" xmlns="http://www.w3.org/2000/svg">
<path d="M85.6889 68.3282C85.2051 67.2119 84.2914 66.542 83.2164 66.542H81.698V22.5288C81.698 19.5565 79.3734 17.1284 76.5113 17.1284H66.5544V3.57831C66.5544 2.08516 65.3853 0.871094 63.9476 0.871094H22.0505C20.6128 0.871094 19.4437 2.08516 19.4437 3.57831V17.1423H9.50023C6.63811 17.1423 4.30005 19.5704 4.30005 22.5428V66.556H2.76821C1.72012 66.556 0.806391 67.2119 0.322654 68.3143C-0.255144 69.64 -0.0401495 71.2169 0.833265 72.2635L3.58788 75.4731C4.50161 76.5336 5.73783 77.1337 6.97404 77.1337H78.9972C80.2334 77.1337 81.4293 76.5476 82.3968 75.4591L85.138 72.2635C86.0382 71.2308 86.2532 69.6539 85.6889 68.3282ZM76.5113 19.8356C77.9356 19.8356 79.0912 21.0496 79.0912 22.5288V24.8035H66.5544V19.8356H76.5113ZM22.0505 3.57831H63.9476V55.3364H61.8111L53.7891 45.8472C57.9815 40.6281 58.2636 32.8972 54.0847 27.3293C49.2608 20.9101 40.3116 19.7518 34.1305 24.7616C27.9494 29.7574 26.8342 39.0512 31.6581 45.4704C34.453 49.1963 38.6454 51.15 42.8915 51.15C44.9877 51.15 47.0839 50.6616 49.0323 49.6847L52.7679 55.3224H22.0505V3.57831ZM60.7495 58.1832C60.978 58.4483 61.072 58.7832 61.0451 59.1321C61.0183 59.4809 60.8436 59.788 60.5883 60.0112C60.3195 60.2206 59.997 60.3182 59.6611 60.2624C59.3252 60.2066 59.043 60.0252 58.8414 59.7321L51.2629 48.3032C51.3704 48.2195 51.4913 48.1358 51.6123 48.052C51.7198 47.9543 51.8273 47.8567 51.9348 47.759L60.2792 57.625C60.2927 57.6389 60.2927 57.6529 60.3061 57.6529L60.7495 58.1832ZM50.0132 45.917C44.9609 50.0057 37.6511 49.0568 33.7274 43.8098C29.7903 38.5628 30.7041 30.9714 35.743 26.8967C37.8526 25.1802 40.3654 24.3569 42.8647 24.3569C46.318 24.3569 49.7445 25.9477 52.0288 29.0038C55.9659 34.2368 55.0522 41.8282 50.0132 45.917ZM9.50023 19.8356H19.4437V24.8035H6.90686V22.5288C6.90686 21.0496 8.06245 19.8356 9.50023 19.8356ZM6.90686 27.5107H19.4437V55.3364C19.4437 56.8296 20.6128 58.0436 22.0505 58.0436H54.555L56.6915 61.2672C57.2827 62.1603 58.2233 62.7743 59.258 62.9417C59.4461 62.9696 59.6477 62.9836 59.8358 62.9836C60.6823 62.9836 61.5154 62.6905 62.1873 62.1463C63.007 61.4765 63.5444 60.4717 63.6385 59.3833C63.6788 58.9228 63.6251 58.4762 63.5176 58.0297H63.9476C65.3853 58.0297 66.5544 56.8156 66.5544 55.3224V27.5107H79.0912V66.542H53.1978C52.8216 66.542 52.4588 66.7095 52.2035 67.0165L50.4164 69.1934H35.5683L33.7946 67.0165C33.5527 66.7095 33.1765 66.542 32.8002 66.542H6.90686V27.5107ZM83.2164 70.4354C83.203 70.4494 83.203 70.4494 83.2164 70.4354L80.4887 73.631C80.0453 74.1334 79.5212 74.4125 79.024 74.4125H6.98748C6.49031 74.4125 5.95282 74.1334 5.53627 73.645L2.78165 70.4494C2.64728 70.2819 2.5801 70.0028 2.62041 69.7098C2.66072 69.4167 2.78165 69.2632 2.76821 69.2493H32.1956L33.9693 71.4262C34.2111 71.7332 34.5874 71.9007 34.9636 71.9007H51.021C51.3973 71.9007 51.7601 71.7332 52.0154 71.4262L53.8025 69.2493L80.3678 69.2353C80.3812 69.2353 80.3812 69.2353 80.3946 69.2353C80.4081 69.2353 80.4081 69.2353 80.4215 69.2353H83.1761C83.2164 69.2632 83.3374 69.4167 83.3777 69.6958C83.4046 69.933 83.3777 70.24 83.2164 70.4354Z" fill="#747579"/>
<path d="M48.468 30.4138L39.6935 39.5262L37.2749 37.0144C36.7642 36.4841 35.9446 36.4841 35.434 37.0144C34.9234 37.5447 34.9234 38.3959 35.434 38.9262L38.7664 42.387C39.0217 42.6521 39.3576 42.7777 39.6935 42.7777C40.0295 42.7777 40.3654 42.6521 40.6207 42.387L50.3089 32.3256C50.8195 31.7953 50.8195 30.9441 50.3089 30.4138C49.7983 29.8835 48.9786 29.8835 48.468 30.4138ZM27.1432 10.6818H57.6053C58.3309 10.6818 58.9087 10.0818 58.9087 9.32822C58.9087 8.57466 58.3309 7.97461 57.6053 7.97461H27.1432C26.4176 7.97461 25.8398 8.57466 25.8398 9.32822C25.8398 10.0818 26.4311 10.6818 27.1432 10.6818ZM27.1432 16.9335H47.178C47.9036 16.9335 48.4814 16.3335 48.4814 15.5799C48.4814 14.8264 47.9036 14.2263 47.178 14.2263H27.1432C26.4176 14.2263 25.8398 14.8264 25.8398 15.5799C25.8398 16.3335 26.4311 16.9335 27.1432 16.9335Z" fill="#F3601E"/>
</svg>
