<svg width="12" height="12" viewBox="0 0 12 12" fill="none" xmlns="http://www.w3.org/2000/svg">
<path d="M11.8067 4.19333L7.80667 0.193333C7.74523 0.133366 7.6728 0.0858287 7.59333 0.0533333C7.51068 0.0197446 7.42254 0.00166539 7.33333 0H2C1.46957 0 0.960859 0.210714 0.585787 0.585787C0.210714 0.960859 0 1.46957 0 2V10C0 10.5304 0.210714 11.0391 0.585787 11.4142C0.960859 11.7893 1.46957 12 2 12H10C10.5304 12 11.0391 11.7893 11.4142 11.4142C11.7893 11.0391 12 10.5304 12 10V4.66667C12.0005 4.57893 11.9837 4.49195 11.9505 4.41073C11.9173 4.3295 11.8685 4.25563 11.8067 4.19333ZM4 1.33333H6.66667V2.66667H4V1.33333ZM8 10.6667H4V8.66667C4 8.48986 4.07024 8.32029 4.19526 8.19526C4.32029 8.07024 4.48986 8 4.66667 8H7.33333C7.51014 8 7.67971 8.07024 7.80474 8.19526C7.92976 8.32029 8 8.48986 8 8.66667V10.6667ZM10.6667 10C10.6667 10.1768 10.5964 10.3464 10.4714 10.4714C10.3464 10.5964 10.1768 10.6667 10 10.6667H9.33333V8.66667C9.33333 8.13623 9.12262 7.62753 8.74755 7.25245C8.37247 6.87738 7.86377 6.66667 7.33333 6.66667H4.66667C4.13623 6.66667 3.62753 6.87738 3.25245 7.25245C2.87738 7.62753 2.66667 8.13623 2.66667 8.66667V10.6667H2C1.82319 10.6667 1.65362 10.5964 1.5286 10.4714C1.40357 10.3464 1.33333 10.1768 1.33333 10V2C1.33333 1.82319 1.40357 1.65362 1.5286 1.5286C1.65362 1.40357 1.82319 1.33333 2 1.33333H2.66667V3.33333C2.66667 3.51014 2.7369 3.67971 2.86193 3.80474C2.98695 3.92976 3.15652 4 3.33333 4H7.33333C7.51014 4 7.67971 3.92976 7.80474 3.80474C7.92976 3.67971 8 3.51014 8 3.33333V2.27333L10.6667 4.94V10Z" fill="#24292D"/>
</svg>
