<svg width="14" height="14" viewBox="0 0 14 14" fill="none" xmlns="http://www.w3.org/2000/svg">
<path d="M7 14C3.15 14 0 10.85 0 7C0 3.15 3.15 0 7 0C10.85 0 14 3.15 14 7C14 10.85 10.85 14 7 14ZM7 1.16667C3.79167 1.16667 1.16667 3.79167 1.16667 7C1.16667 10.2083 3.79167 12.8333 7 12.8333C10.2083 12.8333 12.8333 10.2083 12.8333 7C12.8333 3.79167 10.2083 1.16667 7 1.16667Z" fill="#747579"/>
<path d="M6.41787 10.5C6.18454 10.5 6.00954 10.3833 5.83454 10.2083C5.54287 9.8 5.77621 9.21667 6.41787 7.64167C6.53454 7.40833 6.65121 7.11667 6.76787 6.88333C6.53454 7.05833 6.18454 7.05833 5.95121 6.825C5.71787 6.59167 5.71787 6.24167 5.95121 6.00833C6.06787 5.95 6.76787 5.25 7.58454 5.25C7.81787 5.25 7.99287 5.36667 8.16787 5.54167C8.45954 5.95 8.22621 6.53333 7.58454 8.10833C7.46787 8.34167 7.35121 8.63333 7.23454 8.86667C7.46787 8.69167 7.81787 8.69167 8.05121 8.925C8.28454 9.15833 8.28454 9.50833 8.05121 9.74167C7.93454 9.8 7.23454 10.5 6.41787 10.5Z" fill="#747579"/>
<path d="M7.875 4.66602C8.35825 4.66602 8.75 4.27426 8.75 3.79102C8.75 3.30777 8.35825 2.91602 7.875 2.91602C7.39175 2.91602 7 3.30777 7 3.79102C7 4.27426 7.39175 4.66602 7.875 4.66602Z" fill="#747579"/>
<path d="M7.8751 4.95833C7.23344 4.95833 6.70844 4.43333 6.70844 3.79167C6.70844 3.15 7.23344 2.625 7.8751 2.625C8.51677 2.625 9.04177 3.15 9.04177 3.79167C9.04177 4.43333 8.51677 4.95833 7.8751 4.95833ZM7.8751 3.20833C7.5251 3.20833 7.29177 3.44167 7.29177 3.79167C7.29177 4.14167 7.5251 4.375 7.8751 4.375C8.2251 4.375 8.45844 4.14167 8.45844 3.79167C8.45844 3.44167 8.2251 3.20833 7.8751 3.20833Z" fill="#747579"/>
</svg>
