<svg width="32" height="32" viewBox="0 0 32 32" fill="none" xmlns="http://www.w3.org/2000/svg">
<path d="M11.9336 20.5793C16.7111 20.5793 20.584 16.7074 20.584 11.9313C20.584 7.15507 16.7111 3.2832 11.9336 3.2832C7.15612 3.2832 3.2832 7.15507 3.2832 11.9313C3.2832 16.7074 7.15612 20.5793 11.9336 20.5793Z" stroke="#747579" stroke-width="1.2" stroke-miterlimit="10" stroke-linecap="round" stroke-linejoin="round"/>
<path d="M22.1303 24.3569L18.499 20.7266" stroke="#747579" stroke-width="1.2" stroke-miterlimit="10" stroke-linecap="round" stroke-linejoin="round"/>
<path d="M24.3585 22.1303L20.7324 18.5" stroke="#747579" stroke-width="1.2" stroke-miterlimit="10" stroke-linecap="round" stroke-linejoin="round"/>
<path d="M26.0279 22.7966L30.327 27.0946C31.2244 27.9917 31.2244 29.4313 30.327 30.3285C29.4349 31.2204 27.9896 31.2256 27.0923 30.3285L22.7932 26.0305C21.901 25.1386 21.901 23.6886 22.7932 22.7966C23.2418 22.3481 23.8262 22.1238 24.4158 22.129C25.0001 22.129 25.5844 22.3533 26.0279 22.7966Z" stroke="#747579" stroke-width="1.2" stroke-miterlimit="10" stroke-linecap="round" stroke-linejoin="round"/>
<path d="M11.9513 22.8966C17.9995 22.8966 22.9025 17.9949 22.9025 11.9483C22.9025 5.90171 17.9995 1 11.9513 1C5.90305 1 1 5.90171 1 11.9483C1 17.9949 5.90305 22.8966 11.9513 22.8966Z" stroke="#747579" stroke-width="1.2" stroke-miterlimit="10" stroke-linecap="round" stroke-linejoin="round"/>
<path fill-rule="evenodd" clip-rule="evenodd" d="M9.34335 9.80378L9.04626 9.8767C9.04626 9.8767 8.64076 9.8713 8.57069 9.59545C8.55037 9.50628 8.56185 9.41293 8.60321 9.33113C8.64456 9.24933 8.71325 9.18408 8.79771 9.14638C8.82316 9.13557 8.82981 9.13442 8.85603 9.12709L11.9924 8.35394C12.075 8.33696 12.0766 8.34275 12.1012 8.34275C12.1545 8.34661 12.1662 8.35085 12.1827 8.35394L15.3191 9.12709C15.5148 9.18341 15.5187 9.23472 15.5602 9.30301C15.7167 9.55996 15.4639 9.94576 15.1292 9.8767L12.0876 9.12747L10.1273 9.6105V13.3663C10.1168 13.7046 9.56136 13.9099 9.38053 13.5306C9.35744 13.4824 9.34609 13.4558 9.34335 13.3663V11.5426L7.77495 11.9292V15.2984H10.9114V13.3663C10.9103 13.3231 10.9176 13.2802 10.9329 13.2397C10.9865 13.0877 11.1129 12.9843 11.3035 12.9797H12.8719L12.8903 12.9801C12.9342 12.981 12.9774 12.9903 13.0176 13.0075C13.1632 13.065 13.2594 13.1846 13.2638 13.3663V15.2984H14.0481V11.0476C14.0481 11.0476 14.0509 11.0341 14.0579 11.0121C14.083 10.8354 14.227 10.6684 14.4263 10.6614C14.4398 10.6612 14.4534 10.6615 14.467 10.6622H14.4701C14.4834 10.6637 14.4932 10.6637 14.5351 10.6726L17.6715 11.4458C17.8727 11.5013 17.8813 11.5619 17.9235 11.6406C18.057 11.891 17.8159 12.259 17.5028 12.2L17.4812 12.1954L17.1845 12.1221V15.685C17.1822 15.7594 17.1759 15.7718 17.1654 15.8042C17.1141 15.9597 16.9947 16.065 16.7923 16.0712H7.38314C7.30251 16.0688 7.28059 16.0604 7.23871 16.0441C7.09271 15.9871 6.99721 15.8775 6.99095 15.685V12.1221L6.69386 12.1954C6.36429 12.2671 6.02728 11.7864 6.34824 11.5233C6.3913 11.4878 6.41713 11.4697 6.50364 11.4458L9.34335 10.7459V9.80378ZM12.4797 15.2984V13.7529H11.6957V15.2984H12.4797ZM16.4002 11.9292L14.8321 11.5426V15.2984H16.4002V11.9292ZM11.3114 10.6614C11.5126 10.6672 11.6895 10.8397 11.6954 11.0399C11.6981 11.2984 11.7314 11.5854 11.5548 11.7305C11.3349 11.9118 10.9215 11.7691 10.9117 11.4419C10.9082 11.0931 10.9223 10.6796 11.2879 10.6614H11.3114ZM12.8798 10.6614C13.081 10.6672 13.2579 10.8397 13.2638 11.0399C13.2665 11.2984 13.2998 11.5854 13.1232 11.7305C12.9029 11.9118 12.4895 11.7691 12.4797 11.4419C12.4762 11.0931 12.4907 10.6796 12.8563 10.6614H12.8798Z" fill="#F3601E"/>
</svg>
