<svg width="17" height="20" viewBox="0 0 17 20" fill="none" xmlns="http://www.w3.org/2000/svg">
<path d="M1 12.0216C1 13.2058 1.461 14.3224 2.30263 15.1598C2.71377 15.5734 3.20276 15.9015 3.74139 16.125C4.28002 16.3486 4.8576 16.4633 5.44078 16.4624C6.41353 16.4624 7.33129 16.1494 8.0968 15.5743V18.3656C8.0968 18.7166 8.38016 19 8.73119 19C9.08223 19 9.36559 18.7166 9.36559 18.3656V15.5743C11.1038 16.8727 13.5822 16.7415 15.1598 15.1598C15.5734 14.7486 15.9014 14.2596 16.125 13.721C16.3486 13.1824 16.4633 12.6048 16.4624 12.0216C16.4624 10.8332 16.0014 9.72088 15.1598 8.88347C15.109 8.83272 15.0583 8.78197 15.0033 8.73545C15.0583 8.68469 15.109 8.63817 15.1598 8.58742C15.5734 8.17628 15.9014 7.68728 16.125 7.14866C16.3486 6.61003 16.4633 6.03245 16.4624 5.44926C16.4624 4.26506 16.0014 3.14851 15.1598 2.31111C13.43 0.581319 10.609 0.581319 8.87922 2.31111C8.82847 2.3534 8.78195 2.40415 8.73119 2.45914C8.68044 2.40415 8.63392 2.3534 8.58317 2.30265C8.17203 1.88904 7.68304 1.56097 7.14441 1.33739C6.60578 1.11381 6.0282 0.999146 5.44501 1.00002C4.86169 0.99821 4.28383 1.11245 3.74508 1.33608C3.20632 1.55972 2.71743 1.88828 2.30686 2.30265C1.89325 2.71379 1.56518 3.20279 1.3416 3.74141C1.11802 4.28004 1.00335 4.85762 1.00423 5.44081C1.00423 6.62924 1.46523 7.74155 2.30686 8.58319C2.35761 8.63394 2.40836 8.68469 2.46334 8.73122C2.40836 8.78197 2.35761 8.82849 2.30686 8.87924C1.461 9.72088 1 10.8332 1 12.0216ZM3.84633 8.20255C3.58834 8.03338 3.37265 7.85998 3.19925 7.68657C1.96428 6.45161 1.96428 4.43846 3.19925 3.19927C3.49347 2.90487 3.84295 2.6715 4.22762 2.51255C4.61229 2.35361 5.02457 2.27221 5.44078 2.27305C6.25281 2.27305 7.06484 2.58179 7.68232 3.19927C7.85573 3.37267 8.02913 3.59259 8.1983 3.85058C8.43091 4.20584 9.02302 4.20584 9.25563 3.85058C9.4248 3.59259 9.5982 3.37267 9.77161 3.2035C11.0066 1.96854 13.0197 1.96854 14.2589 3.2035C15.4939 4.43846 15.4939 6.45161 14.2589 7.6908C14.0855 7.86421 13.8656 8.03761 13.6076 8.20678C13.5206 8.26485 13.4493 8.34347 13.4 8.43569C13.3507 8.52791 13.3249 8.63087 13.3249 8.73545C13.3249 8.84002 13.3507 8.94298 13.4 9.0352C13.4493 9.12741 13.5206 9.20604 13.6076 9.26411C13.8656 9.43328 14.0813 9.60668 14.2589 9.78009C15.4939 11.015 15.4939 13.0282 14.2589 14.2674C13.024 15.5024 11.0108 15.5024 9.77161 14.2674C9.5982 14.094 9.4248 13.8741 9.25563 13.6161L9.24294 13.6034C9.21789 13.5671 9.18801 13.5344 9.15413 13.5061L9.14567 13.4977C9.03148 13.3962 8.88768 13.3369 8.72697 13.3369C8.56625 13.3369 8.41823 13.4004 8.30826 13.4977L8.2998 13.5061C8.26597 13.5357 8.23636 13.5696 8.21099 13.6076C8.20676 13.6118 8.20253 13.6161 8.20253 13.6203C8.03336 13.8783 7.85996 14.094 7.68655 14.2674C6.45159 15.5024 4.43844 15.5024 3.19925 14.2674C1.96428 13.0324 1.96428 11.0193 3.19925 9.78009C3.37265 9.60668 3.59257 9.43328 3.85056 9.26411C4.02819 9.14569 4.13393 8.94691 4.13393 8.73545C4.13393 8.52398 4.02396 8.32097 3.84633 8.20255Z" fill="#24292D" stroke="#24292D" stroke-width="0.5"/>
<path d="M5.16161 9.1497C5.17429 9.2512 5.18698 9.3527 5.20813 9.45421C5.20813 9.45844 5.21236 9.46267 5.21236 9.46689C5.35209 10.1523 5.6921 10.7808 6.18933 11.2728C6.68255 11.7684 7.31054 12.1081 7.99525 12.2498C7.99948 12.2498 8.00371 12.254 8.00794 12.254C8.10944 12.2752 8.20672 12.2879 8.31245 12.3005C8.32937 12.3048 8.35051 12.309 8.36743 12.309C8.48585 12.3217 8.6085 12.3259 8.73115 12.3259C8.8538 12.3259 8.97645 12.3175 9.09487 12.309C9.11179 12.309 9.13294 12.3048 9.14985 12.3005C9.25136 12.2879 9.35286 12.2752 9.45436 12.254C9.45859 12.254 9.45859 12.254 9.46282 12.2498C10.3809 12.0614 11.1877 11.519 11.7086 10.7399C11.7593 10.6638 11.8101 10.5834 11.8524 10.4988C11.8651 10.4777 11.8778 10.4566 11.8905 10.4312C11.9243 10.3635 11.9581 10.2958 11.9877 10.2324C12.0089 10.1901 12.0258 10.152 12.0469 10.1098C12.0681 10.059 12.085 10.004 12.1061 9.95327C12.1273 9.89406 12.1527 9.83485 12.1696 9.77141C12.1823 9.73334 12.1865 9.69951 12.1992 9.66144C12.2203 9.58109 12.2415 9.50496 12.2584 9.4246C12.2626 9.40768 12.2626 9.39077 12.2669 9.37385C12.3049 9.16661 12.3261 8.95092 12.3261 8.73522C12.3261 8.51953 12.3049 8.30383 12.2669 8.0966C12.2626 8.07968 12.2626 8.06276 12.2584 8.04584C12.2412 7.96629 12.2214 7.88731 12.1992 7.809C12.1907 7.77094 12.1823 7.7371 12.1696 7.69904C12.1527 7.6356 12.1273 7.57639 12.1061 7.51718C12.0883 7.46433 12.0685 7.41214 12.0469 7.36069C12.03 7.3184 12.0089 7.27611 11.9877 7.23804C11.9581 7.17037 11.9243 7.10271 11.8905 7.03927C11.8778 7.01812 11.8651 6.99697 11.8524 6.9716C11.8059 6.89124 11.7593 6.81088 11.7086 6.73053C11.5817 6.54444 11.4379 6.36257 11.273 6.19763C10.7788 5.70109 10.1491 5.36126 9.46282 5.22066C9.45859 5.22066 9.45859 5.22066 9.45436 5.21643C9.35286 5.19528 9.25136 5.18259 9.14985 5.16991C9.13294 5.16568 9.11179 5.16568 9.09487 5.16145C8.97645 5.14876 8.8538 5.14453 8.73115 5.14453C8.6085 5.14453 8.48585 5.15299 8.36743 5.16145C8.35051 5.16145 8.32937 5.16568 8.31245 5.16991C8.21095 5.18259 8.10944 5.19528 8.00794 5.21643C8.00371 5.21643 7.99948 5.22066 7.99525 5.22066C7.30985 5.36039 6.68134 5.7004 6.18933 6.19763C5.69373 6.69086 5.354 7.31884 5.21236 8.00355C5.21236 8.00778 5.20813 8.01201 5.20813 8.01624C5.18698 8.11774 5.17429 8.21502 5.16161 8.32075C5.15738 8.33767 5.15315 8.35881 5.15315 8.37573C5.14046 8.49415 5.13623 8.6168 5.13623 8.73945C5.13623 8.8621 5.14469 8.98475 5.15315 9.10317C5.15738 9.11586 5.16161 9.13278 5.16161 9.1497ZM6.44732 8.29114C6.44732 8.28269 6.45155 8.27423 6.45155 8.26577C6.47692 8.13043 6.51922 7.99932 6.56997 7.87244C6.5742 7.85552 6.58266 7.84284 6.58689 7.82592C6.63764 7.70327 6.70108 7.58485 6.77721 7.47066C6.78566 7.45374 6.79412 7.44105 6.80681 7.42413C6.88294 7.30994 6.97175 7.19998 7.07326 7.10271C7.08172 7.09002 7.09441 7.08156 7.10709 7.06887C7.2086 6.9716 7.31433 6.88278 7.42852 6.80242C7.44544 6.79397 7.45813 6.78128 7.47504 6.77282C7.58924 6.70092 7.70343 6.63748 7.83031 6.5825C7.84722 6.57404 7.85991 6.56981 7.87683 6.56558C8.00371 6.51483 8.13482 6.47254 8.27016 6.44716C8.27861 6.44716 8.28707 6.44293 8.29553 6.44293C8.43933 6.41756 8.58735 6.40064 8.73538 6.40064C8.88341 6.40064 9.03143 6.41756 9.17523 6.44293C9.18369 6.44293 9.19215 6.44716 9.20061 6.44716C9.33594 6.47254 9.46705 6.51483 9.59393 6.56558C9.61085 6.56981 9.62354 6.57404 9.64045 6.5825C9.7631 6.63325 9.88153 6.69669 9.99572 6.77282C10.0126 6.78128 10.0296 6.79397 10.0465 6.80242C10.1607 6.87855 10.2664 6.96737 10.3679 7.06464L10.406 7.10271C10.5075 7.20844 10.6005 7.3184 10.6766 7.43682C10.6851 7.44951 10.6936 7.46643 10.702 7.47912C10.7781 7.59754 10.8416 7.71596 10.8923 7.84284C10.8966 7.85552 10.9008 7.86398 10.905 7.87667C10.9558 8.00778 10.9981 8.14312 11.0234 8.28269V8.29114C11.0784 8.57874 11.0784 8.87902 11.0234 9.16661V9.17507C10.9981 9.31464 10.9558 9.44998 10.905 9.58109C10.9008 9.59377 10.8966 9.60223 10.8923 9.61492C10.8416 9.7418 10.7781 9.86022 10.702 9.97864C10.6936 9.99133 10.6851 10.0082 10.6766 10.0209C10.5963 10.1394 10.5075 10.2493 10.406 10.3551L10.3679 10.3931C10.2664 10.4904 10.1607 10.5792 10.0465 10.6553C10.0296 10.668 10.0126 10.6765 9.99572 10.6849C9.88153 10.7568 9.76733 10.8203 9.64045 10.8753C9.62354 10.8795 9.61085 10.8879 9.59393 10.8922C9.46705 10.9429 9.33594 10.9852 9.20061 11.0106C9.19215 11.0106 9.18369 11.0148 9.17523 11.0148C9.03143 11.0402 8.88341 11.0571 8.73538 11.0571C8.58735 11.0571 8.43933 11.0402 8.29553 11.0148C8.28707 11.0148 8.27861 11.0106 8.27016 11.0106C8.13482 10.9852 8.00371 10.9429 7.87683 10.8922C7.85991 10.8879 7.84722 10.8795 7.83031 10.8753C7.70766 10.8245 7.58924 10.7611 7.47504 10.6849C7.45861 10.6766 7.44303 10.6667 7.42852 10.6553C7.31433 10.5792 7.20437 10.4904 7.10709 10.3889C7.09441 10.3804 7.08595 10.3677 7.07326 10.3551C6.97598 10.2535 6.88717 10.1478 6.80681 10.0336C6.79835 10.0167 6.78566 10.004 6.77721 9.9871C6.70531 9.87291 6.64187 9.75872 6.58689 9.63184C6.5794 9.61707 6.57372 9.60145 6.56997 9.58532C6.51922 9.45844 6.47692 9.32733 6.45155 9.19199C6.45155 9.18353 6.44732 9.17507 6.44732 9.16661C6.42194 9.02282 6.40503 8.87479 6.40503 8.72676C6.40503 8.57874 6.42194 8.43494 6.44732 8.29114Z" fill="#24292D" stroke="#24292D" stroke-width="0.5"/>
</svg>
