<svg width="20" height="22" viewBox="0 0 20 22" fill="none" xmlns="http://www.w3.org/2000/svg">
<path d="M9.69086 2.09498C9.66339 2.06677 9.63059 2.04436 9.5944 2.02906C9.55821 2.01376 9.51934 2.00587 9.48008 2.00586H5.66038C5.58212 2.00587 5.50707 2.03714 5.45173 2.09279C5.3964 2.14845 5.36531 2.22393 5.36531 2.30264V9.56562H1.29507C1.23891 9.56561 1.18393 9.58172 1.13656 9.61205C1.0892 9.64238 1.05142 9.68568 1.02768 9.73686C1.00393 9.78803 0.995201 9.84496 1.00251 9.90096C1.00982 9.95695 1.03286 10.0097 1.06894 10.053L3.40053 12.8514L3.3318 14.2577C3.32887 14.3174 3.34397 14.3767 3.37513 14.4277C3.4063 14.4787 3.45206 14.5191 3.50642 14.5434L5.6147 15.4884C5.65519 15.5065 5.69921 15.5152 5.7435 15.5139C5.78779 15.5125 5.83121 15.5012 5.87055 15.4807C5.90988 15.4602 5.94412 15.431 5.97073 15.3954C5.99734 15.3597 6.01563 15.3185 6.02424 15.2748C6.08346 14.9762 6.34337 14.1555 6.82856 13.9486C7.0732 13.8444 7.36085 13.9031 7.70814 14.1281C8.5448 14.67 8.83951 15.3802 9.12457 16.0672C9.36849 16.655 9.62069 17.2629 10.206 17.6669C10.4646 17.8453 10.5053 18.065 10.5602 18.4702C10.7029 19.5221 11.0537 20.4381 13.9134 20.9947C13.9654 21.0048 14.0191 21.0006 14.069 20.9826C14.1188 20.9646 14.1629 20.9334 14.1967 20.8924C14.2304 20.8514 14.2526 20.8019 14.2609 20.7493C14.2691 20.6967 14.2631 20.6428 14.2436 20.5933C14.2332 20.5674 13.2275 17.9756 14.5242 16.9464C15.0264 16.5273 15.4977 16.072 15.9342 15.5841C16.7727 14.6911 17.4988 13.9177 18.3187 13.9649C18.362 13.967 18.4052 13.9595 18.4454 13.9431C18.4856 13.9267 18.5217 13.9017 18.5513 13.8699C18.5808 13.8378 18.6028 13.7996 18.616 13.758C18.6291 13.7164 18.6329 13.6724 18.6272 13.6292C18.6262 13.6211 18.5237 12.81 18.8304 12.3338C19.2983 11.6076 18.7156 10.0805 18.0842 9.42129V7.68376C18.0842 7.63759 18.0735 7.59205 18.053 7.55077C18.0324 7.50949 18.0025 7.4736 17.9658 7.44595L16.2544 6.15969C16.2001 6.11924 16.1337 6.09864 16.0662 6.1013C15.9987 6.10397 15.9341 6.12973 15.8831 6.17432C15.8753 6.18113 15.0962 6.85412 14.4409 6.5482C14.3628 6.51212 14.2825 6.48096 14.2005 6.4549C14.0962 6.583 13.9731 6.6944 13.8355 6.78528V6.97232C13.959 6.99457 14.0789 7.03303 14.1924 7.08671C14.9534 7.44175 15.7281 7.01541 16.0796 6.76934L17.4941 7.83244V9.54736C17.4941 9.58939 17.503 9.63095 17.5201 9.66928C17.5373 9.7076 17.5624 9.74181 17.5937 9.76965C18.1521 10.2661 18.5956 11.6067 18.3351 12.0109C18.0544 12.4468 18.0139 13.0263 18.0207 13.3834C17.0804 13.4989 16.3129 14.3162 15.5052 15.1764C15.088 15.643 14.638 16.0787 14.1587 16.4803C12.9101 17.4714 13.264 19.3888 13.5269 20.3054C11.335 19.7901 11.2384 19.079 11.145 18.3899C11.0892 17.9788 11.026 17.5129 10.54 17.1774C10.0982 16.8726 9.89942 16.3934 9.66918 15.8385C9.36425 15.1037 9.01868 14.2708 8.02764 13.629C7.74767 13.4307 7.41667 13.318 7.0745 13.3044C6.91018 13.3042 6.74755 13.3377 6.59653 13.4028C5.99586 13.66 5.68163 14.37 5.54066 14.8053L3.93116 14.0839L3.99564 12.7645C3.99934 12.6898 3.97484 12.6165 3.92706 12.5593L1.92735 10.1592H5.66038C5.73864 10.1592 5.81369 10.1279 5.86902 10.0723C5.92436 10.0166 5.95545 9.94111 5.95545 9.8624V2.59943H9.17947C9.16787 3.2756 9.14583 4.88256 9.18565 5.47265C9.23025 6.13216 9.83386 6.20809 10.3664 6.27504C10.8208 6.30961 11.2657 6.42337 11.6812 6.61124C11.7959 6.66771 11.9135 6.71795 12.0335 6.76175C11.7215 6.54803 11.494 6.23079 11.3909 5.86549C11.0792 5.77952 10.7611 5.71953 10.4396 5.68611C9.85029 5.61191 9.78373 5.56916 9.77451 5.43236C9.72631 4.7188 9.77458 2.33278 9.77509 2.30873C9.77591 2.26925 9.76888 2.23001 9.75442 2.19331C9.73995 2.1566 9.71835 2.12317 9.69086 2.09498Z" fill="#24292D" stroke="#24292D" stroke-width="0.8"/>
<path d="M12.9385 6.71057C13.0772 6.71056 13.2102 6.65587 13.3083 6.55852C13.4064 6.46117 13.4615 6.32915 13.4615 6.19148V4.55771C13.883 4.43303 14.2451 4.16198 14.4817 3.79415C14.7183 3.42631 14.8135 2.98625 14.75 2.55444C14.6865 2.12263 14.4686 1.72793 14.1359 1.4425C13.8033 1.15707 13.3782 1 12.9385 1C12.4987 1 12.0736 1.15707 11.741 1.4425C11.4084 1.72793 11.1904 2.12263 11.1269 2.55444C11.0634 2.98625 11.1587 3.42631 11.3953 3.79415C11.6318 4.16198 11.994 4.43303 12.4154 4.55771V6.19148C12.4154 6.32915 12.4705 6.46117 12.5686 6.55852C12.6667 6.65587 12.7997 6.71056 12.9385 6.71057ZM12.1539 2.81741C12.1539 2.66342 12.1999 2.51289 12.2861 2.38485C12.3723 2.25682 12.4949 2.15703 12.6382 2.0981C12.7816 2.03918 12.9394 2.02376 13.0916 2.05381C13.2438 2.08385 13.3836 2.15801 13.4933 2.2669C13.603 2.37579 13.6777 2.51453 13.708 2.66556C13.7383 2.81659 13.7227 2.97314 13.6634 3.11541C13.604 3.25768 13.5034 3.37928 13.3744 3.46483C13.2453 3.55038 13.0936 3.59604 12.9385 3.59604C12.7304 3.59582 12.531 3.51371 12.3839 3.36773C12.2368 3.22176 12.1541 3.02385 12.1539 2.81741ZM15.1692 14.075C15.308 14.075 15.441 14.0203 15.5391 13.923C15.6372 13.8256 15.6923 13.6936 15.6923 13.5559V11.9221C16.1137 11.7975 16.4758 11.5264 16.7124 11.1586C16.949 10.7907 17.0443 10.3507 16.9808 9.91887C16.9173 9.48706 16.6993 9.09235 16.3667 8.80693C16.034 8.5215 15.609 8.36442 15.1692 8.36442C14.7295 8.36442 14.3044 8.5215 13.9718 8.80693C13.6391 9.09235 13.4211 9.48706 13.3576 9.91887C13.2942 10.3507 13.3894 10.7907 13.626 11.1586C13.8626 11.5264 14.2247 11.7975 14.6461 11.9221V13.5559C14.6462 13.6936 14.7013 13.8256 14.7994 13.923C14.8975 14.0203 15.0305 14.075 15.1692 14.075ZM14.3846 10.1819C14.3846 10.0279 14.4306 9.87733 14.5169 9.7493C14.6031 9.62126 14.7256 9.52147 14.869 9.46255C15.0124 9.40362 15.1701 9.3882 15.3223 9.41825C15.4745 9.4483 15.6143 9.52245 15.724 9.63134C15.8338 9.74023 15.9085 9.87897 15.9388 10.03C15.969 10.181 15.9535 10.3376 15.8941 10.4799C15.8347 10.6221 15.7342 10.7437 15.6051 10.8293C15.4761 10.9148 15.3244 10.9605 15.1692 10.9605C14.9612 10.9603 14.7618 10.8781 14.6147 10.7322C14.4676 10.5862 14.3848 10.3883 14.3846 10.1819ZM8.83077 13.0044C8.9695 13.0044 9.10255 12.9497 9.20065 12.8524C9.29874 12.755 9.35385 12.623 9.35385 12.4853V10.8516C9.77528 10.7269 10.1374 10.4558 10.374 10.088C10.6106 9.72016 10.7059 9.2801 10.6424 8.84828C10.5789 8.41647 10.3609 8.02176 10.0282 7.73633C9.6956 7.4509 9.27054 7.29383 8.83078 7.29383C8.39102 7.29383 7.96596 7.4509 7.63331 7.73633C7.30067 8.02176 7.08267 8.41647 7.01918 8.84828C6.9557 9.2801 7.05096 9.72016 7.28756 10.088C7.52416 10.4558 7.88628 10.7269 8.3077 10.8516V12.4853C8.3077 12.623 8.36281 12.755 8.4609 12.8524C8.559 12.9497 8.69204 13.0044 8.83077 13.0044ZM8.04614 9.11128C8.04615 8.95728 8.09217 8.80675 8.17839 8.67872C8.26461 8.55068 8.38715 8.45089 8.53052 8.39196C8.67389 8.33304 8.83165 8.31762 8.98385 8.34767C9.13605 8.37772 9.27585 8.45187 9.38558 8.56076C9.49531 8.66965 9.57003 8.80839 9.6003 8.95942C9.63058 9.11045 9.61504 9.267 9.55565 9.40927C9.49626 9.55154 9.3957 9.67314 9.26667 9.75869C9.13764 9.84424 8.98594 9.88991 8.83076 9.88991C8.62273 9.88968 8.42329 9.80757 8.2762 9.6616C8.1291 9.51562 8.04637 9.31771 8.04614 9.11128Z" fill="#24292D" stroke="#24292D" stroke-width="0.2"/>
</svg>
