<svg width="17" height="17" viewBox="0 0 17 17" fill="none" xmlns="http://www.w3.org/2000/svg">
<path fill-rule="evenodd" clip-rule="evenodd" d="M2.07282 1C1.48538 1 1.0015 1.48388 1.0015 2.07132L1.00007 11.3575C1.00007 11.8343 1.715 11.8343 1.715 11.3575L1.71571 2.07132C1.71571 1.86741 1.86891 1.71421 2.07282 1.71421H12.0718C12.2757 1.71421 12.4289 1.86741 12.4289 2.07132V8.49925C12.4218 8.98206 13.1503 8.98206 13.1431 8.49925V2.07132C13.1431 1.48388 12.6593 1 12.0718 1H2.07282ZM4.21546 3.85686C4.12075 3.85686 4.02992 3.89448 3.96295 3.96145C3.89598 4.02842 3.85836 4.11925 3.85836 4.21396C3.85836 4.30868 3.89598 4.39951 3.96295 4.46648C4.02992 4.53345 4.12075 4.57107 4.21546 4.57107C4.31018 4.57107 4.40101 4.53345 4.46798 4.46648C4.53495 4.39951 4.57257 4.30868 4.57257 4.21396C4.57257 4.11925 4.53495 4.02842 4.46798 3.96145C4.40101 3.89448 4.31018 3.85686 4.21546 3.85686ZM5.60818 3.85757C5.14287 3.88971 5.17608 4.58393 5.64247 4.57179H9.92918C10.3952 4.56179 10.3952 3.86757 9.92918 3.85757H5.64247C5.63104 3.85703 5.6196 3.85703 5.60818 3.85757ZM5.64247 7.14143C5.17644 7.15143 5.17644 7.84564 5.64247 7.85564H9.92918C10.4156 7.86636 10.4156 7.13072 9.92918 7.14143H5.64247ZM4.21546 7.14214C4.12075 7.14214 4.02992 7.17977 3.96295 7.24674C3.89598 7.31371 3.85836 7.40454 3.85836 7.49925C3.85836 7.59396 3.89598 7.68479 3.96295 7.75176C4.02992 7.81873 4.12075 7.85636 4.21546 7.85636C4.31018 7.85636 4.40101 7.81873 4.46798 7.75176C4.53495 7.68479 4.57257 7.59396 4.57257 7.49925C4.57257 7.40454 4.53495 7.31371 4.46798 7.24674C4.40101 7.17977 4.31018 7.14214 4.21546 7.14214ZM4.21546 10.4274C4.12075 10.4274 4.02992 10.4651 3.96295 10.532C3.89598 10.599 3.85836 10.6898 3.85836 10.7845C3.85836 10.8792 3.89598 10.9701 3.96295 11.037C4.02992 11.104 4.12075 11.1416 4.21546 11.1416C4.31018 11.1416 4.40101 11.104 4.46798 11.037C4.53495 10.9701 4.57257 10.8792 4.57257 10.7845C4.57257 10.6898 4.53495 10.599 4.46798 10.532C4.40101 10.4651 4.31018 10.4274 4.21546 10.4274ZM5.60818 10.4274C5.1318 10.4503 5.16573 11.1652 5.64247 11.1424H8.50004C8.97677 11.1424 8.97677 10.4274 8.50004 10.4274H5.64247C5.63104 10.4269 5.6196 10.4269 5.60818 10.4274ZM1.35361 12.7781C1.30641 12.7786 1.25976 12.7884 1.21638 12.807C1.173 12.8256 1.13373 12.8526 1.10085 12.8865C1.06798 12.9204 1.04214 12.9604 1.02484 13.0043C1.00755 13.0482 0.999125 13.0952 1.00007 13.1424L1.0015 14.9272C1.0015 15.5146 1.48538 15.9985 2.07282 15.9985H9.21497C9.69777 16.0056 9.69777 15.2771 9.21497 15.2843H2.07282C1.86891 15.2843 1.71571 15.1311 1.71571 14.9272L1.715 13.1424C1.71596 13.0945 1.70729 13.0469 1.68951 13.0025C1.67172 12.9581 1.64518 12.9177 1.61147 12.8837C1.57776 12.8497 1.53756 12.8228 1.49326 12.8047C1.44896 12.7866 1.40147 12.7775 1.35361 12.7781ZM12.7867 9.56986C11.0159 9.56986 9.5735 11.0129 9.5735 12.7838C9.5735 14.5547 11.0162 15.9999 12.7867 15.9999C14.5576 15.9999 16 14.5547 16 12.7838C16 11.0129 14.5573 9.56986 12.7867 9.56986ZM12.7867 10.2848C13.1151 10.284 13.4404 10.3482 13.744 10.4735C14.0475 10.5988 14.3233 10.7828 14.5555 11.0151C14.7877 11.2473 14.9718 11.5231 15.0971 11.8266C15.2224 12.1301 15.2865 12.4554 15.2858 12.7838C15.2866 13.1123 15.2225 13.4378 15.0972 13.7414C14.972 14.0451 14.7879 14.3211 14.5557 14.5534C14.3236 14.7858 14.0478 14.9701 13.7442 15.0956C13.4406 15.2212 13.1153 15.2855 12.7867 15.285C12.4582 15.2855 12.1329 15.2212 11.8293 15.0956C11.5257 14.9701 11.2499 14.7858 11.0178 14.5534C10.7856 14.3211 10.6016 14.0451 10.4763 13.7414C10.351 13.4378 10.2869 13.1123 10.2877 12.7838C10.287 12.4554 10.3511 12.1301 10.4764 11.8266C10.6017 11.5231 10.7858 11.2473 11.018 11.0151C11.2502 10.7828 11.526 10.5988 11.8295 10.4735C12.1331 10.3482 12.4584 10.284 12.7867 10.2848ZM13.9145 11.6686C13.822 11.6716 13.7343 11.7104 13.6699 11.7768L12.4071 13.0392L11.9036 12.5335C11.8705 12.4998 11.8311 12.473 11.7876 12.4547C11.7441 12.4363 11.6973 12.4268 11.6501 12.4266C11.6029 12.4263 11.5561 12.4355 11.5124 12.4534C11.4688 12.4714 11.4291 12.4978 11.3957 12.5312C11.3622 12.5646 11.3358 12.6042 11.3177 12.6478C11.2997 12.6915 11.2905 12.7383 11.2907 12.7855C11.2908 12.8327 11.3003 12.8794 11.3186 12.923C11.3369 12.9665 11.3636 13.006 11.3972 13.0392L12.1543 13.7959C12.1875 13.8291 12.2269 13.8554 12.2702 13.8734C12.3136 13.8913 12.36 13.9006 12.407 13.9006C12.4539 13.9006 12.5004 13.8913 12.5437 13.8734C12.5871 13.8554 12.6265 13.8291 12.6596 13.7959L14.1763 12.2824C14.2283 12.2322 14.2639 12.1673 14.2783 12.0964C14.2927 12.0255 14.2852 11.9519 14.2568 11.8853C14.2284 11.8188 14.1805 11.7624 14.1194 11.7237C14.0582 11.685 13.9868 11.6658 13.9145 11.6686Z" fill="#24292D" stroke="#24292D" stroke-width="0.5"/>
</svg>
