<svg width="18" height="18" viewBox="0 0 18 18" fill="none" xmlns="http://www.w3.org/2000/svg">
<path d="M2.7 9C2.7 8.7613 2.60518 8.53239 2.4364 8.3636C2.26761 8.19482 2.03869 8.1 1.8 8.1H0.9C0.661305 8.1 0.432387 8.19482 0.263604 8.3636C0.0948211 8.53239 0 8.7613 0 9C0 9.23869 0.0948211 9.46761 0.263604 9.6364C0.432387 9.80518 0.661305 9.9 0.9 9.9H1.8C2.03869 9.9 2.26761 9.80518 2.4364 9.6364C2.60518 9.46761 2.7 9.23869 2.7 9ZM3.276 13.5L2.637 14.139C2.46937 14.3076 2.37529 14.5357 2.37529 14.7735C2.37529 15.0113 2.46937 15.2394 2.637 15.408C2.80563 15.5756 3.03373 15.6697 3.2715 15.6697C3.50927 15.6697 3.73737 15.5756 3.906 15.408L4.545 14.769C4.69244 14.5968 4.76949 14.3754 4.76074 14.1489C4.75199 13.9223 4.65809 13.7075 4.49781 13.5472C4.33752 13.3869 4.12266 13.293 3.89615 13.2843C3.66964 13.2755 3.44817 13.3526 3.276 13.5ZM9 2.7C9.23869 2.7 9.46761 2.60518 9.6364 2.4364C9.80518 2.26761 9.9 2.03869 9.9 1.8V0.9C9.9 0.661305 9.80518 0.432387 9.6364 0.263604C9.46761 0.0948211 9.23869 0 9 0C8.7613 0 8.53239 0.0948211 8.3636 0.263604C8.19482 0.432387 8.1 0.661305 8.1 0.9V1.8C8.1 2.03869 8.19482 2.26761 8.3636 2.4364C8.53239 2.60518 8.7613 2.7 9 2.7ZM14.094 4.806C14.3301 4.80501 14.5564 4.71127 14.724 4.545L15.363 3.906C15.4572 3.82532 15.5337 3.72603 15.5878 3.61437C15.6418 3.50271 15.6721 3.3811 15.6769 3.25715C15.6817 3.1332 15.6608 3.0096 15.6156 2.89411C15.5703 2.77862 15.5017 2.67372 15.414 2.58601C15.3263 2.49831 15.2214 2.42967 15.1059 2.38443C14.9904 2.33918 14.8668 2.31829 14.7429 2.32308C14.6189 2.32787 14.4973 2.35823 14.3856 2.41225C14.274 2.46627 14.1747 2.54279 14.094 2.637L13.5 3.276C13.3324 3.44463 13.2383 3.67273 13.2383 3.9105C13.2383 4.14827 13.3324 4.37637 13.5 4.545C13.6587 4.70283 13.8704 4.79588 14.094 4.806ZM3.294 4.545C3.46163 4.71127 3.68789 4.80501 3.924 4.806C4.04245 4.80668 4.15986 4.78398 4.26952 4.73919C4.37917 4.69441 4.4789 4.62841 4.563 4.545C4.73063 4.37637 4.82471 4.14827 4.82471 3.9105C4.82471 3.67273 4.73063 3.44463 4.563 3.276L3.924 2.637C3.84068 2.55249 3.74152 2.48523 3.6322 2.43904C3.52288 2.39286 3.40554 2.36865 3.28686 2.36782C3.16819 2.36698 3.05051 2.38953 2.94056 2.43417C2.8306 2.47881 2.73051 2.54468 2.646 2.628C2.56149 2.71132 2.49423 2.81048 2.44804 2.9198C2.40185 3.02912 2.37765 3.14646 2.37682 3.26514C2.37513 3.50481 2.46872 3.73533 2.637 3.906L3.294 4.545ZM17.1 8.1H16.2C15.9613 8.1 15.7324 8.19482 15.5636 8.3636C15.3948 8.53239 15.3 8.7613 15.3 9C15.3 9.23869 15.3948 9.46761 15.5636 9.6364C15.7324 9.80518 15.9613 9.9 16.2 9.9H17.1C17.3387 9.9 17.5676 9.80518 17.7364 9.6364C17.9052 9.46761 18 9.23869 18 9C18 8.7613 17.9052 8.53239 17.7364 8.3636C17.5676 8.19482 17.3387 8.1 17.1 8.1ZM14.724 13.5C14.553 13.4049 14.3557 13.3681 14.1619 13.3952C13.9681 13.4223 13.7885 13.5118 13.6501 13.6501C13.5118 13.7885 13.4223 13.9681 13.3952 14.1619C13.3681 14.3557 13.4049 14.553 13.5 14.724L14.139 15.363C14.3076 15.5306 14.5357 15.6247 14.7735 15.6247C15.0113 15.6247 15.2394 15.5306 15.408 15.363C15.5756 15.1944 15.6697 14.9663 15.6697 14.7285C15.6697 14.4907 15.5756 14.2626 15.408 14.094L14.724 13.5ZM9 4.05C8.02098 4.05 7.06395 4.34031 6.24993 4.88423C5.4359 5.42814 4.80145 6.20122 4.4268 7.10572C4.05214 8.01021 3.95412 9.00549 4.14511 9.9657C4.33611 10.9259 4.80755 11.8079 5.49982 12.5002C6.19209 13.1924 7.0741 13.6639 8.0343 13.8549C8.99451 14.0459 9.98979 13.9479 10.8943 13.5732C11.7988 13.1985 12.5719 12.5641 13.1158 11.7501C13.6597 10.936 13.95 9.97902 13.95 9C13.9476 7.68791 13.4253 6.43024 12.4976 5.50245C11.5698 4.57466 10.3121 4.05238 9 4.05ZM9 12.15C8.37699 12.15 7.76797 11.9653 7.24995 11.6191C6.73194 11.273 6.3282 10.781 6.08978 10.2055C5.85136 9.62986 5.78898 8.9965 5.91053 8.38546C6.03207 7.77442 6.33208 7.21315 6.77261 6.77261C7.21315 6.33208 7.77442 6.03207 8.38546 5.91053C8.9965 5.78898 9.62986 5.85136 10.2055 6.08978C10.781 6.3282 11.273 6.73194 11.6191 7.24995C11.9653 7.76797 12.15 8.37699 12.15 9C12.15 9.83543 11.8181 10.6366 11.2274 11.2274C10.6366 11.8181 9.83543 12.15 9 12.15ZM9 15.3C8.7613 15.3 8.53239 15.3948 8.3636 15.5636C8.19482 15.7324 8.1 15.9613 8.1 16.2V17.1C8.1 17.3387 8.19482 17.5676 8.3636 17.7364C8.53239 17.9052 8.7613 18 9 18C9.23869 18 9.46761 17.9052 9.6364 17.7364C9.80518 17.5676 9.9 17.3387 9.9 17.1V16.2C9.9 15.9613 9.80518 15.7324 9.6364 15.5636C9.46761 15.3948 9.23869 15.3 9 15.3Z" fill="#066AC9"/>
</svg>
