<svg width="26" height="26" viewBox="0 0 26 26" fill="none" xmlns="http://www.w3.org/2000/svg">
<path opacity="0.4" d="M20.2257 7.32777C20.1345 7.31507 20.0434 7.31507 19.9523 7.32777C17.9343 7.26428 16.333 5.6514 16.333 3.67024C16.333 1.65097 18.0124 0 20.0955 0C22.1655 0 23.8579 1.63827 23.8579 3.67024C23.8449 5.6514 22.2436 7.26428 20.2257 7.32777Z" fill="#FFA400"/>
<path opacity="0.4" d="M24.4686 16.1294C23.0105 17.0819 20.9665 17.4375 19.0788 17.1962C19.5735 16.1548 19.8339 14.9991 19.8469 13.7799C19.8469 12.51 19.5605 11.3035 19.0137 10.2494C20.9405 9.99543 22.9844 10.351 24.4556 11.3035C26.5125 12.6243 26.5125 14.7959 24.4686 16.1294Z" fill="#FFA400"/>
<path opacity="0.4" d="M5.78669 7.32777C5.87782 7.31507 5.96895 7.31507 6.06008 7.32777C8.07801 7.26428 9.67933 5.6514 9.67933 3.67024C9.67933 1.65097 7.9999 0 5.91687 0C3.84687 0 2.15442 1.63827 2.15442 3.67024C2.16744 5.6514 3.76876 7.26428 5.78669 7.32777Z" fill="#FFA400"/>
<path opacity="0.4" d="M5.9301 13.7802C5.9301 15.0121 6.20349 16.1804 6.69821 17.2345C4.86255 17.425 2.94878 17.044 1.54274 16.1423C-0.514246 14.8089 -0.514246 12.6372 1.54274 11.3037C2.93576 10.3893 4.90161 10.0211 6.75029 10.2243C6.21651 11.291 5.9301 12.4975 5.9301 13.7802Z" fill="#FFA400"/>
<path d="M13.1819 17.6154C13.0778 17.6027 12.9606 17.6027 12.8434 17.6154C10.448 17.5392 8.53418 15.6215 8.53418 13.2593C8.53418 10.8464 10.5261 8.89062 13.0127 8.89062C15.4863 8.89062 17.4912 10.8464 17.4912 13.2593C17.4912 15.6215 15.5904 17.5392 13.1819 17.6154Z" fill="#FFA400"/>
<path d="M8.94997 20.2438C6.98412 21.5265 6.98412 23.6346 8.94997 24.9046C11.1892 26.3651 14.8605 26.3651 17.0998 24.9046C19.0656 23.6219 19.0656 21.5138 17.0998 20.2438C14.8736 18.7833 11.2022 18.7833 8.94997 20.2438Z" fill="#FFA400"/>
</svg>
