<svg width="26" height="26" viewBox="0 0 26 26" fill="none" xmlns="http://www.w3.org/2000/svg">
<path d="M15.8175 6.85342L18.3526 5.01142C18.6375 4.80434 18.7565 4.43776 18.6478 4.10293C18.5391 3.76809 18.2272 3.54156 17.8749 3.54156H14.7408L13.7728 0.561367C13.6641 0.226531 13.3523 0 13 0C12.6477 0 12.3359 0.226531 12.2272 0.561367L11.2592 3.54156H8.12504C7.77276 3.54156 7.46093 3.76809 7.35223 4.10293C7.24352 4.43776 7.36255 4.80434 7.64739 5.01142L10.1825 6.85342L9.21445 9.83401C9.10575 10.1688 9.22477 10.5358 9.50961 10.7425C9.79525 10.9496 10.1793 10.9496 10.4649 10.7425L13 8.90051L15.5351 10.7425C15.8175 10.9472 16.2089 10.9466 16.4904 10.7425C16.7752 10.5358 16.8942 10.1688 16.7855 9.83401L15.8175 6.85342ZM7.31255 6.77288H6.0105C5.65742 6.77288 5.34639 6.54715 5.23769 6.21151L4.8354 4.97294C4.7267 4.63811 4.41487 4.41158 4.06259 4.41158C3.7103 4.41158 3.39847 4.63811 3.28977 4.97294L2.88749 6.21151C2.77878 6.54715 2.46775 6.77288 2.11467 6.77288H0.81262C0.460332 6.77288 0.148505 6.99941 0.0398021 7.33425C-0.0689012 7.66908 0.0501207 8.03605 0.334964 8.24274L1.38867 9.00763C1.67431 9.21552 1.79253 9.5809 1.68383 9.91653C1.68383 9.91653 1.28292 11.1505 1.28156 11.1547C1.04517 11.8823 1.91144 12.5156 2.53203 12.0632L3.58494 11.2979C3.87058 11.09 4.25461 11.09 4.54025 11.2979L5.59316 12.0632C6.20338 12.5067 7.08516 11.8987 6.84363 11.1547L6.44135 9.91692C6.33265 9.5809 6.45087 9.21552 6.73651 9.00803L7.79022 8.24275C8.07507 8.03606 8.19408 7.66909 8.08538 7.33426C7.97668 6.99942 7.66484 6.77288 7.31255 6.77288ZM19.5586 9.91653C19.5586 9.91653 19.1579 11.15 19.1564 11.1547C18.9202 11.8817 19.7886 12.5139 20.4068 12.0632L21.4598 11.2979C21.7454 11.09 22.1294 11.09 22.4151 11.2979L23.468 12.0632C24.0916 12.5179 24.9556 11.8852 24.7184 11.1547L24.3162 9.91692C24.2075 9.5809 24.3257 9.21552 24.6113 9.00803L25.665 8.24275C25.9499 8.03606 26.0689 7.66909 25.9602 7.33426C25.8515 6.99942 25.5397 6.77288 25.1874 6.77288H23.8853C23.5322 6.77288 23.2212 6.54715 23.1125 6.21151L22.7102 4.97294C22.6015 4.63811 22.2897 4.41158 21.9374 4.41158C21.5851 4.41158 21.2733 4.63811 21.1646 4.97294L20.7623 6.21151C20.6536 6.54715 20.3426 6.77288 19.9895 6.77288H18.6874C18.3351 6.77288 18.0233 6.99941 17.9146 7.33425C17.8059 7.66908 17.9249 8.03605 18.2098 8.24274L19.2635 9.00763C19.5491 9.21551 19.6673 9.58089 19.5586 9.91653ZM14.2187 12.8797H11.7813C10.4372 12.8797 9.34378 13.973 9.34378 15.3171V23.4421C9.34378 24.7862 10.4372 25.8795 11.7813 25.8795H14.2187C15.5628 25.8795 16.6562 24.7862 16.6562 23.4421V15.3171C16.6562 13.973 15.5628 12.8797 14.2187 12.8797ZM23.5624 16.1296H21.1249C19.7808 16.1296 18.6874 17.223 18.6874 18.5671V23.4421C18.6874 24.7862 19.7808 25.8795 21.1249 25.8795H23.5624C24.9065 25.8795 25.9999 24.7862 25.9999 23.4421V18.5671C25.9999 17.223 24.9065 16.1296 23.5624 16.1296ZM4.87508 16.1296H2.4376C1.0935 16.1296 0.000128138 17.223 0.000128138 18.5671V23.4421C0.000128138 24.7862 1.0935 25.8795 2.4376 25.8795H4.87508C6.21918 25.8795 7.31255 24.7862 7.31255 23.4421V18.5671C7.31255 17.223 6.21918 16.1296 4.87508 16.1296Z" fill="#FFA400"/>
</svg>
