<svg width="26" height="28" viewBox="0 0 26 28" fill="none" xmlns="http://www.w3.org/2000/svg">
<path d="M23.3329 6.4592L13.7339 9.87139C13.6407 9.90254 13.5643 9.90254 13.5304 9.90254C13.488 9.90254 13.4159 9.90254 13.3227 9.87139L3.68555 6.44141V12.8832C3.68555 16.5668 23.3711 16.5681 23.3711 12.8832V6.44586L23.3329 6.4592ZM19.8054 13.6662C19.4789 13.7196 19.0973 13.773 18.6479 13.8263H18.6224C18.5165 13.8263 18.4232 13.7463 18.4105 13.6306C18.3977 13.5105 18.4825 13.3993 18.597 13.3859C19.0422 13.3325 19.4195 13.2791 19.7418 13.2258C19.8562 13.208 19.9665 13.288 19.9834 13.4126C20.0004 13.5327 19.9241 13.6484 19.8054 13.6662ZM22.0737 12.6964C22.0737 12.7631 22.0482 12.8254 21.9973 12.8699C21.7514 13.0834 21.4674 13.2969 20.7 13.4882C20.683 13.4927 20.6703 13.4927 20.6533 13.4927C20.5558 13.4927 20.471 13.4259 20.4456 13.3236C20.4201 13.2035 20.488 13.0834 20.6024 13.0523C21.2003 12.9054 21.4547 12.7542 21.6497 12.594V8.47894C21.6497 8.35437 21.7472 8.2565 21.8617 8.2565C21.9804 8.2565 22.0737 8.35437 22.0737 8.47894V12.6964Z" fill="#FFA400"/>
<path d="M25.86 4.51993L13.5984 0.0133387C13.5533 -0.00444622 13.5036 -0.00444622 13.4585 0.0133387L1.20114 4.51993C1.19987 4.52081 1.19944 4.52215 1.19775 4.52259C1.16323 4.53667 1.13293 4.56017 1.10998 4.59066C1.10405 4.59867 1.09981 4.60623 1.09472 4.61468C1.073 4.64872 1.06095 4.68852 1.05995 4.72946V14.8735C0.674977 14.9616 0.36123 15.2917 0.265834 15.6983C0.22386 15.8767 0.23446 16.0293 0.272618 16.1819C0.327736 16.4177 0.450691 16.6268 0.633003 16.778L0.00550922 19.8566C-0.0271374 20.0167 0.0894576 20.168 0.245483 20.168H2.29713C2.45316 20.168 2.56975 20.0167 2.53668 19.8566L1.90919 16.7825C2.08302 16.6312 2.21446 16.4177 2.26958 16.1819C2.30265 16.0419 2.30841 15.8963 2.28651 15.7538C2.2646 15.6114 2.21548 15.4751 2.14209 15.3531C2.06871 15.2311 1.97258 15.1259 1.85948 15.0439C1.74638 14.9618 1.61864 14.9047 1.48394 14.8757V5.05822L13.4585 9.44914C13.4839 9.45804 13.5051 9.45804 13.5305 9.45804C13.5517 9.45804 13.5729 9.45804 13.5984 9.44914C14.8534 8.98825 9.05329 11.1201 25.8684 4.93811C25.9085 4.92087 25.9426 4.89116 25.9661 4.85298C25.9896 4.8148 26.0014 4.76999 25.9999 4.72457C25.9999 4.63114 25.9448 4.55107 25.86 4.51993ZM13.5305 5.53424C12.937 5.53424 12.4494 5.17389 12.4494 4.72902C12.4494 4.28414 12.937 3.92379 13.5305 3.92379C14.1284 3.92379 14.6075 4.28414 14.6075 4.72902C14.6075 5.17389 14.1284 5.53424 13.5305 5.53424ZM17.7267 24.0544L16.1198 24.2924C16.1779 22.9778 15.7624 21.4977 14.9844 20.8086C15.0298 20.8015 15.3278 20.7641 16.1228 20.6173C17.2548 20.6894 17.8056 22.7358 17.7267 24.0548V24.0544ZM15.614 26.0737C15.9913 25.5563 16.0376 24.9691 16.0901 24.7462L17.6839 24.5104C17.4354 26.0292 16.6875 25.9207 15.614 26.0737ZM13.7341 18.7933C14.5328 19.1915 14.2937 19.8957 14.6469 19.8957H14.6477C15.0323 19.8944 14.8233 18.7844 15.5313 17.8208C16.9635 15.8754 18.9766 18.5081 16.8045 20.0327C15.5402 20.289 13.6777 20.5399 13.634 20.5461C11.5374 19.9527 12.5503 18.215 13.7341 18.7933ZM14.2882 20.9047C15.2125 21.1841 15.7794 22.9191 15.6958 24.3551L5.74284 25.8277C5.78185 25.7587 5.81788 25.684 5.85011 25.6039C6.26264 24.5531 6.04938 22.9689 5.37609 22.072C5.29091 21.9611 5.19244 21.8621 5.08312 21.7775C8.30751 21.7722 14.2458 20.9096 14.2882 20.9047ZM3.09931 22.633C3.32614 22.048 3.68737 21.729 4.09355 21.7388C4.23346 21.7895 4.78888 22.0071 5.04284 22.347C5.622 23.1184 5.81237 24.5322 5.4592 25.4322C5.35193 25.6964 5.19929 25.8802 5.0403 25.9353C5.01636 25.944 4.9941 25.9571 4.97458 25.974C4.95093 25.9612 4.92518 25.9532 4.89869 25.9505C4.7291 25.9344 4.54806 25.8081 4.38737 25.5928C4.03334 25.1234 3.91675 24.255 4.13383 23.6945C4.20209 23.5134 4.30766 23.4058 4.4145 23.4058H4.41747C4.50778 23.4084 4.61547 23.4836 4.71299 23.6122C4.7484 23.6571 4.79918 23.6856 4.85443 23.6916C4.90967 23.6976 4.96496 23.6807 5.0084 23.6444C5.05184 23.608 5.07996 23.5553 5.08672 23.4974C5.09348 23.4396 5.07833 23.3813 5.04454 23.335C4.86604 23.1001 4.64727 22.9671 4.42637 22.9613C4.13637 22.9529 3.87604 23.1691 3.74079 23.529C3.46436 24.2412 3.60258 25.2694 4.05454 25.8677C4.28731 26.18 4.5735 26.3664 4.86138 26.3936C4.91637 26.3983 4.97091 26.3801 5.01317 26.3428C5.05107 26.3641 5.09433 26.3725 5.13697 26.3669L15.6488 24.8116C15.5292 25.5412 15.2159 26.0417 14.7745 26.1938C10.1556 26.8593 5.45284 27.6023 3.75521 28C2.87502 26.7094 2.5405 24.0606 3.09973 22.633H3.09931ZM24.7483 24.8965C23.3801 25.0265 20.6785 25.3695 17.6368 25.7899C18.0248 25.2738 18.0701 24.6719 18.1236 24.4454L24.5596 23.4934L24.7483 24.8965ZM25.2431 22.9427L24.7127 23.0214H24.7093L18.1545 23.9912C18.2075 22.7932 17.8306 21.1498 16.8953 20.4678C18.2999 20.1809 23.3288 19.1238 24.6173 18.707C26.002 19.8036 26.2068 21.1912 25.2431 22.9427Z" fill="#FFA400"/>
</svg>
