<svg width="26" height="28" viewBox="0 0 26 28" fill="none" xmlns="http://www.w3.org/2000/svg">
<path d="M8.68669 27.8455L12.0492 25.0357C12.5496 24.6202 13.3903 24.6202 13.9107 25.0357L17.2533 27.8455C18.0339 28.2412 18.9946 27.8455 19.2748 27.0144L19.9153 25.1149C20.0754 24.6598 19.9153 23.987 19.575 23.6506L16.2925 20.3857C16.0523 20.1483 15.8722 19.6932 15.8722 19.3766V15.716C15.8722 14.8849 16.4927 14.4892 17.2733 14.8058L23.9784 17.6551C25.0793 18.13 26 17.5364 26 16.3492V14.509C26 13.5592 25.2794 12.4511 24.3788 12.0751L16.4927 8.7113C16.1524 8.57279 15.8922 8.15726 15.8922 7.80109V3.70515C15.8922 2.35962 14.8914 0.776646 13.6905 0.163244C13.2502 -0.0544147 12.7498 -0.0544147 12.3094 0.163244C11.0885 0.756859 10.1077 2.35962 10.1077 3.70515V7.80109C10.1077 8.15726 9.82753 8.57279 9.50729 8.7113L1.62125 12.0751C0.740571 12.4511 0 13.5592 0 14.509V16.3492C0 17.5364 0.900695 18.13 2.02156 17.6551L8.72673 14.8058C9.48727 14.4694 10.1278 14.8849 10.1278 15.716V19.3766C10.1278 19.713 9.92761 20.1681 9.70744 20.3857L6.3649 23.6308C6.02464 23.9672 5.86452 24.64 6.02464 25.0951L6.66514 26.9947C6.94535 27.8455 7.88608 28.2412 8.68669 27.8455Z" fill="#FFA400"/>
</svg>
