<svg width="12" height="14" viewBox="0 0 12 14" fill="none" xmlns="http://www.w3.org/2000/svg">
<path d="M9.27273 0H0.545455C0.400791 0 0.262053 0.0491665 0.15976 0.136683C0.0574675 0.2242 0 0.342899 0 0.466667V11.6667C0 11.7904 0.0574675 11.9091 0.15976 11.9967C0.262053 12.0842 0.400791 12.1333 0.545455 12.1333H2.18182V13.5333C2.18182 13.6571 2.23929 13.7758 2.34158 13.8633C2.44387 13.9508 2.58261 14 2.72727 14H11.4545C11.5992 14 11.7379 13.9508 11.8402 13.8633C11.9425 13.7758 12 13.6571 12 13.5333V2.33333C12 2.20957 11.9425 2.09087 11.8402 2.00335C11.7379 1.91583 11.5992 1.86667 11.4545 1.86667H9.81818V0.466667C9.81818 0.342899 9.76072 0.2242 9.65842 0.136683C9.55613 0.0491665 9.41739 0 9.27273 0ZM1.09091 11.2V0.933333H8.72727V1.86667H2.72727C2.58261 1.86667 2.44387 1.91583 2.34158 2.00335C2.23929 2.09087 2.18182 2.20957 2.18182 2.33333V11.2H1.09091ZM10.9091 13.0667H3.27273V2.8H10.9091V13.0667Z" fill="#24292D"/>
<path d="M4.36381 7.73333C4.50848 7.73333 4.64722 7.68417 4.74951 7.59665C4.8518 7.50913 4.90927 7.39043 4.90927 7.26667V6.8H6.00018V7.26667C6.00018 7.39043 6.05764 7.50913 6.15994 7.59665C6.26223 7.68417 6.40097 7.73333 6.54563 7.73333C6.6903 7.73333 6.82903 7.68417 6.93133 7.59665C7.03362 7.50913 7.09109 7.39043 7.09109 7.26667V5.4C7.09109 5.0287 6.91868 4.6726 6.61181 4.41005C6.30493 4.1475 5.88871 4 5.45472 4C5.02073 4 4.60452 4.1475 4.29764 4.41005C3.99076 4.6726 3.81836 5.0287 3.81836 5.4V7.26667C3.81836 7.39043 3.87583 7.50913 3.97812 7.59665C4.08041 7.68417 4.21915 7.73333 4.36381 7.73333ZM5.45472 4.93333C5.59939 4.93333 5.73812 4.9825 5.84042 5.07002C5.94271 5.15753 6.00018 5.27623 6.00018 5.4V5.86667H4.90927V5.4C4.90927 5.27623 4.96674 5.15753 5.06903 5.07002C5.17132 4.9825 5.31006 4.93333 5.45472 4.93333ZM8.45472 5.16667V5.63333H7.90927C7.7646 5.63333 7.62587 5.6825 7.52357 5.77002C7.42128 5.85753 7.36381 5.97623 7.36381 6.1C7.36381 6.22377 7.42128 6.34247 7.52357 6.42998C7.62587 6.5175 7.7646 6.56667 7.90927 6.56667H8.45472V7.03333C8.45472 7.1571 8.51219 7.2758 8.61448 7.36332C8.71678 7.45083 8.85551 7.5 9.00018 7.5C9.14484 7.5 9.28358 7.45083 9.38587 7.36332C9.48816 7.2758 9.54563 7.1571 9.54563 7.03333V6.56667H10.0911C10.2358 6.56667 10.3745 6.5175 10.4768 6.42998C10.5791 6.34247 10.6365 6.22377 10.6365 6.1C10.6365 5.97623 10.5791 5.85753 10.4768 5.77002C10.3745 5.6825 10.2358 5.63333 10.0911 5.63333H9.54563V5.16667C9.54563 5.0429 9.48816 4.9242 9.38587 4.83668C9.28358 4.74917 9.14484 4.7 9.00018 4.7C8.85551 4.7 8.71678 4.74917 8.61448 4.83668C8.51219 4.9242 8.45472 5.0429 8.45472 5.16667ZM10.0911 8.43333H4.36381C4.21915 8.43333 4.08041 8.4825 3.97812 8.57002C3.87583 8.65753 3.81836 8.77623 3.81836 8.9C3.81836 9.02377 3.87583 9.14247 3.97812 9.22998C4.08041 9.3175 4.21915 9.36667 4.36381 9.36667H10.0911C10.2358 9.36667 10.3745 9.3175 10.4768 9.22998C10.5791 9.14247 10.6365 9.02377 10.6365 8.9C10.6365 8.77623 10.5791 8.65753 10.4768 8.57002C10.3745 8.4825 10.2358 8.43333 10.0911 8.43333ZM10.0911 9.83333H4.36381C4.21915 9.83333 4.08041 9.8825 3.97812 9.97002C3.87583 10.0575 3.81836 10.1762 3.81836 10.3C3.81836 10.4238 3.87583 10.5425 3.97812 10.63C4.08041 10.7175 4.21915 10.7667 4.36381 10.7667H10.0911C10.2358 10.7667 10.3745 10.7175 10.4768 10.63C10.5791 10.5425 10.6365 10.4238 10.6365 10.3C10.6365 10.1762 10.5791 10.0575 10.4768 9.97002C10.3745 9.8825 10.2358 9.83333 10.0911 9.83333Z" fill="#24292D"/>
</svg>
