<svg width="28" height="18" viewBox="0 0 28 18" fill="none" xmlns="http://www.w3.org/2000/svg">
<path d="M28.0001 0.0371094H0.0551758V17.9948H28.0001V0.0371094Z" fill="#FFDA44"/>
<path d="M28.0001 0.0371094H0.0551758V6.02475H28.0001V0.0371094Z" fill="#D80027"/>
<path d="M28.0001 12.0117H0.0551758V17.9994H28.0001V12.0117Z" fill="#D80027"/>
<path d="M27.9454 0H0.000488281V17.9577H27.9454V0Z" fill="#F0F0F0"/>
<path d="M15.7195 0H12.2264V7.29776H0.000488281V10.6652H12.2264V17.9629H15.7195V10.6652H27.9454V7.29776H15.7195V0Z" fill="#D80027"/>
<path d="M21.4937 12.1074L27.945 15.559V12.1074H21.4937Z" fill="#0052B4"/>
<path d="M17.0127 12.1074L27.945 17.9635V16.3061L20.1019 12.1074H17.0127Z" fill="#0052B4"/>
<path d="M25.0305 17.9647L17.0127 13.666V17.9647H25.0305Z" fill="#0052B4"/>
<path d="M17.0132 12.1074L27.9455 17.9635V16.3061L20.1024 12.1074H17.0132Z" fill="#F0F0F0"/>
<path d="M17.0132 12.1074L27.9455 17.9635V16.3061L20.1024 12.1074H17.0132Z" fill="#D80027"/>
<path d="M4.92856 12.1074L0 14.7435V12.1074H4.92856Z" fill="#0052B4"/>
<path d="M10.9322 12.8496V17.9638H1.3916L10.9322 12.8496Z" fill="#0052B4"/>
<path d="M7.84313 12.1074L0 16.3061V17.9635L10.9324 12.1074H7.84313Z" fill="#D80027"/>
<path d="M6.45134 5.85587L0 2.4043V5.85587H6.45134Z" fill="#0052B4"/>
<path d="M10.9324 5.8561L0 0V1.65739L7.84313 5.8561H10.9324Z" fill="#0052B4"/>
<path d="M2.91455 0L10.9323 4.29868V0H2.91455Z" fill="#0052B4"/>
<path d="M10.9328 5.8561L0.000488281 0V1.65739L7.84362 5.8561H10.9328Z" fill="#F0F0F0"/>
<path d="M10.9328 5.8561L0.000488281 0V1.65739L7.84362 5.8561H10.9328Z" fill="#D80027"/>
<path d="M23.0166 5.85614L27.9452 3.21484V5.85614H23.0166Z" fill="#0052B4"/>
<path d="M17.0132 5.11422V0H26.5537L17.0132 5.11422Z" fill="#0052B4"/>
<path d="M20.1024 5.8561L27.9455 1.65739V0L17.0132 5.8561H20.1024Z" fill="#D80027"/>
</svg>
