<svg width="21" height="21" viewBox="0 0 21 21" fill="none" xmlns="http://www.w3.org/2000/svg">
<path d="M16.4507 6.42614H16.4506H15.5848H15.0848V6.92614V13.1464V13.5004L15.4187 13.618C15.8263 13.7616 16.1795 14.0279 16.4298 14.3802C16.6799 14.7324 16.815 15.1533 16.8164 15.5853C16.8164 15.5855 16.8164 15.5857 16.8164 15.5859L16.8164 17.316V17.3161C16.8164 17.3642 16.807 17.4117 16.7886 17.4561L17.2506 17.6474L16.7886 17.4561C16.7702 17.5005 16.7433 17.5408 16.7093 17.5747C16.6754 17.6087 16.6351 17.6356 16.5907 17.654L16.782 18.116L16.5907 17.654C16.5463 17.6724 16.4988 17.6818 16.4507 17.6818H16.4506H0.865821H0.865695C0.817666 17.6818 0.770106 17.6724 0.725732 17.654C0.681357 17.6356 0.641039 17.6087 0.60708 17.5747C0.573121 17.5408 0.546185 17.5005 0.527812 17.4561C0.509438 17.4117 0.499988 17.3642 0.5 17.3161V17.316V15.5852C0.501478 15.1532 0.636537 14.7323 0.886665 14.3802C1.13693 14.0279 1.49013 13.7616 1.89776 13.618L2.23164 13.5004V13.1464V6.92614V6.42614H1.73164H0.865821H0.865691C0.817663 6.42616 0.770105 6.41671 0.725733 6.39833L0.535784 6.85708L0.725732 6.39833C0.68136 6.37996 0.641041 6.35302 0.607081 6.31906C0.57312 6.2851 0.546184 6.24478 0.527811 6.20041C0.509438 6.15604 0.499988 6.10848 0.5 6.06045V6.06032L0.5 3.46286L0.5 3.46265C0.499969 3.38601 0.524073 3.3113 0.568892 3.24913C0.613712 3.18696 0.676971 3.14048 0.749695 3.11629L0.749981 3.11619L8.54215 0.518807C8.61749 0.493731 8.69893 0.493731 8.77428 0.518807L16.5664 3.11619L16.5667 3.11629C16.6394 3.14048 16.7027 3.18696 16.7475 3.24914C16.7923 3.31131 16.8165 3.38601 16.8164 3.46265V3.46286V6.06032V6.06045C16.8164 6.10848 16.807 6.15604 16.7886 6.20041C16.7702 6.24479 16.7433 6.2851 16.7093 6.31906C16.6754 6.35302 16.6351 6.37996 16.5907 6.39833L16.782 6.8603L16.5907 6.39833C16.5463 6.41671 16.4988 6.42616 16.4507 6.42614ZM15.5848 16.9502H16.0848V16.4502L16.0848 15.5844L16.0848 15.5839C16.0844 15.2219 15.9405 14.8748 15.6845 14.6188C15.4285 14.3629 15.0815 14.2189 14.7195 14.2185H14.719H2.59746H2.59696C2.23497 14.2189 1.8879 14.3629 1.63194 14.6188C1.37597 14.8748 1.232 15.2219 1.23164 15.5839V15.5844V16.4502V16.9502H1.73164H15.5848ZM2.96328 12.9869V13.4869H3.46328H5.19493H5.69493V12.9869V6.92614V6.42614H5.19493H3.46328H2.96328V6.92614V12.9869ZM6.42657 12.9869V13.4869H6.92657H10.3899H10.8899V12.9869V6.92614V6.42614H10.3899H6.92657H6.42657V6.92614V12.9869ZM11.6215 12.9869V13.4869H12.1215H13.8531H14.3531V12.9869V6.92614V6.42614H13.8531H12.1215H11.6215V6.92614V12.9869ZM1.23164 5.1945V5.6945H1.73164H15.5848H16.0848V5.1945V4.08686V3.72649L15.7429 3.61252L8.81634 1.30338L8.65821 1.25066L8.50008 1.30338L1.57351 3.61252L1.23164 3.72649V4.08686V5.1945Z" fill="#F3601E" stroke="#066AC9"/>
<path d="M15.4763 18.6078C16.9008 18.6078 18.0556 17.453 18.0556 16.0286C18.0556 14.604 16.9008 13.4492 15.4763 13.4492C14.0518 13.4492 12.897 14.604 12.897 16.0286C12.897 17.453 14.0518 18.6078 15.4763 18.6078Z" fill="#FFFBFB" stroke="#066AC9" stroke-width="1.5" stroke-linecap="round" stroke-linejoin="round"/>
<path d="M19.9998 19.9998L18.1816 18.1816" stroke="#066AC9" stroke-width="1.5" stroke-linecap="round" stroke-linejoin="round"/>
</svg>
