<svg width="24" height="22" viewBox="0 0 24 22" fill="none" xmlns="http://www.w3.org/2000/svg">
<path d="M11.9332 3.66699C8.971 3.66699 3.66651 6.00756 3.66651 6.74011V19.4251C3.66584 19.6321 3.73438 19.8371 3.86818 20.0285C4.00198 20.2198 4.19841 20.3937 4.44619 20.54C4.69398 20.6864 4.98824 20.8024 5.3121 20.8814C5.63595 20.9604 5.98301 21.0008 6.33337 21.0003H17.534C17.8843 21.0007 18.2312 20.9602 18.5549 20.8812C18.8787 20.8022 19.1728 20.6862 19.4205 20.5398C19.6682 20.3935 19.8645 20.2196 19.9983 20.0283C20.132 19.837 20.2005 19.632 20.1998 19.4251V6.73951C20.1998 6.00756 14.8953 3.66699 11.9332 3.66699Z" stroke="#333333" stroke-width="1.5"/>
<path d="M11.7686 16.6745C13.3343 16.6745 14.6036 15.4042 14.6036 13.8373C14.6036 12.2703 13.3343 11 11.7686 11C10.2029 11 8.93359 12.2703 8.93359 13.8373C8.93359 15.4042 10.2029 16.6745 11.7686 16.6745Z" fill="white" stroke="#333333" stroke-width="1.5" stroke-linecap="round" stroke-linejoin="round"/>
<path d="M15.823 17.2069L14.8389 16.3203" stroke="#333333" stroke-width="1.5" stroke-linecap="round" stroke-linejoin="round"/>
<path d="M11.9265 1C11.5132 1.00202 11.1101 1.13203 10.7725 1.37291L1.83976 7.73858C1.40766 8.04638 1.11554 8.51322 1.02765 9.03641C0.93976 9.55959 1.0633 10.0963 1.3711 10.5284C1.6789 10.9604 2.14574 11.2526 2.66892 11.3405C3.19211 11.4284 3.72878 11.3048 4.16087 10.997L11.9335 5.45779L19.7052 10.997C20.1373 11.3051 20.674 11.4289 21.1974 11.3412C21.7208 11.2535 22.1879 10.9615 22.4959 10.5294C22.804 10.0973 22.9278 9.56049 22.8401 9.03712C22.7524 8.51375 22.4604 8.04665 22.0283 7.73858L13.0956 1.37291C12.8557 1.19351 12.3437 0.998996 11.9265 1Z" fill="#EAEAED" stroke="#333333" stroke-width="1.5"/>
</svg>
