<svg width="93" height="48" viewBox="0 0 93 48" fill="none" xmlns="http://www.w3.org/2000/svg">
<path d="M39.5847 13.832H53.3717V37.1743H39.5847V13.832ZM12.7124 23.0734H38.2541V37.1749H12.7124V23.0734Z" fill="#F5CA99"/>
<path d="M22.2295 17.4238H38.2532V24.0144H22.2295V17.4238Z" fill="#F5CA99"/>
<path d="M12.3428 21.896H38.2539V23.4791H12.3428V21.896ZM21.8793 16.2812H38.2354V17.8643H21.8793V16.2812Z" fill="#DBDCF1"/>
<path d="M39.5991 11.5488H53.4604V18.7466H39.5991V11.5488Z" fill="#E0B079"/>
<path d="M37.958 11.9918H54.9608L46.4597 4.5918L37.958 11.9918Z" fill="#F5CA99"/>
<path d="M40.8002 10.9977H52.3045L46.5521 5.99023L40.8002 10.9977ZM12.25 32.5542H39.9906V37.1746H12.25V32.5542Z" fill="#E0B079"/>
<path d="M27.3496 19.0254H28.6431V19.5038H27.3496V19.0254ZM29.2162 20.0006H30.5096V20.479H29.2162V20.0006ZM31.8403 20.958H33.1338V21.4364H31.8403V20.958ZM34.9824 19.6326H36.2759V20.111H34.9824V19.6326ZM22.7661 20.9765H24.0596V21.4549H22.7661V20.9765ZM18.0903 24.7135H19.3838V25.1919H18.0903V24.7135ZM21.0845 28.6527H22.378V29.1311H21.0845V28.6527ZM27.4789 27.5116H28.7724V27.99H27.4789V27.5116ZM29.2898 24.4558H30.5833V24.9342H29.2898V24.4558ZM33.9847 24.7135H35.2782V25.1919H33.9847V24.7135ZM35.2782 27.4013H36.5717V27.8796H35.2782V27.4013ZM34.7608 29.5367H36.0543V30.0151H34.7608V29.5367Z" fill="#FFE0BD"/>
<path d="M12.25 32.5547H39.9906V33.1997H12.25V32.5547Z" fill="#DBDCF1"/>
<path d="M36.811 16.2617H38.9178V37.1745H36.811V16.2617Z" fill="#E0B079"/>
<path d="M38.3276 18.7305H40.4344V37.1762H38.3276V18.7305Z" fill="#E0B079"/>
<path d="M37.2183 11.2188H39.9903V37.1755H37.2183V11.2188Z" fill="#F5CA99"/>
<path d="M36.8491 9.96875H40.3236V11.5518H36.8491V9.96875Z" fill="#DBDCF1"/>
<path d="M29.1053 31.3012H30.3988V31.7796H29.1053V31.3012ZM20.0125 30.8223H21.306V31.3007H20.0125V30.8223ZM13.7283 27.3984H15.0218V27.8768H13.7283V27.3984ZM13.063 28.5395H14.3565V29.0179H13.063V28.5395Z" fill="#FFE0BD"/>
<path d="M16.1494 27.6387H19.2915V35.8857H16.1494V27.6387Z" fill="#4A4D56"/>
<path d="M16.1309 32.2196L19.2909 28.893V29.789L16.1488 33.0535L16.1309 32.2196ZM16.1488 33.8266L19.3646 30.5495V30.9915L16.1488 34.1576V33.8266ZM16.1488 31.2492L19.3646 27.9727V28.2667L16.1488 31.4335V31.2492Z" fill="#75787F"/>
<path d="M19.2909 33.0522H17.9046V30.6585H19.2724V30.3274H17.9046V27.75H17.5723V30.3274H16.1309V30.6585H17.5723V33.0522H16.1488V33.3832H17.5723V35.8867H17.9046V33.3832H19.2909V33.0522Z" fill="#DBDCF1"/>
<path d="M15.9604 27.2539V36.1272H19.5092V27.2539H15.9604ZM19.1301 35.7043H16.3395V28.0824H19.1301V35.7043Z" fill="#DBDCF1"/>
<path d="M23.5796 27.6387H26.7217V35.8857H23.5796V27.6387Z" fill="#4A4D56"/>
<path d="M23.561 32.2196L26.7217 28.893V29.789L23.5796 33.0535L23.561 32.2196ZM23.5796 33.8266L26.7954 30.5495V30.9915L23.5796 34.1576V33.8266ZM23.5796 31.2492L26.7954 27.9727V28.2667L23.5796 31.4335V31.2492Z" fill="#75787F"/>
<path d="M26.7217 33.0522H25.3354V30.6585H26.7031V30.3274H25.3354V27.75H25.0024V30.3274H23.561V30.6585H25.0024V33.0522H23.5796V33.3832H25.0024V35.8867H25.3354V33.3832H26.7217V33.0522Z" fill="#DBDCF1"/>
<path d="M23.3901 27.2539V36.1272H26.9383V27.2539H23.3901ZM26.5598 35.7043H23.7686V28.0824H26.5598V35.7043Z" fill="#DBDCF1"/>
<path d="M31.0088 27.6387H34.1509V35.8857H31.0088V27.6387Z" fill="#4A4D56"/>
<path d="M30.9907 32.2196L34.1508 28.893V29.789L31.0093 33.0535L30.9907 32.2196ZM31.0093 33.8266L34.225 30.5495V30.9915L31.0093 34.1576V33.8266ZM31.0093 31.2492L34.225 27.9727V28.2667L31.0093 31.4335V31.2492Z" fill="#75787F"/>
<path d="M34.1508 33.0522H32.7651V30.6585H34.1322V30.3274H32.7651V27.75H32.4321V30.3274H30.9907V30.6585H32.4321V33.0522H31.0093V33.3832H32.4321V35.8867H32.7651V33.3832H34.1508V33.0522Z" fill="#DBDCF1"/>
<path d="M30.8188 27.2539V36.1272H34.3676V27.2539H30.8188ZM33.9885 35.7043H31.1991V28.0824H33.9897L33.9885 35.7043Z" fill="#DBDCF1"/>
<path d="M42.0977 20.9746H45.2398V25.1721H42.0977V20.9746Z" fill="#4A4D56"/>
<path d="M42.0605 24.1416L45.2026 21.3065V22.2639L42.0605 25.062V24.1416ZM42.7552 25.1908L45.3134 22.8532V23.1843L43.1372 25.1843L42.7552 25.1908ZM41.9126 23.6262L44.7355 21.0488H45.0146L41.9126 23.8106V23.6262Z" fill="#75787F"/>
<path d="M43.8539 25.191V23.3687H45.2217V23.037H43.8539V21.0859H43.521V23.037H42.0796V23.3687H43.521V25.191H43.8539Z" fill="#DBDCF1"/>
<path d="M41.9087 20.5898V25.3761H45.4568V20.5898H41.9087ZM45.0783 24.9525H42.2872V21.4184H45.0783V24.9525Z" fill="#DBDCF1"/>
<path d="M47.8267 20.9746H50.9688V25.1721H47.8267V20.9746Z" fill="#4A4D56"/>
<path d="M47.791 24.1416L50.9325 21.3065V22.2639L47.791 25.062V24.1416ZM48.4856 25.1908L51.0433 22.8532V23.1843L48.8671 25.1843L48.4856 25.1908ZM47.6431 23.6262L50.4654 21.0488H50.7444L47.6431 23.8106V23.6262Z" fill="#75787F"/>
<path d="M49.5828 25.191V23.3687H50.9506V23.037H49.5828V21.0859H49.2505V23.037H47.8091V23.3687H49.2505V25.191H49.5828Z" fill="#DBDCF1"/>
<path d="M47.6382 20.5898V25.3761H51.1869V20.5898H47.6382ZM50.8078 24.9525H48.0172V21.4184H50.8078V24.9525Z" fill="#DBDCF1"/>
<path d="M31.4087 18.4277H33.7406V21.5432H31.4087V18.4277Z" fill="#4A4D56"/>
<path d="M31.3667 21.225L33.7123 18.7555V19.4206L31.5996 21.6157L31.3667 21.225ZM32.2254 21.5566L33.7674 19.9855V20.2587L32.4536 21.5793L32.2254 21.5566ZM31.3805 20.5044L33.3381 18.5098H33.5453L31.3805 20.641V20.5044Z" fill="#75787F"/>
<path d="M32.7114 21.5566V20.2038H33.7264V19.958H32.7114V18.5098H32.4647V19.958H31.3945V20.2038H32.4647V21.5566H32.7114Z" fill="#DBDCF1"/>
<path d="M31.2681 18.1406V21.6933H33.903V18.1406H31.2681ZM33.6209 21.379H31.5489V18.7544H33.6209V21.379Z" fill="#DBDCF1"/>
<path d="M24.5337 18.4277H26.8656V21.5432H24.5337V18.4277Z" fill="#4A4D56"/>
<path d="M24.4912 21.225L26.8375 18.7555V19.4206L24.7248 21.6157L24.4912 21.225ZM25.3499 21.5566L26.892 19.9855V20.2587L25.5787 21.5793L25.3499 21.5566ZM24.505 20.5044L26.4632 18.5098H26.6698L24.505 20.641V20.5044Z" fill="#75787F"/>
<path d="M25.8359 21.5566V20.2038H26.8509V19.958H25.8359V18.5098H25.5892V19.958H24.519V20.2038H25.5892V21.5566H25.8359Z" fill="#DBDCF1"/>
<path d="M24.3921 18.1406V21.6933H27.027V18.1406H24.3921ZM26.7449 21.379H24.6717V18.7544H26.7431L26.7449 21.379Z" fill="#DBDCF1"/>
<path d="M38.2723 26.1125H39.5658V26.5909H38.2723V26.1125ZM37.5698 20.1106H38.8633V20.589H37.5698V20.1106ZM38.2351 18.4912H39.5286V18.9696H38.2351V18.4912ZM37.5698 14.1094H38.8633V14.5878H37.5698V14.1094ZM37.607 28.137H38.9004V28.6153H37.607V28.137ZM50.3035 31.6902H51.597V32.1686H50.3035V31.6902ZM50.9688 33.2733H52.2623V33.7517H50.9688V33.2733ZM38.2723 31.3037H39.5658V31.7821H38.2723V31.3037ZM41.0257 32.8313H42.3192V33.3097H41.0257V32.8313ZM45.8308 24.9153H47.1243V25.3937H45.8308V24.9153ZM46.7919 19.8714H48.0854V20.3498H46.7919V19.8714ZM41.0994 19.2827H42.3929V19.7611H41.0994V19.2827ZM44.796 25.8727H46.0895V26.3511H44.796V25.8727Z" fill="#FFE0BD"/>
<path d="M54.8687 23.0742H80.4103V37.1758H54.8687V23.0742Z" fill="#F5CA99"/>
<path d="M54.8687 17.4238H70.8924V24.0144H54.8687V17.4238Z" fill="#F5CA99"/>
<path d="M54.8687 21.896H80.7798V23.4791H54.8687V21.896ZM54.8872 16.2812H71.2433V17.8643H54.8872V16.2812Z" fill="#DBDCF1"/>
<path d="M53.1313 32.5547H80.8719V37.1751H53.1313V32.5547Z" fill="#E0B079"/>
<path d="M64.4784 19.0254H65.7719V19.5038H64.4784V19.0254ZM62.6118 20.0006H63.9053V20.479H62.6118V20.0006ZM59.9877 20.958H61.2812V21.4364H59.9877V20.958ZM56.8456 19.6326H58.1391V20.111H56.8456V19.6326ZM69.0619 20.9765H70.3554V21.4549H69.0619V20.9765ZM73.7377 24.7135H75.0312V25.1919H73.7377V24.7135ZM70.7441 28.6527H72.0376V29.1311H70.7441V28.6527ZM64.3491 27.5116H65.6426V27.99H64.3491V27.5116ZM62.5382 24.4558H63.8317V24.9342H62.5382V24.4558ZM57.8439 24.7135H59.1374V25.1919H57.8439V24.7135ZM56.5498 27.4013H57.8433V27.8796H56.5498V27.4013ZM57.0678 29.5367H58.3613V30.0151H57.0678V29.5367Z" fill="#FFE0BD"/>
<path d="M53.1313 32.5547H80.8719V33.1997H53.1313V32.5547Z" fill="#DBDCF1"/>
<path d="M54.2031 16.2617H56.3098V37.1745H54.2031V16.2617Z" fill="#E0B079"/>
<path d="M52.688 18.7305H54.7947V37.1762H52.688V18.7305Z" fill="#E0B079"/>
<path d="M53.1313 11.2188H55.9034V37.1755H53.1313V11.2188Z" fill="#F5CA99"/>
<path d="M52.7988 9.96875H56.2733V11.5518H52.7988V9.96875Z" fill="#DBDCF1"/>
<path d="M62.7231 31.3012H64.0166V31.7796H62.7231V31.3012ZM71.8165 30.8223H73.11V31.3007H71.8165V30.8223ZM78.1001 27.3984H79.3936V27.8768H78.1001V27.3984ZM78.7654 28.5395H80.0589V29.0179H78.7654V28.5395Z" fill="#FFE0BD"/>
<path d="M76.9727 35.8867H73.8306V27.6397H76.9727V35.8867Z" fill="#4A4D56"/>
<path d="M76.9917 32.2196L73.8316 28.893V29.789L76.9731 33.0535L76.9917 32.2196ZM76.9731 33.8266L73.7573 30.5495V30.9915L76.9731 34.1576V33.8266ZM76.9731 31.2492L73.7573 27.9727V28.2667L76.9731 31.4335V31.2492Z" fill="#75787F"/>
<path d="M73.8311 33.0522H75.2168V30.6585H73.849V30.3274H75.2168V27.75H75.5497V30.3274H76.9911V30.6585H75.5497V33.0522H76.9726V33.3832H75.5497V35.8867H75.2168V33.3832H73.8311V33.0522Z" fill="#DBDCF1"/>
<path d="M77.1615 27.2539V36.1272H73.6128V27.2539H77.1615ZM73.9919 35.7043H76.7824V28.0824H73.9919V35.7043Z" fill="#DBDCF1"/>
<path d="M69.543 35.8867H66.4009V27.6397H69.543V35.8867Z" fill="#4A4D56"/>
<path d="M69.5609 32.2196L66.4008 28.893V29.789L69.5429 33.0535L69.5609 32.2196ZM69.5429 33.8266L66.3271 30.5495V30.9915L69.5429 34.1576V33.8266ZM69.5429 31.2492L66.3271 27.9727V28.2667L69.5429 31.4335V31.2492Z" fill="#75787F"/>
<path d="M66.4009 33.0522H67.7872V30.6585H66.4194V30.3274H67.7872V27.75H68.1195V30.3274H69.561V30.6585H68.1195V33.0522H69.543V33.3832H68.1195V35.8867H67.7872V33.3832H66.4009V33.0522Z" fill="#DBDCF1"/>
<path d="M69.7323 27.2539V36.1272H66.1836V27.2539H69.7323ZM66.5627 35.7043H69.3532V28.0824H66.5627V35.7043Z" fill="#DBDCF1"/>
<path d="M62.1133 35.8867H58.9712V27.6397H62.1133V35.8867Z" fill="#4A4D56"/>
<path d="M62.1318 32.2196L58.9711 28.893V29.789L62.1132 33.0535L62.1318 32.2196ZM62.1132 33.8266L58.8975 30.5495V30.9915L62.1132 34.1576V33.8266ZM62.1132 31.2492L58.8975 27.9727V28.2667L62.1132 31.4335V31.2492Z" fill="#75787F"/>
<path d="M58.9712 33.0522H60.3575V30.6585H58.9898V30.3274H60.3575V27.75H60.6899V30.3274H62.1319V30.6585H60.6899V33.0522H62.1133V33.3832H60.6899V35.8867H60.3575V33.3832H58.9712V33.0522Z" fill="#DBDCF1"/>
<path d="M62.303 27.2539V36.1272H58.7549V27.2539H62.303ZM59.1333 35.7043H61.9245V28.0824H59.1333V35.7043Z" fill="#DBDCF1"/>
<path d="M61.7139 21.543H59.382V18.4275H61.7139V21.543Z" fill="#4A4D56"/>
<path d="M61.7552 21.225L59.409 18.7555V19.4206L61.5217 21.6157L61.7552 21.225ZM60.8965 21.5566L59.3545 19.9855V20.2587L60.6677 21.5793L60.8965 21.5566ZM61.7415 20.5044L59.7833 18.5098H59.5767L61.7415 20.641V20.5044Z" fill="#75787F"/>
<path d="M60.411 21.5566V20.2038H59.396V19.958H60.411V18.5098H60.6578V19.958H61.7279V20.2038H60.6578V21.5566H60.411Z" fill="#DBDCF1"/>
<path d="M61.8546 18.1406V21.6933H59.2197V18.1406H61.8546ZM59.5018 21.379H61.5732V18.7544H59.5018V21.379Z" fill="#DBDCF1"/>
<path d="M68.5889 21.543H66.257V18.4275H68.5889V21.543Z" fill="#4A4D56"/>
<path d="M68.6308 21.225L66.2846 18.7555V19.4206L68.3973 21.6157L68.6308 21.225ZM67.7721 21.5566L66.2295 19.9855V20.2587L67.5433 21.5793L67.7721 21.5566ZM68.6171 20.5044L66.6589 18.5098H66.4517L68.6171 20.641V20.5044Z" fill="#75787F"/>
<path d="M67.2856 21.5566V20.2038H66.27V19.958H67.2856V18.5098H67.5324V19.958H68.6025V20.2038H67.5324V21.5566H67.2856Z" fill="#DBDCF1"/>
<path d="M68.7301 18.1406V21.6933H66.0952V18.1406H68.7301ZM66.3773 21.379H68.4475V18.7544H66.3761L66.3773 21.379Z" fill="#DBDCF1"/>
<path d="M53.5562 26.1125H54.8496V26.5909H53.5562V26.1125ZM54.258 20.1106H55.5515V20.589H54.258V20.1106ZM53.5927 18.4912H54.8862V18.9696H53.5927V18.4912ZM54.258 14.1094H55.5515V14.5878H54.258V14.1094ZM54.2215 28.137H55.515V28.6153H54.2215V28.137ZM53.5562 31.3037H54.8496V31.7821H53.5562V31.3037Z" fill="#FFE0BD"/>
<path d="M46.5701 17.4784C47.6519 17.4784 48.5289 16.6048 48.5289 15.5273C48.5289 14.4497 47.6519 13.5762 46.5701 13.5762C45.4883 13.5762 44.6113 14.4497 44.6113 15.5273C44.6113 16.6048 45.4883 17.4784 46.5701 17.4784Z" fill="#DBDCF1"/>
<path d="M43.7612 31.5781H49.3424V36.8797H43.7612V31.5781Z" fill="#4A4D56"/>
<path d="M43.7975 33.2355L45.3132 31.6895H45.6462L43.7975 33.6036V33.2355ZM43.8718 34.2484L46.1264 31.9102V32.7202L43.8718 35.1133V34.2484ZM45.609 35.4079L44.2928 36.8807H45.0186L46.2743 35.4079H45.609ZM45.0916 35.4079L43.7754 36.8437H43.9467L45.2761 35.4079H45.0916ZM44.4263 35.0029L46.0528 33.1986V33.5302L44.685 35.0029H44.4263ZM47.0133 33.2355L48.529 31.6895H48.8619L47.0133 33.6036V33.2355ZM47.0876 34.2484L49.3422 31.9102V32.7202L47.0876 35.1133V34.2484ZM48.8248 35.4079L47.5085 36.8807H48.2343L49.4901 35.4079H48.8248ZM48.3074 35.4079L46.9912 36.8437H47.1624L48.4918 35.4079H48.3074ZM47.6421 35.0029L49.2685 33.1986V33.5302L47.9008 35.0029H47.6421Z" fill="#75787F"/>
<path d="M43.3423 31.3223V37.1762H46.6215V31.3223H43.3423ZM45.94 36.6459H44.0238V35.543H45.94V36.6459ZM45.94 34.8642H44.0238V31.8519H45.94V34.8642Z" fill="#DBDCF1"/>
<path d="M46.521 31.3223V37.1762H49.8002V31.3223H46.521ZM49.1194 36.6459H47.2031V35.543H49.1194V36.6459ZM49.1194 34.8642H47.2031V31.8519H49.1194V34.8642Z" fill="#DBDCF1"/>
<path d="M82.8809 29.1309H83.2078V37.728H82.8809V29.1309Z" fill="#197A83"/>
<path d="M83.0819 25.9082C83.0819 25.9082 79.7918 33.3452 83.0819 35.3703V25.9082Z" fill="#197A83"/>
<path d="M83.0454 25.9082C83.0454 25.9082 86.3348 33.3452 83.0454 35.3703V25.9082Z" fill="#5CC2AD"/>
<path d="M9.90234 29.1309H10.2293V37.728H9.90234V29.1309Z" fill="#197A83"/>
<path d="M10.1031 25.9082C10.1031 25.9082 6.81366 33.3452 10.1031 35.3703V25.9082Z" fill="#197A83"/>
<path d="M10.0654 25.9082C10.0654 25.9082 13.3554 33.3452 10.0654 35.3703V25.9082Z" fill="#5CC2AD"/>
<path d="M36.7358 30.832H37.0628V37.7286H36.7358V30.832Z" fill="#197A83"/>
<path d="M36.929 28.248C36.929 28.248 34.2905 34.2129 36.929 35.8389V28.248Z" fill="#197A83"/>
<path d="M36.9004 28.248C36.9004 28.248 39.5395 34.2129 36.9004 35.8389V28.248Z" fill="#5CC2AD"/>
<path d="M53.9951 32.9062H54.3221V37.7283H53.9951V32.9062Z" fill="#197A83"/>
<path d="M54.1801 31.0996C54.1801 31.0996 52.3345 35.2714 54.1801 36.4083V31.0996Z" fill="#197A83"/>
<path d="M54.1583 31.0996C54.1583 31.0996 56.0033 35.2714 54.1583 36.4083V31.0996ZM9.0376 37.1766H84.0589V38.3177H9.0376V37.1766Z" fill="#5CC2AD"/>
<path d="M34.8744 39.9902H40.3753L39.9939 40.3701H34.4929L34.8744 39.9902ZM26.1595 39.9902H31.6604L31.2796 40.3701H25.778L26.1595 39.9902ZM17.5536 39.9902H23.0545L22.6736 40.3701H17.1721L17.5536 39.9902ZM8.89318 39.9902H14.3941L14.0126 40.3701H8.51172L8.89318 39.9902ZM58.0776 39.9902H52.576L52.9575 40.3701H58.4584L58.0776 39.9902ZM66.7925 39.9902H61.2909L61.6724 40.3701H67.1733L66.7925 39.9902ZM75.3984 39.9902H69.8968L70.2783 40.3701H75.7792L75.3984 39.9902ZM84.0588 39.9902H78.5573L78.9387 40.3701H84.4396L84.0588 39.9902Z" fill="#4A4D56"/>
<path d="M93 48.0001V46.6627L54.3755 41.8008V43.1983L59.1351 48.0001H93Z" fill="#197A83"/>
<path d="M87.8649 41.7812H54.3677L59.3782 46.6641H92.985L87.8649 41.7812Z" fill="#5CC2AD"/>
<path d="M71.1704 35.8516H71.4974V43.86H71.1704V35.8516Z" fill="#197A83"/>
<path d="M71.3678 32.8496C71.3678 32.8496 68.3035 39.7772 71.3678 41.6639V32.8496Z" fill="#197A83"/>
<path d="M71.3345 32.8496C71.3345 32.8496 74.3987 39.7772 71.3345 41.6639V32.8496Z" fill="#5CC2AD"/>
<path d="M59.9346 41.1367H60.2615V45.6485H59.9346V41.1367Z" fill="#197A83"/>
<path d="M60.1179 39.4473C60.1179 39.4473 58.3914 43.3501 60.1179 44.413V39.4473Z" fill="#197A83"/>
<path d="M60.0981 39.4473C60.0981 39.4473 61.8246 43.3501 60.0981 44.413V39.4473ZM83.9247 42.1828H84.2517V44.6188H83.9247V42.1828Z" fill="#197A83"/>
<path d="M84.0995 41.2695C84.0995 41.2695 83.1671 43.3775 84.0995 43.9537V41.2695Z" fill="#197A83"/>
<path d="M84.0889 41.2695C84.0889 41.2695 85.0213 43.3775 84.0889 43.9537V41.2695Z" fill="#197A83"/>
<path d="M0 48.0001V46.6627L38.6245 41.8008V43.1983L33.8649 48.0001H0Z" fill="#197A83"/>
<path d="M5.13472 41.7812H38.6325L33.6215 46.6641H0.0146484L5.13472 41.7812Z" fill="#5CC2AD"/>
<path d="M29.1294 35.2617H29.4564V43.8589H29.1294V35.2617Z" fill="#197A83"/>
<path d="M29.3296 32.041C29.3296 32.041 26.0402 39.478 29.3296 41.5031V32.041Z" fill="#197A83"/>
<path d="M29.2939 32.041C29.2939 32.041 32.5834 39.478 29.2939 41.5031V32.041Z" fill="#5CC2AD"/>
<path d="M17.2319 41.7363H17.5589V46.2482H17.2319V41.7363Z" fill="#197A83"/>
<path d="M17.4153 40.0449C17.4153 40.0449 15.6888 43.9477 17.4153 45.0107V40.0449Z" fill="#197A83"/>
<path d="M17.3958 40.0449C17.3958 40.0449 19.1222 43.9477 17.3958 45.0107V40.0449ZM7.10352 41.1502H7.43048V43.5863H7.10352V41.1502Z" fill="#197A83"/>
<path d="M7.27719 40.2383C7.27719 40.2383 6.3448 42.3457 7.27719 42.9195V40.2383Z" fill="#197A83"/>
<path d="M7.2666 40.2383C7.2666 40.2383 8.19839 42.3457 7.2666 42.9195V40.2383Z" fill="#197A83"/>
<path d="M37.8569 3.40423C37.8569 3.40423 36.7617 1.68396 34.6555 2.85845C34.6555 2.85845 33.9369 0.677095 31.4967 1.80982C31.4967 1.80982 29.2642 -2.42523 25.2628 2.06154C25.2628 2.06154 23.6621 1.59986 23.4513 2.9002C23.4513 2.9002 22.3979 2.77434 22.3135 3.40423H37.8569ZM60.6032 7.23487H71.5242C71.5242 7.23487 69.502 4.81731 67.1323 6.25663C67.1347 6.25663 63.3788 2.63059 60.6032 7.23487Z" fill="#DBDCF1"/>
</svg>
