<svg width="16" height="18" viewBox="0 0 16 18" fill="none" xmlns="http://www.w3.org/2000/svg">
<path d="M11.5556 8.577C11.2978 8.316 10.8711 8.316 10.6133 8.577L6.74667 12.492L5.33333 11.061C5.07556 10.8 4.64889 10.8 4.39111 11.061C4.13333 11.322 4.13333 11.754 4.39111 12.015L6.11556 13.761C6.46222 14.112 7.02222 14.112 7.36889 13.761L11.5467 9.531C11.8133 9.27 11.8133 8.838 11.5556 8.577ZM14.2222 1.8H13.3333V0.9C13.3333 0.405 12.9333 0 12.4444 0C11.9556 0 11.5556 0.405 11.5556 0.9V1.8H4.44444V0.9C4.44444 0.405 4.04444 0 3.55556 0C3.06667 0 2.66667 0.405 2.66667 0.9V1.8H1.77778C0.791111 1.8 0.00888888 2.61 0.00888888 3.6L0 16.2C0 17.19 0.791111 18 1.77778 18H14.2222C15.2 18 16 17.19 16 16.2V3.6C16 2.61 15.2 1.8 14.2222 1.8ZM13.3333 16.2H2.66667C2.17778 16.2 1.77778 15.795 1.77778 15.3V6.3H14.2222V15.3C14.2222 15.795 13.8222 16.2 13.3333 16.2Z" fill="#F3601E"/>
</svg>
