<svg width="26" height="20" viewBox="0 0 26 20" fill="none" xmlns="http://www.w3.org/2000/svg">
    <path d="M21.3772 5.26276C20.5822 3.50631 19.21 2.04894 17.471 1.11397C15.732 0.179009 13.7221 -0.181972 11.7494 0.0863475C9.77657 0.354667 7.9497 1.23748 6.5487 2.59952C5.1477 3.96155 4.24986 5.72766 3.99275 7.62722C2.75213 7.91286 1.66383 8.6266 0.93451 9.63288C0.20519 10.6392 -0.114353 11.8679 0.0365632 13.0858C0.18748 14.3036 0.798345 15.4258 1.75315 16.2392C2.70796 17.0526 3.94022 17.5005 5.21591 17.4979C5.56102 17.4979 5.89199 17.3661 6.13602 17.1315C6.38005 16.8969 6.51714 16.5787 6.51714 16.2469C6.51714 15.9151 6.38005 15.5969 6.13602 15.3623C5.89199 15.1276 5.56102 14.9958 5.21591 14.9958C4.52569 14.9958 3.86374 14.7322 3.37569 14.263C2.88763 13.7938 2.61344 13.1574 2.61344 12.4938C2.61344 11.8302 2.88763 11.1938 3.37569 10.7245C3.86374 10.2553 4.52569 9.99169 5.21591 9.99169C5.56102 9.99169 5.89199 9.85988 6.13602 9.62527C6.38005 9.39065 6.51714 9.07244 6.51714 8.74065C6.52046 7.26102 7.06924 5.83042 8.06596 4.70302C9.06268 3.57563 10.4428 2.82442 11.9612 2.58288C13.4795 2.34133 15.0378 2.62508 16.3591 3.38371C17.6804 4.14234 18.6793 5.32674 19.1781 6.72648C19.2525 6.94145 19.3862 7.13298 19.565 7.2806C19.7437 7.42823 19.9608 7.52641 20.1931 7.56467C21.0598 7.72214 21.8455 8.15717 22.4221 8.79887C22.9988 9.44056 23.3324 10.2511 23.3686 11.0984C23.4048 11.9457 23.1415 12.7798 22.6216 13.4649C22.1017 14.1499 21.3557 14.6454 20.5054 14.8707C20.1706 14.9537 19.8839 15.1611 19.7082 15.4473C19.5325 15.7336 19.4822 16.0752 19.5685 16.397C19.6548 16.7189 19.8705 16.9946 20.1682 17.1635C20.4659 17.3324 20.8213 17.3807 21.156 17.2978C22.5254 16.9499 23.7393 16.1818 24.6134 15.1103C25.4875 14.0387 25.974 12.7222 25.999 11.3607C26.024 9.99911 25.5862 8.66689 24.7521 7.56632C23.9179 6.46576 22.733 5.65696 21.3772 5.26276ZM13.9472 7.85241C13.8234 7.73852 13.6775 7.64924 13.5178 7.58969C13.201 7.46457 12.8456 7.46457 12.5288 7.58969C12.3691 7.64924 12.2232 7.73852 12.0994 7.85241L8.19573 11.6055C7.9507 11.8411 7.81305 12.1606 7.81305 12.4938C7.81305 12.8269 7.9507 13.1464 8.19573 13.382C8.44076 13.6176 8.77309 13.7499 9.11961 13.7499C9.46613 13.7499 9.79846 13.6176 10.0435 13.382L11.7221 11.7557V18.749C11.7221 19.0808 11.8592 19.399 12.1032 19.6336C12.3472 19.8682 12.6782 20 13.0233 20C13.3684 20 13.6994 19.8682 13.9434 19.6336C14.1874 19.399 14.3245 19.0808 14.3245 18.749V11.7557L16.0031 13.382C16.1241 13.4993 16.268 13.5923 16.4266 13.6558C16.5851 13.7194 16.7552 13.7521 16.927 13.7521C17.0988 13.7521 17.2689 13.7194 17.4274 13.6558C17.586 13.5923 17.7299 13.4993 17.8509 13.382C17.9728 13.2657 18.0696 13.1273 18.1357 12.9749C18.2018 12.8224 18.2358 12.6589 18.2358 12.4938C18.2358 12.3286 18.2018 12.1651 18.1357 12.0126C18.0696 11.8602 17.9728 11.7218 17.8509 11.6055L13.9472 7.85241Z" fill="#747579"/>
</svg>
