<svg width="40" height="22" viewBox="0 0 40 22" fill="none" xmlns="http://www.w3.org/2000/svg">
<path d="M0 0.887207H40V21.8872H0V0.887207Z" fill="white"/>
<path d="M0 0.887207H40V2.50477H0V0.887207ZM0 4.11525H40V5.73281H0V4.11525ZM0 7.35038H40V8.96795H0V7.35038ZM0 10.5784H40V12.196H0V10.5784ZM0 13.8065H40V15.424H0V13.8065ZM0 17.0416H40V18.6592H0V17.0416ZM0 20.2696H40V21.8872H0V20.2696Z" fill="#DC1F2B"/>
<path d="M0 0.887207H17.6875V12.2386H0V0.887207Z" fill="white"/>
<path d="M0 0.887207V12.2386H17.6797V0.887207H0ZM1.9375 11.5291L1.51562 11.2524L1.09375 11.5291L1.25 11.1034L0.828125 10.8267H1.35156L1.40625 10.6636L1.50781 10.3798L1.60938 10.6636L1.67188 10.8267H2.1875L1.78125 11.1034L1.9375 11.5291ZM1.78125 8.83315L1.84375 9.01761L1.94531 9.28721L1.53125 9.01761L1.125 9.28721L1.21875 9.01761L1.25 8.83315L0.828125 8.55646H1.35156L1.50781 8.1095L1.67188 8.55646H2.1875L1.78125 8.83315ZM1.78125 6.60545L1.94531 7.05241L1.52344 6.77572L1.10156 7.05241L1.25 6.59835L0.828125 6.32167H1.35156L1.50781 5.87471L1.67188 6.32167H2.1875L1.78125 6.60545ZM2.13281 4.13653L1.78125 4.37065L1.94531 4.81761L1.52344 4.54802L1.10156 4.81761L1.25 4.36356L0.890625 4.12944L0.820312 4.08687H1.34375L1.5 3.63991L1.66406 4.08687H2.1875L2.13281 4.13653ZM1.78125 2.09329L1.92969 2.51187V2.54025L1.875 2.50477L1.49219 2.25646L1.10938 2.50477L1.07031 2.53315V2.50477L1.24219 2.08619L0.820312 1.8095H1.34375L1.5 1.35545L1.66406 1.8095H2.1875L1.78125 2.09329ZM3.40625 10.394L2.98438 10.1173L2.5625 10.394L2.72656 9.96829L2.30469 9.6916H2.82031L2.98438 9.23754L3.14062 9.6916H3.67188L3.25 9.96829L3.40625 10.394ZM3.24219 7.69802L3.40625 8.14498L2.98438 7.87538L2.5625 8.14498L2.72656 7.69802L2.30469 7.42133H2.82031L2.97656 6.99565L3.125 7.42133H3.64844L3.24219 7.69802ZM3.24219 5.47031L3.35156 5.76829L3.40625 5.92437L3.17188 5.76829L2.98438 5.64058L2.78906 5.76829L2.55469 5.92437L2.60938 5.76829L2.71875 5.47031L2.29688 5.19362H2.8125L2.97656 4.74667L3.11719 5.18653H3.64062L3.24219 5.47031ZM3.24219 3.23552L3.40625 3.68957L2.98438 3.41288L2.5625 3.68957L2.72656 3.23552L2.30469 2.95883H2.82031L2.97656 2.51896L3.11719 2.94464H3.64062L3.24219 3.23552ZM4.86719 11.5362L4.44531 11.2595L4.02344 11.5362L4.17969 11.0963L3.74219 10.7913H4.25781L4.32031 10.6281L4.42188 10.3443L4.52344 10.6281L4.58594 10.7913H5.10156L4.70312 11.0963L4.86719 11.5362ZM4.71094 8.83315L4.77344 9.01761L4.86719 9.28721L4.46094 9.01761L4.05469 9.28721L4.14844 9.01761L4.1875 8.83315L3.75 8.54937H4.26562L4.42969 8.10241L4.59375 8.54937H5.10938L4.71094 8.83315ZM4.71094 6.60545L4.86719 7.05241L4.44531 6.77572L4.02344 7.05241L4.17969 6.60545L3.74219 6.32167H4.25781L4.42188 5.87471L4.58594 6.32167H5.10156L4.71094 6.60545ZM5.0625 4.12944L4.71094 4.36356L4.86719 4.81052L4.44531 4.54092L4.02344 4.81052L4.17969 4.36356L3.82812 4.12944L3.74219 4.08687H4.25781L4.42188 3.63991L4.58594 4.08687H5.10156L5.0625 4.12944ZM4.71094 2.08619L4.85938 2.50477V2.53315L4.82031 2.50477L4.4375 2.25646L4.05469 2.50477L4.01562 2.53315V2.50477L4.16406 2.08619L3.74219 1.8095H4.25781L4.42188 1.35545L4.58594 1.8095H5.10156L4.71094 2.08619ZM6.33594 10.3869L5.91406 10.1102L5.49219 10.3869L5.65625 9.96829L5.23438 9.6916H5.75781L5.91406 9.23754L6.07812 9.6916H6.59375L6.17188 9.96829L6.33594 10.3869ZM6.17188 7.69802L6.33594 8.14498L5.91406 7.87538L5.49219 8.14498L5.65625 7.69802L5.23438 7.42133H5.75781L5.90625 6.99565L6.05469 7.42133H6.57031L6.17188 7.69802ZM6.17188 5.47031L6.28125 5.76829L6.33594 5.92437L6.10156 5.76829L5.90625 5.64058L5.71875 5.76829L5.48438 5.92437L5.53906 5.76829L5.64844 5.47031L5.22656 5.19362H5.75L5.90625 4.74667L6.07031 5.19362H6.58594L6.17188 5.47031ZM6.17188 3.23552L6.33594 3.68957L5.91406 3.41288L5.49219 3.68957L5.65625 3.23552L5.23438 2.95883H5.75781L5.91406 2.51896L6.07031 2.95883H6.58594L6.17188 3.23552ZM7.79688 11.5362L7.375 11.2595L6.95312 11.5362L7.11719 11.0821L6.69531 10.8054H7.21094L7.27344 10.6423L7.375 10.3585L7.47656 10.6423L7.53125 10.8054H8.05469L7.63281 11.0821L7.79688 11.5362ZM7.64062 8.83315L7.71094 9.01761L7.80469 9.28721L7.39844 9.01761L6.98438 9.28721L7.08594 9.01761L7.14844 8.83315L6.72656 8.55646H7.24219L7.40625 8.1095L7.5625 8.55646H8.08594L7.64062 8.83315ZM7.64062 6.60545L7.80469 7.05241L7.38281 6.77572L6.96094 7.05241L7.125 6.60545L6.70312 6.32876H7.21875L7.38281 5.8818L7.53906 6.32876H8.0625L7.64062 6.60545ZM7.99219 4.13653L7.63281 4.37065L7.79688 4.81761L7.375 4.54802L6.95312 4.81761L7.11719 4.37065L6.76562 4.13653L6.69531 4.09396H7.21094L7.375 3.647L7.53125 4.09396H8.05469L7.99219 4.13653ZM7.64062 2.09329L7.79688 2.51187V2.54025L7.75781 2.51187L7.375 2.26356L6.99219 2.51187L6.94531 2.54025V2.51187L7.09375 2.09329L6.67188 1.8166H7.1875L7.35156 1.36254L7.50781 1.8166H8.03125L7.64062 2.09329ZM9.26562 10.394L8.84375 10.1173L8.42188 10.394L8.57812 9.947L8.15625 9.67031H8.67188L8.83594 9.21626L9 9.67031H9.51562L9.09375 9.947L9.26562 10.394ZM9.10938 7.69802L9.26562 8.14498L8.84375 7.87538L8.42188 8.14498L8.57812 7.69802L8.15625 7.42133H8.67188L8.82031 6.99565L8.96875 7.42133H9.48438L9.10938 7.69802ZM9.10938 5.47031L9.21875 5.76829L9.26562 5.92437L9.03906 5.76829L8.84375 5.64058L8.64844 5.76829L8.42188 5.92437L8.46875 5.76829L8.57812 5.47031L8.15625 5.19362H8.67188L8.83594 4.74667L9 5.19362H9.51562L9.10938 5.47031ZM9.10938 3.23552L9.26562 3.68957L8.84375 3.41288L8.42188 3.68957L8.57812 3.23552L8.15625 2.95883H8.67188L8.82812 2.51896L8.98438 2.95883H9.5L9.10938 3.23552ZM10.7344 11.5362L10.3125 11.2595L9.89062 11.5362L10.0547 11.0821L9.63281 10.8054H10.1562L10.2109 10.6423L10.3125 10.3585L10.4219 10.6423L10.4766 10.8054H10.9922L10.5703 11.0821L10.7344 11.5362ZM10.5703 8.83315L10.6328 9.01761L10.7344 9.28721L10.3203 9.01761L9.90625 9.28721L10 9.01761L10.0703 8.83315L9.64844 8.55646H10.1719L10.3281 8.1095L10.4922 8.55646H11.0078L10.5703 8.83315ZM10.5703 6.60545L10.7344 7.05241L10.3125 6.77572L9.89062 7.05241L10.0547 6.60545L9.63281 6.32876H10.1562L10.3125 5.8818L10.4766 6.32876H10.9922L10.5703 6.60545ZM10.9219 4.13653L10.5703 4.37065L10.7344 4.81761L10.3125 4.54802L9.89062 4.81761L10.0547 4.37065L9.69531 4.13653L9.625 4.09396H10.1484L10.3047 3.647L10.4688 4.09396H10.9844L10.9219 4.13653ZM10.5703 2.09329L10.7188 2.51187V2.54025L10.6719 2.51187L10.2891 2.26356L9.90625 2.51187L9.86719 2.54025V2.51187L10.0156 2.09329L9.59375 1.8166H10.1172L10.2734 1.36254L10.4375 1.8166H10.9531L10.5703 2.09329ZM12.1953 10.394L11.7734 10.1173L11.3516 10.394L11.5156 9.947L11.0938 9.67031H11.6094L11.7734 9.21626L11.9297 9.67031H12.4531L12.0312 9.947L12.1953 10.394ZM12.0312 7.69802L12.1953 8.14498L11.7734 7.87538L11.3516 8.14498L11.5156 7.69802L11.0938 7.42133H11.6094L11.7578 6.99565L11.9062 7.42133H12.4297L12.0312 7.69802ZM12.0312 5.47031L12.1406 5.76829L12.1953 5.92437L11.9609 5.76829L11.7734 5.64058L11.5781 5.76829L11.3438 5.92437L11.3984 5.76829L11.5078 5.47031L11.0859 5.19362H11.6016L11.7656 4.74667L11.9219 5.19362H12.4453L12.0312 5.47031ZM12.0312 3.23552L12.1953 3.68957L11.7734 3.41288L11.3516 3.68957L11.5156 3.23552L11.0938 2.95883H11.6094L11.7656 2.51896L11.9219 2.95883H12.4453L12.0312 3.23552ZM13.6562 11.5362L13.2344 11.2595L12.8125 11.5362L12.9688 11.0821L12.5469 10.8054H13.0625L13.125 10.6423L13.2266 10.3585L13.3281 10.6423L13.3906 10.8054H13.9062L13.4844 11.1034L13.6562 11.5362ZM13.5 8.83315L13.5625 9.01761L13.6562 9.28721L13.25 9.01761L12.8438 9.28721L12.9375 9.01761L13 8.83315L12.5781 8.55646H13.0938L13.2578 8.1095L13.4219 8.55646H13.9375L13.5 8.83315ZM13.5 6.60545L13.6562 7.05241L13.2344 6.77572L12.8125 7.05241L12.9688 6.60545L12.5469 6.32876H13.0625L13.2266 5.8818L13.3906 6.32876H13.9062L13.5 6.60545ZM13.8516 4.13653L13.5 4.37065L13.6562 4.81761L13.2344 4.54802L12.8125 4.81761L12.9688 4.37065L12.6172 4.13653L12.5469 4.09396H13.0625L13.2266 3.647L13.3906 4.09396H13.9062L13.8516 4.13653ZM13.5 2.09329L13.6484 2.51187V2.54025L13.6094 2.51187L13.2266 2.26356L12.8438 2.51187L12.8047 2.54025V2.50477L12.9531 2.08619L12.5312 1.8095H13.0469L13.2109 1.35545L13.375 1.8095H13.8906L13.5 2.09329ZM15.125 10.394L14.7031 10.1173L14.2812 10.394L14.4453 9.947L14.0234 9.67031H14.5469L14.7031 9.21626L14.8672 9.67031H15.3828L14.9609 9.947L15.125 10.394ZM14.9609 7.69802L15.125 8.14498L14.7031 7.87538L14.2812 8.14498L14.4453 7.69802L14.0234 7.42133H14.5469L14.6953 6.99565L14.8516 7.42133H15.3672L14.9609 7.69802ZM14.9609 5.47031L15.0703 5.76829L15.125 5.92437L14.8906 5.76829L14.6953 5.64058L14.5078 5.76829L14.2734 5.92437L14.3281 5.76829L14.4375 5.47031L14.0156 5.19362H14.5391L14.6953 4.74667L14.8594 5.19362H15.375L14.9609 5.47031ZM14.9609 3.23552L15.125 3.68957L14.7031 3.41288L14.2812 3.68957L14.4453 3.23552L14.0234 2.95883H14.5469L14.7031 2.51896L14.8594 2.95883H15.375L14.9609 3.23552ZM16.5859 11.5362L16.1641 11.2595L15.7422 11.5362L15.9062 11.0821L15.4844 10.8054H16L16.0625 10.6423L16.1641 10.3585L16.2656 10.6423L16.3203 10.8054H16.8672L16.4453 11.0821L16.5859 11.5362ZM16.4219 8.83315L16.4922 9.01761L16.5859 9.28721L16.1797 9.01761L15.7656 9.28721L15.8672 9.01761L15.9297 8.83315L15.5078 8.55646H16.0234L16.1875 8.1095L16.3438 8.55646H16.8672L16.4219 8.83315ZM16.4219 6.60545L16.5859 7.05241L16.1641 6.77572L15.7422 7.05241L15.9062 6.60545L15.4844 6.32876H16L16.1641 5.8818L16.3203 6.32876H16.8672L16.4219 6.60545ZM16.7812 4.13653L16.4219 4.37065L16.5859 4.81761L16.1719 4.54802L15.75 4.81761L15.9141 4.37065L15.5625 4.13653L15.4922 4.09396H16.0078L16.1719 3.647L16.3281 4.09396H16.875L16.7812 4.13653ZM16.4219 2.09329L16.5781 2.51187V2.54025L16.5391 2.51187L16.1562 2.26356L15.7734 2.51187L15.7266 2.54025V2.51187L15.875 2.09329L15.4531 1.8166H15.9688L16.1328 1.36254L16.2891 1.8166H16.8594L16.4219 2.09329Z" fill="#1B304F"/>
</svg>
