<svg width="35" height="18" viewBox="0 0 35 18" fill="none" xmlns="http://www.w3.org/2000/svg">
<path d="M0 0H35V18H0V0Z" fill="white"/>
<path d="M0 0H35V1.38649H0V0ZM0 2.76689H35V4.15338H0V2.76689ZM0 5.53987H35V6.92635H0V5.53987ZM0 8.30676H35V9.69324H0V8.30676ZM0 11.0736H35V12.4601H0V11.0736ZM0 13.8466H35V15.2331H0V13.8466ZM0 16.6135H35V18H0V16.6135Z" fill="#DC1F2B"/>
<path d="M0 0H15.4766V9.72973H0V0Z" fill="white"/>
<path d="M0 0V9.72973H15.4697V0H0ZM1.69531 9.12162L1.32617 8.88446L0.957031 9.12162L1.09375 8.75676L0.724609 8.51959H1.18262L1.23047 8.37973L1.31934 8.13649L1.4082 8.37973L1.46289 8.51959H1.91406L1.55859 8.75676L1.69531 9.12162ZM1.55859 6.81081L1.61328 6.96892L1.70215 7.2L1.33984 6.96892L0.984375 7.2L1.06641 6.96892L1.09375 6.81081L0.724609 6.57365H1.18262L1.31934 6.19054L1.46289 6.57365H1.91406L1.55859 6.81081ZM1.55859 4.90135L1.70215 5.28446L1.33301 5.0473L0.963867 5.28446L1.09375 4.89527L0.724609 4.65811H1.18262L1.31934 4.275L1.46289 4.65811H1.91406L1.55859 4.90135ZM1.86621 2.78513L1.55859 2.98581L1.70215 3.36892L1.33301 3.13784L0.963867 3.36892L1.09375 2.97973L0.779297 2.77905L0.717773 2.74257H1.17578L1.3125 2.35946L1.45605 2.74257H1.91406L1.86621 2.78513ZM1.55859 1.03378L1.68848 1.39257V1.41689L1.64062 1.38649L1.30566 1.17365L0.970703 1.38649L0.936523 1.41081V1.38649L1.08691 1.0277L0.717773 0.790541H1.17578L1.3125 0.401351L1.45605 0.790541H1.91406L1.55859 1.03378ZM2.98047 8.14865L2.61133 7.91149L2.24219 8.14865L2.38574 7.78378L2.0166 7.54662H2.46777L2.61133 7.15743L2.74805 7.54662H3.21289L2.84375 7.78378L2.98047 8.14865ZM2.83691 5.83784L2.98047 6.22094L2.61133 5.98986L2.24219 6.22094L2.38574 5.83784L2.0166 5.60068H2.46777L2.60449 5.23581L2.73438 5.60068H3.19238L2.83691 5.83784ZM2.83691 3.92838L2.93262 4.18378L2.98047 4.31757L2.77539 4.18378L2.61133 4.07432L2.44043 4.18378L2.23535 4.31757L2.2832 4.18378L2.37891 3.92838L2.00977 3.69122H2.46094L2.60449 3.30811L2.72754 3.68513H3.18555L2.83691 3.92838ZM2.83691 2.01284L2.98047 2.40203L2.61133 2.16486L2.24219 2.40203L2.38574 2.01284L2.0166 1.77568H2.46777L2.60449 1.39865L2.72754 1.76351H3.18555L2.83691 2.01284ZM4.25879 9.1277L3.88965 8.89054L3.52051 9.1277L3.65723 8.75068L3.27441 8.48919H3.72559L3.78027 8.34932L3.86914 8.10608L3.95801 8.34932L4.0127 8.48919H4.46387L4.11523 8.75068L4.25879 9.1277ZM4.12207 6.81081L4.17676 6.96892L4.25879 7.2L3.90332 6.96892L3.54785 7.2L3.62988 6.96892L3.66406 6.81081L3.28125 6.56757H3.73242L3.87598 6.18446L4.01953 6.56757H4.4707L4.12207 6.81081ZM4.12207 4.90135L4.25879 5.28446L3.88965 5.0473L3.52051 5.28446L3.65723 4.90135L3.27441 4.65811H3.72559L3.86914 4.275L4.0127 4.65811H4.46387L4.12207 4.90135ZM4.42969 2.77905L4.12207 2.97973L4.25879 3.36284L3.88965 3.13176L3.52051 3.36284L3.65723 2.97973L3.34961 2.77905L3.27441 2.74257H3.72559L3.86914 2.35946L4.0127 2.74257H4.46387L4.42969 2.77905ZM4.12207 1.0277L4.25195 1.38649V1.41081L4.21777 1.38649L3.88281 1.17365L3.54785 1.38649L3.51367 1.41081V1.38649L3.64355 1.0277L3.27441 0.790541H3.72559L3.86914 0.401351L4.0127 0.790541H4.46387L4.12207 1.0277ZM5.54395 8.14257L5.1748 7.9054L4.80566 8.14257L4.94922 7.78378L4.58008 7.54662H5.03809L5.1748 7.15743L5.31836 7.54662H5.76953L5.40039 7.78378L5.54395 8.14257ZM5.40039 5.83784L5.54395 6.22094L5.1748 5.98986L4.80566 6.22094L4.94922 5.83784L4.58008 5.60068H5.03809L5.16797 5.23581L5.29785 5.60068H5.74902L5.40039 5.83784ZM5.40039 3.92838L5.49609 4.18378L5.54395 4.31757L5.33887 4.18378L5.16797 4.07432L5.00391 4.18378L4.79883 4.31757L4.84668 4.18378L4.94238 3.92838L4.57324 3.69122H5.03125L5.16797 3.30811L5.31152 3.69122H5.7627L5.40039 3.92838ZM5.40039 2.01284L5.54395 2.40203L5.1748 2.16486L4.80566 2.40203L4.94922 2.01284L4.58008 1.77568H5.03809L5.1748 1.39865L5.31152 1.77568H5.7627L5.40039 2.01284ZM6.82227 9.1277L6.45312 8.89054L6.08398 9.1277L6.22754 8.73851L5.8584 8.50135H6.30957L6.36426 8.36149L6.45312 8.11824L6.54199 8.36149L6.58984 8.50135H7.04785L6.67871 8.73851L6.82227 9.1277ZM6.68555 6.81081L6.74707 6.96892L6.8291 7.2L6.47363 6.96892L6.11133 7.2L6.2002 6.96892L6.25488 6.81081L5.88574 6.57365H6.33691L6.48047 6.19054L6.61719 6.57365H7.0752L6.68555 6.81081ZM6.68555 4.90135L6.8291 5.28446L6.45996 5.0473L6.09082 5.28446L6.23438 4.90135L5.86523 4.66419H6.31641L6.45996 4.28108L6.59668 4.66419H7.05469L6.68555 4.90135ZM6.99316 2.78513L6.67871 2.98581L6.82227 3.36892L6.45312 3.13784L6.08398 3.36892L6.22754 2.98581L5.91992 2.78513L5.8584 2.74865H6.30957L6.45312 2.36554L6.58984 2.74865H7.04785L6.99316 2.78513ZM6.68555 1.03378L6.82227 1.39257V1.41689L6.78809 1.39257L6.45312 1.17973L6.11816 1.39257L6.07715 1.41689V1.39257L6.20703 1.03378L5.83789 0.796622H6.28906L6.43262 0.407432L6.56934 0.796622H7.02734L6.68555 1.03378ZM8.10742 8.14865L7.73828 7.91149L7.36914 8.14865L7.50586 7.76554L7.13672 7.52838H7.58789L7.73145 7.13919L7.875 7.52838H8.32617L7.95703 7.76554L8.10742 8.14865ZM7.9707 5.83784L8.10742 6.22094L7.73828 5.98986L7.36914 6.22094L7.50586 5.83784L7.13672 5.60068H7.58789L7.71777 5.23581L7.84766 5.60068H8.29883L7.9707 5.83784ZM7.9707 3.92838L8.06641 4.18378L8.10742 4.31757L7.90918 4.18378L7.73828 4.07432L7.56738 4.18378L7.36914 4.31757L7.41016 4.18378L7.50586 3.92838L7.13672 3.69122H7.58789L7.73145 3.30811L7.875 3.69122H8.32617L7.9707 3.92838ZM7.9707 2.01284L8.10742 2.40203L7.73828 2.16486L7.36914 2.40203L7.50586 2.01284L7.13672 1.77568H7.58789L7.72461 1.39865L7.86133 1.77568H8.3125L7.9707 2.01284ZM9.39258 9.1277L9.02344 8.89054L8.6543 9.1277L8.79785 8.73851L8.42871 8.50135H8.88672L8.93457 8.36149L9.02344 8.11824L9.11914 8.36149L9.16699 8.50135H9.61816L9.24902 8.73851L9.39258 9.1277ZM9.24902 6.81081L9.30371 6.96892L9.39258 7.2L9.03027 6.96892L8.66797 7.2L8.75 6.96892L8.81152 6.81081L8.44238 6.57365H8.90039L9.03711 6.19054L9.18066 6.57365H9.63184L9.24902 6.81081ZM9.24902 4.90135L9.39258 5.28446L9.02344 5.0473L8.6543 5.28446L8.79785 4.90135L8.42871 4.66419H8.88672L9.02344 4.28108L9.16699 4.66419H9.61816L9.24902 4.90135ZM9.55664 2.78513L9.24902 2.98581L9.39258 3.36892L9.02344 3.13784L8.6543 3.36892L8.79785 2.98581L8.4834 2.78513L8.42188 2.74865H8.87988L9.0166 2.36554L9.16016 2.74865H9.61133L9.55664 2.78513ZM9.24902 1.03378L9.37891 1.39257V1.41689L9.33789 1.39257L9.00293 1.17973L8.66797 1.39257L8.63379 1.41689V1.39257L8.76367 1.03378L8.39453 0.796622H8.85254L8.98926 0.407432L9.13281 0.796622H9.58398L9.24902 1.03378ZM10.6709 8.14865L10.3018 7.91149L9.93262 8.14865L10.0762 7.76554L9.70703 7.52838H10.1582L10.3018 7.13919L10.4385 7.52838H10.8965L10.5273 7.76554L10.6709 8.14865ZM10.5273 5.83784L10.6709 6.22094L10.3018 5.98986L9.93262 6.22094L10.0762 5.83784L9.70703 5.60068H10.1582L10.2881 5.23581L10.418 5.60068H10.876L10.5273 5.83784ZM10.5273 3.92838L10.623 4.18378L10.6709 4.31757L10.4658 4.18378L10.3018 4.07432L10.1309 4.18378L9.92578 4.31757L9.97363 4.18378L10.0693 3.92838L9.7002 3.69122H10.1514L10.2949 3.30811L10.4316 3.69122H10.8896L10.5273 3.92838ZM10.5273 2.01284L10.6709 2.40203L10.3018 2.16486L9.93262 2.40203L10.0762 2.01284L9.70703 1.77568H10.1582L10.2949 1.39865L10.4316 1.77568H10.8896L10.5273 2.01284ZM11.9492 9.1277L11.5801 8.89054L11.2109 9.1277L11.3477 8.73851L10.9785 8.50135H11.4297L11.4844 8.36149L11.5732 8.11824L11.6621 8.36149L11.7168 8.50135H12.168L11.7988 8.75676L11.9492 9.1277ZM11.8125 6.81081L11.8672 6.96892L11.9492 7.2L11.5938 6.96892L11.2383 7.2L11.3203 6.96892L11.375 6.81081L11.0059 6.57365H11.457L11.6006 6.19054L11.7441 6.57365H12.1953L11.8125 6.81081ZM11.8125 4.90135L11.9492 5.28446L11.5801 5.0473L11.2109 5.28446L11.3477 4.90135L10.9785 4.66419H11.4297L11.5732 4.28108L11.7168 4.66419H12.168L11.8125 4.90135ZM12.1201 2.78513L11.8125 2.98581L11.9492 3.36892L11.5801 3.13784L11.2109 3.36892L11.3477 2.98581L11.04 2.78513L10.9785 2.74865H11.4297L11.5732 2.36554L11.7168 2.74865H12.168L12.1201 2.78513ZM11.8125 1.03378L11.9424 1.39257V1.41689L11.9082 1.39257L11.5732 1.17973L11.2383 1.39257L11.2041 1.41689V1.38649L11.334 1.0277L10.9648 0.790541H11.416L11.5596 0.401351L11.7031 0.790541H12.1543L11.8125 1.03378ZM13.2344 8.14865L12.8652 7.91149L12.4961 8.14865L12.6396 7.76554L12.2705 7.52838H12.7285L12.8652 7.13919L13.0088 7.52838H13.46L13.0908 7.76554L13.2344 8.14865ZM13.0908 5.83784L13.2344 6.22094L12.8652 5.98986L12.4961 6.22094L12.6396 5.83784L12.2705 5.60068H12.7285L12.8584 5.23581L12.9951 5.60068H13.4463L13.0908 5.83784ZM13.0908 3.92838L13.1865 4.18378L13.2344 4.31757L13.0293 4.18378L12.8584 4.07432L12.6943 4.18378L12.4893 4.31757L12.5371 4.18378L12.6328 3.92838L12.2637 3.69122H12.7217L12.8584 3.30811L13.002 3.69122H13.4531L13.0908 3.92838ZM13.0908 2.01284L13.2344 2.40203L12.8652 2.16486L12.4961 2.40203L12.6396 2.01284L12.2705 1.77568H12.7285L12.8652 1.39865L13.002 1.77568H13.4531L13.0908 2.01284ZM14.5127 9.1277L14.1436 8.89054L13.7744 9.1277L13.918 8.73851L13.5488 8.50135H14L14.0547 8.36149L14.1436 8.11824L14.2324 8.36149L14.2803 8.50135H14.7588L14.3896 8.73851L14.5127 9.1277ZM14.3691 6.81081L14.4307 6.96892L14.5127 7.2L14.1572 6.96892L13.7949 7.2L13.8838 6.96892L13.9385 6.81081L13.5693 6.57365H14.0205L14.1641 6.19054L14.3008 6.57365H14.7588L14.3691 6.81081ZM14.3691 4.90135L14.5127 5.28446L14.1436 5.0473L13.7744 5.28446L13.918 4.90135L13.5488 4.66419H14L14.1436 4.28108L14.2803 4.66419H14.7588L14.3691 4.90135ZM14.6836 2.78513L14.3691 2.98581L14.5127 3.36892L14.1504 3.13784L13.7812 3.36892L13.9248 2.98581L13.6172 2.78513L13.5557 2.74865H14.0068L14.1504 2.36554L14.2871 2.74865H14.7656L14.6836 2.78513ZM14.3691 1.03378L14.5059 1.39257V1.41689L14.4717 1.39257L14.1367 1.17973L13.8018 1.39257L13.7607 1.41689V1.39257L13.8906 1.03378L13.5215 0.796622H13.9727L14.1162 0.407432L14.2529 0.796622H14.752L14.3691 1.03378Z" fill="#1B304F"/>
</svg>
