<svg width="16" height="16" viewBox="0 0 16 16" fill="none" xmlns="http://www.w3.org/2000/svg">
<path d="M8 16C3.6 16 0 12.4 0 8C0 3.6 3.6 0 8 0C12.4 0 16 3.6 16 8C16 12.4 12.4 16 8 16ZM8 1.33333C4.33333 1.33333 1.33333 4.33333 1.33333 8C1.33333 11.6667 4.33333 14.6667 8 14.6667C11.6667 14.6667 14.6667 11.6667 14.6667 8C14.6667 4.33333 11.6667 1.33333 8 1.33333Z" fill="#747579"/>
<path d="M7.33492 12C7.06826 12 6.86826 11.8667 6.66826 11.6667C6.33492 11.2 6.60159 10.5333 7.33492 8.73333C7.46826 8.46667 7.60159 8.13333 7.73492 7.86667C7.46826 8.06667 7.06825 8.06667 6.80159 7.8C6.53492 7.53333 6.53492 7.13333 6.80159 6.86667C6.93492 6.8 7.73492 6 8.66826 6C8.93492 6 9.13492 6.13333 9.33492 6.33333C9.66825 6.8 9.40159 7.46667 8.66826 9.26667C8.53492 9.53333 8.40159 9.86667 8.26825 10.1333C8.53492 9.93333 8.93492 9.93333 9.20159 10.2C9.46826 10.4667 9.46826 10.8667 9.20159 11.1333C9.06825 11.2 8.26825 12 7.33492 12Z" fill="#747579"/>
<path d="M9 5.33301C9.55228 5.33301 10 4.88529 10 4.33301C10 3.78072 9.55228 3.33301 9 3.33301C8.44772 3.33301 8 3.78072 8 4.33301C8 4.88529 8.44772 5.33301 9 5.33301Z" fill="#747579"/>
<path d="M9.00033 5.66667C8.26699 5.66667 7.66699 5.06667 7.66699 4.33333C7.66699 3.6 8.26699 3 9.00033 3C9.73366 3 10.3337 3.6 10.3337 4.33333C10.3337 5.06667 9.73366 5.66667 9.00033 5.66667ZM9.00033 3.66667C8.60033 3.66667 8.33366 3.93333 8.33366 4.33333C8.33366 4.73333 8.60033 5 9.00033 5C9.40033 5 9.66699 4.73333 9.66699 4.33333C9.66699 3.93333 9.40033 3.66667 9.00033 3.66667Z" fill="#747579"/>
</svg>
