<svg width="16" height="17" viewBox="0 0 16 17" fill="none" xmlns="http://www.w3.org/2000/svg">
<path fill-rule="evenodd" clip-rule="evenodd" d="M10.6882 16.9998H2.23318C0.995401 16.9998 0 15.991 0 14.7455V2.26872C0 1.02319 1.00717 0 2.23318 0H10.6882C11.9142 0 12.9214 1.00885 12.9214 2.26872V10.526C12.9214 10.6647 12.8131 10.7746 12.6767 10.7746C12.5402 10.7746 12.4319 10.6647 12.4319 10.526V2.26872C12.4319 1.28616 11.6413 0.4853 10.6764 0.4853H2.23318C1.26602 0.4853 0.477699 1.28616 0.477699 2.26872V14.7455C0.477699 15.728 1.26602 16.5289 2.23318 16.5289H10.6882C10.9753 16.5289 11.2342 16.4596 11.4648 16.3496C11.5871 16.2946 11.7236 16.3353 11.7919 16.4476C11.846 16.5719 11.806 16.7106 11.6954 16.7799C11.3965 16.9305 11.0435 16.9998 10.6882 16.9998Z" fill="#24292D"/>
<path fill-rule="evenodd" clip-rule="evenodd" d="M6.4548 12.1301C4.05689 12.1301 2.09668 10.1387 2.09668 7.6907C2.09668 5.25703 4.04512 3.26562 6.4548 3.26562C8.86447 3.26562 10.8247 5.24269 10.8247 7.6907C10.8247 10.1531 8.86447 12.1301 6.4548 12.1301ZM6.4548 3.76288C4.31574 3.76288 2.57438 5.53195 2.57438 7.70505C2.57438 9.87575 4.31574 11.6616 6.4548 11.6616C8.5915 11.6616 10.3493 9.89009 10.3493 7.70505C10.3493 5.53195 8.60562 3.76288 6.4548 3.76288Z" fill="#24292D"/>
<path fill-rule="evenodd" clip-rule="evenodd" d="M6.45466 12.1299C5.14629 12.1299 4.125 10.1935 4.125 7.70481C4.125 5.22811 5.14629 3.27734 6.46878 3.27734C7.78892 3.27734 8.81021 5.21376 8.81021 7.70481C8.81021 10.1935 7.77481 12.1299 6.45466 12.1299ZM6.45466 3.76264C5.4475 3.76264 4.58858 5.56041 4.58858 7.70481C4.58858 9.84922 5.4475 11.6613 6.45466 11.6613C7.46183 11.6613 8.32075 9.84922 8.32075 7.70481C8.33251 5.56041 7.47595 3.76264 6.45466 3.76264Z" fill="#24292D"/>
<path fill-rule="evenodd" clip-rule="evenodd" d="M6.45323 12.1299C6.31674 12.1299 6.2085 12.0199 6.2085 11.8813V3.52597C6.2085 3.3897 6.31674 3.27734 6.45323 3.27734C6.58971 3.27734 6.69796 3.3897 6.69796 3.52597V11.8956C6.69796 12.0343 6.58971 12.1299 6.45323 12.1299Z" fill="#24292D"/>
<path fill-rule="evenodd" clip-rule="evenodd" d="M6.4548 10.0855C4.01689 10.0855 2.09668 9.03362 2.09668 7.70681C2.09668 6.37762 4.00277 5.32812 6.4548 5.32812C8.90447 5.32812 10.8247 6.36566 10.8247 7.70681C10.8247 9.03362 8.90447 10.0855 6.4548 10.0855ZM6.4548 5.81103C4.3581 5.81103 2.57438 6.68362 2.57438 7.70681C2.57438 8.73001 4.34398 9.60259 6.4548 9.60259C8.56561 9.60259 10.3493 8.73001 10.3493 7.70681C10.3493 6.68362 8.56561 5.81103 6.4548 5.81103Z" fill="#24292D"/>
<path fill-rule="evenodd" clip-rule="evenodd" d="M10.5799 7.93784H2.34141C2.20728 7.93784 2.09668 7.82787 2.09668 7.68921C2.09668 7.55055 2.20728 7.44058 2.34141 7.44058H10.5799C10.7164 7.44058 10.8247 7.55055 10.8247 7.68921C10.8247 7.82787 10.7164 7.93784 10.5799 7.93784ZM10.5799 2.39155H2.34141C2.20728 2.39155 2.09668 2.28158 2.09668 2.15727C2.09668 2.03295 2.20728 1.90625 2.34141 1.90625H10.5799C10.7164 1.90625 10.8247 2.01861 10.8247 2.15727C10.8247 2.29353 10.7164 2.39155 10.5799 2.39155ZM9.64102 13.4985H2.34141C2.20728 13.4985 2.09668 13.3885 2.09668 13.2498C2.09668 13.1112 2.20728 13.0012 2.34141 13.0012H9.64102C9.77751 13.0012 9.88575 13.1112 9.88575 13.2498C9.88575 13.3885 9.77751 13.4985 9.64102 13.4985ZM8.93271 15.0906H3.48506C3.35093 15.0906 3.24033 14.9783 3.24033 14.8396C3.24033 14.7034 3.35093 14.591 3.48506 14.591H8.93271C9.0692 14.591 9.17744 14.7034 9.17744 14.8396C9.17744 14.9783 9.0692 15.0906 8.93271 15.0906Z" fill="#24292D"/>
<path fill-rule="evenodd" clip-rule="evenodd" d="M12.6768 16.9998C10.853 16.9998 9.36816 15.4913 9.36816 13.6386C9.36816 11.7858 10.853 10.2773 12.6768 10.2773C14.5005 10.2773 15.9995 11.7858 15.9995 13.6386C15.9995 15.5057 14.5146 16.9998 12.6768 16.9998ZM12.6768 10.7746C11.1119 10.7746 9.84586 12.0608 9.84586 13.6529C9.84586 15.2427 11.1119 16.5289 12.6768 16.5289C14.2416 16.5289 15.5218 15.2427 15.5218 13.6529C15.5218 12.0608 14.2416 10.7746 12.6768 10.7746Z" fill="#24292D"/>
<path fill-rule="evenodd" clip-rule="evenodd" d="M11.3832 15.2008C11.329 15.2008 11.2608 15.1721 11.2208 15.1315C11.1243 15.0334 11.1243 14.8828 11.2208 14.7848L13.8211 12.1575C13.9176 12.0595 14.0658 12.0595 14.1623 12.1575C14.2564 12.2531 14.2564 12.4061 14.1623 12.5041L11.562 15.1315C11.5055 15.1721 11.4514 15.2008 11.3832 15.2008Z" fill="#24292D"/>
<path fill-rule="evenodd" clip-rule="evenodd" d="M13.9858 15.2008C13.9293 15.2008 13.8611 15.1721 13.8211 15.1315L11.2208 12.5041C11.1243 12.4061 11.1243 12.2531 11.2208 12.1575C11.3149 12.0595 11.4655 12.0595 11.562 12.1575L14.1623 14.7848C14.2564 14.8828 14.2564 15.0334 14.1623 15.1315C14.1082 15.1721 14.0517 15.2008 13.9858 15.2008Z" fill="#24292D"/>
</svg>
