<svg width="12" height="16" viewBox="0 0 12 16" fill="none" xmlns="http://www.w3.org/2000/svg">
<path d="M10.2 0H1.80003C1.32264 0 0.864808 0.180586 0.527243 0.502031C0.189679 0.823476 3.70127e-05 1.25945 3.70127e-05 1.71404V14.855C-0.00179411 15.0757 0.0643549 15.292 0.190299 15.4772C0.316243 15.6625 0.496455 15.8085 0.708635 15.8972C0.864333 15.9644 1.03325 15.9995 1.20423 16C1.49714 15.9993 1.77945 15.8956 1.99683 15.7086L5.60102 12.6582C5.7109 12.565 5.85289 12.5136 6.00002 12.5136C6.14714 12.5136 6.28914 12.565 6.39902 12.6582L10.0026 15.7086C10.1755 15.855 10.3891 15.9507 10.6177 15.9841C10.8464 16.0176 11.0803 15.9874 11.2913 15.8972C11.5024 15.807 11.6816 15.6607 11.8073 15.4758C11.933 15.2909 11.9999 15.0753 12 14.855V1.71404C12 1.25945 11.8104 0.823476 11.4728 0.502031C11.1352 0.180586 10.6774 0 10.2 0ZM10.8 14.855L7.19582 11.8046C6.86633 11.5257 6.44084 11.3717 6.00002 11.3717C5.5592 11.3717 5.13371 11.5257 4.80422 11.8046L1.20003 14.855V1.71404C1.20003 1.56251 1.26325 1.41719 1.37577 1.31004C1.48829 1.20289 1.6409 1.14269 1.80003 1.14269H10.2C10.3591 1.14269 10.5117 1.20289 10.6243 1.31004C10.7368 1.41719 10.8 1.56251 10.8 1.71404L10.8042 14.855H10.8Z" fill="#747579"/>
</svg>
