<svg width="76" height="76" viewBox="0 0 76 76" fill="none" xmlns="http://www.w3.org/2000/svg">
<path d="M28.0128 49.3381C39.7972 49.3381 49.3503 39.7873 49.3503 28.0059C49.3503 16.2245 39.7972 6.67383 28.0128 6.67383C16.2284 6.67383 6.67529 16.2245 6.67529 28.0059C6.67529 39.7873 16.2284 49.3381 28.0128 49.3381Z" stroke="#747579" stroke-width="2" stroke-miterlimit="10" stroke-linecap="round" stroke-linejoin="round"/>
<path d="M53.1217 58.6131L44.1646 49.6582" stroke="#747579" stroke-width="2" stroke-miterlimit="10" stroke-linecap="round" stroke-linejoin="round"/>
<path d="M58.6171 53.1189L49.6729 44.1641" stroke="#747579" stroke-width="2" stroke-miterlimit="10" stroke-linecap="round" stroke-linejoin="round"/>
<path d="M62.7355 54.7662L73.3399 65.368C75.5535 67.5809 75.5535 71.132 73.3399 73.345C71.1393 75.5451 67.5744 75.558 65.3609 73.345L54.7565 62.7433C52.5558 60.5431 52.5558 56.9663 54.7565 54.7662C55.8632 53.6597 57.3046 53.1065 58.7589 53.1194C60.2002 53.1194 61.6416 53.6726 62.7355 54.7662Z" stroke="#747579" stroke-width="2" stroke-miterlimit="10" stroke-linecap="round" stroke-linejoin="round"/>
<path d="M28.0129 55.0122C42.9318 55.0122 55.0259 42.9211 55.0259 28.0061C55.0259 13.091 42.9318 1 28.0129 1C13.0941 1 1 13.091 1 28.0061C1 42.9211 13.0941 55.0122 28.0129 55.0122Z" stroke="#747579" stroke-width="2" stroke-miterlimit="10" stroke-linecap="round" stroke-linejoin="round"/>
<path d="M42.7873 21.8296L27.64 28.0568L12.4927 21.8296L27.64 15.6152L42.7873 21.8296Z" stroke="#F3601E" stroke-width="2" stroke-miterlimit="10" stroke-linecap="round" stroke-linejoin="round"/>
<path d="M37.6909 23.9277V32.5352C37.6909 35.0441 35.6576 37.0898 33.1351 37.0898H22.1446C19.6351 37.0898 17.5889 35.057 17.5889 32.5352V23.9277" stroke="#F3601E" stroke-width="2" stroke-miterlimit="10" stroke-linecap="round" stroke-linejoin="round"/>
<path d="M42.7876 21.8281V31.8637" stroke="#F3601E" stroke-width="2" stroke-miterlimit="10" stroke-linecap="round" stroke-linejoin="round"/>
<path d="M41.9756 31.8672H43.5333" stroke="#F3601E" stroke-width="2" stroke-miterlimit="10" stroke-linecap="round" stroke-linejoin="round"/>
</svg>
