<svg width="20" height="17" viewBox="0 0 20 17" fill="none" xmlns="http://www.w3.org/2000/svg">
<path d="M12.4898 4.02148H6.82657C6.47352 4.02171 6.13499 4.16206 5.88534 4.41171C5.6357 4.66136 5.49535 4.99988 5.49512 5.35294V8.40688H13.8221V5.35294C13.8216 4.9998 13.6811 4.66128 13.4313 4.41166C13.1815 4.16204 12.8429 4.02171 12.4898 4.02148Z" fill="#F3601E"/>
<path d="M19.3186 10.1031C19.3172 9.48446 19.0976 8.88614 18.6985 8.41345C18.2994 7.94076 17.7463 7.624 17.1367 7.51893V0H2.18188V7.51893C1.57223 7.624 1.01918 7.94076 0.620074 8.41345C0.220971 8.88614 0.00139688 9.48446 0 10.1031V15.0197H2.18188V17H3.11537V15.0197H16.2032V17H17.1367V15.0197H19.3186V10.1031ZM3.11537 0.93262H16.2032V7.47308H3.11537V0.93262ZM18.386 14.0827H0.932621V10.1031C0.933079 9.65329 1.11197 9.22204 1.43003 8.90397C1.7481 8.58591 2.17935 8.40702 2.62916 8.40656H16.6894C17.1392 8.40702 17.5705 8.58591 17.8885 8.90397C18.2066 9.22204 18.3855 9.65329 18.386 10.1031V14.0827Z" fill="#F3601E"/>
</svg>
