<svg width="16" height="20" viewBox="0 0 16 20" fill="none" xmlns="http://www.w3.org/2000/svg">
<path d="M16 6.94C15.9896 6.84813 15.9695 6.75763 15.94 6.67V6.58C15.8919 6.47718 15.8278 6.38267 15.75 6.3L9.75 0.3C9.66734 0.222216 9.57282 0.158081 9.47 0.11H9.38L9.06 0H3C2.20435 0 1.44129 0.316071 0.87868 0.87868C0.316071 1.44129 0 2.20435 0 3V17C0 17.7956 0.316071 18.5587 0.87868 19.1213C1.44129 19.6839 2.20435 20 3 20H13C13.7956 20 14.5587 19.6839 15.1213 19.1213C15.6839 18.5587 16 17.7956 16 17V7C16 7 16 7 16 6.94ZM10 3.41L12.59 6H10V3.41ZM14 17C14 17.2652 13.8946 17.5196 13.7071 17.7071C13.5196 17.8946 13.2652 18 13 18H3C2.73478 18 2.48043 17.8946 2.29289 17.7071C2.10536 17.5196 2 17.2652 2 17V3C2 2.73478 2.10536 2.48043 2.29289 2.29289C2.48043 2.10536 2.73478 2 3 2H8V7C8 7.26522 8.10536 7.51957 8.29289 7.70711C8.48043 7.89464 8.73478 8 9 8H14V17Z" fill="#F3601E"/>
<path d="M11.95 12.7463C11.9182 12.6645 11.8706 12.5898 11.8099 12.5265L8.47519 9.1959C8.41301 9.13379 8.33918 9.08453 8.25794 9.05091C8.17669 9.0173 8.08961 9 8.00166 9C7.82405 9 7.65372 9.07047 7.52813 9.1959C7.46595 9.25801 7.41662 9.33174 7.38297 9.41289C7.34931 9.49404 7.33199 9.58101 7.33199 9.66884C7.33199 9.84623 7.40254 10.0164 7.52813 10.1418L9.72905 12.3333H4.66694C4.49006 12.3333 4.32042 12.4035 4.19534 12.5284C4.07027 12.6533 4 12.8228 4 12.9994C4 13.1761 4.07027 13.3455 4.19534 13.4704C4.32042 13.5954 4.49006 13.6655 4.66694 13.6655H9.72905L7.52813 15.8571C7.46562 15.919 7.416 15.9927 7.38214 16.0738C7.34828 16.155 7.33085 16.2421 7.33085 16.33C7.33085 16.418 7.34828 16.505 7.38214 16.5862C7.416 16.6674 7.46562 16.741 7.52813 16.803C7.59013 16.8654 7.6639 16.915 7.74517 16.9488C7.82645 16.9826 7.91362 17 8.00166 17C8.08971 17 8.17688 16.9826 8.25815 16.9488C8.33943 16.915 8.41319 16.8654 8.47519 16.803L11.8099 13.4724C11.8706 13.409 11.9182 13.3343 11.95 13.2526C12.0167 13.0904 12.0167 12.9085 11.95 12.7463Z" fill="#F3601E"/>
</svg>
