<svg width="17" height="18" viewBox="0 0 17 18" fill="none" xmlns="http://www.w3.org/2000/svg">
<path d="M0.000488281 3.21387V16.071C0.000488281 16.5825 0.203677 17.073 0.565354 17.4347C0.927031 17.7964 1.41757 17.9996 1.92906 17.9996H11.5719V16.7139H1.92906C1.75856 16.7139 1.59505 16.6461 1.47449 16.5256C1.35393 16.405 1.2862 16.2415 1.2862 16.071V3.21387H0.000488281Z" fill="#F3601E"/>
<path d="M16.7148 14.1429C16.7148 13.6314 16.5116 13.1408 16.1499 12.7792C15.7882 12.4175 15.2977 12.2143 14.7862 12.2143H14.1433V1.92857C14.1433 1.41708 13.9402 0.926543 13.5785 0.564866C13.2168 0.203188 12.7263 0 12.2148 0H1.92906C1.41757 0 0.927031 0.203188 0.565354 0.564866C0.203677 0.926543 0.000488281 1.41708 0.000488281 1.92857V2.57143H1.2862V1.92857C1.2862 1.75808 1.35393 1.59456 1.47449 1.474C1.59505 1.35344 1.75856 1.28571 1.92906 1.28571H12.2148C12.3853 1.28571 12.5488 1.35344 12.6693 1.474C12.7899 1.59456 12.8576 1.75808 12.8576 1.92857V16.0714C12.8594 16.2907 12.8985 16.5081 12.9733 16.7143H12.2148V18H14.7862C15.2977 18 15.7882 17.7968 16.1499 17.4351C16.5116 17.0735 16.7148 16.5829 16.7148 16.0714V14.1429ZM15.4291 16.0714C15.4291 16.2419 15.3613 16.4054 15.2408 16.526C15.1202 16.6466 14.9567 16.7143 14.7862 16.7143C14.6157 16.7143 14.4522 16.6466 14.3316 16.526C14.2111 16.4054 14.1433 16.2419 14.1433 16.0714V13.5H14.7862C14.9567 13.5 15.1202 13.5677 15.2408 13.6883C15.3613 13.8088 15.4291 13.9724 15.4291 14.1429V16.0714Z" fill="#F3601E"/>
<path d="M2.57178 8.99986H11.5718V10.2856H2.57178V8.99986ZM2.57178 11.5713H11.5718V12.857H2.57178V11.5713ZM2.57178 14.1427H11.5718V15.4284H2.57178V14.1427ZM10.9289 7.71415C11.0994 7.71415 11.2629 7.64642 11.3835 7.52586C11.504 7.4053 11.5718 7.24179 11.5718 7.07129V3.21415C11.5718 3.04365 11.504 2.88014 11.3835 2.75958C11.2629 2.63902 11.0994 2.57129 10.9289 2.57129H3.21463C3.04414 2.57129 2.88063 2.63902 2.76007 2.75958C2.63951 2.88014 2.57178 3.04365 2.57178 3.21415V7.07129C2.57178 7.24179 2.63951 7.4053 2.76007 7.52586C2.88063 7.64642 3.04414 7.71415 3.21463 7.71415H10.9289ZM3.85749 3.857H10.2861V6.42843H3.85749V3.857Z" fill="#F3601E"/>
</svg>
