<svg width="22" height="22" viewBox="0 0 22 22" fill="none" xmlns="http://www.w3.org/2000/svg">
<g clip-path="url(#clip0_2146_1658)">
<path d="M11 4C6.5889 4 3 7.5889 3 12C3 16.4111 6.5889 20 11 20C15.4111 20 19 16.4111 19 12C19 7.5889 15.4111 4 11 4ZM11 18C7.6914 18 5 15.3086 5 12C5 8.6914 7.6914 6 11 6C14.3086 6 17 8.6914 17 12C17 15.3086 14.3086 18 11 18ZM12 3C12.5522 3 13 2.5527 13 2C13 1.4473 12.5522 1 12 1H10C9.4478 1 9 1.4473 9 2C9 2.5527 9.4478 3 10 3H12ZM18.707 4.293C18.3164 3.9024 17.6836 3.9024 17.2929 4.293C16.9022 4.6836 16.9023 5.3164 17.2929 5.7071L18.2929 6.7071C18.4883 6.9023 18.7441 7 19 7C19.2559 7 19.5117 6.9023 19.707 6.707C20.0976 6.3164 20.0976 5.6836 19.707 5.2929L18.707 4.293Z" fill="#F3601E"/>
<path d="M11 9C10.4478 9 10 9.4473 10 10V12C10 12.5527 10.4478 13 11 13C11.5522 13 12 12.5527 12 12V10C12 9.4473 11.5522 9 11 9Z" fill="#F3601E"/>
</g>
<defs>
<clipPath id="clip0_2146_1658">
<rect width="22" height="22" fill="white"/>
</clipPath>
</defs>
</svg>
