<svg width="18" height="20" viewBox="0 0 18 20" fill="none" xmlns="http://www.w3.org/2000/svg">
<path d="M17.8509 5.67147C17.8583 5.60979 17.8583 5.54744 17.8509 5.48576C17.8536 5.46441 17.8536 5.44282 17.8509 5.42147C17.8168 5.34355 17.771 5.27129 17.7152 5.20718L12.7151 0.207144C12.651 0.151267 12.5788 0.105501 12.5008 0.0714291H12.4366L12.1937 0H5.00078C4.43246 0 3.88741 0.225766 3.48554 0.627633C3.08368 1.0295 2.85791 1.57455 2.85791 2.14287V16.4287C2.85791 16.6181 2.93317 16.7998 3.06712 16.9338C3.20108 17.0677 3.38276 17.143 3.5722 17.143H15.7152C16.2835 17.143 16.8285 16.9172 17.2304 16.5154C17.6323 16.1135 17.858 15.5684 17.858 15.0001V5.71433C17.858 5.71433 17.8509 5.71433 17.8509 5.67147ZM15.4223 5.00004H13.5723C13.3828 5.00004 13.2012 4.92478 13.0672 4.79083C12.9332 4.65687 12.858 4.47519 12.858 4.28575V2.43573L15.4223 5.00004ZM15.7152 15.7144H4.28649V2.14287C4.28649 1.95343 4.36175 1.77175 4.4957 1.63779C4.62966 1.50384 4.81134 1.42858 5.00078 1.42858H11.4294V4.28575C11.4294 4.85407 11.6552 5.39912 12.057 5.80099C12.4589 6.20286 13.004 6.42862 13.5723 6.42862H16.4294V15.0001C16.4294 15.1896 16.3542 15.3712 16.2202 15.5052C16.0863 15.6392 15.9046 15.7144 15.7152 15.7144Z" fill="#F3601E"/>
<path d="M7.143 9.99987H12.143C12.3325 9.99987 12.5142 9.92462 12.6481 9.79066C12.7821 9.6567 12.8573 9.47502 12.8573 9.28558C12.8573 9.09614 12.7821 8.91446 12.6481 8.7805C12.5142 8.64654 12.3325 8.57129 12.143 8.57129H7.143C6.95356 8.57129 6.77188 8.64654 6.63792 8.7805C6.50397 8.91446 6.42871 9.09614 6.42871 9.28558C6.42871 9.47502 6.50397 9.6567 6.63792 9.79066C6.77188 9.92462 6.95356 9.99987 7.143 9.99987ZM13.5716 11.4285H7.143C6.95356 11.4285 6.77188 11.5037 6.63792 11.6377C6.50397 11.7716 6.42871 11.9533 6.42871 12.1427C6.42871 12.3322 6.50397 12.5139 6.63792 12.6478C6.77188 12.7818 6.95356 12.857 7.143 12.857H13.5716C13.7611 12.857 13.9427 12.7818 14.0767 12.6478C14.2107 12.5139 14.2859 12.3322 14.2859 12.1427C14.2859 11.9533 14.2107 11.7716 14.0767 11.6377C13.9427 11.5037 13.7611 11.4285 13.5716 11.4285Z" fill="#F3601E"/>
<path d="M13.5715 18.5718H2.14287C1.95343 18.5718 1.77175 18.4966 1.63779 18.3626C1.50384 18.2287 1.42858 18.047 1.42858 17.8575V3.57171C1.42858 3.38227 1.35333 3.20059 1.21937 3.06663C1.08542 2.93268 0.903733 2.85742 0.714291 2.85742C0.524849 2.85742 0.343167 2.93268 0.209211 3.06663C0.0752554 3.20059 0 3.38227 0 3.57171V17.8575C0 18.4259 0.225766 18.9709 0.627633 19.3728C1.0295 19.7746 1.57455 20.0004 2.14287 20.0004H13.5715C13.761 20.0004 13.9427 19.9252 14.0766 19.7912C14.2106 19.6572 14.2858 19.4756 14.2858 19.2861C14.2858 19.0967 14.2106 18.915 14.0766 18.781C13.9427 18.6471 13.761 18.5718 13.5715 18.5718Z" fill="#F3601E"/>
</svg>
