<svg width="18" height="18" viewBox="0 0 18 18" fill="none" xmlns="http://www.w3.org/2000/svg">
<path d="M14.5718 18H0.856703C0.629432 17.9998 0.411533 17.9094 0.250828 17.7487C0.0901225 17.588 -0.00026135 17.3701 -0.000488281 17.1429V0.856215C-0.00026135 0.628943 0.0901225 0.411045 0.250828 0.25034C0.411533 0.0896342 0.629432 -0.000749631 0.856703 -0.000976562H14.5718C14.799 -0.000749631 15.0169 0.0896342 15.1776 0.25034C15.3384 0.411045 15.4287 0.628943 15.429 0.856215V4.71358C15.429 4.82725 15.3838 4.93626 15.3034 5.01664C15.2231 5.09702 15.114 5.14217 15.0004 5.14217C14.8867 5.14217 14.7777 5.09702 14.6973 5.01664C14.6169 4.93626 14.5718 4.82725 14.5718 4.71358V0.856215H0.856703V17.1429H14.5718V10.2853C14.5718 10.1717 14.6169 10.0626 14.6973 9.98226C14.7777 9.90188 14.8867 9.85673 15.0004 9.85673C15.114 9.85673 15.2231 9.90188 15.3034 9.98226C15.3838 10.0626 15.429 10.1717 15.429 10.2853V17.1429C15.4287 17.3701 15.3384 17.588 15.1776 17.7487C15.0169 17.9094 14.799 17.9998 14.5718 18Z" fill="#F3601E"/>
<path d="M15.0004 3.4275H0.428108C0.314437 3.4275 0.205422 3.38235 0.125045 3.30197C0.0446672 3.22159 -0.000488281 3.11258 -0.000488281 2.99891C-0.000488281 2.88524 0.0446672 2.77622 0.125045 2.69585C0.205422 2.61547 0.314437 2.57031 0.428108 2.57031H15.0004C15.114 2.57031 15.2231 2.61547 15.3034 2.69585C15.3838 2.77622 15.429 2.88524 15.429 2.99891C15.429 3.11258 15.3838 3.22159 15.3034 3.30197C15.2231 3.38235 15.114 3.4275 15.0004 3.4275Z" fill="#F3601E"/>
<path d="M2.99988 2.14235C3.23659 2.14235 3.42848 1.95046 3.42848 1.71375C3.42848 1.47705 3.23659 1.28516 2.99988 1.28516C2.76318 1.28516 2.57129 1.47705 2.57129 1.71375C2.57129 1.95046 2.76318 2.14235 2.99988 2.14235Z" fill="#F3601E"/>
<path d="M4.71424 2.14235C4.95095 2.14235 5.14284 1.95046 5.14284 1.71375C5.14284 1.47705 4.95095 1.28516 4.71424 1.28516C4.47753 1.28516 4.28564 1.47705 4.28564 1.71375C4.28564 1.95046 4.47753 2.14235 4.71424 2.14235Z" fill="#F3601E"/>
<path d="M6.4286 2.14235C6.6653 2.14235 6.85719 1.95046 6.85719 1.71375C6.85719 1.47705 6.6653 1.28516 6.4286 1.28516C6.19189 1.28516 6 1.47705 6 1.71375C6 1.95046 6.19189 2.14235 6.4286 2.14235Z" fill="#F3601E"/>
<path d="M4.28544 7.71392H2.57106C2.34379 7.7137 2.12589 7.62331 1.96518 7.46261C1.80448 7.3019 1.71409 7.084 1.71387 6.85673V5.14235C1.71409 4.91508 1.80448 4.69718 1.96518 4.53647C2.12589 4.37577 2.34379 4.28538 2.57106 4.28516H4.28544C4.51271 4.28538 4.73061 4.37577 4.89132 4.53647C5.05202 4.69718 5.14241 4.91508 5.14263 5.14235V6.85673C5.14241 7.084 5.05202 7.3019 4.89132 7.46261C4.73061 7.62331 4.51271 7.7137 4.28544 7.71392ZM2.57106 5.14235V6.85673H4.2863L4.28544 5.14235H2.57106ZM11.5716 5.57094H6.42842C6.31475 5.57094 6.20574 5.52579 6.12536 5.44541C6.04498 5.36503 5.99983 5.25602 5.99983 5.14235C5.99983 5.02868 6.04498 4.91966 6.12536 4.83928C6.20574 4.75891 6.31475 4.71375 6.42842 4.71375H11.5716C11.6852 4.71375 11.7943 4.75891 11.8746 4.83928C11.955 4.91966 12.0002 5.02868 12.0002 5.14235C12.0002 5.25602 11.955 5.36503 11.8746 5.44541C11.7943 5.52579 11.6852 5.57094 11.5716 5.57094ZM11.5716 7.28533H6.42842C6.31475 7.28533 6.20574 7.24017 6.12536 7.15979C6.04498 7.07942 5.99983 6.9704 5.99983 6.85673C5.99983 6.74306 6.04498 6.63405 6.12536 6.55367C6.20574 6.47329 6.31475 6.42814 6.42842 6.42814H11.5716C11.6852 6.42814 11.7943 6.47329 11.8746 6.55367C11.955 6.63405 12.0002 6.74306 12.0002 6.85673C12.0002 6.9704 11.955 7.07942 11.8746 7.15979C11.7943 7.24017 11.6852 7.28533 11.5716 7.28533ZM4.28544 11.9999H2.57106C2.34379 11.9997 2.12589 11.9093 1.96518 11.7486C1.80448 11.5879 1.71409 11.37 1.71387 11.1427V9.42831C1.71409 9.20103 1.80448 8.98314 1.96518 8.82243C2.12589 8.66173 2.34379 8.57134 2.57106 8.57111H4.28544C4.51271 8.57134 4.73061 8.66173 4.89132 8.82243C5.05202 8.98314 5.14241 9.20103 5.14263 9.42831V11.1427C5.14241 11.37 5.05202 11.5879 4.89132 11.7486C4.73061 11.9093 4.51271 11.9997 4.28544 11.9999ZM2.57106 9.42831V11.1427H4.2863L4.28544 9.42831H2.57106ZM10.7144 9.8569H6.42842C6.31475 9.8569 6.20574 9.81175 6.12536 9.73137C6.04498 9.65099 5.99983 9.54198 5.99983 9.42831C5.99983 9.31464 6.04498 9.20562 6.12536 9.12524C6.20574 9.04487 6.31475 8.99971 6.42842 8.99971H10.7144C10.828 8.99971 10.9371 9.04487 11.0174 9.12524C11.0978 9.20562 11.143 9.31464 11.143 9.42831C11.143 9.54198 11.0978 9.65099 11.0174 9.73137C10.9371 9.81175 10.828 9.8569 10.7144 9.8569ZM9.85719 11.5713H6.42842C6.31475 11.5713 6.20574 11.5261 6.12536 11.4458C6.04498 11.3654 5.99983 11.2564 5.99983 11.1427C5.99983 11.029 6.04498 10.92 6.12536 10.8396C6.20574 10.7592 6.31475 10.7141 6.42842 10.7141H9.85719C9.97086 10.7141 10.0799 10.7592 10.1603 10.8396C10.2406 10.92 10.2858 11.029 10.2858 11.1427C10.2858 11.2564 10.2406 11.3654 10.1603 11.4458C10.0799 11.5261 9.97086 11.5713 9.85719 11.5713ZM4.28544 16.2858H2.57106C2.34379 16.2856 2.12589 16.1952 1.96518 16.0345C1.80448 15.8738 1.71409 15.6559 1.71387 15.4286V13.7143C1.71409 13.487 1.80448 13.2691 1.96518 13.1084C2.12589 12.9477 2.34379 12.8573 2.57106 12.8571H4.28544C4.51271 12.8573 4.73061 12.9477 4.89132 13.1084C5.05202 13.2691 5.14241 13.487 5.14263 13.7143V15.4286C5.14241 15.6559 5.05202 15.8738 4.89132 16.0345C4.73061 16.1952 4.51271 16.2856 4.28544 16.2858ZM2.57106 13.7143V15.4286H4.2863L4.28544 13.7143H2.57106ZM8.5714 14.1429H6.42842C6.31475 14.1429 6.20574 14.0977 6.12536 14.0173C6.04498 13.9369 5.99983 13.8279 5.99983 13.7143C5.99983 13.6006 6.04498 13.4916 6.12536 13.4112C6.20574 13.3308 6.31475 13.2857 6.42842 13.2857H8.5714C8.68507 13.2857 8.79409 13.3308 8.87446 13.4112C8.95484 13.4916 9 13.6006 9 13.7143C9 13.8279 8.95484 13.9369 8.87446 14.0173C8.79409 14.0977 8.68507 14.1429 8.5714 14.1429ZM10.7144 15.8572H6.42842C6.31475 15.8572 6.20574 15.8121 6.12536 15.7317C6.04498 15.6513 5.99983 15.5423 5.99983 15.4286C5.99983 15.315 6.04498 15.206 6.12536 15.1256C6.20574 15.0452 6.31475 15.0001 6.42842 15.0001H10.7144C10.828 15.0001 10.9371 15.0452 11.0174 15.1256C11.0978 15.206 11.143 15.315 11.143 15.4286C11.143 15.5423 11.0978 15.6513 11.0174 15.7317C10.9371 15.8121 10.828 15.8572 10.7144 15.8572Z" fill="#F3601E"/>
<path d="M10.739 15.5636C10.6456 15.5635 10.5547 15.5329 10.4803 15.4764C10.4059 15.4199 10.3519 15.3407 10.3267 15.2507L9.83298 13.5008C9.80213 13.3914 9.81601 13.2742 9.87155 13.175L14.899 4.2011C14.954 4.10282 15.0278 4.01635 15.1162 3.94664C15.2047 3.87692 15.306 3.82532 15.4144 3.79479C15.5228 3.76425 15.6361 3.75539 15.7479 3.7687C15.8597 3.78201 15.9678 3.81724 16.066 3.87236L17.5618 4.71027C17.6601 4.7653 17.7465 4.83914 17.8162 4.92758C17.8859 5.01602 17.9375 5.11732 17.968 5.2257C17.9985 5.33408 18.0074 5.44741 17.9941 5.55922C17.9808 5.67103 17.9456 5.77912 17.8906 5.87733L12.8631 14.8513C12.8075 14.9503 12.7149 15.0232 12.6056 15.054L10.8552 15.5473C10.8174 15.5581 10.7783 15.5636 10.739 15.5636ZM10.7065 13.4391L11.0352 14.6061L12.2023 14.2774L17.1427 5.45774L15.6469 4.62026L10.7065 13.4391Z" fill="#F3601E"/>
<path d="M16.8875 7.21765C16.8144 7.21752 16.7425 7.19863 16.6788 7.16279L14.4351 5.90614C14.3359 5.85056 14.2629 5.75785 14.232 5.64842C14.2012 5.53898 14.2151 5.42179 14.2707 5.32261C14.3263 5.22343 14.419 5.1504 14.5284 5.11957C14.6379 5.08875 14.7551 5.10266 14.8542 5.15824L17.0975 6.41489C17.1804 6.4612 17.2456 6.53372 17.2828 6.62107C17.32 6.70843 17.3272 6.80567 17.3031 6.89753C17.2791 6.98939 17.2252 7.07067 17.15 7.1286C17.0748 7.18654 16.9825 7.21786 16.8875 7.21765ZM13.3267 13.5737C13.2535 13.5738 13.1815 13.555 13.1176 13.5193L10.8739 12.2626C10.8248 12.2351 10.7816 12.1982 10.7467 12.154C10.7119 12.1098 10.6861 12.0591 10.6708 12.0049C10.6556 11.9507 10.6511 11.8941 10.6578 11.8382C10.6644 11.7823 10.682 11.7282 10.7095 11.6791C10.737 11.63 10.774 11.5868 10.8182 11.552C10.8624 11.5171 10.9131 11.4913 10.9672 11.4761C11.0214 11.4608 11.0781 11.4564 11.134 11.463C11.1899 11.4696 11.2439 11.4872 11.293 11.5147L13.5367 12.7714C13.6196 12.8177 13.6848 12.8902 13.722 12.9776C13.7592 13.0649 13.7664 13.1622 13.7424 13.254C13.7183 13.3459 13.6645 13.4272 13.5892 13.4851C13.514 13.543 13.4217 13.5739 13.3267 13.5737Z" fill="#F3601E"/>
</svg>
