<svg width="18" height="18" viewBox="0 0 18 18" fill="none" xmlns="http://www.w3.org/2000/svg">
<path d="M9 0C7.21997 0 5.47991 0.527841 3.99987 1.51677C2.51983 2.50571 1.36628 3.91131 0.685088 5.55585C0.00389955 7.20038 -0.17433 9.00998 0.172936 10.7558C0.520203 12.5016 1.37737 14.1053 2.63604 15.364C3.89471 16.6226 5.49836 17.4798 7.24419 17.8271C8.99002 18.1743 10.7996 17.9961 12.4441 17.3149C14.0887 16.6337 15.4943 15.4802 16.4832 14.0001C17.4722 12.5201 18 10.78 18 9C18 7.8181 17.7672 6.64778 17.3149 5.55585C16.8626 4.46392 16.1997 3.47176 15.364 2.63604C14.5282 1.80031 13.5361 1.13738 12.4441 0.685084C11.3522 0.232792 10.1819 0 9 0ZM9 16.2C7.57597 16.2 6.18393 15.7777 4.9999 14.9866C3.81586 14.1954 2.89302 13.0709 2.34807 11.7553C1.80312 10.4397 1.66054 8.99201 1.93835 7.59535C2.21616 6.19868 2.9019 4.91577 3.90883 3.90883C4.91577 2.90189 6.19869 2.21616 7.59535 1.93835C8.99201 1.66053 10.4397 1.80312 11.7553 2.34807C13.0709 2.89302 14.1954 3.81586 14.9866 4.99989C15.7777 6.18393 16.2 7.57597 16.2 9C16.2 10.9096 15.4414 12.7409 14.0912 14.0912C12.7409 15.4414 10.9096 16.2 9 16.2Z" fill="#F3601E"/>
<path d="M9.20587 4.49985C8.83331 4.47246 8.45937 4.52944 8.11189 4.66657C7.7644 4.80369 7.45232 5.01742 7.19887 5.29185C6.72957 5.89573 6.46477 6.63337 6.44287 7.39785L8.33287 7.69485C8.34029 7.34246 8.43956 6.99811 8.62087 6.69585C8.68585 6.60425 8.7724 6.53005 8.87286 6.47982C8.97331 6.4296 9.08459 6.40488 9.19687 6.40785C9.28464 6.40181 9.37269 6.41475 9.45501 6.44582C9.53732 6.47688 9.61197 6.52533 9.67387 6.58785C9.78944 6.73988 9.8469 6.9282 9.83587 7.11885C9.80029 7.40555 9.65909 7.66869 9.43987 7.85685C9.10125 8.19494 8.78271 8.55255 8.48587 8.92785C8.34696 9.13865 8.24076 9.36927 8.17087 9.61185C8.09052 9.92631 8.05417 10.2504 8.06287 10.5749V10.7999H9.89887C9.88683 10.5359 9.92973 10.2723 10.0249 10.0259C10.1813 9.72848 10.3919 9.46293 10.6459 9.24285C11.0061 8.89968 11.3098 8.50178 11.5459 8.06385C11.6956 7.749 11.7725 7.40448 11.7709 7.05585C11.7823 6.67636 11.7072 6.29925 11.5512 5.95308C11.3953 5.60692 11.1626 5.30078 10.8709 5.05785C10.3999 4.67966 9.80958 4.48181 9.20587 4.49985ZM8.99887 11.4479C8.82087 11.4479 8.64686 11.5006 8.49886 11.5995C8.35085 11.6984 8.2355 11.839 8.16738 12.0034C8.09926 12.1679 8.08144 12.3488 8.11616 12.5234C8.15089 12.698 8.23661 12.8584 8.36247 12.9842C8.48834 13.1101 8.64871 13.1958 8.82329 13.2306C8.99787 13.2653 9.17883 13.2475 9.34328 13.1793C9.50774 13.1112 9.6483 12.9959 9.74719 12.8479C9.84609 12.6999 9.89887 12.5259 9.89887 12.3479C9.89887 12.1092 9.80405 11.8802 9.63527 11.7115C9.46648 11.5427 9.23756 11.4479 8.99887 11.4479Z" fill="#F3601E"/>
</svg>
