<svg width="21" height="20" viewBox="0 0 21 20" fill="none" xmlns="http://www.w3.org/2000/svg">
<path d="M19.732 12.3367C19.4653 11.8707 19.0333 11.5387 18.5167 11.4007C18 11.2627 17.4613 11.3367 17.0307 11.588L13.5207 13.382C13.1527 12.948 12.6113 12.6667 12 12.6667H6.66667C5.722 12.6667 4.74667 13.1807 4.09267 14H3.33333C3.33333 13.632 3.03467 13.3333 2.66667 13.3333H0.666667C0.298667 13.3333 0 13.632 0 14V19.3333C0 19.7013 0.298667 20 0.666667 20H2.66667C3.03467 20 3.33333 19.7013 3.33333 19.3333H10.6667C11.1607 19.3333 11.8447 19.128 12.216 18.88L18.9933 15.0693L19.06 15.0267C19.9967 14.3427 20.2667 13.2613 19.732 12.3367ZM2 18.6667H1.33333V14.6667H2V18.6667ZM18.3027 13.9287L11.522 17.7427C11.3253 17.8727 10.902 18 10.6667 18H3.33333V15.3333H4.43333C4.66 15.3333 4.87133 15.218 4.994 15.0273C5.38933 14.4127 6.06133 14 6.66667 14H12C12.368 14 12.6667 14.2993 12.6667 14.6667C12.6667 15.034 12.368 15.3333 12 15.3333H8C7.632 15.3333 7.33333 15.632 7.33333 16C7.33333 16.368 7.632 16.6667 8 16.6667H12C13.1027 16.6667 14 15.7693 14 14.6667C14 14.656 13.9967 14.646 13.9967 14.636L17.6693 12.758C17.8233 12.668 18.0033 12.644 18.172 12.6887C18.3433 12.7347 18.4867 12.8447 18.5767 13.0027C18.8127 13.41 18.5653 13.7273 18.3027 13.9287ZM2 10.6667H18C18.3687 10.6667 18.6667 10.368 18.6667 10V0.666667C18.6667 0.298667 18.3687 0 18 0H2C1.632 0 1.33333 0.298667 1.33333 0.666667V10C1.33333 10.368 1.632 10.6667 2 10.6667ZM5.266 1.33333H14.7347C15 2.63733 16.0293 3.66667 17.3333 3.93267V6.734C16.0293 7 15 8.02933 14.7347 9.33333H5.266C5 8.02933 3.97067 7 2.66667 6.734V3.93267C3.97067 3.66667 5 2.63733 5.266 1.33333ZM2.66667 8.12267C3.23133 8.324 3.676 8.76867 3.87733 9.33333H2.66667V8.12267ZM16.1233 9.33333C16.3247 8.76867 16.7687 8.324 17.3333 8.12267V9.33333H16.1233ZM17.3333 2.54333C16.768 2.34267 16.324 1.898 16.1233 1.33333H17.3333V2.54333ZM3.87733 1.33333C3.676 1.898 3.23133 2.34267 2.66667 2.544V1.33333H3.87733Z" fill="#F3601E"/>
<path d="M9.99984 8.66667C11.8378 8.66667 13.3332 7.17133 13.3332 5.33333C13.3332 3.49533 11.8378 2 9.99984 2C8.16184 2 6.6665 3.49533 6.6665 5.33333C6.6665 7.17133 8.16184 8.66667 9.99984 8.66667ZM9.99984 3.33333C11.1025 3.33333 11.9998 4.23067 11.9998 5.33333C11.9998 6.436 11.1025 7.33333 9.99984 7.33333C8.89717 7.33333 7.99984 6.436 7.99984 5.33333C7.99984 4.23067 8.89717 3.33333 9.99984 3.33333Z" fill="#F3601E"/>
</svg>
