<svg width="15" height="20" viewBox="0 0 15 20" fill="none" xmlns="http://www.w3.org/2000/svg">
<path d="M5.84602 12.378H14.666V12.6807C14.666 16.7769 11.2917 20.0004 7.51648 20.0004C3.64102 20.0004 0.25 16.8303 0.25 12.5026C0.25 8.264 3.62432 5.00488 7.43295 5.00488C10.824 5.00488 13.2962 7.46258 13.9811 9.51066H10.991C10.4064 8.54895 9.17023 7.48039 7.38284 7.48039C4.34261 7.4982 2.75568 10.2765 2.75568 12.5204C2.75568 14.711 4.3092 17.5071 7.51648 17.5071C9.17023 17.5071 10.7237 16.5276 11.5089 14.8535H5.84602V12.378Z" fill="white"/>
<path d="M1.67045 4.89758C1.67045 4.89758 4.57704 0.926088 8.71977 2.95636L10.1062 1.5138L4.27636 0L0 4.89758H1.67045Z" fill="white"/>
<path d="M2.87179 5.9483L2.521 4.77288C2.521 4.77288 3.77384 2.83166 7.89986 3.02756L8.46781 4.48793C8.46781 4.48793 5.64475 3.97146 2.87179 5.9483Z" fill="white"/>
<path d="M1.0852 7.71124C1.32506 7.71124 1.51951 7.50393 1.51951 7.2482C1.51951 6.99247 1.32506 6.78516 1.0852 6.78516C0.845329 6.78516 0.650879 6.99247 0.650879 7.2482C0.650879 7.50393 0.845329 7.71124 1.0852 7.71124Z" fill="white"/>
<path d="M1.16851 4.70215H1.00146V7.19546H1.16851V4.70215Z" fill="white"/>
</svg>
