<svg width="18" height="17" viewBox="0 0 18 17" fill="none" xmlns="http://www.w3.org/2000/svg">
<path d="M10.9974 0C7.14024 0 3.99902 2.45317 3.99902 5.46696C3.99902 7.16583 5.01933 8.76956 6.72543 9.79568V12.3168C6.72377 12.4377 6.7539 12.5568 6.8127 12.662C6.87151 12.7671 6.95686 12.8544 7.05996 12.9148C7.16169 12.9737 7.27742 13.0031 7.39448 12.9997C7.53055 13.0004 7.66359 12.9589 7.77585 12.8808L10.5959 10.9169C10.723 10.9169 10.8568 10.9169 10.9974 10.9169C14.8578 10.9169 17.999 8.47735 17.999 5.48055C17.999 2.48375 14.8578 0 10.9974 0ZM10.9974 9.56803C10.7833 9.56803 10.6093 9.56803 10.4186 9.54424C10.2805 9.54348 10.1453 9.58491 10.0306 9.66316L8.06354 11.0223V9.39474C8.06348 9.26961 8.0294 9.14692 7.96506 9.0402C7.90072 8.93348 7.80862 8.84688 7.6989 8.78995C6.22029 8.01526 5.35721 6.77169 5.35721 5.46696C5.35721 3.20067 7.89293 1.36249 11.0141 1.36249C14.1352 1.36249 16.6609 3.20067 16.6609 5.48055C16.6609 7.76043 14.1185 9.55783 10.9974 9.55783V9.56803Z" fill="#F3601E"/>
<path d="M7.23686 13.912C7.07044 13.7029 6.84425 13.5495 6.58843 13.4723C6.33262 13.395 6.05933 13.3976 5.805 13.4796L5.71336 13.5111C5.56743 13.5541 5.4121 13.5534 5.26655 13.5091C5.121 13.4648 4.9916 13.3789 4.89433 13.2619L3.07873 10.8048C3.04811 10.7713 3.02591 10.731 3.01396 10.6871C3.00201 10.6433 3.00065 10.5973 3.01 10.5528C3.02802 10.5113 3.05513 10.4743 3.08932 10.4445C3.12351 10.4148 3.16392 10.3931 3.2076 10.381C3.32927 10.3414 3.44001 10.2739 3.53099 10.1839C3.62198 10.0939 3.69069 9.98391 3.73166 9.86268C3.76673 9.74048 3.77256 9.61175 3.74868 9.48688C3.7248 9.36202 3.67188 9.24452 3.5942 9.14388L2.88686 8.15303C2.72375 7.93963 2.49828 7.78225 2.24172 7.70272C1.98516 7.62318 1.71022 7.62543 1.45499 7.70916L1.20871 7.79793C0.94275 7.88052 0.700206 8.0251 0.501055 8.21977C0.301904 8.41444 0.151841 8.65363 0.0632223 8.91765C-0.0110991 9.18578 -0.0210458 9.46768 0.0341919 9.74038C0.0894297 10.0131 0.20829 10.2689 0.381096 10.487L3.39087 14.6279C3.76525 15.0858 4.23357 15.458 4.76418 15.7194C5.29478 15.9807 5.87531 16.1251 6.46652 16.1428C6.75928 16.1454 7.05018 16.096 7.32564 15.9968L7.44019 15.9538C7.56424 15.9176 7.67734 15.8512 7.7693 15.7604C7.86126 15.6696 7.92919 15.5574 7.96697 15.4338C8.00475 15.3102 8.0112 15.1792 7.98573 15.0525C7.96026 14.9258 7.90367 14.8075 7.82106 14.7081L7.23686 13.912ZM11.3228 5.3982C11.5755 5.3982 11.8224 5.32329 12.0324 5.18295C12.2425 5.0426 12.4062 4.84313 12.5028 4.60975C12.5995 4.37636 12.6248 4.11956 12.5755 3.8718C12.5262 3.62404 12.4046 3.39646 12.226 3.21784C12.0474 3.03922 11.8198 2.91757 11.572 2.86829C11.3243 2.81901 11.0675 2.8443 10.8341 2.94097C10.6007 3.03764 10.4012 3.20135 10.2609 3.41139C10.1205 3.62142 10.0456 3.86836 10.0456 4.12097C10.0456 4.45971 10.1802 4.78458 10.4197 5.02411C10.6592 5.26363 10.9841 5.3982 11.3228 5.3982ZM11.3228 5.63589C10.7426 5.63589 10.1861 5.86639 9.77577 6.2767C9.36546 6.68701 9.13496 7.24351 9.13496 7.82377V8.15597H13.5107V7.82377C13.5107 7.24351 13.2802 6.68701 12.8699 6.2767C12.4596 5.86639 11.9031 5.63589 11.3228 5.63589Z" fill="#F3601E"/>
</svg>
