<svg width="24" height="24" viewBox="0 0 24 24" fill="none" xmlns="http://www.w3.org/2000/svg">
<path fill-rule="evenodd" clip-rule="evenodd" d="M12 10.25C11.0335 10.25 10.25 11.0335 10.25 12C10.25 12.9665 11.0335 13.75 12 13.75C12.9665 13.75 13.75 12.9665 13.75 12C13.75 11.0335 12.9665 10.25 12 10.25ZM8.75 12C8.75 10.2051 10.2051 8.75 12 8.75C13.7949 8.75 15.25 10.2051 15.25 12C15.25 13.7949 13.7949 15.25 12 15.25C10.2051 15.25 8.75 13.7949 8.75 12Z" fill="#F3601E"/>
<path fill-rule="evenodd" clip-rule="evenodd" d="M8.63374 7.46227C8.93072 7.75101 8.93739 8.22584 8.64865 8.52282C6.78378 10.4409 6.78378 13.5591 8.64865 15.4772C8.93739 15.7742 8.93072 16.249 8.63374 16.5377C8.33675 16.8265 7.86193 16.8198 7.57318 16.5228C5.14227 14.0226 5.14227 9.97741 7.57318 7.47718C7.86193 7.1802 8.33675 7.17352 8.63374 7.46227ZM15.3663 7.46227C15.6632 7.17352 16.1381 7.1802 16.4268 7.47718C18.8577 9.97741 18.8577 14.0226 16.4268 16.5228C16.1381 16.8198 15.6632 16.8265 15.3663 16.5377C15.0693 16.249 15.0626 15.7742 15.3514 15.4772C17.2162 13.5591 17.2162 10.4409 15.3514 8.52282C15.0626 8.22584 15.0693 7.75101 15.3663 7.46227Z" fill="#F3601E"/>
<path fill-rule="evenodd" clip-rule="evenodd" d="M6.52038 5.47013C6.81302 5.76328 6.81261 6.23815 6.51946 6.53079C3.49351 9.5515 3.49351 14.4485 6.51946 17.4692C6.81261 17.7618 6.81302 18.2367 6.52038 18.5299C6.22774 18.823 5.75287 18.8234 5.45972 18.5308C1.84676 14.9241 1.84676 9.07592 5.45972 5.46921C5.75287 5.17657 6.22774 5.17698 6.52038 5.47013ZM17.4796 5.47013C17.7723 5.17698 18.2471 5.17657 18.5403 5.46921C20.3452 7.27104 21.2488 9.63401 21.25 11.9952C21.2502 12.4094 20.9146 12.7453 20.5004 12.7456C20.0862 12.7458 19.7502 12.4102 19.75 11.9959C19.749 10.0169 18.9928 8.04041 17.4805 6.53079C17.1874 6.23815 17.187 5.76328 17.4796 5.47013ZM19.854 15.3366C20.2192 15.5321 20.3567 15.9867 20.1612 16.3518C19.7415 17.1358 19.2009 17.8713 18.5403 18.5308C18.2471 18.8234 17.7723 18.823 17.4796 18.5299C17.187 18.2367 17.1874 17.7618 17.4805 17.4692C18.0356 16.9151 18.488 16.299 18.8388 15.6439C19.0343 15.2787 19.4888 15.1411 19.854 15.3366Z" fill="#F3601E"/>
</svg>
