<svg width="18" height="19" viewBox="0 0 18 19" fill="none" xmlns="http://www.w3.org/2000/svg">
<path d="M4.38462 13.3075C6.25389 13.3075 7.76923 12.481 7.76923 11.4614C7.76923 10.4418 6.25389 9.61523 4.38462 9.61523C2.51534 9.61523 1 10.4418 1 11.4614C1 12.481 2.51534 13.3075 4.38462 13.3075Z" stroke="#F3601E" stroke-miterlimit="10" stroke-linecap="round" stroke-linejoin="round"/>
<path d="M7.76923 13.9229C7.76923 14.9425 6.25415 15.769 4.38462 15.769C2.51508 15.769 1 14.9425 1 13.9229M7.76923 16.3844C7.76923 17.4041 6.25415 18.2305 4.38462 18.2305C2.51508 18.2305 1 17.4041 1 16.3844" stroke="#F3601E" stroke-miterlimit="10" stroke-linecap="round" stroke-linejoin="round"/>
<path d="M7.76904 11.4619V16.385" stroke="#F3601E" stroke-miterlimit="10" stroke-linecap="round" stroke-linejoin="round"/>
<path d="M1 11.4619V16.385" stroke="#F3601E" stroke-miterlimit="10" stroke-linecap="round" stroke-linejoin="round"/>
<path d="M13.6156 13.3075C15.4848 13.3075 17.0002 12.481 17.0002 11.4614C17.0002 10.4418 15.4848 9.61523 13.6156 9.61523C11.7463 9.61523 10.231 10.4418 10.231 11.4614C10.231 12.481 11.7463 13.3075 13.6156 13.3075Z" stroke="#F3601E" stroke-miterlimit="10" stroke-linecap="round" stroke-linejoin="round"/>
<path d="M17.0002 13.9229C17.0002 14.9425 15.4851 15.769 13.6156 15.769C11.746 15.769 10.231 14.9425 10.231 13.9229M17.0002 16.3844C17.0002 17.4041 15.4851 18.2305 13.6156 18.2305C11.746 18.2305 10.231 17.4041 10.231 16.3844" stroke="#F3601E" stroke-miterlimit="10" stroke-linecap="round" stroke-linejoin="round"/>
<path d="M17 11.4619V16.385" stroke="#F3601E" stroke-miterlimit="10" stroke-linecap="round" stroke-linejoin="round"/>
<path d="M10.231 11.4619V16.385" stroke="#F3601E" stroke-miterlimit="10" stroke-linecap="round" stroke-linejoin="round"/>
<path d="M8.99989 1L3.46143 3.15385L8.99989 5.30769L14.5383 3.15385L8.99989 1Z" stroke="#F3601E" stroke-miterlimit="10" stroke-linecap="round" stroke-linejoin="round"/>
<path d="M5.92285 4.34082V6.8559C5.92285 6.8559 7.24162 7.76913 8.99977 7.76913C10.7579 7.76913 12.0767 6.8559 12.0767 6.8559V4.34082" stroke="#F3601E" stroke-miterlimit="10" stroke-linecap="round" stroke-linejoin="round"/>
<path d="M13.9229 5.92297V3.43066" stroke="#F3601E" stroke-miterlimit="10" stroke-linecap="round" stroke-linejoin="round"/>
</svg>
